<svg x="0" y="0" width="909" height="1286" viewBox="0 0 909 1286" version="1.1" xmlns="http://www.w3.org/2000/svg">
<defs>

<style type="text/css">
text {
  font-family: Arial, Helvetica, sans-serif;
  fill: #000000;
}
.s2_1{
font-size: 16.13px;
}
.s3_1{
font-size: 13.75px;
}
.s4_1{
font-size: 15.22px;
}
</style>

</defs>

<path d="M0,0
L0,1286
L909,1286
L909,0 Z " fill="#FFFFFF" stroke="none" />
<text x="67" y="66" dx="0,0.3,0.1,-0.1,-0.1,0,0,0,0,-0.1,0,-0.1,0.1,-0.1,0,0.1,-0.1,-0.1,-0.1,0,-0.1,0.1,-0.1,-0.1,-0.1,-0.1,0,0,0,0.1,-0.1,0,0.1,0,-0.1,0.1,0,0,0,0,-0.1,-0.1,0.1,0,0,0,0.3,0,0,0,0.1,-0.1,0,0,0,-0.1,0.1,-0.1,-0.1,0,0.1,-0.6,-0.1,0.1,0,-0.1,0,0.1,0,0.2" style="font-size:21.45px"
>Mindestanforderungen Bundesliga ab Saison 2017-18 gemäß BLO Anlage VI </text>

<path fill-rule="evenodd" d="M38.5,44.4l1.1,0l0,-1.1l-1.1,0l0,1.1Z" />
<path fill-rule="evenodd" d="M38.5,44.4l1.1,0l0,-1.1l-1.1,0l0,1.1Z" />
<path fill-rule="evenodd" d="M39.6,44.4l839.5,0l0,-1.1l-839.5,0l0,1.1Z" />
<path fill-rule="evenodd" d="M879.1,44.4l1.1,0l0,-1.1l-1.1,0l0,1.1Z" />
<path fill-rule="evenodd" d="M879.1,44.4l1.1,0l0,-1.1l-1.1,0l0,1.1Z" />
<path fill-rule="evenodd" d="M38.5,73.7l1.1,0l0,-1.1l-1.1,0l0,1.1Z" />
<path fill-rule="evenodd" d="M38.5,73.7l1.1,0l0,-1.1l-1.1,0l0,1.1Z" />
<path fill-rule="evenodd" d="M39.6,73.7l839.5,0l0,-1.1l-839.5,0l0,1.1Z" />
<path fill-rule="evenodd" d="M879.1,73.7l1.1,0l0,-1.1l-1.1,0l0,1.1Z" />
<path fill-rule="evenodd" d="M879.1,73.7l1.1,0l0,-1.1l-1.1,0l0,1.1Z" />
<path fill-rule="evenodd" d="M38.5,72.6l1.1,0l0,-28.2l-1.1,0l0,28.2Z" />
<path fill-rule="evenodd" d="M879.1,72.6l1.1,0l0,-28.2l-1.1,0l0,28.2Z" />
<text x="43" y="108" dx="0,-0.1,0,-0.1,0,-0.1,-0.1,-0.1,-0.1,-0.1,-0.1" style="font-size:21.45px"
>Begegnung: </text>

<path fill-rule="evenodd" d="M167.6,113.3l200.2,0l0,-2.2l-200.2,0l0,2.2Z" />
<text x="373" y="108" dx="0,-0.1,0,-0.1,0,-0.1" style="font-size:21.45px"
>gegen </text>

<path fill-rule="evenodd" d="M436.8,113.3l231.8,0l0,-2.2l-231.8,0l0,2.2Z" />
<text x="692" y="108" dx="0,-0.1,0,0,-0.1,0,-0.2,0,0,0,0,0,0,-0.1" style="font-size:21.45px"
>Datum:________</text>

<text x="43" y="142" dx="0,0.1,0.1,0,-0.1,0,0.1,0,0,-0.1,-0.2,0,0,-0.1,0.1,0,-0.1,-0.2,0,0,0,0,0,0,-0.1,-0.1,0,0.1,0,0,0,0,0,0,0,0.1,0,0,0,0,-0.1,0,0,0,0,0.1,0.1,0,-0.1,0,0.1" class="s2_1"
>Hinweise zur Nutzung der Mindestanforderungsliste: </text>

<text x="43" y="175" dx="0,0,0.1,0,0,0.1,-0.1,0,0,0,0.1,0,0,0,0,0,0,0,-0.1,0,0,0,0,0,0,0,0,0,0,0,-0.1,0,0,0,0.1,0,0,0,0,0,0,0,-0.1,0,0,0.1" class="s2_1"
>Liebe Schiedsrichterinnen und Schiedsrichter, </text>

<text x="43" y="208" dx="0,0,0.1,0,2.3,0.1,0,0.1,0,0,0,0.2,0,2.3,0,0.1,0,-0.1,0,2.3,0,0,0.1,0,0,0,0.1,-0.1,0,-0.1,2.3,0,0.1,0,2.5,0,0,0,0.1,0,0,0,0,0,0,0,-0.1,0,0,2.3,-0.2,0,2.3,0,0,0,0,0,-0.1,0,0.1,0,0,0,0,0,2.3,0,0.1,0,0,0,0,0,0,0,0.1,0,0,0,0,-0.1,0,0,0,0,0.2,2.3,0,0,0,2.1,0,0,-0.1,2.1,0,0,0.1,0,0,0,2.1,0.2,-0.1,2.1,0.1,0,0" class="s2_1"
>die folgende Liste beinhaltet die Schiedsrichter zu überprüfenden Mindestanforderungen der BLO Anlage VI für </text>

<text x="43" y="227" dx="0,0.7,0,-0.1,-0.1,0.2,0,0.1,0,0.1,0,7.1,0.1,0,7.1,0,0,0,7,0,-0.1,7.1,0,0,0,7.1,0,-0.1,7.1,0,0,0,0.1,0.1,0,-0.1,0,0.3,-0.1,0,0,0,0,0,0,0.1,0.1,0,0,-0.1,7.1,0.1,0.1,0,7.1,0,0.1,0,-0.1,0,6.9,0.1,0,-0.1,6.9,0,0,0,0,0,0,0.1,0.1,0,0,0.1,0.1,0,0,6.9,0,0,0,0,0,6.9,0,0.1,0,6.9,0,0.1,0,0,0,0,0,-0.1,-0.2,-0.1,0,0" class="s2_1"
>Wettkämpfe in der 1. und 2. Badminton-Bundesliga. Die Liste ist ausschließlich durch die eingesetzten </text>

<text x="43" y="245" dx="0,0,0,0,0.1,0,0,0,0,0,0,0,-0.1,0,0,1.9,-0.2,0,1.9,0,0,0,0,0,0,0.1,-0.1,0,0,1.9,0,0,0,2,0.1,0,-0.1,1.9,0,0,0.1,1.9,-0.1,0,0.1,0,0.1,0,0,0.4,-0.1,0,0,0.1,0,0.1,0,0,0,0,0,0,-0.1,1.9,0,0,0.1,1.9,0,0.1,0,0,0,0,0,0,0,0,2,0,0,1.9,0.3,0,0,1.9,0,0,0,0,0,0,0.1,0.1,0,0.1,-0.1,0,0,0.1,0,0.1,0.1,0,0.1,-0.1,0,0.1,1.9,0.1,0.1,-0.1" class="s2_1"
>Schiedsrichter zu bearbeiten und ist dem Original-Spielbericht bei Einsendung an den Bundesliga-Spielleiter mit </text>

<text x="43" y="264" dx="0,0,0,0,0.1,0,-0.1,0,0,-0.1,0,0,0,0,0,0,0,0,0,-0.1,-0.2,0,0,0,0,0,-0.1,0,0,0,-0.1,0,0.1,0,0,0.1,0,0,0,0,0,-0.1,0,0,0,0,0,0,0.1,0.1,-0.2,0,0,0,0,0,0,0,0,0.1,-0.2,0,0.1,0,0,0,0,0" class="s2_1"
>Kopie an den Vorsitzenden des AfBL durch den Heimverein beizufügen. </text>

<text x="43" y="283" dx="0,0,0.1,-0.1,0.6,0,0,0,0.6,0.1,0,-0.1,0,0,0,0,0,-0.1,0.1,0.1,-0.1,0.6,0,0,0,0,0,0,0.1,0,0.1,0,-0.1,0.6,0,0,0,0.6,0,0.1,0,0,0,0,0,-0.1,-0.2,-0.1,0,0.6,0,0,0,0,0,0.1,0,0,0,0,0.7,-0.1,0.1,0.1,0.1,-0.2,0.1,0,0.1,0.1,0,0.6,0.1,0,0,0.1,0,0.1,0.1,0,0,-0.1,0.6,0,0,0,0,0.7,0,0.1,0,0.6,0,0,0.1,0,0,0,0,-0.1,0,0,0,0,0,0.6,-0.2,0,0,0,0,0.8,0,0,0" class="s2_1"
>Mit der Unterschrift bescheinigt der eingesetzte Technische Offizielle lediglich, dass die Anforderungen vorhanden </text>

<text x="43" y="301" dx="0,0,-0.2,-0.1,-0.1,-0.1,0,0.1,0,0,-0.1,-0.1,-0.2,0,0,0,0,0,0,0,0,0,-0.1,0,0,0,0,-0.1" class="s2_1"
>bzw. nicht vorhanden waren. </text>

<text x="43" y="320" dx="0,0,0,0.1,0.1,-0.1,0.1,0,0.3,0,0.1,0,-0.2,0,0.1,0.1,0,0.3,0,0,0.1,0,0,0,0,-0.1,0,0,0,0,0,0.3,0,0.1,0,0,-0.1,0.3,0,0,0,0,0.1,0.1,-0.1,0.3,0,0,0.1,0,-0.1,0.3,0,0,0.3,0,0,0.1,0.4,0,0,0.3,0,0.1,0,0.3,0,0,0,0.1,0,0,0,0,0,0,0,-0.1,0,0,0.2,-0.2,0,0,0,0,0,0,-0.1,0.1,0,0,0,0.1,0,0,-0.1,0,0,0,0,0,0,0,0,0,0,0,0.1,0,0,0,0,0,0" class="s2_1"
>Sollten einzelne Anforderungen nicht erfüllt sein, so sollen die Schiedsrichter zunächst den entsprechenden Verein </text>

<text x="43" y="339" dx="0,0,0,0.1,-0.1,0,0,0,0,0,0,0,0,-0.1,0,0,-0.1,0,0.1,0,-0.1,0,0.1,0,0,0,-0.1,0,0,0,0,0,0,0,-0.1,0,0,0,0.1,0.1,0,0,0.2,0,0.1,-0.1,-0.1,-0.2,0,0,-0.1,0,0,0,-0.1,0,0.2,-0.1,0,0,-0.1,0,0,0,0,0,0.2" class="s2_1"
>auf den Verstoß hinweisen und die Möglichkeit zur Korrektur geben. </text>

<text x="43" y="358" dx="0,0,0,0.1,0.1,-0.1,0,1.9,0,0,1.9,0,0,0.1,0.1,1.9,0,0,0,0.1,0,0.1,0.1,0,0,1.8,0,0.1,0,0,0,0,1.7,0,0.1,0,-0.1,0,1.7,0,0,0,0,1.8,-0.2,0,1.7,0,0,0,0,0,0,1.8,0.2,0,0.1,0.1,0,0,-0.1,1.7,0,0,1.7,0.2,0,0,0,0,0,1.7,0,0.1,0,0,0,1.8,0.1,0.1,1.7,0.1,0,-0.1,0.1,0,0.1,0.1,1.7,0.8,0,0,1.7,0,0,0.1,0,0.1,0,0,1.9,0.1,0.1,-0.1,1.7,0,0,0.1" class="s2_1"
>Sollte es beim Ausfüllen dieser Liste doch zu Fragen kommen, so können diese im Notfall per Telefon mit dem </text>

<text x="43" y="376" dx="0,0,0,0,0,0,0,0.1,0.1,0,0.1,-0.1,0,0,0.1,0,0.1,0.1,0,0.1,-0.1,0,0,0.5,0,0,0,0,0,0.4,0,0,0,0,0,0,0,0.5,0,0,-0.1,0,0,0.4,0,0,0,0.4,0.1,0,0.1,0,0,0.1,0.1,0,0,0.5,0,0,0,0,0,-0.1,0,0,0,0,0,0,0.5,0,0,0,0,0.2,0,0,0.1,0.3,0,0,0,0,0,0,-0.2,0,0,0,0,0,0.3,0,0,0,0.3,0,0.1,0,0,0.3,0,0,0,0" class="s2_1"
>Bundesliga-Spielleiter Bernd Mohaupt unter der Rufnummer 05241-531760 oder dem Vorsitzenden des AfBL Arno </text>

<text x="43" y="395" dx="0,0,0,0,0.1,0,-0.2,-0.1,0,0,-0.1,0,0,-0.1,0,0,0,-0.1,0.1,0,0.1,0,0,0.1,0.1,0,0,-0.1,0,0,0,0,-0.1,0,0,0,0,0,0,0,0,-0.1,0,0,0,0,-0.1,0,0,0,0,0,-0.1,0,0,0,0,0,-0.1,0.2,0,0,0.1,0.1,0,0.1,0,-0.1,0.1,0,-0.1,0,0,0,0,-0.1,-0.1,0,0,-0.1,0,-0.1,-0.1,-0.1,0,0,0,0,0.1,-0.1" class="s2_1"
>Schley unter der Rufnummer 0176/52500972 oder 06821/53456 kurzfristig beantwortet werden. </text>

<text x="43" y="428" dx="0,0,0,0,-0.1,0,0,0,0,-0.1,0.1,0,-0.1,0,0,0,-0.1,0,-0.1,-0.2,0,0,0,0,0,0,0,-0.1,0,0,0,-0.1,0,0.1,0,0,0,0.1,-0.1,0,0.1,0,-0.1,0,0,0,-0.1,0,0.1,0,0,0,0,0,0,0,0.1,0,0,0,0,-0.1,0,0,0,0,0,-0.1,0,0,0,0.2,0,0.1,-0.1,0,0,0,0.1,-0.1,0,0,0,-0.1,0,0.1,0,0,-0.1,0,0,0,0,0,0,0,-0.1,0.1,0.1,0,0.1,0.8" class="s2_1"
>Für Eure Unterstützung bei der Einhaltung der Mindestanforderungen danken Euch der AfBL und das RfSR! </text>

<text x="47" y="471" dx="0,-0.1,0.1,0.1" style="font-size:21.45px"
>Nr. </text>

<text x="170" y="471" dx="0,0.3,0.1,-0.1,-0.1,0,0,0,0,-0.1,0,-0.1,0.1,-0.1,0,0.1,-0.1,-0.1,-0.1,0,-0.1,0.2,0,0.1,0,0,-0.1,0.1,0,-0.1,0,0.1,0.1,0,-0.1,0,0,0.2,0.1,0.1,0,0,0.1" style="font-size:21.45px"
>Mindestanforderungen - Schiedsrichterliste </text>

<text x="702" y="468" dx="0,-0.1,0,0,0,0.1,0,0.1,0,0.1" class="s3_1"
>vorhanden </text>

<text x="807" y="460" dx="0,0,0,0,0,0" class="s3_1"
>Nicht </text>

<text x="789" y="476" dx="0,-0.1,0,0,0,0.1,0,0.1,0,0.1" class="s3_1"
>vorhanden </text>

<path fill-rule="evenodd" d="M37.4,447.2l1.1,0l0,-1.1l-1.1,0l0,1.1Z" />
<path fill-rule="evenodd" d="M37.4,447.2l1.1,0l0,-1.1l-1.1,0l0,1.1Z" />
<path fill-rule="evenodd" d="M38.5,447.2l47.5,0l0,-1.1l-47.5,0l0,1.1Z" />
<path fill-rule="evenodd" d="M86,447.2l1.1,0l0,-1.1l-1.1,0l0,1.1Z" />
<path fill-rule="evenodd" d="M87.1,447.2l609.9,0l0,-1.1l-609.9,0l0,1.1Z" />
<path fill-rule="evenodd" d="M697,447.2l1.1,0l0,-1.1l-1.1,0l0,1.1Z" />
<path fill-rule="evenodd" d="M698.1,447.2l79.9,0l0,-1.1l-79.9,0l0,1.1Z" />
<path fill-rule="evenodd" d="M778,447.2l1.1,0l0,-1.1l-1.1,0l0,1.1Z" />
<path fill-rule="evenodd" d="M779.1,447.2l92.1,0l0,-1.1l-92.1,0l0,1.1Z" />
<path fill-rule="evenodd" d="M871.2,447.2l1.1,0l0,-1.1l-1.1,0l0,1.1Z" />
<path fill-rule="evenodd" d="M871.2,447.2l1.1,0l0,-1.1l-1.1,0l0,1.1Z" />
<path fill-rule="evenodd" d="M37.4,480.2l1.1,0l0,-33l-1.1,0l0,33Z" />
<path fill-rule="evenodd" d="M86,480.2l1.1,0l0,-33l-1.1,0l0,33Z" />
<path fill-rule="evenodd" d="M697,480.2l1.1,0l0,-33l-1.1,0l0,33Z" />
<path fill-rule="evenodd" d="M778,480.2l1.1,0l0,-33l-1.1,0l0,33Z" />
<path fill-rule="evenodd" d="M871.2,480.2l1.1,0l0,-33l-1.1,0l0,33Z" />
<text x="57" y="499" dx="0,0" class="s4_1"
>1 </text>

<text x="91" y="499" dx="0,0,-0.2,0,-0.1,0,-0.1,0,0,-0.1,0,-0.1,0,0,0.1,0,-0.1,0,-0.1,0,0,0.3,-0.1,0,0,0,0,-0.1,-0.3,0,0.1" class="s4_1"
>Zwei Standardfelder mit Netzen </text>

<path fill-rule="evenodd" d="M37.4,481.3l1.1,0l0,-1.1l-1.1,0l0,1.1Z" />
<path fill-rule="evenodd" d="M38.5,481.3l47.5,0l0,-1.1l-47.5,0l0,1.1Z" />
<path fill-rule="evenodd" d="M86,481.3l1.1,0l0,-1.1l-1.1,0l0,1.1Z" />
<path fill-rule="evenodd" d="M87.1,481.3l609.9,0l0,-1.1l-609.9,0l0,1.1Z" />
<path fill-rule="evenodd" d="M697,481.3l1.1,0l0,-1.1l-1.1,0l0,1.1Z" />
<path fill-rule="evenodd" d="M698.1,481.3l79.9,0l0,-1.1l-79.9,0l0,1.1Z" />
<path fill-rule="evenodd" d="M778,481.3l1.1,0l0,-1.1l-1.1,0l0,1.1Z" />
<path fill-rule="evenodd" d="M779.1,481.3l92.1,0l0,-1.1l-92.1,0l0,1.1Z" />
<path fill-rule="evenodd" d="M871.2,481.3l1.1,0l0,-1.1l-1.1,0l0,1.1Z" />
<path fill-rule="evenodd" d="M37.4,506.1l1.1,0l0,-24.8l-1.1,0l0,24.8Z" />
<path fill-rule="evenodd" d="M86,506.1l1.1,0l0,-24.8l-1.1,0l0,24.8Z" />
<path fill-rule="evenodd" d="M697,506.1l1.1,0l0,-24.8l-1.1,0l0,24.8Z" />
<path fill-rule="evenodd" d="M778,506.1l1.1,0l0,-24.8l-1.1,0l0,24.8Z" />
<path fill-rule="evenodd" d="M871.2,506.1l1.1,0l0,-24.8l-1.1,0l0,24.8Z" />
<text x="57" y="538" dx="0,0" class="s4_1"
>2 </text>

<text x="91" y="521" dx="0,0,-0.2,0,-0.1,0,0,-0.1,0,-0.1,0,-0.1,-0.1,0,-0.1,0,-0.1,0,0,0,0,-0.1,0,-0.1,0,-0.1,0,-0.1,0,0,0.1,0,0,0,-0.1,0,0,-0.1,0,-0.1,0,0,0,0,-0.3,0,0,-0.1,-0.1,0,-0.1,0,-0.1,0.2,0,-0.1,0,-0.1,0,0,0,-0.1,-0.1,0,0,0.1,0,0,-0.1,0,-0.1,0,-0.1,0,0,0.1,0,0.3,0,-0.1,-0.1,0.3,-0.1,0,-0.1" class="s4_1"
>Zwei nebeneinander liegende, farbig abgesetzte Spielfelder, die frei von Fremdlinien </text>

<text x="91" y="538" dx="0,0.1,-0.1,0,-0.1,0,0,-0.1,-0.1,0,0,0,0,0,0,-0.1,-0.1,0,-0.3,-0.2,0,-0.1,0,-0.1,0,-0.1,0,-0.1,0.2,0,-0.1,0,0.3,0,0,-0.1,0,-0.1,0,0,-0.1,-0.1,0,0,-0.1,0,0.3,0,0,-0.1,-0.1,0,-0.1,0.3,0,-0.1,0,-0.1,0,0,-0.1,0,0,-0.1,0,0,-0.1,0,0,0,0.2,0,0,0,-0.1,-0.1,0.3" class="s4_1"
>sind. Alternativ zwei Spielfeldmatten, die dem allgemeinen Stand der Technik </text>

<text x="91" y="556" dx="0,0,-0.1,0,0.1,0,0,0,0.1,0,-0.1,0,0,-0.1,0,-0.1,0,0,-0.1,0,-0.1,0,-0.1,-0.1,0,-0.1,0,-0.1,0,0,0,0,0,0,0,-0.1,-0.1,0,-0.1,0,0,0,-0.1,0,0.1" class="s4_1"
>entsprechen und nebeneinander ausgelegt sind </text>

<path fill-rule="evenodd" d="M37.4,507.2l1.1,0l0,-1.1l-1.1,0l0,1.1Z" />
<path fill-rule="evenodd" d="M38.5,507.2l47.5,0l0,-1.1l-47.5,0l0,1.1Z" />
<path fill-rule="evenodd" d="M86,507.2l1.1,0l0,-1.1l-1.1,0l0,1.1Z" />
<path fill-rule="evenodd" d="M87.1,507.2l609.9,0l0,-1.1l-609.9,0l0,1.1Z" />
<path fill-rule="evenodd" d="M697,507.2l1.1,0l0,-1.1l-1.1,0l0,1.1Z" />
<path fill-rule="evenodd" d="M698.1,507.2l79.9,0l0,-1.1l-79.9,0l0,1.1Z" />
<path fill-rule="evenodd" d="M778,507.2l1.1,0l0,-1.1l-1.1,0l0,1.1Z" />
<path fill-rule="evenodd" d="M779.1,507.2l92.1,0l0,-1.1l-92.1,0l0,1.1Z" />
<path fill-rule="evenodd" d="M871.2,507.2l1.1,0l0,-1.1l-1.1,0l0,1.1Z" />
<path fill-rule="evenodd" d="M37.4,559.4l1.1,0l0,-52.2l-1.1,0l0,52.2Z" />
<path fill-rule="evenodd" d="M86,559.4l1.1,0l0,-52.2l-1.1,0l0,52.2Z" />
<path fill-rule="evenodd" d="M697,559.4l1.1,0l0,-52.2l-1.1,0l0,52.2Z" />
<path fill-rule="evenodd" d="M778,559.4l1.1,0l0,-52.2l-1.1,0l0,52.2Z" />
<path fill-rule="evenodd" d="M871.2,559.4l1.1,0l0,-52.2l-1.1,0l0,52.2Z" />
<text x="57" y="578" dx="0,0" class="s4_1"
>3 </text>

<text x="91" y="578" dx="0,0,-0.2,0,-0.1,0,-0.1,0.1,0,-0.1,0,-0.1,0.1,0,-0.1,0.1,0,0,-0.1,0,0.1,0,0,-0.1,-0.1,0,0,0.3,-0.1,0,0,-0.1,0,0,-0.1,0,0,-0.1,0,0,-0.1,-0.1,0,-0.3,0,-0.1,0.1,-0.1,0,-0.1,0,0.2,0,0,-0.1,0,0,0,-0.1,0,-0.3,0,-0.1,0,-0.1,0,0.1,0,-0.1,0,0,-0.1,0.1,0,0,0,-0.1,0,-0.1,-0.1,0,0,-0.1,0" class="s4_1"
>Zwei Schiedsrichterstühle mit erhöhter Sitzposition (in Netzhöhe) und Schreibplatte </text>

<path fill-rule="evenodd" d="M37.4,560.5l1.1,0l0,-1.1l-1.1,0l0,1.1Z" />
<path fill-rule="evenodd" d="M38.5,560.5l47.5,0l0,-1.1l-47.5,0l0,1.1Z" />
<path fill-rule="evenodd" d="M86,560.5l1.1,0l0,-1.1l-1.1,0l0,1.1Z" />
<path fill-rule="evenodd" d="M87.1,560.5l609.9,0l0,-1.1l-609.9,0l0,1.1Z" />
<path fill-rule="evenodd" d="M697,560.5l1.1,0l0,-1.1l-1.1,0l0,1.1Z" />
<path fill-rule="evenodd" d="M698.1,560.5l79.9,0l0,-1.1l-79.9,0l0,1.1Z" />
<path fill-rule="evenodd" d="M778,560.5l1.1,0l0,-1.1l-1.1,0l0,1.1Z" />
<path fill-rule="evenodd" d="M779.1,560.5l92.1,0l0,-1.1l-92.1,0l0,1.1Z" />
<path fill-rule="evenodd" d="M871.2,560.5l1.1,0l0,-1.1l-1.1,0l0,1.1Z" />
<path fill-rule="evenodd" d="M37.4,585.3l1.1,0l0,-24.8l-1.1,0l0,24.8Z" />
<path fill-rule="evenodd" d="M86,585.3l1.1,0l0,-24.8l-1.1,0l0,24.8Z" />
<path fill-rule="evenodd" d="M697,585.3l1.1,0l0,-24.8l-1.1,0l0,24.8Z" />
<path fill-rule="evenodd" d="M778,585.3l1.1,0l0,-24.8l-1.1,0l0,24.8Z" />
<path fill-rule="evenodd" d="M871.2,585.3l1.1,0l0,-24.8l-1.1,0l0,24.8Z" />
<text x="53" y="604" dx="0,0,0" class="s4_1"
>4a </text>

<text x="91" y="604" dx="0,0,-0.1,0,-0.1,0,0,0,0,-0.1,0.1,0,0,-0.1,0,-0.1,0,0,-0.1,0,0.2,0,0,0,-0.1,-0.1,0.1,0.1,0,-0.1,0,-0.1,0,-0.1,0,0.1,0.1,0,0,-0.1,0,-0.1,0,-0.3,0,-0.1,0,-0.1,0,0,0,0,0,-0.1,0,-0.1,0,-0.1,0.2,0,-0.1,0" class="s4_1"
>Mindestens eine elektronische Spielstandanzeige pro Spielfeld </text>

<path fill-rule="evenodd" d="M37.4,586.4l1.1,0l0,-1.1l-1.1,0l0,1.1Z" />
<path fill-rule="evenodd" d="M38.5,586.4l47.5,0l0,-1.1l-47.5,0l0,1.1Z" />
<path fill-rule="evenodd" d="M86,586.4l1.1,0l0,-1.1l-1.1,0l0,1.1Z" />
<path fill-rule="evenodd" d="M87.1,586.4l609.9,0l0,-1.1l-609.9,0l0,1.1Z" />
<path fill-rule="evenodd" d="M697,586.4l1.1,0l0,-1.1l-1.1,0l0,1.1Z" />
<path fill-rule="evenodd" d="M698.1,586.4l79.9,0l0,-1.1l-79.9,0l0,1.1Z" />
<path fill-rule="evenodd" d="M778,586.4l1.1,0l0,-1.1l-1.1,0l0,1.1Z" />
<path fill-rule="evenodd" d="M779.1,586.4l92.1,0l0,-1.1l-92.1,0l0,1.1Z" />
<path fill-rule="evenodd" d="M871.2,586.4l1.1,0l0,-1.1l-1.1,0l0,1.1Z" />
<path fill-rule="evenodd" d="M37.4,611.2l1.1,0l0,-24.8l-1.1,0l0,24.8Z" />
<path fill-rule="evenodd" d="M86,611.2l1.1,0l0,-24.8l-1.1,0l0,24.8Z" />
<path fill-rule="evenodd" d="M697,611.2l1.1,0l0,-24.8l-1.1,0l0,24.8Z" />
<path fill-rule="evenodd" d="M778,611.2l1.1,0l0,-24.8l-1.1,0l0,24.8Z" />
<path fill-rule="evenodd" d="M871.2,611.2l1.1,0l0,-24.8l-1.1,0l0,24.8Z" />
<text x="53" y="634" dx="0,0,0" class="s4_1"
>4b </text>

<text x="91" y="626" dx="0,0,0,-0.1,0,0,0,-0.1,0,0,0,0,0,0,-0.1,-0.1,0,-0.3,0,0,-0.1,0,0,-0.1,-0.1,0,-0.1,0,-0.3,0,-0.1,0,0,0,-0.1,0,0,-0.1,0,-0.1,0,-0.1,0.1,0,0,-0.1,0,-0.1,0,-0.3,0,-0.1,0,-0.1,0,0,-0.1,-0.1,0,-0.1,0,0,-0.1,0,-0.1,0,-0.1,0.2,0,-0.1,0,-0.1,0,0,-0.1,-0.1,0,0,-0.1,0,-0.1,0.3,0,0.3,0,0,-0.1,-0.1,0" class="s4_1"
>oder alternativ zu 4a eine zentrale Spielstandanzeige beider Spielfelder via Beamer, die </text>

<text x="91" y="643" dx="0,-0.1,0,-0.1,0,0,-0.1,-0.1,0,-0.1,0,0,-0.1,0.1,0,-0.1,0,-0.1,0.1,0,-0.1,0.1,0,0,-0.1,0,0.1,0,0,-0.1,-0.1,0,-0.1,0,0.1,-0.1,0.1,0,0,-0.1,0,0,0,0,0.1,0.2" class="s4_1"
>von beiden Schiedsrichterstühlen sichtbar ist </text>

<path fill-rule="evenodd" d="M37.4,612.3l1.1,0l0,-1.1l-1.1,0l0,1.1Z" />
<path fill-rule="evenodd" d="M38.5,612.3l47.5,0l0,-1.1l-47.5,0l0,1.1Z" />
<path fill-rule="evenodd" d="M86,612.3l1.1,0l0,-1.1l-1.1,0l0,1.1Z" />
<path fill-rule="evenodd" d="M87.1,612.3l609.9,0l0,-1.1l-609.9,0l0,1.1Z" />
<path fill-rule="evenodd" d="M697,612.3l1.1,0l0,-1.1l-1.1,0l0,1.1Z" />
<path fill-rule="evenodd" d="M698.1,612.3l79.9,0l0,-1.1l-79.9,0l0,1.1Z" />
<path fill-rule="evenodd" d="M778,612.3l1.1,0l0,-1.1l-1.1,0l0,1.1Z" />
<path fill-rule="evenodd" d="M779.1,612.3l92.1,0l0,-1.1l-92.1,0l0,1.1Z" />
<path fill-rule="evenodd" d="M871.2,612.3l1.1,0l0,-1.1l-1.1,0l0,1.1Z" />
<path fill-rule="evenodd" d="M37.4,647.1l1.1,0l0,-34.8l-1.1,0l0,34.8Z" />
<path fill-rule="evenodd" d="M86,647.1l1.1,0l0,-34.8l-1.1,0l0,34.8Z" />
<path fill-rule="evenodd" d="M697,647.1l1.1,0l0,-34.8l-1.1,0l0,34.8Z" />
<path fill-rule="evenodd" d="M778,647.1l1.1,0l0,-34.8l-1.1,0l0,34.8Z" />
<path fill-rule="evenodd" d="M871.2,647.1l1.1,0l0,-34.8l-1.1,0l0,34.8Z" />
<text x="57" y="665" dx="0,0" class="s4_1"
>5 </text>

<text x="91" y="665" dx="0,-0.1,0,0,-0.1,-0.1,0,0,0.1,0,0,0,0,-0.1,0,-0.1,0,-0.1,0,-0.1,0.1,0,0,-0.1,0,0,0,0.1,0,-0.2,0,-0.1,0,0,-0.1,0,-0.2,0,0,0,-0.1,0,0.2" class="s4_1"
>Stühle für Linienrichter (soweit anwesend) </text>

<path fill-rule="evenodd" d="M37.4,648.2l1.1,0l0,-1.1l-1.1,0l0,1.1Z" />
<path fill-rule="evenodd" d="M38.5,648.2l47.5,0l0,-1.1l-47.5,0l0,1.1Z" />
<path fill-rule="evenodd" d="M86,648.2l1.1,0l0,-1.1l-1.1,0l0,1.1Z" />
<path fill-rule="evenodd" d="M87.1,648.2l609.9,0l0,-1.1l-609.9,0l0,1.1Z" />
<path fill-rule="evenodd" d="M697,648.2l1.1,0l0,-1.1l-1.1,0l0,1.1Z" />
<path fill-rule="evenodd" d="M698.1,648.2l79.9,0l0,-1.1l-79.9,0l0,1.1Z" />
<path fill-rule="evenodd" d="M778,648.2l1.1,0l0,-1.1l-1.1,0l0,1.1Z" />
<path fill-rule="evenodd" d="M779.1,648.2l92.1,0l0,-1.1l-92.1,0l0,1.1Z" />
<path fill-rule="evenodd" d="M871.2,648.2l1.1,0l0,-1.1l-1.1,0l0,1.1Z" />
<path fill-rule="evenodd" d="M37.4,672.9l1.1,0l0,-24.7l-1.1,0l0,24.7Z" />
<path fill-rule="evenodd" d="M86,672.9l1.1,0l0,-24.7l-1.1,0l0,24.7Z" />
<path fill-rule="evenodd" d="M697,672.9l1.1,0l0,-24.7l-1.1,0l0,24.7Z" />
<path fill-rule="evenodd" d="M778,672.9l1.1,0l0,-24.7l-1.1,0l0,24.7Z" />
<path fill-rule="evenodd" d="M871.2,672.9l1.1,0l0,-24.7l-1.1,0l0,24.7Z" />
<text x="57" y="692" dx="0,0" class="s4_1"
>6 </text>

<text x="91" y="692" dx="0,0,-0.2,0,-0.1,0,-0.1,0,0,-0.1,-0.1,0,0,0.1,0,0,0,0.2,0,0,-0.1,0,-0.1,0,0,0.1,0,0,-0.1,0,-0.1,0,-0.1,0.2,0,0.1,0,0,-0.1,0,-0.1,0,-0.1,0,-0.1,0,-0.1,0.2,0,-0.1,0,0,0,-0.1,0,0" class="s4_1"
>Zwei Stühle für Trainer je Spielfeld und Spielfeldseite </text>

<path fill-rule="evenodd" d="M37.4,674l1.1,0l0,-1.1l-1.1,0l0,1.1Z" />
<path fill-rule="evenodd" d="M38.5,674L86,674l0,-1.1l-47.5,0l0,1.1Z" />
<path fill-rule="evenodd" d="M86,674l1.1,0l0,-1.1l-1.1,0l0,1.1Z" />
<path fill-rule="evenodd" d="M87.1,674L697,674l0,-1.1l-609.9,0l0,1.1Z" />
<path fill-rule="evenodd" d="M697,674l1.1,0l0,-1.1l-1.1,0l0,1.1Z" />
<path fill-rule="evenodd" d="M698.1,674l79.9,0l0,-1.1l-79.9,0l0,1.1Z" />
<path fill-rule="evenodd" d="M778,674l1.1,0l0,-1.1l-1.1,0l0,1.1Z" />
<path fill-rule="evenodd" d="M779.1,674l92.1,0l0,-1.1l-92.1,0l0,1.1Z" />
<path fill-rule="evenodd" d="M871.2,674l1.1,0l0,-1.1l-1.1,0l0,1.1Z" />
<path fill-rule="evenodd" d="M37.4,699.3l1.1,0l0,-25.3l-1.1,0l0,25.3Z" />
<path fill-rule="evenodd" d="M86,699.3l1.1,0l0,-25.3L86,674l0,25.3Z" />
<path fill-rule="evenodd" d="M697,699.3l1.1,0l0,-25.3l-1.1,0l0,25.3Z" />
<path fill-rule="evenodd" d="M778,699.3l1.1,0l0,-25.3l-1.1,0l0,25.3Z" />
<path fill-rule="evenodd" d="M871.2,699.3l1.1,0l0,-25.3l-1.1,0l0,25.3Z" />
<text x="57" y="723" dx="0,0" class="s4_1"
>7 </text>

<text x="91" y="714" dx="0,0,0,-0.1,0,-0.1,0,0,0.1,0,-0.1,0,0,0,0,0,-0.1,0,0,-0.1,-0.1,-0.1,0,0,-0.1,0,0,-0.1,0,0,0,0,-0.1,0.1,0,-0.1,0,-0.1,0,0,0,0,-0.1,-0.3,0,-0.1,-0.1,0,0.1,0,-0.2,-0.1,0,0,0,0,0,0,-0.1,0.2,0.2,0,0,-0.1,0.2,0,0,-0.1,0,0,-0.1,0.2,0.2,-0.1,-0.3,-0.1,0,-0.1,-0.1,0,0" class="s4_1"
>Zugelassene Federbälle in ausreichender Anzahl sowie Zugriff auf ein offizielles </text>

<text x="91" y="731" dx="0,-0.1,0,0,-0.2,0,-0.1,0.1,0,-0.1,-0.1,0.1,0,0,-0.1,0,0,-0.3,0,-0.1,0,-0.1,0,0,0.1,0,-0.1,0,-0.1,0,0,0,0,0,0,0,0,-0.1,-0.1,0.1" class="s4_1"
>Verzeichnis der zugelassenen Federbälle </text>

<path fill-rule="evenodd" d="M37.4,700.4l1.1,0l0,-1.1l-1.1,0l0,1.1Z" />
<path fill-rule="evenodd" d="M38.5,700.4l47.5,0l0,-1.1l-47.5,0l0,1.1Z" />
<path fill-rule="evenodd" d="M86,700.4l1.1,0l0,-1.1l-1.1,0l0,1.1Z" />
<path fill-rule="evenodd" d="M87.1,700.4l609.9,0l0,-1.1l-609.9,0l0,1.1Z" />
<path fill-rule="evenodd" d="M697,700.4l1.1,0l0,-1.1l-1.1,0l0,1.1Z" />
<path fill-rule="evenodd" d="M698.1,700.4l79.9,0l0,-1.1l-79.9,0l0,1.1Z" />
<path fill-rule="evenodd" d="M778,700.4l1.1,0l0,-1.1l-1.1,0l0,1.1Z" />
<path fill-rule="evenodd" d="M779.1,700.4l92.1,0l0,-1.1l-92.1,0l0,1.1Z" />
<path fill-rule="evenodd" d="M871.2,700.4l1.1,0l0,-1.1l-1.1,0l0,1.1Z" />
<path fill-rule="evenodd" d="M37.4,735.3l1.1,0l0,-34.9l-1.1,0l0,34.9Z" />
<path fill-rule="evenodd" d="M86,735.3l1.1,0l0,-34.9l-1.1,0l0,34.9Z" />
<path fill-rule="evenodd" d="M697,735.3l1.1,0l0,-34.9l-1.1,0l0,34.9Z" />
<path fill-rule="evenodd" d="M778,735.3l1.1,0l0,-34.9l-1.1,0l0,34.9Z" />
<path fill-rule="evenodd" d="M871.2,735.3l1.1,0l0,-34.9l-1.1,0l0,34.9Z" />
<text x="57" y="754" dx="0,0" class="s4_1"
>8 </text>

<text x="91" y="754" dx="0,-0.1,0,0.1,0,-0.1,0,0,-0.1,-0.1,0,0.1,0,-0.1,0,0,-0.1,0.1,0,0,0.1,0,0,0,0,0,-0.1,0,-0.1,0,0,-0.1,0,-0.1,0.1,0.1,0,-0.1,0.2,0,0,-0.1,0,0.3,-0.1,0,0,-0.1,0,0,-0.1,-0.1,0,0.2" class="s4_1"
>Aufenthaltsbereich für beide Mannschaften mit Stühlen </text>

<path fill-rule="evenodd" d="M37.4,736.4l1.1,0l0,-1.1l-1.1,0l0,1.1Z" />
<path fill-rule="evenodd" d="M38.5,736.4l47.5,0l0,-1.1l-47.5,0l0,1.1Z" />
<path fill-rule="evenodd" d="M86,736.4l1.1,0l0,-1.1l-1.1,0l0,1.1Z" />
<path fill-rule="evenodd" d="M87.1,736.4l609.9,0l0,-1.1l-609.9,0l0,1.1Z" />
<path fill-rule="evenodd" d="M697,736.4l1.1,0l0,-1.1l-1.1,0l0,1.1Z" />
<path fill-rule="evenodd" d="M698.1,736.4l79.9,0l0,-1.1l-79.9,0l0,1.1Z" />
<path fill-rule="evenodd" d="M778,736.4l1.1,0l0,-1.1l-1.1,0l0,1.1Z" />
<path fill-rule="evenodd" d="M779.1,736.4l92.1,0l0,-1.1l-92.1,0l0,1.1Z" />
<path fill-rule="evenodd" d="M871.2,736.4l1.1,0l0,-1.1l-1.1,0l0,1.1Z" />
<path fill-rule="evenodd" d="M37.4,761.1l1.1,0l0,-24.7l-1.1,0l0,24.7Z" />
<path fill-rule="evenodd" d="M86,761.1l1.1,0l0,-24.7l-1.1,0l0,24.7Z" />
<path fill-rule="evenodd" d="M697,761.1l1.1,0l0,-24.7l-1.1,0l0,24.7Z" />
<path fill-rule="evenodd" d="M778,761.1l1.1,0l0,-24.7l-1.1,0l0,24.7Z" />
<path fill-rule="evenodd" d="M871.2,761.1l1.1,0l0,-24.7l-1.1,0l0,24.7Z" />
<text x="57" y="780" dx="0,0" class="s4_1"
>9 </text>

<text x="91" y="780" dx="0,-0.1,0,0,0.1,0,-0.1,-0.1,-0.1,0,-0.1,0,0,0,-0.1,-0.1,0,-0.1,0" class="s4_1"
>Beschallungsanlage </text>

<path fill-rule="evenodd" d="M37.4,762.2l1.1,0l0,-1.1l-1.1,0l0,1.1Z" />
<path fill-rule="evenodd" d="M38.5,762.2l47.5,0l0,-1.1l-47.5,0l0,1.1Z" />
<path fill-rule="evenodd" d="M86,762.2l1.1,0l0,-1.1l-1.1,0l0,1.1Z" />
<path fill-rule="evenodd" d="M87.1,762.2l609.9,0l0,-1.1l-609.9,0l0,1.1Z" />
<path fill-rule="evenodd" d="M697,762.2l1.1,0l0,-1.1l-1.1,0l0,1.1Z" />
<path fill-rule="evenodd" d="M698.1,762.2l79.9,0l0,-1.1l-79.9,0l0,1.1Z" />
<path fill-rule="evenodd" d="M778,762.2l1.1,0l0,-1.1l-1.1,0l0,1.1Z" />
<path fill-rule="evenodd" d="M779.1,762.2l92.1,0l0,-1.1l-92.1,0l0,1.1Z" />
<path fill-rule="evenodd" d="M871.2,762.2l1.1,0l0,-1.1l-1.1,0l0,1.1Z" />
<path fill-rule="evenodd" d="M37.4,787l1.1,0l0,-24.8l-1.1,0l0,24.8Z" />
<path fill-rule="evenodd" d="M86,787l1.1,0l0,-24.8l-1.1,0L86,787Z" />
<path fill-rule="evenodd" d="M697,787l1.1,0l0,-24.8l-1.1,0l0,24.8Z" />
<path fill-rule="evenodd" d="M778,787l1.1,0l0,-24.8l-1.1,0l0,24.8Z" />
<path fill-rule="evenodd" d="M871.2,787l1.1,0l0,-24.8l-1.1,0l0,24.8Z" />
<text x="53" y="806" dx="0,0,0" class="s4_1"
>10 </text>

<text x="91" y="806" dx="0,-0.1,0,0,-0.1,0,-0.1,-0.1,0.1,0,-0.1,-0.3,0,-0.1,0,-0.1,0,0,-0.1,0,0,0.3,0,0,0,0,0,-0.1,0,0,0,0,-0.1,0,0.1,0.1,0,0,-0.1,0.1" class="s4_1"
>Ergebnisanzeige: Beamer oder Flatscreen </text>

<path fill-rule="evenodd" d="M37.4,788.1l1.1,0l0,-1.1l-1.1,0l0,1.1Z" />
<path fill-rule="evenodd" d="M38.5,788.1l47.5,0L86,787l-47.5,0l0,1.1Z" />
<path fill-rule="evenodd" d="M86,788.1l1.1,0l0,-1.1L86,787l0,1.1Z" />
<path fill-rule="evenodd" d="M87.1,788.1l609.9,0l0,-1.1L87.1,787l0,1.1Z" />
<path fill-rule="evenodd" d="M697,788.1l1.1,0l0,-1.1l-1.1,0l0,1.1Z" />
<path fill-rule="evenodd" d="M698.1,788.1l79.9,0l0,-1.1l-79.9,0l0,1.1Z" />
<path fill-rule="evenodd" d="M778,788.1l1.1,0l0,-1.1l-1.1,0l0,1.1Z" />
<path fill-rule="evenodd" d="M779.1,788.1l92.1,0l0,-1.1l-92.1,0l0,1.1Z" />
<path fill-rule="evenodd" d="M871.2,788.1l1.1,0l0,-1.1l-1.1,0l0,1.1Z" />
<path fill-rule="evenodd" d="M37.4,813.4l1.1,0l0,-25.3l-1.1,0l0,25.3Z" />
<path fill-rule="evenodd" d="M86,813.4l1.1,0l0,-25.3l-1.1,0l0,25.3Z" />
<path fill-rule="evenodd" d="M697,813.4l1.1,0l0,-25.3l-1.1,0l0,25.3Z" />
<path fill-rule="evenodd" d="M778,813.4l1.1,0l0,-25.3l-1.1,0l0,25.3Z" />
<path fill-rule="evenodd" d="M871.2,813.4l1.1,0l0,-25.3l-1.1,0l0,25.3Z" />
<text x="53" y="832" dx="0,0,0" class="s4_1"
>11 </text>

<text x="91" y="832" dx="0,0.2,-0.1,0.1,0.1,0,0,0.3,-0.1,0,0,-0.1,0,0,-0.1,-0.1,0,-0.1,0,0.1,0,0,0,0,0,0,-0.1,0,-0.1,0.1,0,-0.1,0.1,0,0,-0.1,0,0,0,0,0,0,-0.1,0,-0.1,0.1,0,0,-0.1,0,-0.1,0,0,0,0,-0.1,0,0,0,0,-0.1,0,-0.1,0,0,-0.1,0,0,0.2,0,0,0,-0.1,-0.1,0.6" class="s4_1"
>Tisch mit Stühlen für Schiedsrichter, Organisation, Moderation und Technik </text>

<path fill-rule="evenodd" d="M37.4,814.5l1.1,0l0,-1.1l-1.1,0l0,1.1Z" />
<path fill-rule="evenodd" d="M38.5,814.5l47.5,0l0,-1.1l-47.5,0l0,1.1Z" />
<path fill-rule="evenodd" d="M86,814.5l1.1,0l0,-1.1l-1.1,0l0,1.1Z" />
<path fill-rule="evenodd" d="M87.1,814.5l609.9,0l0,-1.1l-609.9,0l0,1.1Z" />
<path fill-rule="evenodd" d="M697,814.5l1.1,0l0,-1.1l-1.1,0l0,1.1Z" />
<path fill-rule="evenodd" d="M698.1,814.5l79.9,0l0,-1.1l-79.9,0l0,1.1Z" />
<path fill-rule="evenodd" d="M778,814.5l1.1,0l0,-1.1l-1.1,0l0,1.1Z" />
<path fill-rule="evenodd" d="M779.1,814.5l92.1,0l0,-1.1l-92.1,0l0,1.1Z" />
<path fill-rule="evenodd" d="M871.2,814.5l1.1,0l0,-1.1l-1.1,0l0,1.1Z" />
<path fill-rule="evenodd" d="M37.4,839.2l1.1,0l0,-24.7l-1.1,0l0,24.7Z" />
<path fill-rule="evenodd" d="M86,839.2l1.1,0l0,-24.7l-1.1,0l0,24.7Z" />
<path fill-rule="evenodd" d="M697,839.2l1.1,0l0,-24.7l-1.1,0l0,24.7Z" />
<path fill-rule="evenodd" d="M778,839.2l1.1,0l0,-24.7l-1.1,0l0,24.7Z" />
<path fill-rule="evenodd" d="M871.2,839.2l1.1,0l0,-24.7l-1.1,0l0,24.7Z" />
<text x="53" y="863" dx="0,0,0" class="s4_1"
>12 </text>

<text x="91" y="854" dx="0,-0.1,0,0,0.3,-0.1,0,0,0,-0.1,0,0,0,0,0,0,-0.3,0,-0.1,0,-0.1,0,0,-0.1,0,0.1,0,0,0.3,0,0,0,0.2,0,0,0,0,-0.1,-0.1,0,-0.1,0,-0.1,0,-0.1,0.1,0,0,-0.1,0,0,-0.1,0,-0.1,0.1,0.1,0,-0.1,0.2,0,0.1,0,-0.1,0.2,0.1,0,0,-0.1,-0.1,0,-0.1,0,0" class="s4_1"
>PC mit Internetzugang, Drucker für Spielbericht, Mannschaftsaufstellung, </text>

<text x="91" y="871" dx="0,-0.1,0.1,0,-0.1,0,-0.1,0.1,0,-0.1,0.1,0,0,-0.1,0,-0.3,0,0,-0.1,0,-0.1,0,0.3,-0.1,0,0,-0.1,0.1,0.1,0,0,0,0,0,0,0,0,0.1,0,0.2,0,0,-0.1,0,0" class="s4_1"
>Schiedsrichterzettel mit BL-Logo oder Tablet </text>

<path fill-rule="evenodd" d="M37.4,840.3l1.1,0l0,-1.1l-1.1,0l0,1.1Z" />
<path fill-rule="evenodd" d="M38.5,840.3l47.5,0l0,-1.1l-47.5,0l0,1.1Z" />
<path fill-rule="evenodd" d="M86,840.3l1.1,0l0,-1.1l-1.1,0l0,1.1Z" />
<path fill-rule="evenodd" d="M87.1,840.3l609.9,0l0,-1.1l-609.9,0l0,1.1Z" />
<path fill-rule="evenodd" d="M697,840.3l1.1,0l0,-1.1l-1.1,0l0,1.1Z" />
<path fill-rule="evenodd" d="M698.1,840.3l79.9,0l0,-1.1l-79.9,0l0,1.1Z" />
<path fill-rule="evenodd" d="M778,840.3l1.1,0l0,-1.1l-1.1,0l0,1.1Z" />
<path fill-rule="evenodd" d="M779.1,840.3l92.1,0l0,-1.1l-92.1,0l0,1.1Z" />
<path fill-rule="evenodd" d="M871.2,840.3l1.1,0l0,-1.1l-1.1,0l0,1.1Z" />
<path fill-rule="evenodd" d="M37.4,875.2l1.1,0l0,-34.9l-1.1,0l0,34.9Z" />
<path fill-rule="evenodd" d="M86,875.2l1.1,0l0,-34.9l-1.1,0l0,34.9Z" />
<path fill-rule="evenodd" d="M697,875.2l1.1,0l0,-34.9l-1.1,0l0,34.9Z" />
<path fill-rule="evenodd" d="M778,875.2l1.1,0l0,-34.9l-1.1,0l0,34.9Z" />
<path fill-rule="evenodd" d="M871.2,875.2l1.1,0l0,-34.9l-1.1,0l0,34.9Z" />
<text x="53" y="894" dx="0,0,0" class="s4_1"
>13 </text>

<text x="91" y="894" dx="0,-0.1,-0.1,0,0,0.8,0,0,0,0,0,0,-0.1,0,0,0,0,0,0,0,0,-0.1,0,-0.1,0,0,0.2,0,-0.1,0,0,0.3,-0.1,0,0,-0.1,0,0.1,0,0,0,0" class="s4_1"
>Ein Werbereiter pro Spielfeld mit BL-Logo </text>

<path fill-rule="evenodd" d="M37.4,876.3l1.1,0l0,-1.1l-1.1,0l0,1.1Z" />
<path fill-rule="evenodd" d="M38.5,876.3l47.5,0l0,-1.1l-47.5,0l0,1.1Z" />
<path fill-rule="evenodd" d="M86,876.3l1.1,0l0,-1.1l-1.1,0l0,1.1Z" />
<path fill-rule="evenodd" d="M87.1,876.3l609.9,0l0,-1.1l-609.9,0l0,1.1Z" />
<path fill-rule="evenodd" d="M697,876.3l1.1,0l0,-1.1l-1.1,0l0,1.1Z" />
<path fill-rule="evenodd" d="M698.1,876.3l79.9,0l0,-1.1l-79.9,0l0,1.1Z" />
<path fill-rule="evenodd" d="M778,876.3l1.1,0l0,-1.1l-1.1,0l0,1.1Z" />
<path fill-rule="evenodd" d="M779.1,876.3l92.1,0l0,-1.1l-92.1,0l0,1.1Z" />
<path fill-rule="evenodd" d="M871.2,876.3l1.1,0l0,-1.1l-1.1,0l0,1.1Z" />
<path fill-rule="evenodd" d="M37.4,901.1l1.1,0l0,-24.8l-1.1,0l0,24.8Z" />
<path fill-rule="evenodd" d="M86,901.1l1.1,0l0,-24.8l-1.1,0l0,24.8Z" />
<path fill-rule="evenodd" d="M697,901.1l1.1,0l0,-24.8l-1.1,0l0,24.8Z" />
<path fill-rule="evenodd" d="M778,901.1l1.1,0l0,-24.8l-1.1,0l0,24.8Z" />
<path fill-rule="evenodd" d="M871.2,901.1l1.1,0l0,-24.8l-1.1,0l0,24.8Z" />
<text x="53" y="920" dx="0,0,0" class="s4_1"
>14 </text>

<text x="91" y="920" dx="0,-0.1,0,-0.1,0,-0.1,0,-0.1,0,-0.1,0,-0.1,0,0,-0.1,0.1,0.1,0,0,0.1,0,0,0,0,-0.1,-0.1,0,-0.1,0,0,0,0,0.1,0.1,0,-0.1,0,0,-0.1,0,-0.1,0,0.1,0,0,0,0,0,-0.1,0,0,-0.3,0,0,-0.1,-0.1,0,-0.1,-0.1,0.2" class="s4_1"
>Ablagebehältnisse für Spielertaschen und für benutzte Bälle </text>

<path fill-rule="evenodd" d="M37.4,902.2l1.1,0l0,-1.1l-1.1,0l0,1.1Z" />
<path fill-rule="evenodd" d="M38.5,902.2l47.5,0l0,-1.1l-47.5,0l0,1.1Z" />
<path fill-rule="evenodd" d="M86,902.2l1.1,0l0,-1.1l-1.1,0l0,1.1Z" />
<path fill-rule="evenodd" d="M87.1,902.2l609.9,0l0,-1.1l-609.9,0l0,1.1Z" />
<path fill-rule="evenodd" d="M697,902.2l1.1,0l0,-1.1l-1.1,0l0,1.1Z" />
<path fill-rule="evenodd" d="M698.1,902.2l79.9,0l0,-1.1l-79.9,0l0,1.1Z" />
<path fill-rule="evenodd" d="M778,902.2l1.1,0l0,-1.1l-1.1,0l0,1.1Z" />
<path fill-rule="evenodd" d="M779.1,902.2l92.1,0l0,-1.1l-92.1,0l0,1.1Z" />
<path fill-rule="evenodd" d="M871.2,902.2l1.1,0l0,-1.1l-1.1,0l0,1.1Z" />
<path fill-rule="evenodd" d="M37.4,927.5l1.1,0l0,-25.3l-1.1,0l0,25.3Z" />
<path fill-rule="evenodd" d="M86,927.5l1.1,0l0,-25.3l-1.1,0l0,25.3Z" />
<path fill-rule="evenodd" d="M697,927.5l1.1,0l0,-25.3l-1.1,0l0,25.3Z" />
<path fill-rule="evenodd" d="M778,927.5l1.1,0l0,-25.3l-1.1,0l0,25.3Z" />
<path fill-rule="evenodd" d="M871.2,927.5l1.1,0l0,-25.3l-1.1,0l0,25.3Z" />
<text x="53" y="946" dx="0,0,0" class="s4_1"
>15 </text>

<text x="91" y="946" dx="0,0,0,-0.1,-0.1,0,-0.1,0.1,0,0,0,0.1,0,-0.1,0,0,-0.1,0,-0.1,0,0,0,0,0,-0.1,0,0,-0.1,0,0,0,0,-0.1,0,0,-0.1,-0.1,0,-0.1,0,0,-0.1,0,0,0.1,0,0,-0.1,-0.1,0,-0.1,0,0,-0.1,0,-0.1,0,-0.1,0,0,0,0,-0.1,0.1,0,-0.1,0,-0.1,0.1,0,-0.1,0.1,0,0,-0.1,0.4" class="s4_1"
>Hallensprecher Begrüßung, Präsentation, Vorstellung Spieler, Schiedsrichter </text>

<path fill-rule="evenodd" d="M37.4,928.6l1.1,0l0,-1.1l-1.1,0l0,1.1Z" />
<path fill-rule="evenodd" d="M38.5,928.6l47.5,0l0,-1.1l-47.5,0l0,1.1Z" />
<path fill-rule="evenodd" d="M86,928.6l1.1,0l0,-1.1l-1.1,0l0,1.1Z" />
<path fill-rule="evenodd" d="M87.1,928.6l609.9,0l0,-1.1l-609.9,0l0,1.1Z" />
<path fill-rule="evenodd" d="M697,928.6l1.1,0l0,-1.1l-1.1,0l0,1.1Z" />
<path fill-rule="evenodd" d="M698.1,928.6l79.9,0l0,-1.1l-79.9,0l0,1.1Z" />
<path fill-rule="evenodd" d="M778,928.6l1.1,0l0,-1.1l-1.1,0l0,1.1Z" />
<path fill-rule="evenodd" d="M779.1,928.6l92.1,0l0,-1.1l-92.1,0l0,1.1Z" />
<path fill-rule="evenodd" d="M871.2,928.6l1.1,0l0,-1.1l-1.1,0l0,1.1Z" />
<path fill-rule="evenodd" d="M37.4,953.3l1.1,0l0,-24.7l-1.1,0l0,24.7Z" />
<path fill-rule="evenodd" d="M86,953.3l1.1,0l0,-24.7l-1.1,0l0,24.7Z" />
<path fill-rule="evenodd" d="M697,953.3l1.1,0l0,-24.7l-1.1,0l0,24.7Z" />
<path fill-rule="evenodd" d="M778,953.3l1.1,0l0,-24.7l-1.1,0l0,24.7Z" />
<path fill-rule="evenodd" d="M871.2,953.3l1.1,0l0,-24.7l-1.1,0l0,24.7Z" />
<text x="53" y="977" dx="0,0,0" class="s4_1"
>16 </text>

<text x="91" y="968" dx="0,0,0,0,-0.1,0.1,0.1,0,-0.1,0.2,0,0,-0.1,0,-0.1,0,0,-0.1,-0.1,0,-0.1,0,-0.1,0,-0.1,-0.1,0.1,0,-0.1,0,0,-0.1,0,0.2,-0.1,0,-0.1,0,-0.1,0,-0.1,0,0,-0.1,-0.1,0,0.2,0,-0.1,0.3,0,0,0,0,0,0.3,-0.1,0,0,-0.1,0.3,0.1,0,-0.1,0,-0.1,0,0,0,0,0,0,0,-0.1,0,0,0,0,0,0.3,0,-0.1,0,0,-0.1,0.1" class="s4_1"
>Mannschaften in einheitlicher Bekleidung bei Trikots (mit BL-Logo), Hosen, Röcken und </text>

<text x="91" y="985" dx="0,0.2,0,0,-0.1,0,-0.1,0,-0.1,0.1,0,-0.1,-0.3,0,-0.1,0,0" class="s4_1"
>Trainingsanzügen </text>

<path fill-rule="evenodd" d="M37.4,954.4l1.1,0l0,-1.1l-1.1,0l0,1.1Z" />
<path fill-rule="evenodd" d="M38.5,954.4l47.5,0l0,-1.1l-47.5,0l0,1.1Z" />
<path fill-rule="evenodd" d="M86,954.4l1.1,0l0,-1.1l-1.1,0l0,1.1Z" />
<path fill-rule="evenodd" d="M87.1,954.4l609.9,0l0,-1.1l-609.9,0l0,1.1Z" />
<path fill-rule="evenodd" d="M697,954.4l1.1,0l0,-1.1l-1.1,0l0,1.1Z" />
<path fill-rule="evenodd" d="M698.1,954.4l79.9,0l0,-1.1l-79.9,0l0,1.1Z" />
<path fill-rule="evenodd" d="M778,954.4l1.1,0l0,-1.1l-1.1,0l0,1.1Z" />
<path fill-rule="evenodd" d="M779.1,954.4l92.1,0l0,-1.1l-92.1,0l0,1.1Z" />
<path fill-rule="evenodd" d="M871.2,954.4l1.1,0l0,-1.1l-1.1,0l0,1.1Z" />
<path fill-rule="evenodd" d="M37.4,989.2l1.1,0l0,-34.8l-1.1,0l0,34.8Z" />
<path fill-rule="evenodd" d="M86,989.2l1.1,0l0,-34.8l-1.1,0l0,34.8Z" />
<path fill-rule="evenodd" d="M697,989.2l1.1,0l0,-34.8l-1.1,0l0,34.8Z" />
<path fill-rule="evenodd" d="M778,989.2l1.1,0l0,-34.8l-1.1,0l0,34.8Z" />
<path fill-rule="evenodd" d="M871.2,989.2l1.1,0l0,-34.8l-1.1,0l0,34.8Z" />
<text x="53" y="1008" dx="0,0,0" class="s4_1"
>17 </text>

<text x="91" y="1008" dx="0,-0.1,0,0.1,0,0,0.1,0,0,-0.1,0,0,0,-0.1,0,-0.3,0,-0.1,0,-0.1,0,0,-0.1,0,-0.1,0,-0.1,0,-0.1,0,-0.1,0,-0.1,0,0,-0.1,0,0.1,0,0,-0.1,0,-0.1,0,0,0,0,0,0.3" class="s4_1"
>Aufruf der einzelnen Begegnungen durch Moderator </text>

<path fill-rule="evenodd" d="M37.4,990.3l1.1,0l0,-1.1l-1.1,0l0,1.1Z" />
<path fill-rule="evenodd" d="M38.5,990.3l47.5,0l0,-1.1l-47.5,0l0,1.1Z" />
<path fill-rule="evenodd" d="M86,990.3l1.1,0l0,-1.1l-1.1,0l0,1.1Z" />
<path fill-rule="evenodd" d="M87.1,990.3l609.9,0l0,-1.1l-609.9,0l0,1.1Z" />
<path fill-rule="evenodd" d="M697,990.3l1.1,0l0,-1.1l-1.1,0l0,1.1Z" />
<path fill-rule="evenodd" d="M698.1,990.3l79.9,0l0,-1.1l-79.9,0l0,1.1Z" />
<path fill-rule="evenodd" d="M778,990.3l1.1,0l0,-1.1l-1.1,0l0,1.1Z" />
<path fill-rule="evenodd" d="M779.1,990.3l92.1,0l0,-1.1l-92.1,0l0,1.1Z" />
<path fill-rule="evenodd" d="M871.2,990.3l1.1,0l0,-1.1l-1.1,0l0,1.1Z" />
<path fill-rule="evenodd" d="M37.4,1015.1l1.1,0l0,-24.8l-1.1,0l0,24.8Z" />
<path fill-rule="evenodd" d="M37.4,1016.2l1.1,0l0,-1.1l-1.1,0l0,1.1Z" />
<path fill-rule="evenodd" d="M37.4,1016.2l1.1,0l0,-1.1l-1.1,0l0,1.1Z" />
<path fill-rule="evenodd" d="M38.5,1016.2l47.5,0l0,-1.1l-47.5,0l0,1.1Z" />
<path fill-rule="evenodd" d="M86,1015.1l1.1,0l0,-24.8l-1.1,0l0,24.8Z" />
<path fill-rule="evenodd" d="M86,1016.2l1.1,0l0,-1.1l-1.1,0l0,1.1Z" />
<path fill-rule="evenodd" d="M87.1,1016.2l609.9,0l0,-1.1l-609.9,0l0,1.1Z" />
<path fill-rule="evenodd" d="M697,1015.1l1.1,0l0,-24.8l-1.1,0l0,24.8Z" />
<path fill-rule="evenodd" d="M697,1016.2l1.1,0l0,-1.1l-1.1,0l0,1.1Z" />
<path fill-rule="evenodd" d="M698.1,1016.2l79.9,0l0,-1.1l-79.9,0l0,1.1Z" />
<path fill-rule="evenodd" d="M778,1015.1l1.1,0l0,-24.8l-1.1,0l0,24.8Z" />
<path fill-rule="evenodd" d="M778,1016.2l1.1,0l0,-1.1l-1.1,0l0,1.1Z" />
<path fill-rule="evenodd" d="M779.1,1016.2l92.1,0l0,-1.1l-92.1,0l0,1.1Z" />
<path fill-rule="evenodd" d="M871.2,1015.1l1.1,0l0,-24.8l-1.1,0l0,24.8Z" />
<path fill-rule="evenodd" d="M871.2,1016.2l1.1,0l0,-1.1l-1.1,0l0,1.1Z" />
<path fill-rule="evenodd" d="M871.2,1016.2l1.1,0l0,-1.1l-1.1,0l0,1.1Z" />

<text x="43" y="1051" dx="0,0,0,0,0.1,0,0.1,0,0,0,0,0.1,0.1" style="font-size: 18.33px;font-weight:bold;fill: #000000;">Bemerkungen: </text>

<path fill-rule="evenodd" d="M177.1,1055.8l677.6,0l0,-1.8l-677.6,0l0,1.8Z" />
<path fill-rule="evenodd" d="M43.3,1099.1l811.4,0l0,-1.9l-811.4,0l0,1.9Z" />
<path fill-rule="evenodd" d="M43.3,1142.3l811.4,0l0,-1.8l-811.4,0l0,1.8Z" />
<path fill-rule="evenodd" d="M43.3,1185.6l811.4,0l0,-1.8l-811.4,0l0,1.8Z" />
<text x="43" y="1231" dx="0,-0.1,-0.1,0,0,0.1,0,0,-0.1,0.1,0.1,0,0,0.1,0,0,-0.1,0.1,0,-0.1,0,0.1,0.1,0,-0.1,0,0,0.1,0.1" style="font-size:21.45px"
>Unterschrift Schiedsrichter: </text>

<path fill-rule="evenodd" d="M333,1236l521.7,0l0,-2.2l-521.7,0l0,2.2Z" />

<text x="170" y="105" style="font-size:14px;" id="es_svg_team0"></text>
<text x="440" y="105" style="font-size:14px;" id="es_svg_team1"></text>
<text x="770" y="105" style="font-size:14px;" id="es_svg_date"></text>


</svg>
