<svg x="0" y="0" width="909" height="1286" viewBox="0 0 909 1286" version="1.1" xmlns="http://www.w3.org/2000/svg">
<defs>

<style type="text/css">
text {
  font-family: Arial, Helvetica, sans-serif;
  fill: #000000;
}

.s1_1{
font-size: 21.45px;
}
.s2_1{
font-size: 16.13px;
}
.s3_1{
font-size: 21.45px;
font-weight: bold;
}
.s4_1{
font-size: 13.75px;
}
.s5_1{
font-size: 15.22px;
}
.s6_1{
font-size: 18.33px;
}

</style>

</defs>
<path d="M0,0
L0,1286
L909,1286
L909,0 Z " fill="#FFFFFF" stroke="none" />
<text x="71" y="66" dx="0,0.3,0.1,-0.1,-0.1,0,0,0,0,-0.1,0,-0.1,0.1,-0.1,0,0.1,-0.1,-0.1,-0.1,0,-0.1,0.1,-0.1,-0.1,-0.1,0.1,0,0,-0.1,0,0,-0.1,0.1,-0.1,-0.1,-0.1,0,-0.1,0.1,-0.1,-0.1,-0.1,-0.1,0,0,0,0.1,-0.1,0,0.1,0,-0.1,0.1,0,0,0,0,-0.1,-0.1,0.1,0,0,0,0.4,0,0,0" class="s1_1"
>Mindestanforderungen und Empfehlungen Bundesliga ab Saison 2017-18 </text>

<path fill-rule="evenodd" d="M16.9,44.4l1.1,0l0,-1.1l-1.1,0l0,1.1Z" />
<path fill-rule="evenodd" d="M16.9,44.4l1.1,0l0,-1.1l-1.1,0l0,1.1Z" />
<path fill-rule="evenodd" d="M18,44.4l861.1,0l0,-1.1L18,43.3l0,1.1Z" />
<path fill-rule="evenodd" d="M879.1,44.4l1.1,0l0,-1.1l-1.1,0l0,1.1Z" />
<path fill-rule="evenodd" d="M879.1,44.4l1.1,0l0,-1.1l-1.1,0l0,1.1Z" />
<path fill-rule="evenodd" d="M16.9,73.7l1.1,0l0,-1.1l-1.1,0l0,1.1Z" />
<path fill-rule="evenodd" d="M16.9,73.7l1.1,0l0,-1.1l-1.1,0l0,1.1Z" />
<path fill-rule="evenodd" d="M18,73.7l861.1,0l0,-1.1L18,72.6l0,1.1Z" />
<path fill-rule="evenodd" d="M879.1,73.7l1.1,0l0,-1.1l-1.1,0l0,1.1Z" />
<path fill-rule="evenodd" d="M879.1,73.7l1.1,0l0,-1.1l-1.1,0l0,1.1Z" />
<path fill-rule="evenodd" d="M16.9,72.6l1.1,0L18,44.4l-1.1,0l0,28.2Z" />
<path fill-rule="evenodd" d="M879.1,72.6l1.1,0l0,-28.2l-1.1,0l0,28.2Z" />
<text x="21" y="108" dx="0,-0.1,0,-0.1,0,-0.1,-0.1,-0.1,-0.1,-0.1,-0.1" class="s1_1"
>Begegnung: </text>

<path fill-rule="evenodd" d="M146,113.3l200.2,0l0,-2.2l-200.2,0l0,2.2Z" />
<text x="352" y="108" dx="0,-0.1,0,-0.1,0,-0.1" class="s1_1"
>gegen </text>

<path fill-rule="evenodd" d="M415.1,113.3l231.9,0l0,-2.2l-231.9,0l0,2.2Z" />
<text x="671" y="108" dx="0,-0.1,0,0,-0.1,0,-0.2,0,0,0,0,0,0,-0.1,0" class="s1_1"
>Datum:________ </text>

<text x="21" y="147" dx="0,0.1,0.1,0,-0.1,0,0.1,0,0,-0.1,-0.2,0.1,0.1,-0.1,0,0,0,0.1,0,0.1,0.1,0,0,-0.1,0,0,0,-0.1,0,0,0,0.1,0,0.1,0,0,0.1,-0.1" class="s2_1"
>Hinweise zum Ausfüllen des Formulars: </text>

<text x="21" y="180" dx="0,0,0.1,0,0,0,0,0,0,0,0,-0.1,0.1,0,0,0,0,0,0.1,-0.1" class="s2_1"
>Liebe Sportfreunde, </text>

<text x="21" y="213" dx="0,0,0.1,0,3,0.1,0,0.1,0,0,0,0.2,0,3,0,0.1,0,-0.1,0,3,0,0,0.1,0,0,0,0.1,-0.1,0,-0.1,3,0,0.1,0,3.2,0,0,0.1,0,0,3,0,0,0,0,0,0,0,0,0,3,0.1,0,2.8,0,0,0,2.8,0,0,0,0,2.8,0,-0.1,0,0,0,0,2.8,0,0.1,2.8,0,0,-0.1,0,0,-0.1,0.4,0,0,0,2.9,0.1,0,2.8,0.7,0.1,0,0,0,0,0.1,0,0,-0.1,0,3,0,0,0,0,0,2.8,0,0.1,0" class="s2_1"
>die folgende Liste beinhaltet die gemäß Absprache in der BLVV 5/2017 am 14.10.2017 in Wipperfürth durch die </text>

<text x="21" y="231" dx="0,0,0,-0.1,0,0.1,0.1,0.1,0,-0.1,0,0,0.3,0,0,0,0,0,0,0,0.5,-0.2,0,0.3,0,0,0,0,0,-0.1,0,0.1,0,0,0,0,0,0.3,0,0.1,0,0,0,0,0,0,0,0.1,0,0,0,0,-0.1,0,0,0,0,0.2,0.1,0,0,0,0.1,0,0.1,0,0.1,0,0,0.1,0,0,0,0,0,0.2,0,0,0,0,0,0,-0.1,0.1,0,0,0.1,0,0,0,0.1,0,0.1,0.1,0.1,0,0,0,0.7,0,-0.1,-0.1,0.2,0,0.1,0,0.1,0,0.1,0.1,0" class="s2_1"
>beteiligten Vereine zu überprüfenden Mindestanforderungen und Empfehlungen der BLO Anlage VI für Wettkämpfe in </text>

<text x="21" y="250" dx="0,0,0,0,3.5,0,-0.1,3.6,0,0,0,3.6,0,-0.1,3.6,0,0,0,0.1,0.1,0,-0.1,0,0.2,-0.1,0,0,0,0,0,0,0.1,0.1,0,0,-0.1,3.4,0.1,0.1,0,3.4,0,0.1,0,-0.1,0,3.4,0.1,0,-0.1,3.4,0,0,0.1,3.4,-0.1,0,0.1,0,0.1,0,0,0.5,-0.1,0,0,0.1,0,0.1,0,0,0,0,0,0,-0.1,3.4,0,0,0.1,3.4,0,0.1,0,0,0,0,0,0,0,0,3.4,0,0,3.4,0,0,0,3.4,0,0,0,0,0,0,0.1,0.1,0,0.4" class="s2_1"
>der 1. und 2. Badminton-Bundesliga. Die Liste ist dem Original-Spielbericht bei Einsendung an den Bundesliga-</text>

<text x="21" y="269" dx="0,0,0,0.1,0,0.1,0.1,0.1,0.1,-0.1,0,0,3.9,0.1,0.1,-0.1,3.9,0,0,0,0.1,0,4,0,0,4,0,0,0,4,0,0,0,0,0,0,-0.2,0,0,0,0,0,4,0,0,0,4,0,0.1,0,0,4.3,0,0,0,4,0,0,0,4,0,0,0,0,0,0,0,0,0,0,0,0,0,0,3.9,0,0,0,3.8,0.1,0,0,0,4,0,0,0,0,0,3.7,0,0,0,3.8,0.1,0,0.1,0.1,-0.2,0,0,0,0,0" class="s2_1"
>Spielleiter mit Kopie an den Vorsitzenden des AfBL und den Pressesprecher des DBLV durch den Heimverein </text>

<text x="21" y="287" dx="0,0,0,0.1,-0.2,0,0.1,0,0,0,0,0" class="s2_1"
>beizufügen. </text>

<text x="21" y="306" dx="0,0,0.1,-0.1,6.1,0,0.1,0,6.2,0.1,0,-0.1,0,0,0,0,0,-0.1,0.1,0.1,0,0,0,6.1,0,0,0,0,0,0,0.1,0,0.1,0.1,0,0,6.2,0,0.1,0,6.1,0,0,0,0,0,-0.1,-0.1,0,0,-0.1,0.1,0.1,0,0,0,0,6.2,0,0,0,6.1,0,0,0,0,0,0,0,6.4,0.1,0,0,0.1,0,0.1,0.1,0,0,-0.1,6,0,0,0,0,6,0,0.1,0,6,0,0,0.1,0,0,0,0,-0.1,0,0,0,0,0.3,6,0,0,0" class="s2_1"
>Mit den Unterschriften bescheinigen die Verantwortlichen der Vereine lediglich, dass die Anforderungen und </text>

<text x="21" y="325" dx="0,0,0.1,0,0.1,0,0,0.1,0,0,0,0,0,0.1,-0.2,0,0,0,0,0,0,0,0,0,0,-0.2,-0.1,-0.1,-0.1,0,0.1,0,0,-0.1,-0.1,-0.2,0,0,0,0,0,0,0,0,0,-0.1,0,0,0,0,-0.1" class="s2_1"
>Empfehlungen vorhanden bzw. nicht vorhanden waren. </text>

<text x="21" y="343" dx="0,0,0,0.1,0.1,-0.1,0,3,0,0,3,0,0,0.1,0.1,3,0,0,0,0.1,0,0.1,0.1,0,0,3,0,0.1,0,0,0,0,3,0,0.1,0,-0.1,0,3,0,0,0,0,3,-0.2,0,3,0,0,0,0,0,0,3,0.2,0,0.1,0.1,0,0,-0.1,3,0,0,3,0.2,0,0,0,0,0,3,0,0.1,0,0,0,3,0.1,0.1,2.8,0.1,0,-0.1,0.1,0,0.1,0.1,2.8,0,0,0,2.8,0,0,0.1,0,0.1,0,0,2.9,0.1,0.1,-0.1,2.8,0,0,0.1" class="s2_1"
>Sollte es beim Ausfüllen dieser Liste doch zu Fragen kommen, so können diese im Notfall per Telefon mit dem </text>

<text x="21" y="362" dx="0,0,0,0,0,0,0,0.1,0.1,0,0.1,-0.1,0,0,0.1,0,0.1,0.1,0,0.1,-0.1,0,0,0.6,0,0,0,0,0,0.4,0,0,0,0,0,0,-0.1,0.5,0,0,-0.1,0,0,0.4,0,0,0,0.4,0.1,0,0.1,0,0,0.1,0.1,0,0,0.4,0,0,0,0,0.4,-0.1,0,0,0,0,0,0,-0.1,0.5,0,0,0.1,0.5,0,0,0,0,0,0,-0.2,0,0,0,0,0,0.5,0,0,0,0.5,0,0.1,0,0,0.5,0,0,0,0,0.5,0,0,0,0.1,0,-0.2" class="s2_1"
>Bundesliga-Spielleiter Bernd Mohaupt unter der Rufnummer 05241-531760, dem Vorsitzenden des AfBL Arno Schley </text>

<text x="21" y="381" dx="0,0,0,-0.1,0,0,5.7,0,0,0,0,-0.1,0,0,0,0,0,0,0,0,5.8,0,0,0,0,5.7,0,0,0.2,0,0,-0.1,0,0,0,0,0.1,5.6,0,0,0,0,5.6,0,0,0.1,5.6,0,0,0,0,0,0,0,0,0,0,0,0,0,0,5.5,0.1,0,0.1,0.1,0,-0.1,5.6,0.1,0,0,0,0,0,-0.1,5.6,0,0,-0.1,0,0,5.5,0,0,0,0,-0.1,0,0,0,0,0,0,0,5.6,0,0,0,0" class="s2_1"
>unter 0176/52500972 oder 06821/53456 oder dem Pressesprecher Helmut Ruppert unter 0172/6110612 oder </text>

<text x="21" y="400" dx="0,0,0,0,0,-0.1,0,0,0,0,0,0,0,0.2,0,0,-0.2,0.1,0,0.1,0,-0.1,0.1,0,-0.1,0,0,0,0,-0.1,-0.1,0,0,-0.1,0,-0.1,-0.1,-0.1,0,0,0,0,0,0" class="s2_1"
>0611/841194 kurzfristig beantwortet werden. </text>

<text x="21" y="432" dx="0,0,0,0,-0.1,0,0,0,0,-0.1,0.1,0,-0.1,0,0,0,-0.1,0,-0.1,-0.2,0,0,0,0,0,0,0,-0.1,0,0,0,-0.1,0,0.1,0,0,0,0.1,-0.1,0,0,0,0,0,0,-0.1,-0.1,0,0.1,0,0,0,0,0,0,0,0.1,0,0,0,0,-0.1,0,0,0,0,0,-0.1,0,0,0,0.5,0,0,-0.1,0,0,0,0,-0.1,0,0,0,-0.1,0,0.1,0,0.2,-0.1,0,0,0,0,0,0,-0.1,-0.1,0,0.1,0,0,-0.2,0,0,0,0,0,0,0.7" class="s2_1"
>Für Eure Unterstützung bei der Einhaltung der Mindestanforderungen danken Euch der AfBL und der Ligaverband! </text>

<text x="25" y="472" dx="0,-0.1,0,0" class="s3_1"
>Nr. </text>

<text x="135" y="472" dx="0,-0.1,0.1,0,0,0,0.1,0,0.1,0,0,0.1,0,0,0,0,0,0,0.1,0,0,-0.1,0,0,0,-0.2,0,0,0,0,0.1,0,0,0,0,0.1,0,0,0,-0.1,0,0,0,0.1,0,0.1,0.1,0.1,0.1,0,0.2" class="s3_1"
>Mindestanforderung und Empfehlungen - Vereinsliste </text>

<text x="712" y="465" dx="0,-0.1,0,0,0,0.1,0,0.1,0,0.1" class="s4_1"
>vorhanden </text>

<text x="816" y="465" dx="0,0,0,0,0,0" class="s4_1"
>Nicht </text>

<text x="798" y="481" dx="0,-0.1,0,0,0,0.1,0,0.1,0,0.1" class="s4_1"
>vorhanden </text>

<path fill-rule="evenodd" d="M15.8,451.8l1.1,0l0,-1.1l-1.1,0l0,1.1Z" />
<path fill-rule="evenodd" d="M15.8,451.8l1.1,0l0,-1.1l-1.1,0l0,1.1Z" />
<path fill-rule="evenodd" d="M16.9,451.8l47.4,0l0,-1.1l-47.4,0l0,1.1Z" />
<path fill-rule="evenodd" d="M64.3,451.8l1.2,0l0,-1.1l-1.2,0l0,1.1Z" />
<path fill-rule="evenodd" d="M65.5,451.8l637.9,0l0,-1.1l-637.9,0l0,1.1Z" />
<path fill-rule="evenodd" d="M703.4,451.8l1.1,0l0,-1.1l-1.1,0l0,1.1Z" />
<path fill-rule="evenodd" d="M704.5,451.8l85.7,0l0,-1.1l-85.7,0l0,1.1Z" />
<path fill-rule="evenodd" d="M790.2,451.8l1.1,0l0,-1.1l-1.1,0l0,1.1Z" />
<path fill-rule="evenodd" d="M791.3,451.8l85.4,0l0,-1.1l-85.4,0l0,1.1Z" />
<path fill-rule="evenodd" d="M876.7,451.8l1.1,0l0,-1.1l-1.1,0l0,1.1Z" />
<path fill-rule="evenodd" d="M876.7,451.8l1.1,0l0,-1.1l-1.1,0l0,1.1Z" />
<path fill-rule="evenodd" d="M15.8,484.8l1.1,0l0,-33l-1.1,0l0,33Z" />
<path fill-rule="evenodd" d="M64.3,484.8l1.2,0l0,-33l-1.2,0l0,33Z" />
<path fill-rule="evenodd" d="M703.4,484.8l1.1,0l0,-33l-1.1,0l0,33Z" />
<path fill-rule="evenodd" d="M790.2,484.8l1.1,0l0,-33l-1.1,0l0,33Z" />
<path fill-rule="evenodd" d="M876.7,484.8l1.1,0l0,-33l-1.1,0l0,33Z" />
<text x="36" y="500" dx="0,0" class="s5_1"
>1 </text>

<text x="70" y="507" dx="0,0,-0.1,0,0,0,0,0.1,0.1,0,-0.1,0,-0.1,0,0.3,0,-0.1,0,-0.3,-0.1,0,0,-0.1,0,0.3,0,0,0.1,0,-0.1,0,0,-0.1,0,0,0,0,0,0,-0.1,0,-0.1,0,-0.1,0.1,-0.1,-0.1,0,-0.1,0,0.3,-0.1,0,-0.1,0,0,0,0,-0.1,0.1,0,0,-0.1,0,0,-0.1,-0.1,0,-0.3,0,-0.1,0,0,-0.3,0,0,-0.1,0,0,0,0,0,-0.1,0.3" class="s5_1"
>Die Zuschauerkapazität muss in der 1. Bundesliga mindestens 150 Sitzplätze betragen </text>

<path fill-rule="evenodd" d="M15.8,485.9l1.1,0l0,-1.1l-1.1,0l0,1.1Z" />
<path fill-rule="evenodd" d="M16.9,485.9l47.4,0l0,-1.1l-47.4,0l0,1.1Z" />
<path fill-rule="evenodd" d="M64.3,485.9l1.2,0l0,-1.1l-1.2,0l0,1.1Z" />
<path fill-rule="evenodd" d="M65.5,485.9l637.9,0l0,-1.1l-637.9,0l0,1.1Z" />
<path fill-rule="evenodd" d="M703.4,485.9l1.1,0l0,-1.1l-1.1,0l0,1.1Z" />
<path fill-rule="evenodd" d="M704.5,485.9l85.7,0l0,-1.1l-85.7,0l0,1.1Z" />
<path fill-rule="evenodd" d="M790.2,485.9l1.1,0l0,-1.1l-1.1,0l0,1.1Z" />
<path fill-rule="evenodd" d="M791.3,485.9l85.4,0l0,-1.1l-85.4,0l0,1.1Z" />
<path fill-rule="evenodd" d="M876.7,485.9l1.1,0l0,-1.1l-1.1,0l0,1.1Z" />
<path fill-rule="evenodd" d="M15.8,511l1.1,0l0,-25.1l-1.1,0l0,25.1Z" />
<path fill-rule="evenodd" d="M64.3,511l1.2,0l0,-25.1l-1.2,0l0,25.1Z" />
<path fill-rule="evenodd" d="M703.4,511l1.1,0l0,-25.1l-1.1,0l0,25.1Z" />
<path fill-rule="evenodd" d="M790.2,511l1.1,0l0,-25.1l-1.1,0l0,25.1Z" />
<path fill-rule="evenodd" d="M876.7,511l1.1,0l0,-25.1l-1.1,0l0,25.1Z" />
<text x="36" y="526" dx="0,0" class="s5_1"
>2 </text>

<text x="70" y="533" dx="0,0,-0.1,0,0,0,0,0.1,0.1,0,-0.1,0,-0.1,0,0.3,0,-0.1,0,-0.3,-0.1,0,0,-0.1,0,0.3,0,0,0.1,0,-0.1,0,0,-0.1,0,0,0,0,0,0,-0.1,0,-0.1,0,-0.1,0.1,-0.1,-0.1,0,-0.1,0,0.3,-0.1,0,-0.1,0,0,0,0,-0.1,0.1,0,0,-0.1,0,-0.1,-0.1,0,-0.3,0,-0.1,0,0,-0.3,0,0,-0.1,0,0,0,0,0,-0.1,0.3" class="s5_1"
>Die Zuschauerkapazität muss in der 2. Bundesliga mindestens 50 Sitzplätze betragen </text>

<path fill-rule="evenodd" d="M15.8,512.1l1.1,0l0,-1.1l-1.1,0l0,1.1Z" />
<path fill-rule="evenodd" d="M16.9,512.1l47.4,0l0,-1.1l-47.4,0l0,1.1Z" />
<path fill-rule="evenodd" d="M64.3,512.1l1.2,0l0,-1.1l-1.2,0l0,1.1Z" />
<path fill-rule="evenodd" d="M65.5,512.1l637.9,0l0,-1.1L65.5,511l0,1.1Z" />
<path fill-rule="evenodd" d="M703.4,512.1l1.1,0l0,-1.1l-1.1,0l0,1.1Z" />
<path fill-rule="evenodd" d="M704.5,512.1l85.7,0l0,-1.1l-85.7,0l0,1.1Z" />
<path fill-rule="evenodd" d="M790.2,512.1l1.1,0l0,-1.1l-1.1,0l0,1.1Z" />
<path fill-rule="evenodd" d="M791.3,512.1l85.4,0l0,-1.1l-85.4,0l0,1.1Z" />
<path fill-rule="evenodd" d="M876.7,512.1l1.1,0l0,-1.1l-1.1,0l0,1.1Z" />
<path fill-rule="evenodd" d="M15.8,537.2l1.1,0l0,-25.1l-1.1,0l0,25.1Z" />
<path fill-rule="evenodd" d="M64.3,537.2l1.2,0l0,-25.1l-1.2,0l0,25.1Z" />
<path fill-rule="evenodd" d="M703.4,537.2l1.1,0l0,-25.1l-1.1,0l0,25.1Z" />
<path fill-rule="evenodd" d="M790.2,537.2l1.1,0l0,-25.1l-1.1,0l0,25.1Z" />
<path fill-rule="evenodd" d="M876.7,537.2l1.1,0l0,-25.1l-1.1,0l0,25.1Z" />
<text x="36" y="552" dx="0,0" class="s5_1"
>3 </text>

<text x="70" y="552" dx="0,-0.1,0,0,-0.1,0,-0.1,-0.1,0.1,0,-0.1,-0.3,0,-0.1,0,-0.1,0,0,-0.1,0,-0.1,0.3,0.1,0.1,0" class="s5_1"
>Ergebnisanzeige: Beamer (</text>

<path fill-rule="evenodd" d="M249.2,549.3l5.1,0l0,-0.7l-5.1,0l0,0.7Z" />
<text x="254" y="552" dx="0,0,0,0,0,0,0,0,0,0,0,0,0,0,0,0,0,0,0,0,0,0.1,0,-0.1,0,0,0,0.1,0,0,0,0,0,0,0,0.3,0,0,0,0,0.1,0,0,-0.1,0,0,0.1,0.1,0,0,0,0,0,0,0,0,0,0,0,0,0,0.1,0,-0.1,0,0" class="s5_1"
>4:3 o.16:9) Mindestbreite ca. 2,5 m oder Flatscreen Mindestbreite </text>

<text x="70" y="569" dx="0,0.1,0,0,-0.1,0,-0.1,0,0,0,-0.1,0" class="s5_1"
>ca. 50 Zoll </text>

<path fill-rule="evenodd" d="M15.8,538.3l1.1,0l0,-1.1l-1.1,0l0,1.1Z" />
<path fill-rule="evenodd" d="M16.9,538.3l47.4,0l0,-1.1l-47.4,0l0,1.1Z" />
<path fill-rule="evenodd" d="M64.3,538.3l1.2,0l0,-1.1l-1.2,0l0,1.1Z" />
<path fill-rule="evenodd" d="M65.5,538.3l637.9,0l0,-1.1l-637.9,0l0,1.1Z" />
<path fill-rule="evenodd" d="M703.4,538.3l1.1,0l0,-1.1l-1.1,0l0,1.1Z" />
<path fill-rule="evenodd" d="M704.5,538.3l85.7,0l0,-1.1l-85.7,0l0,1.1Z" />
<path fill-rule="evenodd" d="M790.2,538.3l1.1,0l0,-1.1l-1.1,0l0,1.1Z" />
<path fill-rule="evenodd" d="M791.3,538.3l85.4,0l0,-1.1l-85.4,0l0,1.1Z" />
<path fill-rule="evenodd" d="M876.7,538.3l1.1,0l0,-1.1l-1.1,0l0,1.1Z" />
<path fill-rule="evenodd" d="M15.8,573.2l1.1,0l0,-34.9l-1.1,0l0,34.9Z" />
<path fill-rule="evenodd" d="M64.3,573.2l1.2,0l0,-34.9l-1.2,0l0,34.9Z" />
<path fill-rule="evenodd" d="M703.4,573.2l1.1,0l0,-34.9l-1.1,0l0,34.9Z" />
<path fill-rule="evenodd" d="M790.2,573.2l1.1,0l0,-34.9l-1.1,0l0,34.9Z" />
<path fill-rule="evenodd" d="M876.7,573.2l1.1,0l0,-34.9l-1.1,0l0,34.9Z" />
<text x="36" y="588" dx="0,0" class="s5_1"
>4 </text>

<text x="70" y="588" dx="0,0,-0.1,0,0,-0.1,0,-0.1,0,-0.1,0.2,-0.1,0,0,0,-0.1,0,-0.1,0.1,0,0,-0.1,0,0,-0.1,0,0,0,0,0,0,-0.1,0,-0.1,0,-0.1,0.1,-0.1,-0.1,0,-0.1,0,-0.1,0,-0.1,0,0,-0.1,0,-0.1,0.3,0,0.8,0,0,-0.1,0.3,0,0.3,0,0.1,0,-0.1,0,0,-0.1,0.1,0,0,-0.1,0.3,0,-0.1,0,-0.1,0,0,-0.1,0,-0.1,0,0,0,-0.1,0.2,0,0,-0.1,-0.1,0,-0.1" class="s5_1"
>Die Spielfläche ist in der 1. Bundesliga von einem Wettkampfbereich umgeben, der auf allen </text>

<text x="70" y="605" dx="0,-0.1,0,-0.1,0,0,-0.1,0,0.3,-0.1,0,-0.1,0,0,0,0,-0.1,0.1,0,0.1,0,0,-0.1,0,0,0.3,0,0,0,0,-0.1,0,0,-0.1,0,-0.1,0,-0.1,0,-0.1,0,0,-0.1,0,0,-0.1,0,-0.1,0,-0.1,0.2,-0.1,0,0,0,-0.1,0,0.1,0,0,0,-0.1,-0.1,0.1,0,0,-0.1,0,-0.1,0,-0.1,0,-0.1,0,-0.1,0,0,-0.1,0.1,0.3,0,-0.1,0,0,-0.1,0,-0.1,0.1,0,0,0,0,-0.1,0" class="s5_1"
>Seiten mindestens ca. 1 m breit und von der Spielfläche farblich abgehoben gestaltet ist. Der </text>

<text x="70" y="623" dx="0,0.8,0,0,-0.1,0.3,0,0.3,0,0.1,0,-0.1,0,0,-0.1,0.1,0,0,0.2,0,-0.1,0,0,0.3,-0.1,0,0,-0.1,0.3,-0.1,0,-0.1,0.2,0,-0.1,0,-0.1,0,0,0.8,0,0,0,0,0,-0.1,0,-0.1,0,-0.1,0,0,-0.1,0.1,0.1,0,-0.1,-0.1,0,0,0,0,0.3" class="s5_1"
>Wettkampfbereich kann mit umlaufenden Werbebanden abschließen. </text>

<path fill-rule="evenodd" d="M15.8,574.3l1.1,0l0,-1.1l-1.1,0l0,1.1Z" />
<path fill-rule="evenodd" d="M16.9,574.3l47.4,0l0,-1.1l-47.4,0l0,1.1Z" />
<path fill-rule="evenodd" d="M64.3,574.3l1.2,0l0,-1.1l-1.2,0l0,1.1Z" />
<path fill-rule="evenodd" d="M65.5,574.3l637.9,0l0,-1.1l-637.9,0l0,1.1Z" />
<path fill-rule="evenodd" d="M703.4,574.3l1.1,0l0,-1.1l-1.1,0l0,1.1Z" />
<path fill-rule="evenodd" d="M704.5,574.3l85.7,0l0,-1.1l-85.7,0l0,1.1Z" />
<path fill-rule="evenodd" d="M790.2,574.3l1.1,0l0,-1.1l-1.1,0l0,1.1Z" />
<path fill-rule="evenodd" d="M791.3,574.3l85.4,0l0,-1.1l-85.4,0l0,1.1Z" />
<path fill-rule="evenodd" d="M876.7,574.3l1.1,0l0,-1.1l-1.1,0l0,1.1Z" />
<path fill-rule="evenodd" d="M15.8,626.6l1.1,0l0,-52.3l-1.1,0l0,52.3Z" />
<path fill-rule="evenodd" d="M64.3,626.6l1.2,0l0,-52.3l-1.2,0l0,52.3Z" />
<path fill-rule="evenodd" d="M703.4,626.6l1.1,0l0,-52.3l-1.1,0l0,52.3Z" />
<path fill-rule="evenodd" d="M790.2,626.6l1.1,0l0,-52.3l-1.1,0l0,52.3Z" />
<path fill-rule="evenodd" d="M876.7,626.6l1.1,0l0,-52.3l-1.1,0l0,52.3Z" />
<text x="36" y="641" dx="0,0" class="s5_1"
>5 </text>

<text x="70" y="641" dx="0,0,-0.1,-0.1,0,0,0.1,0,0,0,0,0.2,-0.1,0.1,0.3,0,0,0.1,0.1,0.1,0,-0.2,0,-0.1,0,0,-0.1,0,0,0.2,0,-0.1,0,-0.1,0,0,0,0.3,-0.1,0,0,-0.1,-0.1,0,-0.1,-0.1,0,-0.1,0,-0.1,0,0,-0.1,0,0.1,0,0,-0.1,0,0,-0.1,0,0.3,0,0,-0.1,0,-0.1,0,-0.1,0,0,0,0,0,-0.1,0,-0.1,0,-0.1,0" class="s5_1"
>Livescore/Ticker (soweit verfügbar: mit Einbindung auf der vom DBLV vorgegebenen </text>

<text x="70" y="659" dx="0,0,0,0.3,0,-0.1,0,-0.1,0,0.1" class="s5_1"
>Homepage) </text>

<path fill-rule="evenodd" d="M15.8,627.7l1.1,0l0,-1.1l-1.1,0l0,1.1Z" />
<path fill-rule="evenodd" d="M16.9,627.7l47.4,0l0,-1.1l-47.4,0l0,1.1Z" />
<path fill-rule="evenodd" d="M64.3,627.7l1.2,0l0,-1.1l-1.2,0l0,1.1Z" />
<path fill-rule="evenodd" d="M65.5,627.7l637.9,0l0,-1.1l-637.9,0l0,1.1Z" />
<path fill-rule="evenodd" d="M703.4,627.7l1.1,0l0,-1.1l-1.1,0l0,1.1Z" />
<path fill-rule="evenodd" d="M704.5,627.7l85.7,0l0,-1.1l-85.7,0l0,1.1Z" />
<path fill-rule="evenodd" d="M790.2,627.7l1.1,0l0,-1.1l-1.1,0l0,1.1Z" />
<path fill-rule="evenodd" d="M791.3,627.7l85.4,0l0,-1.1l-85.4,0l0,1.1Z" />
<path fill-rule="evenodd" d="M876.7,627.7l1.1,0l0,-1.1l-1.1,0l0,1.1Z" />
<path fill-rule="evenodd" d="M15.8,662.5l1.1,0l0,-34.8l-1.1,0l0,34.8Z" />
<path fill-rule="evenodd" d="M64.3,662.5l1.2,0l0,-34.8l-1.2,0l0,34.8Z" />
<path fill-rule="evenodd" d="M703.4,662.5l1.1,0l0,-34.8l-1.1,0l0,34.8Z" />
<path fill-rule="evenodd" d="M790.2,662.5l1.1,0l0,-34.8l-1.1,0l0,34.8Z" />
<path fill-rule="evenodd" d="M876.7,662.5l1.1,0l0,-34.8l-1.1,0l0,34.8Z" />
<text x="36" y="677" dx="0,0" class="s5_1"
>6 </text>

<text x="70" y="685" dx="0,0,0,0.1,0,0,-0.1,0,-0.1,0" class="s5_1"
>Cafeteria </text>

<path fill-rule="evenodd" d="M15.8,663.6l1.1,0l0,-1.1l-1.1,0l0,1.1Z" />
<path fill-rule="evenodd" d="M16.9,663.6l47.4,0l0,-1.1l-47.4,0l0,1.1Z" />
<path fill-rule="evenodd" d="M64.3,663.6l1.2,0l0,-1.1l-1.2,0l0,1.1Z" />
<path fill-rule="evenodd" d="M65.5,663.6l637.9,0l0,-1.1l-637.9,0l0,1.1Z" />
<path fill-rule="evenodd" d="M703.4,663.6l1.1,0l0,-1.1l-1.1,0l0,1.1Z" />
<path fill-rule="evenodd" d="M704.5,663.6l85.7,0l0,-1.1l-85.7,0l0,1.1Z" />
<path fill-rule="evenodd" d="M790.2,663.6l1.1,0l0,-1.1l-1.1,0l0,1.1Z" />
<path fill-rule="evenodd" d="M791.3,663.6l85.4,0l0,-1.1l-85.4,0l0,1.1Z" />
<path fill-rule="evenodd" d="M876.7,663.6l1.1,0l0,-1.1l-1.1,0l0,1.1Z" />
<path fill-rule="evenodd" d="M15.8,688.9l1.1,0l0,-25.3l-1.1,0l0,25.3Z" />
<path fill-rule="evenodd" d="M64.3,688.9l1.2,0l0,-25.3l-1.2,0l0,25.3Z" />
<path fill-rule="evenodd" d="M703.4,688.9l1.1,0l0,-25.3l-1.1,0l0,25.3Z" />
<path fill-rule="evenodd" d="M790.2,688.9l1.1,0l0,-25.3l-1.1,0l0,25.3Z" />
<path fill-rule="evenodd" d="M876.7,688.9l1.1,0l0,-25.3l-1.1,0l0,25.3Z" />
<text x="36" y="704" dx="0,0" class="s5_1"
>7 </text>

<text x="70" y="704" dx="0,-0.1,0,-0.1,0,-0.1,0,0,-0.1,0,0,0,0,0,0,0.1,0,-0.1,0,-0.3,0,0,-0.1,0,0,0,0.1,0.1,0,-0.1,0,-0.1,0,-0.3,0,-0.1,-0.1,0,0,-0.1,0.2,0,0,-0.1,0.3,0,-0.1,0,-0.1,0,-0.1,0,-0.1,0,-0.1,0.1,0,0,-0.1,0,-0.1,0,0.4,0,0,0,-0.1,-0.1,0.3,-0.1,0,0,0,-0.1,0,0,-0.1,0,0,-0.1,0,0,0,0,0,0.1,0,-0.1" class="s5_1"
>Angabe der geschätzten Zuschauerzahl auf dem Spielbericht durch Heimverein in Absprache </text>

<text x="70" y="721" dx="0,0.3,-0.1,0,0,0.1,0,0,0,-0.1,0,0,0,-0.1,0" class="s5_1"
>mit Gastverein </text>

<path fill-rule="evenodd" d="M15.8,690l1.1,0l0,-1.1l-1.1,0l0,1.1Z" />
<path fill-rule="evenodd" d="M16.9,690l47.4,0l0,-1.1l-47.4,0l0,1.1Z" />
<path fill-rule="evenodd" d="M64.3,690l1.2,0l0,-1.1l-1.2,0l0,1.1Z" />
<path fill-rule="evenodd" d="M65.5,690l637.9,0l0,-1.1l-637.9,0l0,1.1Z" />
<path fill-rule="evenodd" d="M703.4,690l1.1,0l0,-1.1l-1.1,0l0,1.1Z" />
<path fill-rule="evenodd" d="M704.5,690l85.7,0l0,-1.1l-85.7,0l0,1.1Z" />
<path fill-rule="evenodd" d="M790.2,690l1.1,0l0,-1.1l-1.1,0l0,1.1Z" />
<path fill-rule="evenodd" d="M791.3,690l85.4,0l0,-1.1l-85.4,0l0,1.1Z" />
<path fill-rule="evenodd" d="M876.7,690l1.1,0l0,-1.1l-1.1,0l0,1.1Z" />
<path fill-rule="evenodd" d="M15.8,724.8l1.1,0l0,-34.8l-1.1,0l0,34.8Z" />
<path fill-rule="evenodd" d="M64.3,724.8l1.2,0l0,-34.8l-1.2,0l0,34.8Z" />
<path fill-rule="evenodd" d="M703.4,724.8l1.1,0l0,-34.8l-1.1,0l0,34.8Z" />
<path fill-rule="evenodd" d="M790.2,724.8l1.1,0l0,-34.8l-1.1,0l0,34.8Z" />
<path fill-rule="evenodd" d="M876.7,724.8l1.1,0l0,-34.8l-1.1,0l0,34.8Z" />
<text x="36" y="740" dx="0,0" class="s5_1"
>8 </text>

<text x="70" y="747" dx="0,-0.1,-0.1,0,0.2,0,0,-0.1,0,0.3,-0.1,0,0,-0.1,0,0.1,0,-0.1,0,-0.1,0,-0.1,0.3,0,-0.1,-0.1,0,-0.1,0,-0.1,0,0,0,-0.1,0,0,-0.1,0.1,0,0,-0.1,0,0,0,0,-0.1,0,0,0,0.1,0,0,-0.1,0,0.1" class="s5_1"
>Plakate mit BL-Logo im Eingangsbereich der Sportstätte </text>

<path fill-rule="evenodd" d="M15.8,725.9l1.1,0l0,-1.1l-1.1,0l0,1.1Z" />
<path fill-rule="evenodd" d="M16.9,725.9l47.4,0l0,-1.1l-47.4,0l0,1.1Z" />
<path fill-rule="evenodd" d="M64.3,725.9l1.2,0l0,-1.1l-1.2,0l0,1.1Z" />
<path fill-rule="evenodd" d="M65.5,725.9l637.9,0l0,-1.1l-637.9,0l0,1.1Z" />
<path fill-rule="evenodd" d="M703.4,725.9l1.1,0l0,-1.1l-1.1,0l0,1.1Z" />
<path fill-rule="evenodd" d="M704.5,725.9l85.7,0l0,-1.1l-85.7,0l0,1.1Z" />
<path fill-rule="evenodd" d="M790.2,725.9l1.1,0l0,-1.1l-1.1,0l0,1.1Z" />
<path fill-rule="evenodd" d="M791.3,725.9l85.4,0l0,-1.1l-85.4,0l0,1.1Z" />
<path fill-rule="evenodd" d="M876.7,725.9l1.1,0l0,-1.1l-1.1,0l0,1.1Z" />
<path fill-rule="evenodd" d="M15.8,751l1.1,0l0,-25.1l-1.1,0l0,25.1Z" />
<path fill-rule="evenodd" d="M64.3,751l1.2,0l0,-25.1l-1.2,0l0,25.1Z" />
<path fill-rule="evenodd" d="M703.4,751l1.1,0l0,-25.1l-1.1,0l0,25.1Z" />
<path fill-rule="evenodd" d="M790.2,751l1.1,0l0,-25.1l-1.1,0l0,25.1Z" />
<path fill-rule="evenodd" d="M876.7,751l1.1,0l0,-25.1l-1.1,0l0,25.1Z" />
<text x="36" y="766" dx="0,0" class="s5_1"
>9 </text>

<text x="70" y="773" dx="0,-0.1,0,0,-0.1,0,0,0.3,0.3,0,-0.1,0.2,0,0,0.3,-0.1,0,0,-0.1,0.1,0.1,0,0,0,0,0,0,0,0.2,0,0.2,-0.1,0,0,0,0,0,-0.1,0,0.1" class="s5_1"
>Programmheft mit BL-Logo auf Titelseite </text>

<path fill-rule="evenodd" d="M15.8,752.1l1.1,0l0,-1.1l-1.1,0l0,1.1Z" />
<path fill-rule="evenodd" d="M16.9,752.1l47.4,0l0,-1.1l-47.4,0l0,1.1Z" />
<path fill-rule="evenodd" d="M64.3,752.1l1.2,0l0,-1.1l-1.2,0l0,1.1Z" />
<path fill-rule="evenodd" d="M65.5,752.1l637.9,0l0,-1.1L65.5,751l0,1.1Z" />
<path fill-rule="evenodd" d="M703.4,752.1l1.1,0l0,-1.1l-1.1,0l0,1.1Z" />
<path fill-rule="evenodd" d="M704.5,752.1l85.7,0l0,-1.1l-85.7,0l0,1.1Z" />
<path fill-rule="evenodd" d="M790.2,752.1l1.1,0l0,-1.1l-1.1,0l0,1.1Z" />
<path fill-rule="evenodd" d="M791.3,752.1l85.4,0l0,-1.1l-85.4,0l0,1.1Z" />
<path fill-rule="evenodd" d="M876.7,752.1l1.1,0l0,-1.1l-1.1,0l0,1.1Z" />
<path fill-rule="evenodd" d="M15.8,777.3l1.1,0l0,-25.2l-1.1,0l0,25.2Z" />
<path fill-rule="evenodd" d="M64.3,777.3l1.2,0l0,-25.2l-1.2,0l0,25.2Z" />
<path fill-rule="evenodd" d="M703.4,777.3l1.1,0l0,-25.2l-1.1,0l0,25.2Z" />
<path fill-rule="evenodd" d="M790.2,777.3l1.1,0l0,-25.2l-1.1,0l0,25.2Z" />
<path fill-rule="evenodd" d="M876.7,777.3l1.1,0l0,-25.2l-1.1,0l0,25.2Z" />
<text x="32" y="792" dx="0,0,0" class="s5_1"
>10 </text>

<text x="70" y="800" dx="0,0,0,0.1,-0.1,0.3,0,-0.1,0,0,0,-0.1,0,-0.1,0,-0.1,0,-0.1,0,0,-0.1,0,0,0,0,0,0.3,0,-0.1,0,-0.1,0,-0.1,0,0,-0.1,-0.1,0,-0.1,0,-0.1,0.2,0,0,-0.1,0,-0.1,0.1,0,-0.1,0,0,-0.1,0,0,0,0,-0.1,0,0.3,0,-0.1,0,-0.1,0,0.1" class="s5_1"
>Musikeinspielungen vor dem Spiel, Einlauf, Pausen, nach dem Spiel </text>

<path fill-rule="evenodd" d="M15.8,778.4l1.1,0l0,-1.1l-1.1,0l0,1.1Z" />
<path fill-rule="evenodd" d="M16.9,778.4l47.4,0l0,-1.1l-47.4,0l0,1.1Z" />
<path fill-rule="evenodd" d="M64.3,778.4l1.2,0l0,-1.1l-1.2,0l0,1.1Z" />
<path fill-rule="evenodd" d="M65.5,778.4l637.9,0l0,-1.1l-637.9,0l0,1.1Z" />
<path fill-rule="evenodd" d="M703.4,778.4l1.1,0l0,-1.1l-1.1,0l0,1.1Z" />
<path fill-rule="evenodd" d="M704.5,778.4l85.7,0l0,-1.1l-85.7,0l0,1.1Z" />
<path fill-rule="evenodd" d="M790.2,778.4l1.1,0l0,-1.1l-1.1,0l0,1.1Z" />
<path fill-rule="evenodd" d="M791.3,778.4l85.4,0l0,-1.1l-85.4,0l0,1.1Z" />
<path fill-rule="evenodd" d="M876.7,778.4l1.1,0l0,-1.1l-1.1,0l0,1.1Z" />
<path fill-rule="evenodd" d="M15.8,803.5l1.1,0l0,-25.1l-1.1,0l0,25.1Z" />
<path fill-rule="evenodd" d="M64.3,803.5l1.2,0l0,-25.1l-1.2,0l0,25.1Z" />
<path fill-rule="evenodd" d="M703.4,803.5l1.1,0l0,-25.1l-1.1,0l0,25.1Z" />
<path fill-rule="evenodd" d="M790.2,803.5l1.1,0l0,-25.1l-1.1,0l0,25.1Z" />
<path fill-rule="evenodd" d="M876.7,803.5l1.1,0l0,-25.1l-1.1,0l0,25.1Z" />
<text x="32" y="818" dx="0,0,0" class="s5_1"
>11 </text>

<text x="70" y="826" dx="0,-0.1,0,0,0,0,-0.2,0,0,0,0,0,-0.1,0,0,0,0,0,0,0,0,-0.1,0,-0.1,0,0,0,-0.1,0,-0.1,0,0,0.2,0,0,0,-0.1,0,0,-0.1,0.1,0,0,-0.1,0,0,0.3,0,-0.1,0,0,0,0,0,0,0,0,0,-0.1,-0.1,0,0,0.3,-0.1,0,0,-0.1,0,0.1,0,0,0,0" class="s5_1"
>Außenwerbung: Großbanner Mindestbreite ca. 3 m vor der Halle mit BL-Logo </text>

<path fill-rule="evenodd" d="M15.8,804.6l1.1,0l0,-1.1l-1.1,0l0,1.1Z" />
<path fill-rule="evenodd" d="M16.9,804.6l47.4,0l0,-1.1l-47.4,0l0,1.1Z" />
<path fill-rule="evenodd" d="M64.3,804.6l1.2,0l0,-1.1l-1.2,0l0,1.1Z" />
<path fill-rule="evenodd" d="M65.5,804.6l637.9,0l0,-1.1l-637.9,0l0,1.1Z" />
<path fill-rule="evenodd" d="M703.4,804.6l1.1,0l0,-1.1l-1.1,0l0,1.1Z" />
<path fill-rule="evenodd" d="M704.5,804.6l85.7,0l0,-1.1l-85.7,0l0,1.1Z" />
<path fill-rule="evenodd" d="M790.2,804.6l1.1,0l0,-1.1l-1.1,0l0,1.1Z" />
<path fill-rule="evenodd" d="M791.3,804.6l85.4,0l0,-1.1l-85.4,0l0,1.1Z" />
<path fill-rule="evenodd" d="M876.7,804.6l1.1,0l0,-1.1l-1.1,0l0,1.1Z" />
<path fill-rule="evenodd" d="M15.8,829.7l1.1,0l0,-25.1l-1.1,0l0,25.1Z" />
<path fill-rule="evenodd" d="M64.3,829.7l1.2,0l0,-25.1l-1.2,0l0,25.1Z" />
<path fill-rule="evenodd" d="M703.4,829.7l1.1,0l0,-25.1l-1.1,0l0,25.1Z" />
<path fill-rule="evenodd" d="M790.2,829.7l1.1,0l0,-25.1l-1.1,0l0,25.1Z" />
<path fill-rule="evenodd" d="M876.7,829.7l1.1,0l0,-25.1l-1.1,0l0,25.1Z" />
<text x="32" y="844" dx="0,0,0" class="s5_1"
>12 </text>

<text x="70" y="852" dx="0,0.8,0,0,0,0,0,-0.1,0,-0.1,0,-0.1,0,0,0.3,-0.1,0,-0.1,0.2,0,-0.1,0.1" class="s5_1"
>Werbebanden umlaufend </text>

<path fill-rule="evenodd" d="M15.8,830.8l1.1,0l0,-1.1l-1.1,0l0,1.1Z" />
<path fill-rule="evenodd" d="M16.9,830.8l47.4,0l0,-1.1l-47.4,0l0,1.1Z" />
<path fill-rule="evenodd" d="M64.3,830.8l1.2,0l0,-1.1l-1.2,0l0,1.1Z" />
<path fill-rule="evenodd" d="M65.5,830.8l637.9,0l0,-1.1l-637.9,0l0,1.1Z" />
<path fill-rule="evenodd" d="M703.4,830.8l1.1,0l0,-1.1l-1.1,0l0,1.1Z" />
<path fill-rule="evenodd" d="M704.5,830.8l85.7,0l0,-1.1l-85.7,0l0,1.1Z" />
<path fill-rule="evenodd" d="M790.2,830.8l1.1,0l0,-1.1l-1.1,0l0,1.1Z" />
<path fill-rule="evenodd" d="M791.3,830.8l85.4,0l0,-1.1l-85.4,0l0,1.1Z" />
<path fill-rule="evenodd" d="M876.7,830.8l1.1,0l0,-1.1l-1.1,0l0,1.1Z" />
<path fill-rule="evenodd" d="M15.8,856l1.1,0l0,-25.2l-1.1,0l0,25.2Z" />
<path fill-rule="evenodd" d="M64.3,856l1.2,0l0,-25.2l-1.2,0l0,25.2Z" />
<path fill-rule="evenodd" d="M703.4,856l1.1,0l0,-25.2l-1.1,0l0,25.2Z" />
<path fill-rule="evenodd" d="M790.2,856l1.1,0l0,-25.2l-1.1,0l0,25.2Z" />
<path fill-rule="evenodd" d="M876.7,856l1.1,0l0,-25.2l-1.1,0l0,25.2Z" />
<text x="32" y="871" dx="0,0,0" class="s5_1"
>13 </text>

<text x="70" y="879" dx="0,0,0,0,0.3,0,-0.1,0,0,0,0,0,0,0.3,0.3,0,0,0,0,0,-0.2,0,0,0.2,0,-0.1,-0.3,0,0,0,0,0,-0.1,0,0,-0.1,0,-0.1,0,0,-0.1,-0.1,0,0,0,0,-0.1,0,0,-0.1,-0.1,0,-0.1,0,0,-0.1,0,-0.1,0,0,0,0,0,-0.1,0,0,0,0,0,0,0.4" class="s5_1"
>Rahmenprogramm (bspw. Tanzgruppe, Band, Präsentation anderer Sportart) </text>

<path fill-rule="evenodd" d="M15.8,857.1l1.1,0l0,-1.1l-1.1,0l0,1.1Z" />
<path fill-rule="evenodd" d="M16.9,857.1l47.4,0l0,-1.1l-47.4,0l0,1.1Z" />
<path fill-rule="evenodd" d="M64.3,857.1l1.2,0l0,-1.1l-1.2,0l0,1.1Z" />
<path fill-rule="evenodd" d="M65.5,857.1l637.9,0l0,-1.1L65.5,856l0,1.1Z" />
<path fill-rule="evenodd" d="M703.4,857.1l1.1,0l0,-1.1l-1.1,0l0,1.1Z" />
<path fill-rule="evenodd" d="M704.5,857.1l85.7,0l0,-1.1l-85.7,0l0,1.1Z" />
<path fill-rule="evenodd" d="M790.2,857.1l1.1,0l0,-1.1l-1.1,0l0,1.1Z" />
<path fill-rule="evenodd" d="M791.3,857.1l85.4,0l0,-1.1l-85.4,0l0,1.1Z" />
<path fill-rule="evenodd" d="M876.7,857.1l1.1,0l0,-1.1l-1.1,0l0,1.1Z" />
<path fill-rule="evenodd" d="M15.8,882.4l1.1,0l0,-25.3l-1.1,0l0,25.3Z" />
<path fill-rule="evenodd" d="M64.3,882.4l1.2,0l0,-25.3l-1.2,0l0,25.3Z" />
<path fill-rule="evenodd" d="M703.4,882.4l1.1,0l0,-25.3l-1.1,0l0,25.3Z" />
<path fill-rule="evenodd" d="M790.2,882.4l1.1,0l0,-25.3l-1.1,0l0,25.3Z" />
<path fill-rule="evenodd" d="M876.7,882.4l1.1,0l0,-25.3l-1.1,0l0,25.3Z" />
<text x="32" y="897" dx="0,0,0" class="s5_1"
>14 </text>

<text x="70" y="905" dx="0,-0.1,0,0,0.1,0,0,0.1,-0.1,0,-0.1,0,-0.1,-0.1,0,0,0,0,-0.1,0,-0.1,0,0,-0.1,-0.1,0,-0.1,0,0,0,-0.1,-0.1,0,0,0,-0.1,0,0,0,0.1,0,-0.1,0,0.3,0,-0.1,0,-0.1,0,-0.1,0,0,0,-0.4,0.3,0,-0.1,0,-0.1,0,-0.1,-0.1,0,-0.1,0,0.3" class="s5_1"
>Professioneller Bundesligatrailer vor jedem Spiel (Hymne + Video) </text>

<path fill-rule="evenodd" d="M15.8,883.5l1.1,0l0,-1.1l-1.1,0l0,1.1Z" />
<path fill-rule="evenodd" d="M16.9,883.5l47.4,0l0,-1.1l-47.4,0l0,1.1Z" />
<path fill-rule="evenodd" d="M64.3,883.5l1.2,0l0,-1.1l-1.2,0l0,1.1Z" />
<path fill-rule="evenodd" d="M65.5,883.5l637.9,0l0,-1.1l-637.9,0l0,1.1Z" />
<path fill-rule="evenodd" d="M703.4,883.5l1.1,0l0,-1.1l-1.1,0l0,1.1Z" />
<path fill-rule="evenodd" d="M704.5,883.5l85.7,0l0,-1.1l-85.7,0l0,1.1Z" />
<path fill-rule="evenodd" d="M790.2,883.5l1.1,0l0,-1.1l-1.1,0l0,1.1Z" />
<path fill-rule="evenodd" d="M791.3,883.5l85.4,0l0,-1.1l-85.4,0l0,1.1Z" />
<path fill-rule="evenodd" d="M876.7,883.5l1.1,0l0,-1.1l-1.1,0l0,1.1Z" />
<path fill-rule="evenodd" d="M15.8,908.6l1.1,0l0,-25.1l-1.1,0l0,25.1Z" />
<path fill-rule="evenodd" d="M64.3,908.6l1.2,0l0,-25.1l-1.2,0l0,25.1Z" />
<path fill-rule="evenodd" d="M703.4,908.6l1.1,0l0,-25.1l-1.1,0l0,25.1Z" />
<path fill-rule="evenodd" d="M790.2,908.6l1.1,0l0,-25.1l-1.1,0l0,25.1Z" />
<path fill-rule="evenodd" d="M876.7,908.6l1.1,0l0,-25.1l-1.1,0l0,25.1Z" />
<text x="32" y="923" dx="0,0,0" class="s5_1"
>15 </text>

<text x="70" y="931" dx="0,0,-0.1,-0.1,0,0,0,0,0,-0.1,0.3,0,0.3,-0.1,0,0,-0.1,-0.1,0,-0.1,-0.1,0,-0.1,0,-0.1,0,0,-0.1,0,0.1,0,0,0.1,0,0,-0.1,0,0.3,0,0,-0.1,0,-0.1,0,-0.1,0,0,0,0,0,-0.1,0,-0.1,0,-0.1,0,0,0,-0.1,0.3,0,-0.1,0,-0.1,0.1" class="s5_1"
>Livestream mit Einbindung auf der vom DBLV vorgegebenen Homepage </text>

<path fill-rule="evenodd" d="M15.8,909.7l1.1,0l0,-1.1l-1.1,0l0,1.1Z" />
<path fill-rule="evenodd" d="M16.9,909.7l47.4,0l0,-1.1l-47.4,0l0,1.1Z" />
<path fill-rule="evenodd" d="M64.3,909.7l1.2,0l0,-1.1l-1.2,0l0,1.1Z" />
<path fill-rule="evenodd" d="M65.5,909.7l637.9,0l0,-1.1l-637.9,0l0,1.1Z" />
<path fill-rule="evenodd" d="M703.4,909.7l1.1,0l0,-1.1l-1.1,0l0,1.1Z" />
<path fill-rule="evenodd" d="M704.5,909.7l85.7,0l0,-1.1l-85.7,0l0,1.1Z" />
<path fill-rule="evenodd" d="M790.2,909.7l1.1,0l0,-1.1l-1.1,0l0,1.1Z" />
<path fill-rule="evenodd" d="M791.3,909.7l85.4,0l0,-1.1l-85.4,0l0,1.1Z" />
<path fill-rule="evenodd" d="M876.7,909.7l1.1,0l0,-1.1l-1.1,0l0,1.1Z" />
<path fill-rule="evenodd" d="M15.8,934.8l1.1,0l0,-25.1l-1.1,0l0,25.1Z" />
<path fill-rule="evenodd" d="M64.3,934.8l1.2,0l0,-25.1l-1.2,0l0,25.1Z" />
<path fill-rule="evenodd" d="M703.4,934.8l1.1,0l0,-25.1l-1.1,0l0,25.1Z" />
<path fill-rule="evenodd" d="M790.2,934.8l1.1,0l0,-25.1l-1.1,0l0,25.1Z" />
<path fill-rule="evenodd" d="M876.7,934.8l1.1,0l0,-25.1l-1.1,0l0,25.1Z" />
<text x="32" y="950" dx="0,0,0" class="s5_1"
>16 </text>

<text x="70" y="957" dx="0,-0.1,-0.1,0,-0.1,0,-0.1,0,0,-0.1,0,0,0,0,-0.1,-0.1,0,-0.1,0.1,0,0,-0.1,0,-0.1,0,0,-0.1,0,0.1,0,0,-0.1,0.1,0,-0.1,0,-0.1,0.1,0,-0.1,0.1,0,0,-0.1,0,0,0.3,-0.1,0,0,-0.1,-0.1,0.1,0,0.2,-0.1,0,-0.1,0,-0.1,0,0,-0.1,0,0.1,0,0.2,0,-0.1,0.1,0.3,0.1,-0.1,0,-0.1,0.1" class="s5_1"
>Eingabe der Spielstände durch Schiedsrichter mittels kleiner PCs/Touch-Pads </text>

<path fill-rule="evenodd" d="M15.8,935.9l1.1,0l0,-1.1l-1.1,0l0,1.1Z" />
<path fill-rule="evenodd" d="M16.9,935.9l47.4,0l0,-1.1l-47.4,0l0,1.1Z" />
<path fill-rule="evenodd" d="M64.3,935.9l1.2,0l0,-1.1l-1.2,0l0,1.1Z" />
<path fill-rule="evenodd" d="M65.5,935.9l637.9,0l0,-1.1l-637.9,0l0,1.1Z" />
<path fill-rule="evenodd" d="M703.4,935.9l1.1,0l0,-1.1l-1.1,0l0,1.1Z" />
<path fill-rule="evenodd" d="M704.5,935.9l85.7,0l0,-1.1l-85.7,0l0,1.1Z" />
<path fill-rule="evenodd" d="M790.2,935.9l1.1,0l0,-1.1l-1.1,0l0,1.1Z" />
<path fill-rule="evenodd" d="M791.3,935.9l85.4,0l0,-1.1l-85.4,0l0,1.1Z" />
<path fill-rule="evenodd" d="M876.7,935.9l1.1,0l0,-1.1l-1.1,0l0,1.1Z" />
<path fill-rule="evenodd" d="M15.8,961l1.1,0l0,-25.1l-1.1,0l0,25.1Z" />
<path fill-rule="evenodd" d="M15.8,962.1l1.1,0l0,-1.1l-1.1,0l0,1.1Z" />
<path fill-rule="evenodd" d="M15.8,962.1l1.1,0l0,-1.1l-1.1,0l0,1.1Z" />
<path fill-rule="evenodd" d="M16.9,962.1l47.4,0l0,-1.1l-47.4,0l0,1.1Z" />
<path fill-rule="evenodd" d="M64.3,961l1.2,0l0,-25.1l-1.2,0l0,25.1Z" />
<path fill-rule="evenodd" d="M64.3,962.1l1.2,0l0,-1.1l-1.2,0l0,1.1Z" />
<path fill-rule="evenodd" d="M65.5,962.1l637.9,0l0,-1.1L65.5,961l0,1.1Z" />
<path fill-rule="evenodd" d="M703.4,961l1.1,0l0,-25.1l-1.1,0l0,25.1Z" />
<path fill-rule="evenodd" d="M703.4,962.1l1.1,0l0,-1.1l-1.1,0l0,1.1Z" />
<path fill-rule="evenodd" d="M704.5,962.1l85.7,0l0,-1.1l-85.7,0l0,1.1Z" />
<path fill-rule="evenodd" d="M790.2,961l1.1,0l0,-25.1l-1.1,0l0,25.1Z" />
<path fill-rule="evenodd" d="M790.2,962.1l1.1,0l0,-1.1l-1.1,0l0,1.1Z" />
<path fill-rule="evenodd" d="M791.3,962.1l85.4,0l0,-1.1l-85.4,0l0,1.1Z" />
<path fill-rule="evenodd" d="M876.7,961l1.1,0l0,-25.1l-1.1,0l0,25.1Z" />
<path fill-rule="evenodd" d="M876.7,962.1l1.1,0l0,-1.1l-1.1,0l0,1.1Z" />
<path fill-rule="evenodd" d="M876.7,962.1l1.1,0l0,-1.1l-1.1,0l0,1.1Z" />
<text x="21" y="1001" dx="0,0,0,0,0.1,0,0.1,0,0,0,0,0.1,0.1" class="s6_1"
>Bemerkungen: </text>

<path fill-rule="evenodd" d="M155.5,1005.2l677.6,0l0,-1.8l-677.6,0l0,1.8Z" />
<path fill-rule="evenodd" d="M21.6,1048.5l811.5,0l0,-1.9l-811.5,0l0,1.9Z" />
<path fill-rule="evenodd" d="M21.6,1091.7l811.5,0l0,-1.8l-811.5,0l0,1.8Z" />
<path fill-rule="evenodd" d="M21.6,1135l811.5,0l0,-1.8l-811.5,0l0,1.8Z" />
<path fill-rule="evenodd" d="M21.6,1181.2l811.5,0l0,-1.8l-811.5,0l0,1.8Z" />
<text x="21" y="1227" dx="0,-0.1,-0.1,0,0,0.1,0,0,-0.1,0.1,0.1,0,0.1,0,-0.1,-0.2,0.1,-0.1,0,0.1,0,-0.2,0,0.1,0,0.1,0" class="s1_1"
>Unterschriften: Heimverein </text>

<path fill-rule="evenodd" d="M302.8,1232.4l205.7,0l0,-2.2l-205.7,0l0,2.2Z" />
<text x="514" y="1227" dx="0,0,0,0,0,-0.2,0,0.1,0,0.1,-0.1" class="s1_1"
>Gastverein </text>

<path fill-rule="evenodd" d="M631.4,1232.4l201.7,0l0,-2.2l-201.7,0l0,2.2Z" />

<text x="150" y="105" style="font-size:14px;" id="es_svg_team0"></text>
<text x="420" y="105" style="font-size:14px;" id="es_svg_team1"></text>
<text x="750" y="105" style="font-size:14px;" id="es_svg_date"></text>

</svg>
