<svg x="0" y="0" width="909" height="1286" viewBox="0 0 909 1286" version="1.1" xmlns="http://www.w3.org/2000/svg">
<defs>

<style type="text/css">
text {
	font-family: Arial, Helvetica, sans-serif;
	fill: #000000;
}

.s1_1{
	font-size: 21.45px;
	font-weigh: bold;
}
.s2_1{
	font-size: 16.13px;
}
.s3_1{
	font-size: 13.75px;
	font-weight: bold;
}
.s4_1{
	font-size: 15.22px;
}
.s5_1{
	font-size: 18.33px;
	font-weight: bold;
}

</style>

</defs>
<path d="M0,0
L0,1286
L909,1286
L909,0 Z " fill="#FFFFFF" stroke="none" />
<text x="67" y="44" dx="0,0.3,0.1,-0.1,-0.1,0,0,0,0,-0.1,0,-0.1,0.1,-0.1,0,0.1,-0.1,-0.1,-0.1,0,-0.1,0.1,-0.1,-0.1,-0.1,-0.1,0,0,0,0.1,-0.1,0,0.1,0,-0.1,0.1,0,0,0,0,-0.1,-0.1,0.1,0,0,0,0.3,0,0,0,0.1,-0.1,0,0,0,-0.1,0.1,-0.1,-0.1,0,0.1,-0.6,-0.1,0.1,0,-0.1,0,0.1,0,0.2" class="s1_1"
>Mindestanforderungen Bundesliga ab Saison 2017-18 gemäß BLO Anlage VI </text>

<path fill-rule="evenodd" d="M38.5,22.7l1.1,0l0,-1.1l-1.1,0l0,1.1Z" />
<path fill-rule="evenodd" d="M38.5,22.7l1.1,0l0,-1.1l-1.1,0l0,1.1Z" />
<path fill-rule="evenodd" d="M39.6,22.7l839.5,0l0,-1.1l-839.5,0l0,1.1Z" />
<path fill-rule="evenodd" d="M879.1,22.7l1.1,0l0,-1.1l-1.1,0l0,1.1Z" />
<path fill-rule="evenodd" d="M879.1,22.7l1.1,0l0,-1.1l-1.1,0l0,1.1Z" />
<path fill-rule="evenodd" d="M38.5,52.1l1.1,0l0,-1.1l-1.1,0l0,1.1Z" />
<path fill-rule="evenodd" d="M38.5,52.1l1.1,0l0,-1.1l-1.1,0l0,1.1Z" />
<path fill-rule="evenodd" d="M39.6,52.1l839.5,0l0,-1.1L39.6,51l0,1.1Z" />
<path fill-rule="evenodd" d="M879.1,52.1l1.1,0l0,-1.1l-1.1,0l0,1.1Z" />
<path fill-rule="evenodd" d="M879.1,52.1l1.1,0l0,-1.1l-1.1,0l0,1.1Z" />
<path fill-rule="evenodd" d="M38.5,51l1.1,0l0,-28.3l-1.1,0l0,28.3Z" />
<path fill-rule="evenodd" d="M879.1,51l1.1,0l0,-28.3l-1.1,0l0,28.3Z" />
<text x="43" y="87" dx="0,-0.1,0,-0.1,0,-0.1,-0.1,-0.1,-0.1,-0.1,-0.1" class="s1_1"
>Begegnung: </text>

<path fill-rule="evenodd" d="M167.6,91.7l200.2,0l0,-2.2l-200.2,0l0,2.2Z" />
<text x="373" y="87" dx="0,-0.1,0,-0.1,0,-0.1" class="s1_1"
>gegen </text>

<path fill-rule="evenodd" d="M436.8,91.7l231.8,0l0,-2.2l-231.8,0l0,2.2Z" />
<text x="692" y="87" dx="0,-0.1,0,0,-0.1,0,-0.2,0,0,0,0,0,0,-0.1" class="s1_1"
>Datum:________</text>

<text x="43" y="121" dx="0,0.1,0.1,0,-0.1,0,0.1,0,0,-0.1,-0.2,0,0,-0.1,0.1,0,-0.1,-0.2,0,0,0,0,0,0,-0.1,-0.1,0,0.1,0,0,0,0,0,0,0,0.1,0,0,0,0,-0.1,0,0,0,0,0.1,0.1,0,-0.1,0,0.1" class="s2_1"
>Hinweise zur Nutzung der Mindestanforderungsliste: </text>

<text x="43" y="154" dx="0,0,0.1,0,0,0.1,-0.1,0,0,0,0.1,0,0,0,0,0,0,0,-0.1,0,0,0,0,0,0,0,0,0,0,0,-0.1,0,0,0,0.1,0,0,0,0,0,0,0,-0.1,0,0,0.1" class="s2_1"
>Liebe Schiedsrichterinnen und Schiedsrichter, </text>

<text x="43" y="186" dx="0,0,0.1,0,2.3,0.1,0,0.1,0,0,0,0.2,0,2.3,0,0.1,0,-0.1,0,2.3,0,0,0.1,0,0,0,0.1,-0.1,0,-0.1,2.3,0,0.1,0,2.5,0,0,0,0.1,0,0,0,0,0,0,0,-0.1,0,0,2.3,-0.2,0,2.3,0,0,0,0,0,-0.1,0,0.1,0,0,0,0,0,2.3,0,0.1,0,0,0,0,0,0,0,0.1,0,0,0,0,-0.1,0,0,0,0,0.2,2.3,0,0,0,2.1,0,0,-0.1,2.1,0,0,0.1,0,0,0,2.1,0.2,-0.1,2.1,0.1,0,0" class="s2_1"
>die folgende Liste beinhaltet die Schiedsrichter zu überprüfenden Mindestanforderungen der BLO Anlage VI für </text>

<text x="43" y="205" dx="0,0.7,0,-0.1,-0.1,0.2,0,0.1,0,0.1,0,7.1,0.1,0,7.1,0,0,0,7,0,-0.1,7.1,0,0,0,7.1,0,-0.1,7.1,0,0,0,0.1,0.1,0,-0.1,0,0.3,-0.1,0,0,0,0,0,0,0.1,0.1,0,0,-0.1,7.1,0.1,0.1,0,7.1,0,0.1,0,-0.1,0,6.9,0.1,0,-0.1,6.9,0,0,0,0,0,0,0.1,0.1,0,0,0.1,0.1,0,0,6.9,0,0,0,0,0,6.9,0,0.1,0,6.9,0,0.1,0,0,0,0,0,-0.1,-0.2,-0.1,0,0" class="s2_1"
>Wettkämpfe in der 1. und 2. Badminton-Bundesliga. Die Liste ist ausschließlich durch die eingesetzten </text>

<text x="43" y="224" dx="0,0,0,0,0.1,0,0,0,0,0,0,0,-0.1,0,0,1.9,-0.2,0,1.9,0,0,0,0,0,0,0.1,-0.1,0,0,1.9,0,0,0,2,0.1,0,-0.1,1.9,0,0,0.1,1.9,-0.1,0,0.1,0,0.1,0,0,0.4,-0.1,0,0,0.1,0,0.1,0,0,0,0,0,0,-0.1,1.9,0,0,0.1,1.9,0,0.1,0,0,0,0,0,0,0,0,2,0,0,1.9,0.3,0,0,1.9,0,0,0,0,0,0,0.1,0.1,0,0.1,-0.1,0,0,0.1,0,0.1,0.1,0,0.1,-0.1,0,0.1,1.9,0.1,0.1,-0.1" class="s2_1"
>Schiedsrichter zu bearbeiten und ist dem Original-Spielbericht bei Einsendung an den Bundesliga-Spielleiter mit </text>

<text x="43" y="242" dx="0,0,0,0,0.1,0,-0.1,0,0,-0.1,0,0,0,0,0,0,0,0,0,-0.1,-0.2,0,0,0,0,0,-0.1,0,0,0,-0.1,0,0.1,0,0,0.1,0,0,0,0,0,-0.1,0,0,0,0,0,0,0.1,0.1,-0.2,0,0,0,0,0,0,0,0,0.1,-0.2,0,0.1,0,0,0,0,0" class="s2_1"
>Kopie an den Vorsitzenden des AfBL durch den Heimverein beizufügen. </text>

<text x="43" y="261" dx="0,0,0.1,-0.1,0.6,0,0,0,0.6,0.1,0,-0.1,0,0,0,0,0,-0.1,0.1,0.1,-0.1,0.6,0,0,0,0,0,0,0.1,0,0.1,0,-0.1,0.6,0,0,0,0.6,0,0.1,0,0,0,0,0,-0.1,-0.2,-0.1,0,0.6,0,0,0,0,0,0.1,0,0,0,0,0.7,-0.1,0.1,0.1,0.1,-0.2,0.1,0,0.1,0.1,0,0.6,0.1,0,0,0.1,0,0.1,0.1,0,0,-0.1,0.6,0,0,0,0,0.7,0,0.1,0,0.6,0,0,0.1,0,0,0,0,-0.1,0,0,0,0,0,0.6,-0.2,0,0,0,0,0.8,0,0,0" class="s2_1"
>Mit der Unterschrift bescheinigt der eingesetzte Technische Offizielle lediglich, dass die Anforderungen vorhanden </text>

<text x="43" y="280" dx="0,0,-0.2,-0.1,-0.1,-0.1,0,0.1,0,0,-0.1,-0.1,-0.2,0,0,0,0,0,0,0,0,0,-0.1,0,0,0,0,-0.1" class="s2_1"
>bzw. nicht vorhanden waren. </text>

<text x="43" y="299" dx="0,0,0,0.1,0.1,-0.1,0.1,0,0.3,0,0.1,0,-0.2,0,0.1,0.1,0,0.3,0,0,0.1,0,0,0,0,-0.1,0,0,0,0,0,0.3,0,0.1,0,0,-0.1,0.3,0,0,0,0,0.1,0.1,-0.1,0.3,0,0,0.1,0,-0.1,0.3,0,0,0.3,0,0,0.1,0.4,0,0,0.3,0,0.1,0,0.3,0,0,0,0.1,0,0,0,0,0,0,0,-0.1,0,0,0.2,-0.2,0,0,0,0,0,0,-0.1,0.1,0,0,0,0.1,0,0,-0.1,0,0,0,0,0,0,0,0,0,0,0,0.1,0,0,0,0,0,0" class="s2_1"
>Sollten einzelne Anforderungen nicht erfüllt sein, so sollen die Schiedsrichter zunächst den entsprechenden Verein </text>

<text x="43" y="317" dx="0,0,0,0.1,-0.1,0,0,0,0,0,0,0,0,-0.1,0,0,-0.1,0,0.1,0,-0.1,0,0.1,0,0,0,-0.1,0,0,0,0,0,0,0,-0.1,0,0,0,0.1,0.1,0,0,0.2,0,0.1,-0.1,-0.1,-0.2,0,0,-0.1,0,0,0,-0.1,0,0.2,-0.1,0,0,-0.1,0,0,0,0,0,0.2" class="s2_1"
>auf den Verstoß hinweisen und die Möglichkeit zur Korrektur geben. </text>

<text x="43" y="336" dx="0,0,0,0.1,0.1,-0.1,0,1.9,0,0,1.9,0,0,0.1,0.1,1.9,0,0,0,0.1,0,0.1,0.1,0,0,1.8,0,0.1,0,0,0,0,1.7,0,0.1,0,-0.1,0,1.7,0,0,0,0,1.8,-0.2,0,1.7,0,0,0,0,0,0,1.8,0.2,0,0.1,0.1,0,0,-0.1,1.7,0,0,1.7,0.2,0,0,0,0,0,1.7,0,0.1,0,0,0,1.8,0.1,0.1,1.7,0.1,0,-0.1,0.1,0,0.1,0.1,1.7,0.8,0,0,1.7,0,0,0.1,0,0.1,0,0,1.9,0.1,0.1,-0.1,1.7,0,0,0.1" class="s2_1"
>Sollte es beim Ausfüllen dieser Liste doch zu Fragen kommen, so können diese im Notfall per Telefon mit dem </text>

<text x="43" y="355" dx="0,0,0,0,0,0,0,0.1,0.1,0,0.1,-0.1,0,0,0.1,0,0.1,0.1,0,0.1,-0.1,0,0,0.5,0,0,0,0,0,0.4,0,0,0,0,0,0,0,0.5,0,0,-0.1,0,0,0.4,0,0,0,0.4,0.1,0,0.1,0,0,0.1,0.1,0,0,0.5,0,0,0,0,0,-0.1,0,0,0,0,0,0,0.5,0,0,0,0,0.2,0,0,0.1,0.3,0,0,0,0,0,0,-0.2,0,0,0,0,0,0.3,0,0,0,0.3,0,0.1,0,0,0.3,0,0,0,0" class="s2_1"
>Bundesliga-Spielleiter Bernd Mohaupt unter der Rufnummer 05241-531760 oder dem Vorsitzenden des AfBL Arno </text>

<text x="43" y="373" dx="0,0,0,0,0.1,0,-0.2,-0.1,0,0,-0.1,0,0,-0.1,0,0,0,-0.1,0.1,0,0.1,0,0,0.1,0.1,0,0,-0.1,0,0,0,0,-0.1,0,0,0,0,0,0,0,0,-0.1,0,0,0,0,-0.1,0,0,0,0,0,-0.1,0,0,0,0,0,-0.1,0.2,0,0,0.1,0.1,0,0.1,0,-0.1,0.1,0,-0.1,0,0,0,0,-0.1,-0.1,0,0,-0.1,0,-0.1,-0.1,-0.1,0,0,0,0,0.1,-0.1" class="s2_1"
>Schley unter der Rufnummer 0176/52500972 oder 06821/53456 kurzfristig beantwortet werden. </text>

<text x="43" y="406" dx="0,0,0,0,-0.1,0,0,0,0,-0.1,0.1,0,-0.1,0,0,0,-0.1,0,-0.1,-0.2,0,0,0,0,0,0,0,-0.1,0,0,0,-0.1,0,0.1,0,0,0,0.1,-0.1,0,0.1,0,-0.1,0,0,0,-0.1,0,0.1,0,0,0,0,0,0,0,0.1,0,0,0,0,-0.1,0,0,0,0,0,-0.1,0,0,0,0.2,0,0.1,-0.1,0,0,0,0.1,-0.1,0,0,0,-0.1,0,0.1,0,0,-0.1,0,0,0,0,0,0,0,-0.1,0.1,0.1,0,0.1,0.8" class="s2_1"
>Für Eure Unterstützung bei der Einhaltung der Mindestanforderungen danken Euch der AfBL und das RfSR! </text>

<text x="47" y="449" dx="0,-0.1,0.1,0.1" class="s1_1"
>Nr. </text>

<text x="170" y="449" dx="0,0.3,0.1,-0.1,-0.1,0,0,0,0,-0.1,0,-0.1,0.1,-0.1,0,0.1,-0.1,-0.1,-0.1,0,-0.1,0.2,0,0.1,0,0,-0.1,0.1,0,-0.1,0,0.1,0.1,0,-0.1,0,0,0.2,0.1,0.1,0,0,0.1" class="s1_1"
>Mindestanforderungen - Schiedsrichterliste </text>

<text x="702" y="447" dx="0,-0.1,0,0,0,0.1,0,0.1,0,0.1" class="s3_1"
>vorhanden </text>

<text x="807" y="438" dx="0,0,0,0,0,0" class="s3_1"
>Nicht </text>

<text x="789" y="455" dx="0,-0.1,0,0,0,0.1,0,0.1,0,0.1" class="s3_1"
>vorhanden </text>

<path fill-rule="evenodd" d="M37.4,425.6l1.1,0l0,-1.1l-1.1,0l0,1.1Z" />
<path fill-rule="evenodd" d="M37.4,425.6l1.1,0l0,-1.1l-1.1,0l0,1.1Z" />
<path fill-rule="evenodd" d="M38.5,425.6l47.5,0l0,-1.1l-47.5,0l0,1.1Z" />
<path fill-rule="evenodd" d="M86,425.6l1.1,0l0,-1.1l-1.1,0l0,1.1Z" />
<path fill-rule="evenodd" d="M87.1,425.6l609.9,0l0,-1.1l-609.9,0l0,1.1Z" />
<path fill-rule="evenodd" d="M697,425.6l1.1,0l0,-1.1l-1.1,0l0,1.1Z" />
<path fill-rule="evenodd" d="M698.1,425.6l79.9,0l0,-1.1l-79.9,0l0,1.1Z" />
<path fill-rule="evenodd" d="M778,425.6l1.1,0l0,-1.1l-1.1,0l0,1.1Z" />
<path fill-rule="evenodd" d="M779.1,425.6l92.1,0l0,-1.1l-92.1,0l0,1.1Z" />
<path fill-rule="evenodd" d="M871.2,425.6l1.1,0l0,-1.1l-1.1,0l0,1.1Z" />
<path fill-rule="evenodd" d="M871.2,425.6l1.1,0l0,-1.1l-1.1,0l0,1.1Z" />
<path fill-rule="evenodd" d="M37.4,458.6l1.1,0l0,-33l-1.1,0l0,33Z" />
<path fill-rule="evenodd" d="M86,458.6l1.1,0l0,-33l-1.1,0l0,33Z" />
<path fill-rule="evenodd" d="M697,458.6l1.1,0l0,-33l-1.1,0l0,33Z" />
<path fill-rule="evenodd" d="M778,458.6l1.1,0l0,-33l-1.1,0l0,33Z" />
<path fill-rule="evenodd" d="M871.2,458.6l1.1,0l0,-33l-1.1,0l0,33Z" />
<text x="57" y="477" dx="0,0" class="s4_1"
>1 </text>

<text x="91" y="477" dx="0,0,-0.2,0,-0.1,0,-0.1,0,0,-0.1,0,-0.1,0,0,0.1,0,-0.1,0,-0.1,0,0,0.3,-0.1,0,0,0,0,-0.1,-0.3,0,0.1" class="s4_1"
>Zwei Standardfelder mit Netzen </text>

<path fill-rule="evenodd" d="M37.4,459.7l1.1,0l0,-1.1l-1.1,0l0,1.1Z" />
<path fill-rule="evenodd" d="M38.5,459.7l47.5,0l0,-1.1l-47.5,0l0,1.1Z" />
<path fill-rule="evenodd" d="M86,459.7l1.1,0l0,-1.1l-1.1,0l0,1.1Z" />
<path fill-rule="evenodd" d="M87.1,459.7l609.9,0l0,-1.1l-609.9,0l0,1.1Z" />
<path fill-rule="evenodd" d="M697,459.7l1.1,0l0,-1.1l-1.1,0l0,1.1Z" />
<path fill-rule="evenodd" d="M698.1,459.7l79.9,0l0,-1.1l-79.9,0l0,1.1Z" />
<path fill-rule="evenodd" d="M778,459.7l1.1,0l0,-1.1l-1.1,0l0,1.1Z" />
<path fill-rule="evenodd" d="M779.1,459.7l92.1,0l0,-1.1l-92.1,0l0,1.1Z" />
<path fill-rule="evenodd" d="M871.2,459.7l1.1,0l0,-1.1l-1.1,0l0,1.1Z" />
<path fill-rule="evenodd" d="M37.4,484.4l1.1,0l0,-24.7l-1.1,0l0,24.7Z" />
<path fill-rule="evenodd" d="M86,484.4l1.1,0l0,-24.7l-1.1,0l0,24.7Z" />
<path fill-rule="evenodd" d="M697,484.4l1.1,0l0,-24.7l-1.1,0l0,24.7Z" />
<path fill-rule="evenodd" d="M778,484.4l1.1,0l0,-24.7l-1.1,0l0,24.7Z" />
<path fill-rule="evenodd" d="M871.2,484.4l1.1,0l0,-24.7l-1.1,0l0,24.7Z" />
<text x="57" y="517" dx="0,0" class="s4_1"
>2 </text>

<text x="91" y="499" dx="0,0,-0.2,0,-0.1,0,0,-0.1,0,-0.1,0,-0.1,-0.1,0,-0.1,0,-0.1,0,0,0,0,-0.1,0,-0.1,0,-0.1,0,-0.1,0,0,0.1,0,0,0,-0.1,0,0,-0.1,0,-0.1,0,0,0,0,-0.3,0,0,-0.1,-0.1,0,-0.1,0,-0.1,0.2,0,-0.1,0,-0.1,0,0,0,-0.1,-0.1,0,0,0.1,0,0,-0.1,0,-0.1,0,-0.1,0,0,0.1,0,0.3,0,-0.1,-0.1,0.3,-0.1,0,-0.1" class="s4_1"
>Zwei nebeneinander liegende, farbig abgesetzte Spielfelder, die frei von Fremdlinien </text>

<text x="91" y="517" dx="0,0.1,-0.1,0,-0.1,0,0,-0.1,-0.1,0,0,0,0,0,0,-0.1,-0.1,0,-0.3,-0.2,0,-0.1,0,-0.1,0,-0.1,0,-0.1,0.2,0,-0.1,0,0.3,0,0,-0.1,0,-0.1,0,0,-0.1,-0.1,0,0,-0.1,0,0.3,0,0,-0.1,-0.1,0,-0.1,0.3,0,-0.1,0,-0.1,0,0,-0.1,0,0,-0.1,0,0,-0.1,0,0,0,0.2,0,0,0,-0.1,-0.1,0.3" class="s4_1"
>sind. Alternativ zwei Spielfeldmatten, die dem allgemeinen Stand der Technik </text>

<text x="91" y="534" dx="0,0,-0.1,0,0.1,0,0,0,0.1,0,-0.1,0,0,-0.1,0,-0.1,0,0,-0.1,0,-0.1,0,-0.1,-0.1,0,-0.1,0,-0.1,0,0,0,0,0,0,0,-0.1,-0.1,0,-0.1,0,0,0,-0.1,0,0.1" class="s4_1"
>entsprechen und nebeneinander ausgelegt sind </text>

<path fill-rule="evenodd" d="M37.4,485.5l1.1,0l0,-1.1l-1.1,0l0,1.1Z" />
<path fill-rule="evenodd" d="M38.5,485.5l47.5,0l0,-1.1l-47.5,0l0,1.1Z" />
<path fill-rule="evenodd" d="M86,485.5l1.1,0l0,-1.1l-1.1,0l0,1.1Z" />
<path fill-rule="evenodd" d="M87.1,485.5l609.9,0l0,-1.1l-609.9,0l0,1.1Z" />
<path fill-rule="evenodd" d="M697,485.5l1.1,0l0,-1.1l-1.1,0l0,1.1Z" />
<path fill-rule="evenodd" d="M698.1,485.5l79.9,0l0,-1.1l-79.9,0l0,1.1Z" />
<path fill-rule="evenodd" d="M778,485.5l1.1,0l0,-1.1l-1.1,0l0,1.1Z" />
<path fill-rule="evenodd" d="M779.1,485.5l92.1,0l0,-1.1l-92.1,0l0,1.1Z" />
<path fill-rule="evenodd" d="M871.2,485.5l1.1,0l0,-1.1l-1.1,0l0,1.1Z" />
<path fill-rule="evenodd" d="M37.4,537.8l1.1,0l0,-52.3l-1.1,0l0,52.3Z" />
<path fill-rule="evenodd" d="M86,537.8l1.1,0l0,-52.3l-1.1,0l0,52.3Z" />
<path fill-rule="evenodd" d="M697,537.8l1.1,0l0,-52.3l-1.1,0l0,52.3Z" />
<path fill-rule="evenodd" d="M778,537.8l1.1,0l0,-52.3l-1.1,0l0,52.3Z" />
<path fill-rule="evenodd" d="M871.2,537.8l1.1,0l0,-52.3l-1.1,0l0,52.3Z" />
<text x="57" y="556" dx="0,0" class="s4_1"
>3 </text>

<text x="91" y="556" dx="0,0,-0.2,0,-0.1,0,-0.1,0.1,0,-0.1,0,-0.1,0.1,0,-0.1,0.1,0,0,-0.1,0,0.1,0,0,-0.1,-0.1,0,0,0.3,-0.1,0,0,-0.1,0,0,-0.1,0,0,-0.1,0,0,-0.1,-0.1,0,-0.3,0,-0.1,0.1,-0.1,0,-0.1,0,0.2,0,0,-0.1,0,0,0,-0.1,0,-0.3,0,-0.1,0,-0.1,0,0.1,0,-0.1,0,0,-0.1,0.1,0,0,0,-0.1,0,-0.1,-0.1,0,0,-0.1,0" class="s4_1"
>Zwei Schiedsrichterstühle mit erhöhter Sitzposition (in Netzhöhe) und Schreibplatte </text>

<path fill-rule="evenodd" d="M37.4,538.9l1.1,0l0,-1.1l-1.1,0l0,1.1Z" />
<path fill-rule="evenodd" d="M38.5,538.9l47.5,0l0,-1.1l-47.5,0l0,1.1Z" />
<path fill-rule="evenodd" d="M86,538.9l1.1,0l0,-1.1l-1.1,0l0,1.1Z" />
<path fill-rule="evenodd" d="M87.1,538.9l609.9,0l0,-1.1l-609.9,0l0,1.1Z" />
<path fill-rule="evenodd" d="M697,538.9l1.1,0l0,-1.1l-1.1,0l0,1.1Z" />
<path fill-rule="evenodd" d="M698.1,538.9l79.9,0l0,-1.1l-79.9,0l0,1.1Z" />
<path fill-rule="evenodd" d="M778,538.9l1.1,0l0,-1.1l-1.1,0l0,1.1Z" />
<path fill-rule="evenodd" d="M779.1,538.9l92.1,0l0,-1.1l-92.1,0l0,1.1Z" />
<path fill-rule="evenodd" d="M871.2,538.9l1.1,0l0,-1.1l-1.1,0l0,1.1Z" />
<path fill-rule="evenodd" d="M37.4,563.6l1.1,0l0,-24.7l-1.1,0l0,24.7Z" />
<path fill-rule="evenodd" d="M86,563.6l1.1,0l0,-24.7l-1.1,0l0,24.7Z" />
<path fill-rule="evenodd" d="M697,563.6l1.1,0l0,-24.7l-1.1,0l0,24.7Z" />
<path fill-rule="evenodd" d="M778,563.6l1.1,0l0,-24.7l-1.1,0l0,24.7Z" />
<path fill-rule="evenodd" d="M871.2,563.6l1.1,0l0,-24.7l-1.1,0l0,24.7Z" />
<text x="53" y="582" dx="0,0,0" class="s4_1"
>4a </text>

<text x="91" y="582" dx="0,0,-0.1,0,-0.1,0,0,0,0,-0.1,0.1,0,0,-0.1,0,-0.1,0,0,-0.1,0,0.2,0,0,0,-0.1,-0.1,0.1,0.1,0,-0.1,0,-0.1,0,-0.1,0,0.1,0.1,0,0,-0.1,0,-0.1,0,-0.3,0,-0.1,0,-0.1,0,0,0,0,0,-0.1,0,-0.1,0,-0.1,0.2,0,-0.1,0" class="s4_1"
>Mindestens eine elektronische Spielstandanzeige pro Spielfeld </text>

<path fill-rule="evenodd" d="M37.4,564.7l1.1,0l0,-1.1l-1.1,0l0,1.1Z" />
<path fill-rule="evenodd" d="M38.5,564.7l47.5,0l0,-1.1l-47.5,0l0,1.1Z" />
<path fill-rule="evenodd" d="M86,564.7l1.1,0l0,-1.1l-1.1,0l0,1.1Z" />
<path fill-rule="evenodd" d="M87.1,564.7l609.9,0l0,-1.1l-609.9,0l0,1.1Z" />
<path fill-rule="evenodd" d="M697,564.7l1.1,0l0,-1.1l-1.1,0l0,1.1Z" />
<path fill-rule="evenodd" d="M698.1,564.7l79.9,0l0,-1.1l-79.9,0l0,1.1Z" />
<path fill-rule="evenodd" d="M778,564.7l1.1,0l0,-1.1l-1.1,0l0,1.1Z" />
<path fill-rule="evenodd" d="M779.1,564.7l92.1,0l0,-1.1l-92.1,0l0,1.1Z" />
<path fill-rule="evenodd" d="M871.2,564.7l1.1,0l0,-1.1l-1.1,0l0,1.1Z" />
<path fill-rule="evenodd" d="M37.4,589.5l1.1,0l0,-24.8l-1.1,0l0,24.8Z" />
<path fill-rule="evenodd" d="M86,589.5l1.1,0l0,-24.8l-1.1,0l0,24.8Z" />
<path fill-rule="evenodd" d="M697,589.5l1.1,0l0,-24.8l-1.1,0l0,24.8Z" />
<path fill-rule="evenodd" d="M778,589.5l1.1,0l0,-24.8l-1.1,0l0,24.8Z" />
<path fill-rule="evenodd" d="M871.2,589.5l1.1,0l0,-24.8l-1.1,0l0,24.8Z" />
<text x="53" y="613" dx="0,0,0" class="s4_1"
>4b </text>

<text x="91" y="604" dx="0,0,0,-0.1,0,0,0,-0.1,0,0,0,0,0,0,-0.1,-0.1,0,-0.3,0,0,-0.1,0,0,-0.1,-0.1,0,-0.1,0,-0.3,0,-0.1,0,0,0,-0.1,0,0,-0.1,0,-0.1,0,-0.1,0.1,0,0,-0.1,0,-0.1,0,-0.3,0,-0.1,0,-0.1,0,0,-0.1,-0.1,0,-0.1,0,0,-0.1,0,-0.1,0,-0.1,0.2,0,-0.1,0,-0.1,0,0,-0.1,-0.1,0,0,-0.1,0,-0.1,0.3,0,0.3,0,0,-0.1,-0.1,0" class="s4_1"
>oder alternativ zu 4a eine zentrale Spielstandanzeige beider Spielfelder via Beamer, die </text>

<text x="91" y="622" dx="0,-0.1,0,-0.1,0,0,-0.1,-0.1,0,-0.1,0,0,-0.1,0.1,0,-0.1,0,-0.1,0.1,0,-0.1,0.1,0,0,-0.1,0,0.1,0,0,-0.1,-0.1,0,-0.1,0,0.1,-0.1,0.1,0,0,-0.1,0,0,0,0,0.1,0.2" class="s4_1"
>von beiden Schiedsrichterstühlen sichtbar ist </text>

<path fill-rule="evenodd" d="M37.4,590.6l1.1,0l0,-1.1l-1.1,0l0,1.1Z" />
<path fill-rule="evenodd" d="M38.5,590.6l47.5,0l0,-1.1l-47.5,0l0,1.1Z" />
<path fill-rule="evenodd" d="M86,590.6l1.1,0l0,-1.1l-1.1,0l0,1.1Z" />
<path fill-rule="evenodd" d="M87.1,590.6l609.9,0l0,-1.1l-609.9,0l0,1.1Z" />
<path fill-rule="evenodd" d="M697,590.6l1.1,0l0,-1.1l-1.1,0l0,1.1Z" />
<path fill-rule="evenodd" d="M698.1,590.6l79.9,0l0,-1.1l-79.9,0l0,1.1Z" />
<path fill-rule="evenodd" d="M778,590.6l1.1,0l0,-1.1l-1.1,0l0,1.1Z" />
<path fill-rule="evenodd" d="M779.1,590.6l92.1,0l0,-1.1l-92.1,0l0,1.1Z" />
<path fill-rule="evenodd" d="M871.2,590.6l1.1,0l0,-1.1l-1.1,0l0,1.1Z" />
<path fill-rule="evenodd" d="M37.4,625.5l1.1,0l0,-34.9l-1.1,0l0,34.9Z" />
<path fill-rule="evenodd" d="M86,625.5l1.1,0l0,-34.9l-1.1,0l0,34.9Z" />
<path fill-rule="evenodd" d="M697,625.5l1.1,0l0,-34.9l-1.1,0l0,34.9Z" />
<path fill-rule="evenodd" d="M778,625.5l1.1,0l0,-34.9l-1.1,0l0,34.9Z" />
<path fill-rule="evenodd" d="M871.2,625.5l1.1,0l0,-34.9l-1.1,0l0,34.9Z" />
<text x="57" y="644" dx="0,0" class="s4_1"
>5 </text>

<text x="91" y="644" dx="0,-0.1,0,0,-0.1,-0.1,0,0,0.1,0,0,0,0,-0.1,0,-0.1,0,-0.1,0,-0.1,0.1,0,0,-0.1,0,0,0,0.1,0,-0.2,0,-0.1,0,0,-0.1,0,-0.2,0,0,0,-0.1,0,0.2" class="s4_1"
>Stühle für Linienrichter (soweit anwesend) </text>

<path fill-rule="evenodd" d="M37.4,626.6l1.1,0l0,-1.1l-1.1,0l0,1.1Z" />
<path fill-rule="evenodd" d="M38.5,626.6l47.5,0l0,-1.1l-47.5,0l0,1.1Z" />
<path fill-rule="evenodd" d="M86,626.6l1.1,0l0,-1.1l-1.1,0l0,1.1Z" />
<path fill-rule="evenodd" d="M87.1,626.6l609.9,0l0,-1.1l-609.9,0l0,1.1Z" />
<path fill-rule="evenodd" d="M697,626.6l1.1,0l0,-1.1l-1.1,0l0,1.1Z" />
<path fill-rule="evenodd" d="M698.1,626.6l79.9,0l0,-1.1l-79.9,0l0,1.1Z" />
<path fill-rule="evenodd" d="M778,626.6l1.1,0l0,-1.1l-1.1,0l0,1.1Z" />
<path fill-rule="evenodd" d="M779.1,626.6l92.1,0l0,-1.1l-92.1,0l0,1.1Z" />
<path fill-rule="evenodd" d="M871.2,626.6l1.1,0l0,-1.1l-1.1,0l0,1.1Z" />
<path fill-rule="evenodd" d="M37.4,651.3l1.1,0l0,-24.7l-1.1,0l0,24.7Z" />
<path fill-rule="evenodd" d="M86,651.3l1.1,0l0,-24.7l-1.1,0l0,24.7Z" />
<path fill-rule="evenodd" d="M697,651.3l1.1,0l0,-24.7l-1.1,0l0,24.7Z" />
<path fill-rule="evenodd" d="M778,651.3l1.1,0l0,-24.7l-1.1,0l0,24.7Z" />
<path fill-rule="evenodd" d="M871.2,651.3l1.1,0l0,-24.7l-1.1,0l0,24.7Z" />
<text x="57" y="670" dx="0,0" class="s4_1"
>6 </text>

<text x="91" y="670" dx="0,0,-0.2,0,-0.1,0,-0.1,0,0,-0.1,-0.1,0,0,0.1,0,0,0,0.2,0,0,-0.1,0,-0.1,0,0,0.1,0,0,-0.1,0,-0.1,0,-0.1,0.2,0,0.1,0,0,-0.1,0,-0.1,0,-0.1,0,-0.1,0,-0.1,0.2,0,-0.1,0,0,0,-0.1,0,0" class="s4_1"
>Zwei Stühle für Trainer je Spielfeld und Spielfeldseite </text>

<path fill-rule="evenodd" d="M37.4,652.4l1.1,0l0,-1.1l-1.1,0l0,1.1Z" />
<path fill-rule="evenodd" d="M38.5,652.4l47.5,0l0,-1.1l-47.5,0l0,1.1Z" />
<path fill-rule="evenodd" d="M86,652.4l1.1,0l0,-1.1l-1.1,0l0,1.1Z" />
<path fill-rule="evenodd" d="M87.1,652.4l609.9,0l0,-1.1l-609.9,0l0,1.1Z" />
<path fill-rule="evenodd" d="M697,652.4l1.1,0l0,-1.1l-1.1,0l0,1.1Z" />
<path fill-rule="evenodd" d="M698.1,652.4l79.9,0l0,-1.1l-79.9,0l0,1.1Z" />
<path fill-rule="evenodd" d="M778,652.4l1.1,0l0,-1.1l-1.1,0l0,1.1Z" />
<path fill-rule="evenodd" d="M779.1,652.4l92.1,0l0,-1.1l-92.1,0l0,1.1Z" />
<path fill-rule="evenodd" d="M871.2,652.4l1.1,0l0,-1.1l-1.1,0l0,1.1Z" />
<path fill-rule="evenodd" d="M37.4,677.7l1.1,0l0,-25.3l-1.1,0l0,25.3Z" />
<path fill-rule="evenodd" d="M86,677.7l1.1,0l0,-25.3l-1.1,0l0,25.3Z" />
<path fill-rule="evenodd" d="M697,677.7l1.1,0l0,-25.3l-1.1,0l0,25.3Z" />
<path fill-rule="evenodd" d="M778,677.7l1.1,0l0,-25.3l-1.1,0l0,25.3Z" />
<path fill-rule="evenodd" d="M871.2,677.7l1.1,0l0,-25.3l-1.1,0l0,25.3Z" />
<text x="57" y="701" dx="0,0" class="s4_1"
>7 </text>

<text x="91" y="692" dx="0,0,0,-0.1,0,-0.1,0,0,0.1,0,-0.1,0,0,0,0,0,-0.1,0,0,-0.1,-0.1,-0.1,0,0,-0.1,0,0,-0.1,0,0,0,0,-0.1,0.1,0,-0.1,0,-0.1,0,0,0,0,-0.1,-0.3,0,-0.1,-0.1,0,0.1,0,-0.2,-0.1,0,0,0,0,0,0,-0.1,0.2,0.2,0,0,-0.1,0.2,0,0,-0.1,0,0,-0.1,0.2,0.2,-0.1,-0.3,-0.1,0,-0.1,-0.1,0,0" class="s4_1"
>Zugelassene Federbälle in ausreichender Anzahl sowie Zugriff auf ein offizielles </text>

<text x="91" y="710" dx="0,-0.1,0,0,-0.2,0,-0.1,0.1,0,-0.1,-0.1,0.1,0,0,-0.1,0,0,-0.3,0,-0.1,0,-0.1,0,0,0.1,0,-0.1,0,-0.1,0,0,0,0,0,0,0,0,-0.1,-0.1,0.1" class="s4_1"
>Verzeichnis der zugelassenen Federbälle </text>

<path fill-rule="evenodd" d="M37.4,678.8l1.1,0l0,-1.1l-1.1,0l0,1.1Z" />
<path fill-rule="evenodd" d="M38.5,678.8l47.5,0l0,-1.1l-47.5,0l0,1.1Z" />
<path fill-rule="evenodd" d="M86,678.8l1.1,0l0,-1.1l-1.1,0l0,1.1Z" />
<path fill-rule="evenodd" d="M87.1,678.8l609.9,0l0,-1.1l-609.9,0l0,1.1Z" />
<path fill-rule="evenodd" d="M697,678.8l1.1,0l0,-1.1l-1.1,0l0,1.1Z" />
<path fill-rule="evenodd" d="M698.1,678.8l79.9,0l0,-1.1l-79.9,0l0,1.1Z" />
<path fill-rule="evenodd" d="M778,678.8l1.1,0l0,-1.1l-1.1,0l0,1.1Z" />
<path fill-rule="evenodd" d="M779.1,678.8l92.1,0l0,-1.1l-92.1,0l0,1.1Z" />
<path fill-rule="evenodd" d="M871.2,678.8l1.1,0l0,-1.1l-1.1,0l0,1.1Z" />
<path fill-rule="evenodd" d="M37.4,713.6l1.1,0l0,-34.8l-1.1,0l0,34.8Z" />
<path fill-rule="evenodd" d="M86,713.6l1.1,0l0,-34.8l-1.1,0l0,34.8Z" />
<path fill-rule="evenodd" d="M697,713.6l1.1,0l0,-34.8l-1.1,0l0,34.8Z" />
<path fill-rule="evenodd" d="M778,713.6l1.1,0l0,-34.8l-1.1,0l0,34.8Z" />
<path fill-rule="evenodd" d="M871.2,713.6l1.1,0l0,-34.8l-1.1,0l0,34.8Z" />
<text x="57" y="732" dx="0,0" class="s4_1"
>8 </text>

<text x="91" y="732" dx="0,-0.1,0,0.1,0,-0.1,0,0,-0.1,-0.1,0,0.1,0,-0.1,0,0,-0.1,0.1,0,0,0.1,0,0,0,0,0,-0.1,0,-0.1,0,0,-0.1,0,-0.1,0.1,0.1,0,-0.1,0.2,0,0,-0.1,0,0.3,-0.1,0,0,-0.1,0,0,-0.1,-0.1,0,0.2" class="s4_1"
>Aufenthaltsbereich für beide Mannschaften mit Stühlen </text>

<path fill-rule="evenodd" d="M37.4,714.7l1.1,0l0,-1.1l-1.1,0l0,1.1Z" />
<path fill-rule="evenodd" d="M38.5,714.7l47.5,0l0,-1.1l-47.5,0l0,1.1Z" />
<path fill-rule="evenodd" d="M86,714.7l1.1,0l0,-1.1l-1.1,0l0,1.1Z" />
<path fill-rule="evenodd" d="M87.1,714.7l609.9,0l0,-1.1l-609.9,0l0,1.1Z" />
<path fill-rule="evenodd" d="M697,714.7l1.1,0l0,-1.1l-1.1,0l0,1.1Z" />
<path fill-rule="evenodd" d="M698.1,714.7l79.9,0l0,-1.1l-79.9,0l0,1.1Z" />
<path fill-rule="evenodd" d="M778,714.7l1.1,0l0,-1.1l-1.1,0l0,1.1Z" />
<path fill-rule="evenodd" d="M779.1,714.7l92.1,0l0,-1.1l-92.1,0l0,1.1Z" />
<path fill-rule="evenodd" d="M871.2,714.7l1.1,0l0,-1.1l-1.1,0l0,1.1Z" />
<path fill-rule="evenodd" d="M37.4,739.5l1.1,0l0,-24.8l-1.1,0l0,24.8Z" />
<path fill-rule="evenodd" d="M86,739.5l1.1,0l0,-24.8l-1.1,0l0,24.8Z" />
<path fill-rule="evenodd" d="M697,739.5l1.1,0l0,-24.8l-1.1,0l0,24.8Z" />
<path fill-rule="evenodd" d="M778,739.5l1.1,0l0,-24.8l-1.1,0l0,24.8Z" />
<path fill-rule="evenodd" d="M871.2,739.5l1.1,0l0,-24.8l-1.1,0l0,24.8Z" />
<text x="57" y="758" dx="0,0" class="s4_1"
>9 </text>

<text x="91" y="758" dx="0,-0.1,0,0,0.1,0,-0.1,-0.1,-0.1,0,-0.1,0,0,0,-0.1,-0.1,0,-0.1,0" class="s4_1"
>Beschallungsanlage </text>

<path fill-rule="evenodd" d="M37.4,740.6l1.1,0l0,-1.1l-1.1,0l0,1.1Z" />
<path fill-rule="evenodd" d="M38.5,740.6l47.5,0l0,-1.1l-47.5,0l0,1.1Z" />
<path fill-rule="evenodd" d="M86,740.6l1.1,0l0,-1.1l-1.1,0l0,1.1Z" />
<path fill-rule="evenodd" d="M87.1,740.6l609.9,0l0,-1.1l-609.9,0l0,1.1Z" />
<path fill-rule="evenodd" d="M697,740.6l1.1,0l0,-1.1l-1.1,0l0,1.1Z" />
<path fill-rule="evenodd" d="M698.1,740.6l79.9,0l0,-1.1l-79.9,0l0,1.1Z" />
<path fill-rule="evenodd" d="M778,740.6l1.1,0l0,-1.1l-1.1,0l0,1.1Z" />
<path fill-rule="evenodd" d="M779.1,740.6l92.1,0l0,-1.1l-92.1,0l0,1.1Z" />
<path fill-rule="evenodd" d="M871.2,740.6l1.1,0l0,-1.1l-1.1,0l0,1.1Z" />
<path fill-rule="evenodd" d="M37.4,765.3l1.1,0l0,-24.7l-1.1,0l0,24.7Z" />
<path fill-rule="evenodd" d="M86,765.3l1.1,0l0,-24.7l-1.1,0l0,24.7Z" />
<path fill-rule="evenodd" d="M697,765.3l1.1,0l0,-24.7l-1.1,0l0,24.7Z" />
<path fill-rule="evenodd" d="M778,765.3l1.1,0l0,-24.7l-1.1,0l0,24.7Z" />
<path fill-rule="evenodd" d="M871.2,765.3l1.1,0l0,-24.7l-1.1,0l0,24.7Z" />
<text x="53" y="784" dx="0,0,0" class="s4_1"
>10 </text>

<text x="91" y="784" dx="0,-0.1,0,0,-0.1,0,-0.1,-0.1,0.1,0,-0.1,-0.3,0,-0.1,0,-0.1,0,0,-0.1,0,0,0.3,0,0,0,0,0,-0.1,0,0,0,0,-0.1,0,0.1,0.1,0,0,-0.1,0.1" class="s4_1"
>Ergebnisanzeige: Beamer oder Flatscreen </text>

<path fill-rule="evenodd" d="M37.4,766.4l1.1,0l0,-1.1l-1.1,0l0,1.1Z" />
<path fill-rule="evenodd" d="M38.5,766.4l47.5,0l0,-1.1l-47.5,0l0,1.1Z" />
<path fill-rule="evenodd" d="M86,766.4l1.1,0l0,-1.1l-1.1,0l0,1.1Z" />
<path fill-rule="evenodd" d="M87.1,766.4l609.9,0l0,-1.1l-609.9,0l0,1.1Z" />
<path fill-rule="evenodd" d="M697,766.4l1.1,0l0,-1.1l-1.1,0l0,1.1Z" />
<path fill-rule="evenodd" d="M698.1,766.4l79.9,0l0,-1.1l-79.9,0l0,1.1Z" />
<path fill-rule="evenodd" d="M778,766.4l1.1,0l0,-1.1l-1.1,0l0,1.1Z" />
<path fill-rule="evenodd" d="M779.1,766.4l92.1,0l0,-1.1l-92.1,0l0,1.1Z" />
<path fill-rule="evenodd" d="M871.2,766.4l1.1,0l0,-1.1l-1.1,0l0,1.1Z" />
<path fill-rule="evenodd" d="M37.4,791.7l1.1,0l0,-25.3l-1.1,0l0,25.3Z" />
<path fill-rule="evenodd" d="M86,791.7l1.1,0l0,-25.3l-1.1,0l0,25.3Z" />
<path fill-rule="evenodd" d="M697,791.7l1.1,0l0,-25.3l-1.1,0l0,25.3Z" />
<path fill-rule="evenodd" d="M778,791.7l1.1,0l0,-25.3l-1.1,0l0,25.3Z" />
<path fill-rule="evenodd" d="M871.2,791.7l1.1,0l0,-25.3l-1.1,0l0,25.3Z" />
<text x="53" y="810" dx="0,0,0" class="s4_1"
>11 </text>

<text x="91" y="810" dx="0,0.2,-0.1,0.1,0.1,0,0,0.3,-0.1,0,0,-0.1,0,0,-0.1,-0.1,0,-0.1,0,0.1,0,0,0,0,0,0,-0.1,0,-0.1,0.1,0,-0.1,0.1,0,0,-0.1,0,0,0,0,0,0,-0.1,0,-0.1,0.1,0,0,-0.1,0,-0.1,0,0,0,0,-0.1,0,0,0,0,-0.1,0,-0.1,0,0,-0.1,0,0,0.2,0,0,0,-0.1,-0.1,0.6" class="s4_1"
>Tisch mit Stühlen für Schiedsrichter, Organisation, Moderation und Technik </text>

<path fill-rule="evenodd" d="M37.4,792.8l1.1,0l0,-1.1l-1.1,0l0,1.1Z" />
<path fill-rule="evenodd" d="M38.5,792.8l47.5,0l0,-1.1l-47.5,0l0,1.1Z" />
<path fill-rule="evenodd" d="M86,792.8l1.1,0l0,-1.1l-1.1,0l0,1.1Z" />
<path fill-rule="evenodd" d="M87.1,792.8l609.9,0l0,-1.1l-609.9,0l0,1.1Z" />
<path fill-rule="evenodd" d="M697,792.8l1.1,0l0,-1.1l-1.1,0l0,1.1Z" />
<path fill-rule="evenodd" d="M698.1,792.8l79.9,0l0,-1.1l-79.9,0l0,1.1Z" />
<path fill-rule="evenodd" d="M778,792.8l1.1,0l0,-1.1l-1.1,0l0,1.1Z" />
<path fill-rule="evenodd" d="M779.1,792.8l92.1,0l0,-1.1l-92.1,0l0,1.1Z" />
<path fill-rule="evenodd" d="M871.2,792.8l1.1,0l0,-1.1l-1.1,0l0,1.1Z" />
<path fill-rule="evenodd" d="M37.4,817.6l1.1,0l0,-24.8l-1.1,0l0,24.8Z" />
<path fill-rule="evenodd" d="M86,817.6l1.1,0l0,-24.8l-1.1,0l0,24.8Z" />
<path fill-rule="evenodd" d="M697,817.6l1.1,0l0,-24.8l-1.1,0l0,24.8Z" />
<path fill-rule="evenodd" d="M778,817.6l1.1,0l0,-24.8l-1.1,0l0,24.8Z" />
<path fill-rule="evenodd" d="M871.2,817.6l1.1,0l0,-24.8l-1.1,0l0,24.8Z" />
<text x="53" y="841" dx="0,0,0" class="s4_1"
>12 </text>

<text x="91" y="832" dx="0,-0.1,0,0,0.3,-0.1,0,0,0,-0.1,0,0,0,0,0,0,-0.3,0,-0.1,0,-0.1,0,0,-0.1,0,0.1,0,0,0.3,0,0,0,0.2,0,0,0,0,-0.1,-0.1,0,-0.1,0,-0.1,0,-0.1,0.1,0,0,-0.1,0,0,-0.1,0,-0.1,0.1,0.1,0,-0.1,0.2,0,0.1,0,-0.1,0.2,0.1,0,0,-0.1,-0.1,0,-0.1,0,0" class="s4_1"
>PC mit Internetzugang, Drucker für Spielbericht, Mannschaftsaufstellung, </text>

<text x="91" y="850" dx="0,-0.1,0.1,0,-0.1,0,-0.1,0.1,0,-0.1,0.1,0,0,-0.1,0,-0.3,0,0,-0.1,0,-0.1,0,0.3,-0.1,0,0,-0.1,0.1,0.1,0,0,0,0,0,0,0,0,0.1,0,0.2,0,0,-0.1,0,0" class="s4_1"
>Schiedsrichterzettel mit BL-Logo oder Tablet </text>

<path fill-rule="evenodd" d="M37.4,818.7l1.1,0l0,-1.1l-1.1,0l0,1.1Z" />
<path fill-rule="evenodd" d="M38.5,818.7l47.5,0l0,-1.1l-47.5,0l0,1.1Z" />
<path fill-rule="evenodd" d="M86,818.7l1.1,0l0,-1.1l-1.1,0l0,1.1Z" />
<path fill-rule="evenodd" d="M87.1,818.7l609.9,0l0,-1.1l-609.9,0l0,1.1Z" />
<path fill-rule="evenodd" d="M697,818.7l1.1,0l0,-1.1l-1.1,0l0,1.1Z" />
<path fill-rule="evenodd" d="M698.1,818.7l79.9,0l0,-1.1l-79.9,0l0,1.1Z" />
<path fill-rule="evenodd" d="M778,818.7l1.1,0l0,-1.1l-1.1,0l0,1.1Z" />
<path fill-rule="evenodd" d="M779.1,818.7l92.1,0l0,-1.1l-92.1,0l0,1.1Z" />
<path fill-rule="evenodd" d="M871.2,818.7l1.1,0l0,-1.1l-1.1,0l0,1.1Z" />
<path fill-rule="evenodd" d="M37.4,853.6l1.1,0l0,-34.9l-1.1,0l0,34.9Z" />
<path fill-rule="evenodd" d="M86,853.6l1.1,0l0,-34.9l-1.1,0l0,34.9Z" />
<path fill-rule="evenodd" d="M697,853.6l1.1,0l0,-34.9l-1.1,0l0,34.9Z" />
<path fill-rule="evenodd" d="M778,853.6l1.1,0l0,-34.9l-1.1,0l0,34.9Z" />
<path fill-rule="evenodd" d="M871.2,853.6l1.1,0l0,-34.9l-1.1,0l0,34.9Z" />
<text x="53" y="872" dx="0,0,0" class="s4_1"
>13 </text>

<text x="91" y="872" dx="0,-0.1,-0.1,0,0,0.8,0,0,0,0,0,0,-0.1,0,0,0,0,0,0,0,0,-0.1,0,-0.1,0,0,0.2,0,-0.1,0,0,0.3,-0.1,0,0,-0.1,0,0.1,0,0,0,0" class="s4_1"
>Ein Werbereiter pro Spielfeld mit BL-Logo </text>

<path fill-rule="evenodd" d="M37.4,854.7l1.1,0l0,-1.1l-1.1,0l0,1.1Z" />
<path fill-rule="evenodd" d="M38.5,854.7l47.5,0l0,-1.1l-47.5,0l0,1.1Z" />
<path fill-rule="evenodd" d="M86,854.7l1.1,0l0,-1.1l-1.1,0l0,1.1Z" />
<path fill-rule="evenodd" d="M87.1,854.7l609.9,0l0,-1.1l-609.9,0l0,1.1Z" />
<path fill-rule="evenodd" d="M697,854.7l1.1,0l0,-1.1l-1.1,0l0,1.1Z" />
<path fill-rule="evenodd" d="M698.1,854.7l79.9,0l0,-1.1l-79.9,0l0,1.1Z" />
<path fill-rule="evenodd" d="M778,854.7l1.1,0l0,-1.1l-1.1,0l0,1.1Z" />
<path fill-rule="evenodd" d="M779.1,854.7l92.1,0l0,-1.1l-92.1,0l0,1.1Z" />
<path fill-rule="evenodd" d="M871.2,854.7l1.1,0l0,-1.1l-1.1,0l0,1.1Z" />
<path fill-rule="evenodd" d="M37.4,879.4l1.1,0l0,-24.7l-1.1,0l0,24.7Z" />
<path fill-rule="evenodd" d="M86,879.4l1.1,0l0,-24.7l-1.1,0l0,24.7Z" />
<path fill-rule="evenodd" d="M697,879.4l1.1,0l0,-24.7l-1.1,0l0,24.7Z" />
<path fill-rule="evenodd" d="M778,879.4l1.1,0l0,-24.7l-1.1,0l0,24.7Z" />
<path fill-rule="evenodd" d="M871.2,879.4l1.1,0l0,-24.7l-1.1,0l0,24.7Z" />
<text x="53" y="898" dx="0,0,0" class="s4_1"
>14 </text>

<text x="91" y="898" dx="0,-0.1,0,-0.1,0,-0.1,0,-0.1,0,-0.1,0,-0.1,0,0,-0.1,0.1,0.1,0,0,0.1,0,0,0,0,-0.1,-0.1,0,-0.1,0,0,0,0,0.1,0.1,0,-0.1,0,0,-0.1,0,-0.1,0,0.1,0,0,0,0,0,-0.1,0,0,-0.3,0,0,-0.1,-0.1,0,-0.1,-0.1,0.2" class="s4_1"
>Ablagebehältnisse für Spielertaschen und für benutzte Bälle </text>

<path fill-rule="evenodd" d="M37.4,880.5l1.1,0l0,-1.1l-1.1,0l0,1.1Z" />
<path fill-rule="evenodd" d="M38.5,880.5l47.5,0l0,-1.1l-47.5,0l0,1.1Z" />
<path fill-rule="evenodd" d="M86,880.5l1.1,0l0,-1.1l-1.1,0l0,1.1Z" />
<path fill-rule="evenodd" d="M87.1,880.5l609.9,0l0,-1.1l-609.9,0l0,1.1Z" />
<path fill-rule="evenodd" d="M697,880.5l1.1,0l0,-1.1l-1.1,0l0,1.1Z" />
<path fill-rule="evenodd" d="M698.1,880.5l79.9,0l0,-1.1l-79.9,0l0,1.1Z" />
<path fill-rule="evenodd" d="M778,880.5l1.1,0l0,-1.1l-1.1,0l0,1.1Z" />
<path fill-rule="evenodd" d="M779.1,880.5l92.1,0l0,-1.1l-92.1,0l0,1.1Z" />
<path fill-rule="evenodd" d="M871.2,880.5l1.1,0l0,-1.1l-1.1,0l0,1.1Z" />
<path fill-rule="evenodd" d="M37.4,905.8l1.1,0l0,-25.3l-1.1,0l0,25.3Z" />
<path fill-rule="evenodd" d="M86,905.8l1.1,0l0,-25.3l-1.1,0l0,25.3Z" />
<path fill-rule="evenodd" d="M697,905.8l1.1,0l0,-25.3l-1.1,0l0,25.3Z" />
<path fill-rule="evenodd" d="M778,905.8l1.1,0l0,-25.3l-1.1,0l0,25.3Z" />
<path fill-rule="evenodd" d="M871.2,905.8l1.1,0l0,-25.3l-1.1,0l0,25.3Z" />
<text x="53" y="924" dx="0,0,0" class="s4_1"
>15 </text>

<text x="91" y="924" dx="0,0,0,-0.1,-0.1,0,-0.1,0.1,0,0,0,0.1,0,-0.1,0,0,-0.1,0,-0.1,0,0,0,0,0,-0.1,0,0,-0.1,0,0,0,0,-0.1,0,0,-0.1,-0.1,0,-0.1,0,0,-0.1,0,0,0.1,0,0,-0.1,-0.1,0,-0.1,0,0,-0.1,0,-0.1,0,-0.1,0,0,0,0,-0.1,0.1,0,-0.1,0,-0.1,0.1,0,-0.1,0.1,0,0,-0.1,0.4" class="s4_1"
>Hallensprecher Begrüßung, Präsentation, Vorstellung Spieler, Schiedsrichter </text>

<path fill-rule="evenodd" d="M37.4,906.9l1.1,0l0,-1.1l-1.1,0l0,1.1Z" />
<path fill-rule="evenodd" d="M38.5,906.9l47.5,0l0,-1.1l-47.5,0l0,1.1Z" />
<path fill-rule="evenodd" d="M86,906.9l1.1,0l0,-1.1l-1.1,0l0,1.1Z" />
<path fill-rule="evenodd" d="M87.1,906.9l609.9,0l0,-1.1l-609.9,0l0,1.1Z" />
<path fill-rule="evenodd" d="M697,906.9l1.1,0l0,-1.1l-1.1,0l0,1.1Z" />
<path fill-rule="evenodd" d="M698.1,906.9l79.9,0l0,-1.1l-79.9,0l0,1.1Z" />
<path fill-rule="evenodd" d="M778,906.9l1.1,0l0,-1.1l-1.1,0l0,1.1Z" />
<path fill-rule="evenodd" d="M779.1,906.9l92.1,0l0,-1.1l-92.1,0l0,1.1Z" />
<path fill-rule="evenodd" d="M871.2,906.9l1.1,0l0,-1.1l-1.1,0l0,1.1Z" />
<path fill-rule="evenodd" d="M37.4,931.7l1.1,0l0,-24.8l-1.1,0l0,24.8Z" />
<path fill-rule="evenodd" d="M86,931.7l1.1,0l0,-24.8l-1.1,0l0,24.8Z" />
<path fill-rule="evenodd" d="M697,931.7l1.1,0l0,-24.8l-1.1,0l0,24.8Z" />
<path fill-rule="evenodd" d="M778,931.7l1.1,0l0,-24.8l-1.1,0l0,24.8Z" />
<path fill-rule="evenodd" d="M871.2,931.7l1.1,0l0,-24.8l-1.1,0l0,24.8Z" />
<text x="53" y="955" dx="0,0,0" class="s4_1"
>16 </text>

<text x="91" y="946" dx="0,0,0,0,-0.1,0.1,0.1,0,-0.1,0.2,0,0,-0.1,0,-0.1,0,0,-0.1,-0.1,0,-0.1,0,-0.1,0,-0.1,-0.1,0.1,0,-0.1,0,0,-0.1,0,0.2,-0.1,0,-0.1,0,-0.1,0,-0.1,0,0,-0.1,-0.1,0,0.2,0,-0.1,0.3,0,0,0,0,0,0.3,-0.1,0,0,-0.1,0.3,0.1,0,-0.1,0,-0.1,0,0,0,0,0,0,0,-0.1,0,0,0,0,0,0.3,0,-0.1,0,0,-0.1,0.1" class="s4_1"
>Mannschaften in einheitlicher Bekleidung bei Trikots (mit BL-Logo), Hosen, Röcken und </text>

<text x="91" y="964" dx="0,0.2,0,0,-0.1,0,-0.1,0,-0.1,0.1,0,-0.1,-0.3,0,-0.1,0,0" class="s4_1"
>Trainingsanzügen </text>

<path fill-rule="evenodd" d="M37.4,932.8l1.1,0l0,-1.1l-1.1,0l0,1.1Z" />
<path fill-rule="evenodd" d="M38.5,932.8l47.5,0l0,-1.1l-47.5,0l0,1.1Z" />
<path fill-rule="evenodd" d="M86,932.8l1.1,0l0,-1.1l-1.1,0l0,1.1Z" />
<path fill-rule="evenodd" d="M87.1,932.8l609.9,0l0,-1.1l-609.9,0l0,1.1Z" />
<path fill-rule="evenodd" d="M697,932.8l1.1,0l0,-1.1l-1.1,0l0,1.1Z" />
<path fill-rule="evenodd" d="M698.1,932.8l79.9,0l0,-1.1l-79.9,0l0,1.1Z" />
<path fill-rule="evenodd" d="M778,932.8l1.1,0l0,-1.1l-1.1,0l0,1.1Z" />
<path fill-rule="evenodd" d="M779.1,932.8l92.1,0l0,-1.1l-92.1,0l0,1.1Z" />
<path fill-rule="evenodd" d="M871.2,932.8l1.1,0l0,-1.1l-1.1,0l0,1.1Z" />
<path fill-rule="evenodd" d="M37.4,967.6l1.1,0l0,-34.8l-1.1,0l0,34.8Z" />
<path fill-rule="evenodd" d="M86,967.6l1.1,0l0,-34.8l-1.1,0l0,34.8Z" />
<path fill-rule="evenodd" d="M697,967.6l1.1,0l0,-34.8l-1.1,0l0,34.8Z" />
<path fill-rule="evenodd" d="M778,967.6l1.1,0l0,-34.8l-1.1,0l0,34.8Z" />
<path fill-rule="evenodd" d="M871.2,967.6l1.1,0l0,-34.8l-1.1,0l0,34.8Z" />
<text x="53" y="986" dx="0,0,0" class="s4_1"
>17 </text>

<text x="91" y="986" dx="0,-0.1,0,0.1,0,0,0.1,0,0,-0.1,0,0,0,-0.1,0,-0.3,0,-0.1,0,-0.1,0,0,-0.1,0,-0.1,0,-0.1,0,-0.1,0,-0.1,0,-0.1,0,0,-0.1,0,0.1,0,0,-0.1,0,-0.1,0,0,0,0,0,0.3" class="s4_1"
>Aufruf der einzelnen Begegnungen durch Moderator </text>

<path fill-rule="evenodd" d="M37.4,968.7l1.1,0l0,-1.1l-1.1,0l0,1.1Z" />
<path fill-rule="evenodd" d="M38.5,968.7l47.5,0l0,-1.1l-47.5,0l0,1.1Z" />
<path fill-rule="evenodd" d="M86,968.7l1.1,0l0,-1.1l-1.1,0l0,1.1Z" />
<path fill-rule="evenodd" d="M87.1,968.7l609.9,0l0,-1.1l-609.9,0l0,1.1Z" />
<path fill-rule="evenodd" d="M697,968.7l1.1,0l0,-1.1l-1.1,0l0,1.1Z" />
<path fill-rule="evenodd" d="M698.1,968.7l79.9,0l0,-1.1l-79.9,0l0,1.1Z" />
<path fill-rule="evenodd" d="M778,968.7l1.1,0l0,-1.1l-1.1,0l0,1.1Z" />
<path fill-rule="evenodd" d="M779.1,968.7l92.1,0l0,-1.1l-92.1,0l0,1.1Z" />
<path fill-rule="evenodd" d="M871.2,968.7l1.1,0l0,-1.1l-1.1,0l0,1.1Z" />
<path fill-rule="evenodd" d="M37.4,993.5l1.1,0l0,-24.8l-1.1,0l0,24.8Z" />
<path fill-rule="evenodd" d="M37.4,994.6l1.1,0l0,-1.1l-1.1,0l0,1.1Z" />
<path fill-rule="evenodd" d="M37.4,994.6l1.1,0l0,-1.1l-1.1,0l0,1.1Z" />
<path fill-rule="evenodd" d="M38.5,994.6l47.5,0l0,-1.1l-47.5,0l0,1.1Z" />
<path fill-rule="evenodd" d="M86,993.5l1.1,0l0,-24.8l-1.1,0l0,24.8Z" />
<path fill-rule="evenodd" d="M86,994.6l1.1,0l0,-1.1l-1.1,0l0,1.1Z" />
<path fill-rule="evenodd" d="M87.1,994.6l609.9,0l0,-1.1l-609.9,0l0,1.1Z" />
<path fill-rule="evenodd" d="M697,993.5l1.1,0l0,-24.8l-1.1,0l0,24.8Z" />
<path fill-rule="evenodd" d="M697,994.6l1.1,0l0,-1.1l-1.1,0l0,1.1Z" />
<path fill-rule="evenodd" d="M698.1,994.6l79.9,0l0,-1.1l-79.9,0l0,1.1Z" />
<path fill-rule="evenodd" d="M778,993.5l1.1,0l0,-24.8l-1.1,0l0,24.8Z" />
<path fill-rule="evenodd" d="M778,994.6l1.1,0l0,-1.1l-1.1,0l0,1.1Z" />
<path fill-rule="evenodd" d="M779.1,994.6l92.1,0l0,-1.1l-92.1,0l0,1.1Z" />
<path fill-rule="evenodd" d="M871.2,993.5l1.1,0l0,-24.8l-1.1,0l0,24.8Z" />
<path fill-rule="evenodd" d="M871.2,994.6l1.1,0l0,-1.1l-1.1,0l0,1.1Z" />
<path fill-rule="evenodd" d="M871.2,994.6l1.1,0l0,-1.1l-1.1,0l0,1.1Z" />
<text x="43" y="1030" dx="0,0,0,0,0.1,0,0.1,0,0,0,0,0.1,0.1" class="s5_1"
>Bemerkungen: </text>

<path fill-rule="evenodd" d="M177.1,1034.2l677.6,0l0,-1.9l-677.6,0l0,1.9Z" />
<path fill-rule="evenodd" d="M43.3,1077.4l811.4,0l0,-1.8l-811.4,0l0,1.8Z" />
<path fill-rule="evenodd" d="M43.3,1120.7l811.4,0l0,-1.8l-811.4,0l0,1.8Z" />
<path fill-rule="evenodd" d="M43.3,1164l811.4,0l0,-1.9l-811.4,0l0,1.9Z" />
<text x="43" y="1210" dx="0,0,0,0,0,-0.1,0,0.5,-0.1,0.1,0,0.1,0.1,0,-0.1,0,0.1,0.3,0,0,-0.1,0.1,0,-0.1,0,0.1,0.1,0,-0.1,0,0,0.1,0" class="s1_1"
>Verantwortlicher Schiedsrichter: </text>

<path fill-rule="evenodd" d="M381.4,1214.4l473.3,0l0,-2.2l-473.3,0l0,2.2Z" />
<text x="421" y="1235" dx="0,-0.1,0,0,0" class="s1_1"
>Name </text>

<text x="692" y="1235" dx="0,-0.1,-0.1,0,0,0.1,0,0,-0.1,0.1,0.1,0,0" class="s1_1"
>Unterschrift </text>

<text x="170" y="85" style="font-size:14px;" id="es_svg_team0"></text>
<text x="440" y="85" style="font-size:14px;" id="es_svg_team1"></text>
<text x="770" y="85" style="font-size:14px;" id="es_svg_date"></text>

</svg>
