<svg x="0" y="0" width="909" height="1286" viewBox="0 0 909 1286" version="1.1" xmlns="http://www.w3.org/2000/svg">
<defs>

<style type="text/css">
text {
	font-family: Arial, Helvetica, sans-serif;
	fill: #000000;
}

.s1_1{
font-size: 21.45px;
font-weight: bold;
}
.s2_1{
font-size: 16.13px;
}
.s3_1{
font-size: 21.45px;
font-weight: bold;
}
.s4_1{
font-size: 13.75px;
}
.s5_1{
font-size: 15.22px;
}
.s6_1{
font-size: 18.33px;
}

</style>

</defs>
<path d="M0,0
L0,1286
L909,1286
L909,0 Z " fill="#FFFFFF" stroke="none" />
<text x="71" y="44" dx="0,0.3,0.1,-0.1,-0.1,0,0,0,0,-0.1,0,-0.1,0.1,-0.1,0,0.1,-0.1,-0.1,-0.1,0,-0.1,0.1,-0.1,-0.1,-0.1,0.1,0,0,-0.1,0,0,-0.1,0.1,-0.1,-0.1,-0.1,0,-0.1,0.1,-0.1,-0.1,-0.1,-0.1,0,0,0,0.1,-0.1,0,0.1,0,-0.1,0.1,0,0,0,0,-0.1,-0.1,0.1,0,0,0,0.4,0,0,0" class="s1_1"
>Mindestanforderungen und Empfehlungen Bundesliga ab Saison 2017-18 </text>

<path fill-rule="evenodd" d="M16.9,22.7l1.1,0l0,-1.1l-1.1,0l0,1.1Z" />
<path fill-rule="evenodd" d="M16.9,22.7l1.1,0l0,-1.1l-1.1,0l0,1.1Z" />
<path fill-rule="evenodd" d="M18,22.7l861.1,0l0,-1.1L18,21.6l0,1.1Z" />
<path fill-rule="evenodd" d="M879.1,22.7l1.1,0l0,-1.1l-1.1,0l0,1.1Z" />
<path fill-rule="evenodd" d="M879.1,22.7l1.1,0l0,-1.1l-1.1,0l0,1.1Z" />
<path fill-rule="evenodd" d="M16.9,52.1l1.1,0L18,51l-1.1,0l0,1.1Z" />
<path fill-rule="evenodd" d="M16.9,52.1l1.1,0L18,51l-1.1,0l0,1.1Z" />
<path fill-rule="evenodd" d="M18,52.1l861.1,0l0,-1.1L18,51l0,1.1Z" />
<path fill-rule="evenodd" d="M879.1,52.1l1.1,0l0,-1.1l-1.1,0l0,1.1Z" />
<path fill-rule="evenodd" d="M879.1,52.1l1.1,0l0,-1.1l-1.1,0l0,1.1Z" />
<path fill-rule="evenodd" d="M16.9,51L18,51L18,22.7l-1.1,0l0,28.3Z" />
<path fill-rule="evenodd" d="M879.1,51l1.1,0l0,-28.3l-1.1,0l0,28.3Z" />
<text x="21" y="87" dx="0,-0.1,0,-0.1,0,-0.1,-0.1,-0.1,-0.1,-0.1,-0.1" class="s1_1"
>Begegnung: </text>

<path fill-rule="evenodd" d="M146,91.7l200.2,0l0,-2.2L146,89.5l0,2.2Z" />
<text x="352" y="87" dx="0,-0.1,0,-0.1,0,-0.1" class="s1_1"
>gegen </text>

<path fill-rule="evenodd" d="M415.1,91.7l231.9,0l0,-2.2l-231.9,0l0,2.2Z" />
<text x="671" y="87" dx="0,-0.1,0,0,-0.1,0,-0.2,0,0,0,0,0,0,-0.1,0" class="s1_1"
>Datum:________ </text>

<text x="21" y="125" dx="0,0.1,0.1,0,-0.1,0,0.1,0,0,-0.1,-0.2,0.1,0.1,-0.1,0,0,0,0.1,0,0.1,0.1,0,0,-0.1,0,0,0,-0.1,0,0,0,0.1,0,0.1,0,0,0.1,-0.1" class="s2_1"
>Hinweise zum Ausfüllen des Formulars: </text>

<text x="21" y="158" dx="0,0,0.1,0,0,0,0,0,0,0,0,-0.1,0.1,0,0,0,0,0,0.1,-0.1" class="s2_1"
>Liebe Sportfreunde, </text>

<text x="21" y="191" dx="0,0,0.1,0,3,0.1,0,0.1,0,0,0,0.2,0,3,0,0.1,0,-0.1,0,3,0,0,0.1,0,0,0,0.1,-0.1,0,-0.1,3,0,0.1,0,3.2,0,0,0.1,0,0,3,0,0,0,0,0,0,0,0,0,3,0.1,0,2.8,0,0,0,2.8,0,0,0,0,2.8,0,-0.1,0,0,0,0,2.8,0,0.1,2.8,0,0,-0.1,0,0,-0.1,0.4,0,0,0,2.9,0.1,0,2.8,0.7,0.1,0,0,0,0,0.1,0,0,-0.1,0,3,0,0,0,0,0,2.8,0,0.1,0" class="s2_1"
>die folgende Liste beinhaltet die gemäß Absprache in der BLVV 5/2017 am 14.10.2017 in Wipperfürth durch die </text>

<text x="21" y="210" dx="0,0,0,-0.1,0,0.1,0.1,0.1,0,-0.1,0,0,0.3,0,0,0,0,0,0,0,0.5,-0.2,0,0.3,0,0,0,0,0,-0.1,0,0.1,0,0,0,0,0,0.3,0,0.1,0,0,0,0,0,0,0,0.1,0,0,0,0,-0.1,0,0,0,0,0.2,0.1,0,0,0,0.1,0,0.1,0,0.1,0,0,0.1,0,0,0,0,0,0.2,0,0,0,0,0,0,-0.1,0.1,0,0,0.1,0,0,0,0.1,0,0.1,0.1,0.1,0,0,0,0.7,0,-0.1,-0.1,0.2,0,0.1,0,0.1,0,0.1,0.1,0" class="s2_1"
>beteiligten Vereine zu überprüfenden Mindestanforderungen und Empfehlungen der BLO Anlage VI für Wettkämpfe in </text>

<text x="21" y="228" dx="0,0,0,0,3.5,0,-0.1,3.6,0,0,0,3.6,0,-0.1,3.6,0,0,0,0.1,0.1,0,-0.1,0,0.2,-0.1,0,0,0,0,0,0,0.1,0.1,0,0,-0.1,3.4,0.1,0.1,0,3.4,0,0.1,0,-0.1,0,3.4,0.1,0,-0.1,3.4,0,0,0.1,3.4,-0.1,0,0.1,0,0.1,0,0,0.5,-0.1,0,0,0.1,0,0.1,0,0,0,0,0,0,-0.1,3.4,0,0,0.1,3.4,0,0.1,0,0,0,0,0,0,0,0,3.4,0,0,3.4,0,0,0,3.4,0,0,0,0,0,0,0.1,0.1,0,0.4" class="s2_1"
>der 1. und 2. Badminton-Bundesliga. Die Liste ist dem Original-Spielbericht bei Einsendung an den Bundesliga-</text>

<text x="21" y="247" dx="0,0,0,0.1,0,0.1,0.1,0.1,0.1,-0.1,0,0,3.9,0.1,0.1,-0.1,3.9,0,0,0,0.1,0,4,0,0,4,0,0,0,4,0,0,0,0,0,0,-0.2,0,0,0,0,0,4,0,0,0,4,0,0.1,0,0,4.3,0,0,0,4,0,0,0,4,0,0,0,0,0,0,0,0,0,0,0,0,0,0,3.9,0,0,0,3.8,0.1,0,0,0,4,0,0,0,0,0,3.7,0,0,0,3.8,0.1,0,0.1,0.1,-0.2,0,0,0,0,0" class="s2_1"
>Spielleiter mit Kopie an den Vorsitzenden des AfBL und den Pressesprecher des DBLV durch den Heimverein </text>

<text x="21" y="266" dx="0,0,0,0.1,-0.2,0,0.1,0,0,0,0,0" class="s2_1"
>beizufügen. </text>

<text x="21" y="284" dx="0,0,0.1,-0.1,6.1,0,0.1,0,6.2,0.1,0,-0.1,0,0,0,0,0,-0.1,0.1,0.1,0,0,0,6.1,0,0,0,0,0,0,0.1,0,0.1,0.1,0,0,6.2,0,0.1,0,6.1,0,0,0,0,0,-0.1,-0.1,0,0,-0.1,0.1,0.1,0,0,0,0,6.2,0,0,0,6.1,0,0,0,0,0,0,0,6.4,0.1,0,0,0.1,0,0.1,0.1,0,0,-0.1,6,0,0,0,0,6,0,0.1,0,6,0,0,0.1,0,0,0,0,-0.1,0,0,0,0,0.3,6,0,0,0" class="s2_1"
>Mit den Unterschriften bescheinigen die Verantwortlichen der Vereine lediglich, dass die Anforderungen und </text>

<text x="21" y="303" dx="0,0,0.1,0,0.1,0,0,0.1,0,0,0,0,0,0.1,-0.2,0,0,0,0,0,0,0,0,0,0,-0.2,-0.1,-0.1,-0.1,0,0.1,0,0,-0.1,-0.1,-0.2,0,0,0,0,0,0,0,0,0,-0.1,0,0,0,0,-0.1" class="s2_1"
>Empfehlungen vorhanden bzw. nicht vorhanden waren. </text>

<text x="21" y="322" dx="0,0,0,0.1,0.1,-0.1,0,3,0,0,3,0,0,0.1,0.1,3,0,0,0,0.1,0,0.1,0.1,0,0,3,0,0.1,0,0,0,0,3,0,0.1,0,-0.1,0,3,0,0,0,0,3,-0.2,0,3,0,0,0,0,0,0,3,0.2,0,0.1,0.1,0,0,-0.1,3,0,0,3,0.2,0,0,0,0,0,3,0,0.1,0,0,0,3,0.1,0.1,2.8,0.1,0,-0.1,0.1,0,0.1,0.1,2.8,0,0,0,2.8,0,0,0.1,0,0.1,0,0,2.9,0.1,0.1,-0.1,2.8,0,0,0.1" class="s2_1"
>Sollte es beim Ausfüllen dieser Liste doch zu Fragen kommen, so können diese im Notfall per Telefon mit dem </text>

<text x="21" y="341" dx="0,0,0,0,0,0,0,0.1,0.1,0,0.1,-0.1,0,0,0.1,0,0.1,0.1,0,0.1,-0.1,0,0,0.6,0,0,0,0,0,0.4,0,0,0,0,0,0,-0.1,0.5,0,0,-0.1,0,0,0.4,0,0,0,0.4,0.1,0,0.1,0,0,0.1,0.1,0,0,0.4,0,0,0,0,0.4,-0.1,0,0,0,0,0,0,-0.1,0.5,0,0,0.1,0.5,0,0,0,0,0,0,-0.2,0,0,0,0,0,0.5,0,0,0,0.5,0,0.1,0,0,0.5,0,0,0,0,0.5,0,0,0,0.1,0,-0.2" class="s2_1"
>Bundesliga-Spielleiter Bernd Mohaupt unter der Rufnummer 05241-531760, dem Vorsitzenden des AfBL Arno Schley </text>

<text x="21" y="359" dx="0,0,0,-0.1,0,0,5.7,0,0,0,0,-0.1,0,0,0,0,0,0,0,0,5.8,0,0,0,0,5.7,0,0,0.2,0,0,-0.1,0,0,0,0,0.1,5.6,0,0,0,0,5.6,0,0,0.1,5.6,0,0,0,0,0,0,0,0,0,0,0,0,0,0,5.5,0.1,0,0.1,0.1,0,-0.1,5.6,0.1,0,0,0,0,0,-0.1,5.6,0,0,-0.1,0,0,5.5,0,0,0,0,-0.1,0,0,0,0,0,0,0,5.6,0,0,0,0" class="s2_1"
>unter 0176/52500972 oder 06821/53456 oder dem Pressesprecher Helmut Ruppert unter 0172/6110612 oder </text>

<text x="21" y="378" dx="0,0,0,0,0,-0.1,0,0,0,0,0,0,0,0.2,0,0,-0.2,0.1,0,0.1,0,-0.1,0.1,0,-0.1,0,0,0,0,-0.1,-0.1,0,0,-0.1,0,-0.1,-0.1,-0.1,0,0,0,0,0,0" class="s2_1"
>0611/841194 kurzfristig beantwortet werden. </text>

<text x="21" y="411" dx="0,0,0,0,-0.1,0,0,0,0,-0.1,0.1,0,-0.1,0,0,0,-0.1,0,-0.1,-0.2,0,0,0,0,0,0,0,-0.1,0,0,0,-0.1,0,0.1,0,0,0,0.1,-0.1,0,0,0,0,0,0,-0.1,-0.1,0,0.1,0,0,0,0,0,0,0,0.1,0,0,0,0,-0.1,0,0,0,0,0,-0.1,0,0,0,0.5,0,0,-0.1,0,0,0,0,-0.1,0,0,0,-0.1,0,0.1,0,0.2,-0.1,0,0,0,0,0,0,-0.1,-0.1,0,0.1,0,0,-0.2,0,0,0,0,0,0,0.7" class="s2_1"
>Für Eure Unterstützung bei der Einhaltung der Mindestanforderungen danken Euch der AfBL und der Ligaverband! </text>

<text x="25" y="450" dx="0,-0.1,0,0" class="s3_1"
>Nr. </text>

<text x="135" y="450" dx="0,-0.1,0.1,0,0,0,0.1,0,0.1,0,0,0.1,0,0,0,0,0,0,0.1,0,0,-0.1,0,0,0,-0.2,0,0,0,0,0.1,0,0,0,0,0.1,0,0,0,-0.1,0,0,0,0.1,0,0.1,0.1,0.1,0.1,0,0.2" class="s3_1"
>Mindestanforderung und Empfehlungen - Vereinsliste </text>

<text x="712" y="443" dx="0,-0.1,0,0,0,0.1,0,0.1,0,0.1" class="s4_1"
>vorhanden </text>

<text x="816" y="443" dx="0,0,0,0,0,0" class="s4_1"
>Nicht </text>

<text x="798" y="459" dx="0,-0.1,0,0,0,0.1,0,0.1,0,0.1" class="s4_1"
>vorhanden </text>

<path fill-rule="evenodd" d="M15.8,430.2l1.1,0l0,-1.1l-1.1,0l0,1.1Z" />
<path fill-rule="evenodd" d="M15.8,430.2l1.1,0l0,-1.1l-1.1,0l0,1.1Z" />
<path fill-rule="evenodd" d="M16.9,430.2l47.4,0l0,-1.1l-47.4,0l0,1.1Z" />
<path fill-rule="evenodd" d="M64.3,430.2l1.2,0l0,-1.1l-1.2,0l0,1.1Z" />
<path fill-rule="evenodd" d="M65.5,430.2l637.9,0l0,-1.1l-637.9,0l0,1.1Z" />
<path fill-rule="evenodd" d="M703.4,430.2l1.1,0l0,-1.1l-1.1,0l0,1.1Z" />
<path fill-rule="evenodd" d="M704.5,430.2l85.7,0l0,-1.1l-85.7,0l0,1.1Z" />
<path fill-rule="evenodd" d="M790.2,430.2l1.1,0l0,-1.1l-1.1,0l0,1.1Z" />
<path fill-rule="evenodd" d="M791.3,430.2l85.4,0l0,-1.1l-85.4,0l0,1.1Z" />
<path fill-rule="evenodd" d="M876.7,430.2l1.1,0l0,-1.1l-1.1,0l0,1.1Z" />
<path fill-rule="evenodd" d="M876.7,430.2l1.1,0l0,-1.1l-1.1,0l0,1.1Z" />
<path fill-rule="evenodd" d="M15.8,463.2l1.1,0l0,-33l-1.1,0l0,33Z" />
<path fill-rule="evenodd" d="M64.3,463.2l1.2,0l0,-33l-1.2,0l0,33Z" />
<path fill-rule="evenodd" d="M703.4,463.2l1.1,0l0,-33l-1.1,0l0,33Z" />
<path fill-rule="evenodd" d="M790.2,463.2l1.1,0l0,-33l-1.1,0l0,33Z" />
<path fill-rule="evenodd" d="M876.7,463.2l1.1,0l0,-33l-1.1,0l0,33Z" />
<text x="36" y="478" dx="0,0" class="s5_1"
>1 </text>

<text x="70" y="486" dx="0,0,-0.1,0,0,0,0,0.1,0.1,0,-0.1,0,-0.1,0,0.3,0,-0.1,0,-0.3,-0.1,0,0,-0.1,0,0.3,0,0,0.1,0,-0.1,0,0,-0.1,0,0,0,0,0,0,-0.1,0,-0.1,0,-0.1,0.1,-0.1,-0.1,0,-0.1,0,0.3,-0.1,0,-0.1,0,0,0,0,-0.1,0.1,0,0,-0.1,0,0,-0.1,-0.1,0,-0.3,0,-0.1,0,0,-0.3,0,0,-0.1,0,0,0,0,0,-0.1,0.3" class="s5_1"
>Die Zuschauerkapazität muss in der 1. Bundesliga mindestens 150 Sitzplätze betragen </text>

<path fill-rule="evenodd" d="M15.8,464.3l1.1,0l0,-1.1l-1.1,0l0,1.1Z" />
<path fill-rule="evenodd" d="M16.9,464.3l47.4,0l0,-1.1l-47.4,0l0,1.1Z" />
<path fill-rule="evenodd" d="M64.3,464.3l1.2,0l0,-1.1l-1.2,0l0,1.1Z" />
<path fill-rule="evenodd" d="M65.5,464.3l637.9,0l0,-1.1l-637.9,0l0,1.1Z" />
<path fill-rule="evenodd" d="M703.4,464.3l1.1,0l0,-1.1l-1.1,0l0,1.1Z" />
<path fill-rule="evenodd" d="M704.5,464.3l85.7,0l0,-1.1l-85.7,0l0,1.1Z" />
<path fill-rule="evenodd" d="M790.2,464.3l1.1,0l0,-1.1l-1.1,0l0,1.1Z" />
<path fill-rule="evenodd" d="M791.3,464.3l85.4,0l0,-1.1l-85.4,0l0,1.1Z" />
<path fill-rule="evenodd" d="M876.7,464.3l1.1,0l0,-1.1l-1.1,0l0,1.1Z" />
<path fill-rule="evenodd" d="M15.8,489.4l1.1,0l0,-25.1l-1.1,0l0,25.1Z" />
<path fill-rule="evenodd" d="M64.3,489.4l1.2,0l0,-25.1l-1.2,0l0,25.1Z" />
<path fill-rule="evenodd" d="M703.4,489.4l1.1,0l0,-25.1l-1.1,0l0,25.1Z" />
<path fill-rule="evenodd" d="M790.2,489.4l1.1,0l0,-25.1l-1.1,0l0,25.1Z" />
<path fill-rule="evenodd" d="M876.7,489.4l1.1,0l0,-25.1l-1.1,0l0,25.1Z" />
<text x="36" y="504" dx="0,0" class="s5_1"
>2 </text>

<text x="70" y="512" dx="0,0,-0.1,0,0,0,0,0.1,0.1,0,-0.1,0,-0.1,0,0.3,0,-0.1,0,-0.3,-0.1,0,0,-0.1,0,0.3,0,0,0.1,0,-0.1,0,0,-0.1,0,0,0,0,0,0,-0.1,0,-0.1,0,-0.1,0.1,-0.1,-0.1,0,-0.1,0,0.3,-0.1,0,-0.1,0,0,0,0,-0.1,0.1,0,0,-0.1,0,-0.1,-0.1,0,-0.3,0,-0.1,0,0,-0.3,0,0,-0.1,0,0,0,0,0,-0.1,0.3" class="s5_1"
>Die Zuschauerkapazität muss in der 2. Bundesliga mindestens 50 Sitzplätze betragen </text>

<path fill-rule="evenodd" d="M15.8,490.5l1.1,0l0,-1.1l-1.1,0l0,1.1Z" />
<path fill-rule="evenodd" d="M16.9,490.5l47.4,0l0,-1.1l-47.4,0l0,1.1Z" />
<path fill-rule="evenodd" d="M64.3,490.5l1.2,0l0,-1.1l-1.2,0l0,1.1Z" />
<path fill-rule="evenodd" d="M65.5,490.5l637.9,0l0,-1.1l-637.9,0l0,1.1Z" />
<path fill-rule="evenodd" d="M703.4,490.5l1.1,0l0,-1.1l-1.1,0l0,1.1Z" />
<path fill-rule="evenodd" d="M704.5,490.5l85.7,0l0,-1.1l-85.7,0l0,1.1Z" />
<path fill-rule="evenodd" d="M790.2,490.5l1.1,0l0,-1.1l-1.1,0l0,1.1Z" />
<path fill-rule="evenodd" d="M791.3,490.5l85.4,0l0,-1.1l-85.4,0l0,1.1Z" />
<path fill-rule="evenodd" d="M876.7,490.5l1.1,0l0,-1.1l-1.1,0l0,1.1Z" />
<path fill-rule="evenodd" d="M15.8,515.6l1.1,0l0,-25.1l-1.1,0l0,25.1Z" />
<path fill-rule="evenodd" d="M64.3,515.6l1.2,0l0,-25.1l-1.2,0l0,25.1Z" />
<path fill-rule="evenodd" d="M703.4,515.6l1.1,0l0,-25.1l-1.1,0l0,25.1Z" />
<path fill-rule="evenodd" d="M790.2,515.6l1.1,0l0,-25.1l-1.1,0l0,25.1Z" />
<path fill-rule="evenodd" d="M876.7,515.6l1.1,0l0,-25.1l-1.1,0l0,25.1Z" />
<text x="36" y="530" dx="0,0" class="s5_1"
>3 </text>

<text x="70" y="530" dx="0,-0.1,0,0,-0.1,0,-0.1,-0.1,0.1,0,-0.1,-0.3,0,-0.1,0,-0.1,0,0,-0.1,0,-0.1,0.3,0.1,0.1,0" class="s5_1"
>Ergebnisanzeige: Beamer (</text>

<path fill-rule="evenodd" d="M249.2,527.7l5.1,0l0,-0.7l-5.1,0l0,0.7Z" />
<text x="254" y="530" dx="0,0,0,0,0,0,0,0,0,0,0,0,0,0,0,0,0,0,0,0,0,0.1,0,-0.1,0,0,0,0.1,0,0,0,0,0,0,0,0.3,0,0,0,0,0.1,0,0,-0.1,0,0,0.1,0.1,0,0,0,0,0,0,0,0,0,0,0,0,0,0.1,0,-0.1,0,0" class="s5_1"
>4:3 o.16:9) Mindestbreite ca. 2,5 m oder Flatscreen Mindestbreite </text>

<text x="70" y="548" dx="0,0.1,0,0,-0.1,0,-0.1,0,0,0,-0.1,0" class="s5_1"
>ca. 50 Zoll </text>

<path fill-rule="evenodd" d="M15.8,516.7l1.1,0l0,-1.1l-1.1,0l0,1.1Z" />
<path fill-rule="evenodd" d="M16.9,516.7l47.4,0l0,-1.1l-47.4,0l0,1.1Z" />
<path fill-rule="evenodd" d="M64.3,516.7l1.2,0l0,-1.1l-1.2,0l0,1.1Z" />
<path fill-rule="evenodd" d="M65.5,516.7l637.9,0l0,-1.1l-637.9,0l0,1.1Z" />
<path fill-rule="evenodd" d="M703.4,516.7l1.1,0l0,-1.1l-1.1,0l0,1.1Z" />
<path fill-rule="evenodd" d="M704.5,516.7l85.7,0l0,-1.1l-85.7,0l0,1.1Z" />
<path fill-rule="evenodd" d="M790.2,516.7l1.1,0l0,-1.1l-1.1,0l0,1.1Z" />
<path fill-rule="evenodd" d="M791.3,516.7l85.4,0l0,-1.1l-85.4,0l0,1.1Z" />
<path fill-rule="evenodd" d="M876.7,516.7l1.1,0l0,-1.1l-1.1,0l0,1.1Z" />
<path fill-rule="evenodd" d="M15.8,551.5l1.1,0l0,-34.8l-1.1,0l0,34.8Z" />
<path fill-rule="evenodd" d="M64.3,551.5l1.2,0l0,-34.8l-1.2,0l0,34.8Z" />
<path fill-rule="evenodd" d="M703.4,551.5l1.1,0l0,-34.8l-1.1,0l0,34.8Z" />
<path fill-rule="evenodd" d="M790.2,551.5l1.1,0l0,-34.8l-1.1,0l0,34.8Z" />
<path fill-rule="evenodd" d="M876.7,551.5l1.1,0l0,-34.8l-1.1,0l0,34.8Z" />
<text x="36" y="566" dx="0,0" class="s5_1"
>4 </text>

<text x="70" y="566" dx="0,0,-0.1,0,0,-0.1,0,-0.1,0,-0.1,0.2,-0.1,0,0,0,-0.1,0,-0.1,0.1,0,0,-0.1,0,0,-0.1,0,0,0,0,0,0,-0.1,0,-0.1,0,-0.1,0.1,-0.1,-0.1,0,-0.1,0,-0.1,0,-0.1,0,0,-0.1,0,-0.1,0.3,0,0.8,0,0,-0.1,0.3,0,0.3,0,0.1,0,-0.1,0,0,-0.1,0.1,0,0,-0.1,0.3,0,-0.1,0,-0.1,0,0,-0.1,0,-0.1,0,0,0,-0.1,0.2,0,0,-0.1,-0.1,0,-0.1" class="s5_1"
>Die Spielfläche ist in der 1. Bundesliga von einem Wettkampfbereich umgeben, der auf allen </text>

<text x="70" y="584" dx="0,-0.1,0,-0.1,0,0,-0.1,0,0.3,-0.1,0,-0.1,0,0,0,0,-0.1,0.1,0,0.1,0,0,-0.1,0,0,0.3,0,0,0,0,-0.1,0,0,-0.1,0,-0.1,0,-0.1,0,-0.1,0,0,-0.1,0,0,-0.1,0,-0.1,0,-0.1,0.2,-0.1,0,0,0,-0.1,0,0.1,0,0,0,-0.1,-0.1,0.1,0,0,-0.1,0,-0.1,0,-0.1,0,-0.1,0,-0.1,0,0,-0.1,0.1,0.3,0,-0.1,0,0,-0.1,0,-0.1,0.1,0,0,0,0,-0.1,0" class="s5_1"
>Seiten mindestens ca. 1 m breit und von der Spielfläche farblich abgehoben gestaltet ist. Der </text>

<text x="70" y="601" dx="0,0.8,0,0,-0.1,0.3,0,0.3,0,0.1,0,-0.1,0,0,-0.1,0.1,0,0,0.2,0,-0.1,0,0,0.3,-0.1,0,0,-0.1,0.3,-0.1,0,-0.1,0.2,0,-0.1,0,-0.1,0,0,0.8,0,0,0,0,0,-0.1,0,-0.1,0,-0.1,0,0,-0.1,0.1,0.1,0,-0.1,-0.1,0,0,0,0,0.3" class="s5_1"
>Wettkampfbereich kann mit umlaufenden Werbebanden abschließen. </text>

<path fill-rule="evenodd" d="M15.8,552.6l1.1,0l0,-1.1l-1.1,0l0,1.1Z" />
<path fill-rule="evenodd" d="M16.9,552.6l47.4,0l0,-1.1l-47.4,0l0,1.1Z" />
<path fill-rule="evenodd" d="M64.3,552.6l1.2,0l0,-1.1l-1.2,0l0,1.1Z" />
<path fill-rule="evenodd" d="M65.5,552.6l637.9,0l0,-1.1l-637.9,0l0,1.1Z" />
<path fill-rule="evenodd" d="M703.4,552.6l1.1,0l0,-1.1l-1.1,0l0,1.1Z" />
<path fill-rule="evenodd" d="M704.5,552.6l85.7,0l0,-1.1l-85.7,0l0,1.1Z" />
<path fill-rule="evenodd" d="M790.2,552.6l1.1,0l0,-1.1l-1.1,0l0,1.1Z" />
<path fill-rule="evenodd" d="M791.3,552.6l85.4,0l0,-1.1l-85.4,0l0,1.1Z" />
<path fill-rule="evenodd" d="M876.7,552.6l1.1,0l0,-1.1l-1.1,0l0,1.1Z" />
<path fill-rule="evenodd" d="M15.8,604.9l1.1,0l0,-52.3l-1.1,0l0,52.3Z" />
<path fill-rule="evenodd" d="M64.3,604.9l1.2,0l0,-52.3l-1.2,0l0,52.3Z" />
<path fill-rule="evenodd" d="M703.4,604.9l1.1,0l0,-52.3l-1.1,0l0,52.3Z" />
<path fill-rule="evenodd" d="M790.2,604.9l1.1,0l0,-52.3l-1.1,0l0,52.3Z" />
<path fill-rule="evenodd" d="M876.7,604.9l1.1,0l0,-52.3l-1.1,0l0,52.3Z" />
<text x="36" y="620" dx="0,0" class="s5_1"
>5 </text>

<text x="70" y="620" dx="0,0,-0.1,-0.1,0,0,0.1,0,0,0,0,0.2,-0.1,0.1,0.3,0,0,0.1,0.1,0.1,0,-0.2,0,-0.1,0,0,-0.1,0,0,0.2,0,-0.1,0,-0.1,0,0,0,0.3,-0.1,0,0,-0.1,-0.1,0,-0.1,-0.1,0,-0.1,0,-0.1,0,0,-0.1,0,0.1,0,0,-0.1,0,0,-0.1,0,0.3,0,0,-0.1,0,-0.1,0,-0.1,0,0,0,0,0,-0.1,0,-0.1,0,-0.1,0" class="s5_1"
>Livescore/Ticker (soweit verfügbar: mit Einbindung auf der vom DBLV vorgegebenen </text>

<text x="70" y="637" dx="0,0,0,0.3,0,-0.1,0,-0.1,0,0.1" class="s5_1"
>Homepage) </text>

<path fill-rule="evenodd" d="M15.8,606l1.1,0l0,-1.1l-1.1,0l0,1.1Z" />
<path fill-rule="evenodd" d="M16.9,606l47.4,0l0,-1.1l-47.4,0l0,1.1Z" />
<path fill-rule="evenodd" d="M64.3,606l1.2,0l0,-1.1l-1.2,0l0,1.1Z" />
<path fill-rule="evenodd" d="M65.5,606l637.9,0l0,-1.1l-637.9,0l0,1.1Z" />
<path fill-rule="evenodd" d="M703.4,606l1.1,0l0,-1.1l-1.1,0l0,1.1Z" />
<path fill-rule="evenodd" d="M704.5,606l85.7,0l0,-1.1l-85.7,0l0,1.1Z" />
<path fill-rule="evenodd" d="M790.2,606l1.1,0l0,-1.1l-1.1,0l0,1.1Z" />
<path fill-rule="evenodd" d="M791.3,606l85.4,0l0,-1.1l-85.4,0l0,1.1Z" />
<path fill-rule="evenodd" d="M876.7,606l1.1,0l0,-1.1l-1.1,0l0,1.1Z" />
<path fill-rule="evenodd" d="M15.8,640.9l1.1,0l0,-34.9l-1.1,0l0,34.9Z" />
<path fill-rule="evenodd" d="M64.3,640.9l1.2,0l0,-34.9l-1.2,0l0,34.9Z" />
<path fill-rule="evenodd" d="M703.4,640.9l1.1,0l0,-34.9l-1.1,0l0,34.9Z" />
<path fill-rule="evenodd" d="M790.2,640.9l1.1,0l0,-34.9l-1.1,0l0,34.9Z" />
<path fill-rule="evenodd" d="M876.7,640.9l1.1,0l0,-34.9l-1.1,0l0,34.9Z" />
<text x="36" y="656" dx="0,0" class="s5_1"
>6 </text>

<text x="70" y="663" dx="0,0,0,0.1,0,0,-0.1,0,-0.1,0" class="s5_1"
>Cafeteria </text>

<path fill-rule="evenodd" d="M15.8,642l1.1,0l0,-1.1l-1.1,0l0,1.1Z" />
<path fill-rule="evenodd" d="M16.9,642l47.4,0l0,-1.1l-47.4,0l0,1.1Z" />
<path fill-rule="evenodd" d="M64.3,642l1.2,0l0,-1.1l-1.2,0l0,1.1Z" />
<path fill-rule="evenodd" d="M65.5,642l637.9,0l0,-1.1l-637.9,0l0,1.1Z" />
<path fill-rule="evenodd" d="M703.4,642l1.1,0l0,-1.1l-1.1,0l0,1.1Z" />
<path fill-rule="evenodd" d="M704.5,642l85.7,0l0,-1.1l-85.7,0l0,1.1Z" />
<path fill-rule="evenodd" d="M790.2,642l1.1,0l0,-1.1l-1.1,0l0,1.1Z" />
<path fill-rule="evenodd" d="M791.3,642l85.4,0l0,-1.1l-85.4,0l0,1.1Z" />
<path fill-rule="evenodd" d="M876.7,642l1.1,0l0,-1.1l-1.1,0l0,1.1Z" />
<path fill-rule="evenodd" d="M15.8,667.3l1.1,0l0,-25.3l-1.1,0l0,25.3Z" />
<path fill-rule="evenodd" d="M64.3,667.3l1.2,0l0,-25.3l-1.2,0l0,25.3Z" />
<path fill-rule="evenodd" d="M703.4,667.3l1.1,0l0,-25.3l-1.1,0l0,25.3Z" />
<path fill-rule="evenodd" d="M790.2,667.3l1.1,0l0,-25.3l-1.1,0l0,25.3Z" />
<path fill-rule="evenodd" d="M876.7,667.3l1.1,0l0,-25.3l-1.1,0l0,25.3Z" />
<text x="36" y="682" dx="0,0" class="s5_1"
>7 </text>

<text x="70" y="682" dx="0,-0.1,0,-0.1,0,-0.1,0,0,-0.1,0,0,0,0,0,0,0.1,0,-0.1,0,-0.3,0,0,-0.1,0,0,0,0.1,0.1,0,-0.1,0,-0.1,0,-0.3,0,-0.1,-0.1,0,0,-0.1,0.2,0,0,-0.1,0.3,0,-0.1,0,-0.1,0,-0.1,0,-0.1,0,-0.1,0.1,0,0,-0.1,0,-0.1,0,0.4,0,0,0,-0.1,-0.1,0.3,-0.1,0,0,0,-0.1,0,0,-0.1,0,0,-0.1,0,0,0,0,0,0.1,0,-0.1" class="s5_1"
>Angabe der geschätzten Zuschauerzahl auf dem Spielbericht durch Heimverein in Absprache </text>

<text x="70" y="699" dx="0,0.3,-0.1,0,0,0.1,0,0,0,-0.1,0,0,0,-0.1,0" class="s5_1"
>mit Gastverein </text>

<path fill-rule="evenodd" d="M15.8,668.4l1.1,0l0,-1.1l-1.1,0l0,1.1Z" />
<path fill-rule="evenodd" d="M16.9,668.4l47.4,0l0,-1.1l-47.4,0l0,1.1Z" />
<path fill-rule="evenodd" d="M64.3,668.4l1.2,0l0,-1.1l-1.2,0l0,1.1Z" />
<path fill-rule="evenodd" d="M65.5,668.4l637.9,0l0,-1.1l-637.9,0l0,1.1Z" />
<path fill-rule="evenodd" d="M703.4,668.4l1.1,0l0,-1.1l-1.1,0l0,1.1Z" />
<path fill-rule="evenodd" d="M704.5,668.4l85.7,0l0,-1.1l-85.7,0l0,1.1Z" />
<path fill-rule="evenodd" d="M790.2,668.4l1.1,0l0,-1.1l-1.1,0l0,1.1Z" />
<path fill-rule="evenodd" d="M791.3,668.4l85.4,0l0,-1.1l-85.4,0l0,1.1Z" />
<path fill-rule="evenodd" d="M876.7,668.4l1.1,0l0,-1.1l-1.1,0l0,1.1Z" />
<path fill-rule="evenodd" d="M15.8,703.2l1.1,0l0,-34.8l-1.1,0l0,34.8Z" />
<path fill-rule="evenodd" d="M64.3,703.2l1.2,0l0,-34.8l-1.2,0l0,34.8Z" />
<path fill-rule="evenodd" d="M703.4,703.2l1.1,0l0,-34.8l-1.1,0l0,34.8Z" />
<path fill-rule="evenodd" d="M790.2,703.2l1.1,0l0,-34.8l-1.1,0l0,34.8Z" />
<path fill-rule="evenodd" d="M876.7,703.2l1.1,0l0,-34.8l-1.1,0l0,34.8Z" />
<text x="36" y="718" dx="0,0" class="s5_1"
>8 </text>

<text x="70" y="726" dx="0,-0.1,-0.1,0,0.2,0,0,-0.1,0,0.3,-0.1,0,0,-0.1,0,0.1,0,-0.1,0,-0.1,0,-0.1,0.3,0,-0.1,-0.1,0,-0.1,0,-0.1,0,0,0,-0.1,0,0,-0.1,0.1,0,0,-0.1,0,0,0,0,-0.1,0,0,0,0.1,0,0,-0.1,0,0.1" class="s5_1"
>Plakate mit BL-Logo im Eingangsbereich der Sportstätte </text>

<path fill-rule="evenodd" d="M15.8,704.3l1.1,0l0,-1.1l-1.1,0l0,1.1Z" />
<path fill-rule="evenodd" d="M16.9,704.3l47.4,0l0,-1.1l-47.4,0l0,1.1Z" />
<path fill-rule="evenodd" d="M64.3,704.3l1.2,0l0,-1.1l-1.2,0l0,1.1Z" />
<path fill-rule="evenodd" d="M65.5,704.3l637.9,0l0,-1.1l-637.9,0l0,1.1Z" />
<path fill-rule="evenodd" d="M703.4,704.3l1.1,0l0,-1.1l-1.1,0l0,1.1Z" />
<path fill-rule="evenodd" d="M704.5,704.3l85.7,0l0,-1.1l-85.7,0l0,1.1Z" />
<path fill-rule="evenodd" d="M790.2,704.3l1.1,0l0,-1.1l-1.1,0l0,1.1Z" />
<path fill-rule="evenodd" d="M791.3,704.3l85.4,0l0,-1.1l-85.4,0l0,1.1Z" />
<path fill-rule="evenodd" d="M876.7,704.3l1.1,0l0,-1.1l-1.1,0l0,1.1Z" />
<path fill-rule="evenodd" d="M15.8,729.4l1.1,0l0,-25.1l-1.1,0l0,25.1Z" />
<path fill-rule="evenodd" d="M64.3,729.4l1.2,0l0,-25.1l-1.2,0l0,25.1Z" />
<path fill-rule="evenodd" d="M703.4,729.4l1.1,0l0,-25.1l-1.1,0l0,25.1Z" />
<path fill-rule="evenodd" d="M790.2,729.4l1.1,0l0,-25.1l-1.1,0l0,25.1Z" />
<path fill-rule="evenodd" d="M876.7,729.4l1.1,0l0,-25.1l-1.1,0l0,25.1Z" />
<text x="36" y="744" dx="0,0" class="s5_1"
>9 </text>

<text x="70" y="752" dx="0,-0.1,0,0,-0.1,0,0,0.3,0.3,0,-0.1,0.2,0,0,0.3,-0.1,0,0,-0.1,0.1,0.1,0,0,0,0,0,0,0,0.2,0,0.2,-0.1,0,0,0,0,0,-0.1,0,0.1" class="s5_1"
>Programmheft mit BL-Logo auf Titelseite </text>

<path fill-rule="evenodd" d="M15.8,730.5l1.1,0l0,-1.1l-1.1,0l0,1.1Z" />
<path fill-rule="evenodd" d="M16.9,730.5l47.4,0l0,-1.1l-47.4,0l0,1.1Z" />
<path fill-rule="evenodd" d="M64.3,730.5l1.2,0l0,-1.1l-1.2,0l0,1.1Z" />
<path fill-rule="evenodd" d="M65.5,730.5l637.9,0l0,-1.1l-637.9,0l0,1.1Z" />
<path fill-rule="evenodd" d="M703.4,730.5l1.1,0l0,-1.1l-1.1,0l0,1.1Z" />
<path fill-rule="evenodd" d="M704.5,730.5l85.7,0l0,-1.1l-85.7,0l0,1.1Z" />
<path fill-rule="evenodd" d="M790.2,730.5l1.1,0l0,-1.1l-1.1,0l0,1.1Z" />
<path fill-rule="evenodd" d="M791.3,730.5l85.4,0l0,-1.1l-85.4,0l0,1.1Z" />
<path fill-rule="evenodd" d="M876.7,730.5l1.1,0l0,-1.1l-1.1,0l0,1.1Z" />
<path fill-rule="evenodd" d="M15.8,755.6l1.1,0l0,-25.1l-1.1,0l0,25.1Z" />
<path fill-rule="evenodd" d="M64.3,755.6l1.2,0l0,-25.1l-1.2,0l0,25.1Z" />
<path fill-rule="evenodd" d="M703.4,755.6l1.1,0l0,-25.1l-1.1,0l0,25.1Z" />
<path fill-rule="evenodd" d="M790.2,755.6l1.1,0l0,-25.1l-1.1,0l0,25.1Z" />
<path fill-rule="evenodd" d="M876.7,755.6l1.1,0l0,-25.1l-1.1,0l0,25.1Z" />
<text x="32" y="770" dx="0,0,0" class="s5_1"
>10 </text>

<text x="70" y="778" dx="0,0,0,0.1,-0.1,0.3,0,-0.1,0,0,0,-0.1,0,-0.1,0,-0.1,0,-0.1,0,0,-0.1,0,0,0,0,0,0.3,0,-0.1,0,-0.1,0,-0.1,0,0,-0.1,-0.1,0,-0.1,0,-0.1,0.2,0,0,-0.1,0,-0.1,0.1,0,-0.1,0,0,-0.1,0,0,0,0,-0.1,0,0.3,0,-0.1,0,-0.1,0,0.1" class="s5_1"
>Musikeinspielungen vor dem Spiel, Einlauf, Pausen, nach dem Spiel </text>

<path fill-rule="evenodd" d="M15.8,756.7l1.1,0l0,-1.1l-1.1,0l0,1.1Z" />
<path fill-rule="evenodd" d="M16.9,756.7l47.4,0l0,-1.1l-47.4,0l0,1.1Z" />
<path fill-rule="evenodd" d="M64.3,756.7l1.2,0l0,-1.1l-1.2,0l0,1.1Z" />
<path fill-rule="evenodd" d="M65.5,756.7l637.9,0l0,-1.1l-637.9,0l0,1.1Z" />
<path fill-rule="evenodd" d="M703.4,756.7l1.1,0l0,-1.1l-1.1,0l0,1.1Z" />
<path fill-rule="evenodd" d="M704.5,756.7l85.7,0l0,-1.1l-85.7,0l0,1.1Z" />
<path fill-rule="evenodd" d="M790.2,756.7l1.1,0l0,-1.1l-1.1,0l0,1.1Z" />
<path fill-rule="evenodd" d="M791.3,756.7l85.4,0l0,-1.1l-85.4,0l0,1.1Z" />
<path fill-rule="evenodd" d="M876.7,756.7l1.1,0l0,-1.1l-1.1,0l0,1.1Z" />
<path fill-rule="evenodd" d="M15.8,781.8l1.1,0l0,-25.1l-1.1,0l0,25.1Z" />
<path fill-rule="evenodd" d="M64.3,781.8l1.2,0l0,-25.1l-1.2,0l0,25.1Z" />
<path fill-rule="evenodd" d="M703.4,781.8l1.1,0l0,-25.1l-1.1,0l0,25.1Z" />
<path fill-rule="evenodd" d="M790.2,781.8l1.1,0l0,-25.1l-1.1,0l0,25.1Z" />
<path fill-rule="evenodd" d="M876.7,781.8l1.1,0l0,-25.1l-1.1,0l0,25.1Z" />
<text x="32" y="797" dx="0,0,0" class="s5_1"
>11 </text>

<text x="70" y="804" dx="0,-0.1,0,0,0,0,-0.2,0,0,0,0,0,-0.1,0,0,0,0,0,0,0,0,-0.1,0,-0.1,0,0,0,-0.1,0,-0.1,0,0,0.2,0,0,0,-0.1,0,0,-0.1,0.1,0,0,-0.1,0,0,0.3,0,-0.1,0,0,0,0,0,0,0,0,0,-0.1,-0.1,0,0,0.3,-0.1,0,0,-0.1,0,0.1,0,0,0,0" class="s5_1"
>Außenwerbung: Großbanner Mindestbreite ca. 3 m vor der Halle mit BL-Logo </text>

<path fill-rule="evenodd" d="M15.8,782.9l1.1,0l0,-1.1l-1.1,0l0,1.1Z" />
<path fill-rule="evenodd" d="M16.9,782.9l47.4,0l0,-1.1l-47.4,0l0,1.1Z" />
<path fill-rule="evenodd" d="M64.3,782.9l1.2,0l0,-1.1l-1.2,0l0,1.1Z" />
<path fill-rule="evenodd" d="M65.5,782.9l637.9,0l0,-1.1l-637.9,0l0,1.1Z" />
<path fill-rule="evenodd" d="M703.4,782.9l1.1,0l0,-1.1l-1.1,0l0,1.1Z" />
<path fill-rule="evenodd" d="M704.5,782.9l85.7,0l0,-1.1l-85.7,0l0,1.1Z" />
<path fill-rule="evenodd" d="M790.2,782.9l1.1,0l0,-1.1l-1.1,0l0,1.1Z" />
<path fill-rule="evenodd" d="M791.3,782.9l85.4,0l0,-1.1l-85.4,0l0,1.1Z" />
<path fill-rule="evenodd" d="M876.7,782.9l1.1,0l0,-1.1l-1.1,0l0,1.1Z" />
<path fill-rule="evenodd" d="M15.8,808.1l1.1,0l0,-25.2l-1.1,0l0,25.2Z" />
<path fill-rule="evenodd" d="M64.3,808.1l1.2,0l0,-25.2l-1.2,0l0,25.2Z" />
<path fill-rule="evenodd" d="M703.4,808.1l1.1,0l0,-25.2l-1.1,0l0,25.2Z" />
<path fill-rule="evenodd" d="M790.2,808.1l1.1,0l0,-25.2l-1.1,0l0,25.2Z" />
<path fill-rule="evenodd" d="M876.7,808.1l1.1,0l0,-25.2l-1.1,0l0,25.2Z" />
<text x="32" y="823" dx="0,0,0" class="s5_1"
>12 </text>

<text x="70" y="830" dx="0,0.8,0,0,0,0,0,-0.1,0,-0.1,0,-0.1,0,0,0.3,-0.1,0,-0.1,0.2,0,-0.1,0.1" class="s5_1"
>Werbebanden umlaufend </text>

<path fill-rule="evenodd" d="M15.8,809.2l1.1,0l0,-1.1l-1.1,0l0,1.1Z" />
<path fill-rule="evenodd" d="M16.9,809.2l47.4,0l0,-1.1l-47.4,0l0,1.1Z" />
<path fill-rule="evenodd" d="M64.3,809.2l1.2,0l0,-1.1l-1.2,0l0,1.1Z" />
<path fill-rule="evenodd" d="M65.5,809.2l637.9,0l0,-1.1l-637.9,0l0,1.1Z" />
<path fill-rule="evenodd" d="M703.4,809.2l1.1,0l0,-1.1l-1.1,0l0,1.1Z" />
<path fill-rule="evenodd" d="M704.5,809.2l85.7,0l0,-1.1l-85.7,0l0,1.1Z" />
<path fill-rule="evenodd" d="M790.2,809.2l1.1,0l0,-1.1l-1.1,0l0,1.1Z" />
<path fill-rule="evenodd" d="M791.3,809.2l85.4,0l0,-1.1l-85.4,0l0,1.1Z" />
<path fill-rule="evenodd" d="M876.7,809.2l1.1,0l0,-1.1l-1.1,0l0,1.1Z" />
<path fill-rule="evenodd" d="M15.8,834.3l1.1,0l0,-25.1l-1.1,0l0,25.1Z" />
<path fill-rule="evenodd" d="M64.3,834.3l1.2,0l0,-25.1l-1.2,0l0,25.1Z" />
<path fill-rule="evenodd" d="M703.4,834.3l1.1,0l0,-25.1l-1.1,0l0,25.1Z" />
<path fill-rule="evenodd" d="M790.2,834.3l1.1,0l0,-25.1l-1.1,0l0,25.1Z" />
<path fill-rule="evenodd" d="M876.7,834.3l1.1,0l0,-25.1l-1.1,0l0,25.1Z" />
<text x="32" y="849" dx="0,0,0" class="s5_1"
>13 </text>

<text x="70" y="857" dx="0,0,0,0,0.3,0,-0.1,0,0,0,0,0,0,0.3,0.3,0,0,0,0,0,-0.2,0,0,0.2,0,-0.1,-0.3,0,0,0,0,0,-0.1,0,0,-0.1,0,-0.1,0,0,-0.1,-0.1,0,0,0,0,-0.1,0,0,-0.1,-0.1,0,-0.1,0,0,-0.1,0,-0.1,0,0,0,0,0,-0.1,0,0,0,0,0,0,0.4" class="s5_1"
>Rahmenprogramm (bspw. Tanzgruppe, Band, Präsentation anderer Sportart) </text>

<path fill-rule="evenodd" d="M15.8,835.4l1.1,0l0,-1.1l-1.1,0l0,1.1Z" />
<path fill-rule="evenodd" d="M16.9,835.4l47.4,0l0,-1.1l-47.4,0l0,1.1Z" />
<path fill-rule="evenodd" d="M64.3,835.4l1.2,0l0,-1.1l-1.2,0l0,1.1Z" />
<path fill-rule="evenodd" d="M65.5,835.4l637.9,0l0,-1.1l-637.9,0l0,1.1Z" />
<path fill-rule="evenodd" d="M703.4,835.4l1.1,0l0,-1.1l-1.1,0l0,1.1Z" />
<path fill-rule="evenodd" d="M704.5,835.4l85.7,0l0,-1.1l-85.7,0l0,1.1Z" />
<path fill-rule="evenodd" d="M790.2,835.4l1.1,0l0,-1.1l-1.1,0l0,1.1Z" />
<path fill-rule="evenodd" d="M791.3,835.4l85.4,0l0,-1.1l-85.4,0l0,1.1Z" />
<path fill-rule="evenodd" d="M876.7,835.4l1.1,0l0,-1.1l-1.1,0l0,1.1Z" />
<path fill-rule="evenodd" d="M15.8,860.7l1.1,0l0,-25.3l-1.1,0l0,25.3Z" />
<path fill-rule="evenodd" d="M64.3,860.7l1.2,0l0,-25.3l-1.2,0l0,25.3Z" />
<path fill-rule="evenodd" d="M703.4,860.7l1.1,0l0,-25.3l-1.1,0l0,25.3Z" />
<path fill-rule="evenodd" d="M790.2,860.7l1.1,0l0,-25.3l-1.1,0l0,25.3Z" />
<path fill-rule="evenodd" d="M876.7,860.7l1.1,0l0,-25.3l-1.1,0l0,25.3Z" />
<text x="32" y="875" dx="0,0,0" class="s5_1"
>14 </text>

<text x="70" y="883" dx="0,-0.1,0,0,0.1,0,0,0.1,-0.1,0,-0.1,0,-0.1,-0.1,0,0,0,0,-0.1,0,-0.1,0,0,-0.1,-0.1,0,-0.1,0,0,0,-0.1,-0.1,0,0,0,-0.1,0,0,0,0.1,0,-0.1,0,0.3,0,-0.1,0,-0.1,0,-0.1,0,0,0,-0.4,0.3,0,-0.1,0,-0.1,0,-0.1,-0.1,0,-0.1,0,0.3" class="s5_1"
>Professioneller Bundesligatrailer vor jedem Spiel (Hymne + Video) </text>

<path fill-rule="evenodd" d="M15.8,861.8l1.1,0l0,-1.1l-1.1,0l0,1.1Z" />
<path fill-rule="evenodd" d="M16.9,861.8l47.4,0l0,-1.1l-47.4,0l0,1.1Z" />
<path fill-rule="evenodd" d="M64.3,861.8l1.2,0l0,-1.1l-1.2,0l0,1.1Z" />
<path fill-rule="evenodd" d="M65.5,861.8l637.9,0l0,-1.1l-637.9,0l0,1.1Z" />
<path fill-rule="evenodd" d="M703.4,861.8l1.1,0l0,-1.1l-1.1,0l0,1.1Z" />
<path fill-rule="evenodd" d="M704.5,861.8l85.7,0l0,-1.1l-85.7,0l0,1.1Z" />
<path fill-rule="evenodd" d="M790.2,861.8l1.1,0l0,-1.1l-1.1,0l0,1.1Z" />
<path fill-rule="evenodd" d="M791.3,861.8l85.4,0l0,-1.1l-85.4,0l0,1.1Z" />
<path fill-rule="evenodd" d="M876.7,861.8l1.1,0l0,-1.1l-1.1,0l0,1.1Z" />
<path fill-rule="evenodd" d="M15.8,886.9l1.1,0l0,-25.1l-1.1,0l0,25.1Z" />
<path fill-rule="evenodd" d="M64.3,886.9l1.2,0l0,-25.1l-1.2,0l0,25.1Z" />
<path fill-rule="evenodd" d="M703.4,886.9l1.1,0l0,-25.1l-1.1,0l0,25.1Z" />
<path fill-rule="evenodd" d="M790.2,886.9l1.1,0l0,-25.1l-1.1,0l0,25.1Z" />
<path fill-rule="evenodd" d="M876.7,886.9l1.1,0l0,-25.1l-1.1,0l0,25.1Z" />
<text x="32" y="902" dx="0,0,0" class="s5_1"
>15 </text>

<text x="70" y="909" dx="0,0,-0.1,-0.1,0,0,0,0,0,-0.1,0.3,0,0.3,-0.1,0,0,-0.1,-0.1,0,-0.1,-0.1,0,-0.1,0,-0.1,0,0,-0.1,0,0.1,0,0,0.1,0,0,-0.1,0,0.3,0,0,-0.1,0,-0.1,0,-0.1,0,0,0,0,0,-0.1,0,-0.1,0,-0.1,0,0,0,-0.1,0.3,0,-0.1,0,-0.1,0.1" class="s5_1"
>Livestream mit Einbindung auf der vom DBLV vorgegebenen Homepage </text>

<path fill-rule="evenodd" d="M15.8,888l1.1,0l0,-1.1l-1.1,0l0,1.1Z" />
<path fill-rule="evenodd" d="M16.9,888l47.4,0l0,-1.1l-47.4,0l0,1.1Z" />
<path fill-rule="evenodd" d="M64.3,888l1.2,0l0,-1.1l-1.2,0l0,1.1Z" />
<path fill-rule="evenodd" d="M65.5,888l637.9,0l0,-1.1l-637.9,0l0,1.1Z" />
<path fill-rule="evenodd" d="M703.4,888l1.1,0l0,-1.1l-1.1,0l0,1.1Z" />
<path fill-rule="evenodd" d="M704.5,888l85.7,0l0,-1.1l-85.7,0l0,1.1Z" />
<path fill-rule="evenodd" d="M790.2,888l1.1,0l0,-1.1l-1.1,0l0,1.1Z" />
<path fill-rule="evenodd" d="M791.3,888l85.4,0l0,-1.1l-85.4,0l0,1.1Z" />
<path fill-rule="evenodd" d="M876.7,888l1.1,0l0,-1.1l-1.1,0l0,1.1Z" />
<path fill-rule="evenodd" d="M15.8,913.2l1.1,0l0,-25.2l-1.1,0l0,25.2Z" />
<path fill-rule="evenodd" d="M64.3,913.2l1.2,0l0,-25.2l-1.2,0l0,25.2Z" />
<path fill-rule="evenodd" d="M703.4,913.2l1.1,0l0,-25.2l-1.1,0l0,25.2Z" />
<path fill-rule="evenodd" d="M790.2,913.2l1.1,0l0,-25.2l-1.1,0l0,25.2Z" />
<path fill-rule="evenodd" d="M876.7,913.2l1.1,0l0,-25.2l-1.1,0l0,25.2Z" />
<text x="32" y="928" dx="0,0,0" class="s5_1"
>16 </text>

<text x="70" y="936" dx="0,-0.1,-0.1,0,-0.1,0,-0.1,0,0,-0.1,0,0,0,0,-0.1,-0.1,0,-0.1,0.1,0,0,-0.1,0,-0.1,0,0,-0.1,0,0.1,0,0,-0.1,0.1,0,-0.1,0,-0.1,0.1,0,-0.1,0.1,0,0,-0.1,0,0,0.3,-0.1,0,0,-0.1,-0.1,0.1,0,0.2,-0.1,0,-0.1,0,-0.1,0,0,-0.1,0,0.1,0,0.2,0,-0.1,0.1,0.3,0.1,-0.1,0,-0.1,0.1" class="s5_1"
>Eingabe der Spielstände durch Schiedsrichter mittels kleiner PCs/Touch-Pads </text>

<path fill-rule="evenodd" d="M15.8,914.3l1.1,0l0,-1.1l-1.1,0l0,1.1Z" />
<path fill-rule="evenodd" d="M16.9,914.3l47.4,0l0,-1.1l-47.4,0l0,1.1Z" />
<path fill-rule="evenodd" d="M64.3,914.3l1.2,0l0,-1.1l-1.2,0l0,1.1Z" />
<path fill-rule="evenodd" d="M65.5,914.3l637.9,0l0,-1.1l-637.9,0l0,1.1Z" />
<path fill-rule="evenodd" d="M703.4,914.3l1.1,0l0,-1.1l-1.1,0l0,1.1Z" />
<path fill-rule="evenodd" d="M704.5,914.3l85.7,0l0,-1.1l-85.7,0l0,1.1Z" />
<path fill-rule="evenodd" d="M790.2,914.3l1.1,0l0,-1.1l-1.1,0l0,1.1Z" />
<path fill-rule="evenodd" d="M791.3,914.3l85.4,0l0,-1.1l-85.4,0l0,1.1Z" />
<path fill-rule="evenodd" d="M876.7,914.3l1.1,0l0,-1.1l-1.1,0l0,1.1Z" />
<path fill-rule="evenodd" d="M15.8,939.4l1.1,0l0,-25.1l-1.1,0l0,25.1Z" />
<path fill-rule="evenodd" d="M15.8,940.5l1.1,0l0,-1.1l-1.1,0l0,1.1Z" />
<path fill-rule="evenodd" d="M15.8,940.5l1.1,0l0,-1.1l-1.1,0l0,1.1Z" />
<path fill-rule="evenodd" d="M16.9,940.5l47.4,0l0,-1.1l-47.4,0l0,1.1Z" />
<path fill-rule="evenodd" d="M64.3,939.4l1.2,0l0,-25.1l-1.2,0l0,25.1Z" />
<path fill-rule="evenodd" d="M64.3,940.5l1.2,0l0,-1.1l-1.2,0l0,1.1Z" />
<path fill-rule="evenodd" d="M65.5,940.5l637.9,0l0,-1.1l-637.9,0l0,1.1Z" />
<path fill-rule="evenodd" d="M703.4,939.4l1.1,0l0,-25.1l-1.1,0l0,25.1Z" />
<path fill-rule="evenodd" d="M703.4,940.5l1.1,0l0,-1.1l-1.1,0l0,1.1Z" />
<path fill-rule="evenodd" d="M704.5,940.5l85.7,0l0,-1.1l-85.7,0l0,1.1Z" />
<path fill-rule="evenodd" d="M790.2,939.4l1.1,0l0,-25.1l-1.1,0l0,25.1Z" />
<path fill-rule="evenodd" d="M790.2,940.5l1.1,0l0,-1.1l-1.1,0l0,1.1Z" />
<path fill-rule="evenodd" d="M791.3,940.5l85.4,0l0,-1.1l-85.4,0l0,1.1Z" />
<path fill-rule="evenodd" d="M876.7,939.4l1.1,0l0,-25.1l-1.1,0l0,25.1Z" />
<path fill-rule="evenodd" d="M876.7,940.5l1.1,0l0,-1.1l-1.1,0l0,1.1Z" />
<path fill-rule="evenodd" d="M876.7,940.5l1.1,0l0,-1.1l-1.1,0l0,1.1Z" />
<text x="21" y="979" dx="0,0,0,0,0.1,0,0.1,0,0,0,0,0.1,0.1" class="s6_1"
>Bemerkungen: </text>

<path fill-rule="evenodd" d="M155.5,983.6l677.6,0l0,-1.9l-677.6,0l0,1.9Z" />
<path fill-rule="evenodd" d="M21.6,1026.8l811.5,0l0,-1.8l-811.5,0l0,1.8Z" />
<path fill-rule="evenodd" d="M21.6,1070.1l811.5,0l0,-1.8l-811.5,0l0,1.8Z" />
<path fill-rule="evenodd" d="M21.6,1113.4l811.5,0l0,-1.9l-811.5,0l0,1.9Z" />
<path fill-rule="evenodd" d="M21.6,1159.6l811.5,0l0,-1.9l-811.5,0l0,1.9Z" />
<text x="21" y="1206" dx="0,-0.1,-0.1,0,0,0.1,0,0,-0.1,0.1,0.1,0,0.1,0,-0.1,-0.2,0.1,-0.1,0,0.1,0,-0.2,0,0.1,0,0.1,0" class="s1_1"
>Unterschriften: Heimverein </text>

<path fill-rule="evenodd" d="M302.8,1210.7l205.7,0l0,-2.2l-205.7,0l0,2.2Z" />
<text x="514" y="1206" dx="0,0,0,0,0,-0.2,0,0.1,0,0.1,-0.1" class="s1_1"
>Gastverein </text>

<path fill-rule="evenodd" d="M631.4,1210.7l201.7,0l0,-2.2l-201.7,0l0,2.2Z" />
<text x="183" y="1256" dx="0,-0.1,0,0,0" class="s1_1"
>Name </text>

<path fill-rule="evenodd" d="M242.2,1261.3l266.3,0l0,-2.2l-266.3,0l0,2.2Z" />
<text x="514" y="1256" dx="0,-0.1,0,0,0" class="s1_1"
>Name </text>

<path fill-rule="evenodd" d="M578.9,1261.3l254.2,0l0,-2.2l-254.2,0l0,2.2Z" />

<text x="150" y="85" style="font-size:14px;" id="es_svg_team0"></text>
<text x="420" y="85" style="font-size:14px;" id="es_svg_team1"></text>
<text x="750" y="85" style="font-size:14px;" id="es_svg_date"></text>

</svg>
