<svg xmlns="http://www.w3.org/2000/svg" viewBox="0 0 161.899 100"><path fill="#565655" d="M77.7,40.385h5.787c1.794,0,2.589.317,3.5,1.385a4.169,4.169,0,0,1,1,2.7,3.911,3.911,0,0,1-1.726,3.268A4.2,4.2,0,0,1,84.8,55.432a9.306,9.306,0,0,1-1.225.068H77.7Zm5.833,6.309a2.136,2.136,0,0,0,2.292-2.156,2.175,2.175,0,0,0-2.338-2.156h-3.5v4.312Zm.022,6.627a2.3,2.3,0,1,0,0-4.584H79.989v4.584Zm17.3-3.109a5.4,5.4,0,1,1-10.8,0V40.385h2.293v9.827a3.11,3.11,0,0,0,3.132,3.131,3.012,3.012,0,0,0,3.064-3.131V40.385h2.314Zm4.71,5.289h-2.29V40.385h2.178l6.854,10.779V40.385h2.315V55.5h-2.134l-6.923-10.8Zm11.587-15.115H122.6a5.308,5.308,0,0,1,5.356,5.356v4.448a5.412,5.412,0,0,1-5.47,5.311h-5.334ZM122.6,53.321a3.055,3.055,0,0,0,3.04-3.109v-4.47a3.054,3.054,0,0,0-3.017-3.224h-3.178v10.8Zm9.808-.022h7.422v2.2h-9.715V40.385h9.715V42.5h-7.4v4.312h6.31v2.043h-6.332Zm10.729-1.385a6.242,6.242,0,0,0,4.086,1.429c2.02,0,3.155-.794,3.155-2.179,0-1.452-.862-2.065-3.155-2.178a5.4,5.4,0,0,1-3-.771,4.3,4.3,0,0,1-2-3.632c0-2.564,2.021-4.334,4.926-4.334a8.864,8.864,0,0,1,4.857,1.43l-1.225,1.928a6.763,6.763,0,0,0-3.723-1.067c-1.565,0-2.542.772-2.542,2,0,1.408.885,2.043,2.928,2.156,2.5.136,3.882.839,4.721,2.405a4.335,4.335,0,0,1,.521,2.042c0,2.7-2.179,4.472-5.4,4.472a8.552,8.552,0,0,1-5.6-1.907Zm-46.879,37.9H77.722V61.665H83V84.7H96.257Zm8.962,0H99.936V61.665h5.284Zm13.422.243c-5.884,0-10.156-4.476-10.156-10.642v-8a10.279,10.279,0,0,1,20.385-1.574l.144.74h-5.265l-.152-.4a4.9,4.9,0,0,0-4.792-3.437,4.847,4.847,0,0,0-5,4.673v7.758c0,2.769.028,2.8,1.5,4.2a4.8,4.8,0,0,0,3.33,1.365,4.949,4.949,0,0,0,4.877-4.467l.018-.113c.022-.1.022-.531.022-.983v-.389H118.1v-5.08h10.779v6a10.191,10.191,0,0,1-10.24,10.359m34.9-.243h-5.616L145.861,83.8h-9.455l-2.019,6.021h-5.7l10.354-28.154h4.223Zm-15.5-10.9h6.154l-3.062-9.183ZM77.711,22.257h4.542A2.984,2.984,0,0,1,85,23.343a3.284,3.284,0,0,1,.783,2.12,3.078,3.078,0,0,1-1.353,2.565,3.3,3.3,0,0,1-1.14,6.038,7.363,7.363,0,0,1-.962.053H77.711Zm4.578,4.951a1.677,1.677,0,0,0,1.8-1.691,1.707,1.707,0,0,0-1.835-1.693H79.511v3.384Zm.018,5.2a1.806,1.806,0,1,0,0-3.6h-2.8v3.6Zm8.548,1.8c-1.816,0-3.081-1.051-3.081-2.618a2.607,2.607,0,0,1,.694-1.711,2.337,2.337,0,0,1,2.156-.819h2.243v-.642c0-.944-.356-1.211-1.639-1.211-1.032,0-1.354.124-1.62.588l-1.335-1.069c.515-.818,1.424-1.193,2.886-1.193a3.5,3.5,0,0,1,2.529.712,2.642,2.642,0,0,1,.89,1.979v5.894h-1.71V33.3a2.056,2.056,0,0,1-2.012.909m-.2-3.758c-.873,0-1.264.321-1.264,1.033,0,.765.535,1.139,1.639,1.139,1.5,0,1.834-.249,1.834-1.442V30.45Zm12.647,3.669h-1.693v-.926a2.819,2.819,0,0,1-2.226,1.015,2.877,2.877,0,0,1-2.833-2.369,6.831,6.831,0,0,1-.018-.713V28.1A2.636,2.636,0,0,1,97.3,26.46a2.909,2.909,0,0,1,2.118-.926,2.781,2.781,0,0,1,2.192,1.069V22.257h1.693Zm-1.693-5.094a1.658,1.658,0,0,0-1.675-1.781,1.675,1.675,0,0,0-1.708,1.781v1.711a1.666,1.666,0,0,0,1.692,1.8,1.646,1.646,0,0,0,1.691-1.8Zm7.786-3.491a2.784,2.784,0,0,1,2.279,1.158,3.19,3.19,0,0,1,5.645,2.191v5.236H115.65V29.1a1.7,1.7,0,0,0-1.692-1.888,1.74,1.74,0,0,0-1.728,1.888v5.023h-1.673V29.1a1.708,1.708,0,0,0-1.711-1.888,1.686,1.686,0,0,0-1.693,1.888v5.023h-1.691V25.641h1.691v.944a2.907,2.907,0,0,1,2.246-1.051m11.774-1.621H119.5V22.257h1.675Zm0,10.206H119.5V25.641h1.675Zm6.05-8.585a2.818,2.818,0,0,1,2.832,2.885v5.7H128.38V28.883a1.7,1.7,0,0,0-3.4,0v5.236h-1.692V25.641h1.692v.944a2.873,2.873,0,0,1,2.245-1.051m6.731,6.377c0,.5.161.623.731.623h.552v1.585h-.748c-1.549,0-2.208-.658-2.208-2.19V27.013h-.837V25.641h.837V23.094h1.673v2.547h1.283v1.372h-1.283Zm2.507-2.956a3.5,3.5,0,0,1,7,0v1.781a3.5,3.5,0,0,1-7,.017Zm5.308,0a1.788,1.788,0,0,0-1.781-1.728,1.809,1.809,0,0,0-1.818,1.728v1.781a1.806,1.806,0,0,0,1.8,1.8,1.825,1.825,0,0,0,1.8-1.781ZM149,25.534a2.817,2.817,0,0,1,2.832,2.885v5.7h-1.674V28.883a1.7,1.7,0,0,0-3.4,0v5.236h-1.693V25.641h1.693v.944A2.873,2.873,0,0,1,149,25.534m6.589,74.442a6.331,6.331,0,0,0,6.312-6.312V18.6a6.33,6.33,0,0,0-6.312-6.311s-80.07-.007-80.07,0a1.881,1.881,0,0,0,2.11,1.982h77.96a4.334,4.334,0,0,1,4.33,4.328V93.663a4.334,4.334,0,0,1-4.33,4.328H62.938a1.882,1.882,0,0,0-2.11,1.984h94.759"/><path fill="#0093bd" d="M64.332,10.029c-1.97,1.126-3.143.223-3.442-.805-.279-.969,0-2.05,1.745-2.778a9.708,9.708,0,0,0,1.7,3.583m9.082-1.74a3.173,3.173,0,0,0,.942-.709,1.455,1.455,0,0,0-.8-.42A9.27,9.27,0,0,0,74.077,6a3.692,3.692,0,0,0-.974-.689,10.049,10.049,0,0,0,.235-1.331A4.2,4.2,0,0,0,72.181,3.2c-.035-.245.036-.989-.024-1.317-.28-.109-.765-.3-.967-.391a2.523,2.523,0,0,0-.1-.893L70.374.468A.7.7,0,0,0,70.317,0c-1.547.2-3.292,2.187-3.8,3.352-.66.581-2.791,2.514-3.234,2.874a11.858,11.858,0,0,0,1.574,3.5c.29-.064,4.279-.6,4.387-.62,2.182.385,4.557.007,5.006-.729-.1-.117-.379-.106-.841-.089M37.149,57.737a6.333,6.333,0,0,0,.536-1.336c-.13.056-.268.109-.421.161-.174.06-.4.153-.671.276s-1.109.382-1.4.532c.075.891,1.5.712,1.953.367m29.636-33.1A23.456,23.456,0,0,0,64.6,26.06a6.357,6.357,0,0,1-2.388,1.693c-.778.227-1.126-.007-1.65.185s-1.372.474-2.61.9-3.761,1.657-4.993,2.02a5.344,5.344,0,0,1-1.719.241,4.911,4.911,0,0,1-2.409.8,21.024,21.024,0,0,0-2.911.419c.036.18.041.3,0,.309a32.983,32.983,0,0,1-4.489,1.4c-1.074.183-.57.531-1.406.788-1.129.347-3.69.843-4.1,1.687a3.457,3.457,0,0,0,.528,2.844c.382.492.95,5.622,1.426,6.38s1.55,5.674,2.669,6.83-.33,1.236-.835,1.814c-.416.476-.583,1.149-1.111,1.54l.4.308s-.21,2.791.694,3.575-.744,2.614-.616,3.418a14.4,14.4,0,0,1-1.107,4.822c-.392.517.031.681-.193,1.667S37.29,72.7,37.1,73.357c-.057.2-1.726-.037-3.12.523a11.092,11.092,0,0,1,1.994.045s-.991,4.062-2.109,5.617A17.82,17.82,0,0,0,32.3,82.114c-.342.578-.313,2.722-2.4,2.585a6.874,6.874,0,0,1-3.817-1.884,8.376,8.376,0,0,0,1.327-3.369,17.317,17.317,0,0,1,.8-3.808,24.1,24.1,0,0,0,.733-2.411c-.066-.06-.265,0-.288-.058a5.182,5.182,0,0,1,.014-1.664s-.117-.1-.318-.24a.441.441,0,0,1-.028.492c-.307.358-.173,1.4-.173,1.4s-.1-.01-.109.021A11.727,11.727,0,0,0,26.9,77.711a9.342,9.342,0,0,1-1.836,5.434c-.56.675-.737.605-1.023,1.213a1.8,1.8,0,0,1-2.114,1.129,32.2,32.2,0,0,0-4.012.358c-.725.21-2.724.339-3.222.453a7.926,7.926,0,0,0-2.141,1.568c-.675.611-.367.253-.244.86s-.361.82-.491,1.322a8.445,8.445,0,0,0-.868,3.965,5.8,5.8,0,0,1-1.293,3.914,2.409,2.409,0,0,1-2.489-.578,4.4,4.4,0,0,1-1.183-4.791c.377-.885.809-6.23,1.249-7.665s1-1.555,2.182-1.506,1.356.907,2.51.393,3.076-2.4,5.126-3.547,2.495.1,2.931-.6c.046-.077.1-.161.161-.248a10.348,10.348,0,0,0-2.453-.792c-.9-.062-.2.992-1.364.668s-.671-.983-1.358-.445A11.813,11.813,0,0,1,12.7,79.949a8.323,8.323,0,0,1-1.394,1.259,1.6,1.6,0,0,1-1.662.278c-1.43-.506-.783-1.8-.09-3.627s1.46-1.519,2.093-2.427,1.637-4.458,2.414-4.908,2.055-1.031,2.793-.083,1.048,2.164,1.432,2.408,1.011.449.753.715a.678.678,0,0,0-.184.587s.932.543,1.74.994c.041-.811-.006-1.734.077-2.574.028-.278.117-1.269.255-1.908-.019.088-.37.026-.37.026.089-3.133,1.988-6.813,1.73-10.08-.027-.558-1.51.247-1.479-.028.7-3.706,1.792-8.029,1.232-11.751-.039-.34-.088-.681-.147-1.022-.01-.059-.023-.121-.037-.18a8.337,8.337,0,0,0-1.4-2.78c-.281-.289-1.351-1.922-1.351-1.922s-4.2,1.54-4.759,1.645c-.259.047-.453-.363-.6-.449-.509.489-3.9,1.494-5.777,1.973-2.3.585-2.86-.926-2.86-.926a19.752,19.752,0,0,1,1.208-4.516c.716-1.318,2-2.494,1.922-2.887s-.36-1.766.138-2.281a2.323,2.323,0,0,1,1.075-.636,2.885,2.885,0,0,1,.389-.734,2.382,2.382,0,0,1,.771-.085s-.092-.841.588-.76c.437.052.575.227.617.345a6.048,6.048,0,0,1,1.274-1.389.21.21,0,0,1,.289.06c.617-.833,4.786-7.821,4.84-8.058A.622.622,0,0,0,18.25,24a.6.6,0,0,1-.065-.324A15.617,15.617,0,0,1,19.777,20.4c1.422-2.451,3.695-5.7,4.019-6.084s.778-.63.966-.518a.581.581,0,0,1,.189.648,15.547,15.547,0,0,1-1.59,3.483c-1.4,2.464-3.89,6.185-4.1,6.436a.634.634,0,0,1-.565.16L13.975,32.66a.615.615,0,0,1,.035.7c-.143.285-1.179,2.14-1.921,3.422a.7.7,0,0,1,.012.56.452.452,0,0,1-.5.123,1.326,1.326,0,0,1-.183.265,3.984,3.984,0,0,0-.457.586c-.047.083-1.375,1.115-1.154,1.175.079.021-.906,2.088-.579,1.944.591-.259,3.1-1.654,3.174-1.99.011-.043-.133-.393-.052-.453.193-.139-.034-.281.986-.422.806-.111,1.445-1.225,2.942-2.27.6-.417,3.376-2.258,4.282-2.243,1.342.161,1.281-.909,2.281-1.713,0,0,1.007.265,1.472.458-.292-.228-.9-.726-1.091-.713.115-1,.42-1.968-.316-2.916-.046-.079-.094-.168-.143-.259a5.667,5.667,0,0,1-.333-.725,1.645,1.645,0,0,1-1.2-1.664c-.045-.949.134-1.021.283-.928a2.9,2.9,0,0,1-.171-2.269,4.671,4.671,0,0,1,5.142-2.794,4.757,4.757,0,0,1,3.235,4.537,3.238,3.238,0,0,0,.03.611c.01.09.021.185.034.284.079,1.385.417,3.182-.636,4.444-.309.332.421,1.067.854.472a1.589,1.589,0,0,1,.79-.552c.905.016,1.537.831,2.385.563.67-.291,1.3-1.047,2.147-1.158.117-.035.237-.063.356-.09a9.048,9.048,0,0,1,3.888-.628c1.661.261,4.331-.631,4.579-.6s.628.521.628.521l.007.018a12,12,0,0,0,2.642-.542,6.85,6.85,0,0,1,3.492-1.5c2.759-.563,6.517-.66,8.2-1.571.29-.157.254-.1.681-.132.877-.067-.045-.493,2.583-2.094,1.512-.921,2.12-1.6,2.678-1.92-1.587-.436-1.487.516-4.107,2.1-.18.11-.146.1-.213.108-3.947-7.352-12.4-11.137-25.655-11.137H4.724A4.528,4.528,0,0,0,0,16.993V95.276A4.527,4.527,0,0,0,4.73,100H34.519c20.605,0,30.353-9.9,30.353-26.941,0-10.652-4.873-16.417-12.81-19.674,6.822-3.383,11.278-8.4,11.278-17.92a25.806,25.806,0,0,0-.745-6.984,1.94,1.94,0,0,0,.377-.079,8.84,8.84,0,0,0,2.39-1.739,16.467,16.467,0,0,1,1.9-1.468.315.315,0,0,0,.035-.49.847.847,0,0,0-.513-.069M10.078,38.693c.1,0,.2-.109.274-.159-.513-.088-1.126-1.028-1.376-.471a1.083,1.083,0,0,1-.095.149l.066.031a1.146,1.146,0,0,0,1.131.451m57.3-16.21c-.23.374-1.975,1.638-1.76,1.847.06.058.168.052.3.02A14.163,14.163,0,0,0,67.4,22.935a.5.5,0,0,0,0-.185.479.479,0,0,0-.024-.267"/></svg>