<?xml version="1.0" encoding="UTF-8" ?>
<svg xmlns="http://www.w3.org/2000/svg" version="1.1" viewBox="0 0 2970 2100">
<style>
text {
	font-family: Helvetica;
	font-size: 20px;
	fill: #000000;
}
text.entry {
	font-size: 40px;
}
line {
	stroke: #000;
	stroke-width: 4px;
	stroke-linecap: square;
}
line.thick {
	stroke-width: 6px;
}
line.verythick {
	stroke-width: 8px;
}
line.dotted {
	stroke-dasharray: 4;
	stroke-linecap: butt;
}
</style>

<!-- header -->
<line x1="75" x2="75" y1="115" y2="1640" class="thick" />
<line x1="75" x2="1310" y1="115" y2="115" class="thick" />
<line x1="1090" x2="1090" y1="115" y2="380" class="thick" />
<line x1="1310" x2="1310" y1="115" y2="200" class="thick" />
<line x1="1310" x2="1510" y1="200" y2="200" class="thick" />
<line x1="1510" x2="1510" y1="200" y2="380" class="thick" />
<line x1="1215" x2="1215" y1="115" y2="1640" class="thick" />
<line x1="1090" x2="1310" y1="200" y2="200" />
<line x1="1090" x2="1510" y1="290" y2="290" />
<line x1="1310" x2="1310" y1="200" y2="290" />
<line x1="1410" x2="1410" y1="200" y2="290" />
<line x1="150" x2="2640" y1="380" y2="380" class="thick" />
<line x1="2640" x2="2880" y1="380" y2="380" class="verythick" />
<line x1="75" x2="2880" y1="470" y2="470" class="thick" />
<line x1="150" x2="150" y1="380" y2="1550" class="thick" />
<line x1="200" x2="200" y1="410" y2="470" />
<line x1="250" x2="250" y1="410" y2="470" />
<line x1="300" x2="300" y1="410" y2="470" />
<line x1="350" x2="350" y1="410" y2="470" />
<line x1="400" x2="400" y1="410" y2="470" />
<line x1="1260" x2="1260" y1="410" y2="470" />
<line x1="1310" x2="1310" y1="410" y2="470" />
<line x1="1360" x2="1360" y1="410" y2="470" />
<line x1="1410" x2="1410" y1="410" y2="470" />
<line x1="1460" x2="1460" y1="410" y2="470" />
<line x1="2280" x2="2280" y1="380" y2="1640" class="thick" />
<line x1="2400" x2="2400" y1="380" y2="1550" />
<line x1="2520" x2="2520" y1="380" y2="1550" />
<line x1="2640" x2="2640" y1="380" y2="1640" class="verythick" />
<line x1="2760" x2="2760" y1="380" y2="1640" />
<line x1="2880" x2="2880" y1="380" y2="1640" class="verythick" />
<text style="font-size: 25px; font-weight:bold;" x="110" y="170">FEUILLE DE RESULTATS</text>
<text style="font-size: 25px; font-weight:bold;" x="465" y="170">RESULTATBLATT</text>
<text x="1095" y="160">Tour</text>
<text x="1095" y="185">Runde</text>
<text x="1095" y="250">Disputé le</text>
<text x="1095" y="275">Spieldatum</text>
<text x="1095" y="340">Volants</text>
<text x="1095" y="365">Shuttles</text>
<text x="155" y="400">Club recevant - Heimclub</text>
<text x="450" y="400">Nom de l'équipe</text>
<text x="155" y="430">IC</text>
<text x="155" y="455">No</text>
<text x="1220" y="400">Club visiteur - Gastclub</text>
<text x="1515" y="400">Mannschaftsname</text>
<text x="1220" y="430">IC</text>
<text x="1220" y="455">Nr</text>
<text text-anchor="middle" x="2340" y="405">1.</text>
<text text-anchor="middle" x="2340" y="430">Manche</text>
<text text-anchor="middle" x="2340" y="455">Satz</text>
<text text-anchor="middle" x="2460" y="405">2.</text>
<text text-anchor="middle" x="2460" y="430">Manche</text>
<text text-anchor="middle" x="2460" y="455">Satz</text>
<text text-anchor="middle" x="2580" y="405">3.</text>
<text text-anchor="middle" x="2580" y="430">Manche</text>
<text text-anchor="middle" x="2580" y="455">Satz</text>
<text text-anchor="middle" x="2700" y="415">Matches</text>
<text text-anchor="middle" x="2700" y="445">Spiele</text>
<text text-anchor="middle" x="2820" y="415">Manches</text>
<text text-anchor="middle" x="2820" y="445">Sätze</text>

<!-- main table -->
<line x1="75" x2="2880" y1="560" y2="560" />
<line x1="75" x2="2880" y1="650" y2="650" />
<line x1="75" x2="2880" y1="740" y2="740" />
<line x1="75" x2="2880" y1="830" y2="830" class="thick" />
<line x1="75" x2="2880" y1="1010" y2="1010" class="thick" />
<line x1="75" x2="2880" y1="1190" y2="1190" class="thick" />
<line x1="75" x2="2880" y1="1370" y2="1370" class="thick" />
<line x1="250" x2="250" y1="470" y2="1550" />
<line x1="550" x2="550" y1="470" y2="1550" />
<line x1="1310" x2="1310" y1="470" y2="1550" />
<line x1="1610" x2="1610" y1="470" y2="1550" />
<line x1="150" x2="550" y1="920" y2="920"/>
<line x1="550" x2="1215" y1="920" y2="920" class="dotted"/>
<line x1="1215" x2="1610" y1="920" y2="920"/>
<line x1="1610" x2="2280" y1="920" y2="920" class="dotted"/>
<line x1="150" x2="550" y1="1100" y2="1100"/>
<line x1="550" x2="1215" y1="1100" y2="1100" class="dotted"/>
<line x1="1215" x2="1610" y1="1100" y2="1100"/>
<line x1="1610" x2="2280" y1="1100" y2="1100" class="dotted"/>
<line x1="150" x2="550" y1="1280" y2="1280"/>
<line x1="550" x2="1215" y1="1280" y2="1280" class="dotted"/>
<line x1="1215" x2="1610" y1="1280" y2="1280"/>
<line x1="1610" x2="2280" y1="1280" y2="1280" class="dotted"/>
<line x1="150" x2="550" y1="1460" y2="1460"/>
<line x1="550" x2="1215" y1="1460" y2="1460" class="dotted"/>
<line x1="1215" x2="1610" y1="1460" y2="1460"/>
<line x1="1610" x2="2280" y1="1460" y2="1460" class="dotted"/>

<!-- TODO discipline labels -->
<!-- TODO fields for matches -->
<!-- TODO fields for results -->
<!-- TODO extra text -->
<line x1="75" x2="2640" y1="1550" y2="1550" class="thick" />
<line x1="2640" x2="2880" y1="1550" y2="1550" class="verythick" />

<!-- player names -->
<text class="entry">Michael Mustermann</text>




<!-- vertical short lines -->
<line x1="300" x2="300" y1="500" y2="560" />
<line x1="350" x2="350" y1="500" y2="560" />
<line x1="400" x2="400" y1="500" y2="560" />
<line x1="450" x2="450" y1="500" y2="560" />
<line x1="500" x2="500" y1="500" y2="560" />
<line x1="1260" x2="1260" y1="500" y2="560" />
<line x1="1360" x2="1360" y1="500" y2="560" />
<line x1="1410" x2="1410" y1="500" y2="560" />
<line x1="1460" x2="1460" y1="500" y2="560" />
<line x1="1510" x2="1510" y1="500" y2="560" />
<line x1="1560" x2="1560" y1="500" y2="560" />
<line x1="2340" x2="2340" y1="500" y2="560" />
<line x1="2460" x2="2460" y1="500" y2="560" />
<line x1="2580" x2="2580" y1="500" y2="560" />
<line x1="2700" x2="2700" y1="500" y2="560" />
<line x1="2820" x2="2820" y1="500" y2="560" />

<line x1="300" x2="300" y1="590" y2="650" />
<line x1="350" x2="350" y1="590" y2="650" />
<line x1="400" x2="400" y1="590" y2="650" />
<line x1="450" x2="450" y1="590" y2="650" />
<line x1="500" x2="500" y1="590" y2="650" />
<line x1="1260" x2="1260" y1="590" y2="650" />
<line x1="1360" x2="1360" y1="590" y2="650" />
<line x1="1410" x2="1410" y1="590" y2="650" />
<line x1="1460" x2="1460" y1="590" y2="650" />
<line x1="1510" x2="1510" y1="590" y2="650" />
<line x1="1560" x2="1560" y1="590" y2="650" />
<line x1="2340" x2="2340" y1="590" y2="650" />
<line x1="2460" x2="2460" y1="590" y2="650" />
<line x1="2580" x2="2580" y1="590" y2="650" />
<line x1="2700" x2="2700" y1="590" y2="650" />
<line x1="2820" x2="2820" y1="590" y2="650" />

<line x1="300" x2="300" y1="680" y2="740" />
<line x1="350" x2="350" y1="680" y2="740" />
<line x1="400" x2="400" y1="680" y2="740" />
<line x1="450" x2="450" y1="680" y2="740" />
<line x1="500" x2="500" y1="680" y2="740" />
<line x1="1260" x2="1260" y1="680" y2="740" />
<line x1="1360" x2="1360" y1="680" y2="740" />
<line x1="1410" x2="1410" y1="680" y2="740" />
<line x1="1460" x2="1460" y1="680" y2="740" />
<line x1="1510" x2="1510" y1="680" y2="740" />
<line x1="1560" x2="1560" y1="680" y2="740" />
<line x1="2340" x2="2340" y1="680" y2="740" />
<line x1="2460" x2="2460" y1="680" y2="740" />
<line x1="2580" x2="2580" y1="680" y2="740" />
<line x1="2700" x2="2700" y1="680" y2="740" />
<line x1="2820" x2="2820" y1="680" y2="740" />

<line x1="300" x2="300" y1="770" y2="830" />
<line x1="350" x2="350" y1="770" y2="830" />
<line x1="400" x2="400" y1="770" y2="830" />
<line x1="450" x2="450" y1="770" y2="830" />
<line x1="500" x2="500" y1="770" y2="830" />
<line x1="1260" x2="1260" y1="770" y2="830" />
<line x1="1360" x2="1360" y1="770" y2="830" />
<line x1="1410" x2="1410" y1="770" y2="830" />
<line x1="1460" x2="1460" y1="770" y2="830" />
<line x1="1510" x2="1510" y1="770" y2="830" />
<line x1="1560" x2="1560" y1="770" y2="830" />
<line x1="2340" x2="2340" y1="770" y2="830" />
<line x1="2460" x2="2460" y1="770" y2="830" />
<line x1="2580" x2="2580" y1="770" y2="830" />
<line x1="2700" x2="2700" y1="770" y2="830" />
<line x1="2820" x2="2820" y1="770" y2="830" />

<line x1="300" x2="300" y1="860" y2="920" />
<line x1="350" x2="350" y1="860" y2="920" />
<line x1="400" x2="400" y1="860" y2="920" />
<line x1="450" x2="450" y1="860" y2="920" />
<line x1="500" x2="500" y1="860" y2="920" />
<line x1="1260" x2="1260" y1="860" y2="920" />
<line x1="1360" x2="1360" y1="860" y2="920" />
<line x1="1410" x2="1410" y1="860" y2="920" />
<line x1="1460" x2="1460" y1="860" y2="920" />
<line x1="1510" x2="1510" y1="860" y2="920" />
<line x1="1560" x2="1560" y1="860" y2="920" />

<line x1="300" x2="300" y1="950" y2="1010" />
<line x1="350" x2="350" y1="950" y2="1010" />
<line x1="400" x2="400" y1="950" y2="1010" />
<line x1="450" x2="450" y1="950" y2="1010" />
<line x1="500" x2="500" y1="950" y2="1010" />
<line x1="1260" x2="1260" y1="950" y2="1010" />
<line x1="1360" x2="1360" y1="950" y2="1010" />
<line x1="1410" x2="1410" y1="950" y2="1010" />
<line x1="1460" x2="1460" y1="950" y2="1010" />
<line x1="1510" x2="1510" y1="950" y2="1010" />
<line x1="1560" x2="1560" y1="950" y2="1010" />
<line x1="2340" x2="2340" y1="920" y2="1010" />
<line x1="2460" x2="2460" y1="920" y2="1010" />
<line x1="2580" x2="2580" y1="920" y2="1010" />
<line x1="2700" x2="2700" y1="920" y2="1010" />
<line x1="2820" x2="2820" y1="920" y2="1010" />

<line x1="300" x2="300" y1="1040" y2="1100" />
<line x1="350" x2="350" y1="1040" y2="1100" />
<line x1="400" x2="400" y1="1040" y2="1100" />
<line x1="450" x2="450" y1="1040" y2="1100" />
<line x1="500" x2="500" y1="1040" y2="1100" />
<line x1="1260" x2="1260" y1="1040" y2="1100" />
<line x1="1360" x2="1360" y1="1040" y2="1100" />
<line x1="1410" x2="1410" y1="1040" y2="1100" />
<line x1="1460" x2="1460" y1="1040" y2="1100" />
<line x1="1510" x2="1510" y1="1040" y2="1100" />
<line x1="1560" x2="1560" y1="1040" y2="1100" />

<line x1="300" x2="300" y1="1130" y2="1190" />
<line x1="350" x2="350" y1="1130" y2="1190" />
<line x1="400" x2="400" y1="1130" y2="1190" />
<line x1="450" x2="450" y1="1130" y2="1190" />
<line x1="500" x2="500" y1="1130" y2="1190" />
<line x1="1260" x2="1260" y1="1130" y2="1190" />
<line x1="1360" x2="1360" y1="1130" y2="1190" />
<line x1="1410" x2="1410" y1="1130" y2="1190" />
<line x1="1460" x2="1460" y1="1130" y2="1190" />
<line x1="1510" x2="1510" y1="1130" y2="1190" />
<line x1="1560" x2="1560" y1="1130" y2="1190" />
<line x1="2340" x2="2340" y1="1110" y2="1190" />
<line x1="2460" x2="2460" y1="1110" y2="1190" />
<line x1="2580" x2="2580" y1="1110" y2="1190" />
<line x1="2700" x2="2700" y1="1110" y2="1190" />
<line x1="2820" x2="2820" y1="1110" y2="1190" />

<line x1="300" x2="300" y1="1220" y2="1280" />
<line x1="350" x2="350" y1="1220" y2="1280" />
<line x1="400" x2="400" y1="1220" y2="1280" />
<line x1="450" x2="450" y1="1220" y2="1280" />
<line x1="500" x2="500" y1="1220" y2="1280" />
<line x1="1260" x2="1260" y1="1220" y2="1280" />
<line x1="1360" x2="1360" y1="1220" y2="1280" />
<line x1="1410" x2="1410" y1="1220" y2="1280" />
<line x1="1460" x2="1460" y1="1220" y2="1280" />
<line x1="1510" x2="1510" y1="1220" y2="1280" />
<line x1="1560" x2="1560" y1="1220" y2="1280" />

<line x1="300" x2="300" y1="1310" y2="1370" />
<line x1="350" x2="350" y1="1310" y2="1370" />
<line x1="400" x2="400" y1="1310" y2="1370" />
<line x1="450" x2="450" y1="1310" y2="1370" />
<line x1="500" x2="500" y1="1310" y2="1370" />
<line x1="1260" x2="1260" y1="1310" y2="1370" />
<line x1="1360" x2="1360" y1="1310" y2="1370" />
<line x1="1410" x2="1410" y1="1310" y2="1370" />
<line x1="1460" x2="1460" y1="1310" y2="1370" />
<line x1="1510" x2="1510" y1="1310" y2="1370" />
<line x1="1560" x2="1560" y1="1310" y2="1370" />
<line x1="2340" x2="2340" y1="1290" y2="1370" />
<line x1="2460" x2="2460" y1="1290" y2="1370" />
<line x1="2580" x2="2580" y1="1290" y2="1370" />
<line x1="2700" x2="2700" y1="1290" y2="1370" />
<line x1="2820" x2="2820" y1="1290" y2="1370" />

<line x1="300" x2="300" y1="1400" y2="1460" />
<line x1="350" x2="350" y1="1400" y2="1460" />
<line x1="400" x2="400" y1="1400" y2="1460" />
<line x1="450" x2="450" y1="1400" y2="1460" />
<line x1="500" x2="500" y1="1400" y2="1460" />
<line x1="1260" x2="1260" y1="1400" y2="1460" />
<line x1="1360" x2="1360" y1="1400" y2="1460" />
<line x1="1410" x2="1410" y1="1400" y2="1460" />
<line x1="1460" x2="1460" y1="1400" y2="1460" />
<line x1="1510" x2="1510" y1="1400" y2="1460" />
<line x1="1560" x2="1560" y1="1400" y2="1460" />

<line x1="300" x2="300" y1="1490" y2="1550" />
<line x1="350" x2="350" y1="1490" y2="1550" />
<line x1="400" x2="400" y1="1490" y2="1550" />
<line x1="450" x2="450" y1="1490" y2="1550" />
<line x1="500" x2="500" y1="1490" y2="1550" />
<line x1="1260" x2="1260" y1="1490" y2="1550" />
<line x1="1360" x2="1360" y1="1490" y2="1550" />
<line x1="1410" x2="1410" y1="1490" y2="1550" />
<line x1="1460" x2="1460" y1="1490" y2="1550" />
<line x1="1510" x2="1510" y1="1490" y2="1550" />
<line x1="1560" x2="1560" y1="1490" y2="1550" />
<line x1="2340" x2="2340" y1="1460" y2="1550" />
<line x1="2460" x2="2460" y1="1460" y2="1550" />
<line x1="2580" x2="2580" y1="1460" y2="1550" />
<line x1="2700" x2="2700" y1="1460" y2="1550" />
<line x1="2820" x2="2820" y1="1460" y2="1550" />



<!-- footer -->
<line x1="75" x2="2640" y1="1640" y2="1640" class="thick" />
<line x1="2640" x2="2880" y1="1640" y2="1640" class="verythick" />

<!--TODO Total etc. footer -->
<!--TODO Original / Kopie -->
<!--TODO Due text -->



<g id="yonex-logo" transform="matrix(3,0,0,3,2265,120)">
    <path
       style="fill:#1d9533;fill-opacity:1;fill-rule:nonzero;stroke:none"
       d="M 0,27.208 H 130.044 V 15.071 l 13.401,25.352 V 27.208 H 205.51 V 54.815 H 0 Z"
       />
    <path
       style="fill:#0b50a1;fill-opacity:1;fill-rule:nonzero;stroke:none"
       d="M 143.445,27.414 H 205.51 V 0 H 0 V 27.414 H 130.044 V 15.279 l 13.401,25.349 z"
       />
    <path
       style="fill:#feffff;fill-opacity:1;fill-rule:nonzero;stroke:none"
       d="m 46.481,44.493 c 5.215,0 9.483,-4.244 9.483,-9.503 0,-5.239 -4.268,-9.482 -9.483,-9.482 -5.2585,0 -9.4773,4.243 -9.4773,9.482 0,5.259 4.2188,9.503 9.4773,9.503"
       />
    <path
       style="fill:#feffff;fill-opacity:1;fill-rule:nonzero;stroke:none"
       d="M 72.065,11.254 H 44.641 c 8.179,4.735 13.714,13.601 13.714,23.739 l 13.71,-23.737 z"
       />
    <path
       style="fill:#feffff;fill-opacity:1;fill-rule:nonzero;stroke:none"
       d="M 44.644,11.254 H 17.2212 c 8.2225,4.735 13.7113,13.601 13.7113,23.739 L 44.644,11.256 Z"
       />
    <path
       style="fill:#feffff;fill-opacity:1;fill-rule:nonzero;stroke:none"
       d="m 19.07,44.493 c 5.2637,0 9.48,-4.244 9.48,-9.503 0,-5.239 -4.2163,-9.482 -9.48,-9.482 -5.2513,0 -9.4775,4.243 -9.4775,9.482 0,5.259 4.2262,9.503 9.4775,9.503"
       />
    <path
       style="fill:#feffff;fill-opacity:1;fill-rule:nonzero;stroke:none"
       d="m 117.004,27.434 c 0,-2.964 -0.21,-4.45 -0.21,-5.314 0,-3.072 -0.81,-6.004 -4.291,-6.004 -3.666,0 -4.25,2.869 -4.25,6.004 0,0.824 -0.197,2.404 -0.197,5.314 0,2.832 0.174,4.676 0.189,5.391 0.09,4.404 1.514,6.011 4.211,6.011 2.703,0 4.291,-1.503 4.34,-6.061 0,-0.787 0.208,-2.191 0.208,-5.341 m 6.124,0.05 c 0,2.144 -0.174,4.531 -0.238,5.288 -0.539,6.617 -2.229,11.727 -10.387,11.727 -7.874,0 -9.937,-5.323 -10.379,-11.727 -0.02,-0.388 -0.257,-2.456 -0.257,-5.342 0,-2.591 0.213,-4.641 0.262,-5.313 0.437,-5.929 2.182,-11.672 10.373,-11.672 8.687,0 10.008,5.495 10.408,11.672 0.04,0.617 0.217,2.879 0.217,5.367"
       />
    <path
       style="fill:#feffff;fill-opacity:1;fill-rule:nonzero;stroke:none"
       d="M 96.122,11.248 90.945,22.636 86.091,11.248 h -6.447 l 8.264,19.136 v 13.322 h 5.901 V 30.335 l 8.727,-19.087 z"
       />
    <path
       style="fill:#feffff;fill-opacity:1;fill-rule:nonzero;stroke:none"
       d="m 150.666,11.254 v 32.447 h 17.17 V 37.838 H 156.57 V 30.32 h 10.241 v -5.835 -0.04 h -0.04 -10.182 v -7.311 h 11.24 v -5.88 h -17.17 z"
       />
    <path
       style="fill:#feffff;fill-opacity:1;fill-rule:nonzero;stroke:none"
       d="m 183.911,27.424 7.785,-16.168 h -6.516 -0.03 l -0.04,0.02 -4.479,9.358 -4.534,-9.381 h -6.509 l 7.773,16.165 -7.844,16.275 h 6.484 l 4.625,-9.535 4.577,9.535 h 6.54 l -7.844,-16.278 z"
       />
    <path
       style="fill:#feffff;fill-opacity:1;fill-rule:nonzero;stroke:none"
       d="m 140.54,11.251 v 17.65 l -8.514,-17.65 h -5.241 V 43.71 h 5.9 V 26.101 l 8.477,17.607 h 5.273 V 11.251 h -5.898 z"
       />
    <path
       style="fill:#feffff;fill-opacity:1;fill-rule:nonzero;stroke:none"
       d="m 194.975,38.733 h 1.565 c 0.557,0 1.101,0.1 1.147,0.921 0.02,0.47 -0.112,0.632 -0.471,0.881 0.366,0.233 0.409,0.329 0.418,0.923 0,0.453 0.04,0.622 0.193,0.741 v 0.112 h -0.557 c -0.06,-0.166 -0.09,-0.312 -0.1,-0.452 -0.04,-0.426 0.169,-1.095 -0.588,-1.095 h -1.136 v 1.547 h -0.466 v -3.582 z m 0.466,0.411 v 1.22 h 1.114 c 0.305,0 0.612,-0.07 0.661,-0.533 0.06,-0.612 -0.377,-0.687 -0.666,-0.687 z m 0.848,4.415 c 1.648,0 3.01,-1.361 3.01,-3.036 0,-1.65 -1.362,-3.013 -3.01,-3.013 -1.65,0 -3.013,1.363 -3.013,3.013 0,1.675 1.363,3.036 3.013,3.036 m -3.335,-3.036 c 0,-1.832 1.506,-3.338 3.335,-3.338 1.828,0 3.335,1.506 3.335,3.338 0,1.852 -1.507,3.361 -3.335,3.361 -1.829,0 -3.335,-1.509 -3.335,-3.361"
       />
</g>

</svg>
