<svg xmlns="http://www.w3.org/2000/svg" version="1.1" viewBox="0 0 210 297">
<style>
text {
	font-family: Arial,Helvetica;
}
.setupsheet_normal {
	font-size: 4px;
}

.thin {
	stroke: #000;
	stroke-width: 0.1;
}
.thick {
	stroke: #000;
	stroke-width: 0.5;
}
.x {
	text-anchor: middle;
}
</style>

<!-- top block -->
<text x="25" y="23" class="setupsheet_normal" data-fill-id="tournament_name"></text>
<text x="25" y="28.5" class="setupsheet_normal" data-fill-id="event_name"></text>
<text x="25" y="34" class="setupsheet_normal" data-fill-id="setup_desc"></text>
<text x="25" y="44" style="font-size: 8px;" data-fill-id="team_name"></text>
<text x="155" y="23" class="setupsheet_normal" data-fill-id="date" text-anchor="end"></text>

<g data-fill-id="vlines_m">
	<line class="thick" x1="25" x2="25" y1="60" y2="76" />
	<line class="thin" x1="35" x2="35" y1="68" y2="76" />
	<line class="thick" x1="113" x2="113" y1="60" y2="76" />
	<line class="thin" x1="123" x2="123" y1="60" y2="76" />
	<line class="thin" x1="133" x2="133" y1="60" y2="76" />
	<line class="thin" x1="143" x2="143" y1="60" y2="76" />
	<line class="thin" x1="153" x2="153" y1="60" y2="76" />
	<line class="thin" x1="163" x2="163" y1="60" y2="76" />
	<line class="thick" x1="173" x2="173" y1="60" y2="76" />
	<line class="thick" x1="175" x2="175" y1="60" y2="76" />
	<line class="thick" x1="185" x2="185" y1="60" y2="76" />
</g>
<g data-fill-id="fixed_m">
	<text class="setupsheet_normal" x="37" y="65.5" data-fill-id="header"></text>
	<text class="setupsheet_normal" x="118" y="65.5" text-anchor="middle" data-fill-id="d-0"></text>
	<text class="setupsheet_normal" x="128" y="65.5" text-anchor="middle" data-fill-id="d-1"></text>
	<text class="setupsheet_normal" x="138" y="65.5" text-anchor="middle" data-fill-id="d-2"></text>
	<text class="setupsheet_normal" x="148" y="65.5" text-anchor="middle" data-fill-id="d-3"></text>
	<text class="setupsheet_normal" x="158" y="65.5" text-anchor="middle" data-fill-id="d-4"></text>
	<text class="setupsheet_normal" x="168" y="65.5" text-anchor="middle" data-fill-id="d-5"></text>
	<text class="setupsheet_normal" x="180" y="65.5" text-anchor="middle" data-fill-id="d-6"></text>
	<line class="thick" x1="25" x2="173" y1="60" y2="60" />
	<line class="thick" x1="25" x2="173" y1="68" y2="68" />
	<line class="thick" x1="175" x2="185" y1="60" y2="60" />
	<line class="thick" x1="175" x2="185" y1="68" y2="68" />
</g>
<g data-fill-id="template_m" data-fill-height="8">
	<text class="setupsheet_normal" text-anchor="middle" x="30.0" y="73.5" data-fill-id="idx"></text>
	<text class="setupsheet_normal" x="37" y="73.5" data-fill-id="name"></text>
	<text class="setupsheet_normal" x="118" y="73.5" text-anchor="middle" data-fill-id="x_0"></text>
	<text class="setupsheet_normal" x="128" y="73.5" text-anchor="middle" data-fill-id="x_1"></text>
	<text class="setupsheet_normal" x="138" y="73.5" text-anchor="middle" data-fill-id="x_2"></text>
	<text class="setupsheet_normal" x="148" y="73.5" text-anchor="middle" data-fill-id="x_3"></text>
	<text class="setupsheet_normal" x="158" y="73.5" text-anchor="middle" data-fill-id="x_4"></text>
	<text class="setupsheet_normal" x="168" y="73.5" text-anchor="middle" data-fill-id="x_5"></text>
	<text class="setupsheet_normal" x="180" y="73.5" text-anchor="middle" data-fill-id="x_6"></text>
	<line class="thin" x1="25" x2="173" y1="76" y2="76" data-fill-id="bottom_line" />
	<line class="thin" x1="175" x2="185" y1="76" y2="76" data-fill-id="bottom_line" />
</g>

<g data-fill-id="vlines_f">
	<rect fill="#c0c0c0" x="113" width="30" y="95" height="16" />
	<line class="thick" x1="25" x2="25" y1="95" y2="111" />
	<line class="thin" x1="35" x2="35" y1="103" y2="111" />
	<line class="thick" x1="113" x2="113" y1="95" y2="111" />
	<line class="thin" x1="123" x2="123" y1="95" y2="111" />
	<line class="thin" x1="133" x2="133" y1="95" y2="111" />
	<line class="thin" x1="143" x2="143" y1="95" y2="111" />
	<line class="thin" x1="153" x2="153" y1="95" y2="111" />
	<line class="thin" x1="163" x2="163" y1="95" y2="111" />
	<line class="thick" x1="173" x2="173" y1="95" y2="111" />
	<line class="thick" x1="175" x2="175" y1="95" y2="111" />
	<line class="thick" x1="185" x2="185" y1="95" y2="111" />
</g>
<g data-fill-id="fixed_f">
	<text style="font-size: 2px;" x="180" y="78" text-anchor="middle" data-fill-id="label_backup_m"></text>

	<text class="setupsheet_normal" x="37" y="100.5" data-fill-id="header"></text>
	<text class="setupsheet_normal" x="138" y="100.5" text-anchor="middle" data-fill-id="d-2"></text>
	<text class="setupsheet_normal" x="148" y="100.5" text-anchor="middle" data-fill-id="d-3"></text>
	<text class="setupsheet_normal" x="158" y="100.5" text-anchor="middle" data-fill-id="d-4"></text>
	<text class="setupsheet_normal" x="168" y="100.5" text-anchor="middle" data-fill-id="d-5"></text>
	<text class="setupsheet_normal" x="180" y="100.5" text-anchor="middle" data-fill-id="d-6"></text>
	<line class="thick" x1="25" x2="173" y1="95" y2="95" />
	<line class="thick" x1="25" x2="173" y1="103" y2="103" />
	<line class="thick" x1="175" x2="185" y1="95" y2="95" />
	<line class="thick" x1="175" x2="185" y1="103" y2="103" />
</g>
<g data-fill-id="template_f" data-fill-height="8">
	<text class="setupsheet_normal" text-anchor="middle" x="30.0" y="108.5" data-fill-id="idx"></text>
	<text class="setupsheet_normal" x="37" y="108.5" data-fill-id="name"></text>
	<text class="setupsheet_normal" x="138" y="108.5" text-anchor="middle" data-fill-id="x_2"></text>
	<text class="setupsheet_normal" x="148" y="108.5" text-anchor="middle" data-fill-id="x_3"></text>
	<text class="setupsheet_normal" x="158" y="108.5" text-anchor="middle" data-fill-id="x_4"></text>
	<text class="setupsheet_normal" x="168" y="108.5" text-anchor="middle" data-fill-id="x_5"></text>
	<text class="setupsheet_normal" x="180" y="108.5" text-anchor="middle" data-fill-id="x_6"></text>
	<line class="thin" x1="25" x2="173" y1="111" y2="111" data-fill-id="bottom_line" />
	<line class="thin" x1="175" x2="185" y1="111" y2="111" data-fill-id="bottom_line" />
</g>


<!-- teamster -->
<g data-fill-id="lower">
	<text style="font-size: 2px;" x="180" y="113" text-anchor="middle" data-fill-id="label_backup_f"></text>

	<text x="37" y="130" class="setupsheet_normal" data-fill-id="teamster_label"></text>
	<text x="115" y="130" class="setupsheet_normal" data-fill-id="signature"></text>
	<line class="thick" x1="35" x2="163" y1="132" y2="132" />
	<line class="thick" x1="35" x2="35" y1="132" y2="140" />
	<line class="thick" x1="113" x2="113" y1="132" y2="140" />
	<line class="thick" x1="163" x2="163" y1="132" y2="140" />
	<line class="thick" x1="35" x2="163" y1="140" y2="140" />
</g>

<!-- NLA logo -->
<path style="fill:#e2262d;fill-opacity:1;fill-rule:evenodd;stroke:none;stroke-width:0.0060512" d="m 169.83575,27.80315 c 0.0205,-0.0153 0.0419,-0.03143 0.0634,-0.04748 -0.013,-0.01236 -0.03,-0.03724 -0.0381,-0.03468 -0.0271,0.0088 -0.051,0.02737 -0.0759,0.04222 0.0146,0.01154 0.0291,0.02306 0.0505,0.04002 z m 3.45263,8.194472 c 0,0.19987 -5.5e-4,0.399679 4.4e-4,0.599549 2.3e-4,0.0511 0.008,0.0984 0.0772,0.09948 0.066,7.04e-4 0.0871,-0.03806 0.0871,-0.09337 6.2e-4,-0.399741 2.5e-4,-0.799426 -4.8e-4,-1.199165 -1.2e-4,-0.05336 -0.0152,-0.09761 -0.0808,-0.09967 -0.0933,-0.003 -0.0829,0.06686 -0.0835,0.123689 -0.003,0.18983 -7e-4,0.379652 6e-5,0.569482 z m 2.94445,-0.692139 c 1.2e-4,0.02352 1.9e-4,0.04711 2.5e-4,0.07063 0.19847,0 0.39768,0.01101 0.59513,-0.0038 0.15758,-0.01161 0.21216,0.03572 0.20677,0.196666 -0.0107,0.321802 -0.005,0.644269 -0.003,0.966439 5.5e-4,0.06197 -0.038,0.161444 0.0728,0.163623 0.10184,0.0022 0.086,-0.08919 0.086,-0.157938 0,-0.312057 0.008,-0.624484 -0.004,-0.936058 -0.007,-0.17434 0.0252,-0.258691 0.22717,-0.23412 0.18309,0.02239 0.37105,0.0046 0.55688,0.0046 -0.002,-0.02345 -0.003,-0.04704 -0.005,-0.07048 -0.57795,0 -1.15602,0 -1.7341,0 z m -7.89716,1.400791 c 0,-0.003 0,-0.0068 0,-0.01005 0.24106,0 0.48335,0.01492 0.72298,-0.0038 0.31897,-0.02473 0.4153,-0.145592 0.41554,-0.464192 1.2e-4,-0.140686 1.8e-4,-0.281379 7.1e-4,-0.422073 0.002,-0.373298 -0.0868,-0.483669 -0.46795,-0.500491 -0.4419,-0.01944 -0.88511,-0.0068 -1.32763,-0.01553 -0.15376,-0.003 -0.21022,0.0468 -0.20436,0.207496 0.0117,0.322165 0.0153,0.645724 -0.003,0.967346 -0.0118,0.210037 0.069,0.259414 0.26008,0.244709 0.19999,-0.01537 0.40205,-0.0038 0.60319,-0.0038 z m 5.7911,-1.277651 c 0.55545,0.427643 1.05007,0.806872 1.54221,1.189244 0.0739,0.0575 0.1531,0.126893 0.24103,0.08586 0.086,-0.0401 0.0365,-0.144809 0.0377,-0.219233 0.004,-0.342019 0.003,-0.684269 7e-4,-1.026408 -1.2e-4,-0.05653 0.0231,-0.138876 -0.0571,-0.146316 -0.11866,-0.011 -0.0774,0.0996 -0.0785,0.153275 -0.007,0.34571 -0.004,0.691594 -0.004,1.075482 -0.0957,-0.06106 -0.15576,-0.09344 -0.20919,-0.1344 -0.43883,-0.336568 -0.87543,-0.676037 -1.3154,-1.011031 -0.0766,-0.05819 -0.15952,-0.150069 -0.26723,-0.08454 -0.0931,0.0566 -0.0487,0.166773 -0.0501,0.251914 -0.005,0.322527 -0.002,0.645121 1.2e-4,0.967706 3.6e-4,0.06791 -0.0166,0.159446 0.0832,0.163683 0.11846,0.0053 0.073,-0.09821 0.0737,-0.156363 0.004,-0.348485 0.003,-0.697099 0.003,-1.108882 z m -9.28215,1.244856 c 0.10329,0.05728 0.18059,0.04176 0.2104,-0.02653 0.17121,-0.392112 0.51141,-0.342252 0.83891,-0.335174 0.18058,0.0038 0.36314,0.01703 0.54141,-0.003 0.22692,-0.026 0.3834,0.04545 0.49661,0.24416 0.0537,0.09428 0.11843,0.219059 0.27521,0.116791 -0.33262,-0.426368 -0.65892,-0.843662 -0.98404,-1.26186 -0.0994,-0.127797 -0.21663,-0.203865 -0.34147,-0.0496 -0.34976,0.432121 -0.68911,0.872704 -1.03703,1.315595 z m -1.38008,0.03083 c 0,-0.003 1e-5,-0.006 1e-5,-0.0091 0.24082,0 0.48198,0.0082 0.72223,-0.003 0.1562,-0.0075 0.31072,-0.06738 0.36022,-0.228315 0.0429,-0.139782 0.0654,-0.30008 -0.0968,-0.405008 -0.0316,-0.02042 -0.0793,-0.0251 -0.0293,-0.102871 0.26879,-0.416985 0.15093,-0.636949 -0.35439,-0.6551 -0.43117,-0.01553 -0.86336,-7.03e-4 -1.29478,-0.01183 -0.16562,-0.0038 -0.20424,0.06241 -0.1984,0.213912 0.0102,0.261172 0.002,0.522946 0.003,0.784479 7e-4,0.416683 0.002,0.416744 0.4079,0.416744 0.16046,0 0.3209,0 0.48139,0 z m 17.3919,-1.259735 c 0.12458,0.08925 0.20592,0.143836 0.28326,0.203503 0.42103,0.324341 0.83978,0.651775 1.26288,0.973458 0.0664,0.05043 0.1324,0.138686 0.23816,0.07986 0.0929,-0.05155 0.0544,-0.141477 0.0549,-0.217235 0.003,-0.340925 0.002,-0.68191 0.002,-1.022836 -7e-5,-0.06768 0.0216,-0.157757 -0.0821,-0.16139 -0.11916,-0.0046 -0.0748,0.09918 -0.0754,0.156845 -0.005,0.347952 -0.003,0.696074 -0.003,1.037301 -0.0992,0.0315 -0.13458,-0.03249 -0.17736,-0.0652 -0.45445,-0.347037 -0.90574,-0.69819 -1.35886,-1.046916 -0.0697,-0.05367 -0.14203,-0.13216 -0.23806,-0.08654 -0.0934,0.0444 -0.0437,0.143597 -0.0447,0.217305 -0.004,0.341045 -0.004,0.68221 -7.1e-4,1.023255 5e-4,0.06286 -0.0381,0.165017 0.0693,0.164837 0.11104,-1.89e-4 0.0648,-0.110981 0.0659,-0.166713 0.007,-0.347159 0.004,-0.694558 0.004,-1.089579 z m -1.63983,-0.147168 c -0.12053,0 -0.24137,-0.006 -0.36137,7.04e-4 -0.55597,0.03234 -0.61377,0.09422 -0.61426,0.644569 -1.2e-4,0.120539 0.005,0.241265 5.5e-4,0.361562 -0.008,0.191156 0.0817,0.308182 0.26475,0.343646 0.47561,0.09204 0.95245,0.09761 1.42734,-0.0061 0.17149,-0.03731 0.23751,-0.152368 0.24745,-0.326822 0.0554,-0.973216 0.009,-1.024772 -0.96446,-1.018237 z m -8.59953,3.519987 c 0,0.22117 0.0157,0.443847 -0.004,0.663209 -0.0199,0.217237 0.0812,0.239931 0.26056,0.23981 0.17475,-1.2e-4 0.24981,-0.03293 0.24265,-0.23176 -0.0157,-0.44035 -0.012,-0.881907 7e-4,-1.322492 0.005,-0.180506 -0.0395,-0.251675 -0.23206,-0.243324 -0.16694,0.0075 -0.29361,-5.42e-4 -0.27212,0.23134 0.0203,0.219301 0.004,0.441918 0.005,0.663217 z m 1.99725,-3.352672 c 0,0.390242 -0.003,0.719432 0.003,1.048491 0.002,0.06836 -0.0493,0.190313 0.0796,0.184561 0.1154,-0.0053 0.0781,-0.120477 0.0782,-0.194728 2.4e-4,-0.322284 -0.004,-0.64451 -0.005,-0.966734 -3.5e-4,-0.08817 0.0446,-0.20804 -0.0536,-0.246345 -0.10506,-0.04094 -0.17954,0.06588 -0.24671,0.138025 -0.29458,0.316482 -0.59944,0.624845 -0.87404,0.957968 -0.14003,0.169795 -0.21379,0.211854 -0.37578,0.02419 -0.30891,-0.357931 -0.64342,-0.693835 -0.96923,-1.036998 -0.0465,-0.04892 -0.093,-0.11836 -0.17639,-0.08859 -0.0917,0.0327 -0.059,0.118662 -0.0596,0.183357 -0.003,0.342792 -0.005,0.685654 0.002,1.028335 0.002,0.06942 -0.0541,0.190555 0.0568,0.201084 0.14534,0.01395 0.0954,-0.120177 0.0994,-0.200602 0.0156,-0.313389 -0.0265,-0.629802 0.0333,-0.991907 0.33353,0.361073 0.63156,0.685663 0.93181,1.008188 0.24521,0.263351 0.28157,0.262558 0.51418,0.0076 0.30492,-0.33445 0.61015,-0.668477 0.96384,-1.055938 z m -3.3014,2.462291 c 0,5.52e-4 0,7.06e-4 0,0.0016 -0.28126,0 -0.56258,0.003 -0.84378,-0.0016 -0.11286,-0.0022 -0.16647,0.03391 -0.16479,0.154187 0.002,0.112373 0.0611,0.131557 0.15444,0.128467 0.12047,-0.0038 0.24296,0.01213 0.36137,-0.0038 0.19679,-0.02676 0.23498,0.06 0.22789,0.236908 -0.0133,0.331178 0.003,0.663331 -0.008,0.994696 -0.005,0.182625 0.004,0.296689 0.24621,0.285556 0.21688,-0.0099 0.30892,-0.04621 0.27442,-0.290221 -0.029,-0.205733 0.006,-0.419946 0.006,-0.630406 -4.1e-4,-0.561922 -0.003,-0.561492 0.55587,-0.593142 0.0826,-0.0046 0.18354,0.03105 0.18716,-0.120477 0.003,-0.143536 -0.065,-0.165378 -0.18352,-0.163321 -0.27122,0.0046 -0.54256,0.0016 -0.81384,0.0016 z m 12.75,1.786985 c 0.27017,0 0.48173,7.05e-4 0.69334,-4.29e-4 0.0951,-6.22e-4 0.20597,0.0346 0.20791,-0.132575 0.003,-0.165567 -0.1074,-0.139058 -0.20441,-0.13991 -0.37269,-0.003 -0.74557,-0.01296 -1.11795,-0.0038 -0.27872,0.0067 -0.40387,-0.08817 -0.37954,-0.388432 0.0252,-0.310422 -0.005,-0.624906 0.009,-0.93672 0.0101,-0.215729 -0.12436,-0.188857 -0.25403,-0.183295 -0.1203,0.0053 -0.27606,-0.0542 -0.27183,0.169855 0.007,0.36114 -0.003,0.722575 -1.7e-4,1.083895 0.002,0.224803 0.10226,0.367848 0.32888,0.446155 0.34559,0.119393 0.69776,0.07063 0.98913,0.08526 z m -13.72273,-0.0097 c -0.3733,-0.522403 -0.71986,-1.009463 -1.06865,-1.494887 -0.28252,-0.393205 -0.66381,-0.39466 -0.95076,-0.0016 -0.31927,0.436959 -0.63544,0.876216 -0.94968,1.316802 -0.0358,0.05019 -0.11395,0.09712 -0.0403,0.198963 0.16933,-0.06338 0.4066,0.10499 0.53574,-0.13204 0.12773,-0.23448 0.32192,-0.253423 0.55229,-0.244039 0.31103,0.0126 0.62285,0.0038 0.9343,0.0038 0.0902,6.1e-5 0.19497,-0.01492 0.23733,0.08708 0.13754,0.330756 0.41565,0.28719 0.74974,0.266252 z m 9.1079,-0.03912 c 0.0124,0.02193 0.0247,0.04372 0.0373,0.06558 0.18002,-0.07872 0.42944,0.106263 0.55191,-0.122835 0.13726,-0.256695 0.33736,-0.271703 0.5779,-0.258685 0.2009,0.01085 0.40404,0.01559 0.6041,-0.0016 0.31973,-0.02697 0.57624,0.01538 0.74434,0.348244 0.0905,0.179239 0.29222,0.08048 0.44737,0.02344 0.1301,-0.04787 0.0376,-0.107286 0.004,-0.154365 -0.34189,-0.484158 -0.67616,-0.974362 -1.03378,-1.446656 -0.21034,-0.277874 -0.60192,-0.28435 -0.81098,-0.0099 -0.38764,0.508603 -0.74968,1.036689 -1.12238,1.556612 z m -4.48775,0.04779 c 0.25172,0.0067 0.50237,0.0038 0.75059,-0.04892 0.36307,-0.07734 0.47441,-0.208462 0.47598,-0.574561 7e-4,-0.161083 4.8e-4,-0.322164 4.3e-4,-0.483308 0,-0.428486 -0.12339,-0.580915 -0.55073,-0.633375 -0.45965,-0.05653 -0.92262,-0.05111 -1.38215,3e-4 -0.42583,0.04771 -0.54757,0.200473 -0.54872,0.635797 -4.2e-4,0.161082 0.0103,0.322895 -0.002,0.483194 -0.0196,0.27672 0.12089,0.430294 0.36404,0.51907 0.28937,0.105593 0.58939,0.1134 0.8917,0.101838 z m -6.32756,-6.536324 c 0.20561,0.03595 0.40651,0.03761 0.33112,-0.314475 -0.0435,-0.202659 0.0584,-0.289738 0.27267,-0.247077 0.24017,0.04771 0.32592,-0.06995 0.28809,-0.300562 -0.008,-0.04892 -0.008,-0.101353 0,-0.150431 0.042,-0.267035 -0.0489,-0.400833 -0.3368,-0.348674 -0.16793,0.03037 -0.26136,-0.05426 -0.22874,-0.211062 0.0661,-0.317807 -0.11055,-0.35 -0.34946,-0.335053 -0.0801,0.0053 -0.16187,0.0099 -0.24095,6e-5 -0.18741,-0.02352 -0.26336,0.04968 -0.22541,0.23642 0.0507,0.249676 -0.05,0.352538 -0.30075,0.310728 -0.19502,-0.03241 -0.28011,0.04394 -0.24979,0.245435 0.0103,0.06882 0.009,0.141356 1.8e-4,0.210647 -0.0302,0.24967 0.0226,0.405068 0.32786,0.347641 0.12035,-0.02269 0.27714,-0.05653 0.18643,0.192302 -0.03,0.08236 -0.0405,0.255669 0.053,0.364833 0.0936,0.109406 0.18783,-0.04017 0.28665,-0.0038 0.0442,0.01635 0.0995,0.003 0.18594,0.003 z m -2.12664,6.189777 c -0.0987,-0.113159 -0.15671,-0.176036 -0.2106,-0.242231 -0.27222,-0.334267 -0.54087,-0.671507 -0.81569,-1.003651 -0.19407,-0.234549 -0.44602,-0.243624 -0.71147,-0.155338 -0.25057,0.08333 -0.18706,0.300803 -0.18987,0.483496 -0.005,0.341769 0.009,0.684208 -0.008,1.025314 -0.0102,0.208582 0.0726,0.248092 0.26142,0.247188 0.19476,-7.03e-4 0.29266,-0.03173 0.28003,-0.260318 -0.0195,-0.351756 -0.005,-0.70545 -0.005,-1.131396 0.12722,0.154667 0.19706,0.239509 0.26687,0.324402 0.24228,0.294819 0.48145,0.592229 0.72777,0.883475 0.19656,0.232492 0.45498,0.229462 0.71686,0.153281 0.26219,-0.07625 0.17635,-0.305467 0.18071,-0.481859 0.009,-0.360952 -0.0101,-0.722696 0.003,-1.083405 0.007,-0.196787 -0.0932,-0.206524 -0.24098,-0.197933 -0.1409,0.0081 -0.27129,-0.01621 -0.26021,0.208764 0.0191,0.387401 0.005,0.776549 0.005,1.230211 z m 10.77053,-1.040141 c 0.10232,0.122597 0.15909,0.189944 0.21512,0.257902 0.2622,0.317806 0.52676,0.633737 0.78533,0.954394 0.20823,0.25808 0.4968,0.225043 0.74993,0.159024 0.22304,-0.05819 0.15798,-0.307949 0.16175,-0.486517 0.007,-0.349336 -0.008,-0.699336 0.005,-1.048431 0.007,-0.186439 -0.0522,-0.251005 -0.23943,-0.238778 -0.15964,0.01039 -0.29488,-0.0096 -0.28308,0.22898 0.0187,0.375475 0.005,0.752588 0.005,1.205156 -0.122,-0.143112 -0.19231,-0.222566 -0.25936,-0.304558 -0.26087,-0.318899 -0.51272,-0.645541 -0.7835,-0.955606 -0.18801,-0.21518 -0.43823,-0.221594 -0.69257,-0.131069 -0.24724,0.08805 -0.18268,0.303954 -0.18493,0.486999 -0.004,0.350603 0.009,0.701756 -0.006,1.051756 -0.0108,0.251613 0.1531,0.200902 0.29906,0.21083 0.15194,0.01033 0.24053,-0.01062 0.23231,-0.203504 -0.0157,-0.3713 -0.005,-0.743753 -0.005,-1.186578 z m -10.96305,5.140502 c 0.25196,0 0.50528,-0.0159 0.75554,0.0046 0.22442,0.01838 0.23317,-0.08666 0.23474,-0.265708 0.002,-0.189151 -0.0334,-0.26794 -0.24503,-0.260501 -0.46184,0.01635 -0.92466,0.0022 -1.38699,0.006 -0.16178,0.0016 -0.23451,-0.04492 -0.22163,-0.227283 0.0184,-0.260019 0.004,-0.522336 0.004,-0.783627 -1.8e-4,-0.732623 5e-5,-0.726389 -0.74234,-0.704425 -0.16552,0.0053 -0.20207,0.0597 -0.19923,0.21089 0.008,0.443124 0.003,0.886557 0.004,1.32981 0.003,0.408868 0.13013,0.561734 0.53231,0.631816 0.41875,0.07289 0.84184,0.0606 1.26428,0.05804 z m 8.20594,1.65e-4 c -0.42662,-0.686439 -0.82665,-1.330473 -1.22706,-1.974199 -0.0678,-0.109105 -0.17488,-0.167315 -0.29238,-0.198174 -0.45851,-0.120175 -0.99688,-0.135974 -1.28227,0.46031 -0.0516,0.107839 -0.12597,0.204656 -0.1889,0.307165 -0.2809,0.457167 -0.56149,0.914574 -0.86188,1.403995 0.30964,0 0.56936,-0.0038 0.82895,0.0016 0.11249,0.0022 0.20411,-0.02359 0.24066,-0.134828 0.10899,-0.331971 0.35381,-0.384431 0.66169,-0.354056 0.20913,0.02065 0.42233,0.0097 0.63315,4.83e-4 0.13402,-0.006 0.24404,0.02148 0.29215,0.154547 0.11302,0.312607 0.34612,0.371842 0.64379,0.336268 0.15859,-0.01884 0.32131,-0.003 0.5521,-0.003 z m 6.93213,-1.272745 c 0,-0.262014 -0.003,-0.524091 0.002,-0.786046 0.002,-0.104687 -0.0166,-0.156604 -0.14444,-0.170888 -0.73298,-0.08223 -0.76988,-0.05502 -0.77697,0.66315 -3.6e-4,0.03022 -3.6e-4,0.06053 -1.8e-4,0.09076 0.007,1.01872 0.007,1.014062 -1.01146,0.963056 -0.20084,-0.01005 -0.25922,-0.08593 -0.24865,-0.27666 0.014,-0.251193 0.004,-0.503703 0.003,-0.75568 -0.002,-0.712767 -0.002,-0.707386 -0.71949,-0.684692 -0.15817,0.0053 -0.20694,0.04824 -0.20318,0.20701 0.0108,0.452085 0.004,0.904655 0.006,1.356982 0.003,0.411287 0.1238,0.549809 0.53522,0.613584 0.59109,0.09168 1.18514,0.05623 1.77815,0.03083 0.13815,-0.006 0.27581,-0.04786 0.41165,-0.08187 0.26045,-0.0652 0.38541,-0.228784 0.37143,-0.50448 -0.0112,-0.22117 -0.003,-0.443365 -0.003,-0.665086 z m -5.06539,-0.952759 c -0.3465,0.0081 -0.74944,-0.02322 -1.14834,0.05329 -0.38129,0.07311 -0.49844,0.204588 -0.50225,0.586478 -0.003,0.291909 -7e-4,0.583879 -7e-4,0.875795 3e-4,0.465993 0.11315,0.587444 0.58824,0.658611 0.52936,0.07925 1.06234,0.06821 1.59213,0.04086 0.79247,-0.04078 0.90429,-0.178011 0.89927,-0.97084 -1.8e-4,-0.03023 -0.004,-0.0609 4.8e-4,-0.09052 0.0359,-0.256454 -0.16369,-0.240964 -0.28653,-0.196004 -0.21935,0.08036 -0.59676,-0.246466 -0.65691,0.18977 -0.0768,0.557014 -0.0433,0.561673 -0.61742,0.561552 -0.12077,-6e-5 -0.24186,-0.006 -0.36226,7.04e-4 -0.15474,0.0087 -0.21719,-0.0542 -0.21181,-0.211604 0.008,-0.23957 0.0139,-0.480534 -0.003,-0.719372 -0.0157,-0.231277 0.0865,-0.298263 0.29994,-0.293784 0.42092,0.0088 0.84246,-0.008 1.26307,0.0067 0.20817,0.0075 0.2982,-0.0278 0.29748,-0.269213 -7e-4,-0.238417 -0.12042,-0.227645 -0.28174,-0.224262 -0.27164,0.006 -0.54352,0.0016 -0.87028,0.0016 z m 7.22816,0.0016 c -0.34056,0.01417 -0.75556,-0.03995 -1.16328,0.0554 -0.34547,0.08078 -0.45161,0.213067 -0.45426,0.568087 -0.003,0.302378 -1.9e-4,0.604757 -7e-5,0.907074 2.4e-4,0.460808 0.0928,0.572257 0.56403,0.642339 0.68984,0.102563 1.38489,0.02985 2.07738,0.0508 0.23503,0.0068 0.1373,-0.176926 0.14964,-0.283015 0.0132,-0.1134 0.0288,-0.238236 -0.17233,-0.232725 -0.47273,0.01304 -0.94599,0.0016 -1.41912,7.03e-4 -0.13919,-1.2e-4 -0.25458,-0.0046 -0.25846,-0.200714 -0.004,-0.220566 0.14312,-0.145351 0.24653,-0.146926 0.45765,-0.0075 0.91597,-0.02344 1.37278,-0.0053 0.19097,0.0077 0.25505,-0.03136 0.23896,-0.22184 -0.0131,-0.15497 0.0112,-0.290756 -0.23116,-0.280475 -0.48173,0.0205 -0.96498,0.006 -1.44757,0.006 -0.0814,0 -0.17246,0.0095 -0.17197,-0.110068 3.6e-4,-0.07607 -0.0291,-0.17664 0.0692,-0.210279 0.093,-0.03181 0.1951,-0.04899 0.29343,-0.05043 0.41191,-0.0061 0.82448,-0.01794 1.23553,7.04e-4 0.20648,0.0094 0.2498,-0.06249 0.25451,-0.249979 0.005,-0.207496 -0.0774,-0.253241 -0.26631,-0.243376 -0.28144,0.01477 -0.56414,0.0038 -0.91741,0.0038 z m -14.2933,-0.0016 c -0.36053,0.02035 -0.7861,-0.04515 -1.20315,0.05962 -0.28707,0.07205 -0.45493,0.234911 -0.44392,0.554234 0.0108,0.311875 6.2e-4,0.624481 0.004,0.936787 0.005,0.428185 0.12247,0.573845 0.55507,0.620669 0.39054,0.04222 0.77184,0.190613 1.18047,0.06157 0.26032,-0.08224 0.52743,0.07017 0.79979,0.05797 0.25317,-0.01146 0.27496,-0.14887 0.28518,-0.353994 0.0117,-0.237459 -0.11951,-0.230073 -0.28367,-0.228325 -0.44078,0.0046 -0.88154,7.06e-4 -1.32232,3.71e-4 -0.14746,-2.5e-4 -0.28681,0.0016 -0.27774,-0.215307 0.009,-0.216995 0.17348,-0.13409 0.26734,-0.136028 0.44833,-0.0095 0.89758,-0.01327 1.34542,0.006 0.21294,0.0093 0.26879,-0.05404 0.27364,-0.263592 0.005,-0.224381 -0.0975,-0.243685 -0.27388,-0.241023 -0.47327,0.0068 -0.94672,0.003 -1.42016,7.03e-4 -0.0847,-3.6e-4 -0.18552,0.02773 -0.19163,-0.119151 -0.005,-0.126349 0.0132,-0.220264 0.16107,-0.233086 0.0895,-0.0077 0.17912,-0.02126 0.26875,-0.02163 0.41136,-0.0016 0.82289,-0.0068 1.23401,0.0038 0.17324,0.0046 0.22753,-0.05629 0.21603,-0.224924 -0.0102,-0.144921 0.02,-0.281561 -0.20701,-0.269274 -0.30141,0.01635 -0.60433,0.0038 -0.96735,0.0038 z M 166.56695,17.63076 c -0.0234,-0.06572 -0.0451,-0.132221 -0.0708,-0.197087 -0.0575,-0.145955 -0.08,-0.329852 -0.28083,-0.350672 -0.19068,-0.01982 -0.28381,0.121813 -0.36743,0.264382 -0.13774,0.234844 -0.23776,0.486087 -0.30891,0.747682 -0.48679,1.790489 -0.47179,3.635264 -0.55391,5.465446 -0.0446,0.993664 -0.0152,1.991143 -0.11406,2.983783 -0.005,0.04876 -0.003,0.103421 0.0988,0.100937 0.14299,-0.578978 0.28776,-1.165157 0.43254,-1.751394 -0.0308,0.200833 0.0512,0.402159 -0.0111,0.605601 -0.0279,0.09119 0.0508,0.181177 0.12641,0.191767 0.11982,0.01673 0.42861,-0.338935 0.44664,-0.461228 0.031,-0.210702 0.0674,-0.421765 0.12296,-0.626903 0.0212,-0.0783 0.27199,-0.53759 0.25827,-0.587994 -0.11692,-0.42921 0.18741,-0.778245 0.22812,-1.187489 0.0471,-0.473388 0.22633,-0.940473 0.26396,-1.426326 0.006,-0.08539 0.0594,-0.120238 0.1006,-0.172948 0.0351,-0.04492 0.10432,-0.07794 0.0718,-0.150068 -0.10029,-0.222619 0.0321,-0.43133 0.0406,-0.647601 0.009,-0.228307 0.12865,-0.46019 0.10493,-0.680273 -0.0524,-0.486579 0.0238,-0.972123 -0.0523,-1.461422 -0.0622,-0.399747 -0.12477,-0.554837 -0.53626,-0.658189 z m 2.14667,15.432974 c -0.11111,-0.02313 -0.15474,0.07446 -0.22498,0.125084 -1.11633,0.803715 -2.32821,1.091273 -3.66469,0.66073 -0.43904,-0.141417 -0.81096,-0.404225 -1.18037,-0.770987 0.21071,0.489118 0.63009,0.848682 1.32783,1.177562 7e-4,0.02058 0.002,0.04116 0.003,0.06204 -0.0264,0.01372 -0.0878,0.0081 -0.06,0.05623 0.0206,0.0355 0.0628,0.0053 0.0885,-0.02216 0.23076,0.133675 0.45139,0.268429 0.71867,0.349276 0.27152,0.08212 0.54279,0.04312 0.80783,0.07987 0.36216,0.05012 0.74067,-0.108614 1.10085,-0.236721 0.31732,-0.112797 0.62775,-0.302137 0.83088,-0.5132 0.36773,-0.382079 0.68634,-0.829138 0.97551,-1.288302 0.34699,-0.550902 0.63478,-1.086194 0.23752,-1.741535 -0.0519,-0.08545 -0.0286,-0.194005 -0.17277,-0.171431 -0.0132,-0.03663 -0.028,-0.07274 -0.0395,-0.109887 -0.66611,-2.139766 -2.87323,-3.175008 -4.87724,-2.289234 -0.12258,0.0542 -0.23943,0.102449 -0.24038,0.278478 0.13351,0 0.26205,0.0016 0.39052,-2.42e-4 1.38993,-0.01703 2.53838,0.508964 3.4647,1.53743 0.49215,0.546485 0.79247,1.201283 1.06369,1.872782 -0.16176,0.327192 -0.29737,0.669564 -0.54933,0.944228 z m 7.24007,-19.185143 c 0.59071,0 1.18155,0 1.80278,0 -0.26105,0.329732 -0.5189,0.641366 -0.7615,0.964562 -1.34802,1.795751 -2.40104,3.766936 -3.4223,5.757658 -1.0471,2.04095 -2.03285,4.113604 -3.1473,6.119881 -0.18027,0.324463 -0.37358,0.641728 -0.53032,0.983859 0.4899,-0.388185 0.84409,-0.903804 1.31988,-1.296646 -0.0897,0.211974 -0.0949,0.435504 -0.0852,0.659756 0.003,0.05216 -0.0243,0.133375 0.0658,0.14239 0.066,0.0068 0.18497,0.01175 0.19229,-0.01092 0.0358,-0.110679 0.19213,-0.106804 0.20242,-0.237693 0.004,-0.05239 0.0421,-0.09397 0.12883,-0.07945 0.27448,0.04591 0.27181,-0.31872 0.49886,-0.353392 -0.0326,-0.156365 0.0926,-0.221773 0.1891,-0.274061 0.19406,-0.104928 0.37639,-0.27902 0.48403,-0.416864 0.2625,-0.336628 0.61312,-0.5716 0.88487,-0.894366 0.32156,-0.382134 0.71937,-0.7083 1.11977,-1.011704 0.17,-0.128829 0.20223,-0.366158 0.38534,-0.434538 0.20478,-0.07648 0.3126,-0.215962 0.42588,-0.382675 0.2673,-0.393513 0.66286,-0.670657 0.99852,-0.995971 0.35787,-0.346848 0.69927,-0.712888 1.06319,-1.055019 0.21403,-0.201204 0.36652,-0.472422 0.59246,-0.655709 0.40357,-0.327313 0.70976,-0.749928 1.08228,-1.105919 0.27774,-0.265469 0.5155,-0.644571 0.77461,-0.968437 0.19557,-0.244591 0.45045,-0.502853 0.5618,-0.743567 0.15919,-0.344196 0.50363,-0.551995 0.58067,-0.936305 0.0475,-0.236299 0.37959,-0.35018 0.31926,-0.653531 -0.004,-0.01809 0.0349,-0.04673 0.0568,-0.06707 0.17712,-0.164534 0.21796,-0.407306 0.34727,-0.601486 0.22063,-0.331126 0.18541,-0.731655 0.23987,-1.104772 0.0168,-0.114969 0.19339,-0.224617 0.0344,-0.356174 0.73255,0.0022 1.46524,3.69e-4 2.19774,0.0098 0.38485,0.0053 0.69504,0.289429 0.71549,0.674402 0.0229,0.431818 0.006,0.865507 0.02,1.297988 0.004,0.125377 -0.078,0.150974 -0.15346,0.192612 -2.11084,1.161642 -3.86151,2.773383 -5.55766,4.452048 -2.33111,2.307074 -4.47135,4.795875 -6.77916,7.124981 -0.50225,0.506907 -1.0356,0.982954 -1.5546,1.473285 -0.0263,0.03105 -0.10911,0.04529 -0.0591,0.09941 0.0366,0.03964 0.0799,-0.01138 0.10609,-0.05073 0.55258,-0.311461 1.10488,-0.623336 1.65821,-0.933523 0.0417,-0.02337 0.0902,-0.0346 0.13567,-0.05147 -0.0572,0.249255 -0.23256,0.427521 -0.42027,0.564522 -0.12193,0.08895 -0.0784,0.180016 -0.0233,0.180144 0.21567,5.43e-4 0.43811,-0.01598 0.64585,-0.07153 0.31532,-0.08429 0.56979,-0.301164 0.85709,-0.44785 0.13627,-0.06964 0.32024,-0.05261 0.44768,-0.13143 0.43925,-0.271459 0.88715,-0.523307 1.35436,-0.743814 0.53209,-0.251185 1.06732,-0.495351 1.58469,-0.778125 0.40991,-0.223951 0.85207,-0.39242 1.26266,-0.606814 0.38835,-0.202651 0.82688,-0.304247 1.17682,-0.597129 0.22456,-0.187893 0.52507,-0.276481 0.81189,-0.348123 0.16665,-0.04161 0.23498,-0.190192 0.37977,-0.262628 0.26838,-0.13427 0.56223,-0.206524 0.82521,-0.36912 0.1505,-0.09307 0.25548,-0.277023 0.46589,-0.293123 0.28186,-0.02163 0.49462,-0.226431 0.72728,-0.353444 0.41325,-0.225595 0.80385,-0.494447 1.22653,-0.710357 0.29693,-0.151698 0.57214,-0.345703 0.85709,-0.520826 0.009,0.944354 0.0252,1.888641 0.0262,2.833057 0.003,1.965305 -0.004,3.930731 -0.005,5.896042 -0.003,2.641774 -0.003,5.283546 -0.003,7.925311 -1.1e-4,2.490377 -6.1e-4,4.980731 0.003,7.471107 6.9e-4,0.582974 -0.3108,0.912344 -0.90296,0.912954 -2.59077,0.003 -5.18147,0.0016 -7.77224,0.0016 -5.09056,-7.5e-5 -10.18113,-0.0081 -15.27166,0.01025 -0.59082,0.0022 -1.02098,-0.29209 -1.0199,-1.02071 0.0157,-10.634438 0.0109,-21.268935 0.011,-31.903374 0,-0.638585 0.27619,-0.916639 0.91239,-0.917906 2.70042,-0.0054 5.40084,-0.0099 8.10119,-0.0141 0.0871,-1.21e-4 0.17428,0.0075 0.27593,0.01191 -0.90356,1.123828 -1.21423,2.467492 -1.53863,3.796821 -0.54812,2.245907 -0.83048,4.541184 -1.21327,6.817702 -0.11975,0.712045 -0.24676,1.422882 -0.33222,2.145879 0.24653,-0.645361 0.493,-1.290721 0.73946,-1.936023 0.0581,0.232371 0.26607,0.444769 0.0651,0.709746 -0.0803,0.10584 0.0546,0.160841 0.1011,0.244047 0.0286,-0.03896 0.0413,-0.07618 0.0647,-0.08514 0.21427,-0.08151 0.0923,-0.395866 0.33772,-0.474774 0.0637,-0.02058 -0.0124,-0.188917 0.0262,-0.31091 0.057,-0.179843 0.22027,-0.264738 0.2671,-0.446578 0.0822,-0.319502 0.24525,-0.623335 0.37487,-0.918576 0.10928,-0.249127 0.18123,-0.527053 0.30819,-0.776308 0.0714,-0.140204 0.13161,-0.320348 0.18432,-0.477737 0.10154,-0.30335 0.19775,-0.620675 0.34141,-0.909072 0.15933,-0.319685 0.31248,-0.663158 0.4142,-0.981447 0.10995,-0.344128 0.33966,-0.678578 0.31491,-1.076147 -0.003,-0.06068 -0.0181,-0.168882 0.041,-0.249608 0.26547,-0.362951 0.11777,-0.883174 0.45904,-1.21938 -0.0892,-0.325368 0.0973,-0.6102 0.12618,-0.91591 0.009,-0.09228 0.0884,-0.131189 0.0795,-0.256083 -0.0252,-0.34994 0.13507,-0.690864 0.0999,-1.066468 -0.022,-0.234724 -0.13077,-0.817093 -0.24798,-1.042621 -0.10029,-0.193093 -0.26437,-0.01952 -0.34323,-0.137302 -0.0443,-0.139238 -0.0884,-0.278476 -0.14189,-0.446818 0.9634,0 1.91713,7.05e-4 2.87087,-7.04e-4 0.20537,-4.29e-4 0.14644,0.09694 0.0863,0.205493 -0.40859,0.73764 -0.75132,1.50669 -1.08281,2.281122 -0.77782,1.817422 -1.41435,3.687544 -2.06116,5.55331 -0.56155,1.620023 -1.10804,3.245255 -1.72883,4.844039 -0.0176,0.04506 -0.0565,0.08556 0.003,0.166411 0.44433,-0.734679 0.82175,-1.493313 1.2923,-2.195558 0.0682,0.05675 0.0224,0.181719 0.0178,0.186739 -0.21894,0.235513 -0.16102,0.535956 -0.20942,0.811592 -0.0119,0.06791 -0.0149,0.124111 0.0249,0.160418 0.0274,0.02504 0.0951,-0.05322 0.1384,0.01334 0.0381,-0.203684 0.29337,-0.237994 0.34662,-0.361501 0.14074,-0.326342 0.34134,-0.599368 0.55912,-0.86847 0.13077,-0.161563 0.32326,-0.305762 0.37766,-0.490263 0.15593,-0.529359 0.54424,-0.920023 0.76384,-1.404785 0.0474,-0.104869 0.23424,-4.3e-4 0.19564,-0.19243 -0.0351,-0.174944 0.10292,-0.322655 0.2084,-0.440833 0.15576,-0.174453 0.26771,-0.375476 0.36185,-0.576069 0.20424,-0.435083 0.49457,-0.816793 0.71544,-1.241767 0.26492,-0.509937 0.62479,-0.966259 0.85504,-1.500637 0.26232,-0.608874 0.65874,-1.150581 0.91057,-1.767804 0.0798,-0.195151 0.31431,-0.337231 0.29192,-0.562638 -0.0232,-0.233577 0.16308,-0.346245 0.22329,-0.529722 0.12598,-0.383466 0.31079,-0.747869 0.47423,-1.118868 0.13434,-0.304858 0.24103,-0.61359 0.17191,-0.954636" />
<path style="fill:#951c22;fill-opacity:1;fill-rule:evenodd;stroke:none;stroke-width:0.0060512" d="m 182.35798,13.869921 c 0.15902,0.131559 -0.0176,0.241205 -0.0344,0.356172 -0.0544,0.373117 -0.0192,0.773649 -0.23988,1.104775 -0.1293,0.194178 -0.17015,0.436951 -0.34727,0.601485 -0.022,0.02042 -0.0604,0.049 -0.0568,0.06708 0.0604,0.30335 -0.27176,0.417234 -0.31925,0.653531 -0.0771,0.38431 -0.42148,0.592108 -0.58068,0.936305 -0.11134,0.240715 -0.36622,0.498976 -0.5618,0.743566 -0.25911,0.323868 -0.49686,0.70297 -0.77461,0.968437 -0.37251,0.355992 -0.67871,0.778608 -1.08226,1.10592 -0.22594,0.183288 -0.37844,0.454505 -0.59247,0.655709 -0.36392,0.34213 -0.70533,0.70817 -1.06319,1.05502 -0.33567,0.325314 -0.73123,0.602457 -0.99851,0.995971 -0.11328,0.166712 -0.22112,0.306193 -0.42588,0.382674 -0.18312,0.06836 -0.21538,0.305711 -0.38535,0.434539 -0.4004,0.303403 -0.79821,0.629571 -1.11977,1.011702 -0.27176,0.322767 -0.62237,0.557739 -0.88486,0.894367 -0.10766,0.137844 -0.28997,0.311935 -0.48405,0.416864 -0.0965,0.05231 -0.22172,0.117697 -0.1891,0.27406 -0.22703,0.03468 -0.22438,0.399318 -0.49886,0.353393 -0.0867,-0.01455 -0.12471,0.02706 -0.12882,0.07945 -0.0103,0.130888 -0.1666,0.127012 -0.20241,0.237692 -0.007,0.02269 -0.1263,0.01764 -0.19231,0.01092 -0.0899,-0.009 -0.0634,-0.09022 -0.0658,-0.142391 -0.0101,-0.224252 -0.004,-0.447782 0.0852,-0.659755 0.9789,-1.055699 2.04924,-2.018197 3.0821,-3.018826 2.18837,-2.1201 4.42894,-4.192874 6.16049,-6.730021 0.55593,-0.814492 1.04159,-1.668255 1.28885,-2.634754 0.034,-0.132765 0.0927,-0.18662 0.22408,-0.176211 0.12895,0.01025 0.25831,0.01508 0.38752,0.02223" />
<path style="fill:#951c22;fill-opacity:1;fill-rule:evenodd;stroke:none;stroke-width:0.0060512" d="m 185.26643,22.669029 c -0.28496,0.175125 -0.56016,0.36913 -0.85709,0.520828 -0.42268,0.21591 -0.81328,0.484762 -1.22652,0.710355 -0.23267,0.127013 -0.44542,0.331844 -0.72729,0.353445 -0.21041,0.01613 -0.31539,0.200058 -0.46589,0.293123 -0.26298,0.162597 -0.55683,0.23485 -0.8252,0.369122 -0.14479,0.07243 -0.21313,0.220989 -0.37978,0.262626 -0.28682,0.07168 -0.58732,0.160231 -0.81188,0.348123 -0.34995,0.292881 -0.78848,0.394478 -1.17683,0.597129 -0.41059,0.214394 -0.85275,0.382863 -1.26265,0.606815 -0.51739,0.282772 -1.05261,0.526941 -1.58469,0.778125 -0.46721,0.220507 -0.91512,0.472354 -1.35438,0.743814 -0.12745,0.0788 -0.31139,0.06182 -0.44767,0.13143 -0.2873,0.146686 -0.54176,0.36356 -0.85709,0.447851 -0.20774,0.05555 -0.43018,0.07205 -0.64585,0.07153 -0.055,-1.29e-4 -0.0986,-0.09119 0.0233,-0.180144 0.1877,-0.137 0.36306,-0.315267 0.42025,-0.564521 0.98495,-0.57837 2.01946,-1.060892 3.04351,-1.563147 2.72466,-1.336347 5.48529,-2.602978 8.07877,-4.191782 0.34789,-0.213128 0.68978,-0.436055 1.05939,-0.670235 0.0482,0.328338 0.0246,0.63193 -0.003,0.935514" />
<path style="fill:#951c22;fill-opacity:1;fill-rule:evenodd;stroke:none;stroke-width:0.0060512" d="m 175.95369,13.878152 c 0.0691,0.341045 -0.0375,0.649777 -0.17192,0.954636 -0.16344,0.370999 -0.34824,0.735403 -0.47423,1.118868 -0.0602,0.183476 -0.24657,0.296146 -0.22328,0.529721 0.0223,0.225408 -0.21217,0.367487 -0.29191,0.56264 -0.25185,0.617222 -0.64827,1.158929 -0.91058,1.767801 -0.23026,0.53438 -0.59012,0.990703 -0.85504,1.500639 -0.22087,0.424974 -0.51121,0.806684 -0.71544,1.241767 -0.0942,0.200593 -0.20611,0.401614 -0.36186,0.576068 -0.10547,0.11818 -0.24362,0.265891 -0.20841,0.440833 0.0386,0.192001 -0.14817,0.08756 -0.19563,0.192431 -0.21959,0.484761 -0.6079,0.875425 -0.76383,1.404786 -0.0544,0.184501 -0.24689,0.328698 -0.37767,0.490263 -0.21778,0.2691 -0.41838,0.542128 -0.55912,0.868468 -0.0533,0.123508 -0.30856,0.15782 -0.34662,0.361502 -0.0433,-0.06656 -0.11098,0.01161 -0.13839,-0.01334 -0.0398,-0.03633 -0.0367,-0.09247 -0.0249,-0.160418 0.0485,-0.275636 -0.009,-0.576077 0.20943,-0.811592 0.005,-0.0053 0.0505,-0.129974 -0.0178,-0.186739 0.7461,-1.24588 1.49471,-2.490247 2.23773,-3.737946 1.16279,-1.952356 2.3098,-3.913251 3.17639,-6.02185 0.0835,-0.203261 0.15728,-0.410692 0.22994,-0.618249 0.18971,-0.541827 0.18856,-0.542249 0.78303,-0.460257" />
<path style="fill:#951c22;fill-opacity:1;fill-rule:evenodd;stroke:none;stroke-width:0.0060512" d="m 170.29002,14.309239 c 0.0789,0.117817 0.24289,-0.05579 0.34321,0.137301 0.11722,0.225528 0.22596,0.807898 0.24798,1.04262 0.0351,0.375606 -0.12507,0.71653 -0.0999,1.066469 0.009,0.124895 -0.0708,0.163804 -0.0795,0.256084 -0.0288,0.305709 -0.21541,0.590541 -0.12617,0.915908 -0.34128,0.336206 -0.19357,0.856432 -0.45903,1.219381 -0.059,0.08073 -0.0447,0.188917 -0.0409,0.249608 0.0247,0.397569 -0.20495,0.732019 -0.31489,1.076148 -0.10173,0.31829 -0.25488,0.661762 -0.41421,0.981446 -0.14366,0.288397 -0.23987,0.605722 -0.34141,0.909073 -0.0527,0.157389 -0.11285,0.337532 -0.18432,0.477735 -0.12695,0.249256 -0.1989,0.527183 -0.30818,0.776309 -0.12962,0.295241 -0.29265,0.599074 -0.37488,0.918577 -0.0469,0.18184 -0.21015,0.266734 -0.26711,0.446577 -0.0387,0.121993 0.0376,0.290333 -0.0262,0.310911 -0.24544,0.07891 -0.12344,0.393265 -0.33771,0.474774 -0.0234,0.0089 -0.036,0.04621 -0.0647,0.08514 -0.0465,-0.0832 -0.18135,-0.138206 -0.1011,-0.244047 0.20095,-0.264977 -0.007,-0.477374 -0.0651,-0.709745 0.43235,-1.14004 0.86556,-2.279668 1.29677,-3.420078 0.62957,-1.664804 1.23946,-3.335961 1.58602,-5.088998 0.12283,-0.621331 0.20798,-1.245693 0.13131,-1.881196" />
<path style="fill:#fef8f8;fill-opacity:1;fill-rule:evenodd;stroke:none;stroke-width:0.0060512" d="m 165.40233,24.893396 c -0.14476,0.586236 -0.28954,1.172413 -0.43252,1.751392 -0.10141,0.0022 -0.10361,-0.05216 -0.0988,-0.100937 0.099,-0.99264 0.0694,-1.990118 0.11408,-2.983783 0.0821,-1.830181 0.0671,-3.674956 0.5539,-5.465446 0.0712,-0.261593 0.17118,-0.512839 0.3089,-0.747681 0.0836,-0.14257 0.17676,-0.284168 0.36744,-0.264383 0.20083,0.0208 0.22323,0.204716 0.28083,0.35067 0.0257,0.06489 0.0472,0.13137 0.0707,0.197089 0.008,0.208944 0.0199,0.417776 0.0226,0.626661 0.0156,1.222281 -0.22843,2.410915 -0.48452,3.595866 -0.21977,1.016661 -0.46739,2.02727 -0.70267,3.040548" />
<path style="fill:#fef8f8;fill-opacity:1;fill-rule:evenodd;stroke:none;stroke-width:0.0060512" d="m 169.26294,32.119068 c -0.27122,-0.6715 -0.57154,-1.326298 -1.06368,-1.872783 -0.92632,-1.028465 -2.07477,-1.554433 -3.4647,-1.537429 -0.12847,0.0016 -0.25701,2.42e-4 -0.39051,2.42e-4 7e-4,-0.176029 0.11778,-0.224261 0.24036,-0.278478 2.00403,-0.885774 4.21114,0.149467 4.87725,2.289233 0.0116,0.03716 0.0263,0.07319 0.0395,0.109888 0.0901,0.364103 0.14564,0.722876 -0.1125,1.051936 -0.0544,0.06935 -0.0845,0.157819 -0.12575,0.237391" />
<path style="fill:#951c22;fill-opacity:1;fill-rule:evenodd;stroke:none;stroke-width:0.0060512" d="m 165.40233,24.893396 c 0.23528,-1.013278 0.4829,-2.023887 0.70267,-3.040548 0.25609,-1.18495 0.5002,-2.373584 0.48451,-3.595866 -0.003,-0.208885 -0.0148,-0.417717 -0.0226,-0.626661 0.41148,0.103354 0.474,0.258443 0.53625,0.658189 0.0761,0.4893 -1.7e-4,0.974845 0.0523,1.461422 0.0238,0.220085 -0.096,0.451966 -0.10494,0.680275 -0.008,0.21627 -0.14081,0.424981 -0.0405,0.647599 0.0325,0.07213 -0.0366,0.105177 -0.0719,0.15007 -0.0412,0.05269 -0.0939,0.08756 -0.10059,0.172946 -0.0377,0.485854 -0.21686,0.952939 -0.26394,1.426328 -0.0407,0.409244 -0.34505,0.758278 -0.22814,1.187489 0.0137,0.05043 -0.23696,0.509695 -0.25827,0.587993 -0.0556,0.205139 -0.092,0.416201 -0.12295,0.626902 -0.0181,0.122294 -0.32683,0.477985 -0.44664,0.461229 -0.0756,-0.01056 -0.15431,-0.100572 -0.12641,-0.191767 0.0622,-0.203442 -0.0196,-0.404766 0.0111,-0.6056" />
<path style="fill:#fef8f8;fill-opacity:1;fill-rule:evenodd;stroke:none;stroke-width:0.0060512" d="m 167.32117,41.240951 c 0.36302,0 0.66594,0.01236 0.96734,-0.0038 0.22704,-0.01228 0.19715,0.124352 0.20702,0.269273 0.0115,0.168651 -0.0427,0.229402 -0.21604,0.224926 -0.41111,-0.01062 -0.82265,-0.006 -1.23401,-0.0038 -0.0896,3.69e-4 -0.17918,0.01387 -0.26873,0.02163 -0.14802,0.01282 -0.16642,0.106737 -0.1611,0.233086 0.006,0.146867 0.10694,0.118791 0.19166,0.119153 0.47343,0.0016 0.94688,0.006 1.42014,-7.05e-4 0.17634,-0.003 0.27903,0.01666 0.27389,0.241024 -0.005,0.209548 -0.0608,0.272968 -0.27363,0.263592 -0.44785,-0.0196 -0.89711,-0.0159 -1.34542,-0.006 -0.0939,0.0022 -0.25821,-0.08097 -0.26736,0.136028 -0.009,0.216451 0.13028,0.215057 0.27776,0.215306 0.44077,4.82e-4 0.88154,0.0046 1.32231,-3.7e-4 0.16417,-0.0016 0.29547,-0.0091 0.28367,0.228324 -0.0103,0.205122 -0.0321,0.342553 -0.28518,0.353994 -0.27238,0.01221 -0.53947,-0.140218 -0.79979,-0.05797 -0.40864,0.129009 -0.78993,-0.01937 -1.18048,-0.06157 -0.43259,-0.04682 -0.55041,-0.192484 -0.55507,-0.620669 -0.003,-0.312305 0.007,-0.624912 -0.004,-0.936788 -0.0111,-0.319322 0.15684,-0.48216 0.44391,-0.554233 0.41705,-0.10474 0.84264,-0.03927 1.20316,-0.05961" />
<path style="fill:#fef8f8;fill-opacity:1;fill-rule:evenodd;stroke:none;stroke-width:0.0060512" d="m 181.61447,41.24258 c 0.35326,0 0.63597,0.01092 0.91742,-0.0038 0.18885,-0.0098 0.27153,0.03588 0.26631,0.243376 -0.005,0.187462 -0.0479,0.259414 -0.25452,0.249979 -0.41106,-0.01878 -0.82362,-0.0068 -1.23553,-7.06e-4 -0.0984,0.0016 -0.20041,0.01862 -0.29341,0.05043 -0.0984,0.03363 -0.0688,0.134211 -0.0692,0.21028 -4.8e-4,0.119633 0.0905,0.110068 0.17197,0.110068 0.48258,0 0.96583,0.01478 1.44756,-0.006 0.24229,-0.01025 0.21809,0.125507 0.23116,0.280476 0.0161,0.190492 -0.0479,0.229521 -0.23895,0.221839 -0.45682,-0.01838 -0.91512,-0.0022 -1.37279,0.0053 -0.10341,0.0016 -0.25076,-0.07364 -0.24652,0.146927 0.004,0.196236 0.11927,0.200593 0.25845,0.200713 0.47314,4.22e-4 0.9464,0.01236 1.41912,-7.04e-4 0.20115,-0.0053 0.18559,0.119327 0.17234,0.232726 -0.0123,0.106088 0.0854,0.2901 -0.14964,0.283015 -0.6925,-0.02096 -1.38754,0.05172 -2.07739,-0.0508 -0.47126,-0.0701 -0.56378,-0.18153 -0.56402,-0.642339 -1.2e-4,-0.302318 -0.003,-0.604696 6e-5,-0.907074 0.003,-0.355021 0.10879,-0.487302 0.45425,-0.568087 0.40774,-0.0953 0.82272,-0.04123 1.16329,-0.0554" />
<path style="fill:#fef8f8;fill-opacity:1;fill-rule:evenodd;stroke:none;stroke-width:0.0060512" d="m 174.38631,41.241434 c 0.32676,0 0.59865,0.0046 0.87029,-0.0016 0.16132,-0.003 0.28095,-0.01417 0.28174,0.224262 7e-4,0.241438 -0.0893,0.27654 -0.29749,0.269214 -0.42061,-0.0147 -0.84214,0.0022 -1.26306,-0.0068 -0.21348,-0.0046 -0.31563,0.06249 -0.29995,0.293787 0.0161,0.238837 0.0105,0.4798 0.003,0.71937 -0.005,0.157389 0.0571,0.220258 0.21179,0.211605 0.12042,-0.0068 0.24149,-7.04e-4 0.36228,-7.04e-4 0.57408,1.21e-4 0.54056,-0.0046 0.61742,-0.561553 0.0601,-0.436235 0.43755,-0.109404 0.65691,-0.189769 0.12283,-0.045 0.32235,-0.06046 0.28653,0.196003 -0.004,0.02962 -6.9e-4,0.06029 -5e-4,0.09052 0.005,0.792831 -0.10679,0.930072 -0.89925,0.970842 -0.52979,0.02728 -1.06277,0.03837 -1.59214,-0.04086 -0.47509,-0.07116 -0.58794,-0.192619 -0.58824,-0.658612 -1.9e-4,-0.291916 -0.003,-0.583885 7e-4,-0.875795 0.004,-0.38189 0.12097,-0.513381 0.50225,-0.586478 0.39891,-0.07649 0.80185,-0.04516 1.14834,-0.05329" />
<path style="fill:#fef8f8;fill-opacity:1;fill-rule:evenodd;stroke:none;stroke-width:0.0060512" d="m 179.45202,42.194194 c 2.2e-4,0.22172 -0.009,0.443915 0.003,0.665086 0.0139,0.275696 -0.11096,0.439311 -0.37141,0.504478 -0.13585,0.03398 -0.27352,0.07596 -0.41166,0.08187 -0.59302,0.02533 -1.18707,0.06082 -1.77815,-0.03083 -0.41143,-0.06377 -0.53245,-0.202295 -0.53522,-0.613582 -0.003,-0.452328 0.004,-0.904897 -0.006,-1.356984 -0.003,-0.158784 0.045,-0.202047 0.2032,-0.207008 0.71786,-0.02269 0.71779,-0.02812 0.71949,0.684691 6.2e-4,0.251977 0.0112,0.504488 -0.003,0.755679 -0.0105,0.190726 0.0479,0.266614 0.24864,0.276661 1.0186,0.05102 1.01836,0.0557 1.01147,-0.963056 -1.9e-4,-0.03022 -1.9e-4,-0.06053 1.7e-4,-0.09077 0.007,-0.718158 0.0441,-0.745383 0.77697,-0.663149 0.12781,0.01431 0.14591,0.06617 0.14445,0.170888 -0.004,0.261955 -0.002,0.524031 -7.1e-4,0.786047" />
<path style="fill:#fef8f8;fill-opacity:1;fill-rule:evenodd;stroke:none;stroke-width:0.0060512" d="m 170.52353,41.886124 c -0.10614,0.204475 -0.2055,0.396294 -0.25784,0.614201 0.21863,0 0.42425,0 0.6715,0 -0.14892,-0.219354 -0.23346,-0.439981 -0.41366,-0.614201 z m 1.99604,1.580814 c -0.23079,0 -0.39351,-0.01553 -0.5521,0.003 -0.29767,0.03558 -0.53077,-0.02367 -0.64379,-0.336266 -0.048,-0.133066 -0.15813,-0.160412 -0.29215,-0.154547 -0.21082,0.0092 -0.42402,0.02013 -0.63315,-4.83e-4 -0.30788,-0.03037 -0.5527,0.02209 -0.66169,0.354055 -0.0365,0.111215 -0.12817,0.137309 -0.24066,0.134828 -0.25959,-0.006 -0.51931,-0.0016 -0.82895,-0.0016 0.30039,-0.489419 0.58098,-0.946827 0.86188,-1.403994 0.0629,-0.102508 0.1373,-0.199326 0.1889,-0.307165 0.28539,-0.596284 0.82376,-0.580486 1.28227,-0.460308 0.1175,0.03083 0.22455,0.08907 0.29238,0.198173 0.40041,0.643725 0.80044,1.287759 1.22706,1.974199" />
<path style="fill:#fef8f8;fill-opacity:1;fill-rule:evenodd;stroke:none;stroke-width:0.0060512" d="m 164.31363,43.466772 c -0.42245,0.0022 -0.84553,0.01485 -1.26428,-0.05804 -0.4022,-0.0701 -0.53051,-0.222949 -0.53232,-0.631816 -0.003,-0.443253 0.004,-0.886687 -0.004,-1.329811 -0.003,-0.151224 0.0338,-0.205982 0.19925,-0.210889 0.74239,-0.02193 0.74215,-0.02819 0.74234,0.704424 5e-5,0.261292 0.0142,0.523608 -0.004,0.783627 -0.0129,0.182381 0.0599,0.228677 0.22162,0.227282 0.46233,-0.0046 0.92515,0.01005 1.38698,-0.006 0.21165,-0.0075 0.24675,0.07138 0.24504,0.260501 -0.002,0.179059 -0.0102,0.2841 -0.23473,0.265709 -0.25028,-0.02065 -0.50357,-0.0046 -0.75555,-0.0046" />
<path style="fill:#fef8f8;fill-opacity:1;fill-rule:evenodd;stroke:none;stroke-width:0.0060512" d="m 175.27668,38.326272 c 0,0.442823 -0.0112,0.815277 0.005,1.186577 0.008,0.192852 -0.0804,0.213852 -0.23232,0.203502 -0.14595,-0.0099 -0.30981,0.04077 -0.29905,-0.210829 0.0151,-0.35 0.003,-0.701151 0.006,-1.051755 0.003,-0.183046 -0.0623,-0.398955 0.18492,-0.486999 0.25432,-0.09052 0.50455,-0.08412 0.69257,0.131067 0.27079,0.310066 0.52263,0.636708 0.7835,0.955609 0.0671,0.082 0.13737,0.161443 0.25937,0.304556 0,-0.452569 0.0137,-0.82968 -0.005,-1.205157 -0.0118,-0.238604 0.12344,-0.21857 0.28306,-0.228978 0.18735,-0.01221 0.24641,0.05231 0.23945,0.238777 -0.0131,0.349095 0.003,0.699095 -0.005,1.048432 -0.004,0.178569 0.0613,0.428306 -0.16174,0.486516 -0.25313,0.06603 -0.54171,0.09906 -0.74992,-0.159024 -0.25858,-0.320656 -0.52313,-0.636587 -0.78533,-0.954395 -0.056,-0.06799 -0.1128,-0.135304 -0.21513,-0.257899" />
<path style="fill:#fef8f8;fill-opacity:1;fill-rule:evenodd;stroke:none;stroke-width:0.0060512" d="m 164.50615,39.366412 c 0,-0.453662 0.0138,-0.842811 -0.005,-1.230212 -0.0111,-0.224984 0.11932,-0.2006 0.26022,-0.208763 0.14782,-0.0086 0.24783,0.0016 0.241,0.197932 -0.0125,0.360711 0.006,0.722455 -0.003,1.083405 -0.004,0.176391 0.0814,0.405611 -0.1807,0.48186 -0.26188,0.07618 -0.52029,0.07921 -0.71686,-0.153281 -0.24632,-0.291246 -0.4855,-0.588656 -0.72778,-0.883475 -0.0698,-0.0849 -0.13964,-0.169735 -0.26687,-0.324404 0,0.425948 -0.0143,0.779641 0.005,1.131398 0.0126,0.228548 -0.0853,0.259414 -0.28003,0.260319 -0.18884,7.04e-4 -0.27153,-0.0386 -0.26143,-0.24719 0.0166,-0.341106 0.003,-0.683545 0.008,-1.025315 0.003,-0.182691 -0.0607,-0.400168 0.18987,-0.483493 0.26545,-0.08829 0.5174,-0.07921 0.71146,0.155338 0.27481,0.332143 0.54348,0.669381 0.81569,1.003651 0.0539,0.06617 0.11192,0.129071 0.21061,0.24223" />
<path style="fill:#fef8f8;fill-opacity:1;fill-rule:evenodd;stroke:none;stroke-width:0.0060512" d="m 166.63279,33.176635 c -0.0865,0 -0.14179,0.01357 -0.18596,-0.003 -0.0988,-0.03663 -0.19302,0.112918 -0.28664,0.0038 -0.0934,-0.109163 -0.0829,-0.282472 -0.053,-0.364833 0.0907,-0.248826 -0.0661,-0.214997 -0.18644,-0.192302 -0.30516,0.05744 -0.35804,-0.09797 -0.32785,-0.347641 0.008,-0.06927 0.0102,-0.141838 -1.9e-4,-0.210648 -0.0304,-0.201504 0.0548,-0.277866 0.2498,-0.245433 0.25082,0.04184 0.35151,-0.06105 0.30075,-0.31073 -0.038,-0.186739 0.0381,-0.259958 0.2254,-0.236419 0.0791,0.0099 0.16084,0.0053 0.24096,-6e-5 0.2389,-0.01492 0.41553,0.01727 0.34946,0.335054 -0.0326,0.156786 0.0608,0.241445 0.22874,0.211062 0.28779,-0.05216 0.37886,0.08164 0.3368,0.348673 -0.008,0.04907 -0.008,0.101475 0,0.150433 0.0379,0.230614 -0.0479,0.348311 -0.28809,0.300562 -0.21439,-0.04266 -0.31606,0.0444 -0.27268,0.247075 0.0754,0.352058 -0.1255,0.350423 -0.33112,0.314476" />
<path style="fill:#951c22;fill-opacity:1;fill-rule:evenodd;stroke:none;stroke-width:0.0060512" d="m 169.26294,32.119068 c 0.0414,-0.07958 0.0714,-0.168039 0.12574,-0.237391 0.25815,-0.32906 0.2026,-0.687833 0.1125,-1.051936 0.14408,-0.02254 0.12095,0.08599 0.17275,0.171432 0.39726,0.655339 0.10948,1.190631 -0.2375,1.741533 -0.28919,0.459165 -0.60778,0.906225 -0.97552,1.288303 -0.20314,0.211063 -0.51356,0.400402 -0.83089,0.5132 -0.36017,0.128105 -0.73867,0.286829 -1.10083,0.23672 -0.26504,-0.0367 -0.53631,0.0022 -0.80783,-0.07988 -0.26727,-0.08085 -0.48793,-0.2156 -0.71867,-0.349276 -0.0102,-0.01124 -0.0195,-0.02277 -0.0288,-0.03444 -7.1e-4,-0.0205 -0.002,-0.04108 -0.003,-0.06135 0.3581,0.107527 0.716,0.191878 1.09742,0.173909 1.09346,-0.05162 1.98031,-0.490573 2.64449,-1.366608 0.25198,-0.274664 0.38759,-0.617036 0.54933,-0.944227" />
<path style="fill:#fef8f8;fill-opacity:1;fill-rule:evenodd;stroke:none;stroke-width:0.0060512" d="m 172.94238,39.440957 c 0.88383,-0.01182 0.71712,-0.01047 0.72026,-0.707809 3e-4,-0.0603 -0.007,-0.122234 0.004,-0.180807 0.0451,-0.247431 -0.0991,-0.324522 -0.3045,-0.334812 -0.20077,-0.01005 -0.40228,-0.0076 -0.60347,-0.0068 -0.50498,0.0016 -0.52556,0.02245 -0.52942,0.51901 -0.005,0.710718 -0.005,0.710718 0.71361,0.711562 z m 0.0182,0.271642 c -0.30256,0.0119 -0.60258,0.0038 -0.89194,-0.101475 -0.24313,-0.08878 -0.38365,-0.242351 -0.36404,-0.519071 0.0113,-0.160298 7e-4,-0.322112 0.002,-0.483195 0.002,-0.435322 0.1229,-0.588114 0.54872,-0.635795 0.45954,-0.0514 0.9225,-0.05683 1.38216,-3.01e-4 0.42733,0.05246 0.55071,0.204889 0.55071,0.633376 6e-5,0.161143 3.2e-4,0.322223 -4.2e-4,0.483306 -0.002,0.3661 -0.11291,0.497228 -0.47599,0.574562 -0.24821,0.05299 -0.49886,0.05555 -0.75035,0.04861" />
<path style="fill:#fef8f8;fill-opacity:1;fill-rule:evenodd;stroke:none;stroke-width:0.0060512" d="m 178.44623,39.04727 c 0.36557,0 0.67914,0 1.04172,0 -0.19152,-0.264503 -0.358,-0.494326 -0.53196,-0.734498 -0.17173,0.247438 -0.32489,0.468119 -0.50976,0.734498 z m -0.99813,0.617887 c 0.37269,-0.519923 0.73473,-1.048009 1.12238,-1.556611 0.20907,-0.274361 0.60063,-0.267887 0.81097,0.0099 0.35763,0.472293 0.69189,0.962497 1.03379,1.446655 0.0333,0.04711 0.12575,0.106503 -0.004,0.154366 -0.15516,0.05706 -0.35685,0.155821 -0.44737,-0.02344 -0.1681,-0.332876 -0.42462,-0.375236 -0.74435,-0.348243 -0.20006,0.01696 -0.40319,0.01213 -0.6041,0.0016 -0.24052,-0.01304 -0.44064,0.0022 -0.5779,0.258685 -0.12245,0.229099 -0.37189,0.04409 -0.55191,0.122837 -0.0124,-0.02185 -0.0248,-0.04372 -0.0373,-0.06558" />
<path style="fill:#fef8f8;fill-opacity:1;fill-rule:evenodd;stroke:none;stroke-width:0.0060512" d="m 166.27649,39.044421 c 0.35448,0 0.67441,0 1.03427,0 -0.18856,-0.261412 -0.35404,-0.490685 -0.5319,-0.737152 -0.17688,0.259476 -0.33233,0.487604 -0.50237,0.737152 z m 2.06371,0.659826 c -0.33409,0.02095 -0.6122,0.06452 -0.74975,-0.266252 -0.0424,-0.102026 -0.1471,-0.08702 -0.23732,-0.08708 -0.31146,-6.1e-5 -0.62329,0.0089 -0.93432,-0.0038 -0.23035,-0.0094 -0.42454,0.0095 -0.55228,0.244038 -0.12914,0.237029 -0.36641,0.06859 -0.53573,0.132041 -0.0736,-0.101846 0.004,-0.148736 0.0403,-0.198966 0.31424,-0.440583 0.63041,-0.879841 0.94967,-1.316801 0.28695,-0.392842 0.66824,-0.391386 0.95076,0.0016 0.34879,0.485425 0.69534,0.972484 1.06865,1.494887" />
<path style="fill:#fef8f8;fill-opacity:1;fill-rule:evenodd;stroke:none;stroke-width:0.0060512" d="m 168.71362,33.063295 c -0.66419,0.876036 -1.55105,1.314993 -2.6445,1.366609 -0.38141,0.01794 -0.73932,-0.06639 -1.09744,-0.173912 -0.69801,-0.329188 -1.11739,-0.688753 -1.3281,-1.177871 0.36941,0.366764 0.74133,0.62957 1.18037,0.770987 1.33648,0.430546 2.54836,0.142985 3.66469,-0.660729 0.0703,-0.05058 0.11387,-0.148254 0.22498,-0.125084" />
<path style="fill:#fef8f8;fill-opacity:1;fill-rule:evenodd;stroke:none;stroke-width:0.0060512" d="m 182.06293,39.713991 c -0.29137,-0.01463 -0.64355,0.03415 -0.98914,-0.08525 -0.22662,-0.0783 -0.32713,-0.221351 -0.32888,-0.446154 -0.003,-0.361321 0.007,-0.722756 1.8e-4,-1.083896 -0.004,-0.224013 0.15153,-0.164707 0.27182,-0.169856 0.12968,-0.0053 0.26395,-0.03241 0.25403,0.183295 -0.0143,0.311816 0.0166,0.626299 -0.009,0.936719 -0.0243,0.300261 0.10079,0.395209 0.37953,0.388434 0.37239,-0.0091 0.74527,6.79e-4 1.11796,0.0038 0.097,7.04e-4 0.20635,-0.02563 0.20441,0.139909 -0.003,0.167135 -0.11285,0.131973 -0.20792,0.132576 -0.21161,0.0016 -0.42315,4.3e-4 -0.69335,4.3e-4" />
<path style="fill:#fef8f8;fill-opacity:1;fill-rule:evenodd;stroke:none;stroke-width:0.0060512" d="m 169.31293,37.927007 c 0.27127,0 0.5426,0.003 0.81382,-0.0016 0.11855,-0.0022 0.18698,0.01982 0.18354,0.163321 -0.004,0.151517 -0.10451,0.11582 -0.18718,0.120478 -0.55773,0.03165 -0.55628,0.0312 -0.55586,0.593142 1.3e-4,0.210459 -0.0352,0.424672 -0.006,0.630405 0.0345,0.243987 -0.0575,0.280235 -0.27442,0.290222 -0.24234,0.01115 -0.25192,-0.102931 -0.24622,-0.285554 0.0103,-0.331369 -0.005,-0.663519 0.008,-0.994699 0.007,-0.176939 -0.0311,-0.26365 -0.22789,-0.236908 -0.11842,0.01613 -0.24089,-1.2e-4 -0.36136,0.0038 -0.0933,0.003 -0.1528,-0.01606 -0.15444,-0.128468 -0.002,-0.120296 0.052,-0.156123 0.16478,-0.154185 0.28121,0.0046 0.56253,0.0016 0.84379,0.0016 0,-5.42e-4 0,-7.04e-4 0,-0.0016" />
<path style="fill:#fef8f8;fill-opacity:1;fill-rule:evenodd;stroke:none;stroke-width:0.0060512" d="m 172.61433,35.464715 c -0.35369,0.387461 -0.65891,0.721489 -0.96383,1.05594 -0.23261,0.254929 -0.26898,0.255721 -0.51416,-0.0076 -0.30026,-0.322526 -0.59829,-0.647117 -0.93183,-1.008189 -0.0598,0.362105 -0.0177,0.678517 -0.0333,0.991909 -0.004,0.08042 0.0459,0.214574 -0.0994,0.2006 -0.11091,-0.01056 -0.0555,-0.13167 -0.0568,-0.201084 -0.006,-0.342681 -0.005,-0.685542 -0.002,-1.028337 5.5e-4,-0.06466 -0.0321,-0.150679 0.0595,-0.183354 0.0834,-0.02978 0.12987,0.03965 0.17641,0.08859 0.32579,0.343162 0.66031,0.679068 0.96921,1.036997 0.16199,0.187651 0.23576,0.145593 0.37578,-0.02419 0.27461,-0.333123 0.57946,-0.641487 0.87403,-0.957968 0.0672,-0.07213 0.14166,-0.178931 0.24672,-0.138025 0.0983,0.03829 0.0533,0.158173 0.0537,0.246346 0.002,0.322224 0.005,0.644449 0.005,0.966733 -6e-5,0.07425 0.0373,0.189648 -0.0782,0.19473 -0.12889,0.006 -0.0785,-0.116182 -0.0796,-0.184562 -0.005,-0.329061 -0.003,-0.658249 -0.003,-1.048492" />
<path style="fill:#fef8f8;fill-opacity:1;fill-rule:evenodd;stroke:none;stroke-width:0.0060512" d="m 170.61696,38.817388 c -1.2e-4,-0.221299 0.0158,-0.443917 -0.004,-0.663218 -0.0215,-0.231881 0.10517,-0.223951 0.27211,-0.231339 0.1925,-0.0083 0.23727,0.06279 0.23206,0.243324 -0.0127,0.440584 -0.0166,0.882141 -7e-4,1.322492 0.007,0.198836 -0.0678,0.231639 -0.24265,0.231759 -0.17942,1.21e-4 -0.28048,-0.02254 -0.26056,-0.239811 0.0201,-0.219361 0.004,-0.442039 0.004,-0.663207" />
<path style="fill:#fef8f8;fill-opacity:1;fill-rule:evenodd;stroke:none;stroke-width:0.0060512" d="m 179.20487,36.622191 c 0.0903,0 0.18075,7.04e-4 0.2711,-1.21e-4 0.47527,-0.0046 0.54206,-0.07025 0.54122,-0.531177 -1.7e-4,-0.120538 -0.004,-0.241316 0.002,-0.361614 0.009,-0.17918 -0.0673,-0.282412 -0.24676,-0.315027 -0.37876,-0.06874 -0.75647,-0.06249 -1.13388,0.0053 -0.11558,0.02074 -0.19805,0.07507 -0.22855,0.203804 -0.18317,0.775645 0.004,1.014062 0.79561,0.998813 z m 0.0117,-1.324792 c 0.97393,-0.0067 1.01987,0.045 0.96443,1.018238 -0.0102,0.174454 -0.0759,0.289488 -0.24743,0.326822 -0.47489,0.103301 -0.95172,0.09773 -1.42736,0.006 -0.18304,-0.03543 -0.2726,-0.152489 -0.26473,-0.343646 0.005,-0.120298 -6.9e-4,-0.241024 -5.5e-4,-0.361563 4.9e-4,-0.550352 0.0584,-0.612257 0.61426,-0.64457 0.12,-0.0068 0.24085,-7.03e-4 0.36138,-7.03e-4" />
<path style="fill:#fef8f8;fill-opacity:1;fill-rule:evenodd;stroke:none;stroke-width:0.0060512" d="m 180.85644,35.444568 c 0,0.39502 0.004,0.74242 -0.004,1.089579 -0.002,0.0557 0.0451,0.166523 -0.0659,0.166712 -0.10741,1.81e-4 -0.0687,-0.101968 -0.0693,-0.164836 -0.003,-0.341046 -0.004,-0.682213 7e-4,-1.023256 7.1e-4,-0.07371 -0.0487,-0.172947 0.0447,-0.217304 0.096,-0.04562 0.16835,0.03286 0.23805,0.08654 0.45312,0.348725 0.90442,0.699878 1.35887,1.046917 0.0427,0.0327 0.0783,0.09669 0.17735,0.0652 0,-0.341226 -0.003,-0.689348 0.003,-1.037299 6.8e-4,-0.05765 -0.0437,-0.16102 0.0754,-0.156845 0.1037,0.0038 0.0821,0.09374 0.0821,0.161391 1.9e-4,0.340925 6.9e-4,0.68191 -0.002,1.022834 -4.7e-4,0.07575 0.038,0.16568 -0.0549,0.217237 -0.10576,0.05879 -0.17173,-0.02947 -0.23816,-0.07988 -0.4231,-0.321681 -0.84185,-0.649115 -1.26288,-0.973457 -0.0773,-0.05969 -0.15866,-0.114253 -0.28327,-0.203503" />
<path style="fill:#fef8f8;fill-opacity:1;fill-rule:evenodd;stroke:none;stroke-width:0.0060512" d="m 163.46207,36.62461 c 9e-5,0.003 1.8e-4,0.006 2.2e-4,0.0092 0.22991,-0.01005 0.46092,-0.0098 0.6893,-0.03422 0.14857,-0.01575 0.25694,-0.08907 0.2564,-0.27339 -6.2e-4,-0.18928 -0.10976,-0.234181 -0.26409,-0.256754 -0.37933,-0.05547 -0.76147,1.8e-4 -1.13983,-0.03181 -0.23001,-0.01945 -0.2482,0.08114 -0.26187,0.272062 -0.0191,0.266922 0.0636,0.362226 0.32958,0.318478 0.12683,-0.02095 0.25996,-0.0038 0.39029,-0.0038 z m 0.0944,-1.246062 c -0.26689,0 -0.46725,0.0083 -0.66653,-0.003 -0.13722,-0.0077 -0.15774,0.06912 -0.13672,0.164957 0.031,0.141657 -0.105,0.3952 0.086,0.410389 0.44518,0.03543 0.89867,0.05984 1.34653,-0.01884 0.15413,-0.02707 0.22003,-0.108742 0.22167,-0.26619 0.002,-0.165922 -0.09,-0.226131 -0.23125,-0.261413 -0.22774,-0.05691 -0.4582,-0.01176 -0.61967,-0.02608 z m -0.092,1.325755 c -0.16048,0 -0.32093,0 -0.48137,0 -0.40679,0 -0.4072,-6e-5 -0.4079,-0.416744 -4.6e-4,-0.261533 0.008,-0.523308 -0.003,-0.784479 -0.005,-0.151465 0.0329,-0.218027 0.19841,-0.213912 0.43141,0.01085 0.8636,-0.0038 1.29477,0.01183 0.50533,0.01816 0.62318,0.238113 0.35441,0.655098 -0.0501,0.07776 -0.003,0.08242 0.0293,0.102872 0.16217,0.104928 0.13979,0.265226 0.0968,0.405007 -0.0494,0.160961 -0.20401,0.220928 -0.36022,0.228316 -0.24024,0.01116 -0.48142,0.003 -0.72221,0.003 0,0.003 -2e-5,0.0061 -2e-5,0.0091" />
<path style="fill:#fef8f8;fill-opacity:1;fill-rule:evenodd;stroke:none;stroke-width:0.0060512" d="m 165.41777,36.188072 c 0.42347,0 0.80758,0 1.21828,0 -0.18376,-0.247188 -0.34715,-0.4637 -0.5066,-0.683055 -0.0674,-0.09283 -0.1203,-0.121329 -0.2006,-0.0075 -0.16048,0.227887 -0.33111,0.448514 -0.51108,0.690314 z m -0.57315,0.485433 c 0.34792,-0.44289 0.68727,-0.883475 1.03703,-1.315595 0.12484,-0.154247 0.24205,-0.07818 0.34147,0.0496 0.32512,0.418198 0.65142,0.835492 0.98404,1.261861 -0.15678,0.102268 -0.22146,-0.02254 -0.27521,-0.116793 -0.11321,-0.198717 -0.26969,-0.270187 -0.49661,-0.244159 -0.17827,0.02042 -0.36083,0.0075 -0.54141,0.003 -0.3275,-0.0067 -0.6677,-0.0569 -0.83891,0.335174 -0.0297,0.06828 -0.10711,0.08376 -0.2104,0.02652" />
<path style="fill:#fef8f8;fill-opacity:1;fill-rule:evenodd;stroke:none;stroke-width:0.0060512" d="m 174.12677,35.42865 c 0,0.411783 0.003,0.760396 -0.003,1.108881 -6.9e-4,0.05819 0.0448,0.16145 -0.0737,0.156364 -0.0999,-0.0046 -0.0828,-0.09579 -0.0833,-0.163684 -0.002,-0.322586 -0.005,-0.64518 -1.2e-4,-0.967706 0.002,-0.08514 -0.0429,-0.19527 0.05,-0.251915 0.10771,-0.0655 0.19061,0.02631 0.26721,0.08454 0.43999,0.334993 0.87658,0.674464 1.31542,1.011031 0.0535,0.04094 0.11352,0.07334 0.20918,0.1344 0,-0.383886 -0.004,-0.729772 0.004,-1.075483 0.002,-0.05367 -0.0402,-0.164285 0.0785,-0.153274 0.0805,0.0075 0.0571,0.0898 0.0572,0.146317 6.9e-4,0.342138 0.004,0.68439 -0.002,1.026407 -7e-4,0.07438 0.0484,0.179112 -0.0376,0.219233 -0.0879,0.041 -0.16712,-0.02834 -0.24101,-0.08586 -0.49215,-0.382373 -0.98677,-0.761603 -1.54221,-1.189245" />
<path style="fill:#fef8f8;fill-opacity:1;fill-rule:evenodd;stroke:none;stroke-width:0.0060512" d="m 168.38255,35.373648 c -0.0918,0 -0.1716,-6e-5 -0.25155,6e-5 -0.48663,7.04e-4 -0.49335,7.04e-4 -0.48294,0.483126 0.005,0.247009 -0.11467,0.573409 0.0519,0.720517 0.17476,0.154306 0.49892,0.04334 0.75748,0.04425 0.91229,0.003 0.91126,-0.0022 0.88015,-0.892737 -0.006,-0.182566 -0.0834,-0.271514 -0.25039,-0.318653 -0.23726,-0.06693 -0.47816,-0.01658 -0.70461,-0.03656 z m -0.0469,1.332653 c -0.20115,0 -0.40319,-0.01191 -0.60319,0.0038 -0.19103,0.0147 -0.27189,-0.03467 -0.26008,-0.244709 0.018,-0.321622 0.0143,-0.64518 0.003,-0.967344 -0.005,-0.16072 0.0506,-0.210707 0.20434,-0.207497 0.44253,0.009 0.88573,-0.0038 1.32765,0.01553 0.38115,0.01681 0.46944,0.127194 0.46794,0.500491 -5.5e-4,0.140694 -6.4e-4,0.281388 -7.1e-4,0.422074 -2.5e-4,0.318599 -0.0965,0.439438 -0.41554,0.46419 -0.23963,0.01862 -0.48191,0.0038 -0.723,0.0038 0,0.003 0,0.0068 0,0.01015" />
<path style="fill:#fef8f8;fill-opacity:1;fill-rule:evenodd;stroke:none;stroke-width:0.0060512" d="m 176.23283,35.30551 c 0.57806,0 1.15615,0 1.7341,0 0.002,0.02345 0.003,0.04704 0.005,0.07048 -0.18583,0 -0.37378,0.01763 -0.5569,-0.0046 -0.20198,-0.02457 -0.234,0.05978 -0.22714,0.234119 0.0122,0.311574 0.004,0.624 0.004,0.936056 0,0.06874 0.0159,0.159996 -0.086,0.157938 -0.11062,-0.0022 -0.0721,-0.101663 -0.0728,-0.163621 -0.003,-0.322172 -0.009,-0.644637 0.003,-0.966439 0.005,-0.160962 -0.0492,-0.208282 -0.20677,-0.196666 -0.19746,0.01454 -0.39666,0.0038 -0.59513,0.0038 -6e-5,-0.02352 -1.4e-4,-0.04711 -2.5e-4,-0.07063" />
<path style="fill:#fef8f8;fill-opacity:1;fill-rule:evenodd;stroke:none;stroke-width:0.0060512" d="m 173.28796,35.997647 c -3.6e-4,-0.189829 -0.002,-0.37965 3.6e-4,-0.56948 6.3e-4,-0.05683 -0.0102,-0.126712 0.0835,-0.12369 0.0657,0.0022 0.0807,0.04628 0.0808,0.09967 7e-4,0.39974 0.002,0.799426 4.7e-4,1.199166 -5e-5,0.05532 -0.0211,0.09434 -0.0871,0.09337 -0.0695,-7.04e-4 -0.077,-0.04832 -0.0772,-0.09949 -7.1e-4,-0.199869 -4.4e-4,-0.399679 -7.1e-4,-0.599549" />
<path style="fill:#951c22;fill-opacity:1;fill-rule:evenodd;stroke:none;stroke-width:0.0060512" d="m 165.00269,34.351779 c -0.0257,0.0272 -0.0679,0.05767 -0.0885,0.02216 -0.0278,-0.04817 0.0335,-0.04251 0.0598,-0.05638 0.009,0.01154 0.0189,0.02298 0.0287,0.03422" />
<path style="fill:#fef8f8;fill-opacity:1;fill-rule:evenodd;stroke:none;stroke-width:0.0060512" d="m 171.29337,29.143696 c -0.0261,0.03943 -0.0695,0.0904 -0.10609,0.05073 -0.05,-0.05411 0.0328,-0.06836 0.0591,-0.09941 0.0156,0.01613 0.0314,0.03241 0.0471,0.04869" />
<path style="fill:#fef8f8;fill-opacity:1;fill-rule:evenodd;stroke:none;stroke-width:0.0060512" d="m 169.83575,27.803176 c -0.0214,-0.01696 -0.0359,-0.02849 -0.0505,-0.04002 0.0252,-0.01485 0.0489,-0.03347 0.0759,-0.04222 0.008,-0.0022 0.0252,0.02231 0.0381,0.03467 -0.0215,0.01613 -0.0429,0.03219 -0.0634,0.04748" />
<path style="fill:#e2262d;fill-opacity:1;fill-rule:evenodd;stroke:none;stroke-width:0.0060512" d="m 170.52353,41.886124 c 0.1802,0.17422 0.26474,0.394847 0.41366,0.614201 -0.24725,0 -0.45287,0 -0.6715,0 0.0523,-0.217907 0.1517,-0.409726 0.25784,-0.614201" />
<path style="fill:#e2262d;fill-opacity:1;fill-rule:evenodd;stroke:none;stroke-width:0.0060512" d="m 172.94238,39.440957 c -0.71919,-7.04e-4 -0.71919,-7.04e-4 -0.71363,-0.711562 0.004,-0.496557 0.0245,-0.517556 0.52943,-0.51901 0.20119,-4.83e-4 0.4027,-0.003 0.60348,0.0067 0.20544,0.01025 0.34957,0.08739 0.3045,0.334812 -0.0107,0.05856 -0.004,0.120477 -0.004,0.180807 -0.004,0.697339 0.16357,0.695952 -0.72027,0.707809" />
<path style="fill:#e2262d;fill-opacity:1;fill-rule:evenodd;stroke:none;stroke-width:0.0060512" d="m 178.44623,39.04727 c 0.18487,-0.266379 0.33803,-0.48706 0.50976,-0.734498 0.17396,0.240172 0.34044,0.469995 0.53196,0.734498 -0.36258,0 -0.67615,0 -1.04172,0" />
<path style="fill:#e2262d;fill-opacity:1;fill-rule:evenodd;stroke:none;stroke-width:0.0060512" d="m 166.27649,39.044421 c 0.17004,-0.249548 0.32549,-0.477676 0.50237,-0.737152 0.17786,0.246467 0.34334,0.47574 0.5319,0.737152 -0.35986,0 -0.67979,0 -1.03427,0" />
<path style="fill:#e2262d;fill-opacity:1;fill-rule:evenodd;stroke:none;stroke-width:0.0060512" d="m 179.20487,36.622191 c -0.79174,0.01523 -0.97877,-0.223169 -0.7956,-0.998814 0.0306,-0.128768 0.11297,-0.183045 0.22855,-0.203803 0.37741,-0.06784 0.75512,-0.0741 1.13387,-0.0053 0.17955,0.03262 0.25542,0.135846 0.24677,0.315026 -0.005,0.120297 -0.002,0.241077 -0.002,0.361615 7e-4,0.46092 -0.066,0.526699 -0.54123,0.531176 -0.0903,7.05e-4 -0.18074,1.21e-4 -0.27108,1.21e-4" />
<path style="fill:#e2262d;fill-opacity:1;fill-rule:evenodd;stroke:none;stroke-width:0.0060512" d="m 163.55652,35.378548 c 0.16147,0.01431 0.39193,-0.03083 0.61967,0.02608 0.14126,0.03527 0.23295,0.0955 0.23125,0.261413 -0.002,0.157449 -0.0675,0.239148 -0.22167,0.266191 -0.44786,0.07867 -0.90135,0.05427 -1.34653,0.01885 -0.19097,-0.01524 -0.055,-0.268733 -0.086,-0.410392 -0.021,-0.09585 -5e-4,-0.172704 0.13672,-0.164955 0.19928,0.01124 0.39964,0.003 0.66653,0.003" />
<path style="fill:#e2262d;fill-opacity:1;fill-rule:evenodd;stroke:none;stroke-width:0.0060512" d="m 163.46207,36.62461 c -0.13033,0 -0.26346,-0.01734 -0.39029,0.0038 -0.26592,0.04372 -0.34865,-0.05155 -0.32958,-0.318478 0.0137,-0.190916 0.0318,-0.291547 0.26187,-0.272063 0.37836,0.03195 0.7605,-0.02375 1.13983,0.03181 0.15433,0.02254 0.26347,0.06746 0.26409,0.256755 5.4e-4,0.184319 -0.10783,0.257598 -0.2564,0.273389 -0.22838,0.02442 -0.45939,0.02412 -0.6893,0.03422 -4e-5,-0.003 -1.3e-4,-0.006 -2.2e-4,-0.0092" />
<path style="fill:#e2262d;fill-opacity:1;fill-rule:evenodd;stroke:none;stroke-width:0.0060512" d="m 165.41777,36.188072 c 0.17997,-0.241799 0.3506,-0.462427 0.51108,-0.690313 0.0803,-0.114071 0.13313,-0.08556 0.2006,0.0075 0.15945,0.219354 0.32284,0.435866 0.5066,0.683055 -0.4107,0 -0.79481,0 -1.21828,0" />
<path style="fill:#e2262d;fill-opacity:1;fill-rule:evenodd;stroke:none;stroke-width:0.0060512" d="m 168.38255,35.373648 c 0.22644,0.01998 0.46734,-0.03037 0.70461,0.03655 0.16695,0.04711 0.24398,0.136089 0.25039,0.318652 0.0311,0.890312 0.0321,0.896002 -0.88015,0.892739 -0.25856,-7.04e-4 -0.58273,0.11007 -0.75748,-0.04425 -0.16653,-0.147108 -0.0466,-0.473508 -0.0519,-0.720516 -0.0104,-0.482222 -0.004,-0.482401 0.48294,-0.483125 0.08,-1.21e-4 0.15982,-6.2e-5 0.25155,-6.2e-5" />


</svg>
