<svg xmlns="http://www.w3.org/2000/svg" version="1.1" viewBox="0 0 210 297">
<style>
text {
	font-family: Arial,Helvetica;
}
.setupsheet_normal {
	font-size: 4px;
}

.thin {
	stroke: #000;
	stroke-width: 0.1;
}
.thick {
	stroke: #000;
	stroke-width: 0.5;
}
.x {
	text-anchor: middle;
}
</style>

<!-- top block -->
<text x="25" y="23" class="setupsheet_normal" data-fill-id="tournament_name"></text>
<text x="25" y="28.5" class="setupsheet_normal" data-fill-id="event_name"></text>
<text x="25" y="34" class="setupsheet_normal" data-fill-id="setup_desc"></text>
<text x="25" y="44" style="font-size: 8px;" data-fill-id="team_name"></text>
<text x="185" y="23" class="setupsheet_normal" data-fill-id="date" text-anchor="end"></text>

<g data-fill-id="vlines_m">
	<line class="thick" x1="25" x2="25" y1="60" y2="76" />
	<line class="thin" x1="35" x2="35" y1="68" y2="76" />
	<line class="thick" x1="143" x2="143" y1="60" y2="76" />
	<line class="thin" x1="153" x2="153" y1="60" y2="76" />
	<line class="thin" x1="163" x2="163" y1="60" y2="76" />
	<line class="thick" x1="173" x2="173" y1="60" y2="76" />
	<line class="thick" x1="175" x2="175" y1="60" y2="76" />
	<line class="thick" x1="185" x2="185" y1="60" y2="76" />
</g>
<g data-fill-id="fixed_m">
	<text class="setupsheet_normal" x="37" y="65.5" data-fill-id="header"></text>
	<text class="setupsheet_normal" x="148" y="65.5" text-anchor="middle" data-fill-id="d-0"></text>
	<text class="setupsheet_normal" x="158" y="65.5" text-anchor="middle" data-fill-id="d-1"></text>
	<text class="setupsheet_normal" x="168" y="65.5" text-anchor="middle" data-fill-id="d-2"></text>
	<text class="setupsheet_normal" x="180" y="65.5" text-anchor="middle" data-fill-id="d-3"></text>
	<line class="thick" x1="25" x2="173" y1="60" y2="60" />
	<line class="thick" x1="25" x2="173" y1="68" y2="68" />
	<line class="thick" x1="175" x2="185" y1="60" y2="60" />
	<line class="thick" x1="175" x2="185" y1="68" y2="68" />
</g>
<g data-fill-id="template_m" data-fill-height="8">
	<text class="setupsheet_normal" text-anchor="middle" x="30.0" y="73.5" data-fill-id="idx"></text>
	<text class="setupsheet_normal" x="37" y="73.5" data-fill-id="name"></text>
	<text class="setupsheet_normal" x="148" y="73.5" text-anchor="middle" data-fill-id="x_0"></text>
	<text class="setupsheet_normal" x="158" y="73.5" text-anchor="middle" data-fill-id="x_1"></text>
	<text class="setupsheet_normal" x="168" y="73.5" text-anchor="middle" data-fill-id="x_2"></text>
	<text class="setupsheet_normal" x="180" y="73.5" text-anchor="middle" data-fill-id="x_3"></text>
	<line class="thin" x1="25" x2="173" y1="76" y2="76" data-fill-id="bottom_line" />
	<line class="thin" x1="175" x2="185" y1="76" y2="76" data-fill-id="bottom_line" />
</g>

<g data-fill-id="vlines_f">
	<line class="thick" x1="25" x2="25" y1="95" y2="111" />
	<line class="thin" x1="35" x2="35" y1="103" y2="111" />
	<line class="thick" x1="143" x2="143" y1="95" y2="111" />
	<line class="thin" x1="153" x2="153" y1="95" y2="111" />
	<line class="thin" x1="163" x2="163" y1="95" y2="111" />
	<line class="thick" x1="173" x2="173" y1="95" y2="111" />
	<line class="thick" x1="175" x2="175" y1="95" y2="111" />
	<line class="thick" x1="185" x2="185" y1="95" y2="111" />
</g>
<g data-fill-id="fixed_f">
	<text style="font-size: 2px;" x="180" y="78" text-anchor="middle" data-fill-id="label_backup_m"></text>

	<text class="setupsheet_normal" x="37" y="100.5" data-fill-id="header"></text>
	<text class="setupsheet_normal" x="148" y="100.5" text-anchor="middle" data-fill-id="d-0"></text>
	<text class="setupsheet_normal" x="158" y="100.5" text-anchor="middle" data-fill-id="d-1"></text>
	<text class="setupsheet_normal" x="168" y="100.5" text-anchor="middle" data-fill-id="d-2"></text>
	<text class="setupsheet_normal" x="180" y="100.5" text-anchor="middle" data-fill-id="d-3"></text>
	<line class="thick" x1="25" x2="173" y1="95" y2="95" />
	<line class="thick" x1="25" x2="173" y1="103" y2="103" />
	<line class="thick" x1="175" x2="185" y1="95" y2="95" />
	<line class="thick" x1="175" x2="185" y1="103" y2="103" />
</g>
<g data-fill-id="template_f" data-fill-height="8">
	<text class="setupsheet_normal" text-anchor="middle" x="30.0" y="108.5" data-fill-id="idx"></text>
	<text class="setupsheet_normal" x="37" y="108.5" data-fill-id="name"></text>
	<text class="setupsheet_normal" x="148" y="108.5" text-anchor="middle" data-fill-id="x_0"></text>
	<text class="setupsheet_normal" x="158" y="108.5" text-anchor="middle" data-fill-id="x_1"></text>
	<text class="setupsheet_normal" x="168" y="108.5" text-anchor="middle" data-fill-id="x_2"></text>
	<text class="setupsheet_normal" x="180" y="108.5" text-anchor="middle" data-fill-id="x_3"></text>
	<line class="thin" x1="25" x2="173" y1="111" y2="111" data-fill-id="bottom_line" />
	<line class="thin" x1="175" x2="185" y1="111" y2="111" data-fill-id="bottom_line" />
</g>


<!-- teamster -->
<g data-fill-id="lower">
	<text style="font-size: 2px;" x="180" y="113" text-anchor="middle" data-fill-id="label_backup_f"></text>

	<text x="37" y="130" class="setupsheet_normal" data-fill-id="teamster_label"></text>
	<text x="115" y="130" class="setupsheet_normal" data-fill-id="signature"></text>
	<line class="thick" x1="35" x2="163" y1="132" y2="132" />
	<line class="thick" x1="35" x2="35" y1="132" y2="140" />
	<line class="thick" x1="113" x2="113" y1="132" y2="140" />
	<line class="thick" x1="163" x2="163" y1="132" y2="140" />
	<line class="thick" x1="35" x2="163" y1="140" y2="140" />
</g>

</svg>
