<?xml version="1.0" encoding="UTF-8" ?>
<svg xmlns="http://www.w3.org/2000/svg" version="1.1" viewBox="0 0 297 210">
<style>
text {
	font-family: Helvetica;
	font-size: 4px;
}
line {
	stroke: #000;
	stroke-width: 0.2px;
}
</style>

<text style="font-size: 7px; font-weight:bold; fill: #000000;" x="20" y="15">Spielbericht</text>

<text x="20" y="25">Heimverein:</text>
<line x1="43" x2="130" y1="26" y2="26" />
<text x="45" y="25" id="es_svg_home_team_name"></text>
<text x="20" y="35">Gastverein:</text>
<line x1="43" x2="130" y1="36" y2="36" />
<text x="45" y="35" id="es_svg_away_team_name"></text>
<text x="132" y="25">Austragungsort:</text>
<line x1="162" x2="280" y1="26" y2="26" />
<text id="es_svg_location" x="163" y="25"></text>


<text x="80" y="15">Staffel:</text>
<line x1="94" x2="152" y1="16" y2="16" />
<text x="95" y="15" id="es_svg_tournament_name"></text>
<text x="170" y="15" style="text-anchor:end;">Spieltag:</text>
<line x1="172" x2="180" y1="16" y2="16" />
<text x="173" y="15" id="es_svg_matchday"></text>
<text x="183" y="15">Datum:</text>
<line x1="197" x2="219" y1="16" y2="16" />
<text x="198" y="15" id="es_svg_date"></text>
<text x="222" y="15">Beginn:</text>
<line x1="237" x2="250" y1="16" y2="16" />
<text x="238" y="15" id="es_svg_starttime"></text>
<text x="254" y="15">Ende:</text>
<line x1="267" x2="280" y1="16" y2="16" />
<text x="268" y="15" id="es_svg_endtime"></text>

<text x="132" y="35">Schiedsrichter:</text>
<line x1="160" x2="280" y1="36" y2="36" />
<text x="161" y="35" id="es_svg_umpires"></text>

<!-- horizontal lines -->
<line x1="20" x2="280" y1="44" y2="44" />
<line x1="20" x2="280" y1="50" y2="50" />
<line x1="20" x2="280" y1="60" y2="60" />
<line x1="20" x2="280" y1="70" y2="70" />
<line x1="20" x2="280" y1="80" y2="80" />
<line x1="20" x2="280" y1="90" y2="90" />
<line x1="20" x2="280" y1="100" y2="100" />
<line x1="20" x2="280" y1="110" y2="110" />
<line x1="20" x2="280" y1="120" y2="120" />
<line x1="20" x2="280" y1="130" y2="130" />
<line x1="232" x2="280" y1="140" y2="140" />

<!-- vertical lines -->
<line x1="20" x2="20" y1="44" y2="130" />
<line x1="28" x2="28" y1="44" y2="130" />
<line x1="40" x2="40" y1="44" y2="130" />
<line x1="109" x2="109" y1="44" y2="130" />
<line x1="178" x2="178" y1="44" y2="130" />
<line x1="196" x2="196" y1="44" y2="130" />
<line x1="214" x2="214" y1="44" y2="130" />
<line x1="232" x2="232" y1="44" y2="140" />
<line x1="242" x2="242" y1="47" y2="140" />
<line x1="252" x2="252" y1="44" y2="140" />
<line x1="259" x2="259" y1="47" y2="140" />
<line x1="266" x2="266" y1="44" y2="140" />
<line x1="273" x2="273" y1="47" y2="140" />
<line x1="280" x2="280" y1="44" y2="140" />


<text x="24" y="46.5" style="text-anchor:middle; font-size: 2px">Spiel-</text>
<text x="24" y="48.5" style="text-anchor:middle; font-size: 2px">folge</text>
<text x="24" y="56.5" id="es_svg_match0_order" style="text-anchor:middle;"></text>
<text x="24" y="66.5" id="es_svg_match1_order" style="text-anchor:middle;"></text>
<text x="24" y="76.5" id="es_svg_match2_order" style="text-anchor:middle;"></text>
<text x="24" y="86.5" id="es_svg_match3_order" style="text-anchor:middle;"></text>
<text x="24" y="96.5" id="es_svg_match4_order" style="text-anchor:middle;"></text>
<text x="24" y="106.5" id="es_svg_match5_order" style="text-anchor:middle;"></text>
<text x="24" y="116.5" id="es_svg_match6_order" style="text-anchor:middle;"></text>
<text x="24" y="126.5" id="es_svg_match7_order" style="text-anchor:middle;"></text>

<text x="34" y="48" style="text-anchor:middle; font-size: 3px">Disziplin</text>
<text x="34" y="56.5" style="text-anchor:middle;">1. HD</text>
<text x="34" y="66.5" style="text-anchor:middle;">2. HD</text>
<text x="34" y="76.5" style="text-anchor:middle;">DD</text>
<text x="34" y="86.5" style="text-anchor:middle;">1. HE</text>
<text x="34" y="96.5" style="text-anchor:middle;">2. HE</text>
<text x="34" y="106.5" style="text-anchor:middle;">3. HE</text>
<text x="34" y="116.5" style="text-anchor:middle;">DE</text>
<text x="34" y="126.5" style="text-anchor:middle;">GD</text>

<text x="74.5" y="48.5" style="text-anchor:middle;">Heimverein</text>
<text x="41" y="54" id="es_svg_match0_player0.0"></text>
<text x="41" y="58.5" id="es_svg_match0_player0.1"></text>
<text x="41" y="64" id="es_svg_match1_player0.0"></text>
<text x="41" y="68.5" id="es_svg_match1_player0.1"></text>
<text x="41" y="74" id="es_svg_match2_player0.0"></text>
<text x="41" y="78.5" id="es_svg_match2_player0.1"></text>
<text x="41" y="86.5" id="es_svg_match3_player0.0"></text>
<text x="41" y="96.5" id="es_svg_match4_player0.0"></text>
<text x="41" y="106.5" id="es_svg_match5_player0.0"></text>
<text x="41" y="116.5" id="es_svg_match6_player0.0"></text>
<text x="41" y="124" id="es_svg_match7_player0.0"></text>
<text x="41" y="128.5" id="es_svg_match7_player0.1"></text>

<text x="142.5" y="48.5" style="text-anchor:middle;">Gastverein</text>
<text x="110" y="54" id="es_svg_match0_player1.0"></text>
<text x="110" y="58.5" id="es_svg_match0_player1.1"></text>
<text x="110" y="64" id="es_svg_match1_player1.0"></text>
<text x="110" y="68.5" id="es_svg_match1_player1.1"></text>
<text x="110" y="74" id="es_svg_match2_player1.0"></text>
<text x="110" y="78.5" id="es_svg_match2_player1.1"></text>
<text x="110" y="86.5" id="es_svg_match3_player1.0"></text>
<text x="110" y="96.5" id="es_svg_match4_player1.0"></text>
<text x="110" y="106.5" id="es_svg_match5_player1.0"></text>
<text x="110" y="116.5" id="es_svg_match6_player1.0"></text>
<text x="110" y="124" id="es_svg_match7_player1.0"></text>
<text x="110" y="128.5" id="es_svg_match7_player1.1"></text>

<text x="187" y="48.5" style="text-anchor:middle;">1. Satz</text>
<text x="187" y="56.5" style="text-anchor:middle;" id="es_svg_match0_game0"></text>
<text x="187" y="66.5" style="text-anchor:middle;" id="es_svg_match1_game0"></text>
<text x="187" y="76.5" style="text-anchor:middle;" id="es_svg_match2_game0"></text>
<text x="187" y="86.5" style="text-anchor:middle;" id="es_svg_match3_game0"></text>
<text x="187" y="96.5" style="text-anchor:middle;" id="es_svg_match4_game0"></text>
<text x="187" y="106.5" style="text-anchor:middle;" id="es_svg_match5_game0"></text>
<text x="187" y="116.5" style="text-anchor:middle;" id="es_svg_match6_game0"></text>
<text x="187" y="126.5" style="text-anchor:middle;" id="es_svg_match7_game0"></text>

<text x="205" y="48.5" style="text-anchor:middle;">2. Satz</text>
<text x="205" y="56.5" style="text-anchor:middle;" id="es_svg_match0_game1"></text>
<text x="205" y="66.5" style="text-anchor:middle;" id="es_svg_match1_game1"></text>
<text x="205" y="76.5" style="text-anchor:middle;" id="es_svg_match2_game1"></text>
<text x="205" y="86.5" style="text-anchor:middle;" id="es_svg_match3_game1"></text>
<text x="205" y="96.5" style="text-anchor:middle;" id="es_svg_match4_game1"></text>
<text x="205" y="106.5" style="text-anchor:middle;" id="es_svg_match5_game1"></text>
<text x="205" y="116.5" style="text-anchor:middle;" id="es_svg_match6_game1"></text>
<text x="205" y="126.5" style="text-anchor:middle;" id="es_svg_match7_game1"></text>

<text x="223" y="48.5" style="text-anchor:middle;">3. Satz</text>
<text x="223" y="56.5" style="text-anchor:middle;" id="es_svg_match0_game2"></text>
<text x="223" y="66.5" style="text-anchor:middle;" id="es_svg_match1_game2"></text>
<text x="223" y="76.5" style="text-anchor:middle;" id="es_svg_match2_game2"></text>
<text x="223" y="86.5" style="text-anchor:middle;" id="es_svg_match3_game2"></text>
<text x="223" y="96.5" style="text-anchor:middle;" id="es_svg_match4_game2"></text>
<text x="223" y="106.5" style="text-anchor:middle;" id="es_svg_match5_game2"></text>
<text x="223" y="116.5" style="text-anchor:middle;" id="es_svg_match6_game2"></text>
<text x="223" y="126.5" style="text-anchor:middle;" id="es_svg_match7_game2"></text>


<text x="242" y="46.5" style="text-anchor:middle; font-size: 2.5px;">Punkte</text>

<text x="237" y="49" style="text-anchor:middle; font-size: 2.5px;">Heim</text>
<text x="237" y="56.5" style="text-anchor:middle;" id="es_svg_match0_points0"></text>
<text x="237" y="66.5" style="text-anchor:middle;" id="es_svg_match1_points0"></text>
<text x="237" y="76.5" style="text-anchor:middle;" id="es_svg_match2_points0"></text>
<text x="237" y="86.5" style="text-anchor:middle;" id="es_svg_match3_points0"></text>
<text x="237" y="96.5" style="text-anchor:middle;" id="es_svg_match4_points0"></text>
<text x="237" y="106.5" style="text-anchor:middle;" id="es_svg_match5_points0"></text>
<text x="237" y="116.5" style="text-anchor:middle;" id="es_svg_match6_points0"></text>
<text x="237" y="126.5" style="text-anchor:middle;" id="es_svg_match7_points0"></text>

<text x="247" y="49" style="text-anchor:middle; font-size: 2.5px;">Gast</text>
<text x="247" y="56.5" style="text-anchor:middle;" id="es_svg_match0_points1"></text>
<text x="247" y="66.5" style="text-anchor:middle;" id="es_svg_match1_points1"></text>
<text x="247" y="76.5" style="text-anchor:middle;" id="es_svg_match2_points1"></text>
<text x="247" y="86.5" style="text-anchor:middle;" id="es_svg_match3_points1"></text>
<text x="247" y="96.5" style="text-anchor:middle;" id="es_svg_match4_points1"></text>
<text x="247" y="106.5" style="text-anchor:middle;" id="es_svg_match5_points1"></text>
<text x="247" y="116.5" style="text-anchor:middle;" id="es_svg_match6_points1"></text>
<text x="247" y="126.5" style="text-anchor:middle;" id="es_svg_match7_points1"></text>


<text x="259" y="46.5" style="text-anchor:middle; font-size: 2.5px;">Sätze</text>

<text x="255.5" y="49" style="text-anchor:middle; font-size: 2.5px;">Heim</text>
<text x="255.5" y="56.5" style="text-anchor:middle;" id="es_svg_match0_games0"></text>
<text x="255.5" y="66.5" style="text-anchor:middle;" id="es_svg_match1_games0"></text>
<text x="255.5" y="76.5" style="text-anchor:middle;" id="es_svg_match2_games0"></text>
<text x="255.5" y="86.5" style="text-anchor:middle;" id="es_svg_match3_games0"></text>
<text x="255.5" y="96.5" style="text-anchor:middle;" id="es_svg_match4_games0"></text>
<text x="255.5" y="106.5" style="text-anchor:middle;" id="es_svg_match5_games0"></text>
<text x="255.5" y="116.5" style="text-anchor:middle;" id="es_svg_match6_games0"></text>
<text x="255.5" y="126.5" style="text-anchor:middle;" id="es_svg_match7_games0"></text>

<text x="262.5" y="49" style="text-anchor:middle; font-size: 2.5px;">Gast</text>
<text x="262.5" y="56.5" style="text-anchor:middle;" id="es_svg_match0_games1"></text>
<text x="262.5" y="66.5" style="text-anchor:middle;" id="es_svg_match1_games1"></text>
<text x="262.5" y="76.5" style="text-anchor:middle;" id="es_svg_match2_games1"></text>
<text x="262.5" y="86.5" style="text-anchor:middle;" id="es_svg_match3_games1"></text>
<text x="262.5" y="96.5" style="text-anchor:middle;" id="es_svg_match4_games1"></text>
<text x="262.5" y="106.5" style="text-anchor:middle;" id="es_svg_match5_games1"></text>
<text x="262.5" y="116.5" style="text-anchor:middle;" id="es_svg_match6_games1"></text>
<text x="262.5" y="126.5" style="text-anchor:middle;" id="es_svg_match7_games1"></text>


<text x="273" y="46.5" style="text-anchor:middle; font-size: 2.5px;">Spiele</text>

<text x="269.5" y="49" style="text-anchor:middle; font-size: 2.5px;">Heim</text>
<text x="269.5" y="56.5" style="text-anchor:middle;" id="es_svg_match0_matches0"></text>
<text x="269.5" y="66.5" style="text-anchor:middle;" id="es_svg_match1_matches0"></text>
<text x="269.5" y="76.5" style="text-anchor:middle;" id="es_svg_match2_matches0"></text>
<text x="269.5" y="86.5" style="text-anchor:middle;" id="es_svg_match3_matches0"></text>
<text x="269.5" y="96.5" style="text-anchor:middle;" id="es_svg_match4_matches0"></text>
<text x="269.5" y="106.5" style="text-anchor:middle;" id="es_svg_match5_matches0"></text>
<text x="269.5" y="116.5" style="text-anchor:middle;" id="es_svg_match6_matches0"></text>
<text x="269.5" y="126.5" style="text-anchor:middle;" id="es_svg_match7_matches0"></text>

<text x="276.5" y="49" style="text-anchor:middle; font-size: 2.5px;">Gast</text>
<text x="276.5" y="56.5" style="text-anchor:middle;" id="es_svg_match0_matches1"></text>
<text x="276.5" y="66.5" style="text-anchor:middle;" id="es_svg_match1_matches1"></text>
<text x="276.5" y="76.5" style="text-anchor:middle;" id="es_svg_match2_matches1"></text>
<text x="276.5" y="86.5" style="text-anchor:middle;" id="es_svg_match3_matches1"></text>
<text x="276.5" y="96.5" style="text-anchor:middle;" id="es_svg_match4_matches1"></text>
<text x="276.5" y="106.5" style="text-anchor:middle;" id="es_svg_match5_matches1"></text>
<text x="276.5" y="116.5" style="text-anchor:middle;" id="es_svg_match6_matches1"></text>
<text x="276.5" y="126.5" style="text-anchor:middle;" id="es_svg_match7_matches1"></text>


<text x="20" y="136.5">Sieger:</text>
<line x1="34" x2="120" y1="137.5" y2="137.5" />
<text x="35" y="136.5" id="es_svg_winner"></text>

<text x="230" y="136.5" style="text-anchor: end;">Ergebnis:</text>
<text x="237" y="136.5" style="text-anchor:middle;" id="es_svg_sum_points0"></text>
<text x="247" y="136.5" style="text-anchor:middle;" id="es_svg_sum_points1"></text>
<text x="255.5" y="136.5" style="text-anchor:middle;" id="es_svg_sum_games0"></text>
<text x="262.5" y="136.5" style="text-anchor:middle;" id="es_svg_sum_games1"></text>
<text x="269.5" y="136.5" style="text-anchor:middle;" id="es_svg_sum_matches0"></text>
<text x="276.5" y="136.5" style="text-anchor:middle;" id="es_svg_sum_matches1"></text>

<text x="20" y="146">Vorgesehene Ersatzspieler:</text>
<text x="71" y="146" id="es_svg_backup_players"></text>
<line x1="70" x2="280" y1="147" y2="147" />


<text x="20" y="154">Besondere Vorkommnisse:</text>
<text x="69" y="154" id="es_svg_notes"></text>
<line x1="68" x2="280" y1="155" y2="155" />
<line x1="20" x2="280" y1="162" y2="162" />

<text x="20" y="169">Die Richtigkeit der eingetragenen Daten wird bescheinigt. Das Spiel hat unter Beachtung der zuständigen Spielordnung stattgefunden.</text>

<line x1="80" x2="140" y1="178" y2="178" />
<text x="110" y="180" style="text-anchor: middle; font-size: 2px;">Leitender Schiedsrichter</text>
<line x1="150" x2="210" y1="178" y2="178" />
<text x="180" y="180" style="text-anchor: middle; font-size: 2px;">Mannschaftsführer Heimmannschaft</text>
<line x1="220" x2="280" y1="178" y2="178" />
<text x="250" y="180" style="text-anchor: middle; font-size: 2px;">Mannschaftsführer Gastmannschaft</text>


<text x="20" y="189">Protestgrund:</text>
<text x="46" y="189" id="es_svg_protest"></text>
<line x1="45" x2="190" y1="190" y2="190" />
<text x="216" y="192" style="text-anchor: middle; font-size: 2px;">Mannschaftsführer Heimmannschaft</text>
<line x1="196" x2="236" y1="190" y2="190" />
<text x="260" y="192" style="text-anchor: middle; font-size: 2px;">Mannschaftsführer Gastmannschaft</text>
<line x1="240" x2="280" y1="190" y2="190" />

</svg>
