<?xml version="1.0" encoding="UTF-8" standalone="no"?>
<svg
   xmlns:dc="http://purl.org/dc/elements/1.1/"
   xmlns:cc="http://creativecommons.org/ns#"
   xmlns:rdf="http://www.w3.org/1999/02/22-rdf-syntax-ns#"
   xmlns:svg="http://www.w3.org/2000/svg"
   xmlns="http://www.w3.org/2000/svg"
   xmlns:xlink="http://www.w3.org/1999/xlink"
   xmlns:sodipodi="http://sodipodi.sourceforge.net/DTD/sodipodi-0.dtd"
   xmlns:inkscape="http://www.inkscape.org/namespaces/inkscape"
   version="1.1"
   viewBox="0 0 100 100"
   id="svg2"
   inkscape:version="0.91 r13725"
   sodipodi:docname="options_icon.svg">
  <metadata
     id="metadata10">
    <rdf:RDF>
      <cc:Work
         rdf:about="">
        <dc:format>image/svg+xml</dc:format>
        <dc:type
           rdf:resource="http://purl.org/dc/dcmitype/StillImage" />
      </cc:Work>
    </rdf:RDF>
  </metadata>
  <defs
     id="defs8">
    <linearGradient
       inkscape:collect="always"
       id="blue">
      <stop
         style="stop-color:#5b5e69;stop-opacity:1"
         offset="0"
         id="stop4154" />
      <stop
         id="stop4160"
         offset="0.5"
         style="stop-color:#3f4155;stop-opacity:1" />
      <stop
         style="stop-color:#363961;stop-opacity:1"
         offset="1"
         id="stop4156" />
    </linearGradient>
    <linearGradient
       inkscape:collect="always"
       xlink:href="#blue"
       id="linearGradient4158"
       x1="0.0003"
       y1="50.0171"
       x2="100.0005"
       y2="50.0171"
       gradientUnits="userSpaceOnUse" />
  </defs>
  <sodipodi:namedview
     pagecolor="#ffffff"
     bordercolor="#666666"
     borderopacity="1"
     objecttolerance="10"
     gridtolerance="10"
     guidetolerance="10"
     inkscape:pageopacity="0"
     inkscape:pageshadow="2"
     inkscape:window-width="1920"
     inkscape:window-height="1033"
     id="namedview6"
     showgrid="false"
     inkscape:zoom="2.36"
     inkscape:cx="-31.144068"
     inkscape:cy="50"
     inkscape:window-x="0"
     inkscape:window-y="0"
     inkscape:window-maximized="1"
     inkscape:current-layer="svg2" />
  <path
     d="m50.011 0c-2.8839 0-5.7139 0.25936-8.4642 0.7281l-1.3424 14.221c-2.8444 0.79287-5.5365 1.9015-8.0546 3.322l-10.99-9.0785c-4.6419 3.286-8.7054 7.3259-11.991 11.968l9.1012 10.99c-1.4188 2.5151-2.552 5.214-3.3447 8.0546l-14.197 1.35c-0.46893 2.75-0.728 5.58-0.728 8.49 0 2.8897 0.25747 5.7085 0.7281 8.4641l14.198 1.3425c0.79274 2.8406 1.926 5.5395 3.3447 8.0546l-9.0785 10.99c3.2796 4.6294 7.3161 8.6885 11.945 11.968l11.013-9.1013c2.5197 1.4217 5.2082 2.5515 8.0546 3.3447l1.3424 14.221c2.7503 0.4688 5.5803 0.7054 8.4642 0.7054 2.8838 0 5.6911-0.2366 8.4414-0.7054l1.3424-14.221c2.8465-0.7932 5.5349-1.923 8.0546-3.3447l11.013 9.1013c4.6293-3.2797 8.6658-7.3388 11.945-11.968l-9.0785-10.99c1.4188-2.5151 2.552-5.214 3.3447-8.0546l14.198-1.3425c0.47063-2.7556 0.7281-5.5744 0.7281-8.4641 0-2.8848-0.25907-5.7131-0.7281-8.4642l-14.198-1.3424c-0.79274-2.8406-1.926-5.5395-3.3447-8.0546l9.1012-10.99c-3.2855-4.6423-7.349-8.6821-11.991-11.968l-10.99 9.0785c-2.5181-1.4205-5.2102-2.5291-8.0546-3.322l-1.3424-14.221c-2.7503-0.46874-5.5576-0.7281-8.4414-0.7281zm0 30.967c10.516 0 19.022 8.528 19.022 19.044s-8.5053 19.044-19.022 19.044c-10.516 0-19.044-8.528-19.044-19.044s8.528-19.044 19.044-19.044z"
     id="path4"
     style="fill:url(#linearGradient4158);fill-opacity:1;opacity:1" />
</svg>
