<svg id="Ebene_1" data-name="Ebene 1" xmlns="http://www.w3.org/2000/svg" viewBox="0 0 500 500"><defs><style>.cls-1{fill:#fff200;}.cls-2{fill:#231f20;}</style></defs><title>1._BC_Beuel_Logo</title><path class="cls-1" d="M465.988,125c68.974,119.586,28.083,272.5-91.5,341.474s-272.5,28.083-341.474-91.5c-68.974-119.431-28.083-272.346,91.5-341.32C244.1-35.476,397.014,5.569,465.988,125"/><path class="cls-2" d="M234.224,325.595c-.309-1.235-1.7-1.389-2.777-1.08l-2.623.772.772,3.395,2.932-.772c1.543-.463,2.006-1.235,1.7-2.315m97.983,48.914-5.555-8.641-.617,10.184-9.875,2.778,9.567,3.7-.463,10.338,6.481-8.024,9.567,3.7-5.555-8.8,6.481-8.024-10.03,2.777Zm54.932-87.49,7.407,27.62L373.1,342.723l59.1-15.739-18.979-16.819,26.54-37.187-52.618,14.042Zm-21.757,35.953,4.938,18.362L389.3,316.645ZM343.625,211.256,333.441,173.3h.154s1.852,2.932,3.549,6.172c1.852,3.395,4.783,4.475,7.561,5.246,2.623.772,9.875-.926,11.418.772,1.389,1.7-11.11,24.843-12.5,25.769m-22.374-54.932-42.279,73.449,4.475-54.161,29.318-50.92Zm-45.674,63.265-4.475,1.08a76.172,76.172,0,0,0,2.932-8.024c.617,2.006,1.234,4.012,1.7,5.555l-.154,1.389Zm-1.234,15.122-3.7,1.08-.154-12.807,4.938-1.234-1.08,12.962ZM272.8,253.535l-1.852.463-.309-16.2,3.549-.926L272.8,253.535Zm1.852,7.252c.154.154.154.154.154.309l-35.953,9.567a.478.478,0,0,0-.154-.309c-.154-.772-.463-2.006-.772-3.24a9.982,9.982,0,0,1-.617-2.006l35.953-9.567a16.006,16.006,0,0,1,.617,2.006c.309,1.234.617,2.469.772,3.24h0m-12.19,26.386c-10.338,2.777-19.134-3.395-22.991-14.5l35.8-9.567c2.16,11.573-2.315,21.294-12.807,24.071m-26.695,17.282-31.787,8.487,28.392-48.914.772,1.08a30.019,30.019,0,0,0,.772,3.086c.309,1.234.617,2.623.772,3.24,2.006,7.1,5.709,12.807,10.647,16.511Zm7.87,15.276a7.068,7.068,0,0,1,4.012-2.932c3.549-.926,6.944.617,7.87,3.7l.309.617-3.395.926-.154-.617a2.636,2.636,0,0,0-1.234-1.389,3.688,3.688,0,0,0-4.629,1.234c-.926,1.389-.463,3.086,0,4.629s.926,3.24,2.315,4.012a3.177,3.177,0,0,0,2.623.309c1.7-.463,2.777-1.852,2.315-3.395v-.617l3.24-.926.154.617a6.291,6.291,0,0,1-4.938,7.252,7.242,7.242,0,0,1-5.092-.463c-2.469-1.234-3.24-3.549-3.858-5.864s-1.08-4.783.463-7.1m31.169-9.875a6.656,6.656,0,0,1,4.629.309,4.856,4.856,0,0,1,2.006,2.623,4.584,4.584,0,0,1-.772,3.7,4.622,4.622,0,0,1,2.932,2.932,4.171,4.171,0,0,1-.617,3.549,6,6,0,0,1-4.012,2.623l-6.018,1.7-4.166-15.739,6.018-1.7Zm11.11-2.932,11.881-3.24.926,2.932-8.8,2.315.926,3.24,6.481-1.7.772,2.778-6.481,1.852,1.08,3.858,8.641-2.315.772,2.778-11.881,3.24-4.32-15.739Zm16.51-4.475,3.24-.772,2.623,9.875c.617,2.16,1.852,2.932,4.012,2.315,2.006-.463,2.623-1.852,2.16-4.012l-2.623-9.875,3.086-.926,2.777,9.875c.926,3.858-.772,6.789-4.783,7.87-3.858,1.08-6.789-.617-7.87-4.475Zm30.244-8.024.772,2.932-8.8,2.315.926,3.24,6.481-1.852.772,2.932-6.481,1.7,1.08,3.858,8.641-2.315.772,2.932-11.881,3.24-4.166-15.739,11.881-3.24ZM239.625,331.15a4.118,4.118,0,0,1-.463,3.549,7.237,7.237,0,0,1-4.012,2.777l-6.018,1.543-4.32-15.739,6.018-1.543a6.279,6.279,0,0,1,4.783.154,4.6,4.6,0,0,1,1.852,2.623,3.941,3.941,0,0,1-.617,3.7,4.092,4.092,0,0,1,2.777,2.932m-25.769,7.561,4.321-1.08,1.08,4.012-4.32,1.08Zm70.825,29.318a89.894,89.894,0,0,1-67.431-8.487l121.591-32.558a90.02,90.02,0,0,1-54.161,41.045m-57.247-118.66,3.7-.926,7.407,14.2-1.7.463Zm-8.487-12.5,5.4-1.543,5.864,11.264-4.012,1.08-7.252-10.8Zm-2.469-3.549a35.9,35.9,0,0,0-.926-5.092c2.315,2.006,5.246,4.166,7.1,5.555l-4.938,1.234Zm-2.623-4.012-25.923-37.65,6.635,2.315a.928.928,0,0,0,.617.154c3.395,6.018,15.739,28.083,17.128,30.552a10.447,10.447,0,0,1,.926,2.469c.154.772.463,1.389.617,2.16M175.28,308.159c-.309-1.234-.617-2.469-.926-3.549a.478.478,0,0,1-.154-.309l-7.407-27.775,33.947-58.79,13.733,19.905.772,1.234L175.28,308.159Zm49.84-170.506q12.036-3.24,22.683-5.555l-27,46.754-5.709-1.7a2.194,2.194,0,0,0-2.469.926l-3.395,6.635-10.493-2.777a2.023,2.023,0,0,0-2.469,1.234l-2.315,6.172L183.3,185.8a1.913,1.913,0,0,0-2.315.772,1.675,1.675,0,0,0,0,2.315l18.516,27-33.484,57.864-27.929-104c8.487-4.475,37.959-18.825,87.027-32.1m55.4-11.727-25.306,43.668-4.321-1.7a2.155,2.155,0,0,0-2.315.463l-6.481,7.252-9.1-3.395a2,2,0,0,0-2.469.926l-4.938,7.252-2.777-.926,27.62-47.989q17.359-3.7,30.089-5.555m-5.555,81.935c0-2.932-.926-27.775-1.08-34.564.154-.154.309-.154.309-.309l5.709-6.172-3.7,45.983-.463-1.852a28.941,28.941,0,0,1-.772-3.086m-10.647,2.932v-.154c-.154-2.932-1.389-34.873-1.389-34.873a1.042,1.042,0,0,0-.617-.926l-3.24-1.389,5.4-4.783,7.1,4.629h.154c.309,6.944,1.234,31.941,1.234,34.718.154,1.08-1.08,4.783-2.16,7.869-.617,1.7-1.08,3.086-1.543,4.166a17.23,17.23,0,0,1-1.543-2.469,34.578,34.578,0,0,1-3.395-6.789m-2.16,27.157L260.3,225.76l8.178-2.16.154,12.653-6.481,1.7Zm.309,2.16,6.172-1.7.309,16.2-4.166,1.08Zm-11.573.926L247.8,229.155l10.493-2.932,1.852,12.344-9.258,2.469Zm.463,2.006,9.1-2.469,2.315,15.585-7.407,2.006Zm5.864-18.517-8.95,2.315a87.634,87.634,0,0,0,3.086-9.567,62.556,62.556,0,0,0,5.864,7.252m6.635-9.721a49.384,49.384,0,0,0,4.012,6.789l-6.944,1.852a79.477,79.477,0,0,0,2.932-8.641m-1.543-4.012c.154,1.7-.772,5.246-1.852,8.332-.617,1.543-1.234,3.086-1.7,4.012-.617-.772-1.7-1.852-2.777-3.086-1.852-2.16-4.012-4.938-4.321-6.326h0c-.309-2.932-4.012-33.33-4.012-33.33-.154-.463-.309-.772-.772-.926l-2.006-.617,5.864-6.635,5.4,2.315h.154l4.629,2.006c.154,4.475,1.234,31.787,1.389,34.255m-19.751,13.27c-2.315-2.16-4.938-4.938-5.555-6.789h0c-.772-5.555-4.783-31.941-4.783-31.941-.154-.463-.309-.772-.772-.926l-2.932-.926,4.475-6.789,1.389.463,7.715,2.777a.151.151,0,0,1,.154.154l3.395,1.08c.463,4.475,3.7,30.089,4.012,32.867.154,1.234-.772,4.938-1.852,8.178-.617,2.006-1.389,3.7-1.7,4.783a38.476,38.476,0,0,1-3.549-2.932m-2.777,22.065,5.709,14.659-4.938,1.389-7.407-14.35,6.635-1.7Zm-5.4-13.424,4.629,11.573-6.789,1.7-5.864-11.11,8.024-2.16ZM213.856,190.27c1.234,3.858,9.258,28.7,10.03,31.015v.154c.309.926.309,4.321.154,7.1,0,1.389-.154,2.623-.154,3.549-.926-.617-2.16-1.543-3.549-2.623-2.623-2.006-5.4-4.475-6.018-5.555l-.154-.154h0c-1.389-2.469-13.887-24.689-17.282-30.706l.309-.309,2.315-6.326,10.338,2.777H210l3.858,1.08Zm19.134,40.736-7.1,1.852c0-1.852.309-5.246.309-8.178a82.8,82.8,0,0,0,6.789,6.326m4.166-9.721a70.169,70.169,0,0,0,6.789,6.789l-7.715,2.006a59.245,59.245,0,0,0,.926-8.8M235.15,218.2c.309,2.777-.463,8.332-.772,11.264a40.319,40.319,0,0,1-3.086-2.623c-2.315-2.16-4.938-4.629-5.4-5.864h0c-.154,0-.154,0-.154-.154h0c-.772-2.777-10.184-31.632-10.184-31.632,0-.463-.309-.617-.617-.772l-2.469-.617,3.086-6.172,10.338,3.24h0l4.32,1.389c.772,4.32,4.475,29.009,4.938,31.941m14.35,25.306,4.012,15.122-6.018,1.7-5.709-14.659,7.715-2.16Zm-8.487.154-4.629-11.573,9.413-2.469,3.086,11.881Zm70.363-120.666-27.62,47.834.772-9.567a1.871,1.871,0,0,0-1.234-2.006,1.908,1.908,0,0,0-2.315.463l-8.641,9.1-6.944-4.475a2.1,2.1,0,0,0-2.623.154l-4.629,4.166,24.843-43.051a256.719,256.719,0,0,1,28.392-2.623m27.466,169.734,3.24-.772,3.395,12.807,8.332-2.315.772,2.932-11.573,3.086Zm-132.7,52.463-11.727,3.086-.772-2.777,4.321-1.08-2.469-9.1-3.7,3.395-.772-3.086,3.858-4.012,2.777-.772,3.395,12.653,4.32-1.08.772,2.777Zm-63.573-90.576c-3.086-1.543-9.875-5.709-9.413-8.024.463-2.16,7.561-4.629,9.567-6.635,1.852-2.006,2.315-5.246,2.16-8.95s0-7.252,0-7.252h0l9.721,36.261c-1.543-.154-7.252-2.932-12.036-5.4M457.5,217.891c-.309-1.08-2.006-5.555-2.469-7.1-.463-1.234-.309-3.395-.617-4.32-.154-.772-3.086-2.777-5.092-4.629s-7.561-6.635-10.647-9.1-7.407-5.709-9.721-6.481-8.024-3.7-8.024-3.7.617-2.315-.154-3.24c-1.08-.772-5.709-2.16-8.024-3.858-2.16-1.7-5.4-4.783-9.1-6.635-3.549-1.852-10.493-5.246-11.264-5.4a35.182,35.182,0,0,0,3.086-5.864c.926-2.315.154-6.635,0-8.332,0-1.852.926-5.864-1.08-9.721a12.649,12.649,0,0,0-8.487-6.481c-4.938-1.389-9.721.154-13.733,4.166-5.246,5.4-3.086,14.2-2.623,16.2.309,1.08.926,2.469,1.389,3.7a6.537,6.537,0,0,1-1.08.772c-6.018,4.166-11.264,2.623-11.264,2.623a11.471,11.471,0,0,0,1.543,4.783A6.806,6.806,0,0,0,362.6,167.9a23.791,23.791,0,0,0-2.623.772c-4.475,1.389-6.789,4.32-10.184,4.475-2.777,0-6.635-.463-8.8-1.852s-1.543-4.012-2.16-5.555-1.389-3.858-1.389-3.858,2.777-8.8,3.395-10.956a9.109,9.109,0,0,0,.309-2.16l8.487-22.837c6.018,1.852,13.27-2.932,16.511-11.264,3.549-8.641,1.234-17.591-5.092-20.06-6.172-2.469-14.042,2.469-17.436,11.11-3.24,8.178-1.543,16.665,4.166,19.6l-8.641,22.837A12.243,12.243,0,0,0,336.836,152c-1.234,2.469-2.932,6.172-2.932,6.172a2.407,2.407,0,0,0-2.623.617,7.911,7.911,0,0,0-.772,3.086h0l-11.727-43.514a3.58,3.58,0,0,0-3.395-2.777c-1.389-.154-32.558-1.08-92.119,14.967-59.561,15.893-90.113,33.33-91.348,34.1a3.653,3.653,0,0,0-1.7,4.166l11.727,43.514H141.8s-1.08-1.852-2.16-2.16c-1.389-.617-2.623.772-2.623.772s-3.24-2.315-5.555-3.858a10.72,10.72,0,0,0-3.858-2.16L108.775,189.5c3.24-5.4.617-13.733-6.326-19.134-7.407-5.709-16.665-6.172-20.677-.926-4.166,5.246-1.7,14.2,5.555,19.905,6.944,5.555,15.739,6.172,20.06,1.543l18.671,15.585a7.424,7.424,0,0,0,1.389,1.7l8.487,7.715s.463,2.315.617,4.012c.309,1.7,2.16,3.7.926,5.864-1.234,2.315-4.32,4.629-6.635,6.018-3.086,1.7-6.635.309-11.11,1.234-5.864,1.234-7.252,2.315-9.567,2.315a6.029,6.029,0,0,1-3.549-2.006,29,29,0,0,1-2.006-2.623s.926-3.549.463-5.555c-.617-1.852-2.777-10.184-9.875-12.653-6.635-2.315-11.264-.463-15.43,2.932-2.932,2.469-4.32,6.635-4.783,8.95-.309,1.543-.926,4.475,0,5.555a26.2,26.2,0,0,1,3.24,4.321c.772,1.543,2.315,5.709,4.32,7.252a36.326,36.326,0,0,0,6.481,3.24c-.617.463-2.006,1.543-2.932,2.315a30.449,30.449,0,0,0-6.018,7.715c-2.16,3.395-5.555,12.5-7.1,14.967-1.543,2.315-5.246,4.629-5.555,5.864-.463,1.08,2.932,5.4,2.932,5.4a41.742,41.742,0,0,1-3.858,5.555c-1.543,1.852-3.549,6.789-5.092,10.493-1.389,3.7-6.172,15.43-6.944,18.053s-2.315,5.864-2.16,6.635c.309.926,1.543,2.623,1.7,4.012.154,1.234.926,6.172,1.08,7.407.309,2.16,2.315,1.7,2.315.309-.154-1.08-.154-3.858-.154-3.858a3,3,0,0,0,3.086.154c1.543-.926,2.006-2.006,1.389-2.777l-.617-.617a47.843,47.843,0,0,0,.926-5.555c.154-2.006-2.777-4.32-1.543-6.481s2.16-5.092,4.166-6.789c2.16-1.7,10.184-7.87,11.727-12.962,1.543-4.938,4.166-10.956,4.166-10.956a10.256,10.256,0,0,0,4.629-3.7,45.41,45.41,0,0,0,3.395-5.092c2.469-.154,13.27,2.315,19.288,7.407s14.35,10.338,17.745,11.881c3.395,1.7,5.709,1.852,8.641,3.549,2.777,1.7,12.036,14.813,17.745,20.214,1.234,1.234,3.086,2.777,5.092,4.475l21.448-5.709-2.315-6.018,40.428-69.9,14.5,21.294L201.2,313.714l-48.76,13.116L165.1,373.583l42.279-11.419a97.143,97.143,0,0,0,141.188-37.8L391,312.942l-12.5-46.754-139.954,37.5,8.487-14.659a20.333,20.333,0,0,0,16.511,2.16h.154A21.053,21.053,0,0,0,277.738,279.3c2.623-5.709,2.777-12.5.926-19.6h0c-.154-.772-.463-2.006-.772-3.24l-.926-2.777,1.543-19.288,43.514-75.146,26.386,98.292v.309a73.3,73.3,0,0,1,2.469,12.653l21.448-5.709c.926-2.623,1.389-33.638,2.469-36.724,7.869-12.036,17.128-22.837,21.448-29.472,4.012-6.172,5.092-10.8,7.252-11.727a17.35,17.35,0,0,0,4.012,2.16,11.346,11.346,0,0,0,5.864.926s8.487,4.475,13.116,6.944c5.246,2.932,14.967,5.864,17.282,7.252,2.16,1.234,1.08,4.475,2.16,6.172,1.234,1.7,3.549,4.166,3.549,4.166l-.154.926c-.154.926.772,1.7,2.623,1.7a2.015,2.015,0,0,0,2.16-1.389s1.235,2.315,1.852,3.395c.617,1.234,2.315.617,1.543-1.234m-177.3,102.3c-.309-1.389-1.852-1.7-3.086-1.235l-2.777.772.926,3.858,2.932-.772c1.7-.463,2.469-1.389,2.006-2.623m-2.006-6.327c-.309-1.389-1.7-1.389-2.777-1.08l-2.777.772.926,3.395,2.777-.772q2.315-.694,1.852-2.315m-44.9,16.819-2.932.772,1.08,3.858,2.932-.772c1.7-.463,2.315-1.234,2.006-2.623s-1.852-1.543-3.086-1.234m61.876,64.036-5.709-8.641-.617,10.338-9.875,2.623,9.567,3.7-.463,10.338,6.481-8.024,9.721,3.7-5.709-8.641,6.481-8.024-9.875,2.623ZM239.47,108.8a3.2,3.2,0,0,1-1.389-2.006l-.154-.309-2.469.772.154.154a5.425,5.425,0,0,0,2.623,3.395,6.016,6.016,0,0,0,8.024-2.315,5.659,5.659,0,0,0,.309-4.783,6.462,6.462,0,0,0-2.623-3.858,5.81,5.81,0,0,0-7.1,1.543l-.926-4.475,7.407-2.006-.617-2.315-9.567,2.623,2.006,9.413,2.623-.772a3.546,3.546,0,0,1,4.783-1.852,3.474,3.474,0,0,1,1.543,2.469,4.254,4.254,0,0,1,0,2.777c-.617,1.543-3.24,2.315-4.629,1.543m-16.665,4.475a3.408,3.408,0,0,1-1.543-2.006v-.309l-2.469.772v.154a5.425,5.425,0,0,0,2.623,3.395,5.587,5.587,0,0,0,4.475.463,5.392,5.392,0,0,0,3.7-2.777,7.1,7.1,0,0,0,.309-4.783,6.065,6.065,0,0,0-2.777-3.858c-2.16-1.389-5.864-.309-6.944,1.543l-.926-4.475,7.407-2.006-.617-2.315-9.567,2.623,2.006,9.413,2.623-.772a3.382,3.382,0,0,1,4.629-1.852,4.215,4.215,0,0,1,1.7,2.469,3.408,3.408,0,0,1-.154,2.777,3.373,3.373,0,0,1-4.475,1.543m-20.214-6.944a3.2,3.2,0,0,1,2.006-1.389,2.776,2.776,0,0,1,2.469.309,3.846,3.846,0,0,1,1.7,2.315,3.762,3.762,0,0,1-.309,2.932,3.123,3.123,0,0,1-4.32,1.234,3.642,3.642,0,0,1-1.7-2.469,3.833,3.833,0,0,1,.154-2.932m4.32,8.024a5.725,5.725,0,0,0,3.24-2.315c.309,2.006.309,3.549-.154,4.475a3.12,3.12,0,0,1-3.858,1.389,2.425,2.425,0,0,1-1.389-1.389V116.2l-2.469.772v.154a5.064,5.064,0,0,0,2.315,2.777,5.777,5.777,0,0,0,8.024-3.086,14.528,14.528,0,0,0-.463-7.1c-.617-2.16-1.389-4.629-3.24-6.172-2.623-2.16-7.1-.926-8.487,1.852a5.962,5.962,0,0,0-.463,4.629,6.6,6.6,0,0,0,2.932,4.012,5.1,5.1,0,0,0,4.012.309M252.74,395.8l-5.555-8.641-.617,10.184-9.875,2.777,9.567,3.7-.463,10.338,6.481-8.024,9.567,3.7-5.555-8.8,6.481-8.024Zm-97.366-46.754-52.618,14.2,41.662,18.825-8.178,24.071,59.1-15.739-32.558-13.579Zm42.434-228.678-4.475,1.234-4.012-14.659-2.16.617-4.012,4.32.772,2.469,3.7-3.858,3.24,11.727-4.475,1.234.617,2.315,11.418-3.086-.617-2.315Zm-.772,267.409L192.1,369.417l-23.763,6.327,28.7,12.036Z"/></svg>