<svg id="Ebene_1" data-name="Ebene 1" xmlns="http://www.w3.org/2000/svg" viewBox="0 0 429.547 190.207"><defs><style>.cls-1,.cls-4{fill:#fff;}.cls-2{fill:#1c388f;}.cls-3,.cls-5{fill:none;}.cls-3{stroke:#1a1215;stroke-width:1.48px;}.cls-4{fill-rule:evenodd;}.cls-5{stroke:#181716;stroke-width:4.441px;}.cls-6{fill:#181716;}</style></defs><title>1bcbsaarbruecken</title><path class="cls-1" d="M183.419.463H408.835c10.359,0,18.754,6.029,18.754,13.479V175.71c0,7.45-8.4,13.479-18.754,13.479H183.419V.463Z" transform="translate(1.217 0.277)"/><path class="cls-2" d="M18.262.463H183.419V189.189H18.262c-10.344,0-18.739-6.029-18.739-13.479V13.942c0-7.45,8.4-13.479,18.739-13.479Z" transform="translate(1.217 0.277)"/><path class="cls-3" d="M183.419.463H408.835c10.359,0,18.754,6.029,18.754,13.479V175.71c0,7.45-8.4,13.479-18.754,13.479H18.262c-10.344,0-18.739-6.029-18.739-13.479V13.942c0-7.45,8.4-13.479,18.739-13.479Zm0-.34V189.14" transform="translate(1.217 0.277)"/><path class="cls-4" d="M99.124,137.474c-.039.591-.085,1.173-.15,1.737a146.885,146.885,0,0,1-3.2,15.645,77.1,77.1,0,0,1-1.684,7.74c-.507,1.443-1.6,3.308-2.354,5.046A110.873,110.873,0,0,1,84,181.94c-3.333.943-5.4.474-8.749-.166-1.49-.286-3.174-.322-4.374-.674-.92-.27-1.724-1.054-2.692-1.179a14.684,14.684,0,0,0-5.215.5c-1.316.421-2.4,2.046-3.868,2.188-1.655.159-3.249-.636-4.711-.5-3.688.333-5.936,2.52-9.589,3.364h-.5a8.043,8.043,0,0,0-2.188-.841c-1.365-4.436,2.931-5.859,4.207-8.747-4.49-3.25-9.841-5.637-13.459-9.757-2.587.781-3.884-.286-6.392-.338a12.3,12.3,0,0,0-4.543,1.18c-1.768.711-3.311,2.481-5.214,1.68-1.38-.578-1.319-2.625-2.188-4.036v-1.177a13.76,13.76,0,0,0,.335-3.534c.889-.756,1.366-2.494,2.357-3.532,1.857-1.953,4.579-2.053,7.066-3.364,2.906-1.533,3.241-4.592,6.223-5.216,3.122-.651,7.368.792,7.738,2.86.453,2.524-2.363,3.318-1.682,5.89,2.213-.1,4.444-.6,6.562-.338,2.578.315,4.181,1.9,5.55,2.692,1.31-2,1.6-5.017,2.523-7.4-2.258-.983-.029-2.842.506-4.372.993-2.846,1.679-6.284,2.86-9.589l.02-.055,44.542,0ZM72.393,151.826c-1.2,1.81-1.171,4.589-3.364,5.723H67.01a10.908,10.908,0,0,0-2.524,5.549c1.431.7,1.849,3.872,2.018,6.393,1.956-1.692,3.636-3.655,7.908-3.028.158-2.293,2.273-5.734,1.345-8.073-.306-.772-1.433-.821-1.514-1.851.254-3.221,1.274-6.578.841-9.927.249,2.41-1.618,3.606-2.691,5.213Z" transform="translate(1.217 0.277)"/><path class="cls-4" d="M54.581,137.474c.832-2.3,2.321-4.515,3.009-7.01.759-2.75,1.136-5.734,2.186-7.906.646-1.335,2.083-2.209,2.356-3.534.193-.94-.123-2.011,0-3.027.225-1.884,1.28-3.7,1.345-5.383.033-.852-.286-1.751-.336-2.692-.447-8.329,3.227-18.687-2.02-22.709-1.692-.1-3.229-.583-4.711,0-1.1-.639-2.177-1.3-3.364-1.851-.924.251-1.865.491-2.861.672-2.018-1.982-4.873-2.328-7.064-3.87-2.788-1.958-4.606-5.538-7.235-8.58-2.668-3.088-6.152-4.71-7.569-8.409.529-.856.409-1.365.337-2.692a3.565,3.565,0,0,0,1.177-2.861A3.2,3.2,0,0,0,31.85,54.6a11.177,11.177,0,0,1,2.523-1.012c1.111-3.221,3.84-5.616,5.385-8.746,1.215-2.462,1.854-5.38,2.86-8.075,1.012-2.714,2.293-5.324,2.861-8.244-4.948-2.227-8.153-6.632-6.563-14.467C41.725,8.954,45,4.327,51.7,3.119h1.009a21.168,21.168,0,0,1,7.907,2.691c2.615,3.61,2.982,8.127,1.682,13.625-1.491,6.308-7.692,10.538-15.812,9.421C42.876,37.749,40.032,47.41,36.9,56.782c2.237,1.855.1,8.085,2.523,9.756A18.945,18.945,0,0,1,44.468,69.9c4.442.664,8.3,3.688,12.281,1.009,1.142-.769,1.783-2.68,3.2-4.206,1.912-2.063,4.024-2.974,5.047-5.552,2.343-.484,3.6-3.989,6.393-1.683-.3-1.557-.137-3.318-.5-4.877-.172-.73-.754-1.417-1.009-2.189-.423-1.275-.289-2.763-.672-3.7-.371-.9-1.408-1.254-1.515-2.187-.1-.844.537-1.149.842-2.186.176-.6.028-1.42.168-1.851.574-1.764,2.134-3.146,2.691-4.711,3.7-1.632,7.417-5.158,12.954-3.363,3.188,2.623,7.051,9.337,4.374,14.8.61.684,1.389,4.259-.505,4.71.323,1.313,2.763,1.5,4.037.841a36.172,36.172,0,0,0,6.73,1.009c.625-.006,1.194-.367,1.681-.338,2.563.168,5.589,2.649,8.413,3.872,2.943,1.269,5.795,3.033,8.242,4.037a23.4,23.4,0,0,0,4.71,1.514c1.826.276,4.436-.155,6.225,0,4.269.366,8.542,1.915,12.616,3.2s8.177,3.135,11.945,3.868c4,.779,7.844-.964,11.775-1.008a44.153,44.153,0,0,1,5.719.671c1.6.2,3.526.2,5.049,1.347V73.6c-.957,3.114-4.951.4-7.909,1.347A40.483,40.483,0,0,0,174,76.8c.007.792-.3,1.275-.337,2.018-2.938,1.161-5.8-.665-8.244-1.515.956,2.241,3.947,2.449,4.206,5.384-.447.169-.554.679-.84,1.009-3.561-.758-4.271-4.364-7.57-5.384-4.6,2.015-9.041-.668-14.131-1.512-10.1-1.677-21.787-3.236-30.617-5.888-2.99,2.441-7.442-1.674-11.439.168-.229,3.583-3.083,4.543-3.7,7.738,1.33,4.177,4.14,7.968,4.037,12.955-.04,1.914-1.143,4.331-1.85,6.558-1.093,3.456-1.745,6.286-3.7,8.581,1.764,4.281-.217,9.4.167,15.139.146,2.18,1.509,4.664,1.346,6.226-.1.912-1.141,1.747-1.346,2.357a28.359,28.359,0,0,0-.858,6.841Z" transform="translate(1.217 0.277)"/><line class="cls-5" x1="184.633" y1="103.435" x2="428.803" y2="103.435"/><path class="cls-6" d="M221.749,8.5V91.326H207.438V37.051a47.361,47.361,0,0,1-6.722,6.833,43.3,43.3,0,0,1-8.146,5V30.329a32.607,32.607,0,0,0,11.22-8.943A39.28,39.28,0,0,0,210.043,8.5Z" transform="translate(1.217 0.277)"/><polygon class="cls-6" points="239.744 68.938 254.855 68.938 254.855 91.603 239.744 91.603 239.744 68.938 239.744 68.938"/><path class="cls-6" d="M263.156,9.886h29.457A12.829,12.829,0,0,1,303.92,15.72q3.941,5.832,3.943,14.442a25.545,25.545,0,0,1-2.814,12.389,13.572,13.572,0,0,1-5.489,5.444,14.581,14.581,0,0,1,8.076,7.25,28.61,28.61,0,0,1,2.588,12.915,33.107,33.107,0,0,1-1.841,11.388,19.89,19.89,0,0,1-5.036,8,12.414,12.414,0,0,1-5.975,2.668,44.008,44.008,0,0,1-7.052,1.11H263.156V9.886ZM279.03,41.828h6.843q3.682,0,5.124-2.027a10.054,10.054,0,0,0,1.442-5.861A9.364,9.364,0,0,0,291,28.385q-1.442-2-5.019-2H279.03V41.828Zm0,32h8.025q4.064,0,5.732-2.305a10.36,10.36,0,0,0,1.667-6.194,9.433,9.433,0,0,0-1.65-5.805q-1.651-2.192-5.784-2.194h-7.99v16.5Z" transform="translate(1.217 0.277)"/><path class="cls-6" d="M352.36,57.993l13.79,6.667a54.742,54.742,0,0,1-4.376,15.5,23.97,23.97,0,0,1-7.417,9.389,18.915,18.915,0,0,1-11.272,3.165q-8.3,0-13.565-3.857t-9.084-13.573q-3.821-9.716-3.821-24.872,0-20.209,6.722-31.062T342.356,8.5q9.621,0,15.128,6.222t8.18,19.11L351.77,38.774a25.661,25.661,0,0,0-1.529-5.444,12.1,12.1,0,0,0-3.23-4.445,6.6,6.6,0,0,0-4.273-1.555q-5.35,0-8.2,6.881-2.154,5.1-2.154,16.035,0,13.539,2.571,18.561t7.225,5.02a7.409,7.409,0,0,0,6.826-4.056q2.309-4.053,3.352-11.777Z" transform="translate(1.217 0.277)"/><path class="cls-6" d="M373.827,9.886h29.457a12.829,12.829,0,0,1,11.307,5.833q3.941,5.832,3.943,14.442a25.545,25.545,0,0,1-2.814,12.389,13.569,13.569,0,0,1-5.488,5.444,14.579,14.579,0,0,1,8.076,7.25A28.607,28.607,0,0,1,420.9,68.16a33.107,33.107,0,0,1-1.841,11.388,19.893,19.893,0,0,1-5.036,8,12.414,12.414,0,0,1-5.975,2.668,44.007,44.007,0,0,1-7.051,1.11H373.827V9.886ZM389.7,41.828h6.843q3.682,0,5.124-2.027a10.054,10.054,0,0,0,1.442-5.861,9.364,9.364,0,0,0-1.442-5.555q-1.442-2-5.019-2H389.7V41.828Zm0,32h8.025q4.064,0,5.732-2.305a10.36,10.36,0,0,0,1.667-6.194,9.433,9.433,0,0,0-1.65-5.805q-1.651-2.192-5.784-2.194H389.7v16.5Z" transform="translate(1.217 0.277)"/><path class="cls-6" d="M191.078,128.5l5.989-.375a4.574,4.574,0,0,0,.792,2.223,3.33,3.33,0,0,0,2.779,1.237,3.073,3.073,0,0,0,2.077-.634,1.892,1.892,0,0,0,.73-1.465,1.868,1.868,0,0,0-.695-1.417,8.028,8.028,0,0,0-3.224-1.181,13.715,13.715,0,0,1-5.905-2.473,4.975,4.975,0,0,1-1.779-3.932,5.345,5.345,0,0,1,.91-2.968,6.042,6.042,0,0,1,2.737-2.2,12.789,12.789,0,0,1,5.009-.8,10.252,10.252,0,0,1,5.954,1.451,6.271,6.271,0,0,1,2.438,4.621l-5.933.348a2.772,2.772,0,0,0-3.085-2.626,2.526,2.526,0,0,0-1.653.464,1.431,1.431,0,0,0-.556,1.134,1.135,1.135,0,0,0,.458.875,5.176,5.176,0,0,0,2.112.75,26.434,26.434,0,0,1,5.912,1.8,6.219,6.219,0,0,1,2.6,2.259,5.722,5.722,0,0,1,.813,3.015,6.46,6.46,0,0,1-1.084,3.613,6.782,6.782,0,0,1-3.029,2.507,12.238,12.238,0,0,1-4.9.856q-5.2,0-7.2-2a7.891,7.891,0,0,1-2.265-5.085Z" transform="translate(1.217 0.277)"/><path class="cls-6" d="M220.784,125.259l-5.4-.57a6.075,6.075,0,0,1,.882-2.232,4.854,4.854,0,0,1,1.66-1.409,6.93,6.93,0,0,1,2.14-.667,17.163,17.163,0,0,1,2.946-.236,23.525,23.525,0,0,1,4.085.283,5.254,5.254,0,0,1,2.571,1.189,4.166,4.166,0,0,1,1.139,1.77,6.409,6.409,0,0,1,.417,2.19V132.1a7.82,7.82,0,0,0,.132,1.631,7.32,7.32,0,0,0,.577,1.509H226.62a5.382,5.382,0,0,1-.417-.87,6.437,6.437,0,0,1-.195-.937,7.339,7.339,0,0,1-2.209,1.528,9.2,9.2,0,0,1-3.487.611,5.842,5.842,0,0,1-4.009-1.223,3.887,3.887,0,0,1-1.369-3.015,3.948,3.948,0,0,1,.987-2.765,6.671,6.671,0,0,1,3.641-1.612q3.181-.64,4.127-.9a19.029,19.029,0,0,0,2-.673,1.991,1.991,0,0,0-.431-1.459,2.164,2.164,0,0,0-1.515-.417,3.91,3.91,0,0,0-2.084.445,2.433,2.433,0,0,0-.875,1.306Zm4.9,2.974q-1.167.417-2.432.736a5.6,5.6,0,0,0-2.181.9,1.445,1.445,0,0,0-.007,2.131,1.966,1.966,0,0,0,1.369.425,3.519,3.519,0,0,0,1.758-.458,2.776,2.776,0,0,0,1.153-1.12,3.736,3.736,0,0,0,.34-1.714v-.9Z" transform="translate(1.217 0.277)"/><path class="cls-6" d="M243.041,125.259l-5.405-.57a6.075,6.075,0,0,1,.882-2.232,4.852,4.852,0,0,1,1.66-1.409,6.925,6.925,0,0,1,2.14-.667,17.156,17.156,0,0,1,2.946-.236,23.53,23.53,0,0,1,4.085.283,5.253,5.253,0,0,1,2.57,1.189,4.168,4.168,0,0,1,1.14,1.77,6.414,6.414,0,0,1,.417,2.19V132.1a7.838,7.838,0,0,0,.132,1.631,7.322,7.322,0,0,0,.577,1.509h-5.308a5.388,5.388,0,0,1-.417-.87,6.448,6.448,0,0,1-.194-.937,7.345,7.345,0,0,1-2.209,1.528,9.208,9.208,0,0,1-3.488.611,5.842,5.842,0,0,1-4.009-1.223,3.887,3.887,0,0,1-1.369-3.015,3.948,3.948,0,0,1,.986-2.765,6.672,6.672,0,0,1,3.641-1.612q3.182-.64,4.127-.9a19.011,19.011,0,0,0,2-.673,1.991,1.991,0,0,0-.431-1.459,2.164,2.164,0,0,0-1.515-.417,3.909,3.909,0,0,0-2.084.445,2.431,2.431,0,0,0-.875,1.306Zm4.9,2.974q-1.167.417-2.432.736a5.605,5.605,0,0,0-2.182.9,1.418,1.418,0,0,0-.472,1.042,1.4,1.4,0,0,0,.465,1.089,1.966,1.966,0,0,0,1.369.425,3.519,3.519,0,0,0,1.758-.458,2.776,2.776,0,0,0,1.153-1.12,3.732,3.732,0,0,0,.341-1.714v-.9Z" transform="translate(1.217 0.277)"/><path class="cls-6" d="M260.2,120.479h5.294V122.9a5.767,5.767,0,0,1,1.577-2.162,3.326,3.326,0,0,1,2.008-.589,5.964,5.964,0,0,1,2.737.778l-1.751,4.029a4.447,4.447,0,0,0-1.584-.417,1.954,1.954,0,0,0-1.723.917q-.876,1.292-.875,4.835v4.947H260.2V120.479Z" transform="translate(1.217 0.277)"/><path class="cls-6" d="M276.078,114.866h5.711v7.059a5.575,5.575,0,0,1,1.924-1.334,6.169,6.169,0,0,1,2.383-.445,5.77,5.77,0,0,1,4.46,1.937,7.989,7.989,0,0,1,1.765,5.566,10.53,10.53,0,0,1-.806,4.257,5.987,5.987,0,0,1-2.23,2.751,5.746,5.746,0,0,1-3.161.912,5.855,5.855,0,0,1-2.723-.639,7.155,7.155,0,0,1-2.029-1.876v2.182h-5.294v-20.37Zm5.669,12.95a4.274,4.274,0,0,0,.716,2.757,2.266,2.266,0,0,0,1.813.856,2.116,2.116,0,0,0,1.7-.842,4.507,4.507,0,0,0,.688-2.826,4.015,4.015,0,0,0-.674-2.571,2.042,2.042,0,0,0-1.632-.82,2.359,2.359,0,0,0-1.883.853,3.916,3.916,0,0,0-.729,2.593Z" transform="translate(1.217 0.277)"/><path class="cls-6" d="M298.364,120.479h5.294V122.9a5.775,5.775,0,0,1,1.577-2.162,3.328,3.328,0,0,1,2.008-.589,5.961,5.961,0,0,1,2.737.778l-1.751,4.029a4.447,4.447,0,0,0-1.584-.417,1.955,1.955,0,0,0-1.723.917q-.875,1.292-.875,4.835v4.947h-5.683V120.479Z" transform="translate(1.217 0.277)"/><path class="cls-6" d="M330.708,135.236h-5.28v-2.39a7.8,7.8,0,0,1-2.383,2.1,6.341,6.341,0,0,1-2.953.625,4.811,4.811,0,0,1-3.661-1.4,6.048,6.048,0,0,1-1.327-4.3v-9.393h5.683v8.115a2.984,2.984,0,0,0,.514,1.973,1.826,1.826,0,0,0,1.445.584,2.061,2.061,0,0,0,1.66-.778,4.5,4.5,0,0,0,.646-2.793v-7.1h5.655v14.756Zm-12.547-20.092h3.613v3.474h-3.613v-3.474Zm5.891,0h3.655v3.474h-3.655v-3.474Z" transform="translate(1.217 0.277)"/><path class="cls-6" d="M348.423,129.455l5.378.612a7.524,7.524,0,0,1-1.459,2.91,6.787,6.787,0,0,1-2.591,1.912,10.2,10.2,0,0,1-4.009.681,14.825,14.825,0,0,1-3.911-.438,6.839,6.839,0,0,1-2.689-1.416,7.163,7.163,0,0,1-1.765-2.3,8.077,8.077,0,0,1-.639-3.5,8.243,8.243,0,0,1,.778-3.789,6.837,6.837,0,0,1,1.556-1.991,7.161,7.161,0,0,1,2.029-1.313,11.263,11.263,0,0,1,4.238-.679,9.775,9.775,0,0,1,5.509,1.292,6.811,6.811,0,0,1,2.661,3.78l-5.322.708a2.463,2.463,0,0,0-.91-1.425,2.956,2.956,0,0,0-1.771-.478,2.854,2.854,0,0,0-2.272,1.006,4.553,4.553,0,0,0-.868,3.043,3.96,3.96,0,0,0,.861,2.76,2.837,2.837,0,0,0,2.2.945,3.024,3.024,0,0,0,1.869-.57,3.4,3.4,0,0,0,1.132-1.751Z" transform="translate(1.217 0.277)"/><polygon class="cls-6" points="360.406 115.143 366.186 115.143 366.186 125.656 370.411 120.756 377.372 120.756 372.078 125.925 377.677 135.513 371.305 135.513 368.316 129.596 366.186 131.678 366.186 135.513 360.406 135.513 360.406 115.143 360.406 115.143"/><path class="cls-6" d="M396.857,129.261H385.518a3.656,3.656,0,0,0,.736,2.029,2.681,2.681,0,0,0,2.14.959,3.216,3.216,0,0,0,1.584-.417,3.729,3.729,0,0,0,.987-.931l5.572.514a7.972,7.972,0,0,1-3.085,3.188,11.192,11.192,0,0,1-5.182.967,10.6,10.6,0,0,1-4.613-.828,6.759,6.759,0,0,1-2.786-2.626,7.921,7.921,0,0,1-1.1-4.23,7.432,7.432,0,0,1,2.216-5.6,8.443,8.443,0,0,1,6.121-2.14,10.9,10.9,0,0,1,5,.959,6.469,6.469,0,0,1,2.793,2.779,10.154,10.154,0,0,1,.959,4.738v.639Zm-5.753-2.709a3.783,3.783,0,0,0-.882-2.348,2.769,2.769,0,0,0-4.037.361,3.918,3.918,0,0,0-.653,1.987Z" transform="translate(1.217 0.277)"/><path class="cls-6" d="M402.731,120.479H408v2.4a7.855,7.855,0,0,1,2.39-2.107,6.3,6.3,0,0,1,2.946-.631,4.826,4.826,0,0,1,3.675,1.4,6.076,6.076,0,0,1,1.327,4.316v9.379h-5.683v-8.115a2.953,2.953,0,0,0-.514-1.967,1.837,1.837,0,0,0-1.445-.575,2.054,2.054,0,0,0-1.668.778,4.524,4.524,0,0,0-.639,2.793v7.087h-5.655V120.479Z" transform="translate(1.217 0.277)"/><path class="cls-6" d="M192.19,149.014h11.783a6.422,6.422,0,0,1,4.523,1.459,4.723,4.723,0,0,1,1.577,3.612,4.56,4.56,0,0,1-1.125,3.1,5.014,5.014,0,0,1-2.2,1.362,5.7,5.7,0,0,1,3.23,1.812,4.989,4.989,0,0,1,1.035,3.232,5.552,5.552,0,0,1-.736,2.849,5.434,5.434,0,0,1-2.015,2,6.651,6.651,0,0,1-2.39.667,27.713,27.713,0,0,1-2.82.278H192.19v-20.37ZM198.54,157h2.738a3.138,3.138,0,0,0,2.049-.508,1.845,1.845,0,0,0,.577-1.465,1.742,1.742,0,0,0-.577-1.39,3.1,3.1,0,0,0-2.008-.5H198.54V157Zm0,8h3.21a3.527,3.527,0,0,0,2.293-.578,1.942,1.942,0,0,0,.667-1.548,1.8,1.8,0,0,0-.66-1.453,3.693,3.693,0,0,0-2.314-.548h-3.2v4.127Z" transform="translate(1.217 0.277)"/><path class="cls-6" d="M215.256,149.014h5.655v3.849h-5.655v-3.849Zm0,5.614h5.655v14.756h-5.655V154.627Z" transform="translate(1.217 0.277)"/><path class="cls-6" d="M224.635,165.284l5.614-.528a2.77,2.77,0,0,0,.972,1.431,2.9,2.9,0,0,0,1.668.431,2.819,2.819,0,0,0,1.764-.486,1.085,1.085,0,0,0,.487-.9,1.032,1.032,0,0,0-.639-.943,11.707,11.707,0,0,0-2.432-.584,25.247,25.247,0,0,1-4.092-.951,4.312,4.312,0,0,1-1.931-1.478,3.836,3.836,0,0,1-.785-2.373,3.89,3.89,0,0,1,.847-2.512,5.045,5.045,0,0,1,2.335-1.575,12.39,12.39,0,0,1,3.988-.52,13.77,13.77,0,0,1,3.9.4,5.073,5.073,0,0,1,2.1,1.251,6.519,6.519,0,0,1,1.4,2.293l-5.363.528a1.833,1.833,0,0,0-.695-1.042,2.832,2.832,0,0,0-1.612-.445,2.287,2.287,0,0,0-1.4.339,1.018,1.018,0,0,0-.438.825.882.882,0,0,0,.556.82,9.069,9.069,0,0,0,2.418.5,16.555,16.555,0,0,1,4.2.888,4.636,4.636,0,0,1,2.1,1.624,3.99,3.99,0,0,1,.73,2.319,4.565,4.565,0,0,1-.771,2.484A5.222,5.222,0,0,1,237.12,169a11.681,11.681,0,0,1-4.523.716q-4.043,0-5.759-1.154a5.188,5.188,0,0,1-2.2-3.279Z" transform="translate(1.217 0.277)"/><path class="cls-6" d="M255.135,163.6l5.378.611a7.541,7.541,0,0,1-1.459,2.91,6.781,6.781,0,0,1-2.591,1.912,10.187,10.187,0,0,1-4.009.681,14.828,14.828,0,0,1-3.911-.438,6.834,6.834,0,0,1-2.689-1.416,7.15,7.15,0,0,1-1.765-2.3,8.087,8.087,0,0,1-.639-3.5,8.237,8.237,0,0,1,.778-3.789,6.842,6.842,0,0,1,1.556-1.991,7.165,7.165,0,0,1,2.029-1.313,11.257,11.257,0,0,1,4.238-.679,9.774,9.774,0,0,1,5.509,1.292,6.811,6.811,0,0,1,2.661,3.78l-5.322.709a2.467,2.467,0,0,0-.91-1.425,2.953,2.953,0,0,0-1.772-.478,2.85,2.85,0,0,0-2.272,1.006,4.557,4.557,0,0,0-.868,3.043,3.955,3.955,0,0,0,.862,2.76,2.836,2.836,0,0,0,2.2.945,3.022,3.022,0,0,0,1.869-.57,3.4,3.4,0,0,0,1.132-1.751Z" transform="translate(1.217 0.277)"/><path class="cls-6" d="M263.737,149.014h5.655v7.5a7.611,7.611,0,0,1,2.293-1.709,6.5,6.5,0,0,1,2.7-.514,4.757,4.757,0,0,1,3.634,1.4A6.078,6.078,0,0,1,279.341,160v9.379h-5.683v-8.115a2.959,2.959,0,0,0-.514-1.967,1.837,1.837,0,0,0-1.445-.575,2.052,2.052,0,0,0-1.667.778,4.527,4.527,0,0,0-.639,2.793v7.086h-5.655v-20.37Z" transform="translate(1.217 0.277)"/><path class="cls-6" d="M283.871,154.627h5.28v2.154a7.363,7.363,0,0,1,2.3-1.917,6.3,6.3,0,0,1,2.8-.57,5.368,5.368,0,0,1,2.8.625,4.651,4.651,0,0,1,1.684,1.862,8.492,8.492,0,0,1,2.429-1.967,6.277,6.277,0,0,1,2.705-.52,4.851,4.851,0,0,1,3.7,1.409,6.254,6.254,0,0,1,1.333,4.413v9.268h-5.669v-8.406a2.363,2.363,0,0,0-.388-1.487,1.7,1.7,0,0,0-1.412-.764,2,2,0,0,0-1.607.723,3.575,3.575,0,0,0-.609,2.32v7.614h-5.669v-8.129a5.074,5.074,0,0,0-.112-1.32,1.8,1.8,0,0,0-.627-.9,1.676,1.676,0,0,0-1.046-.339,2.01,2.01,0,0,0-1.6.736,3.718,3.718,0,0,0-.627,2.418v7.531h-5.669V154.627Z" transform="translate(1.217 0.277)"/><path class="cls-6" d="M313.607,149.014h5.655v3.849h-5.655v-3.849Zm0,5.614h5.655v14.756h-5.655V154.627Z" transform="translate(1.217 0.277)"/><path class="cls-6" d="M322.987,165.284l5.614-.528a2.776,2.776,0,0,0,.973,1.431,2.9,2.9,0,0,0,1.668.431,2.819,2.819,0,0,0,1.765-.486,1.087,1.087,0,0,0,.486-.9,1.031,1.031,0,0,0-.639-.943,11.69,11.69,0,0,0-2.432-.584,25.266,25.266,0,0,1-4.092-.951,4.316,4.316,0,0,1-1.931-1.478,3.832,3.832,0,0,1-.785-2.373,3.886,3.886,0,0,1,.848-2.512,5.054,5.054,0,0,1,2.334-1.575,12.391,12.391,0,0,1,3.988-.52,13.763,13.763,0,0,1,3.9.4,5.072,5.072,0,0,1,2.1,1.251,6.539,6.539,0,0,1,1.4,2.293l-5.363.528a1.836,1.836,0,0,0-.695-1.042,2.834,2.834,0,0,0-1.612-.445,2.286,2.286,0,0,0-1.4.339,1.018,1.018,0,0,0-.438.825.881.881,0,0,0,.556.82,9.078,9.078,0,0,0,2.418.5,16.56,16.56,0,0,1,4.2.888,4.638,4.638,0,0,1,2.105,1.624,3.991,3.991,0,0,1,.729,2.319,4.565,4.565,0,0,1-.771,2.484A5.219,5.219,0,0,1,335.472,169a11.686,11.686,0,0,1-4.523.716q-4.043,0-5.76-1.154a5.187,5.187,0,0,1-2.2-3.279Z" transform="translate(1.217 0.277)"/><path class="cls-6" d="M342.482,149.014h5.655v7.5a7.588,7.588,0,0,1,2.293-1.709,6.5,6.5,0,0,1,2.7-.514,4.758,4.758,0,0,1,3.634,1.4A6.076,6.076,0,0,1,358.086,160v9.379H352.4v-8.115a2.953,2.953,0,0,0-.514-1.967,1.836,1.836,0,0,0-1.445-.575,2.054,2.054,0,0,0-1.668.778,4.526,4.526,0,0,0-.639,2.793v7.086h-5.655v-20.37Z" transform="translate(1.217 0.277)"/><path class="cls-6" d="M378.956,163.409H367.618a3.656,3.656,0,0,0,.736,2.029,2.681,2.681,0,0,0,2.14.959,3.216,3.216,0,0,0,1.584-.417,3.731,3.731,0,0,0,.987-.931l5.572.514a7.973,7.973,0,0,1-3.084,3.188,11.2,11.2,0,0,1-5.183.967,10.6,10.6,0,0,1-4.613-.828,6.76,6.76,0,0,1-2.786-2.626,7.921,7.921,0,0,1-1.1-4.23,7.433,7.433,0,0,1,2.216-5.6,8.443,8.443,0,0,1,6.121-2.14,10.89,10.89,0,0,1,5,.959A6.468,6.468,0,0,1,378,158.032a10.156,10.156,0,0,1,.959,4.738v.639ZM373.2,160.7a3.783,3.783,0,0,0-.882-2.348,2.768,2.768,0,0,0-4.036.361,3.913,3.913,0,0,0-.653,1.987Z" transform="translate(1.217 0.277)"/><path class="cls-6" d="M382.876,149.014h5.655v3.849h-5.655v-3.849Zm0,5.614h5.655v14.756h-5.655V154.627Z" transform="translate(1.217 0.277)"/><path class="cls-6" d="M393.3,154.627h5.28v2.154a7.369,7.369,0,0,1,2.3-1.917,6.309,6.309,0,0,1,2.8-.57,5.372,5.372,0,0,1,2.8.625,4.652,4.652,0,0,1,1.684,1.862,8.5,8.5,0,0,1,2.429-1.967,6.277,6.277,0,0,1,2.705-.52A4.852,4.852,0,0,1,417,155.7a6.254,6.254,0,0,1,1.333,4.413v9.268h-5.669v-8.406a2.363,2.363,0,0,0-.387-1.487,1.7,1.7,0,0,0-1.412-.764,2,2,0,0,0-1.608.723,3.578,3.578,0,0,0-.608,2.32v7.614h-5.669v-8.129a5.126,5.126,0,0,0-.111-1.32,1.807,1.807,0,0,0-.628-.9,1.675,1.675,0,0,0-1.045-.339,2.007,2.007,0,0,0-1.6.736,3.71,3.71,0,0,0-.628,2.418v7.531H393.3V154.627Z" transform="translate(1.217 0.277)"/></svg>