<svg xmlns="http://www.w3.org/2000/svg" width="1004.6" height="298.286"><defs><clipPath clipPathUnits="userSpaceOnUse" id="a"><path d="M6427.71 1178.27l1120.04-.07-.05 1070.07-1120.04.06z"/></clipPath></defs><g clip-path="url(#a)" transform="matrix(.13333 0 0 -.13333 -1.672 298.61)"><path d="M7360.7 1846.63s114.95 103.23 129.97 122.98c15.02 19.76 61.64 89.26-11.84 184.87-73.49 95.62-179.92 47.59-207 26.86-32.93-25.2-119.29-99.53-119.29-99.53-4.83-4.38 10.49-30.04 5.45-32.55-143.61-56.34-701.04-193.97-697.5-197.51 10.07-10.07 116.03-71.9 135-102.5 17.27-27.85 23.3-85.9 45-112.49 24.11-29.55 95.6-54.74 115-80 20.08-26.16 29.42-105.59 50-132.5 27.96-36.57 107-49.51 137.5-80 29.17-29.18 68.39-131.37 69.11-132.51 4.83-7.57 315.74 615.76 320.81 627.41 11.31 18.44 27.79 7.47 27.79 7.47z" fill="none" stroke="#231f20" stroke-width="56.693" stroke-linecap="round" stroke-linejoin="round" stroke-miterlimit="3" transform="matrix(.99997 -.00006 -.00005 .99992 0 0)"/><path d="M7137.81 2046.73c11.84-37.14 121.67-192.78 209.37-219.64 4.52-1.39 70.29 58.45 70.29 58.45s-194.34 131.96-204.63 224.39c-.52 4.7-75.03-63.2-75.03-63.2" fill="#231f20"/><path d="M7138.12 2047.33c11.84-37.16 121.67-192.79 209.37-219.66 4.53-1.38 70.3 58.47 70.3 58.47s-194.34 131.95-204.63 224.39c-.52 4.7-75.04-63.2-75.04-63.2z" fill="none" stroke="#231f20" stroke-width="14.615" stroke-miterlimit="3.864" transform="matrix(.99997 -.00006 -.00005 .99992 0 0)"/></g><path d="M1.922 171.224h975.424" fill="none" stroke="#231f20" stroke-width="5.3332" stroke-miterlimit="3.864"/><path d="M150.972 257.684c-2.112 8.638-6.816 16.221-16.894 16.221-6.911 0-11.999-4.703-14.686-10.559-2.208-4.799-3.072-11.23-3.072-16.413 0-11.423 3.84-26.973 18.14-26.973 9.793 0 13.92 7.199 16.224 15.55l7.774-1.44c-2.688-12.094-10.462-21.02-23.71-21.02-19.1 0-27.451 16.221-27.451 33.21 0 16.223 7.775 34.556 26.781 34.556 13.918 0 21.31-9.023 24.38-21.5l-7.486-1.632M182.828 279.856V214.01h-7.487v65.847h7.487M240.31 279.856v-48.761h-7.486v25.917c0 4.607-.768 8.638-3.744 12.286-2.592 3.168-6.047 4.991-10.08 4.991-3.07 0-6.43-1.92-7.87-4.607-1.44-2.496-1.632-6.143-1.632-8.927v-29.66h-7.486v29.66c0 4.991.576 10.559 3.84 14.59 3.07 3.744 7.678 5.471 12.477 5.471 6.72 0 12.575-4.607 14.975-10.654h.192v9.694h6.814" fill="#231f20"/><path d="M265.44 250.772c0-7.103 5.664-14.878 13.342-14.878 10.367 0 12.863 11.999 12.863 20.158 0 8.062-2.88 18.717-12.863 18.717-4.128 0-8.254-2.207-10.558-5.567-1.92-2.88-2.784-6.527-2.784-9.79zm-1.056 20.733c2.976 5.472 8.544 9.311 14.974 9.311 14.398 0 20.35-13.63 20.35-26.012 0-5.664-1.344-12.19-4.608-16.99-3.263-4.8-9.023-7.967-14.974-7.967-6.912 0-11.23 3.551-14.302 9.311h-.384v-25.149h-7.487v65.847h3.647l2.784-8.35M373.574 280.816c18.718 0 26.972-18.525 26.972-34.651 0-16.222-8.542-33.116-27.068-33.116-19.005 0-27.07 17.95-27.07 34.364 0 16.51 8.256 33.403 27.166 33.403zm0-6.719c-13.918 0-18.525-15.262-18.525-26.589 0-11.806 4.03-27.644 18.717-27.644 6.143 0 11.23 3.648 14.207 8.831 2.975 5.28 3.935 12.094 3.935 17.95 0 11.326-4.223 27.452-18.334 27.452" fill="#231f20" fill-rule="evenodd"/><path d="M438.733 231.095h-11.327c-.096-6.144-.192-12.095 8.063-12.095 2.112 0 4.128.384 6.143.768v-6.047l-6.72-.672c-11.806-1.152-15.358 7.775-14.972 18.046h-8.64v5.951h8.64v42.81h7.486v-42.81h11.327v-5.951M472.304 231.095h-11.326c-.097-6.144-.193-12.095 8.062-12.095 2.112 0 4.128.384 6.144.768v-6.047l-6.72-.672c-11.806-1.152-15.358 7.775-14.974 18.046h-8.638v5.951h8.638v42.81h7.488v-42.81h11.326v-5.951" fill="#231f20"/><path d="M517.01 265.075c-2.112 5.759-6.72 9.406-13.054 9.406-5.088 0-10.175-2.783-12.48-7.39-1.823-3.649-2.015-7.2-2.015-11.04h35.42c.384-13.534-6.144-26.204-21.31-26.204-14.59 0-22.557 12.19-22.557 25.629 0 13.63 7.583 25.34 22.366 25.34 9.31 0 17.853-5.375 20.733-14.302zm-27.165-14.59c.288-7.68 5.568-14.879 13.727-14.879 8.638 0 13.15 6.816 13.054 14.878h-26.781" fill="#231f20" fill-rule="evenodd"/><path d="M547.802 231.095H540.7v48.761h7.486v-25.532c0-4.896.672-9.311 3.84-13.15 2.59-3.072 6.143-4.896 10.078-4.896 3.168 0 6.72 1.632 8.352 4.415 1.44 2.496 1.344 6.144 1.344 9.023v30.14h7.486v-26.972c0-4.8.192-11.327-2.304-15.454-3.07-5.088-7.966-7.583-13.821-7.583-6.912 0-12.383 4.223-15.167 10.27h-.192v-9.022" fill="#231f20"/><path d="M604.128 250.772c0-7.103 5.664-14.878 13.342-14.878 10.367 0 12.863 11.999 12.863 20.158 0 8.062-2.88 18.717-12.863 18.717-4.128 0-8.254-2.207-10.558-5.567-1.92-2.88-2.784-6.527-2.784-9.79zm-1.056 20.733c2.976 5.472 8.542 9.311 14.974 9.311 14.399 0 20.35-13.63 20.35-26.012 0-5.664-1.344-12.19-4.608-16.99-3.263-4.8-9.023-7.967-14.975-7.967-6.91 0-11.23 3.551-14.301 9.311h-.384v-25.149h-7.487v65.847h3.647l2.784-8.35" fill="#231f20" fill-rule="evenodd"/><path d="M692.225 279.856v-48.761h-7.487v25.917c0 4.607-.768 8.638-3.744 12.286-2.59 3.168-6.046 4.991-10.078 4.991-3.072 0-6.431-1.92-7.871-4.607-1.44-2.496-1.632-6.143-1.632-8.927v-29.66h-7.488v29.66c0 4.991.577 10.559 3.84 14.59 3.072 3.744 7.68 5.471 12.479 5.471 6.72 0 12.574-4.607 14.974-10.654h.192v9.694h6.815M710.828 231.095v48.761h7.486v-24.572c0-3.84.384-6.911 2.399-10.463 2.784-4.895 6.816-7.68 12.576-7.68h1.535v-7.198l-2.784-.192c-7.871-.576-11.998 6.143-14.302 12.766h-.192v-11.422h-6.718" fill="#231f20"/><path d="M772.232 231.958c-3.072-1.44-6.528-2.111-9.887-2.111-9.79 0-18.719 6.047-18.719 16.606 0 5.279 2.208 9.599 6.336 12.862-3.936 1.824-6.72 3.936-6.72 8.735 0 3.648 1.92 5.855 4.704 7.68-4.608 1.631-7.392 4.798-7.392 9.886 0 5.375 3.648 8.831 8.352 10.75 4.224 1.633 9.79 1.92 14.303 1.92 9.407 0 24.092-1.632 24.092-14.014 0-4.8-2.976-9.023-7.487-10.75-3.84-1.44-10.078-1.536-14.302-1.729-3.456-.095-8.16.097-11.52-.767-2.11-.48-3.646-1.824-3.646-4.128 0-2.495 2.879-4.511 5.183-4.511.864 0 2.4.383 3.168.48 1.152.288 2.304.288 3.455.288 4.416 0 8.832-1.056 12.382-3.744 3.648-2.88 6.24-7.391 6.24-12.19 0-4.416-1.728-8.735-4.704-11.999.768-5.087 4.224-5.567 8.639-5.567h.77l-.098-6.048-1.919-.095c-6.624-.288-9.984 1.536-11.23 8.446zm-9.887 25.341c-6.624 0-10.944-4.127-10.944-10.75 0-6.24 4.608-10.75 10.944-10.75 5.95 0 10.847 4.51 10.847 10.654 0 6.527-4.32 10.846-10.847 10.846zm7.39 21.502c3.743.095 10.367.767 10.367 5.76 0 2.975-1.536 4.51-4.224 5.758-3.262 1.44-8.926 2.112-12.574 2.112-4.991 0-15.358-1.152-15.358-7.87 0-3.457 2.4-5.28 5.279-6.624l11.71.768 4.8.096M865.322 265.075c-2.11 5.759-6.718 9.406-13.053 9.406-5.087 0-10.175-2.783-12.479-7.39-1.824-3.649-2.016-7.2-2.016-11.04h35.42c.384-13.534-6.142-26.204-21.31-26.204-14.59 0-22.556 12.19-22.556 25.629 0 13.63 7.584 25.34 22.365 25.34 9.31 0 17.853-5.375 20.733-14.302zm-27.164-14.59c.288-7.68 5.568-14.879 13.727-14.879 8.639 0 13.15 6.816 13.055 14.878h-26.782" fill="#231f20" fill-rule="evenodd"/><path d="M902.546 269.01h-10.653v10.846h10.653V269.01M969.33 214.009h-7.198l-18.24 54.33-18.332-54.33h-8.64l22.27 65.847h7.87l22.27-65.847M980.249 269.01h-10.655v10.846h10.655V269.01" fill="#231f20"/><path d="M22.167 18.872L0 133.206h51.167c9.833 0 21 0 30.5-6.167 9.166-5.833 16.833-14.667 18.833-24.667 2.833-14.833-4.667-25.666-18.333-28.5l.166-.333c12.5-3 22.834-11.667 25.334-24.667 2.166-10.833-1-19.166-9-25-7-5-16.334-5-25.334-5zM45 39.206h16.167c4.5 0 11.5-.5 15 1.666 3.166 2.167 4.5 6.167 3.666 10.334-.666 3.833-3.333 8-6.833 10.333-4.667 3-10.167 2.667-14.833 2.667H40zm-8.833 45.333h19.666c4.334 0 9.667 0 13 2.167 3.5 2.166 5.167 6.666 4.334 11-.834 4.666-4 9.333-8.167 11.833-4.833 2.833-10.833 2.5-15.667 2.5h-18.5l5.334-27.5M175.786 96.039c0 15-10.833 28.667-26.833 28.667-9.333 0-18.334-4.334-18.334-14.834 0-17.5 21-19.333 34.334-19.333h10.833zm-11-15.333c-10.5 0-23 .666-32.5 5-9.333 4.333-15.667 13.333-15.667 23.5 0 16.833 13.667 25.666 29.5 25.666 13.5 0 23.667-5.333 29.667-17.5l1.5 15.834h13c-1.666-5.5-1.833-11.667-1.833-17.834V82.54c0-9.667-.167-20.167-7-27.833-6.5-7.167-16.833-8.334-26-8.334-15.5 0-34.167 5.5-36.5 23.167l12.166 2c2.334-11.667 12.5-15 23.167-15 15 0 21.5 5.667 21.5 20.5v3.667h-11M263.24 96.539c0 6.333-1 11.833-5 17.333-4.334 6-11.167 10.167-18.667 10.167-18.167 0-21.833-20.833-21.833-34.667 0-7.666 1.166-15.333 5-22 3.666-6.166 9.833-10.666 17.166-10.666 7.334 0 14.834 3.5 19 9.5 3.5 5 4.334 11 4.334 16.833zm0-36.5c-6-8.5-13.667-13.667-24.5-13.667-24.5 0-35 23.334-35 44.5 0 10.334 2.166 21 8 29.667 6.166 9 14.666 14.333 25.833 14.333 12.5 0 21.167-6 26.5-16.666h.333v15h11.834V18.872h-13V60.04" fill="#231f20" fill-rule="evenodd"/><path d="M302.026 48.539v84.667h13v-48.5c0-7 .834-13.834 5.167-19.334 3.5-4.5 9.5-8.333 15.333-8.333 5.667 0 11.167 3.167 14.167 8.167 2.5 4.166 2.833 9.666 2.833 14.333v53.667h13V87.539c0-8-.166-14.167 4.667-21 3.833-5.5 9.833-9.5 16.333-9.5 5.834 0 11.334 3.333 14.167 8.833 2.667 5.167 2.333 11.167 2.333 16.834v50.5h13v-50.5c0-7.834.167-17.167-4-24.167-4.333-7.333-12.666-12.167-21.333-12.167-13 0-22.667 8.5-27.333 20.167-2.667-11.833-11.5-20.167-23.834-20.167-11.833 0-21 8.334-25.333 18.5h-.333V48.54h-11.834" fill="#231f20"/><path d="M457.14 48.539h-13v84.667h13zm.666-29.667h-14.333V33.54h14.333V18.872" fill="#231f20" fill-rule="evenodd"/><path d="M497.774 48.539h-12.333v84.667h13V88.872c0-8.5 1.167-16.166 6.667-22.833 4.5-5.333 10.666-8.5 17.5-8.5 5.5 0 11.666 2.833 14.5 7.667 2.5 4.333 2.333 10.666 2.333 15.666v52.334h13V86.372c0-8.333.333-19.666-4-26.833-5.333-8.833-13.833-13.167-24-13.167-12 0-21.5 7.334-26.333 17.834h-.334V48.539M619.228 123.539l-10 .833c-10.667.834-13.5-5.166-13.5-15V58.206h18.833V47.872h-18.833V25.54l-13 1.333v21h-15v10.334h15v49c0 16.833 5.5 29.166 24 27.666l12.5-1V123.54" fill="#231f20"/><path d="M667.172 134.872c25.666 0 39.333-20.833 39.333-44.5 0-22.333-12.333-44-37.167-44-25.5 0-38.833 20.334-38.833 43.834 0 22.333 11.333 44.666 36.667 44.666zm1.166-10.833c-7.666 0-14.833-4.167-18.5-10.667-3.666-6.666-4.833-15.5-4.833-23.166 0-6.834 1-15 4.167-21.167 3.666-7.333 11-12 19.166-12 7.334 0 14.334 3.833 18.334 10 4.333 6.833 5.333 15.167 5.333 23.167 0 7.333-.667 15-4.167 21.666-4 7.667-10.833 12.167-19.5 12.167" fill="#231f20" fill-rule="evenodd"/><path d="M740.958 48.539h-12.333v84.667h13V88.872c0-8.5 1.167-16.166 6.667-22.833 4.5-5.333 10.666-8.5 17.5-8.5 5.5 0 11.666 2.833 14.5 7.667 2.5 4.333 2.333 10.666 2.333 15.666v52.334h13V86.372c0-8.333.333-19.666-4-26.833-5.333-8.833-13.833-13.167-24-13.167-12 0-21.5 7.334-26.333 17.834h-.334V48.539" fill="#231f20"/></svg>