<svg xmlns="http://www.w3.org/2000/svg" width="431.627" height="431.627"><path d="M411.145 215.055c0 108.298-87.793 196.09-196.09 196.09-108.298 0-196.091-87.792-196.091-196.09s87.793-196.091 196.09-196.091c108.298 0 196.091 87.793 196.091 196.09" fill="#1f355e"/><path d="M215.813 3.933c28.606 0 56.354 5.602 82.472 16.65 25.231 10.67 47.891 25.949 67.35 45.409 19.461 19.46 34.738 42.119 45.41 67.35 11.047 26.118 16.648 53.866 16.648 82.471 0 28.606-5.601 56.354-16.648 82.472-10.672 25.231-25.949 47.891-45.41 67.351-19.459 19.46-42.119 34.737-67.35 45.41-26.118 11.046-53.866 16.647-82.472 16.647-28.605 0-56.353-5.601-82.472-16.648-25.23-10.672-47.889-25.949-67.349-45.409-19.46-19.46-34.739-42.12-45.41-67.35-11.047-26.12-16.649-53.867-16.649-82.473 0-28.605 5.602-56.353 16.65-82.472 10.67-25.23 25.949-47.889 45.409-67.349 19.46-19.46 42.119-34.739 67.35-45.41C159.46 9.536 187.207 3.934 215.812 3.934m0-3.933C96.623 0 0 96.623 0 215.813c0 119.191 96.623 215.814 215.813 215.814 119.191 0 215.814-96.623 215.814-215.814C431.627 96.623 335.004 0 215.813 0" fill="#1f355e"/><text style="-inkscape-font-specification:TimesNewRomanPS-BoldMT" transform="matrix(-.2182 -1.31536 1.31536 -.2182 81.37 258.938)" font-weight="700" font-size="46.02" font-family="Times New Roman" fill="#fff"><tspan y="0" x="0">B</tspan></text><text style="-inkscape-font-specification:TimesNewRomanPS-BoldMT" transform="matrix(.14622 -1.3253 1.3253 .14622 74.55 222.205)" font-weight="700" font-size="46.02" font-family="Times New Roman" fill="#fff"><tspan y="0" x="0">A</tspan></text><text style="-inkscape-font-specification:TimesNewRomanPS-BoldMT" transform="matrix(.5634 -1.20845 1.20845 .5634 79.797 176.747)" font-weight="700" font-size="46.02" font-family="Times New Roman" fill="#fff"><tspan y="0" x="0">D</tspan></text><text style="-inkscape-font-specification:TimesNewRomanPS-BoldMT" transform="matrix(.90357 -.98048 .98048 .90357 93.492 142.237)" font-weight="700" font-size="46.02" font-family="Times New Roman" fill="#fff"><tspan y="0" x="0">M</tspan></text><text style="-inkscape-font-specification:TimesNewRomanPS-BoldMT" transform="scale(1.33333) rotate(-30.711 188.957 -145.48)" font-weight="700" font-size="46.02" font-family="Times New Roman" fill="#fff"><tspan y="0" x="0">I</tspan></text><text style="-inkscape-font-specification:TimesNewRomanPS-BoldMT" transform="matrix(1.2801 -.37298 .37298 1.2801 155.518 87.604)" font-weight="700" font-size="46.02" font-family="Times New Roman" fill="#fff"><tspan y="0" x="0">N</tspan></text><text style="-inkscape-font-specification:TimesNewRomanPS-BoldMT" transform="matrix(1.3326 -.04431 .04431 1.3326 190.797 76.599)" font-weight="700" font-size="46.02" font-family="Times New Roman" fill="#fff"><tspan y="0" x="0">T</tspan></text><text style="-inkscape-font-specification:TimesNewRomanPS-BoldMT" transform="matrix(1.29823 .30396 -.30396 1.29823 224.753 74.08)" font-weight="700" font-size="46.02" font-family="Times New Roman" fill="#fff"><tspan y="0" x="0">O</tspan></text><text style="-inkscape-font-specification:TimesNewRomanPS-BoldMT" transform="matrix(1.1517 .67183 -.67183 1.1517 267.21 83.641)" font-weight="700" font-size="46.02" font-family="Times New Roman" fill="#fff"><tspan y="0" x="0">N</tspan></text><text style="-inkscape-font-specification:TimesNewRomanPS-BoldMT" transform="scale(1.33333) rotate(52.93 32.139 279.42)" font-weight="700" font-size="46.02" font-family="Times New Roman" fill="#fff"><tspan y="0" x="0">C</tspan></text><text style="-inkscape-font-specification:TimesNewRomanPS-BoldMT" transform="scale(1.33333) rotate(69.614 47.773 238.818)" font-weight="700" font-size="46.02" font-family="Times New Roman" fill="#fff"><tspan y="0" x="0">L</tspan></text><text style="-inkscape-font-specification:TimesNewRomanPS-BoldMT" transform="scale(1.33333) rotate(85.009 58.333 212.576)" font-weight="700" font-size="46.02" font-family="Times New Roman" fill="#fff"><tspan y="0" x="0">U</tspan></text><text style="-inkscape-font-specification:TimesNewRomanPS-BoldMT" transform="matrix(-.24243 1.3111 -1.3111 -.24243 357.22 221.16)" font-weight="700" font-size="46.02" font-family="Times New Roman" fill="#fff"><tspan y="0" x="0">B</tspan></text><text style="-inkscape-font-specification:TimesNewRomanPS-BoldMT" transform="matrix(.84237 1.03353 -1.03353 .84237 60.975 309.123)" font-weight="700" font-size="46.02" font-family="Times New Roman" fill="#fff"><tspan y="0" x="0">R</tspan></text><text style="-inkscape-font-specification:TimesNewRomanPS-BoldMT" transform="matrix(1.08217 .7789 -.7789 1.08217 94.291 348.212)" font-weight="700" font-size="46.02" font-family="Times New Roman" fill="#fff"><tspan y="0" x="0">E</tspan></text><text style="-inkscape-font-specification:TimesNewRomanPS-BoldMT" transform="matrix(1.27573 .38768 -.38768 1.27573 136.84 378.27)" font-weight="700" font-size="46.02" font-family="Times New Roman" fill="#fff"><tspan y="0" x="0">M</tspan></text><text style="-inkscape-font-specification:TimesNewRomanPS-BoldMT" transform="matrix(1.33326 -.01412 .01412 1.33326 200.35 395.43)" font-weight="700" font-size="46.02" font-family="Times New Roman" fill="#fff"><tspan y="0" x="0">A</tspan></text><text style="-inkscape-font-specification:TimesNewRomanPS-BoldMT" transform="matrix(1.28085 -.3704 .3704 1.28085 247.108 395.433)" font-weight="700" font-size="46.02" font-family="Times New Roman" fill="#fff"><tspan y="0" x="0">G</tspan></text><text style="-inkscape-font-specification:TimesNewRomanPS-BoldMT" transform="matrix(1.06552 -.80153 .80153 1.06552 304.714 375.47)" font-weight="700" font-size="46.02" font-family="Times New Roman" fill="#fff"><tspan y="0" x="0">E</tspan></text><text style="-inkscape-font-specification:TimesNewRomanPS-BoldMT" transform="matrix(.79845 -1.06783 1.06783 .79845 344.733 343.506)" font-weight="700" font-size="46.02" font-family="Times New Roman" fill="#fff"><tspan y="0" x="0">N</tspan></text><path d="M217.536 138.168h-86.964l42.383 122.159h85.708l42.384-122.159h-83.511" fill="#fff"/><path d="M147.77 190.961l4.01-1.93h11.07v-21.534h-3.96l.58-13.209h8.638v6.316h2.836v-6.316h9.219v6.839l3.433-.583-.597-6.256 9.217.895v12.314l-4.775.739.166 20.795h6.012l7.225-1.45 1.165-9.789v-7.905l-3.38-1.651 1.516-4.284 2.418-1.195-1.471-3.953-2.928-4.516 18.147-8.779 17.981 8.779-4.545 7.188 1.398 2.476 2.222 1.02-.823 4.915-2.224 1.772v10.492l4.439 6.88 10.517-.518v-20.277l-4.61-1.317.851-12.631 8.368.661.723 5.655 2.113-.76v-5.01l5.812-.546 3.498 1.361-.092 4.955h2.836v-5.655h9.217v11.97l-4.608 1.9v19.694l12.457 1.399-19.113 55.825-1.352-12.909-4.079-20.164-7.306-11.984-8.772-4.708-11.943.097-7.74 4.799.748 4.732 4.668.879.357 4.66-2.924 2.025h-2.849v26.047l1.101 6.526 8.315 7.226v7.749h-29.887l.478-8.772 5.944-3.523 2.993-6.642-.776-27.972-4.803-2.279.371-5.281 5.264-1.18-.71-5.816-8.862-3.526-10.927.543-8.362 5.132-6.323 10.276-3.87 15.07-1.334 14.447-1.353 7.462-21.026-57.69" fill="#dfdae3"/><path d="M215.576 326.555c-22.316 0-40.56-18.98-41.31-42.618h82.622c-.752 23.638-18.995 42.618-41.312 42.618" fill="#fff"/><path d="M254.812 285.905c-1.66 21.628-18.624 38.684-39.236 38.684S178 307.532 176.34 285.905zm4.056-3.933h-86.583c-.001.15-.012.297-.012.448 0 25.461 19.388 46.103 43.303 46.103 23.916 0 43.303-20.642 43.303-46.103 0-.15-.01-.299-.011-.448" fill="#64668e"/><path d="M202.563 182.15l-3.27 6.88h-11.686v-21.533h4.609v-13.209h-9.217v6.316h-2.836v-6.316h-9.219v6.316h-2.836v-6.316h-9.217v13.21h4.609v21.533h-15.73M230.32 182.15l3.047 6.88h11.909v-21.533h-4.61v-13.209h9.218v6.316h2.836v-6.316h9.217v6.316h2.838v-6.316h9.217v13.21h-4.61v21.533h13.21" fill="none" stroke="#1f355e" stroke-width="1.5733293999999998" stroke-miterlimit="10"/><path d="M199.293 189.03l3.27-6.88v-12.263h-3.231v-5.935h3.23v-3.35l-5.16-6.314 18.947-9.48 18.87 9.48-4.899 6.315v3.349h3.047v5.935h-3.047v12.264l3.047 6.88M262.03 248.328c0-49.79-17.174-52.941-26.627-52.941-9.455 0-13.867 4.41-13.867 4.41v5.791s1.964.036 3.73.036c3.36 0 3.151 7.095 0 7.095h-3.73v31.133l7.564 8.088h1.852v8.773h-29.887v-8.773h1.851l7.564-8.088v-31.133h-3.728c-3.152 0-3.361-7.095-.001-7.095 1.765 0 3.729-.036 3.729-.036v-5.79s-4.412-4.411-13.865-4.411c-9.454 0-26.628 4.056-26.628 53.846" fill="none" stroke="#1f355e" stroke-width="1.5733293999999998" stroke-miterlimit="10"/><g><path d="M217.536 138.168h-86.964l43.088 122.159h83.824l43.563-122.159z" fill="none" stroke="#64668e" stroke-width="3.9333234999999998" stroke-miterlimit="10"/></g><g><path d="M206.685 231.395s5.951 2.954 11.118 3.414c5.168.46 6.569.132 6.569.132s-.05 2.266 1.455 2.966c1.502.7 2.457.128 5.513.814 3.056.688 9.575 2.527 10.095 2.483.52-.043.978.227 1.353.57.375.345 1.453 2.01 1.525 3.289 0 0 1.104-1.596 2.566-.859.248-1.296 1.316-1.78 1.785-1.668-.659-.841-1.03-2.379-1.03-2.975-1.922-.968-5.495-2.246-7.66-2.594-2.163-.347-5.71-1.427-5.71-1.427s3.796.341 5.824.36c2.028.02 4.14-.033 5.672-.327 1.532-.293 2.153-.648 2.419-.47.266.177-.698 2.061.562 2.824 1.074-.564 1.938.172 2.596 1.013.423-1.523 1.391-2.292 1.823-1.625 0 0-.087-1.638.16-2.338-.493-.352-1.028-.666-1.028-.666s.2-1.18-.825-1.887c-1.027-.707-13.419-1-13.419-1s1.97-2.053 2.843-3.744c.872-1.69.745-4.484.745-4.484s9.196.39 9.481-1.339c.136-.826-7.101-.885-7.101-.885l-.4-1.699s1.628.032 2.973-.432c1.344-.465 3.454-1.633 4.276-2.014a62.809 62.809 0 0 0 1.316-.627s.326-.693-1.289-.924c-1.616-.23-9.69-.823-9.69-.823l-.598 1.152s-2.432-2.236-5.456-3.397c.475 2.936 3.507 5.73 3.507 5.73s-1.504.454-2.294 2.111c-.79 1.656-2.67 2.96-5.521 3.918-2.85.958-9.695.409-17.024-.054-7.328-.462-21.695-1.568-28.085-3.517-6.392-1.95-14.7-4.948-16.088-5.6-1.387-.652-2.059-.141-1.855.948.204 1.088 3.116 6.777 11.541 9.225 8.426 2.448 13.7 2.691 16.291 1.476 2.59-1.214 4.416-2.324 6.533-1.86 0 0-1.765.795-4.701 2.98-2.935 2.186-3.733 3.404-6.096 4.198-2.361.792-3.88.886-5.261.713-1.38-.175-1.47-.619-2.068-.58-.6.039-1.516.055-1.748 1.113-.232 1.059-.978 1.486-1.675 1.795-.697.31-.948.492-.96 1.248-.012.755-.161 1.181-.821 1.535-.662.352-1.171.237-1.111 1.674.061 1.436.175 2.678.21 3.316.037.639.213.97.907.699.695-.27 1.182-.396 1.182-.396s.074 1.239 1.248 2.115c0 0 .448-1.323 1.106-1.635.658-.313 1.443.417 1.443.417s.39-.45.364-1.248c-.024-.797.184-.942.184-.942s-1.417-1.371-2.167-1.462c-.75-.092-1.349-.053-1.349-.053s.56-1.792 3.372-3.35c2.813-1.557 6.163-1.089 6.163-1.089s-.515 1.119-1.903 1.064c-.77 1.339-.808 1.336-1.205 1.906-.398.57-1.191 1.112-1.247 1.348-.056.234.38 1.417.495 2.062.116.644.089 1.598.089 1.598s.435-.527 1.264-.431c.828.096 2.048 1.453 2.048 1.453s.54-2.072 2.575-1.573c0 0 .373-1.964.205-2.413-.168-.45-2.977-.682-2.701-1.22.276-.538 1.948-1.139 2.736-1.603.788-.463 1.417-.937 1.576-1.523 2.138.147 3.232-.136 4.204-.388.973-.252 4.524-1.56 5.734-2.392 1.211-.832 2.44-2.126 2.44-2.126" fill="#1f355e"/></g><text style="-inkscape-font-specification:TimesNewRomanPS-BoldMT" transform="matrix(1.33333 0 0 1.33333 191.527 307.783)" font-weight="700" font-size="15.84" font-family="Times New Roman" fill="#1f355e"><tspan y="0" x="0 9.5039997 19.007999 28.511999">1957</tspan></text></svg>