<svg id="Ebene_1" data-name="Ebene 1" xmlns="http://www.w3.org/2000/svg" viewBox="0 0 920 500"><defs><style>.cls-1{fill:#fcfcfc;}.cls-2{fill:#d22930;}.cls-3{fill:#0b0b0b;}</style></defs><title>Zeichenfläche 1</title><path class="cls-1" d="M803.806,90.522c-12.547,10-23.655,21.917-8.9,36.739,15.243,15.311,25.986,4.209,34.412-10.112.7-1.187,3.377-1.209,5.136-1.772,31.516,1.828,58.288-11.733,85.255-25.32-22-.957-43.333-1.029-63.363-11.549-22.6-11.869-25.636-33.109-26.173-61.333C813.891,43.938,802.529,64.973,803.806,90.522ZM223.442,438.37c4.415-1.7,6.729-1.859,7.761-3.092C334.948,311.332,275.831,138,118.488,105.788c-10.411-2.131-13.676-3.244-15.553-15.364C96.906,51.482,72.612,24.316,38.722,5.741c-9.932-5.444-21.5-9.5-31.666-.2C-2.96,14.7.216,26.392,3.5,37.285c13.452,44.589,47.432,68.644,96.936,69.293,2.581.034,5.423,1.437,7.666,2.924,45.928,30.439,89.906,62.143,110.287,117.288C244.123,296.414,247.77,366.232,223.442,438.37Zm5.118-358.7c.113,31.842,25.827,57.657,57.282,57.507,30.8-.147,57.536-27.27,57.312-58.135C342.931,48.4,315.64,21.2,285.226,21.313,254.185,21.428,228.447,47.933,228.559,79.669Zm146.449,100.59c-47.541,19.394-88.092,104.419-75.923,159.19,12.572,56.586,97.889,109.943,166.621,104.2C323.358,380.65,310.344,300.711,375.008,180.259ZM539.431,247.6c99.134,58.928,110.789,145.557,90.5,244.876,36.79-36.724,50.708-118.475,29.88-167.136C641.468,282.481,587.678,246.131,539.431,247.6Zm202,53.9c-46.363,31.222-68.537,89.771-53.462,130.195,14.682,39.37,73.681,73.619,119.959,67.629-39.088-17.778-74.653-37.323-88.789-78.767C705.223,379.756,723.107,342.666,741.429,301.493ZM718.419,221.7c-.57-24.339-22.32-44.623-46.489-43.356-23.414,1.228-41.481,21.083-41.13,45.2.349,23.923,19.477,43.395,42.84,43.608C697.373,267.37,718.975,245.443,718.419,221.7Zm-187.347,7.648c-.716-23.082-35.938-63.212-58.505-66.838-13.4-2.154-19.629,4.708-20.177,16.939-1.046,23.35,37.352,66.182,60.258,68.037C525.909,248.559,531.925,242.5,531.072,229.348Z"/><path class="cls-2" d="M223.442,438.37c24.329-72.138,20.681-141.957-5.051-211.581C198.01,171.644,154.032,139.94,108.1,109.5c-2.243-1.486-5.084-2.89-7.666-2.924-49.5-.649-83.484-24.7-96.936-69.293C.216,26.392-2.96,14.7,7.056,5.541c10.17-9.3,21.734-5.244,31.666.2,33.89,18.575,58.184,45.742,64.214,84.683,1.877,12.12,5.142,13.233,15.553,15.364C275.831,138,334.948,311.332,231.2,435.278,230.171,436.511,227.857,436.67,223.442,438.37Z"/><path class="cls-2" d="M228.559,79.669c-.112-31.736,25.625-58.242,56.666-58.357C315.64,21.2,342.931,48.4,343.154,79.041c.224,30.865-26.515,57.988-57.312,58.135C254.386,137.326,228.672,111.512,228.559,79.669Z"/><path class="cls-2" d="M375.008,180.259c-64.664,120.451-51.65,200.391,90.7,263.394-68.732,5.739-154.049-47.618-166.621-104.2C286.916,284.678,327.468,199.654,375.008,180.259Z"/><path class="cls-3" d="M539.431,247.6c48.247-1.466,102.037,34.883,120.381,77.74,20.828,48.661,6.91,130.412-29.88,167.136C650.22,393.155,638.565,306.526,539.431,247.6Z"/><path class="cls-3" d="M741.429,301.493c-18.322,41.174-36.206,78.264-22.292,119.057,14.136,41.444,49.7,60.989,88.789,78.767-46.278,5.99-105.277-28.259-119.959-67.629C672.892,391.263,695.066,332.715,741.429,301.493Z"/><path class="cls-3" d="M718.419,221.7c.556,23.743-21.046,45.67-44.779,45.453-23.363-.213-42.491-19.685-42.84-43.608-.351-24.118,17.715-43.973,41.13-45.2C696.1,177.077,717.849,197.361,718.419,221.7Z"/><path class="cls-2" d="M803.806,90.522c-1.276-25.549,10.086-46.584,26.369-73.347.537,28.224,3.574,49.463,26.173,61.333C876.378,89.029,897.71,89.1,919.71,90.058c-26.967,13.587-53.739,27.148-85.265,25.321C830.233,99.693,821.595,89.469,803.806,90.522Z"/><path class="cls-3" d="M531.1,229.374c.827,13.125-5.189,19.185-18.451,18.111-22.905-1.855-61.3-44.687-60.258-68.037.548-12.231,6.772-19.093,20.177-16.939C495.134,166.136,530.355,206.266,531.1,229.374Z"/><path class="cls-3" d="M803.806,90.522c17.789-1.053,26.427,9.17,30.64,24.856-1.749.562-4.428.583-5.126,1.77-8.427,14.321-19.169,25.423-34.412,10.112C780.15,112.439,791.259,100.524,803.806,90.522Z"/></svg>