<?xml version="1.0" encoding="UTF-8" standalone="no"?>
<svg
   xmlns:dc="http://purl.org/dc/elements/1.1/"
   xmlns:cc="http://creativecommons.org/ns#"
   xmlns:rdf="http://www.w3.org/1999/02/22-rdf-syntax-ns#"
   xmlns:svg="http://www.w3.org/2000/svg"
   xmlns="http://www.w3.org/2000/svg"
   xmlns:sodipodi="http://sodipodi.sourceforge.net/DTD/sodipodi-0.dtd"
   xmlns:inkscape="http://www.inkscape.org/namespaces/inkscape"
   width="40.328907"
   height="39.971073"
   viewBox="0 0 40.328907 39.971073"
   version="1.1"
   id="svg49"
   sodipodi:docname="berlinerbrauereien.svg"
   inkscape:version="0.92.4 (5da689c313, 2019-01-14)">
  <metadata
     id="metadata55">
    <rdf:RDF>
      <cc:Work
         rdf:about="">
        <dc:format>image/svg+xml</dc:format>
        <dc:type
           rdf:resource="http://purl.org/dc/dcmitype/StillImage" />
        <dc:title>clubs/svberlinerbrauereien</dc:title>
      </cc:Work>
    </rdf:RDF>
  </metadata>
  <defs
     id="defs53" />
  <sodipodi:namedview
     pagecolor="#ffffff"
     bordercolor="#666666"
     borderopacity="1"
     objecttolerance="10"
     gridtolerance="10"
     guidetolerance="10"
     inkscape:pageopacity="0"
     inkscape:pageshadow="2"
     inkscape:window-width="1920"
     inkscape:window-height="1031"
     id="namedview51"
     showgrid="false"
     fit-margin-top="0"
     fit-margin-left="0"
     fit-margin-right="0"
     fit-margin-bottom="0"
     inkscape:zoom="4.4285714"
     inkscape:cx="20.451609"
     inkscape:cy="19.998345"
     inkscape:window-x="0"
     inkscape:window-y="0"
     inkscape:window-maximized="1"
     inkscape:current-layer="svg49" />
  <!-- Generator: Sketch 57.1 (83088) - https://sketch.com -->
  <title
     id="title2">clubs/svberlinerbrauereien</title>
  <desc
     id="desc4">Created with Sketch.</desc>
  <g
     id="clubs/svberlinerbrauereien"
     style="fill:none;fill-rule:evenodd;stroke:none;stroke-width:1"
     transform="translate(-15.000004,-0.02727184)">
    <g
       id="Group-83"
       transform="translate(15)">
      <path
         d="m 39.925627,20.012815 c 0,10.913793 -8.847382,19.761175 -19.761176,19.761175 -10.9137934,0 -19.7611482,-8.847382 -19.7611482,-19.761175 0,-10.9137938 8.8473548,-19.7611759 19.7611482,-19.7611759 10.913794,0 19.761176,8.8473821 19.761176,19.7611759"
         id="Fill-1"
         inkscape:connector-curvature="0"
         style="fill:#ffffff" />
      <path
         d="m 20.012082,0.54420232 c -0.08547,0.003882 -0.203746,0.0143267 -0.321996,0.0138346 -0.936076,-0.003964 -1.865263,0.0756528 -2.788845,0.22523582 C 14.957755,1.0979959 13.113025,1.7151661 11.35308,2.5930608 8.7861353,3.873471 6.6099221,5.6342092 4.8112618,7.8704634 3.3018155,9.7471552 2.1405578,11.807415 1.4250417,14.112432 0.98982638,15.51451 0.72412577,16.949397 0.60407109,18.410805 c -0.10832536,1.318742 -0.14064252,2.637649 0.0399453,3.954532 0.33038961,2.409241 1.01697881,4.700506 2.20705401,6.834012 0.8742037,1.567136 1.8662748,3.046726 3.1425017,4.316282 2.2916747,2.279727 4.9272729,4.012932 8.0230759,5.011592 1.572632,0.507314 3.177717,0.837212 4.827068,0.939385 1.419248,0.08793 2.830922,3.28e-4 4.237074,-0.20555 2.950157,-0.431934 5.654792,-1.499959 8.144963,-3.128147 1.566179,-1.024033 2.895748,-2.304307 4.094135,-3.734409 2.579385,-3.078141 4.049569,-6.61687 4.430704,-10.608558 0.194614,-2.038141 0.054,-4.058565 -0.399754,-6.055393 C 38.432178,11.691625 36.371699,8.3177362 33.329129,5.531352 31.285329,3.6596364 28.909362,2.3536623 26.28038,1.4989255 24.254543,0.84030622 22.180339,0.49075051 20.012082,0.54420232 M 40.32891,19.988577 c -0.05025,5.024415 -1.692959,9.449788 -5.031907,13.216842 -1.711141,1.930526 -3.71866,3.497608 -6.032016,4.657389 -1.538975,0.771538 -3.156965,1.315516 -4.841504,1.665427 -1.166015,0.242187 -2.343595,0.40525 -3.532686,0.455393 -1.208558,0.05096 -2.412331,-0.03303 -3.609733,-0.211784 C 15.681036,39.532938 14.122513,39.139882 12.6155,38.54762 10.219273,37.605884 8.1070923,36.222453 6.2402433,34.455781 4.5269146,32.8344 3.1122051,30.990463 2.0675024,28.869862 1.2121094,27.133512 0.64442652,25.305105 0.3224853,23.398912 0.12724265,22.24304 -0.0223404,21.078857 0.00275871,19.906472 0.11346275,14.734387 1.8329979,10.198146 5.4028134,6.4074149 6.9807218,4.7318442 8.7774682,3.3414409 10.828022,2.2867587 c 1.543021,-0.7936295 3.16514,-1.36645248 4.859795,-1.73520163 1.720437,-0.3743814 3.459959,-0.60041011 5.221162,-0.50072453 3.847573,0.2177717 7.445085,1.24347226 10.645851,3.45454546 4.09203,2.8267396 6.793438,6.650663 8.118305,11.443226 0.455283,1.647027 0.653205,3.330472 0.655775,5.039973"
         id="Fill-3"
         inkscape:connector-curvature="0"
         style="fill:#000000" />
      <path
         d="M 1.6823322,20.097763 C 1.5524621,28.941372 8.7661326,38.500334 20.17253,38.595699 30.88955,38.685296 38.9129,29.924995 38.943606,19.969616 38.972804,10.450983 31.358942,1.5001695 20.589126,1.3308462 10.171902,1.1670458 1.5351825,9.64289 1.6823322,20.097763 M 21.591068,1.1247765 C 28.71279,0.97656049 38.13346,7.373799 39.064205,18.587388 39.70631,29.517285 31.629755,38.038105 21.687226,38.71693 10.710876,39.466294 2.1910677,31.116519 1.5293042,21.31004 1.3061189,15.9341 2.7982857,11.142521 6.5192973,7.1816459 10.213241,3.2495612 14.782537,1.2053233 21.591068,1.1247765"
         id="Fill-5"
         inkscape:connector-curvature="0"
         style="fill:#000000" />
      <path
         d="m 16.956703,15.16908 c -0.0043,0.0167 -0.0085,0.03344 -0.0128,0.05014 0.117403,0.03461 0.234805,0.0692 0.371839,0.109583 -0.0067,-0.07357 -0.01058,-0.115598 -0.01463,-0.159727 z m 2.902091,1.026439 c 0.129241,-0.07617 0.242242,-0.123527 0.330335,-0.199699 0.102994,-0.08905 0.178018,-0.116747 0.276008,0.0025 0.06253,0.07606 0.150185,0.107942 0.250226,0.05053 -0.190813,-0.370335 -0.290034,-0.444675 -0.515325,-0.391907 -0.198687,0.04656 -0.340916,0.247327 -0.341244,0.538592 z M 7.5712755,9.8481777 c 0.00487,0.8176073 0.200164,1.5601913 0.697635,2.2000543 0.469501,0.603883 1.0734108,1.000766 1.8504985,1.064033 0.934464,0.07609 1.6616,-0.332768 2.224635,-1.046425 0.958933,-1.21542 0.971729,-3.1651674 0.02201,-4.3896924 C 11.067899,6.0024087 9.1342556,6.4123882 8.2086234,7.7254709 7.7581791,8.3644593 7.5840164,9.0920875 7.5712755,9.8481777 Z M 20.48928,17.533755 c 0.756418,0.0359 1.47866,0.10201 2.190047,-0.09654 0.235434,-0.0657 0.449324,-0.171647 0.633356,-0.336706 0.06236,-0.05594 0.1381,-0.09703 0.208668,-0.145563 0.147013,0.252385 0.09788,0.548216 -0.11147,0.730526 -0.197621,0.172085 -0.44,0.251237 -0.690909,0.262283 -0.422201,0.01859 -0.845824,0.0052 -1.268818,0.0044 -0.02234,-5.4e-5 -0.04489,-0.0068 -0.0669,-0.01236 -0.403008,-0.101435 -0.40298,-0.10149 -0.814245,0.06376 0.04306,0.192454 0.178182,0.305099 0.35609,0.328421 0.264389,0.03461 0.533534,0.03716 0.800903,0.04391 0.262529,0.0066 0.525358,0.0014 0.808038,0.0014 -0.03352,0.221709 -0.141135,0.369296 -0.310294,0.445004 -0.210062,0.09403 -0.43568,0.153711 -0.655584,0.225181 -0.159864,0.05192 -0.321286,0.09914 -0.482133,0.148024 -0.115981,0.03527 -0.129269,0.115544 -0.06157,0.19497 0.08424,0.09878 0.178701,0.194067 0.284538,0.268298 0.421135,0.295475 0.848175,0.582583 1.273521,0.872016 0.363144,0.247109 0.629473,0.582338 0.829993,0.964238 0.160355,0.3054 0.285577,0.629501 0.421763,0.947314 0.225263,0.525687 0.189529,1.071278 0.09619,1.613834 -0.202324,1.176596 -0.580697,2.297991 -1.18026,3.329652 -0.258756,0.445222 -0.61583,0.833383 -0.929022,1.246862 -0.04361,0.05758 -0.09176,0.111716 -0.149036,0.18108 0.176787,0.08391 0.342665,0.164785 0.510321,0.241805 0.700096,0.321668 1.361558,0.702365 1.887273,1.278769 0.955789,1.047957 1.472672,2.276063 1.480711,3.702229 0.0012,0.210991 -0.04202,0.424853 -0.08634,0.632782 -0.05055,0.237156 0.0021,0.318906 0.246754,0.328229 0.430458,0.01635 0.792371,-0.177607 1.15352,-0.374135 0.04391,-0.0239 0.08596,-0.05118 0.129104,-0.07647 0.0035,-0.0021 0.0089,-7.65e-4 0.0134,-10e-4 0.225537,0.196337 0.543213,0.238141 1.176214,0.150513 -0.02302,0.14067 -0.04533,0.277102 -0.06852,0.418811 0.08265,0.02928 0.157922,0.05591 0.249487,0.08834 -0.08312,0.116582 -0.158769,0.222665 -0.247655,0.347341 0.102939,0.08139 0.203937,0.161257 0.311415,0.246234 -0.120328,0.06742 -0.237868,0.133315 -0.370608,0.207682 0.05856,0.08708 0.116746,0.173562 0.191606,0.284867 -0.312673,0.01285 -0.53162,0.18283 -0.76257,0.324101 -0.230322,0.140916 -0.48659,0.175065 -0.746056,0.193521 -0.463131,0.033 -0.902065,0.166479 -1.342611,0.300232 -0.339303,0.102994 -0.682215,0.196692 -1.027806,0.275762 -0.330035,0.07552 -0.583377,-0.04451 -0.729078,-0.352673 -0.08648,-0.182911 -0.133096,-0.385563 -0.189145,-0.581736 -0.43825,-1.533944 -1.224853,-2.804976 -2.685906,-3.56864 -0.277566,-0.145071 -0.277457,-0.144032 -0.220478,-0.450362 0.08153,-0.438223 0.168503,-0.875598 0.238687,-1.31568 0.01785,-0.112098 -0.01881,-0.232919 -0.03043,-0.34972 -0.01709,0.0011 -0.03418,0.0021 -0.05127,0.0032 -0.02576,0.194723 -0.0525,0.389309 -0.07716,0.584169 -0.124594,0.985291 -0.584225,1.787724 -1.321668,2.442707 -0.354094,0.314504 -0.706193,0.632071 -1.044375,0.96339 -0.154477,0.151333 -0.279863,0.3346 -0.404702,0.512974 -0.05285,0.07549 -0.08183,0.173205 -0.101873,0.265153 -0.07357,0.337389 0.02515,0.49821 0.362542,0.578373 0.221163,0.05255 0.449679,0.07497 0.669638,0.131402 0.222092,0.05698 0.437676,0.139248 0.681121,0.218619 -0.08361,0.08952 -0.140916,0.150895 -0.207683,0.222392 0.112345,0.09605 0.218483,0.186795 0.339549,0.290308 -0.04642,0.06231 -0.0934,0.125359 -0.144005,0.193274 0.02048,0.08055 0.04342,0.170718 0.06843,0.269009 -0.105864,0.01342 -0.194859,0.02469 -0.299248,0.03789 0.03623,0.110977 0.06931,0.212276 0.107834,0.330225 -0.146986,0.03549 -0.290035,0.07002 -0.430677,0.103978 0.01031,0.07349 0.01928,0.137608 0.03396,0.242352 -0.508872,-0.09736 -0.995734,-0.165496 -1.469063,-0.286562 -0.841176,-0.215202 -0.647492,-0.175831 -1.156418,-0.736487 -0.39404,-0.434121 -0.824771,-0.83486 -1.237458,-1.252167 -0.08954,-0.09053 -0.169706,-0.190266 -0.257525,-0.282597 -0.178127,-0.187314 -0.192181,-0.387177 -0.09966,-0.627806 0.131894,-0.342966 0.262229,-0.691866 0.338428,-1.049897 0.18581,-0.873275 0.311361,-1.756583 0.319645,-2.652659 0.0012,-0.131976 0.02081,-0.264635 0.01168,-0.395571 -0.01069,-0.152919 -0.02114,-0.312208 -0.07158,-0.4546 -0.09758,-0.275352 -0.111005,-0.548408 -0.0078,-0.815393 0.186986,-0.483664 0.392673,-0.960028 0.589119,-1.440055 0.401804,-0.982009 0.789829,-1.968886 1.034723,-3.004894 0.0272,-0.115079 0.04692,-0.231989 0.06786,-0.348462 0.008,-0.04457 0.0098,-0.09028 0.01506,-0.141818 -0.246315,-0.02573 -0.489925,-0.04498 -0.731729,-0.07765 -0.61069,-0.08252 -1.180506,-0.29121 -1.734682,-0.556008 -0.813671,-0.38879 -1.629993,-0.772003 -2.380807,-1.276254 -0.180424,-0.121203 -0.351469,-0.261545 -0.507423,-0.413042 -0.411346,-0.39959 -0.799754,-0.823459 -1.221244,-1.211675 -0.284128,-0.261736 -0.6180996,-0.460724 -1.0037455,-0.555816 -0.1217772,-0.03005 -0.2489953,-0.06491 -0.353985,-0.129625 -0.1362953,-0.08396 -0.1215311,-0.147805 0.023814,-0.208721 0.016186,-0.0068 0.031825,-0.01493 0.068107,-0.0321 -0.1016541,-0.09146 -0.1944771,-0.174983 -0.2988927,-0.268927 0.085878,-0.06843 0.165851,-0.132166 0.2475735,-0.197293 -0.061682,-0.07888 -0.121203,-0.154942 -0.177717,-0.227177 0.019658,-0.02428 0.024169,-0.03587 0.031032,-0.03746 0.2301572,-0.05364 0.2339303,-0.05351 0.2342857,-0.290089 1.367e-4,-0.110677 0.026521,-0.17676 0.1538483,-0.156692 0.1124265,0.01772 0.1838961,-0.01233 0.1836227,-0.147013 -5.47e-5,-0.02802 0.057826,-0.07571 0.093507,-0.08044 0.088366,-0.01176 0.1793301,-0.0039 0.276719,-0.0039 V 13.41083 C 9.5652331,13.253974 9.2165523,13.135642 8.9081996,12.950269 8.0576186,12.438854 7.5771811,11.65638 7.3935038,10.695697 7.1590267,9.4694217 7.3817197,8.3358332 8.179177,7.3524566 c 0.826849,-1.0195762 2.177252,-1.330581 3.312317,-0.774108 0.664826,0.325933 1.118278,0.8606152 1.440793,1.5169105 0.630103,1.2821326 0.537909,3.2010659 -0.612522,4.4027889 -0.515434,0.5384 -1.144142,0.827833 -1.889132,0.863021 -0.03606,0.0017 -0.07226,2.19e-4 -0.144962,2.19e-4 0,0.209132 2.7e-5,0.412003 0,0.614901 -1.92e-4,1.298373 -8.3e-5,2.596773 -8.21e-4,3.895147 -1.64e-4,0.255092 0.0034,0.510485 -0.0084,0.765085 -0.0066,0.143568 0.05865,0.220779 0.185017,0.240984 0.302858,0.04839 0.533972,0.222201 0.757676,0.411812 0.302256,0.256213 0.602953,0.514203 0.904635,0.771073 0.461353,0.392754 0.999863,0.602488 1.59568,0.6873 0.626767,0.08924 1.251756,0.201312 1.887464,0.18324 0.349036,-0.0099 0.697143,-0.05239 1.046835,-0.08025 0.09908,-0.463596 0.114669,-0.908654 -0.01403,-1.360629 -0.133151,-0.467587 -0.252085,-0.940615 -0.346794,-1.417307 -0.08632,-0.434504 -0.04334,-0.869829 0.08607,-1.296541 0.03923,-0.129351 0.05301,-0.26715 0.0707,-0.402106 0.02338,-0.178619 -0.02338,-0.337963 -0.124894,-0.490335 -0.167191,-0.250881 -0.159126,-0.365604 0.01824,-0.607573 0.0455,-0.06206 0.101162,-0.116856 0.153848,-0.173424 0.237868,-0.255339 0.517348,-0.349748 0.850718,-0.208367 0.391169,0.165879 0.781189,0.14931 1.170554,2.46e-4 0.643827,-0.246452 1.27229,-0.153055 1.88987,0.09116 0.33851,0.133835 0.671141,0.283063 0.948571,0.530609 0.151525,0.135201 0.342748,0.166972 0.536487,0.166097 0.245742,-0.0011 0.492167,-0.03218 0.736951,-0.021 0.380998,0.01742 0.391689,0.0018 0.338182,0.421681 -0.03579,0.280711 -0.184443,0.509447 -0.376049,0.713548 -0.03587,0.0382 -0.06395,0.09747 -0.06819,0.149255 -0.02012,0.245194 -0.09143,0.297936 -0.335092,0.260888 -0.218483,-0.03325 -0.440082,-0.07311 -0.659303,-0.06794 -0.309583,0.0073 -0.788981,0.203445 -1.0403,0.394914 z"
         id="Fill-7"
         inkscape:connector-curvature="0"
         style="fill:#000000" />
      <path
         d="m 26.398201,18.061413 c 0.251565,0.02584 0.313055,-0.114121 0.278852,-0.328667 0.160492,-0.0059 0.314231,0.0016 0.381954,-0.16987 0.0043,-0.01085 0.03213,-0.01867 0.04831,-0.01755 0.161832,0.0111 0.252632,-0.07973 0.30879,-0.228599 0.04498,0.01993 0.08372,0.03117 0.11579,0.05247 0.07997,0.05307 0.154586,0.05156 0.241886,0.01 0.179987,-0.0858 0.18201,-0.08153 0.306959,0.07803 0.03778,-0.05772 0.07418,-0.113301 0.110567,-0.168859 0.0172,0.0015 0.03439,0.0029 0.05157,0.0043 0.01714,0.111825 0.04788,0.223513 0.04894,0.335475 0.0039,0.405331 -0.0023,0.810745 -0.0045,1.216104 -2.73e-4,0.04812 -2.7e-5,0.09624 -2.7e-5,0.165632 0.08055,-0.02997 0.137908,-0.05135 0.21203,-0.07893 0.01616,0.08607 0.03076,0.163937 0.05269,0.280684 0.12782,-0.05304 0.243554,-0.101053 0.379002,-0.157266 -0.02655,0.08878 -0.05146,0.17203 -0.08355,0.279344 h 0.525167 c -0.08878,0.120957 -0.151579,0.206534 -0.231004,0.31475 0.125933,0.02411 0.237238,0.04544 0.359152,0.06879 -0.04949,0.103814 -0.106466,0.20227 -0.14499,0.307506 -0.228298,0.623567 -0.447765,1.250416 -0.679836,1.87259 -0.104771,0.280848 -0.219084,0.559699 -0.351305,0.828489 -0.275626,0.560246 -0.771402,0.880821 -1.301764,1.161559 -0.761339,0.402953 -1.582666,0.588571 -2.429883,0.68421 -0.166398,0.01878 -0.332878,0.03675 -0.511716,0.05646 0.344224,-1.290034 0.01299,-2.428025 -0.737334,-3.509747 0.138892,0.0071 0.261599,-0.0048 0.375064,0.02209 0.632646,0.15013 1.261955,0.314395 1.894765,0.463787 0.269473,0.06359 0.543212,0.114122 0.817744,0.149419 0.201094,0.02589 0.28689,-0.02606 0.349337,-0.227013 0.0902,-0.290171 0.150403,-0.589692 0.223431,-0.885222 0.112509,-0.455147 0.212987,-0.915243 0.539084,-1.295749 -0.376432,-0.422146 -0.750704,-0.841886 -1.145126,-1.284238"
         id="Fill-9"
         inkscape:connector-curvature="0"
         style="fill:#000000" />
      <path
         d="m 11.259199,32.745255 c -0.174874,-0.08938 -0.324539,-0.186001 -0.488011,-0.243363 -0.144197,-0.05064 -0.264744,0.0155 -0.339822,0.135366 -0.07347,0.117348 -0.07079,0.248968 0.03899,0.362816 0.108325,0.112372 0.238524,0.203636 0.369296,0.312672 0.141627,-0.191551 0.26756,-0.361914 0.419549,-0.567491 m 0.746193,-1.013288 c -0.143732,-0.08924 -0.267806,-0.182802 -0.405386,-0.247819 -0.198469,-0.09378 -0.370062,-0.04692 -0.486234,0.107696 -0.114095,0.151852 -0.104799,0.328831 0.0485,0.494737 0.103376,0.11188 0.228599,0.203554 0.352153,0.311333 0.165304,-0.224224 0.318688,-0.432235 0.490964,-0.665947 m -1.438223,0.328476 c -0.04654,-0.142092 -0.114833,-0.271716 -0.128667,-0.406917 -0.052,-0.508052 0.424443,-0.89821 0.942747,-0.78108 0.0969,0.0219 0.192454,0.05575 0.283774,0.09528 0.328175,0.142147 0.920984,0.575011 1.115488,0.811894 -0.550622,0.747669 -1.102802,1.497525 -1.66138,2.256022 -0.41039,-0.236337 -0.813069,-0.469255 -1.1245117,-0.820124 -0.1048531,-0.11814 -0.1919071,-0.272891 -0.230376,-0.425235 -0.1073957,-0.4254 0.2515657,-0.801313 0.6910737,-0.746986 0.04003,0.0049 0.07978,0.01217 0.111852,0.01714"
         id="Fill-11"
         inkscape:connector-curvature="0"
         style="fill:#000000" />
      <path
         d="m 7.7968394,26.235155 c 0.083336,0.200164 0.1599726,0.38417 0.2431169,0.583896 -0.6354614,0.267724 -1.2659467,0.53337 -1.9137389,0.806289 -0.066958,-0.16011 -0.1360219,-0.325222 -0.2095421,-0.501026 0.07445,-0.04213 0.1443609,-0.08167 0.24216,-0.137006 -0.2672044,-0.07202 -0.4458237,-0.218974 -0.542201,-0.454217 -0.097198,-0.237157 -0.080738,-0.462174 0.092905,-0.673028 -0.07784,-0.03295 -0.1500205,-0.05807 -0.2172249,-0.09277 -0.5073137,-0.262037 -0.5590977,-0.897964 -0.101244,-1.23456 0.036582,-0.0269 0.074641,-0.05271 0.1148872,-0.07341 0.076774,-0.03948 0.1542857,-0.07806 0.2338483,-0.111443 0.3560629,-0.149364 0.7128913,-0.296787 1.0845659,-0.451182 0.081777,0.195844 0.1600821,0.383349 0.2451128,0.58704 -0.2008749,0.08459 -0.3960629,0.167136 -0.5915516,0.248995 -0.1510868,0.06324 -0.3034586,0.123445 -0.4533698,0.18931 -0.066193,0.02909 -0.1322488,0.06256 -0.1904853,0.10488 -0.1456733,0.105865 -0.1839781,0.230923 -0.1207929,0.365387 0.065044,0.138455 0.2209433,0.215721 0.3778538,0.166206 0.1598906,-0.05044 0.3139849,-0.119836 0.4696104,-0.183404 0.2473,-0.101053 0.4938072,-0.204156 0.749501,-0.310048 0.082461,0.198442 0.1605194,0.386302 0.2446206,0.588681 -0.2634313,0.109774 -0.5185236,0.215256 -0.7729597,0.322406 -0.1340259,0.05646 -0.270704,0.108435 -0.3993985,0.17553 -0.1917156,0.09999 -0.2544087,0.245441 -0.1865755,0.398031 0.07218,0.162379 0.2631032,0.232454 0.4541627,0.155981 0.3377717,-0.135256 0.6729187,-0.27702 1.0092413,-0.415912 0.041312,-0.01706 0.083062,-0.03303 0.1374983,-0.05463"
         id="Fill-13"
         inkscape:connector-curvature="0"
         style="fill:#000000" />
      <path
         d="m 18.596981,3.9007355 c 0.02272,0.2456596 0.04093,0.4424607 0.06237,0.674395 0.180943,-0.047847 0.346575,-0.075407 0.498482,-0.1368421 0.124621,-0.05039 0.170882,-0.1698427 0.146001,-0.3074504 -0.02556,-0.1414901 -0.121039,-0.2156117 -0.253725,-0.2272864 -0.142419,-0.012522 -0.28678,-0.00282 -0.453124,-0.00282 m 0.171238,1.8593301 c 0.18354,-0.040711 0.346411,-0.061435 0.497771,-0.1147778 0.150322,-0.053014 0.228162,-0.2038825 0.214518,-0.3465756 -0.0149,-0.1562269 -0.102775,-0.2793985 -0.26745,-0.3029391 -0.165632,-0.02365 -0.33728,-0.00519 -0.517512,-0.00519 0.02409,0.2551743 0.04662,0.4934518 0.07267,0.7694873 M 17.964555,3.5795051 c 0.447027,-0.088312 0.887984,-0.1769241 1.341845,-0.1166917 0.179577,0.023841 0.343651,0.091429 0.468572,0.2291729 0.234067,0.2580451 0.187751,0.6438825 -0.101381,0.8636774 -0.03431,0.026083 -0.0701,0.05028 -0.12041,0.086234 0.03773,0.012987 0.05764,0.020342 0.07784,0.026712 0.265318,0.083828 0.441805,0.2525769 0.484402,0.5338893 0.0458,0.3024197 -0.05558,0.5588516 -0.315981,0.7168284 -0.163445,0.099139 -0.354313,0.1754477 -0.542146,0.207054 -0.312563,0.052604 -0.632536,0.06108 -0.949392,0.088093 -0.07327,0.00626 -0.117676,-0.012167 -0.125386,-0.1000137 -0.07237,-0.8247437 -0.148353,-1.6491593 -0.222939,-2.4736842 -0.0012,-0.013288 0.002,-0.026958 0.005,-0.061271"
         id="Fill-15"
         inkscape:connector-curvature="0"
         style="fill:#000000" />
      <path
         d="m 32.531292,10.32502 c 0.113137,0.11568 0.213014,0.238414 0.333643,0.335256 0.118688,0.09528 0.254245,0.07828 0.361777,-0.01258 0.102748,-0.08683 0.136514,-0.208229 0.06619,-0.343568 -0.06734,-0.129679 -0.159563,-0.246425 -0.24525,-0.3755022 -0.163171,0.1214762 -0.30477,0.2266302 -0.445905,0.3323582 -0.01764,0.01323 -0.03286,0.02966 -0.07046,0.06403 m -0.326453,0.231059 c -0.221791,0.165414 -0.416842,0.310923 -0.64555,0.481504 0.14499,0.13851 0.266576,0.277758 0.411374,0.385892 0.121558,0.09077 0.261025,0.05392 0.377033,-0.04011 0.113767,-0.09219 0.162598,-0.217991 0.106576,-0.352017 -0.06688,-0.16 -0.160547,-0.30879 -0.249433,-0.47527 M 32.9962,9.2029966 c 0.293861,0.3084347 0.567792,0.6145728 0.756308,0.9820914 0.06647,0.12957 0.1089,0.283746 0.116255,0.429036 0.02283,0.450144 -0.391087,0.730609 -0.807847,0.561067 -0.03748,-0.01526 -0.07415,-0.03267 -0.126999,-0.05608 0.01263,0.07617 0.02827,0.140123 0.03314,0.204922 0.03787,0.503814 -0.432563,0.872946 -0.915161,0.707177 -0.134029,-0.04601 -0.263899,-0.127188 -0.372607,-0.21941 -0.334053,-0.283308 -0.568148,-0.647628 -0.800601,-1.030348 0.705618,-0.52596 1.405112,-1.0473823 2.117512,-1.5784554"
         id="Fill-17"
         inkscape:connector-curvature="0"
         style="fill:#000000" />
      <path
         d="m 7.8470513,29.052834 c 0.2473547,0.0032 0.580123,-0.221873 0.6667122,-0.450964 0.062556,-0.165468 0.017553,-0.343076 -0.1158988,-0.457498 -0.1231169,-0.105537 -0.2935339,-0.124293 -0.4445113,-0.03423 -0.1245113,0.07428 -0.2448394,0.157348 -0.3589337,0.246835 -0.1328777,0.104197 -0.1780725,0.281969 -0.1232536,0.429091 0.059631,0.16 0.2069446,0.264552 0.3758852,0.266767 m -0.7835134,-0.33102 c -0.3076691,0.213507 -0.5985236,0.415339 -0.9044976,0.62767 -0.125851,-0.179358 -0.2471087,-0.352236 -0.3759672,-0.535913 0.8245797,-0.575393 1.6439372,-1.14715 2.4723992,-1.725222 0.1050445,0.150759 0.2109911,0.302775 0.3241832,0.465181 -0.066575,0.05796 -0.1303896,0.113493 -0.207136,0.180314 0.025017,0.0077 0.038633,0.01539 0.052495,0.01575 0.4638961,0.01288 0.9006698,0.553219 0.6754613,1.144552 -0.1948052,0.511579 -0.8519754,0.881149 -1.3702529,0.766125 -0.423568,-0.09403 -0.7209022,-0.499221 -0.6666849,-0.938456"
         id="Fill-19"
         inkscape:connector-curvature="0"
         style="fill:#000000" />
      <path
         d="m 15.883967,4.0097908 c 0.210007,-0.067341 0.407847,-0.130827 0.618428,-0.1983321 0,0.2915926 0.0033,0.5677101 -6.83e-4,0.8437183 -0.0087,0.601039 -0.02395,1.2019959 -0.02986,1.8030622 -0.0013,0.1297335 -0.03092,0.206808 -0.172303,0.2387697 -0.172085,0.038906 -0.338073,0.104853 -0.517977,0.1627614 -0.545045,-0.7573752 -1.089214,-1.5135475 -1.645988,-2.2872454 0.209159,-0.067587 0.400656,-0.1338345 0.595598,-0.1876144 0.02786,-0.00768 0.08473,0.036664 0.107259,0.070759 0.363883,0.550786 0.724347,1.1038141 1.085851,1.6561585 0.0045,0.00697 0.01239,0.011757 0.01906,0.017908 -0.01966,-0.7015721 -0.03929,-1.4025974 -0.05939,-2.1199454"
         id="Fill-21"
         inkscape:connector-curvature="0"
         style="fill:#000000" />
      <path
         d="m 30.515141,32.994595 c -0.195488,0.131073 -0.375365,0.251702 -0.565714,0.379357 -0.534299,-0.454463 -1.063869,-0.904908 -1.602078,-1.362707 0.0071,0.03265 0.01088,0.06059 0.01941,0.08703 0.195352,0.606234 0.389638,1.21285 0.588982,1.817772 0.02625,0.07967 0.014,0.122761 -0.05703,0.166862 -0.14961,0.09293 -0.293971,0.194341 -0.455283,0.302147 -0.07798,-0.284402 -0.151825,-0.550212 -0.223677,-0.816569 -0.162379,-0.601969 -0.321723,-1.204757 -0.487875,-1.805687 -0.02373,-0.08582 -0.0093,-0.130854 0.06573,-0.177662 0.169378,-0.105619 0.332796,-0.22078 0.502256,-0.334464 0.738373,0.581299 1.470458,1.157594 2.215283,1.743924"
         id="Fill-23"
         inkscape:connector-curvature="0"
         style="fill:#000000" />
      <path
         d="m 5.6370964,18.074362 c 0.0044,-0.01028 0.0088,-0.02056 0.013206,-0.03084 0.05851,-0.0066 0.1181135,-0.0081 0.175311,-0.02064 C 6.021594,17.979953 6.1415393,17.863234 6.166529,17.697192 6.1893862,17.54534 6.103918,17.392558 5.9303568,17.30318 5.709769,17.189605 5.4754559,17.148785 5.2309173,17.211396 c -0.1522625,0.03896 -0.2603418,0.127956 -0.2884484,0.290882 -0.028954,0.167792 0.036801,0.306876 0.1802051,0.379494 0.1623513,0.08219 0.3421736,0.129897 0.5144224,0.19259 m 1.0007123,-0.480629 c -9.857e-4,0.647847 -0.4390992,1.122734 -1.0356542,1.12257 -0.6644429,-1.64e-4 -1.1358305,-0.441667 -1.140041,-1.067805 -0.00448,-0.669365 0.4267942,-1.140452 1.0429255,-1.139224 0.6737389,0.0013 1.1337252,0.441725 1.1327697,1.084459"
         id="Fill-25"
         inkscape:connector-curvature="0"
         style="fill:#000000" />
      <path
         d="m 7.4764511,14.587081 c -0.073821,0.213288 -0.1416268,0.409296 -0.2138346,0.617963 -0.3492276,-0.120519 -0.6872727,-0.237676 -1.0258099,-0.353547 -0.060123,-0.02056 -0.1213398,-0.03915 -0.1833767,-0.05263 -0.2135611,-0.0464 -0.3519343,0.02619 -0.4099795,0.211866 -0.051429,0.164621 0.03609,0.352263 0.2120575,0.421272 0.2072453,0.08128 0.4197402,0.1492 0.6301298,0.222447 0.1796856,0.06253 0.3596173,0.124402 0.5549693,0.191934 -0.071579,0.208036 -0.1401231,0.407326 -0.2123582,0.61736 C 6.167907,16.238565 5.5204429,16.017758 4.8633821,15.79367 c 0.059658,-0.172686 0.1184962,-0.342939 0.1806425,-0.522761 0.089323,0.01777 0.1716473,0.03412 0.2765277,0.05496 -0.1571839,-0.257745 -0.1829939,-0.509747 -0.077567,-0.771538 0.1265619,-0.314259 0.4185646,-0.50663 0.7500205,-0.434013 0.3578674,0.07839 0.7049351,0.206781 1.0556665,0.316692 0.1381545,0.04331 0.2734928,0.09564 0.4277785,0.150075"
         id="Fill-27"
         inkscape:connector-curvature="0"
         style="fill:#000000" />
      <path
         d="m 6.4936268,21.854081 c 0.022966,0.220943 0.044019,0.42324 0.067068,0.645003 -0.6843199,0.07407 -1.3604101,0.147259 -2.0608066,0.223076 -0.019412,-0.172659 -0.039863,-0.354559 -0.061709,-0.548818 0.090444,-0.02283 0.1722214,-0.0435 0.2744224,-0.06931 -0.2183185,-0.144471 -0.348216,-0.329105 -0.3856459,-0.577143 -0.054682,-0.362515 0.1064661,-0.672673 0.4560765,-0.787997 0.2044293,-0.06745 0.4257553,-0.08856 0.6413397,-0.116173 0.3055093,-0.03913 0.612741,-0.06502 0.9303076,-0.09769 0.023623,0.218865 0.045878,0.4254 0.069939,0.648612 -0.2934518,0.03092 -0.5770608,0.06001 -0.8604785,0.09099 -0.1310458,0.01433 -0.2631032,0.0251 -0.3922077,0.05025 -0.2164594,0.04219 -0.3284758,0.177608 -0.3041149,0.35136 0.027095,0.193274 0.1884894,0.325223 0.4001914,0.307916 0.3264798,-0.02669 0.6519754,-0.06524 0.9779357,-0.09824 0.07661,-0.0078 0.1534108,-0.01359 0.2476829,-0.02184"
         id="Fill-29"
         inkscape:connector-curvature="0"
         style="fill:#000000" />
      <path
         d="m 13.213058,7.8958442 c -0.0403,-0.1785373 -0.07508,-0.3326863 -0.110895,-0.491456 0.152016,-0.029282 0.29851,-0.041476 0.433274,-0.087819 0.139521,-0.048011 0.274696,-0.1183322 0.39866,-0.1990157 0.106439,-0.069282 0.150813,-0.1838961 0.103677,-0.3120984 -0.045,-0.1223514 -0.146766,-0.1703623 -0.269829,-0.1706084 -0.09977,-1.914e-4 -0.199507,0.014163 -0.299357,0.015475 -0.172276,0.00221 -0.348544,0.022556 -0.5162,-0.00582 -0.501025,-0.08473 -0.743923,-0.5862201 -0.517648,-1.0406288 0.184525,-0.370581 0.795078,-0.7142037 1.227751,-0.6831169 0.03016,0.1512235 0.06094,0.3057279 0.0928,0.4655639 -0.130909,0.029474 -0.259002,0.042406 -0.373834,0.088448 -0.124183,0.049815 -0.250034,0.1150786 -0.347642,0.2038824 -0.05441,0.049487 -0.08894,0.1726589 -0.06622,0.2404101 0.02242,0.066712 0.124949,0.1419276 0.198469,0.1489269 0.165495,0.015776 0.334737,-0.010253 0.502584,-0.015475 0.09963,-0.00309 0.200355,-0.00727 0.299111,0.00314 0.578975,0.061025 0.87918,0.6863704 0.556199,1.1722214 -0.250061,0.3761859 -0.63598,0.5432673 -1.060587,0.6360082 -0.07831,0.017088 -0.159535,0.020752 -0.250308,0.031962"
         id="Fill-31"
         inkscape:connector-curvature="0"
         style="fill:#000000" />
      <path
         d="m 9.3754532,30.189517 c 0.1523718,0.09389 0.2756801,0.183705 0.4109911,0.24864 0.096787,0.04642 0.2082297,0.01545 0.2662747,-0.07519 0.04107,-0.06417 0.07142,-0.164046 0.05203,-0.23259 -0.05507,-0.19486 -0.3294052,-0.275352 -0.4944633,-0.154997 -0.072372,0.05282 -0.1336158,0.120848 -0.2348325,0.214135 m -0.2589474,0.2908 c -0.1187423,0.133534 -0.1244019,0.225263 -0.019658,0.370663 0.14365,0.199481 0.348216,0.315134 0.5866575,0.404457 -0.072208,0.126862 -0.1407792,0.247382 -0.2153383,0.3784 -0.4191935,-0.167983 -0.7592071,-0.414682 -0.9503486,-0.823704 -0.1396036,-0.298756 -0.050936,-0.57348 0.1565003,-0.808066 0.1474778,-0.166781 0.310622,-0.320465 0.4740397,-0.472153 0.1702802,-0.158059 0.3492823,-0.306767 0.5186603,-0.454491 0.095284,0.08932 0.2335201,0.218893 0.3748463,0.35136 -0.03481,0.05802 -0.064525,0.10756 -0.1014082,0.16905 0.064032,0.01154 0.1205462,0.01777 0.1749282,0.03215 0.299303,0.07924 0.512235,0.257827 0.597129,0.560137 0.130663,0.46529 -0.314067,0.914094 -0.7975391,0.787669 C 9.7232864,30.925676 9.5479754,30.803598 9.3737034,30.700003 9.2815639,30.645239 9.207661,30.55977 9.1165058,30.480317"
         id="Fill-33"
         inkscape:connector-curvature="0"
         style="fill:#000000" />
      <path
         d="m 35.48856,15.183029 c 0.04971,0.20432 0.09553,0.392673 0.144854,0.595407 -0.293808,0.07221 -0.575284,0.140315 -0.856104,0.211019 -0.105701,0.0266 -0.213206,0.05088 -0.314013,0.09102 -0.180068,0.07166 -0.250608,0.204703 -0.206671,0.363336 0.04454,0.160738 0.203773,0.259658 0.385947,0.224607 0.174053,-0.03347 0.345181,-0.08202 0.517621,-0.123856 0.202652,-0.04916 0.405332,-0.09818 0.623896,-0.151114 0.04894,0.1997 0.09591,0.391415 0.145373,0.593274 -0.634067,0.158141 -1.254764,0.312946 -1.887683,0.470786 -0.04109,-0.165522 -0.0823,-0.331483 -0.125058,-0.503704 0.08355,-0.03407 0.157648,-0.06431 0.247765,-0.10108 -0.219303,-0.100342 -0.360602,-0.250991 -0.429529,-0.466849 -0.117156,-0.36689 0.0066,-0.688695 0.366863,-0.830103 0.28596,-0.112235 0.5927,-0.17203 0.8911,-0.251811 0.161231,-0.04312 0.324266,-0.07937 0.495639,-0.12093"
         id="Fill-35"
         inkscape:connector-curvature="0"
         style="fill:#000000" />
      <path
         d="m 31.92166,27.549649 c 0.104497,-0.183022 0.200956,-0.351935 0.305153,-0.534464 0.256487,0.145701 0.504088,0.287054 0.752454,0.427013 0.09509,0.05362 0.189091,0.110568 0.288613,0.154587 0.183923,0.08131 0.330991,0.03765 0.412549,-0.112618 0.08328,-0.153438 0.03661,-0.342611 -0.124867,-0.4397 -0.265181,-0.159425 -0.536705,-0.30827 -0.805495,-0.461708 -0.06625,-0.03784 -0.132167,-0.07623 -0.209105,-0.120602 0.101791,-0.179275 0.197649,-0.348106 0.301873,-0.531702 0.566398,0.318633 1.126808,0.633903 1.698428,0.955489 -0.08566,0.149993 -0.170417,0.298428 -0.259385,0.454217 -0.07863,-0.03259 -0.148653,-0.0616 -0.23136,-0.09588 0.01742,0.08503 0.03754,0.157266 0.04645,0.230841 0.06138,0.508052 -0.38078,0.89717 -0.873247,0.766042 -0.09572,-0.02551 -0.190568,-0.06395 -0.277293,-0.111852 -0.33821,-0.186876 -0.673001,-0.379959 -1.024771,-0.579658"
         id="Fill-37"
         inkscape:connector-curvature="0"
         style="fill:#000000" />
      <path
         d="m 27.420074,7.9298182 c -0.04785,-0.022529 -0.08052,-0.037102 -0.112509,-0.053096 -0.142201,-0.071087 -0.284183,-0.1425837 -0.438933,-0.2203144 0.145563,-0.2939713 0.288311,-0.5818729 0.430594,-0.8699932 0.02619,-0.053042 0.05307,-0.1060014 0.07505,-0.1608476 C 27.460894,6.4092987 27.42032,6.2603718 27.255234,6.1803992 27.085228,6.0979932 26.901523,6.1680684 26.801783,6.3626275 26.672979,6.61381 26.55101,6.8684921 26.425952,7.1215612 26.385815,7.2027368 26.345159,7.2836391 26.298898,7.37638 26.114674,7.2846507 25.93775,7.1965578 25.750573,7.103352 26.03626,6.5198387 26.317545,5.9452659 26.605556,5.3569679 c 0.151633,0.07393 0.304279,0.14838 0.464114,0.2263021 -0.02324,0.078934 -0.04424,0.1503212 -0.05963,0.2025974 0.167163,-0.00468 0.337881,-0.041012 0.493889,-0.00793 0.470376,0.099795 0.666493,0.5252768 0.480738,0.9989337 -0.0199,0.050745 -0.04418,0.099932 -0.06835,0.1488995 -0.162925,0.3303623 -0.32637,0.6605058 -0.49624,1.0040465"
         id="Fill-39"
         inkscape:connector-curvature="0"
         style="fill:#000000" />
      <path
         d="m 34.112711,14.421312 c -0.06546,-0.105153 -0.117567,-0.204566 -0.184662,-0.292549 -0.07284,-0.09553 -0.177771,-0.160738 -0.29553,-0.103431 -0.06764,0.03292 -0.143431,0.110211 -0.157238,0.17922 -0.02483,0.123855 0.05189,0.223185 0.161203,0.289187 0.170991,0.103212 0.308954,7.65e-4 0.476227,-0.07243 m 0.341435,-0.166097 c 0.15136,-0.06994 0.207874,-0.17151 0.138647,-0.334217 -0.0663,-0.155844 -0.173097,-0.294764 -0.265673,-0.438797 -0.02119,-0.03297 -0.05712,-0.05649 -0.09837,-0.09591 0.106412,-0.08489 0.207738,-0.165714 0.320329,-0.255557 0.318523,0.308271 0.545044,0.656405 0.542818,1.108791 -0.0014,0.277375 -0.171472,0.46436 -0.407808,0.585563 -0.161395,0.08276 -0.332768,0.146029 -0.499631,0.218182 -0.22879,0.09892 -0.457526,0.197977 -0.693889,0.300287 -0.0654,-0.158195 -0.132714,-0.321093 -0.201504,-0.487491 0.05077,-0.03997 0.09589,-0.07543 0.150102,-0.118086 -0.230895,-0.09947 -0.374654,-0.266795 -0.447737,-0.495639 -0.08137,-0.254764 -0.01137,-0.507369 0.184443,-0.666849 0.195817,-0.159453 0.483609,-0.186357 0.70529,-0.06253 0.215339,0.1203 0.349447,0.314121 0.463213,0.524648 0.03866,0.07155 0.07341,0.145236 0.109774,0.217607"
         id="Fill-41"
         inkscape:connector-curvature="0"
         style="fill:#000000" />
      <path
         d="m 35.382122,18.852782 c 0.227177,0.0028 0.365112,-0.132932 0.355844,-0.340123 -0.0094,-0.21028 -0.187997,-0.356692 -0.414409,-0.331374 0.01955,0.224033 0.0391,0.448257 0.05857,0.671497 m -0.366179,0.600547 c -0.01914,-0.214546 -0.03716,-0.418237 -0.0555,-0.621873 -0.01835,-0.203773 -0.03702,-0.407546 -0.05556,-0.61121 -0.153329,0.01091 -0.275434,0.104361 -0.288913,0.28391 -0.01504,0.199972 0.01542,0.404074 0.03481,0.605523 0.0064,0.06597 0.04,0.129323 0.06472,0.204648 -0.133342,0.03871 -0.262529,0.07623 -0.406015,0.117894 -0.172412,-0.431223 -0.277894,-0.858373 -0.09583,-1.302665 0.129487,-0.315899 0.394805,-0.460998 0.71836,-0.519207 0.722652,-0.130062 1.296213,0.399152 1.210416,1.118469 -0.03081,0.258373 -0.164538,0.450471 -0.387067,0.577935 -0.223295,0.127929 -0.46674,0.169488 -0.739412,0.146576"
         id="Fill-43"
         inkscape:connector-curvature="0"
         style="fill:#000000" />
      <path
         d="m 29.363584,7.8123527 c 0.139276,-0.2134791 0.116145,-0.3917703 -0.05769,-0.5115243 -0.161777,-0.1114969 -0.364457,-0.068982 -0.507013,0.114149 0.185208,0.1303076 0.370007,0.2603692 0.564702,0.3973753 m 0.228763,0.6744498 C 29.231773,8.2335147 28.89422,7.9964128 28.547891,7.7531319 c -0.07598,0.1483801 -0.05452,0.2751607 0.02638,0.3955161 0.135365,0.2014217 0.341025,0.3087355 0.553793,0.4051948 0.04503,0.020424 0.09168,0.037293 0.149419,0.060588 C 29.220563,8.7422777 29.166178,8.8644103 29.105918,8.999694 28.666004,8.8566999 28.281315,8.6581764 28.052716,8.2443691 27.947262,8.0534737 27.934411,7.846365 27.990187,7.6351825 c 0.122105,-0.4624197 0.55825,-0.827095 1.00041,-0.8357075 0.732987,-0.014272 1.175011,0.6886945 0.835927,1.3355024 -0.06253,0.1193165 -0.149447,0.2258647 -0.234177,0.3518251"
         id="Fill-45"
         inkscape:connector-curvature="0"
         style="fill:#000000" />
      <path
         d="m 35.174526,22.508932 c 0.255448,0.02231 0.394614,-0.06764 0.431989,-0.261462 0.0377,-0.195352 -0.08282,-0.361203 -0.323499,-0.428763 -0.0359,0.22838 -0.07153,0.45501 -0.10849,0.690225 m -0.49799,0.489597 c 0.06381,-0.419357 0.125687,-0.826083 0.188927,-1.24175 -0.174272,-0.01591 -0.27054,0.07213 -0.341928,0.194477 -0.114668,0.19661 -0.122324,0.415503 -0.11918,0.635052 9.03e-4,0.0622 0.0094,0.124319 0.01539,0.199043 h -0.406151 c -0.148818,-0.378237 -0.0029,-1.085031 0.283417,-1.36648 0.268025,-0.263404 0.732277,-0.318524 1.137581,-0.134983 0.525495,0.237949 0.73408,0.803828 0.489132,1.327027 -0.158743,0.339056 -0.540397,0.512973 -0.983623,0.445276 -0.08402,-0.01285 -0.166453,-0.03612 -0.263568,-0.05766"
         id="Fill-47"
         inkscape:connector-curvature="0"
         style="fill:#000000" />
      <path
         d="m 34.266422,25.618537 c 0.233329,0.08328 0.399672,0.02185 0.476227,-0.165878 0.07738,-0.18972 -0.01228,-0.384306 -0.229364,-0.475872 -0.08235,0.214108 -0.164539,0.427779 -0.246863,0.64175 m -0.798332,0.110431 c -0.124347,-0.02154 -0.236801,-0.03527 -0.345427,-0.06376 -0.02849,-0.0075 -0.06614,-0.06228 -0.06379,-0.09255 0.02906,-0.369132 0.12082,-0.719754 0.36175,-1.011429 0.29594,-0.358277 0.761941,-0.417225 1.226986,-0.165823 0.469446,0.253725 0.651565,0.733916 0.466274,1.229282 -0.152344,0.407191 -0.497306,0.617034 -0.925686,0.543513 -0.17173,-0.02947 -0.337007,-0.09651 -0.523965,-0.152016 0.158196,-0.413343 0.3054,-0.79795 0.45244,-1.182201 -0.125167,-0.06215 -0.251565,-0.02953 -0.36946,0.101982 -0.16503,0.184088 -0.219931,0.414354 -0.260588,0.649296 -0.0069,0.03994 -0.0105,0.08049 -0.01854,0.143705"
         id="Fill-49"
         inkscape:connector-curvature="0"
         style="fill:#000000" />
      <path
         d="m 31.870647,29.572995 c -0.159481,0.181818 -0.310869,0.354395 -0.462447,0.527218 0.188243,0.155762 0.35311,0.160711 0.491592,0.02212 0.148736,-0.148872 0.14283,-0.336924 -0.02914,-0.549337 m -1.145892,0.669747 c 0.275242,-0.314395 0.547477,-0.625318 0.827149,-0.944771 -0.138482,-0.103704 -0.270184,-0.08372 -0.400328,-0.01449 -0.201011,0.106931 -0.325386,0.287246 -0.439836,0.475243 -0.03051,0.05014 -0.05591,0.103431 -0.09063,0.168312 -0.120137,-0.06909 -0.236391,-0.13594 -0.365742,-0.210362 0.184826,-0.416542 0.42056,-0.778784 0.8508,-0.959672 0.4403,-0.185099 0.981572,0.06185 1.232836,0.54406 0.248749,0.477375 0.07784,1.047847 -0.393164,1.310157 -0.179795,0.100123 -0.371074,0.120383 -0.56875,0.07016 -0.266083,-0.06759 -0.473492,-0.224033 -0.65233,-0.438633"
         id="Fill-51"
         inkscape:connector-curvature="0"
         style="fill:#000000" />
      <path
         d="m 21.705692,4.9304716 c 0.04831,-0.182447 -0.05468,-0.3578674 -0.229938,-0.3971565 -0.221436,-0.049651 -0.406535,0.092003 -0.448558,0.3537389 0.227095,0.014545 0.453151,0.029009 0.678496,0.043418 m 0.547177,0.452905 C 21.830149,5.35784 21.418693,5.33296 20.996574,5.307451 c 0.01096,0.1935749 0.122324,0.3064936 0.27743,0.3384553 0.192454,0.039699 0.394149,0.037266 0.592181,0.045714 0.06122,0.0026 0.123472,-0.018729 0.202159,-0.031962 0.01736,0.1407793 0.03369,0.2731648 0.0514,0.4166781 C 21.700906,6.183076 21.297187,6.2088586 20.908069,6.0278604 20.509545,5.8425152 20.339238,5.4135336 20.444064,4.911114 c 0.12637,-0.605605 0.706657,-0.9452359 1.289186,-0.736186 0.137909,0.049487 0.277758,0.1486808 0.36864,0.2631853 0.219276,0.2762269 0.214409,0.6031715 0.150977,0.9452631"
         id="Fill-53"
         inkscape:connector-curvature="0"
         style="fill:#000000" />
      <path
         d="m 4.2982912,20.014045 c -0.051784,-0.0045 -0.091483,-0.0097 -0.1312919,-0.01107 C 3.9159262,19.994475 3.9156801,19.994775 3.857635,19.746023 3.827861,19.618477 3.799043,19.490712 3.768202,19.356167 h 0.5546685 c 0.00643,-0.146466 0.012741,-0.289897 0.019276,-0.438223 h 0.4667122 v 0.481285 c 0.3016542,0 0.5957348,0.0073 0.8891866,-0.003 0.1503213,-0.0053 0.2149009,-0.08962 0.2234313,-0.241996 0.00323,-0.05785 5.195e-4,-0.116035 5.195e-4,-0.176732 0.1442515,0 0.2800547,-0.0049 0.4149829,0.0039 0.02961,0.0019 0.077621,0.05033 0.080328,0.08066 0.012932,0.144361 0.031579,0.292112 0.014327,0.434586 -0.047136,0.389474 -0.3067669,0.567765 -0.7688038,0.557868 -0.2861517,-0.0062 -0.5725222,-0.0011 -0.8771292,-0.0011 -0.00388,0.061 -0.00916,0.144579 -0.014737,0.232617 H 4.2982912 Z"
         id="Fill-55"
         inkscape:connector-curvature="0"
         style="fill:#000000" />
      <path
         d="m 25.191494,3.9416268 c -0.252686,0.9114696 -0.50242,1.8121941 -0.755051,2.723445 -0.201094,-0.055776 -0.38797,-0.1075872 -0.592263,-0.1642379 0.251238,-0.9064388 0.499795,-1.8032536 0.753903,-2.720082 0.19754,0.053561 0.387423,0.1050444 0.593411,0.1608749"
         id="Fill-57"
         inkscape:connector-curvature="0"
         style="fill:#000000" />
      <path
         d="m 34.549632,12.691013 c -0.204511,0.115762 -0.361886,0.204867 -0.526835,0.298237 -0.01955,-0.0385 -0.03549,-0.06939 -0.05107,-0.100506 -0.140287,-0.280082 -0.357129,-0.348162 -0.630157,-0.195762 -0.250171,0.139658 -0.499249,0.281257 -0.748927,0.421818 -0.02729,0.01536 -0.05537,0.02939 -0.09826,0.05206 -0.09941,-0.17542 -0.196938,-0.34756 -0.300834,-0.530882 0.566015,-0.322105 1.12555,-0.640519 1.693124,-0.963499 0.08216,0.145372 0.164566,0.291155 0.252166,0.446124 -0.08787,0.06097 -0.171483,0.118988 -0.248202,0.172194 0.126917,0.03579 0.262967,0.04823 0.368859,0.111278 0.105646,0.06291 0.181107,0.176569 0.290143,0.288941"
         id="Fill-59"
         inkscape:connector-curvature="0"
         style="fill:#000000" />
      <path
         d="m 31.005132,8.1952208 c -0.0727,0.093096 -0.133999,0.1715926 -0.215284,0.2757074 0.30108,-0.1078332 0.549119,-0.086234 0.755243,0.1683391 -0.125304,0.1380177 -0.248804,0.2740669 -0.399563,0.4401367 -0.02698,-0.042871 -0.04287,-0.082351 -0.07059,-0.1099112 -0.21337,-0.2121394 -0.435626,-0.2089952 -0.63918,0.010636 -0.188681,0.203609 -0.373643,0.4106904 -0.56041,0.6160492 -0.03051,0.03352 -0.06187,0.06622 -0.103842,0.1110321 -0.149587,-0.1357487 -0.296436,-0.2690091 -0.452635,-0.410718 0.432864,-0.4803007 0.86138,-0.9557894 1.303787,-1.4466712 0.122597,0.1107314 0.248503,0.2244156 0.382474,0.3453999"
         id="Fill-61"
         inkscape:connector-curvature="0"
         style="fill:#000000" />
      <path
         d="m 22.461151,6.2181435 c 0.11743,-0.643609 0.231634,-1.2694736 0.349282,-1.914313 0.162734,0.029911 0.325824,0.05985 0.502283,0.092249 -0.01,0.1056459 -0.01941,0.2062611 -0.03262,0.3463294 0.203527,-0.2570334 0.426248,-0.356473 0.727547,-0.2527136 -0.03486,0.1888996 -0.06827,0.3698428 -0.102776,0.5567465 -0.04659,-0.011319 -0.08123,-0.019549 -0.115789,-0.028134 -0.290554,-0.072399 -0.48257,0.04298 -0.542967,0.3379904 -0.0648,0.3163636 -0.119863,0.6346958 -0.183048,0.972741 -0.198168,-0.0365 -0.39147,-0.072126 -0.601914,-0.1108955"
         id="Fill-63"
         inkscape:connector-curvature="0"
         style="fill:#000000" />
      <path
         d="m 36.152262,19.847754 v 0.509419 c -0.111442,0.0056 -0.209952,0.0105 -0.345481,0.01728 0.271879,0.163664 0.41933,0.365441 0.354176,0.669939 h -0.564074 c 0.0043,-0.04577 0.007,-0.07688 0.01017,-0.107943 0.0315,-0.309938 -0.115024,-0.484784 -0.428544,-0.500943 -0.281832,-0.01454 -0.564047,-0.02122 -0.84607,-0.03193 -0.04,-0.0015 -0.07989,-0.0062 -0.115625,-0.0091 V 19.78786 c 0.654135,0.02023 1.292905,0.04 1.935447,0.05988"
         id="Fill-65"
         inkscape:connector-curvature="0"
         style="fill:#000000" />
      <path
         d="M 4.791136,23.991182 C 4.739735,23.766493 4.693528,23.564443 4.6450253,23.352413 c 0.6752426,-0.156555 1.3380451,-0.310239 2.0203691,-0.468462 0.04987,0.213041 0.097908,0.418127 0.1493917,0.638059 -0.6777581,0.157129 -1.3440329,0.311606 -2.0236501,0.469172"
         id="Fill-67"
         inkscape:connector-curvature="0"
         style="fill:#000000" />
      <path
         d="m 25.396525,6.9940424 c -0.20257,-0.072946 -0.385482,-0.1388107 -0.579139,-0.2085304 0.217991,-0.6096241 0.43311,-1.2112372 0.655065,-1.8319891 0.191935,0.06797 0.377662,0.1337799 0.579604,0.2053042 -0.218811,0.6126315 -0.434724,1.2170881 -0.65553,1.8352153"
         id="Fill-69"
         inkscape:connector-curvature="0"
         style="fill:#000000" />
      <path
         d="m 35.70099,23.632172 c -0.05334,0.200602 -0.103103,0.387861 -0.157922,0.594067 -0.627998,-0.167464 -1.247738,-0.332768 -1.880821,-0.501627 0.05326,-0.201968 0.102612,-0.389063 0.156638,-0.593875 0.629692,0.167765 1.250034,0.333041 1.882105,0.501435"
         id="Fill-71"
         inkscape:connector-curvature="0"
         style="fill:#000000" />
      <path
         d="m 30.331565,30.329001 c -0.0027,0.187559 -0.174326,0.35773 -0.361148,0.358169 -0.199863,4.64e-4 -0.385209,-0.188409 -0.380943,-0.388135 0.004,-0.187451 0.175174,-0.358059 0.361175,-0.360028 0.196719,-0.0021 0.383842,0.189501 0.380916,0.389994"
         id="Fill-73"
         inkscape:connector-curvature="0"
         style="fill:#000000" />
      <path
         d="m 27.267628,32.517621 c -0.0033,0.1927 -0.179986,0.353138 -0.381982,0.346849 -0.194368,-0.006 -0.358305,-0.190075 -0.352946,-0.396172 0.0048,-0.187724 0.174545,-0.348571 0.368093,-0.3489 0.198141,-3.55e-4 0.370471,0.186713 0.366835,0.398223"
         id="Fill-75"
         inkscape:connector-curvature="0"
         style="fill:#000000" />
      <path
         d="m 4.4846589,23.815628 c 0.00241,0.190814 -0.1323855,0.327656 -0.3233356,0.328204 -0.1875051,5.18e-4 -0.3257963,-0.151444 -0.328339,-0.360822 -0.00227,-0.18704 0.1384279,-0.331155 0.3234176,-0.331319 0.183404,-1.64e-4 0.3256323,0.157539 0.328257,0.363937"
         id="Fill-77"
         inkscape:connector-curvature="0"
         style="fill:#000000" />
      <path
         d="m 26.268355,4.5493096 c 0.0021,0.1736159 -0.123062,0.3059741 -0.29285,0.3096104 -0.194614,0.00416 -0.359617,-0.1412167 -0.357539,-0.3149966 0.002,-0.1675188 0.137389,-0.3033219 0.303404,-0.304286 0.191606,-0.00114 0.344853,0.1356189 0.346985,0.3096722"
         id="Fill-79"
         inkscape:connector-curvature="0"
         style="fill:#000000" />
      <path
         d="m 36.133372,24.391368 c -0.175885,-0.002 -0.299002,-0.127464 -0.298457,-0.304169 6.31e-4,-0.198004 0.135505,-0.345181 0.313358,-0.341955 0.173808,0.0031 0.298456,0.131319 0.298155,0.30663 -3.28e-4,0.200137 -0.130745,0.341545 -0.313056,0.339494"
         id="Fill-81"
         inkscape:connector-curvature="0"
         style="fill:#000000" />
    </g>
  </g>
</svg>
