<?xml version="1.0" encoding="UTF-8"?>
<svg width="100px" height="70px" viewBox="0 0 100 70" version="1.1" xmlns="http://www.w3.org/2000/svg" xmlns:xlink="http://www.w3.org/1999/xlink">
    <!-- Generator: Sketch 46.2 (44496) - http://www.bohemiancoding.com/sketch -->
    <title>Page 1</title>
    <desc>Created with Sketch.</desc>
    <defs>
        <polygon id="path-1" points="1.8458253e-15 42.7836293 1.8458253e-15 0.0321748401 33.6463556 0.0321748401 33.6463556 42.7836293"></polygon>
        <polygon id="path-3" points="16.6842831 14.7121535 0.0379744136 14.7121535 0.0379744136 0.167739872 16.6842831 0.167739872"></polygon>
        <polygon id="path-5" points="37.3447761 0.169808102 37.3447761 10.2972895 0.0513006397 10.2972895 0.0513006397 0.169808102 37.3447761 0.169808102"></polygon>
    </defs>
    <g id="assets-sonstige" stroke="none" stroke-width="1" fill="none" fill-rule="evenodd">
        <g id="Page-1">
            <path d="M48.1358635,6.02104478 C48.001322,5.99375267 47.8667804,5.96646055 47.732452,5.93895522 C47.4171002,6.39076759 47.0591045,6.8191258 46.7949254,7.29908316 C46.1111301,8.54044776 45.4785075,9.81017058 44.8051599,11.0575053 C44.4855437,11.6491898 44.1770149,12.2634755 43.7529211,12.7764819 C43.4934328,13.0905544 42.9770149,13.4560128 42.662516,13.3892751 C42.3328785,13.319339 42.0243497,12.7954584 41.858678,12.4054797 C41.6834115,11.9943923 41.6478038,11.5091045 41.6207249,11.0523881 C41.4676333,8.4647548 41.3401279,5.87541578 41.1932196,3.2875693 C41.1175267,1.95110874 40.4173134,0.977974414 39.3623028,0.910170576 C38.1207249,0.83021322 37.716887,1.85409382 37.5053731,2.75985075 C37.0795736,4.58287846 36.69258,6.43511727 36.5335181,8.29652452 C36.0134755,14.3798934 35.5356503,20.468806 35.1678465,26.5632623 C34.7520682,33.4447122 34.5358635,40.3361834 35.2405544,47.2155011 C35.4949254,49.6986567 36.0252026,52.1236034 37.4452452,54.2479104 C38.9768017,56.5389552 41.2303198,57.4287207 43.9139019,56.7487633 C47.2145416,55.912516 49.730533,53.8617697 51.8895949,51.3430064 C56.7335181,45.691194 60.762516,39.4566525 64.6392751,33.1314925 C67.5471642,28.3877825 70.2544136,23.5210448 73.027548,18.6954584 C73.3399147,18.1521748 73.4985501,17.5204051 73.7284009,16.9295736 L73.4354371,16.6865032 C72.3028145,17.319339 71.1701919,17.9528145 70.0373561,18.5850107 C68.769339,19.2926866 67.5358635,20.0747761 66.2234968,20.6871429 C64.6384222,21.4263753 63.834371,20.9225373 63.7640085,19.2007889 C63.7252026,18.2498294 63.8207249,17.2871429 63.9243497,16.3372495 C64.0900213,14.8199787 64.313049,13.3091045 64.5119829,11.7954584 C64.4060128,11.7577186 64.3002559,11.7201919 64.1942857,11.682452 C63.7290405,12.2430064 63.255693,12.796951 62.7996162,13.364968 C61.7561194,14.664968 60.7704051,16.0165672 59.6527079,17.2487633 C59.3092111,17.6274414 58.5881023,17.8839446 58.0902345,17.8182729 C57.7934328,17.7790405 57.4160341,17.0163539 57.3823454,16.5564392 C57.2473774,14.7189126 57.2414072,12.8724307 57.1695522,11.0297868 C57.1446055,10.3879957 57.0669936,9.74812367 57.0134755,9.10782516 C56.1851173,10.2423667 55.6166738,11.4123028 55.0603838,12.588209 C53.8185928,15.2120896 52.6213646,17.8583582 51.3109168,20.4472708 C51.0672068,20.9287207 50.3785075,21.1845842 49.8949254,21.5449254 C49.5667804,21.0389552 49.229467,20.5385288 48.9179531,20.0225373 C48.8514286,19.9120896 48.873177,19.7451386 48.8650746,19.6035608 C48.7215778,17.0879957 48.5746695,14.5724307 48.4388486,12.0566525 C48.330533,10.0451386 48.23629,8.03298507 48.1358635,6.02104478 M34.6482303,49.682452 C34.471258,47.9112367 34.2944989,46.1395949 34.1175267,44.3685928 C34.0629424,43.7082516 33.9659275,43.0476972 33.9608102,42.3867164 C33.9309595,38.5577186 33.9230704,34.7285075 33.9077186,30.8992964 C34.5682729,22.5257356 35.1930064,14.149403 35.9247761,5.78223881 C36.0488699,4.3636887 36.5416205,2.95153518 37.0354371,1.59886994 C37.4057996,0.585223881 38.213049,-0.151876333 39.4183795,0.0268017058 C40.564435,0.19673774 41.5618763,0.776268657 41.8514286,1.95771855 C42.2119829,3.42808102 42.4510021,4.93938166 42.601322,6.44684435 C42.7665672,8.10441365 42.7678465,9.77840085 42.8522814,11.4447122 C42.8618763,11.6331983 42.9458849,11.8178465 43.0708316,12.2869296 C43.586823,11.3647548 43.9740299,10.671791 44.3623028,9.97882729 C45.1409808,8.58927505 45.841194,7.14727079 46.721791,5.82552239 C47.5949254,4.51486141 48.4778678,4.61400853 48.9141151,6.10462687 C49.3266951,7.51272921 49.5409808,9.00569296 49.6356503,10.4747761 C49.834371,13.5547335 49.895565,16.6434328 50.0198721,19.7285075 C50.0281876,19.9344776 50.0919403,20.1383156 50.1829851,20.6291471 C50.6661407,19.796951 51.0814925,19.1958849 51.3831983,18.54258 C52.6296802,15.84258 53.8247761,13.1186994 55.0772281,10.4216844 C55.4179531,9.68735608 55.830533,8.96688699 56.3243497,8.32829424 C56.8883156,7.59886994 57.6158209,7.71784648 57.7885288,8.61614072 C58.1202985,10.3432196 58.3008955,12.1014286 58.4904478,13.8523881 C58.5934328,14.8020682 58.5859701,15.7634755 58.6420469,17.033838 C59.2661407,16.3545203 59.7524947,15.8779744 60.1782942,15.3519616 C61.3158209,13.9464179 62.3706183,12.4690192 63.5699787,11.1195522 C64.3315991,10.2624094 64.9277612,10.4651812 65.3422601,11.5378891 C65.271258,12.3826652 65.2079318,13.2285075 65.1281876,14.0726439 C64.9723241,15.7263753 64.7699787,17.3771215 64.6778678,19.0340512 C64.6597441,19.3604904 65.0527079,19.7093177 65.2561194,20.0476972 C66.4812793,19.4349041 67.7173134,18.8423667 68.9290405,18.2035608 C70.2729638,17.495032 71.5567591,16.6587846 72.9384222,16.0381023 C74.0379957,15.5442857 74.4228571,15.8624094 74.6520682,17.095032 C74.2970576,17.9434328 74.0266951,18.8402345 73.573177,19.6323454 C71.0527079,24.0355437 68.5753092,28.466887 65.9183795,32.7871429 C61.8288273,39.4374627 57.6258422,46.0189126 52.5373561,51.9792537 C52.0245629,52.5796802 51.6320256,53.282452 51.1842644,53.9376759 C50.6320256,54.2967377 50.0795736,54.6560128 49.5269083,55.0148614 C49.0866098,55.293113 48.6465245,55.5711514 48.2060128,55.8489765 C47.8565458,56.0707249 47.5072921,56.2924733 47.1576119,56.5140085 L47.1648614,56.5091045 C46.7360768,56.7233902 46.3070789,56.9376759 45.8778678,57.1517484 L45.883838,57.147484 C44.3972708,57.3741365 42.9102772,57.6007889 41.42371,57.8276546 C40.9194456,57.7120896 40.4153945,57.5965245 39.9115565,57.4809595 C39.1998294,57.0877825 38.4883156,56.6946055 37.7765885,56.3014286 L37.7831983,56.3071855 C37.6913006,56.2233902 37.599403,56.1398081 37.5072921,56.0560128 C37.4631557,56.0159275 37.4271215,55.968806 37.399403,55.9155011 C37.3053731,55.7617697 37.2111301,55.6080384 37.116887,55.4545203 L37.1313859,55.4726439 L36.9220043,55.2140085 C36.2804264,53.8314925 35.6392751,52.449403 34.9979104,51.0671002 C34.8812793,50.605693 34.7646482,50.1440725 34.6482303,49.682452" id="Fill-1" fill="#EB5A3F"></path>
            <g id="Group-5" transform="translate(0.000000, 12.594670)">
                <mask id="mask-2" fill="white">
                    <use xlink:href="#path-1"></use>
                </mask>
                <g id="Clip-4"></g>
                <path d="M9.33656716,6.31575693 C9.23763326,6.3633049 9.13869936,6.41042644 9.03997868,6.45797441 C9.06215352,6.73366738 9.07324094,7.0110661 9.10863539,7.2850533 C9.30394456,8.79678038 9.55746269,10.3036034 9.6749467,11.8210874 C9.71396588,12.3236461 9.40820896,12.8528571 9.26002132,13.3697015 C8.74594883,13.1340938 8.14296375,12.9984861 7.73869936,12.6392111 C7.13550107,12.1029638 6.67004264,11.4106397 6.14978678,10.7816418 C5.17665245,9.60594883 4.27835821,8.3545629 3.19498934,7.29144989 C2.82547974,6.92897655 1.95831557,6.88078891 1.38965885,7.0078678 C1.15788913,7.05946695 0.90010661,8.02108742 1.0282516,8.45925373 C1.35341151,9.56991471 1.75660981,10.701258 2.36385928,11.6782303 C6.33144989,18.0603198 10.2585288,24.4718337 14.4154584,30.7300426 C16.4291045,33.7613859 18.8346482,36.5473134 21.2137527,39.3146908 C22.5114072,40.8242857 24.3235608,41.7528571 26.369403,41.7443284 C29.0821962,41.7330277 30.428678,39.8573348 31.353838,37.6146908 C32.4146055,35.043049 32.599467,32.3065885 32.6495736,29.5733262 C32.8128998,20.6835608 32.1685501,11.8357996 31.1485075,3.01127932 C31.0749467,2.37673774 30.8964819,1.75434968 30.7670576,1.12663113 C30.2389126,1.67801706 29.9491471,2.23515991 29.6954158,2.80872068 C29.1224947,4.10296375 28.6227079,5.4328145 27.9911514,6.69742004 C27.2135394,8.2545629 26.356823,8.30978678 25.3318763,6.87908316 C24.7359275,6.04710021 24.2657783,5.12449893 23.7450959,4.23899787 C23.3574627,3.57972281 22.9796375,2.91469083 22.597548,2.25221748 C22.508209,2.27289979 22.4188699,2.29379531 22.3295309,2.31426439 C22.2934968,2.78590618 22.2491471,3.25712154 22.2229211,3.72940299 C22.148081,5.07439232 22.1352878,6.42599147 21.9779318,7.76074627 C21.928678,8.17823028 21.574307,8.73260128 21.2154584,8.88526652 C20.9348614,9.00445629 20.3148188,8.70488273 20.0487207,8.40850746 C19.2212154,7.48739872 18.4909382,6.47908316 17.7220682,5.50488273 C17.351919,5.03537313 16.980064,4.56714286 16.6088486,4.09848614 C16.4719616,4.60339019 16.499467,4.99123667 16.5689765,5.37140725 C17.0593817,8.05307036 17.5977612,10.7272708 18.019936,13.4195949 C18.1003198,13.9317484 17.730597,14.5140512 17.5687633,15.0641578 C17.0504264,14.8490192 16.3802772,14.7707676 16.0401919,14.3946482 C14.7576759,12.9741791 13.5845416,11.4552026 12.3662047,9.97609808 C11.3591684,8.75371002 10.3465885,7.53579957 9.33656716,6.31575693 M18.3525586,37.7136247 C16.1768657,34.7326013 13.8659915,31.8398507 11.8557569,28.7513646 C8.43294243,23.4927292 5.16663113,18.1304691 1.91034115,12.7658635 C1.16684435,11.5413433 0.64978678,10.1581876 0.17793177,8.79592751 C-0.243816631,7.57865672 0.116311301,6.61277186 0.916311301,6.15477612 C1.80842217,5.64390192 3.16364606,5.82599147 3.91993603,6.69336887 C5.20202559,8.16415778 6.40735608,9.70189765 7.65149254,11.2059488 C7.96044776,11.5792964 8.29477612,11.9315352 8.87452026,12.2123454 C8.67110874,10.7326013 8.44936034,9.25498934 8.2717484,7.77204691 C8.17366738,6.95413646 7.73592751,5.88974414 8.64360341,5.43473348 C9.56279318,4.9741791 10.1843284,5.93857143 10.7067164,6.56287846 C12.2551173,8.41362473 13.7291045,10.3264179 15.2497868,12.2004051 C15.7766525,12.8492324 16.3561834,13.4549893 16.9114072,14.0805757 C17.0214286,14.0387846 17.1314499,13.9969936 17.241258,13.9552026 C17.0184435,12.5876119 16.816951,11.2159701 16.5676972,9.85328358 C16.2361407,8.04219616 15.8175906,6.24518124 15.5491471,4.42556503 C15.4798507,3.9566951 15.8318763,3.42556503 15.9905117,2.92343284 C16.4378465,3.13899787 17.0079957,3.24667377 17.3088486,3.59059701 C18.1474414,4.54944563 18.8636461,5.61490405 19.6510661,6.62023454 C20.0297441,7.10402985 20.4604478,7.54731343 20.867484,8.0089339 C20.9689765,7.97226013 21.0704691,7.93537313 21.1719616,7.89848614 C21.2346482,6.35797441 21.2301706,4.81063966 21.3881663,3.28036247 C21.465565,2.53238806 21.6702559,1.35115139 22.1235608,1.18057569 C23.1073561,0.810639659 23.4553305,1.97012793 23.8860341,2.64901919 C24.511194,3.63366738 25.0165245,4.69358209 25.6073561,5.70104478 C25.8711087,6.15115139 26.2190832,6.55157783 26.6789979,7.17972281 C27.0657783,6.46223881 27.3905117,5.93963753 27.6395522,5.38313433 C28.2320896,4.05882729 28.7263326,2.68654584 29.3900853,1.4001919 C29.6700426,0.857334755 30.2766525,0.483134328 30.734435,0.0321748401 C31.100533,0.556268657 31.4751599,1.07481876 31.8267591,1.60829424 C31.9207889,1.75115139 31.9444563,1.94027719 32.000533,2.10872068 C32.0137527,2.46309168 32.0133262,2.81788913 32.0423241,3.17034115 C32.5246269,8.98441365 33.20629,14.7901706 33.4384861,20.6142644 C33.651919,25.971194 34.0056503,31.3792964 32.6721748,36.6814286 C32.597548,36.9628785 32.5224947,37.2447548 32.4478678,37.5262047 L32.4510661,37.5193817 C31.8105544,38.7249254 31.1702559,39.9302559 30.5299574,41.1360128 C30.2414712,41.2615991 29.9167377,41.3387846 29.6700426,41.5213006 C28.2171642,42.5984861 26.6913646,43.201258 24.8819829,42.4473134 C24.4278252,42.2579744 23.9401919,42.1492324 23.4679104,42.0033902 L20.7156716,40.2999787 L20.7210021,40.3040299 C20.648081,40.231322 20.5753731,40.1588273 20.502452,40.0859062 L20.5077825,40.0910235 C20.4352878,40.0176759 20.3630064,39.9447548 20.2907249,39.8714072 L20.295629,39.8763113 C20.2233475,39.8033902 20.1510661,39.7302559 20.0785714,39.6571215 L20.0834755,39.6622388 C20.0114072,39.5884648 19.9395522,39.5149041 19.867484,39.4411301 L19.8730277,39.446887 C19.8018124,39.3728998 19.730597,39.2991258 19.6593817,39.2253518 L19.6627932,39.2289765 C19.3711087,38.8758849 19.0792111,38.52258 18.7873134,38.1692751 L18.797548,38.1805757 C18.7259062,38.1040299 18.6544776,38.027484 18.5828358,37.9507249 L18.5911514,37.959467 C18.5116205,37.8773774 18.4320896,37.7957143 18.3525586,37.7136247" id="Fill-3" fill="#EC573B" mask="url(#mask-2)"></path>
            </g>
            <path d="M90.345032,31.8660128 C88.6326652,32.4325373 86.9318124,33.0402132 85.199403,33.5372281 C84.7612367,33.6630277 84.2213646,33.4353092 83.7284009,33.3702772 C83.8580384,32.8898934 83.8546269,32.301194 84.141194,31.9485288 C85.3277612,30.4886141 86.6089979,29.1060981 87.8405544,27.6822175 C88.234371,27.2269936 88.7147548,26.7805117 88.9126226,26.2410661 C89.0983369,25.7346695 89.0874627,25.064307 88.9008955,24.5636674 C88.8371429,24.3928785 87.8866098,24.3425586 87.4991898,24.5427719 C86.4356503,25.0922388 85.3614499,25.6939446 84.4576119,26.4687846 C77.0068657,32.8562047 69.801322,39.5058849 63.2213646,46.8018337 C61.4640085,48.7502345 59.7405544,50.7459701 58.8475906,53.2920256 C57.6795736,56.6227292 58.8755224,58.8363753 62.2652878,59.729339 C64.7486567,60.38371 67.2019616,60.0785928 69.6507889,59.6212367 C77.4640085,58.1615352 85.086823,55.9747548 92.6286141,53.4979957 C94.4959915,52.8847761 96.3136887,52.1208102 98.4337313,51.320597 C97.9151812,51.1163326 97.7322388,51.0142004 97.53629,50.9719829 C95.9092111,50.6237953 94.2614499,50.3542857 92.655693,49.9265672 C91.055693,49.5003412 90.8156077,48.5977825 91.9789339,47.4056716 C92.8428998,46.5203838 93.8452452,45.770064 94.7872495,44.961322 C95.1959915,44.6101493 95.6083582,44.2630277 96.018806,43.9142004 C95.4458849,43.7344563 94.9976972,43.7696375 94.5554797,43.8408529 C93.4017484,44.0263539 92.2561194,44.2918124 91.0957783,44.3907463 C90.632452,44.4304051 89.9117697,44.2485288 89.7239232,43.9257143 C89.5416205,43.6122814 89.7785075,42.915693 90.034371,42.5182516 C90.4527079,41.8687846 91.0273348,41.3178252 91.5516418,40.7393603 C92.2247761,39.9967164 92.9132623,39.2677186 93.5949254,38.5327505 C92.7053731,38.706951 91.9401279,39.0549254 91.1629424,39.3724094 C88.9356503,40.2820043 86.714968,41.209936 84.4618763,42.0513006 C84.0823454,42.1930917 83.5552665,41.94 83.0964179,41.8694243 C83.1821322,41.4116418 83.1388486,40.8653731 83.3793603,40.5129211 C83.9972708,39.6073774 84.7239232,38.7728358 85.4384222,37.9370149 C87.1200853,35.9696375 88.8200853,34.0182516 90.5124094,32.0602559 C90.5424733,31.9888273 90.5723241,31.9176119 90.6023881,31.8463966 C90.5166738,31.8527932 90.4307463,31.859403 90.345032,31.8660128 M86.2373561,32.2888273 C87.5315991,31.8463966 88.8102772,31.3481023 90.1247761,30.9779531 C91.3109168,30.6442644 91.6821322,30.9404264 91.6904478,32.0022601 C89.1313859,35.0193177 86.5723241,38.036162 84.0134755,41.0534328 C84.0721109,41.1272068 84.1309595,41.2009808 84.1900213,41.274968 L85.5311727,40.7813646 C85.6810661,40.6977825 85.8311727,40.6139872 85.9810661,40.5306183 L85.9757356,40.5387207 C87.6341578,39.8527932 89.2915139,39.1640938 90.9516418,38.4820043 C91.8669936,38.1063113 92.7680597,37.6809382 93.7102772,37.3911727 C94.4533475,37.1628145 95.0117697,37.361322 94.7433262,38.341919 C93.3563326,40.0295522 91.9695522,41.7184648 90.5228571,43.4800853 L91.8036674,43.4800853 C93.3269083,43.2058849 94.8446055,42.8918124 96.3759488,42.6745416 C97.1113433,42.5702772 97.6512154,42.8570576 97.4209382,43.7724094 C95.6527079,45.3845629 93.8842644,46.9973561 91.946951,48.7638806 C92.4802132,48.9188913 92.7695522,49.0028998 93.0591045,49.0869083 C94.6733902,49.4338166 96.2930064,49.7564179 97.8989765,50.1385075 C98.6226439,50.3107889 99.3927932,50.5325373 99.2337313,51.5704904 C99.1842644,51.581791 99.1488699,51.6105757 99.1277612,51.6564179 C98.9934328,51.7890405 98.8591045,51.9218763 98.7245629,52.0542857 C98.0239232,52.4018337 97.3230704,52.7493817 96.6222175,53.0971429 L96.6288273,53.0930917 C96.0573987,53.3078038 95.4857569,53.5227292 94.9145416,53.7376546 L94.9247761,53.731258 C94.7083582,53.8052452 94.4919403,53.8794456 94.2757356,53.9538593 L94.2872495,53.9470362 C94.0706183,54.0210235 93.8539872,54.0952239 93.6371429,54.1694243 L93.6490832,54.1628145 C93.4322388,54.2363753 93.2151812,54.3101493 92.9981237,54.3834968 L93.010064,54.3775267 C92.7927932,54.450661 92.5757356,54.5237953 92.3584648,54.5969296 L92.3706183,54.5909595 C92.1531343,54.6638806 91.9360768,54.7370149 91.7185928,54.8097228 L91.7307463,54.8037527 C91.5128358,54.8762473 91.2949254,54.9485288 91.0772281,55.0210235 L91.0898081,55.0139872 L90.4352239,55.2308316 L90.4480171,55.2235821 C90.2252026,55.2935181 90.0023881,55.3632409 89.7795736,55.4329638 C87.8708316,55.9758209 85.9710448,56.5519403 84.0520682,57.0542857 C80.4333049,58.0016205 76.8234968,58.9975693 73.1723241,59.8022601 C69.8407676,60.5365885 66.4968443,61.4199574 63.016887,60.78371 C62.3281876,60.6576972 61.6207249,60.6333902 60.9220043,60.5623881 C60.5126226,60.3783795 60.1032409,60.1939446 59.6938593,60.009936 C57.9631557,58.3299787 56.978081,56.3521535 57.7584648,53.9374414 C58.2307463,52.4760341 59.0247761,51.118678 59.6742431,49.7146269 C59.8740299,49.4333902 60.0736034,49.1519403 60.2733902,48.8709168 C67.1917271,40.6301919 75.114968,33.4092964 83.2092111,26.3707036 C84.4495096,25.2922388 85.8915139,24.3888273 87.3642217,23.6521535 C88.7947122,22.9363753 89.6689126,23.4736887 90.06742,24.957484 C90.199403,26.4660128 89.2371429,27.4412793 88.3527079,28.4478891 C87.1426866,29.8250746 85.9190192,31.1901066 84.7011087,32.5602559 L84.8691258,32.7626013 C85.3252026,32.6048188 85.7814925,32.4470362 86.2373561,32.2888273" id="Fill-6" fill="#ED563A"></path>
            <path d="M51.1840299,53.9377825 C51.6322175,53.2825586 52.0245416,52.5797868 52.5373348,51.9791471 C57.6258209,46.018806 61.828806,39.4373561 65.9185714,32.7872495 C68.5752878,28.4667804 71.0528998,24.0356503 73.5731557,19.6322388 C74.0266738,18.8403412 74.2970362,17.9435394 74.6520469,17.0949254 C75.3740085,17.6559062 75.0518337,18.3446055 74.7795522,18.9286141 C74.1358422,20.3087846 73.4528998,21.6759488 72.6995949,22.999403 C67.2554584,32.5652878 61.486162,41.9228571 54.7955437,50.6823454 C53.8083369,51.9748827 52.7654797,53.2247761 51.7486354,54.4936461 C51.5720896,54.4510021 51.3953305,54.4094243 51.2185714,54.3680597 C51.2068443,54.2245629 51.1955437,54.0812793 51.1840299,53.9377825" id="Fill-8" fill="#986F6F"></path>
            <path d="M51.2185928,54.3677612 C51.3953518,54.409339 51.5721109,54.4511301 51.7486567,54.493774 C51.78,54.5852452 51.8111301,54.6754371 51.8428998,54.7666951 C51.8478038,55.4752239 51.8552665,56.1835394 51.8573987,56.8916418 C51.8652878,59.7860981 50.9648614,62.3788486 49.2345842,64.6854584 C47.0812793,67.5560341 43.4222175,68.8809808 40.114968,67.9916418 C38.358678,67.5195736 36.9667804,66.4400426 35.6456716,65.2515565 L35.6548401,65.2620043 C35.5810661,65.1863113 35.5075053,65.1110448 35.4339446,65.0353518 L35.445032,65.0475053 C35.3542004,64.9596588 35.2633689,64.8718124 35.1725373,64.7839659 C33.5635821,62.2575267 32.5686994,59.5620043 32.6443923,56.5016631 C32.7055864,54.0313006 33.3196588,51.7615778 34.6480171,49.6824733 C34.7646482,50.1438806 34.8812793,50.6055011 34.9979104,51.0673348 C32.2433262,55.3961194 33.4910874,62.5178678 37.5637953,65.6517697 C39.1985501,66.9099787 41.0365032,67.6445203 43.1126226,67.2856716 C48.2510021,66.3973987 52.0414072,60.4221322 50.808145,55.2562473 L50.8650746,54.8227719 C50.9829851,54.6711727 51.1006823,54.5195736 51.2185928,54.3677612" id="Fill-10" fill="#F7E64C"></path>
            <g id="Group-14" transform="translate(35.607676, 54.598934)">
                <mask id="mask-4" fill="white">
                    <use xlink:href="#path-3"></use>
                </mask>
                <g id="Clip-13"></g>
                <path d="M0.0379744136,10.6526013 C1.35908316,11.8410874 2.75119403,12.9206183 4.50727079,13.3928998 C7.81452026,14.2820256 11.4735821,12.9570789 13.626887,10.0865032 C15.3571642,7.77989339 16.2575906,5.18714286 16.2497015,2.29268657 C16.2475693,1.58458422 16.2401066,0.876268657 16.2352026,0.167739872 C17.8477825,5.29375267 15.0840299,13.3054797 8.48317697,14.6001493 C5.68637527,15.1485501 1.82859275,13.6291471 0.210469083,11.2451386 C0.100447761,11.0833049 0.0929850746,10.8519616 0.0379744136,10.6526013" id="Fill-12" fill="#B1B0AE" mask="url(#mask-4)"></path>
            </g>
            <path d="M31.1551386,53.9465245 C31.4391471,54.6524947 31.7231557,55.3582516 32.0071642,56.0646482 C32.0127079,56.7386354 32.0459701,57.4132623 32.0193177,58.0855437 C31.8969296,61.1866098 29.3664392,63.729467 26.5346695,63.5260554 C25.7832836,63.4721109 25.0515139,63.1426866 24.3105757,62.9397015 C21.8231557,60.5983369 21.0973561,57.8435394 22.3587633,54.6226439 C22.6105757,54.7872495 22.8626013,54.951855 23.1146269,55.1162473 C22.7078038,56.3791471 22.5261407,57.6397015 22.8515139,58.9706183 C23.3368017,60.9573987 24.9359488,62.5333049 26.7372281,62.6797868 C28.2304051,62.8011087 29.9318977,61.6109168 30.6436247,59.8915139 C31.3559915,58.1706183 31.3321109,56.4527079 30.4911727,54.7684861 C30.533177,54.3497228 30.4310448,53.8143284 31.1551386,53.9465245" id="Fill-15" fill="#F7E64D"></path>
            <path d="M60.9219616,60.5623667 C61.6206823,60.6333689 62.328145,60.6576759 63.0168443,60.7836887 C66.4968017,61.419936 69.8407249,60.5365672 73.1722814,59.802452 C76.8234542,58.997548 80.4332623,58.0015991 84.0520256,57.0542644 C85.9710021,56.551919 87.8710021,55.9757996 89.7797441,55.4331557 C90.0025586,55.3634328 90.2253731,55.2934968 90.4481876,55.2235608 L90.4351812,55.2308102 L91.0897655,55.0141791 L91.0771855,55.0210021 C91.2950959,54.9485075 91.5130064,54.876226 91.7307036,54.8037313 L91.7187633,54.8099147 C91.9360341,54.7369936 92.1533049,54.6638593 92.3705757,54.5909382 L92.3584222,54.5969083 C92.575693,54.523774 92.7929638,54.4506397 93.0100213,54.3775053 C93.0100213,54.3775053 92.998081,54.3834755 92.9982942,54.3834755 C93.2153518,54.3101279 93.4321962,54.2363539 93.6490405,54.1627932 L93.6373134,54.169403 C93.8539446,54.0952026 94.0707889,54.0210021 94.2872068,53.9470149 L94.275693,53.953838 C94.4918977,53.8794243 94.7083156,53.8054371 94.9247335,53.7312367 L94.9144989,53.7376333 C95.4857143,53.5227079 96.0573561,53.3079957 96.6287846,53.0930704 L96.6223881,53.0971215 C97.3230277,52.7493603 98.0238806,52.4020256 98.7245203,52.0542644 C98.8590618,51.921855 98.9933902,51.7892324 99.128145,51.6559701 C99.4810235,52.2418977 99.3095949,52.6589552 98.703838,52.9139659 C97.9211087,53.243177 97.1464819,53.5986141 96.3439232,53.8717484 C88.6400853,56.49371 80.8439232,58.8020256 72.8748401,60.4672708 C69.7748401,61.115032 66.6481876,61.834435 63.4277186,61.2280384 C63.1458422,61.1749467 62.8266525,61.3190832 62.5247335,61.3717484 C62.3102345,61.3747335 62.0955224,61.3775053 61.8810235,61.3807036 C61.5701493,61.1715352 61.2592751,60.96258 60.9486141,60.7534115 C60.9688699,60.6856077 60.9599147,60.621855 60.9219616,60.5623667" id="Fill-17" fill="#885A5B"></path>
            <g id="Group-21" transform="translate(62.473348, 51.400640)">
                <mask id="mask-6" fill="white">
                    <use xlink:href="#path-5"></use>
                </mask>
                <g id="Clip-20"></g>
                <path d="M0.0513006397,9.97108742 C0.353219616,9.91842217 0.672409382,9.77428571 0.954285714,9.8273774 C4.17496802,10.433774 7.30140725,9.714371 10.4014072,9.06660981 C18.3704904,7.40136461 26.1666525,5.09304904 33.8704904,2.47108742 C34.673049,2.19795309 35.4478891,1.84251599 36.2306183,1.5133049 C36.836162,1.25829424 37.0075906,0.841236674 36.6547122,0.255522388 C36.6756077,0.20989339 36.7110021,0.181108742 36.7604691,0.169808102 C37.5619616,0.561705757 37.4756077,1.07727079 36.8854158,1.55317697 C36.5071642,1.85829424 36.0542857,2.10733475 35.5952239,2.27108742 C26.2146269,5.61820896 16.6888273,8.46383795 6.85449893,10.1207676 C4.82891258,10.4621322 2.70162047,10.20371 0.621023454,10.2013646 C0.431044776,10.2011514 0.241279318,10.0514712 0.0513006397,9.97108742" id="Fill-19" fill="#A68485" mask="url(#mask-6)"></path>
            </g>
            <path d="M32.6722388,49.2760981 C34.0057143,43.9739659 33.6519829,38.5658635 33.4385501,33.2089339 C33.2063539,27.3848401 32.5246908,21.5790832 32.0423881,15.7650107 C32.013177,15.4125586 32.0138166,15.0577612 32.000597,14.7033902 C32.3607249,16.9701279 32.8170149,19.227484 33.0579531,21.5076546 C33.3747974,24.5057356 33.5206397,27.5219403 33.7485714,30.5296162 C33.7581663,30.6560554 33.8526226,30.7758849 33.9078465,30.8991258 C33.9229851,34.7283369 33.9308742,38.557548 33.9607249,42.3865458 C33.9658422,43.0477399 34.0628571,43.7082942 34.1174414,44.3684222 C33.9146695,45.6368657 33.7575267,46.9146908 33.4988913,48.1714072 C33.0884435,50.1665032 32.6182942,52.1505117 31.2330064,53.7560554 C31.1364179,53.7502985 31.0398294,53.744968 30.9432409,53.7394243 C31.0713859,53.4950746 31.221919,53.2596802 31.3240512,53.0044563 C31.7082729,52.0443284 32.0767164,51.0780171 32.4511301,50.1140512 L32.4477186,50.1208742 C32.5225586,49.8394243 32.5973987,49.557548 32.6722388,49.2760981" id="Fill-22" fill="#AE8A89"></path>
            <path d="M60.9219616,60.5623667 C60.9599147,60.621855 60.9688699,60.6856077 60.9486141,60.7534115 C60.6185501,60.8331557 60.2714286,61.0205757 59.961194,60.9721748 C59.0157783,60.8242004 58.084435,60.584968 57.147548,60.3813433 C54.7586354,58.1583156 53.9808102,55.4984009 55.0622601,52.3864606 C55.8763326,50.0433902 58.1663113,48.4783582 60.2729211,48.8708955 C60.0735608,49.151919 59.8739872,49.4333689 59.6742004,49.7146055 C58.4776119,49.7979744 57.5315565,50.3465885 56.7658849,51.2527719 C54.915565,53.4425373 55.0869936,57.1832623 57.2635394,59.032516 C57.8948827,59.5689765 58.8742004,59.695629 59.6938166,60.0099147 C60.1031983,60.1939232 60.51258,60.3783582 60.9219616,60.5623667" id="Fill-24" fill="#F7E54D"></path>
            <path d="M85.5311301,40.7814712 L84.1899787,41.2748614 C84.1311301,41.2010874 84.0720682,41.1271002 84.0134328,41.0533262 C86.5722814,38.0362687 89.1313433,35.0194243 91.6904051,32.0021535 C92.4420043,32.496823 92.0899787,33.0786994 91.7245203,33.5430917 C90.8074627,34.7083369 89.8383795,35.83371 88.8646055,36.9528998 C88.052452,37.8863753 87.1914712,38.77742 86.3812367,39.7121748 C86.1867804,39.9364819 86.1076759,40.2605757 85.9754797,40.5386141 C85.975693,40.5386141 85.9810235,40.5305117 85.9810235,40.5302985 C85.8311301,40.6140938 85.6812367,40.6976759 85.5311301,40.7814712" id="Fill-26" fill="#9A7171"></path>
            <path d="M24.310661,62.9396588 C25.0515991,63.1426439 25.7831557,63.4720682 26.5347548,63.5260128 C29.3665245,63.7294243 31.8970149,61.1865672 32.0191898,58.0855011 C32.0458422,57.4132196 32.0127932,56.7385928 32.0072495,56.0646055 C33.2240938,59.1315565 31.9081023,62.7445629 29.1046908,64.0326226 C27.4351812,64.8 25.5744136,64.3754797 24.310661,62.9396588" id="Fill-28" fill="#B2B1AE"></path>
            <path d="M86.23742,32.2889126 C85.7813433,32.4469083 85.3252665,32.6046908 84.8691898,32.7626866 L84.7011727,32.5601279 C85.9190832,31.1901919 87.1427505,29.8249467 88.3527719,28.4477612 C89.2369936,27.4413646 90.199467,26.4658849 90.067484,24.9573561 C90.8875267,26.2518124 90.871322,26.9976546 89.9291045,28.091258 C88.7128998,29.5029851 87.4691898,30.8906183 86.23742,32.2889126" id="Fill-30" fill="#9A7070"></path>
            <path d="M93.0592111,49.086823 C92.7696588,49.0028145 92.4801066,48.918806 91.9468443,48.7637953 C93.8841578,46.9972708 95.6526013,45.3846908 97.4208316,43.7723241 C98.1097441,44.2646482 97.9476972,44.7947122 97.4257356,45.2569723 C96.4506823,46.1211514 95.4325586,46.93629 94.4464179,47.7883156 C93.9675267,48.2021748 93.5206183,48.6529211 93.0592111,49.086823" id="Fill-32" fill="#966F6F"></path>
            <path d="M91.8036247,43.4800213 L90.5228145,43.4800213 C91.9695096,41.7184009 93.35629,40.0294883 94.7432836,38.341855 C95.3959488,38.741855 95.3390192,39.2657356 94.9264392,39.7689339 C94.1895522,40.6674414 93.4049041,41.5267164 92.649467,42.4105117 C92.354371,42.7559275 92.0846482,43.1228785 91.8036247,43.4800213" id="Fill-34" fill="#966F6F"></path>
            <path d="M30.9431557,53.739339 C31.0397441,53.7448827 31.1363326,53.7504264 31.2329211,53.7559701 C31.2186354,53.8239872 31.1928358,53.8877399 31.1550959,53.9465885 C30.4310021,53.8143923 30.5331343,54.3495736 30.4911301,54.7685501 C29.4979531,55.1947761 28.5043497,55.6207889 27.5109595,56.0468017 C27.038678,56.0440299 26.5659701,56.0410448 26.0934755,56.0378465 C25.2235394,55.7446695 24.3536034,55.4512793 23.4836674,55.1578891 C23.4783369,54.971322 23.4732196,54.7845416 23.4678891,54.5979744 C23.9401706,54.7438166 24.4278038,54.8527719 24.8819616,55.0418977 C26.6913433,55.7960554 28.2171429,55.1930704 29.6700213,54.1160981 C29.9167164,53.9333689 30.2414499,53.8563966 30.5301493,53.730597 C30.6676759,53.7337953 30.8054158,53.7363539 30.9431557,53.739339" id="Fill-36" fill="#966E6E"></path>
            <path d="M65.2561194,20.0477399 C65.0527079,19.7093603 64.6597441,19.3603198 64.6778678,19.0340938 C64.7699787,17.3771642 64.9723241,15.7262047 65.1281876,14.0726866 C65.2079318,13.2285501 65.271258,12.3827079 65.3422601,11.5379318 C65.5375693,11.9912367 65.9205117,12.4552026 65.8942857,12.8948614 C65.797484,14.5102132 65.5514286,16.1163966 65.3898081,17.7285501 C65.3126226,18.4982729 65.2985501,19.2743923 65.2561194,20.0477399" id="Fill-38" fill="#9E7474"></path>
            <path d="M57.1475267,60.3814286 C58.0846269,60.5850533 59.0157569,60.8240725 59.9611727,60.9722601 C60.2714072,61.020661 60.6185288,60.8330277 60.9485928,60.7532836 C61.2592537,60.9626652 61.5701279,61.1716205 61.8810021,61.3807889 C60.4287633,62.2767377 58.4507249,61.8592537 57.1475267,60.3814286" id="Fill-40" fill="#B1B0AE"></path>
            <path d="M23.4679744,54.5980597 C23.4730917,54.7846269 23.4784222,54.9714072 23.4837527,55.1579744 C23.3607249,55.1443284 23.2376972,55.1302559 23.1146695,55.1163966 C22.8626439,54.951791 22.6106183,54.7873987 22.358806,54.62258 C21.8110448,54.0466738 21.2634968,53.4707676 20.7157356,52.8946482 L23.4679744,54.5980597 Z" id="Fill-42" fill="#A87B61"></path>
            <path d="M18.7873561,50.7638593 C19.0792537,51.1171642 19.3709382,51.4704691 19.6626226,51.823774 C19.3709382,51.4704691 19.0792537,51.1171642 18.7873561,50.7638593" id="Fill-44" fill="#A87B61"></path>
            <path d="M50.8081876,55.2562473 C48.8113859,56.7863113 46.7738593,58.2472921 44.2371855,58.7551812 C41.9363326,59.2157356 39.0625586,58.5897228 37.7766311,56.3014499 C38.4883582,56.6946269 39.1998721,57.0878038 39.9115991,57.481194 C40.3120256,57.7283156 40.6834542,58.0709595 41.1188486,58.2050746 C43.0629851,58.804435 44.8787633,58.2671215 46.6222601,57.4204264 C47.0602132,57.2076333 47.4137313,56.8214925 47.8062687,56.5148827 L47.8020043,56.5185075 C48.2301493,56.2330064 48.658081,55.9477186 49.0860128,55.6622175 L49.0817484,55.6649893 C49.6759915,55.3843923 50.270661,55.1033689 50.8651173,54.8227719 L50.8081876,55.2562473 Z" id="Fill-64" fill="#A88686"></path>
            <path d="M47.8062473,56.5149467 C47.41371,56.8213433 47.0601919,57.2076972 46.6222388,57.4204904 C44.8789552,58.2671855 43.0629638,58.8042857 41.1188273,58.2051386 C40.6834328,58.0710235 40.3122175,57.7281663 39.9115778,57.4810448 C40.4154158,57.5963966 40.919467,57.7119616 41.4233049,57.8273134 C42.9953731,58.1590832 44.5228785,58.1985288 45.8838593,57.1475693 L45.8778891,57.1516205 C46.3071002,56.937548 46.7358849,56.7234755 47.1648827,56.5091898 L47.1576333,56.5140938 C47.373838,56.5145203 47.5900426,56.5147335 47.8062473,56.5149467" id="Fill-66" fill="#835556"></path>
            <path d="M50.865032,54.8227292 C50.2705757,55.1033262 49.6761194,55.3843497 49.0818763,55.6649467 C49.2302772,55.4485288 49.3784648,55.2316844 49.5270789,55.0148401 C50.0795309,54.6559915 50.6319829,54.2967164 51.1842217,53.9378678 C51.1955224,54.0811514 51.2070362,54.224435 51.2185501,54.3679318 L50.865032,54.8227292 Z" id="Fill-68" fill="#835556"></path>
            <path d="M45.8839446,57.1475267 C44.5227505,58.1984861 42.9952452,58.1590405 41.4233902,57.8272708 C42.9103838,57.6008316 44.3971642,57.3739659 45.8839446,57.1475267" id="Fill-70" fill="#AE7D7B"></path>
            <path d="M49.5269936,55.0149254 C49.3785928,55.2317697 49.2301919,55.4484009 49.081791,55.665032 L49.0860554,55.6622601 C48.8092964,55.7443497 48.5325373,55.8264392 48.255565,55.9081023 L48.2060981,55.8490405 C48.6463966,55.5710021 49.0866951,55.293177 49.5269936,55.0149254" id="Fill-72" fill="#AE7D7B"></path>
            <path d="M47.1649254,56.5091258 C46.7359275,56.7234115 46.3071429,56.9376972 45.8779318,57.1517697 C46.3071429,56.9376972 46.7359275,56.7234115 47.1649254,56.5091258" id="Fill-74" fill="#AE7D7B"></path>
            <path d="M47.8062473,56.5149467 C47.5900426,56.5147335 47.373838,56.5145203 47.1576333,56.5140938 C47.5073134,56.2925586 47.8565672,56.0708102 48.2060341,55.8490618 C48.2060341,55.8490618 48.2555011,55.9081237 48.2552878,55.9076972 C48.1039019,56.1111087 47.9529424,56.3149467 47.8019829,56.5185714 L47.8062473,56.5149467 Z" id="Fill-76" fill="#AE7D7B"></path>
            <path d="M30.9431557,53.739339 C30.8054158,53.7363539 30.6676759,53.7337953 30.5301493,53.730597 C31.1702345,52.5250533 31.810533,51.3195096 32.4510448,50.1139659 C32.0766311,51.078145 31.7081876,52.0444563 31.3239659,53.0045842 C31.2220469,53.2595949 31.0715139,53.4949893 30.9431557,53.739339" id="Fill-84" fill="#8C5856"></path>
            <path d="M98.7245203,52.0542004 C98.0238806,52.4019616 97.3230277,52.7495096 96.6223881,53.0972708 C97.3230277,52.7495096 98.0238806,52.4019616 98.7245203,52.0542004" id="Fill-88" fill="#AC7B7A"></path>
            <path d="M96.6287633,53.0930277 C96.0573348,53.3079531 95.4859062,53.5228785 94.9144776,53.7375906 C95.4859062,53.5228785 96.0573348,53.3079531 96.6287633,53.0930277" id="Fill-90" fill="#AC7B7A"></path>
            <path d="M47.8020896,56.5184861 C47.953049,56.3148614 48.1040085,56.1112367 48.2553945,55.9078252 C48.53258,55.8263753 48.809339,55.7442857 49.0858849,55.6621962 C48.6581663,55.9476972 48.2302345,56.2329851 47.8020896,56.5184861" id="Fill-110" fill="#835556"></path>
        </g>
    </g>
</svg>