<?xml version="1.0" encoding="UTF-8"?>
<svg xmlns="http://www.w3.org/2000/svg" id="Ebene_1" data-name="Ebene 1" viewBox="0 0 512 220.2">
  <path d="M315.56,57.81c1.85.75,3.64,1.34,5.3,2.17,5.95,3,9.07,7.91,9.68,14.54a20.85,20.85,0,0,1-5.34,16.63A19.6,19.6,0,0,1,313,97.28a114,114,0,0,1-17.51,1.27c-11.18-.11-22.36-.06-33.53-.07h-1.72V22.38a8.5,8.5,0,0,1,1.13-.13c14.92,0,29.84-.07,44.76.07,6.35.06,12.11,1.95,16.59,6.87,7,7.7,6.32,23.12-6.12,28.14C316.28,57.46,316,57.62,315.56,57.81Zm-31.47,9.25c0,4.63,0,9.31,0,14a1.14,1.14,0,0,0,.81.77c5.24-.08,10.5,0,15.71-.44,3.94-.35,6.24-3.5,6.18-7.34a6.59,6.59,0,0,0-6.43-6.76c-5.21-.4-10.47-.31-15.71-.43A2.36,2.36,0,0,0,284.09,67.06Zm0-15c1.35,0,2.5,0,3.66,0,3.42-.09,6.86-.05,10.27-.36a5.83,5.83,0,0,0,5.45-4.31c1.44-4.73-.92-8.67-5.9-9.15-4.16-.41-8.37-.26-12.56-.3a1.26,1.26,0,0,0-.88.84C284.07,43.08,284.09,47.41,284.09,52Z"></path>
  <path d="M141.94,149c.32-1.32.5-2.39.85-3.39a2.6,2.6,0,0,0-1.19-3.48,6.17,6.17,0,0,0-5.53-.5,28.8,28.8,0,0,0-10,6.4c-4,4-8,8-11.78,12.19-2.36,2.56-4.44,5.36-6.61,8.08-4,5-8.11,10-12.06,15.15-2.12,2.74-4,5.67-6,8.49-3,4.18-6,8.33-9,12.5-2.73,3.82-5.42,7.66-8.18,11.46-1.07,1.47-2.28,2.85-3.42,4.27l-.44-.15a15.43,15.43,0,0,1,.63-2.58c1.78-4.05,3.42-8.19,5.51-12.08,2.72-5.06,5.68-10,8.78-14.82,3.65-5.69,7.48-11.25,11.38-16.76,2.75-3.88,5.69-7.63,8.66-11.34,4.1-5.12,8.07-10.37,12.52-15.17,6.12-6.59,12.61-12.85,19-19.2,2.85-2.83,6.43-4.52,10.08-6a2.06,2.06,0,0,1,2.3.41,18.11,18.11,0,0,0,3.67,2.08c1.71.81,3.07-.1,4.26-1.16,2-1.8,4-3.73,6-5.56,3.12-2.8,6.3-5.53,9.41-8.34,3.9-3.51,7.79-7,11.6-10.62,5-4.68,10-9.32,14.73-14.21a51.66,51.66,0,0,0,10.29-14.13c1.61-3.48,2.08-7.23,2.48-11a64.31,64.31,0,0,0-1-19,36.87,36.87,0,0,0-3.13-8.14,34.28,34.28,0,0,0-9-11.77,26.79,26.79,0,0,0-14.81-6.76c-4.6-.51-9.24-.72-13.87-1a18.23,18.23,0,0,0-8.36,1.76A81.53,81.53,0,0,0,149.4,19.5a75.67,75.67,0,0,0-11.05,7.89c-5.58,5-10.84,10.29-16.12,15.58-2.09,2.11-3.88,4.52-5.8,6.8-.31.38-.56.81-.84,1.21l-.56-.34c.44-1.66.78-3.36,1.35-5,.92-2.58,1.92-5.14,3-7.65.82-1.83,1.87-3.56,2.81-5.33s1.94-3.81,3-5.64a26.21,26.21,0,0,1,3.22-4.56,81,81,0,0,1,9-8.81,56.66,56.66,0,0,1,14.71-8A52.37,52.37,0,0,1,158,3.38c4.59-1.14,9.21-2.16,13.87-2.95a26.72,26.72,0,0,1,10.83.26c2.54.62,5.21.87,7.65,1.74a89.88,89.88,0,0,1,8.46,3.92,19.32,19.32,0,0,1,7.83,6.17,1.67,1.67,0,0,0,.33.32c5.35,4,8.44,9.7,11,15.63a124.82,124.82,0,0,1,4.29,12,12.75,12.75,0,0,1,.26,3.92c0,5.36-.05,10.72-.2,16.07,0,1.12-.71,2.2-.91,3.33-1.25,7.12-4.35,13.45-7.91,19.65a90,90,0,0,1-12.84,16.88c-9.52,10.06-19.12,20.06-29.82,28.91-5.92,4.9-11.8,9.84-17.75,14.69A26.47,26.47,0,0,1,141.94,149Z"></path>
  <path d="M361,71.72c.34,1.39.59,2.58.94,3.73,1.85,6.15,6.41,9.37,12.82,9.14a11.84,11.84,0,0,0,6.48-1.78c4.77-3.27,4.64-9.31-.54-11.91a49.12,49.12,0,0,0-9.86-3.33c-5.83-1.49-11.65-3-17-5.73-5.82-3-10.3-7.11-11.86-13.76A20.77,20.77,0,0,1,352.8,25a35.86,35.86,0,0,1,14.39-3.79c7.3-.52,14.56-.47,21.66,1.64,9.72,2.9,15.5,10.23,16.33,21l-7.68.48c-4.44.25-8.89.47-13.33.75-.91.06-1.31-.2-1.55-1.14-1.74-7-8.34-10.46-15.15-7.91a7.19,7.19,0,0,0-2.2,1.3c-2.71,2.39-2.37,6,.86,7.62a31.71,31.71,0,0,0,5.71,1.93c6.6,1.87,13.29,3.48,19.82,5.57a23,23,0,0,1,11.63,7.9c5.72,7.59,5.9,15.83,2,24.18-3.36,7.16-9.34,11.54-16.85,13.49a60,60,0,0,1-31.92-.39c-10-2.84-14.95-10.28-17.24-19.89-.35-1.46-.48-3-.73-4.59Z"></path>
  <path d="M440.38,98.49c-9.57-25.36-19.13-50.67-28.76-76.16.69,0,1.17-.08,1.65-.08,7.23,0,14.46,0,21.7,0a1.74,1.74,0,0,1,2,1.5q7.9,25.4,15.89,50.75c.16.52.35,1,.65,1.91,1-3.25,2-6.14,2.88-9.05,4.47-14.52,9-29,13.37-43.59a1.77,1.77,0,0,1,2.08-1.51c6.93.06,13.86,0,20.79,0h1.7c-.94,2.64-1.79,5.11-2.7,7.57Q479.16,63.41,466.72,97a2,2,0,0,1-2.29,1.55c-7.48-.07-15,0-22.46-.06Z"></path>
  <path d="M7.42,88.2a6.49,6.49,0,0,1,1.16-1.07,104.23,104.23,0,0,1,17.62-7.9,19.49,19.49,0,0,1,2.66-.49H29c2.19-.17,3.83-1.27,3.94-2.66.1-1.2-1.06-2.12-3.92-2.82.79-.45,1.22-.88,1.7-1,4.19-.62,8.41-1.08,12.58-1.79,4.91-.84,9.79-1.88,14.68-2.84a5.14,5.14,0,0,0,1-.37c1.89-.84,2.06-1.54.74-3.09a8.91,8.91,0,0,1-.58-.86,15.86,15.86,0,0,1,2-.39,6.59,6.59,0,0,0,5.29-3.1c1.19-1.76.34-3.61-.42-5.18a69.61,69.61,0,0,0-4.1-6.9c-.48-.74-.65-1.17.2-1.69,2.86-1.73,5.76-3.27,9.29-3a3.46,3.46,0,0,1,3.31,3.2c0,2.31-.36,4.61-.58,6.91a33.19,33.19,0,0,1-.44,3.45C72.49,62.39,71,68,68.31,73.26a7.09,7.09,0,0,1-4.6,3.9c-4.39,1.12-8.78,2.25-13.19,3.31C45,81.79,39.47,83.18,33.9,84.28c-5.86,1.16-11.78,2-17.68,3-2.38.4-4.76.81-7.14,1.2-.48.08-1,.09-1.44.13Z"></path>
  <path d="M281.92,148.56H270.08v4.69h13.19v5.88H262V133.88h21c0,1.59.07,3.19-.06,4.77,0,.3-.82.76-1.27.77-3.28.06-6.57,0-9.86,0h-1.74v3.65h11.86Z"></path>
  <path d="M286.47,159.44c2.08.22,4.18.43,6.28.68a1.07,1.07,0,0,1,.67.49c.82,1.53,2.21,1.53,3.56,1.2s1.74-1.57,1.79-2.85c0-.8,0-1.6,0-2.66a7.66,7.66,0,0,1-5.65,2.17,7.24,7.24,0,0,1-6.95-6.1,18.82,18.82,0,0,1,0-6.44c1-5.28,7.71-7.47,11.89-4,.34.27.65.57,1.11,1,.09-.76.16-1.34.24-2H306c0,.49.12.93.12,1.37,0,5.51.09,11,0,16.54,0,4.18-2.29,6.83-6.42,7.56a19.75,19.75,0,0,1-9.6-.43A5.31,5.31,0,0,1,286.47,159.44Zm6.56-10h.05c0,.35,0,.71,0,1.06a2.89,2.89,0,0,0,2.71,2.91,2.69,2.69,0,0,0,2.88-2.51,8.36,8.36,0,0,0-.42-3.5,2.44,2.44,0,0,0-2.88-1.67,2.63,2.63,0,0,0-2.24,2.5C293.07,148.63,293.06,149,293,149.44Z"></path>
  <path d="M323.14,142.87c.12-.77.21-1.39.31-2.08h6.47a10.75,10.75,0,0,1,.15,1.19c0,5.61.09,11.22,0,16.83,0,4.1-2.3,6.75-6.33,7.47a19.84,19.84,0,0,1-9.74-.42,5.26,5.26,0,0,1-3.57-6.42c2.09.22,4.19.43,6.29.68a1,1,0,0,1,.65.52c.84,1.51,2.22,1.5,3.58,1.16s1.69-1.48,1.76-2.71c0-.84,0-1.69,0-2.79a7.67,7.67,0,0,1-5.81,2.16,7.19,7.19,0,0,1-6.79-6.08,18.82,18.82,0,0,1,0-6.44c1-5.28,7.69-7.48,11.87-4.07C322.38,142.15,322.7,142.47,323.14,142.87Zm-.32,7c0-.16,0-.31,0-.46-.17-2.26-1.49-3.81-3.19-3.72s-2.57,1.39-2.6,3.79c0,.15,0,.3,0,.45.06,2.19,1.15,3.51,2.91,3.52S322.82,151.92,322.82,149.85Z"></path>
  <path d="M383.22,201.72h-5.39c-.44,0-.89,0-1.41-.07-.07-.6-.14-1.14-.21-1.73-.13,0-.3,0-.38.05-4.75,4-10.34,2.49-12.32-3.42a13.39,13.39,0,0,1-.08-8.35A7.54,7.54,0,0,1,374.84,184l1,.66v-8.39c2.29,0,4.45,0,6.6.05.25,0,.65.8.65,1.23.07,4.65.08,9.3.09,14C383.23,194.85,383.22,198.17,383.22,201.72Zm-13.18-9a6.84,6.84,0,0,0,.64,2.44,3.46,3.46,0,0,0,2.22,1.48,3.12,3.12,0,0,0,2.31-1.34,5,5,0,0,0,0-5.47,4,4,0,0,0-2.59-1.43c-1.17-.17-1.9.8-2.21,1.9A19.48,19.48,0,0,0,370,192.75Z"></path>
  <path d="M312.19,200.44v8.12H305V183.32h6.52c.06.66.12,1.28.14,1.55,1.67-.66,3.3-1.67,5.05-1.91,3.9-.54,6.84,1.76,8,5.86a14.32,14.32,0,0,1,0,7.79,7.63,7.63,0,0,1-10.93,4.71C313.31,201.09,312.89,200.83,312.19,200.44Zm5.87-8.19a7,7,0,0,0-.71-2.41,3.36,3.36,0,0,0-2.21-1.44,3.27,3.27,0,0,0-2.39,1.41,5.65,5.65,0,0,0-.06,5.23,2.59,2.59,0,0,0,2.7,1.57,2.49,2.49,0,0,0,2.28-2.09C317.85,193.84,317.91,193.13,318.06,192.25Z"></path>
  <path d="M408.8,176.34h7v8.2c2-.59,3.85-1.45,5.72-1.61,3.86-.34,6.36,1.8,6.56,5.69.22,4.28,0,8.58,0,13h-7.24v-8.36a21.44,21.44,0,0,0-.05-2.27c-.13-1.27-.65-2.26-2.11-2.32a2.35,2.35,0,0,0-2.59,2.05,18.26,18.26,0,0,0-.27,3.47c0,2.46,0,4.93,0,7.47H408.8Z"></path>
  <path d="M432.06,188.64a5.81,5.81,0,0,1,4.49-5.19,22.67,22.67,0,0,1,10.36-.18c3.2.65,4.85,2.88,4.95,6.35.06,2.12,0,4.25,0,6.37.06,1.84.27,3.67.43,5.71-1.85,0-3.95.1-6-.07-.5,0-.92-1-1.44-1.64-2.21,1.93-5,2.31-7.95,2.07s-5.13-2.08-5.4-4.6c-.32-3,1-4.93,4.27-5.82,2.53-.69,5.1-1.22,7.63-1.91.45-.12.78-.69,1.17-1-.43-.43-.78-1.07-1.3-1.25a3.77,3.77,0,0,0-4.05,1.24,1.86,1.86,0,0,1-1.33.59C436,189.13,434.1,188.87,432.06,188.64Zm12.52,4.56c-1.51.47-2.91.86-4.29,1.35-1,.35-1.74,1-1.4,2.16s1.31,1.33,2.32,1.26C443.62,197.8,444.8,196.18,444.58,193.2Z"></path>
  <path d="M475.41,194.39a3.32,3.32,0,0,0,2.11,3.15,3.48,3.48,0,0,0,3.65-.77,2,2,0,0,1,1.13-.57c2.11.13,4.22.35,6.5.56-1.22,2.59-3,4.43-5.61,4.82a29.33,29.33,0,0,1-8.1.18A8.34,8.34,0,0,1,468,194c-.7-6.56,3.11-10.93,9.72-11.15.75,0,1.51,0,2.27,0,6.36.34,10.12,5,9.11,11.5H475.41Zm6.39-3.7c-.41-2.38-1.58-3.53-3.4-3.44-1.67.07-2.79,1.39-2.9,3.44Z"></path>
  <path d="M354.43,151.89H340.62a3.34,3.34,0,0,0,2,3.12,3.57,3.57,0,0,0,3.67-.68,3,3,0,0,1,1.71-.6c2,.1,3.9.35,6,.55-1.25,2.59-3,4.42-5.68,4.82a27,27,0,0,1-7.82.23c-5.45-.81-8.51-6.12-7.16-11.8a8.71,8.71,0,0,1,8-7,21.23,21.23,0,0,1,6.46.32c4,.83,6.34,4,6.64,8.35C354.47,150,354.43,150.81,354.43,151.89ZM347,148.18c-.34-2.32-1.51-3.5-3.35-3.44-1.65.06-2.77,1.33-3,3.44Z"></path>
  <path d="M278.44,194.35H264.8a3.07,3.07,0,0,0,1.69,3,3,3,0,0,0,3.66-.42,2.87,2.87,0,0,1,2.61-.74l5.36.57c-1.25,2.57-3,4.43-5.68,4.8a29.78,29.78,0,0,1-8.11.15,8.36,8.36,0,0,1-7.06-7.95c-.51-6.58,3.22-10.74,9.81-10.93A18.45,18.45,0,0,1,270,183C276,183.72,279.12,187.81,278.44,194.35Zm-7.35-3.66c-.34-2.34-1.51-3.51-3.34-3.45-1.66.06-2.77,1.33-3,3.45Z"></path>
  <path d="M438.7,151.87H425.08A3.12,3.12,0,0,0,427,155a3,3,0,0,0,3.53-.53,2.72,2.72,0,0,1,2.46-.72c1.75.2,3.51.36,5.47.56-1.23,2.55-3,4.4-5.58,4.79a29.8,29.8,0,0,1-8.11.21,8.36,8.36,0,0,1-7.15-7.72c-.72-6.53,3.11-11,9.69-11.19a19.76,19.76,0,0,1,2.88.07C436.26,141.14,439.55,145.47,438.7,151.87Zm-7.34-3.71c-.26-2.24-1.42-3.44-3.28-3.42-1.64,0-2.76,1.25-3,3.42Z"></path>
  <path d="M512,201.65H504.7v-5c0-1.81,0-3.63,0-5.45-.06-1.59-.81-2.45-2.05-2.54a2.49,2.49,0,0,0-2.72,2.28,22.52,22.52,0,0,0-.22,3.17c0,2.47,0,4.94,0,7.52h-7.1V183.33h6.5c.07.72.15,1.4.24,2.31a8.57,8.57,0,0,1,5.85-2.78c4.09-.15,6.6,1.92,6.76,6S512,197.27,512,201.65Z"></path>
  <path d="M376.86,159.15h-7.25v-5c0-1.82,0-3.64,0-5.46-.06-1.59-.81-2.45-2.05-2.54a2.5,2.5,0,0,0-2.72,2.28,22.31,22.31,0,0,0-.22,3.17c0,2.47,0,4.94,0,7.52h-7.1V140.83H364c.08.72.15,1.39.25,2.3a8.57,8.57,0,0,1,5.85-2.77c4.08-.15,6.61,1.94,6.77,6S376.86,154.76,376.86,159.15Z"></path>
  <path d="M473.07,159.13h-7.23V150.3a16.15,16.15,0,0,0-.06-2c-.15-1.14-.65-2-1.94-2.17a2.26,2.26,0,0,0-2.64,1.76,14.63,14.63,0,0,0-.38,3.44c-.05,2.56,0,5.13,0,7.77h-7.12V140.81h6.51l.23,2.24c.42-.33.76-.58,1.08-.85a7.9,7.9,0,0,1,7.4-1.56A5.28,5.28,0,0,1,473,146C473.2,150.32,473.07,154.66,473.07,159.13Z"></path>
  <path d="M242.87,195.25h12.06v6.38H235V176.4h7.9Z"></path>
  <path d="M337.81,202.14c-4.94,0-8.55-2.34-9.89-6.28-2.11-6.19,1.53-12.13,8-12.89,3.43-.4,6.8-.1,9.55,2.36,3.25,2.91,3.74,6.61,2.49,10.52s-4.19,5.65-8,6.16C339.23,202.11,338.52,202.1,337.81,202.14Zm-3.21-9.66a15.94,15.94,0,0,0,.3,2.09,3.11,3.11,0,0,0,6.14-.16,8.47,8.47,0,0,0,.24-1.8c.08-2.74-1.25-4.62-3.26-4.65S334.68,189.58,334.6,192.48Z"></path>
  <path d="M291.11,202.14c-5,0-8.62-2.32-10-6.36A9.47,9.47,0,0,1,289.27,183c3.38-.36,6.68-.05,9.41,2.33A9.64,9.64,0,0,1,301.22,196c-1.37,3.75-4.28,5.6-8.14,6.07C292.43,202.1,291.77,202.1,291.11,202.14Zm-3.22-9.33a11.48,11.48,0,0,0,.34,2,3,3,0,0,0,3.12,2.36,2.93,2.93,0,0,0,2.86-2.49,10.5,10.5,0,0,0,.13-3.58c-.29-2.06-1.59-3.17-3.28-3.1s-2.88,1.4-3.1,3.36C287.92,191.67,287.93,192,287.89,192.81Z"></path>
  <path d="M404.83,188c-2.16.21-4.21.43-6.25.59a1.16,1.16,0,0,1-.82-.49,2.67,2.67,0,0,0-2.91-1.16c-.58.12-1.06.71-1.58,1.08.44.41.82,1.06,1.33,1.18,1.86.43,3.79.61,5.66,1,4.57,1,6.54,4.93,4.31,8.62a6.49,6.49,0,0,1-4.28,2.9,20.61,20.61,0,0,1-9.47,0,6.3,6.3,0,0,1-4.95-5.18c2.27-.21,4.42-.45,6.57-.58.31,0,.72.43,1,.75a3.43,3.43,0,0,0,4.43,1c.38-.23.86-.77.82-1.11a1.66,1.66,0,0,0-.92-1.17c-1.4-.41-2.86-.61-4.28-1a21.11,21.11,0,0,1-4-1.26,4.8,4.8,0,0,1-2.8-4.67,4.68,4.68,0,0,1,2.86-4.47,15.56,15.56,0,0,1,12.09-.17A5.67,5.67,0,0,1,404.83,188Z"></path>
  <path d="M398.64,145.45c-2,.21-4,.45-6,.58a1.53,1.53,0,0,1-1-.63,3,3,0,0,0-3.29-1,1.56,1.56,0,0,0-1,1.05c0,.36.55,1,1,1.09,1.32.35,2.69.45,4,.75a16.94,16.94,0,0,1,4,1.16,5.4,5.4,0,0,1,.24,9.67,8.43,8.43,0,0,1-2.64,1.07,19.87,19.87,0,0,1-9.75-.28c-2.37-.71-3.73-2.4-4.38-5,2.31-.22,4.46-.45,6.62-.58.3,0,.7.43.94.76a3.43,3.43,0,0,0,4.44,1c.38-.23.85-.77.81-1.11a1.68,1.68,0,0,0-.94-1.16c-1.4-.42-2.86-.6-4.27-1a18,18,0,0,1-4.16-1.33,5,5,0,0,1,.09-9,15,15,0,0,1,12.36-.21A5.44,5.44,0,0,1,398.64,145.45Z"></path>
  <path d="M467.81,180.7c-3.76-.12-4,.06-4,2.38l3.1.19v5.28l-3.16.17v12.89h-7.3V188.73L454,188.5v-5.21l2.33-.13c.11-.84.23-1.67.32-2.5.31-2.84,1.77-4.38,4.62-4.7a20.56,20.56,0,0,1,3.33,0c1.25.06,2.49.24,3.89.38C468.27,177.83,468,179.24,467.81,180.7Z"></path>
  <path d="M414.77,154.07c.21,1.62.41,3.21.63,5a16.54,16.54,0,0,1-8.14.23,4.13,4.13,0,0,1-3-3.94c-.18-2.16-.18-4.33-.24-6.5,0-.85,0-1.69,0-2.6l-2.4-.23V140.8l2.16-.14c.09-.14.2-.23.19-.3-.54-2.55.92-3.69,3-4.51,1.39-.55,2.68-1.33,4.25-2.12v6.85l3.93.23c0,1.52.05,3,0,4.42a1.29,1.29,0,0,1-.88.85,22.55,22.55,0,0,1-2.88,0c0,2.45-.07,4.8.07,7.14,0,.4.92.91,1.5,1.06A5.55,5.55,0,0,0,414.77,154.07Z"></path>
  <path d="M359.27,176.36V201.6h-7.06V176.36Z"></path>
  <path d="M64.24,33.85a5.61,5.61,0,0,1-1.74,0c-5-1.69-10-3.46-15-5.14-1.86-.62-3.81-1-5.68-1.55-4.07-1.3-8.1-2.71-12.16-4-1.52-.49-3.09-.84-4.63-1.26-3.73-1-7.48-2-11.19-3.11A8.14,8.14,0,0,0,6.14,21c-.39.46-.72,1-1.15,1.4a1.1,1.1,0,0,1-.87.33,1,1,0,0,1-.51-.79c0-2.17.06-4.35.21-6.51a1.65,1.65,0,0,1,2-1.63c3.14.42,6.28.84,9.38,1.48a45.3,45.3,0,0,1,6,1.85c3.48,1.26,6.92,2.64,10.39,3.94,2.35.88,4.72,1.69,7.08,2.56,3.53,1.29,7.07,2.56,10.57,3.92C53.88,29.29,58.45,31.16,63,33c.42.17.81.39,1.21.58Z"></path>
  <path d="M8,64.62a9.92,9.92,0,0,1,7.71,3.83c1,1.21.58,2.66-1.05,3.67-3.48,2.15-7,4.29-10.54,6.3-.94.53-2.62,1.1-3.13.67a4.34,4.34,0,0,1-1-3.28,56.46,56.46,0,0,1,1.12-7.3,3.87,3.87,0,0,1,3.29-3.14C5.75,65.11,7.08,64.81,8,64.62Z"></path>
  <path d="M87.89,59.07c.5.66,1,1.31,1.48,2,.31.46.5,1,.83,1.44,3.24,4.18,4.76,3.38,7.24-.14a6.56,6.56,0,0,0,.72-7A32.91,32.91,0,0,0,93,47.55a6.33,6.33,0,0,1-1.38-2.32c.62.18,1.25.33,1.86.56s1,.55,1.5.69c3.74,1.05,5.84,3.56,7,7.21a12,12,0,0,1-4.61,13A12.23,12.23,0,0,1,89.27,69c-.93-.08-1.63-.44-1.64-1.41-.06-2.81,0-5.61,0-8.42Z"></path>
  <path d="M442.13,140.79h7V159.1h-7Z"></path>
  <path d="M12.78,56.31C9,54.89,5.27,53.4,3.06,49.75A9.12,9.12,0,0,1,1.78,44c.22-1.78-.31-3.8,1.38-5.16.31-.25,1-.48,1.19-.33A60.11,60.11,0,0,1,9.7,43.64a5.48,5.48,0,0,1,1,3.18c.13,2.53.27,5,1.89,7.12A6.31,6.31,0,0,1,13.2,56Z"></path>
  <path d="M475.63,152.69v-5.48h10.26v5.48Z"></path>
  <path d="M449.06,138.76c-2.16,0-4.22,0-6.27,0-.27,0-.72-.53-.74-.84-.09-1.29,0-2.6,0-4h7.05Z"></path>
  <path d="M46.54,64.24h4.37l0,.16-4.39.37Z"></path>
</svg>
