<svg id="Ebene_1" data-name="Ebene 1" xmlns="http://www.w3.org/2000/svg" viewBox="0 0 274 400"><defs><style>.cls-1{fill:#f11511;}.cls-2{fill:#282828;}</style></defs><title>Zeichenfläche 1</title><path class="cls-1" d="M125.384.469c55.25,0,98.61.095,141.969-.106,6.25-.029,6.574,3.24,6.528,7.912-.425,43.356-.715,86.714-1.141,130.071-.236,24-.788,48-.954,72-.155,22.364-6.17,43.442-15.378,63.371-24.729,53.522-63.388,94.48-114.432,123.918-5.737,3.308-10,3.13-15.812-.472C78.476,367.594,42.9,327.064,17.13,277.638,5.624,255.569.382,231.681.27,206.94-.026,141.654.184,76.366.251,11.079.262.892.407,1.031,10.687.665,52.881-.835,95.08.7,125.384.469Zm12.345,11.553v-.068h-6.295c-37.066.017-74.131.093-111.2-.016-5.218-.015-7.691,1.577-7.336,7.162,1.111,17.476-.218,34.954-.263,52.432-.1,37.3-.2,74.6-.07,111.9.094,27.779.891,55.48,12.837,81.442,10.07,21.885,23.254,41.7,38.364,60.427a261.129,261.129,0,0,0,65.823,58.477c3.5,2.172,6.707,2.428,10.444.427,7.587-4.064,15.179-8.17,21.987-13.4,22.924-17.614,43.616-37.433,60.094-61.421,23.293-33.908,38.455-70.314,37.8-112.416-.467-30.06.462-60.142.753-90.215.28-28.9.425-57.8.9-86.7.1-6.328-2.073-8.21-8.437-8.164C214.667,12.164,176.2,12.022,137.729,12.022Z"/><path class="cls-1" d="M134.414,19.947q52.82,0,105.639,0c5.256,0,9.194.091,9.348,7.823,1.207,60.6,2.11,121.208,1.053,181.806-.559,32.045-12.805,60.6-30.058,87.262a254.455,254.455,0,0,1-54.247,60.344c-8.537,6.884-17.868,12.452-27.393,17.776-3.9,2.181-7.3,1.6-11.1-.642-18.214-10.753-33.392-25.214-47.734-40.356-23.322-24.625-43.5-51.582-53.61-84.635A152.251,152.251,0,0,1,19.3,204.59c.041-57.368.037-114.736.353-172.1.083-15.065-1.36-12.9,13.316-12.989,33.814-.2,67.63-.064,101.445-.064ZM64.609,310.125l.982,1.281c5.195,5.552,10.328,11.162,15.6,16.643,14.31,14.892,29.067,29.284,46,41.274,3.64,2.577,7.367,3.2,11.079,1,7.982-4.733,16.187-9.24,23.564-14.815,22.051-16.665,40.1-37.173,55.174-60.251,18.435-28.219,29.852-58.745,29.646-92.974-.105-17.476.144-34.954.056-52.43C246.5,110.235,246.136,70.618,246,31c-.02-5.515-1.553-7.575-7.628-7.539-31.927.187-63.857-.275-95.786-.3-37.293-.024-74.587.242-111.881.2-5.053-.006-6.72,1.278-6.6,6.758,1.2,56.839-1.23,113.668-.514,170.519.377,29.918,7.872,57.423,23.518,82.762C52.694,292.461,58.759,301.226,64.609,310.125Z"/><path class="cls-2" d="M64.609,310.125c.89,0,1.2.441.984,1.282Z"/><path class="cls-1" d="M78.422,147.389q-12-39.407-23.972-78.822c-3.057-10.14-5.847-20.36-9.227-32.179,10.062,5.766,18.678,10.67,27.26,15.631,16.1,9.309,32.416,18.29,48.18,28.145,6.967,4.356,12.391,4.439,19.689.563,24.866-13.207,50.154-25.62,75.3-38.3,1.754-.884,3.624-3.2,5.56-1.485,1.754,1.556.152,4.009-.379,5.856q-11.466,39.945-23.184,79.818c-2.022,6.926-4.11,13.833-6.168,20.748-12.553.187-25.107.549-37.66.522C128.689,147.834,103.556,147.567,78.422,147.389Z"/><path class="cls-1" d="M186.842,239.558c-2.66,9.957-4.161,20.176-10.254,29.091-12.412,18.159-32.45,27.033-52.837,22.625-20.884-4.516-36.623-21.512-40.319-42.978-.523-3.038,1.539-8.109-4.425-8.629Z"/><path class="cls-2" d="M186.842,239.558l-107.834.11c-13.043.031-26.1-.09-39.142.181-4.236.088-5.584-1.108-5.546-5.468q.353-40.578.133-81.159c-.026-4.383,1.264-5.511,5.517-5.47,12.814.122,25.632-.208,38.45-.362,25.136.178,50.27.444,75.4.5,12.553.027,25.107-.336,37.66-.522,13.052.077,26.111.428,39.152.1,5.157-.131,6.153,1.623,6.113,6.352q-.333,39.865-.044,79.734c.033,4.544-1.162,6.028-5.8,5.959C216.22,239.29,201.53,239.508,186.842,239.558Zm-51.219-3.235v-.166c30.3,0,60.605-.106,90.906.106,4.938.035,6.971-.817,6.906-6.389-.284-24.237-.2-48.481.033-72.72.047-4.82-1.28-6.375-6.247-6.357q-91.6.341-183.21.212c-5.025-.008-6.264,1.622-6.226,6.373q.287,36.011-.037,72.026c-.057,5.367,1.284,7.114,6.969,7.057C75.017,236.162,105.321,236.323,135.623,236.323Z"/><path class="cls-2" d="M72.194,193.72c0-6.293.093-12.587-.041-18.877-.063-2.975,1.009-4.186,4.051-4.107,6.289.165,12.6-.2,18.873.187,11.086.687,15.392,8.727,9.7,18.392-1.422,2.416-.509,3,.821,4.395,4.014,4.2,4.231,9.2,2.306,14.325-2.027,5.391-6.4,7.658-11.918,8.271C72.083,218.963,72.085,218.982,72.194,193.72ZM88,208.64c2.131,0,3.524.043,4.914-.008,4.111-.153,6.478-2.108,6.584-6.413.111-4.488-2.514-6.176-6.527-6.369-2.315-.111-4.661.143-6.954-.116-3.966-.45-5.075,1.209-5.326,5.072C80.287,207,81.907,210.279,88,208.64Zm.985-30.166,0,.142c-1.848,0-3.7-.006-5.545,0-2.885.011-2.641,2.188-2.448,3.943.224,2.024-1.435,5.278,2.094,5.621a53.088,53.088,0,0,0,11.713-.345c2.525-.32,3.968-2.382,3.718-5.046-.254-2.708-2-3.979-4.684-4.062C92.213,178.678,90.6,178.561,88.984,178.474Z"/><path class="cls-2" d="M198.623,203.959c0,3.028.1,6.059-.024,9.082-.16,4.033-3.587,4.536-5,2.308-2.5-3.955-3.765-2.346-6.588-.645-6.754,4.069-13.869,3.67-20.476-.573-9-5.777-12.2-21.768-6.847-32.92,4.621-9.617,16.489-14.148,27.452-10.407,3.842,1.311,7.268,3.377,9.077,7.168.879,1.842,3.592,4.359.719,5.921a6.764,6.764,0,0,1-7.8-.79c-7.788-7.06-13.725-7.645-18.859-1.933-5.674,6.314-5.153,20.632.934,25.683,4.284,3.555,11.739,3.7,15.534.123,1.883-1.775,3.707-4.15,3.074-6.707-.659-2.663-3.577-1.507-5.471-1.481-3.011.041-4.074-1.011-4.051-4.068.024-3.138,1.846-3.288,4.076-3.3.466,0,.932,0,1.4-.015C198.812,190.974,198.812,190.973,198.623,203.959Z"/><path class="cls-2" d="M133.508,204.405c3.193-10.789,6.069-19.841,8.487-29.014.957-3.632,2.627-4.876,6.3-4.7,3.558.175,4.329,1.051,3.081,4.593-4.243,12.049-8.23,24.19-12.114,36.36-1.062,3.328-2.566,4.9-6.339,4.9-3.666,0-4.654-1.77-5.6-4.757-3.714-11.742-7.761-23.379-11.439-35.131-.535-1.709-3.516-4.726.4-5.576,2.912-.632,7.08-2.021,8.428,3.281,2.118,8.332,4.581,16.576,6.923,24.85C131.948,200.305,132.4,201.355,133.508,204.405Z"/></svg>