<svg id="Ebene_1" data-name="Ebene 1" xmlns="http://www.w3.org/2000/svg" viewBox="0 0 100 119.594"><defs><style>.cls-1{fill:#fff;}</style></defs><title>Zeichenfläche 1</title><path class="cls-1" d="M.467.474h99.58a19.724,19.724,0,0,1,.243,2.181c-.007,22.953.128,45.907-.112,68.857-.129,12.362-4.736,23.183-13.132,32.274C76.2,115.53,62.644,120.938,46.76,119.954a47.579,47.579,0,0,1-30.9-13.751A49.2,49.2,0,0,1,.34,69.656Q.279,35.778.347,1.9C.348,1.542.406,1.185.467.474ZM5.092,5.187c-.059.887-.139,1.514-.138,2.141.034,21.3-.089,42.595.161,63.888.28,23.846,20.205,43.691,44.044,44.08,15.745.257,28.358-6.18,37.72-18.719a44.474,44.474,0,0,0,8.715-27.185q.044-30.973.012-61.947a19.071,19.071,0,0,0-.28-2.259Z"/><path d="M5.092,5.187H95.324a19.071,19.071,0,0,1,.28,2.259q.013,30.973-.012,61.947a44.474,44.474,0,0,1-8.715,27.185C77.517,109.117,64.9,115.554,49.159,115.3,25.321,114.908,5.4,95.063,5.115,71.217c-.25-21.294-.127-42.592-.161-63.888C4.953,6.7,5.032,6.074,5.092,5.187ZM9.919,9.895C9.863,11,9.786,11.81,9.786,12.616q-.013,28.116-.019,56.232a42.138,42.138,0,0,0,6.44,22.889A40.373,40.373,0,0,0,90.753,70.689c.254-19.476.065-38.957.055-58.436a22.253,22.253,0,0,0-.247-2.358Z"/><path class="cls-1" d="M9.919,9.895H90.56a22.253,22.253,0,0,1,.247,2.358c.01,19.479.2,38.96-.055,58.436A40.373,40.373,0,0,1,16.206,91.738a42.138,42.138,0,0,1-6.44-22.889q.042-28.116.019-56.232C9.786,11.81,9.863,11,9.919,9.895ZM82.5,26.153c-.185-2.773.367-5.306-.306-7.788a4.026,4.026,0,0,0-.9-.247q-30.452-.043-60.9-.058a14.4,14.4,0,0,0-1.626.157.5.5,0,0,0-.235.124,7.319,7.319,0,0,0-.478.572c0,5.834-.04,12.035.011,18.236.051,6.152-.233,12.316.21,18.938Zm.012,32.9c-.987.338-1.416.443-1.81.625Q67.648,65.709,54.6,71.757,39.954,78.575,25.33,85.448c-.776.364-1.485.87-2.338,1.376a22.009,22.009,0,0,0,1.144,1.917c7.5,9.846,17.314,14.5,29.775,13.314C67.022,100.811,78.73,90.423,81.65,77.207c.94-4.253.836-8.531.86-12.821C82.519,62.762,82.511,61.138,82.511,59.054Zm-9.329-2.846a2.458,2.458,0,0,0,2.362-2.353c.9-4.264,1.864-8.513,2.805-12.768l.571.06V53.739l3.143-1.455c.675-3.157.546-17.1-.175-19.257L77.17,35.245c-.5,2.022-.95,3.97-1.47,5.9a31.662,31.662,0,0,1-1.71,6.1L71.2,38l-5.118,2.456V59.732l3.4-1.589V45.381l.6-.093Zm-26.872-5.3c-4.21-.208-7.365,2.246-10.9,3.839.158,6.456-.151,12.685.182,19.332,3.035-1.517,5.741-2.632,8.194-4.153,3.291-2.041,4.883-5.059,4.1-9.08L45.758,58.82C47.218,56.241,48.907,53.783,46.31,50.911ZM58.927,63.046c1.668-7,3.48-13.91,4.829-21.679l-3.79,2.026L57.26,56.48l-.516.016-2.8-10.364L50.058,47.9l4.926,17.011ZM24.97,78.92c0-5.97.017-11.619-.024-17.267a9.921,9.921,0,0,0-.6-2.2C21.759,61.12,20.106,63.2,18.3,65.09a1.217,1.217,0,0,0,.328,1.94l2.646-1.362V80.624Zm3.2-5.926v4.322l3.4-1.46v-4.4Z"/><path d="M82.5,26.153,18.269,56.087c-.443-6.622-.159-12.787-.21-18.938-.052-6.2-.011-12.4-.011-18.236a7.319,7.319,0,0,1,.478-.572.5.5,0,0,1,.235-.124,14.4,14.4,0,0,1,1.626-.157q30.452.016,60.9.058a4.026,4.026,0,0,1,.9.247C82.866,20.848,82.315,23.381,82.5,26.153Z"/><path d="M82.511,59.054c0,2.084.008,3.708,0,5.332-.024,4.29.08,8.568-.86,12.821-2.92,13.216-14.628,23.6-27.739,24.848C41.45,103.238,31.64,98.588,24.136,88.741a22.009,22.009,0,0,1-1.144-1.917c.852-.506,1.562-1.012,2.338-1.376Q39.958,78.583,54.6,71.757q13.036-6.067,26.1-12.078C81.1,59.5,81.524,59.392,82.511,59.054Z"/><path d="M73.182,56.208l-3.1-10.919-.6.093V58.143l-3.4,1.589V40.453L71.2,38l2.788,9.246a31.662,31.662,0,0,0,1.71-6.1c.52-1.928.969-3.876,1.47-5.9l4.719-2.218c.721,2.154.851,16.1.175,19.257L78.92,53.739V41.147l-.571-.06c-.941,4.255-1.909,8.5-2.805,12.768A2.458,2.458,0,0,1,73.182,56.208Z"/><path d="M46.31,50.911c2.6,2.872.908,5.33-.552,7.91l2.127,2.029c.78,4.02-.812,7.038-4.1,9.08-2.453,1.522-5.159,2.637-8.194,4.153-.334-6.647-.025-12.876-.182-19.332C38.945,53.156,42.1,50.7,46.31,50.911ZM39.524,68.888a4.027,4.027,0,0,0,3.9-2.22c.665-1.261,1.086-2.709-.031-4.014-1.582-.577-2.641.361-3.866,1ZM39.7,55.517c-.368,3.1-.368,3.1.363,4.653,3.4-1.408,4.178-3.021,2.505-5.767Z"/><path d="M58.927,63.046l-3.943,1.866L50.058,47.9l3.889-1.769,2.8,10.364.516-.016,2.706-13.087,3.79-2.026C62.407,49.136,60.6,56.044,58.927,63.046Z"/><path d="M24.97,78.92l-3.7,1.7V65.668L18.628,67.03a1.217,1.217,0,0,1-.328-1.94c1.806-1.89,3.459-3.971,6.044-5.638a9.921,9.921,0,0,1,.6,2.2C24.987,67.3,24.97,72.951,24.97,78.92Z"/><path d="M28.167,72.995l3.4-1.534v4.4l-3.4,1.46Z"/><path class="cls-1" d="M39.524,68.888V63.656c1.225-.64,2.284-1.579,3.866-1,1.117,1.305.7,2.754.031,4.014A4.027,4.027,0,0,1,39.524,68.888Z"/><path class="cls-1" d="M39.7,55.517,42.567,54.4c1.673,2.746.89,4.359-2.505,5.767C39.331,58.619,39.331,58.619,39.7,55.517Z"/></svg>