<svg xmlns="http://www.w3.org/2000/svg" width="252.28" height="302.36"><path d="M40.298 113.576c2.4 7.245 5.017 14.723 7.698 22.384 2.61 7.455 5.307 15.167 7.896 22.935 5.252 15.775 9.915 30.8 14.028 44.058 18.027 58.102 28.908 93.175 56.223 93.175 27.312 0 38.193-35.07 56.218-93.166 4.112-13.26 8.774-28.287 14.03-44.067 2.588-7.772 5.285-15.486 7.897-22.946 2.683-7.661 5.297-15.137 7.699-22.381l-171.69.008" fill="#fff"/><path d="M125.304 6.233c-47.635.002-76.803 8.476-89.172 25.908-16.388 23.1-3.295 60.504 11.864 103.819 2.61 7.455 5.307 15.167 7.896 22.935 5.252 15.775 9.915 30.8 14.028 44.058 18.027 58.102 28.908 93.175 56.223 93.175 27.312 0 38.193-35.07 56.218-93.166 4.112-13.26 8.774-28.287 14.03-44.067 2.588-7.772 5.285-15.486 7.897-22.946 15.157-43.312 28.245-80.714 11.86-103.812-12.37-17.43-41.536-25.904-89.172-25.904h-1.672zm.839 296.127c-31.91 0-43.302-36.721-62.177-97.56-4.106-13.23-8.757-28.221-13.988-43.935-2.573-7.725-5.263-15.412-7.867-22.846-15.729-44.944-29.315-83.76-11.063-109.486C44.858 9.068 74.809 0 125.304 0h1.672c50.495 0 80.445 9.065 94.255 28.53 18.253 25.724 4.669 64.538-11.056 109.479-2.606 7.437-5.295 15.128-7.871 22.857-5.232 15.715-9.885 30.711-13.99 43.943-18.874 60.833-30.265 97.552-62.171 97.552" fill="#a7a5a6"/><path d="M216.148 32.137c-12.37-17.43-41.536-25.904-89.172-25.904h-1.672c-47.635.002-76.803 8.476-89.172 25.908-13.487 19.012-7 47.719 4.169 81.432l171.683-.008c11.164-33.71 17.65-62.418 4.164-81.428" fill="#c91e25"/><path d="M68.637 56.879c.701 1.172 1.183 2.145 2.672 4.049 1.506 1.917 4.248 3.817.934 8.808a7.401 7.401 0 006.436-7.323c0-1.898-.71-3.334-1.896-4.936-2.664-3.769-7.63-6.778-2.971-13.308-5.432.072-9.034 4.296-6.813 9.392l1.638 3.318" fill="#dab838"/><path d="M70.21 61.567c-.823-.858-1.674-1.746-2.421-2.859-.467-.67-.797-1.399-1.164-2.039a7.356 7.356 0 00-2.743 5.731 7.402 7.402 0 007.393 7.408c.312 0 .62-.024.919-.063 2.144-4.013.162-5.934-1.984-8.178" fill="#dab838"/><path d="M71.28 73.492c-1.736 0-6.437-.608-8.693-4.424-2.416.695-3.984 1.604-4.948 2.33l.307 1.658c1.787 8.001 8.504 13.548 8.504 13.548-3.222 0-4.758.865-5.464 2.077 1.177 1.154 4.076 3.079 10.295 3.079 6.216 0 9.112-1.925 10.297-3.079-.711-1.212-2.245-2.077-5.464-2.077 0 0 6.716-5.547 8.503-13.548.099-.541.2-1.107.304-1.659-.968-.725-2.534-1.634-4.945-2.329-2.258 3.816-6.96 4.424-8.695 4.424M56.653 65.97c1.214-.655 2.51-1.286 4.353-1.809-.247-.808-.234-1.646-.24-2.501-.03-4.935 3.96-7.947 3.96-7.947s-2.553-4.053-3.063-5.38c0 0-1.87 1.126-3.232 1.284-1.35.155-2.649-.924-2.964-2.512-.311-1.586 4.084-4.79 4.084-4.79-.459-1.3-.794-2.147-.794-2.147-.795-1.953-2.953-3.368-5.44-3.368-3.09 0-5.52 2.18-5.428 4.873.014.288.052.572.117.846.45 2.488 2.521 2.937 4.31 7.061 2.063 4.767 3.302 10.692 4.337 16.39M89.242 36.8c-2.487 0-4.649 1.415-5.443 3.368 0 0-.33.847-.79 2.147 0 0 4.394 3.204 4.084 4.79-.315 1.588-1.622 2.667-2.974 2.512-1.349-.158-3.224-1.288-3.224-1.288-.51 1.331-3.065 5.384-3.065 5.384s3.998 3.012 3.964 7.943c-.013.852.002 1.684-.237 2.488 1.846.52 3.14 1.156 4.346 1.812 1.042-5.697 2.274-10.11 4.336-14.252 1.79-3.588 3.86-6.697 4.315-9.185.063-.274.102-.558.11-.846.099-2.693-2.331-4.873-5.422-4.873" fill="#dab838"/><path d="M71.28 94.427c-5.516 0-8.887-1.432-10.865-2.812.014.814.101 1.626.101 2.334 0 2.856 1.063 11.847 10.765 11.847 9.692 0 10.758-8.99 10.758-11.847 0-.708.09-1.52.109-2.334-1.982 1.38-5.352 2.812-10.867 2.812M123.5 56.879c.7 1.172 1.182 2.145 2.674 4.049 1.505 1.917 4.25 3.817.932 8.808a7.406 7.406 0 006.438-7.323c0-1.898-.714-3.334-1.896-4.936-2.662-3.769-7.633-6.778-2.969-13.308-5.437.072-9.039 4.296-6.818 9.392l1.638 3.318" fill="#dab838"/><path d="M125.072 61.567c-.823-.858-1.674-1.746-2.421-2.859-.467-.67-.797-1.399-1.165-2.039a7.357 7.357 0 00-2.742 5.731 7.403 7.403 0 007.393 7.408c.313 0 .62-.024.92-.063 2.146-4.013.161-5.934-1.985-8.178" fill="#dab838"/><path d="M126.145 73.492c-1.74 0-6.44-.608-8.698-4.424-2.414.695-3.984 1.604-4.945 2.33.102.551.203 1.117.305 1.658 1.786 8.001 8.505 13.548 8.505 13.548-3.224 0-4.758.865-5.464 2.077 1.18 1.154 4.076 3.079 10.297 3.079 6.216 0 9.112-1.925 10.295-3.079-.71-1.212-2.245-2.077-5.464-2.077 0 0 6.719-5.547 8.505-13.548.096-.541.2-1.107.303-1.659-.967-.725-2.532-1.634-4.943-2.329-2.26 3.816-6.961 4.424-8.696 4.424M111.518 65.97c1.21-.655 2.507-1.286 4.349-1.809-.242-.808-.235-1.646-.237-2.501-.032-4.935 3.955-7.947 3.955-7.947s-2.549-4.053-3.062-5.38c0 0-1.87 1.126-3.23 1.284-1.346.155-2.645-.924-2.965-2.512-.31-1.586 4.083-4.79 4.083-4.79-.458-1.3-.79-2.147-.79-2.147-.799-1.953-2.955-3.368-5.442-3.368-3.091 0-5.52 2.18-5.43 4.873.016.288.055.572.118.846.453 2.488 2.52 2.937 4.312 7.061 2.065 4.767 3.302 10.692 4.339 16.39M144.11 36.8c-2.491 0-4.653 1.415-5.449 3.368 0 0-.33.847-.789 2.147 0 0 4.396 3.204 4.083 4.79-.315 1.588-1.622 2.667-2.971 2.512-1.35-.158-3.224-1.288-3.224-1.288-.51 1.331-3.065 5.384-3.065 5.384s3.994 3.012 3.961 7.943c-.01.852.003 1.684-.235 2.488 1.847.52 3.139 1.156 4.344 1.812 1.042-5.697 2.276-10.11 4.339-14.252 1.79-3.588 3.859-6.697 4.312-9.185.065-.274.104-.558.112-.846.096-2.693-2.333-4.873-5.419-4.873" fill="#dab838"/><path d="M126.145 94.427c-5.52 0-8.89-1.432-10.87-2.812.016.814.105 1.626.105 2.334 0 2.856 1.06 11.847 10.765 11.847 9.694 0 10.758-8.99 10.758-11.847 0-.708.092-1.52.109-2.334-1.984 1.38-5.354 2.812-10.867 2.812M178.364 56.879c.7 1.172 1.183 2.145 2.672 4.049 1.505 1.917 4.25 3.817.932 8.808a7.401 7.401 0 006.437-7.323c0-1.898-.708-3.334-1.896-4.936-2.661-3.769-7.629-6.778-2.968-13.308-5.434.072-9.036 4.296-6.814 9.392l1.637 3.318" fill="#dab838"/><path d="M179.937 61.567c-.822-.858-1.677-1.746-2.425-2.859-.465-.67-.793-1.399-1.161-2.039a7.356 7.356 0 00-2.742 5.731 7.399 7.399 0 007.394 7.408c.314 0 .616-.024.916-.063 2.145-4.013.166-5.934-1.982-8.178" fill="#dab838"/><path d="M181.01 73.492c-1.74 0-6.443-.608-8.698-4.424-2.415.695-3.984 1.604-4.948 2.33.104.551.205 1.117.308 1.658 1.788 8.001 8.504 13.548 8.504 13.548-3.224 0-4.76.865-5.463 2.077 1.178 1.154 4.075 3.079 10.296 3.079 6.215 0 9.11-1.925 10.292-3.079-.708-1.212-2.244-2.077-5.462-2.077 0 0 6.718-5.547 8.504-13.548.1-.541.201-1.107.302-1.659-.966-.725-2.53-1.634-4.942-2.329-2.26 3.816-6.962 4.424-8.694 4.424M166.383 65.97c1.21-.655 2.505-1.286 4.348-1.809-.242-.808-.234-1.646-.239-2.501-.03-4.935 3.959-7.947 3.959-7.947s-2.554-4.053-3.063-5.38c0 0-1.87 1.126-3.227 1.284-1.349.155-2.652-.924-2.969-2.512-.31-1.586 4.084-4.79 4.084-4.79-.459-1.3-.79-2.147-.79-2.147-.8-1.953-2.955-3.368-5.44-3.368-3.094 0-5.523 2.18-5.431 4.873.014.288.052.572.116.846.45 2.488 2.521 2.937 4.31 7.061 2.068 4.767 3.302 10.692 4.342 16.39M198.97 36.8c-2.489 0-4.65 1.415-5.447 3.368 0 0-.328.847-.787 2.147 0 0 4.393 3.204 4.084 4.79-.312 1.588-1.625 2.667-2.975 2.512-1.348-.158-3.221-1.288-3.221-1.288-.512 1.331-3.064 5.384-3.064 5.384s3.992 3.012 3.957 7.943c-.009.852.006 1.684-.233 2.488 1.845.52 3.137 1.156 4.343 1.812 1.045-5.697 2.276-10.11 4.338-14.252 1.792-3.588 3.863-6.697 4.316-9.185.062-.274.102-.558.112-.846.096-2.693-2.336-4.873-5.422-4.873" fill="#dab838"/><path d="M181.01 94.427c-5.52 0-8.891-1.432-10.87-2.812.016.814.101 1.626.101 2.334 0 2.856 1.063 11.847 10.768 11.847 9.691 0 10.759-8.99 10.759-11.847 0-.708.088-1.52.107-2.334-1.982 1.38-5.352 2.812-10.866 2.812" fill="#dab838"/><path d="M185.393 273.264c5.61 0 10.443-2.31 12.624-9.253 1.388-4.406 11.844-31.867 11.514-33.626-.331-1.76-.68-2.606-2.943-3-2.257-.394-80.448-12.4-80.448-12.4s-78.183 12.006-80.444 12.4c-2.26.394-2.61 1.24-2.941 3-.332 1.759 10.126 29.22 11.51 33.626 2.187 6.942 7.017 9.253 12.628 9.253h118.5" fill="#258f39"/><path d="M13.678 259.764h35.92l-11.693-33.157a2.494 2.494 0 011.172-3.03l6.368-3.408s5.98-2.75-.517-2.75H1.954c-3.161 0-1.857 1.66-.463 2.66 1.213.872 23.808 17.166 24.464 17.716.659.546.873 1.117.123 2.156-.612.854-12.605 17.518-13.165 18.242-.56.724-.76 1.571.765 1.571M238.61 259.764h-35.923l11.696-33.157a2.5 2.5 0 00-1.178-3.03l-6.362-3.408s-5.982-2.75.51-2.75h42.975c3.161 0 1.856 1.66.463 2.66-1.214.872-23.807 17.166-24.466 17.716-.656.546-.873 1.117-.12 2.156.618.854 12.604 17.518 13.164 18.242.56.724.76 1.571-.76 1.571" fill="#258f39"/><path d="M70.114 139.132c-.95-1.001-1.933-2.019-2.802-3.303-.54-.778-.915-1.618-1.344-2.361a8.533 8.533 0 00-3.172 6.627 8.553 8.553 0 008.545 8.56c.359 0 .721-.03 1.067-.075 2.474-4.637.185-6.857-2.294-9.448" fill="#231f20"/><path d="M77.71 134.407c-3.08-4.359-8.815-5.586-3.437-12.371-6.272.075-9.677 4.453-7.486 9.748v.004c.146.353.32.707.522 1.07l-.006.002c.404.724.775 1.563 1.316 2.37.788 1.214 1.709 2.207 2.591 3.166 2.56 2.781 5.079 4.404 1.25 10.176a8.546 8.546 0 007.438-8.467c0-2.188-.818-3.849-2.188-5.698M97.505 139.132c-.946-1.001-1.927-2.019-2.797-3.303-.534-.778-.914-1.618-1.344-2.361a8.526 8.526 0 00-3.17 6.627 8.549 8.549 0 008.542 8.56c.36 0 .722-.03 1.073-.075 2.474-4.637.18-6.857-2.304-9.448" fill="#231f20"/><path d="M105.109 134.407c-3.084-4.359-8.82-5.586-3.44-12.371-6.279.075-9.683 4.453-7.485 9.748v.004c.146.353.315.707.521 1.07l-.005.002c.404.724.773 1.563 1.315 2.37.794 1.214 1.708 2.207 2.591 3.166 2.56 2.781 5.08 4.404 1.25 10.176 4.196-.55 7.44-4.121 7.44-8.467 0-2.188-.82-3.849-2.187-5.698M124.903 139.132c-.95-1.001-1.927-2.019-2.797-3.303-.539-.778-.92-1.618-1.343-2.361a8.494 8.494 0 00-3.17 6.627c-.01 4.724 3.818 8.554 8.542 8.56.362 0 .716-.03 1.068-.076 2.474-4.636.184-6.856-2.3-9.447" fill="#231f20"/><path d="M132.502 134.407c-3.078-4.359-8.818-5.586-3.437-12.371-6.276.075-9.68 4.453-7.49 9.748v.004c.154.353.323.707.529 1.07l-.01.002c.408.724.778 1.563 1.314 2.37.792 1.214 1.709 2.207 2.591 3.166 2.568 2.781 5.086 4.404 1.253 10.176 4.198-.55 7.435-4.121 7.435-8.467 0-2.188-.812-3.849-2.185-5.698M152.299 139.132c-.943-1.001-1.927-2.019-2.791-3.303-.545-.778-.923-1.618-1.347-2.361a8.492 8.492 0 00-3.169 6.627 8.544 8.544 0 008.541 8.56c.363 0 .716-.03 1.066-.076 2.473-4.636.186-6.856-2.3-9.447" fill="#231f20"/><path d="M159.903 134.407c-3.08-4.359-8.82-5.586-3.443-12.371-6.273.075-9.676 4.453-7.484 9.748v.004c.148.353.32.707.524 1.07l-.008.002c.408.724.779 1.563 1.317 2.37.79 1.214 1.711 2.207 2.588 3.166 2.568 2.781 5.084 4.404 1.259 10.176 4.192-.55 7.43-4.121 7.435-8.467 0-2.188-.818-3.849-2.188-5.698M179.7 139.132c-.945-1.001-1.93-2.019-2.797-3.303-.539-.778-.922-1.618-1.343-2.361a8.499 8.499 0 00-3.172 6.627 8.547 8.547 0 008.544 8.56c.359 0 .713-.03 1.065-.076 2.476-4.636.184-6.856-2.297-9.447" fill="#231f20"/><path d="M187.296 134.407c-3.077-4.359-8.815-5.586-3.435-12.371-6.278.075-9.682 4.453-7.489 9.748v.004c.15.353.32.707.525 1.07l-.009.002c.408.724.779 1.563 1.315 2.37.794 1.214 1.713 2.207 2.59 3.166 2.563 2.781 5.087 4.404 1.254 10.176 4.197-.55 7.437-4.121 7.437-8.467 0-2.188-.815-3.849-2.188-5.698M84.302 167.513c-.946-1.001-1.93-2.02-2.795-3.3-.544-.78-.922-1.62-1.346-2.362a8.513 8.513 0 00-3.17 6.625 8.546 8.546 0 008.542 8.56c.362 0 .722-.03 1.068-.073 2.474-4.638.185-6.86-2.3-9.45" fill="#231f20"/><path d="M91.9 162.79c-3.08-4.358-8.817-5.589-3.434-12.37-6.28.076-9.683 4.45-7.49 9.75.149.357.32.707.523 1.073l-.007.002c.409.722.778 1.558 1.315 2.366.791 1.213 1.713 2.21 2.596 3.166 2.555 2.783 5.078 4.404 1.253 10.176a8.546 8.546 0 007.435-8.466c0-2.187-.818-3.851-2.19-5.698M111.7 167.513c-.948-1.001-1.93-2.02-2.797-3.3-.542-.78-.922-1.62-1.344-2.362a8.5 8.5 0 00-3.172 6.625 8.55 8.55 0 008.545 8.56c.36 0 .713-.03 1.065-.073 2.476-4.638.185-6.86-2.297-9.45" fill="#231f20"/><path d="M119.296 162.79c-3.078-4.358-8.815-5.589-3.435-12.37-6.278.076-9.682 4.45-7.49 9.75.152.357.321.707.527 1.073l-.01.002c.403.722.778 1.558 1.32 2.366.789 1.213 1.708 2.21 2.586 3.166 2.562 2.783 5.086 4.404 1.258 10.176a8.548 8.548 0 007.437-8.466c0-2.187-.823-3.851-2.193-5.698M139.09 167.513c-.942-1.001-1.92-2.02-2.789-3.3-.541-.78-.921-1.62-1.344-2.362a8.5 8.5 0 00-3.171 6.625c-.01 4.723 3.815 8.556 8.545 8.56.358 0 .713-.03 1.066-.076 2.472-4.635.183-6.856-2.306-9.447" fill="#231f20"/><path d="M146.695 162.79c-3.078-4.358-8.818-5.589-3.438-12.37-6.273.076-9.677 4.45-7.492 9.75.156.357.326.707.531 1.073l-.01.002c.403.722.778 1.558 1.315 2.366.795 1.213 1.711 2.21 2.591 3.166 2.563 2.783 5.081 4.404 1.253 10.176 4.192-.546 7.438-4.121 7.438-8.466 0-2.187-.819-3.851-2.188-5.698M111.7 198.262c-.948-1-1.93-2.02-2.797-3.304-.542-.775-.922-1.617-1.344-2.358a8.499 8.499 0 00-3.172 6.624 8.55 8.55 0 008.545 8.56c.36 0 .713-.03 1.065-.072 2.476-4.642.185-6.86-2.297-9.45" fill="#231f20"/><path d="M119.296 193.535c-3.078-4.358-8.815-5.584-3.435-12.368-6.278.077-9.682 4.453-7.49 9.75v.003c.152.354.321.705.527 1.07l-.01.003c.403.723.778 1.56 1.32 2.367.789 1.214 1.708 2.208 2.586 3.167 2.562 2.778 5.086 4.404 1.258 10.174a8.547 8.547 0 007.437-8.466c0-2.187-.823-3.85-2.193-5.7M139.09 198.262c-.942-1-1.92-2.02-2.789-3.304-.541-.775-.921-1.617-1.344-2.358a8.5 8.5 0 00-3.171 6.624c-.01 4.724 3.815 8.555 8.545 8.56.358 0 .713-.03 1.066-.075 2.472-4.639.183-6.857-2.306-9.447" fill="#231f20"/><path d="M146.695 193.535c-3.078-4.358-8.818-5.584-3.438-12.368-6.273.077-9.677 4.453-7.492 9.75v.003c.156.354.326.705.531 1.07l-.01.003c.403.723.778 1.56 1.315 2.367.795 1.214 1.711 2.208 2.591 3.167 2.563 2.778 5.081 4.404 1.253 10.174 4.192-.546 7.438-4.12 7.438-8.466 0-2.187-.819-3.85-2.188-5.7M166.495 167.513c-.951-1.001-1.931-2.02-2.803-3.3-.533-.78-.913-1.62-1.339-2.362a8.506 8.506 0 00-3.169 6.625 8.545 8.545 0 008.543 8.56 8.3 8.3 0 001.066-.076c2.475-4.635.186-6.856-2.298-9.447" fill="#231f20"/><path d="M174.093 162.79c-3.081-4.358-8.817-5.589-3.44-12.37-6.273.076-9.677 4.45-7.484 9.75.148.357.32.707.52 1.073l-.005.002c.404.722.779 1.558 1.316 2.366.793 1.213 1.713 2.21 2.59 3.166 2.56 2.783 5.085 4.404 1.251 10.176 4.2-.546 7.44-4.121 7.44-8.466 0-2.187-.821-3.851-2.188-5.698" fill="#231f20"/><path d="M71.623 258.037h-3.492v-12.852c-.74.28-1.327.527-2.16.711l-.927-3.49c2.469-.556 4.354-1.453 6.58-3.06v18.691M77.736 258.47c-1.3 0-2.349-1.05-2.349-2.347a2.347 2.347 0 114.696 0 2.345 2.345 0 01-2.347 2.346M97.41 241.664l-2.285 2.657c-.961-1.237-2.193-1.698-3.803-1.698-2.84 0-3.953 3.305-3.953 6.146 0 2.84 1.112 6.148 3.953 6.148 1.61 0 2.842-.464 3.803-1.698l2.286 2.657c-1.7 1.882-3.524 2.624-6.089 2.624-4.817 0-7.658-4.91-7.658-9.73s2.994-9.733 7.658-9.733c2.565 0 4.388.744 6.089 2.627M102.377 264.988l-2.966-1.761c1.607-1.234 2.346-2.657 2.346-4.695v-11.186h-2.471v-3.52h2.471v-1.607c0-2.995 1.917-5.343 4.852-5.96l2.008 2.038c-1.977.342-3.336 1.915-3.336 3.922v1.608h2.781v3.52h-2.781v11.185c0 2.75-.865 4.632-2.904 6.456M119.887 252.23c0-1.454-1.388-2.102-3.395-2.102h-1.237v4.357h1.237c1.914 0 3.395-.773 3.395-2.256zm-.77-7.477c0-1.237-1.175-1.698-2.935-1.698h-.927v3.552h.927c1.698 0 2.935-.619 2.935-1.854zm4.479 7.878c0 3.398-2.625 5.406-7.104 5.406h-4.852v-18.534h4.852c3.862 0 6.333 1.545 6.333 4.633 0 1.852-.927 3.245-2.781 4.016 2.164.617 3.552 2.008 3.552 4.479M133.905 258.037v-18.534h3.647v8l6.64-8.31 3.03 1.667-6.55 7.602 7.567 8.093-3.182 1.945-7.505-8.867v8.404h-3.647M161.176 239.503a1.79 1.79 0 11-3.584-.003 1.79 1.79 0 013.584.003zm-4.91 15.477c2.007 0 3.15-2.04 3.15-4.047 0-2.01-1.143-4.048-3.15-4.048-2.009 0-3.151 2.038-3.151 4.048 0 2.007 1.142 4.047 3.15 4.047zm-.834-15.508c0 .986-.805 1.792-1.795 1.792a1.796 1.796 0 01-1.792-1.792c0-.99.806-1.795 1.792-1.795.99 0 1.795.806 1.795 1.795zM163 250.933c0 3.984-2.779 7.567-6.735 7.567-3.953 0-6.734-3.583-6.734-7.567 0-3.988 2.781-7.57 6.734-7.57 3.956 0 6.735 3.582 6.735 7.57M166.02 258.037v-21.316h3.587v21.316h-3.587M172.135 245.248l2.966-1.76c.678.495 1.792 2.099 1.792 2.099s2.224-2.287 4.695-2.287c2.53 0 4.757 1.795 4.757 4.419v10.318h-3.522v-8.649c0-1.143-.186-2.38-1.73-2.38-1.885 0-3.088 2.659-3.088 2.659v8.37h-3.521v-8.094c0-2.04-.743-3.46-2.35-4.695" fill="#fff"/></svg>