<svg id="Ebene_1" data-name="Ebene 1" xmlns="http://www.w3.org/2000/svg" viewBox="0 0 6197 400"><title>Zeichenfläche 1</title><g id="_3F5LkH" data-name="3F5LkH"><path d="M5256.81,357.972,5146.652,368.4c-3.32-31.749-6.332-60.555-9.345-89.361l-7.361-1.615-32.86,86.514-101.352,11.241c-17.418-105.987-34.345-208.986-51.867-315.6l119.317-18.116c4.574,35.142,8.793,67.558,14.431,110.874l37.378-101.111,107.252-13.641c2.084,31.831,4,61.05,5.908,90.268l4.881,2.252,33.549-81.086,131.4-13.463Z"/><path d="M1336.516,375.7,1415.9,12.185C1476.569,8,1535.782,3.557,1595.054.127c11.712-.678,23.906,1.451,35.434,4.17,33.1,7.806,67.309,17.118,76.721,55.29,8.885,36.036-17.075,56.779-41.759,76.563-2.5,2-4.059,5.186-7.236,9.382,31.63,12.382,60.83,26.626,62.926,64.886,2.287,41.747-20.646,70.147-53.505,90.845-65.255,41.105-139.5,54.271-214.146,64.41C1416.1,370.75,1378.232,372.247,1336.516,375.7Zm235.739-151.917c-47.446-23.741-75.069-12.661-75.935,27.035Zm-52.377-109.09,6.925,6.614L1564.427,98.1,1561,90.137h-33.836Z"/><path d="M3972.684,345.626,3843.6,400,3736.836,281.369l-25.912,92.663-120.278,10.03L3678.5,41.932c68.719-15.591,135.8-25.409,203.895-12.409,80.247,15.32,104.4,80.172,51.648,142.357-21.179,24.965-49.78,43.633-78.55,68.195,16.7,15.458,35.184,32.919,54.062,49.943C3928.865,307.432,3948.563,324.416,3972.684,345.626ZM3762.859,175.052l7.946,6.356,66.176-44.2-5.167-11.681h-57.783Z"/><path d="M764.573,43.763l95.343-9.46,55.89,125.41L945.14,38.189l126.205-12.965-88.2,336.3L881.292,373.443,837.913,234.629,805.861,362l-122.3,10.392Z"/><path d="M3350.592,375.424c-88.344,1.389-147.211-70.641-128.481-157.207C3245.271,111.179,3344.72,28.6,3452.445,26.964c104.329-1.588,162.75,75.575,133.723,176.622C3558.274,300.69,3458.137,373.733,3350.592,375.424Zm126.7-212.483c-6.852-4.81-18.055-18.992-30.647-20.356-41.867-4.534-103.4,53.511-100.4,94.863.833,11.491,14.7,29.177,25.348,31.529C3409.4,277.33,3477.447,213.527,3477.288,162.94Z"/><path d="M4648.209,21.442l-32.778,99.578L4505.306,129.5q-.181,3.344-.363,6.687h117.9l-31.782,91.158c-37.668,21.259-84.307-7.345-126.4,28.119h182.551L4603.8,368.15H4318.027l81.2-334.27Z"/><path d="M5379.052,369.111c-.125-1.441-1.348-5.077-.585-8.232,26.056-107.726,52.3-215.406,79.531-327.253L5706.191,21.6l-31.908,99.08-108.024,9.1.348,7.769h114.267l-31.742,91.143c-38.24,16.743-83.583-4.887-118.881,17.539l1.919,9.136h173.761L5661.8,369.111Z"/><path d="M396.917,31.305,522.84,21.225c-12.35,82.362-52.09,155.822-57.443,236.067l16.363,7.7c10.773-14.68,25.763-27.879,31.532-44.315,17.742-50.541,31.943-102.325,47.55-153.617,3.758-12.35,7.628-24.665,12.01-38.814l128.427-9.9c-28,90.295-49.113,174.6-80.665,254.789-23.773,60.421-77.876,92.177-142.489,100.517-80.9,10.443-137.668-41.807-126.574-122.408C361.72,177.358,381.375,104.779,396.917,31.305Z"/><path d="M2849.152,372.377,2938.316,37.91c60.595,4.069,121.861,1.488,180.027,13.687,83.556,17.524,122.895,105.167,80.273,179.325-20.867,36.307-55.341,70.585-91.925,90.867C3029.2,364.748,2941.751,372.565,2849.152,372.377ZM2998.61,245.526l9.386,9.649c26.638-17.35,57.053-30.968,78.889-53.064,23.509-23.788,8.135-54.528-25.495-58.2-11.4-1.245-23.161.754-36.574,1.351Z"/><path d="M1893.173,13.994l128.85-8.677L2069.1,353.67l-118.279,11.11-5.052-57.283-73.791,4.443-28.654,59.953H1714.952ZM1941.52,169.07l-8.65-2.808L1918.6,203.33l14.522,4.329Z"/><path d="M290.393,133.388,186.1,139.175l.86,11.608h113.5L266.9,253.379H156.167L124.085,364.242.042,376.273,91.568,39.629l231.4-13.455Z"/><path d="M4233.214,140.287l-58.332,231.235-129.655,9.388,69.226-235.534h-90.015l40.118-113.147h271.205l-33.283,101.316Z"/><path d="M2536.065,262.719l99.307-7.739L2591.3,373.693,2376.3,386.962l88.373-337.775,132.654-7.56Z"/><path d="M2102.668,386.731,2191.457,49.1l132.483-7.611-61.283,220.22,99.028-6.014L2317.5,373.927Z"/><path d="M4663.03,386.875c30.642-116.26,59.689-226.467,89.077-337.972l132.278-7.24-61.137,220.18,99.433-6.336L4877.67,373.984Z"/><path d="M6025.931,48.761l132.438-6.932-61.026,220.606,99.615-7.514L6151.941,374,5937.2,386.8Z"/><path d="M5817.907,41.243l131.164-12.081-94.224,334.786-133.4,10.063Z"/><path d="M1333.119,168.028,1301,252.336H1061.106l29.028-84.307Z"/></g></svg>