<svg id="Ebene_1" data-name="Ebene 1" xmlns="http://www.w3.org/2000/svg" viewBox="0 0 136 180"><defs><style>.cls-1{fill:#252525;}.cls-2{fill:#0c8f78;}.cls-3{fill:#f7f9f8;}</style></defs><title>Zeichenfläche 1</title><g id="WULUJt"><path class="cls-1" d="M0,104V0H136V106c-.333.262-.988.587-.952.777.515,2.652-.492,5.1-1.1,7.545a75.519,75.519,0,0,1-4.917,14.88,86.091,86.091,0,0,1-12.519,19.672A103.285,103.285,0,0,1,95.3,167.251a167.21,167.21,0,0,1-19.318,9.862c-2,.819-4.347,1.2-5.977,2.887H66c-.29-2.142-2.539-.3-3.55-1.8-.676-1-2.856-.877-4.237-1.525-9.728-4.564-19.282-9.583-27.446-16.575-10.021-8.583-18.4-18.664-23.752-30.925-3.26-7.462-5.965-15.092-6.029-23.394C.981,105.061,1.369,104.013,0,104Zm123-8V12H16.556a9.625,9.625,0,0,0-2.481.048A8.785,8.785,0,0,0,12,13.315q0,21,.014,41.9c0,.721-.388,1.774.986,1.787V87c-.333.431-.938.851-.955,1.293C11.951,90.762,12,93.236,12,96.054H1.824c.728,3.019-.331,5.655.964,8.488,1.059,2.315.379,5.279,1.076,8.02,1.379,5.424,2.711,10.856,5.184,15.86,4.6,9.307,10.093,18.041,17.937,25.049,2.294,2.05,4.682,3.992,7,6.018a76.527,76.527,0,0,0,14.059,9.5A129.336,129.336,0,0,0,68,177.9c3.68-1.386,7.362-2.29,10.536-4.089,4.048-2.293,8.255-4.29,12.28-6.65a113.868,113.868,0,0,0,17.51-13.089,67.555,67.555,0,0,0,7.593-8.263,68.136,68.136,0,0,0,9.415-14.637c1.216-2.662,2.452-5.314,3.669-7.975,1.482-3.243,3.923-13.239,4-16.332.021-.82-.238-1.83.143-2.427,1.781-2.791.53-5.621.731-8.438Z"/><path class="cls-2" d="M13,87V57c2.374,1.294,4.723,2.687,7.106,2.018,1.542-.835,2.675-1.362,3.714-2.035,1.123-.728,2.158-1.592,4.14-3.077-4.122.339-6.119-1.367-8.37-3.942,3.949.465,6.609-.949,8.748-4.227L23.77,41.916a9.743,9.743,0,0,1,2.33-1.872c4.084-1.577,5.386-2.516,6.878-5.763.625-1.362,1-2.837,1.537-4.38,2,5.267,5.926,8.506,10.858,10.947l-3.583,4.19c2.4,2.656,6.418,2.03,8.752,5.329L45.188,53.5c3.078,2.6,3.078,2.6,9.321,1.484l4.476-4.566V48.274a15.932,15.932,0,0,1-9.953-5.806c5.231-1.429,7.151-2.7,9.109-6.178l-5.067-2.858V31.38a28.47,28.47,0,0,0,3.119-1.111c.977-.474,2.549-1.054,2.648-1.758.3-2.128,2.411-2.607,3.174-4.214.927-1.951,2.436-3.761,2.812-5.8a23.326,23.326,0,0,1,1.787-4.838c1.82,8.536,6.208,14.5,13.709,18.161-1.569,2.569-3.9,3-6.387,3.5,2.621,2.92,5.035,5.805,9.91,6.1l-3.977,4.2-6.235,1.954,2.9,4.2,4.227,2.113c4.1.105,6.264-.739,8.978-3.658-.91-1.566-3.913-1.137-3.712-3.8,3.494-1.09,6.931-2.146,9.374-5.652l-4.063-3.125,4.954-1.929,4.65-4.321.363-3.592c2.1,5.375,5.845,7.5,10.091,9.453l-4.627,3.9a14.123,14.123,0,0,0,10.167,5.094l-3.207,3.525-2.831.662c.711,2.886,2.169,4.6,5.584,5.548a17.344,17.344,0,0,0,2.936-.038A26.043,26.043,0,0,0,123,55V87Zm78.1-5H113.5c4.525-2.892,4.525-2.892,4.477-9.508l-2.818-4.179,2.1-.759c-.943-2.069.966-4.656-1.7-6.467h-18.7c-5.172,1.1-5.953,4.239-6.622,6.516.464,2.211.78,3.72,1.128,5.378l2.829,1.767-3.083.47ZM59.3,82H75.182c.8-.42,1.351-.711,1.9-1a6.683,6.683,0,0,0,3.847-5.637C81.165,70.6,81,65.816,81,61.149H71c0,2.282.013,4.422,0,6.562-.016,2.105-.061,4.209-.09,6.112H62.97V61.205H54.131V77.9ZM28.176,70.676V81.9H35.6l1.516-1.516V68.853h7.943c-.22-2.41.223-4.666-.262-6.663H20.117v6.72H26.41Z"/><path class="cls-3" d="M123,55a26.043,26.043,0,0,1-3.586.962,17.344,17.344,0,0,1-2.936.038c-3.415-.952-4.873-2.662-5.584-5.548l2.831-.662,3.207-3.525a14.123,14.123,0,0,1-10.167-5.094l4.627-3.9c-4.246-1.952-7.99-4.078-10.091-9.453l-.363,3.592-4.65,4.321-4.954,1.929L95.4,40.781c-2.443,3.506-5.88,4.562-9.374,5.652-.2,2.666,2.8,2.237,3.712,3.8-2.714,2.919-4.879,3.763-8.978,3.658L76.53,51.781l-2.9-4.2,6.235-1.954,3.977-4.2c-4.875-.3-7.289-3.181-9.91-6.1,2.486-.5,4.818-.93,6.387-3.5-7.5-3.664-11.889-9.625-13.709-18.161A23.326,23.326,0,0,0,64.827,18.5c-.376,2.034-1.885,3.844-2.812,5.8-.763,1.607-2.876,2.086-3.174,4.214-.1.7-1.671,1.284-2.648,1.758a28.47,28.47,0,0,1-3.119,1.111v2.052l5.067,2.858c-1.958,3.48-3.878,4.749-9.109,6.178a15.932,15.932,0,0,0,9.953,5.806v2.143l-4.476,4.566C48.266,56.1,48.266,56.1,45.188,53.5l5.354-3.132c-2.334-3.3-6.351-2.673-8.752-5.329l3.583-4.19c-4.932-2.441-8.858-5.68-10.858-10.947-.532,1.543-.912,3.018-1.537,4.38-1.492,3.247-2.794,4.186-6.878,5.763a9.743,9.743,0,0,0-2.33,1.872l4.568,3.821c-2.139,3.278-4.8,4.692-8.748,4.227,2.251,2.575,4.248,4.281,8.37,3.942-1.982,1.485-3.017,2.349-4.14,3.077-1.039.673-2.172,1.2-3.714,2.035C17.723,59.687,15.374,58.294,13,57c-1.374-.013-.985-1.066-.986-1.787Q11.985,34.29,12,13.315a8.785,8.785,0,0,1,2.075-1.267A9.625,9.625,0,0,1,16.556,12H123Z"/><path class="cls-3" d="M13,87H123v9.083q-54.917.124-110,.083c0,3.307-.626,6.613.136,9.559,1.389,5.369,1.509,11.181,4.864,15.959,1.7,7.07,6.135,12.689,10.52,18.08a68.5,68.5,0,0,0,12.82,12.211,119.684,119.684,0,0,0,15.877,10c3.565,1.821,7.232,3.44,10.862,5.152,4.83-3.337,10.441-4.824,15.379-7.851,5.686-3.485,11.37-6.879,16.187-11.491a78.134,78.134,0,0,0,9.647-10.458,103.961,103.961,0,0,0,7.66-12.35,52.821,52.821,0,0,0,4.032-11.319c1.052-3.985,2.227-7.957,2.03-12.164-.085-1.829-.014-3.665-.014-5.415C126.5,96,130,96,133.876,96c-.2,2.817,1.05,5.647-.731,8.438-.381.6-.122,1.607-.143,2.427-.08,3.093-2.521,13.089-4,16.332-1.217,2.661-2.453,5.313-3.669,7.975a68.136,68.136,0,0,1-9.415,14.637,67.555,67.555,0,0,1-7.593,8.263,113.868,113.868,0,0,1-17.51,13.089c-4.025,2.36-8.232,4.357-12.28,6.65-3.174,1.8-6.856,2.7-10.536,4.089a129.336,129.336,0,0,1-19.956-8.913,76.527,76.527,0,0,1-14.059-9.5c-2.314-2.026-4.7-3.968-7-6.018-7.844-7.008-13.337-15.742-17.937-25.049-2.473-5-3.8-10.436-5.184-15.86-.7-2.741-.017-5.7-1.076-8.02-1.295-2.833-.236-5.469-.964-8.488H12c0-2.818-.049-5.292.045-7.761C12.062,87.851,12.667,87.431,13,87Z"/><path class="cls-3" d="M91.1,82V75.218l3.083-.47-2.829-1.767c-.348-1.658-.664-3.167-1.128-5.378.669-2.277,1.45-5.413,6.622-6.516h18.7c2.671,1.811.762,4.4,1.7,6.467l-2.1.759,2.818,4.179c.048,6.616.048,6.616-4.477,9.508Zm3.139-9.26c5.369,1.035,10.726-1.075,15.643,1.529v2.8H93.124v2.807h20.391L116,77.526c0-1.716,0-3.376,0-5.035l-2.627-2.627H99.234L97.621,67.7l2.1-1.917h15.692L113.735,63c-4.866,0-9.662.062-14.456-.027a7.574,7.574,0,0,0-6.16,2.423v6.223Z"/><path class="cls-3" d="M59.3,82l-5.173-4.1V61.205H62.97V73.823h7.936c.029-1.9.074-4.007.09-6.112.017-2.14,0-4.28,0-6.562H81c0,4.667.165,9.451-.068,14.214A6.683,6.683,0,0,1,77.085,81c-.552.289-1.1.58-1.9,1ZM56,76.441c2.111,2.539,4.626,3.926,8.052,3.6,2.477-.232,5,.069,7.491-.078a9.776,9.776,0,0,0,6.279-2.215V63.1H74.116V73.181l-2.568,2.8H62.484l-1.605-1.6V63.252H56Z"/><path class="cls-3" d="M28.176,70.676,26.41,68.91H20.117V62.19H44.8c.485,2,.042,4.253.262,6.663H37.118V80.382L35.6,81.9H28.176ZM42.91,64.16H22.093V67H30c0,2.306-.016,4.275,0,6.243.019,1.929.076,3.857.113,5.587H34c0-2.14-.015-4.11,0-6.079.02-1.926.075-3.851.118-5.916H42.91Z"/><path class="cls-1" d="M123,96.166c0,1.667-.071,3.5.014,5.332.2,4.207-.978,8.179-2.03,12.164a52.821,52.821,0,0,1-4.032,11.319,103.961,103.961,0,0,1-7.66,12.35,78.134,78.134,0,0,1-9.647,10.458c-4.817,4.612-10.5,8.006-16.187,11.491-4.938,3.027-10.549,4.514-15.379,7.851-3.63-1.712-7.3-3.331-10.862-5.152a119.684,119.684,0,0,1-15.877-10,68.5,68.5,0,0,1-12.82-12.211c-4.385-5.391-8.822-11.01-10.52-18.08-3.355-4.778-3.475-10.59-4.864-15.959-.762-2.946-.136-6.252-.136-9.559ZM69.239,153.919l5.247-2.692,2.024,3.047,6.361-1.527V127.223H65.146v5.917H75.3c-.366,4.057-.7,7.74-.974,10.791l-3.773,4.04H63.539L59.9,145.614c-1.363-4.081-.993-8.18-.859-12.217.139-4.195.717-8.373.926-12.568.156-3.139.031-6.292.031-9.334,3.749-3.565,3.749-3.565,9.74-3.359l4.514,3.393V119H82c0-2.658.03-4.968-.007-7.277-.054-3.289-3.423-8.324-6.489-8.584-3.694-.313-7.365-2.074-11.017-1.019a22.214,22.214,0,0,1-5.836.879,10.219,10.219,0,0,1-2.459,1.948,6.1,6.1,0,0,0-3.684,4.092,17.323,17.323,0,0,0-1.548,6.366c.109,7.154.025,14.31.046,21.465.012,4.022-.49,8.107,1.016,11.2C56.759,154.944,63.241,154.2,69.239,153.919Z"/><path class="cls-1" d="M94.24,72.74l-1.121-1.121V65.4a7.574,7.574,0,0,1,6.16-2.423c4.794.089,9.59.027,14.456.027l1.677,2.785H99.72l-2.1,1.917,1.613,2.162h14.13c.982.982,1.8,1.8,2.629,2.627,0,1.659,0,3.319,0,5.035l-2.48,2.348H93.124V77.067h16.759v-2.8C104.966,71.665,99.609,73.775,94.24,72.74Z"/><path class="cls-1" d="M56,76.441V63.252h4.879V74.379l1.605,1.6h9.064l2.568-2.8V63.1h3.706V77.752a9.776,9.776,0,0,1-6.279,2.215c-2.49.147-5.014-.154-7.491.078C60.626,80.367,58.111,78.98,56,76.441Z"/><path class="cls-1" d="M42.91,64.16v2.673H34.122c-.043,2.065-.1,3.99-.118,5.916-.019,1.969,0,3.939,0,6.079H30.118c-.037-1.73-.094-3.658-.113-5.587C29.984,71.273,30,69.3,30,67H22.093V64.16Z"/><path class="cls-3" d="M69.239,153.919c-6,.282-12.48,1.025-17.217-5.845-1.506-3.1-1-7.182-1.016-11.2-.021-7.155.063-14.311-.046-21.465a17.323,17.323,0,0,1,1.548-6.366,6.1,6.1,0,0,1,3.684-4.092A10.219,10.219,0,0,0,58.651,103a22.214,22.214,0,0,0,5.836-.879c3.652-1.055,7.323.706,11.017,1.019,3.066.26,6.435,5.3,6.489,8.584.037,2.309.007,4.619.007,7.277H74.254v-7.471l-4.514-3.393c-5.991-.206-5.991-.206-9.74,3.359,0,3.042.125,6.195-.031,9.334-.209,4.2-.787,8.373-.926,12.568-.134,4.037-.5,8.136.859,12.217l3.637,2.357h7.015l3.773-4.04c.275-3.051.608-6.734.974-10.791H65.146v-5.917H82.871v25.524l-6.361,1.527-2.024-3.047Z"/></g></svg>