<?xml version="1.0" encoding="UTF-8" standalone="no"?>
<svg
   viewBox="0 0 450.00001 450.00001"
   version="1.1"
   id="svg127"
   sodipodi:docname="harkenbleck.svg"
   inkscape:version="1.2.1 (9c6d41e410, 2022-07-14)"
   width="450"
   height="450"
   xmlns:inkscape="http://www.inkscape.org/namespaces/inkscape"
   xmlns:sodipodi="http://sodipodi.sourceforge.net/DTD/sodipodi-0.dtd"
   xmlns="http://www.w3.org/2000/svg"
   xmlns:svg="http://www.w3.org/2000/svg">
  <sodipodi:namedview
     id="namedview129"
     pagecolor="#ffffff"
     bordercolor="#666666"
     borderopacity="1.0"
     inkscape:showpageshadow="2"
     inkscape:pageopacity="0.0"
     inkscape:pagecheckerboard="0"
     inkscape:deskcolor="#d1d1d1"
     showgrid="false"
     inkscape:zoom="1.5010672"
     inkscape:cx="208.85141"
     inkscape:cy="253.81942"
     inkscape:window-width="1920"
     inkscape:window-height="1033"
     inkscape:window-x="0"
     inkscape:window-y="0"
     inkscape:window-maximized="1"
     inkscape:current-layer="svg127" />
  <defs
     id="defs4">
    <style
       id="style2">.f{fill:#fff;}.e{fill:url(#b);}</style>
  </defs>
  <g
     id="g2357"
     transform="translate(-59.188845,-36.775)">
    <path
       d="m 266.23,48.51 c 0.15,2.87 0.3,5.48 0.42,8.08 0.58,12.59 1.15,25.19 1.73,37.78 0.59,12.66 1.2,25.32 1.78,37.98 0.59,13.05 1.15,26.1 1.74,39.15 0.58,13.12 1.19,26.23 1.76,39.35 0.48,10.9 0.97,21.8 1.37,32.7 0.2,5.55 -4.41,10.09 -9.96,9.87 -0.44,-1.31 -0.9,-2.66 -1.34,-4.02 C 251.86,212.69 240,175.97 228.1,139.27 c -2.74,-8.46 -4.4,-17.09 -4.05,-26 0.73,-18.54 6.59,-35.2 18.74,-49.4 5.79,-6.77 12.89,-11.79 21.36,-14.75 0.6,-0.21 1.23,-0.37 2.08,-0.63 z"
       id="path8" />
    <path
       d="m 300.14,253.49 c -5.92,-0.17 -10.12,-4.45 -9.91,-10.07 0.41,-10.84 0.89,-21.67 1.36,-32.5 0.47,-10.9 0.96,-21.8 1.45,-32.69 0.6,-13.25 1.21,-26.49 1.81,-39.74 0.58,-12.86 1.15,-25.71 1.74,-38.57 0.58,-12.59 1.19,-25.19 1.79,-37.78 0.18,-3.85 0.35,-7.7 0.54,-11.55 0.03,-0.63 0.09,-1.26 0.15,-2.07 0.84,0.26 1.52,0.44 2.18,0.67 9.46,3.34 17.04,9.27 23.23,17.04 8.28,10.4 13.14,22.34 15.56,35.32 2.32,12.45 1.34,24.7 -2.56,36.74 -12.27,37.89 -24.51,75.78 -36.76,113.68 -0.16,0.49 -0.36,0.97 -0.56,1.52 z"
       id="path10" />
    <path
       d="m 250.45,258.74 c -3.12,1.26 -5.96,2.4 -9,3.63 -0.4,-0.64 -0.82,-1.27 -1.21,-1.93 -15.72,-26.66 -31.45,-53.33 -47.17,-80 -3.71,-6.3 -7.4,-12.62 -11.15,-18.9 -8.42,-14.13 -11.74,-29.47 -11.02,-45.79 0.4,-9 1.93,-17.78 5.28,-26.18 2.85,-7.13 6.85,-13.5 12.54,-18.72 0.62,-0.56 1.27,-1.09 2.19,-1.88 19.88,63.39 39.68,126.5 59.52,189.76 z"
       id="path12" />
    <path
       d="m 377.46,68.99 c 0.88,0.75 1.54,1.26 2.16,1.83 6.01,5.5 10.12,12.24 12.99,19.8 3.67,9.66 5.04,19.71 4.98,29.98 -0.09,14.81 -3.69,28.68 -11.39,41.41 -3.28,5.42 -6.45,10.91 -9.66,16.36 -16.15,27.4 -32.31,54.79 -48.46,82.19 -0.33,0.56 -0.68,1.1 -1.12,1.8 -2.97,-1.2 -5.91,-2.38 -9.01,-3.63 19.82,-63.19 39.61,-126.28 59.51,-189.74 z"
       id="path14" />
    <path
       d="m 227.92,269.86 c -2.55,1.84 -5.03,3.63 -7.59,5.48 -0.45,-0.43 -0.89,-0.81 -1.28,-1.22 -22.57,-23.51 -45.14,-47.02 -67.7,-70.54 -9.14,-9.52 -14.44,-20.99 -17.08,-33.8 -1.64,-7.99 -2.18,-16.04 -1.2,-24.16 0.78,-6.42 2.56,-12.52 5.77,-18.17 0.38,-0.67 0.8,-1.33 1.22,-2.01 1.32,1.27 84.38,137.84 87.86,144.42 z"
       id="path16" />
    <path
       d="m 348.07,275.35 c -2.62,-1.9 -5.1,-3.69 -7.67,-5.55 29.22,-48.19 58.39,-96.3 87.72,-144.67 0.62,1.01 1.12,1.76 1.56,2.55 3.57,6.39 5.42,13.3 5.9,20.54 0.96,14.52 -1.71,28.34 -8.41,41.32 -2.59,5.02 -5.86,9.58 -9.77,13.66 -22.74,23.71 -45.49,47.41 -68.24,71.11 -0.31,0.33 -0.65,0.63 -1.09,1.05 z"
       id="path18" />
    <path
       d="m 191.02,357.87 c 0.16,-41.05 26.71,-77.66 65.31,-89.88 47.38,-14.99 97.9,9.72 115.42,56.48 5.1,13.61 6.85,27.67 5.63,42.15 -3.26,38.46 -30.75,71.79 -67.82,82.1 -39.13,10.89 -80.49,-4.67 -102.8,-38.69 -8.31,-12.67 -13.35,-26.54 -14.95,-41.62 -0.37,-3.5 -0.53,-7.03 -0.79,-10.54 z m 5.85,0.03 c 0.32,3.97 0.46,7.96 0.99,11.9 2.09,15.46 7.82,29.45 17.26,41.89 22.27,29.33 60.15,41.57 94.98,30.75 33.78,-10.49 59.11,-41.04 61.61,-78.58 1.08,-16.17 -2.01,-31.57 -9.3,-46.09 -18.83,-37.47 -61.01,-56.26 -101.36,-45.04 -36.41,10.12 -63.87,43.9 -64.17,85.18 z"
       id="path20" />
    <path
       d="m 209.79,284.88 c -2.2,2.52 -4.26,4.87 -6.4,7.33 -0.5,-0.29 -1.01,-0.55 -1.49,-0.86 -21.97,-14.48 -43.94,-28.97 -65.91,-43.46 -4.29,-2.83 -8.08,-6.23 -11.19,-10.31 -9.12,-11.96 -13.92,-25.45 -14.04,-40.53 -0.03,-3.74 0.53,-7.42 1.52,-11.03 0.1,-0.37 0.25,-0.73 0.49,-1.44 32.41,33.5 64.65,66.82 97.02,100.29 z"
       id="path22" />
    <path
       d="m 365.01,292.21 c -2.1,-2.4 -4.16,-4.75 -6.21,-7.09 0.64,-1.26 92.86,-96.9 96.78,-100.35 0.2,0.49 0.43,0.91 0.55,1.36 2.02,7.54 1.93,15.12 0.39,22.71 -2.19,10.79 -6.4,20.67 -13.36,29.29 -3.02,3.73 -6.52,6.95 -10.53,9.6 -22.07,14.57 -44.15,29.13 -66.23,43.69 -0.43,0.28 -0.89,0.52 -1.39,0.8 z"
       id="path24" />
    <path
       d="m 195.71,303.24 c -1.65,3.09 -3.28,6.12 -4.96,9.27 -0.58,-0.18 -1.13,-0.33 -1.67,-0.53 -18.71,-7.01 -37.41,-14.04 -56.12,-21.05 -5.62,-2.11 -10.4,-5.45 -14.44,-9.84 -7.74,-8.41 -12.89,-18.16 -15.03,-29.44 -0.61,-3.22 -0.74,-6.46 -0.59,-9.68 0.16,-0.07 0.22,-0.1 0.28,-0.12 0.06,-0.01 0.14,-0.04 0.18,0 30.59,20.28 61.18,40.57 91.77,60.86 0.21,0.14 0.37,0.34 0.58,0.54 z"
       id="path26" />
    <path
       d="m 465.42,241.52 c 0.38,5.2 -0.2,9.91 -1.52,14.52 -3.3,11.45 -9.17,21.31 -18.34,29.05 -2.92,2.46 -6.19,4.35 -9.77,5.7 -18.95,7.12 -37.9,14.23 -56.84,21.34 -0.36,0.14 -0.74,0.23 -1.27,0.4 -1.66,-3.09 -3.32,-6.17 -5.04,-9.36 30.86,-20.5 61.67,-40.97 92.79,-61.64 z"
       id="path28" />
    <path
       d="m 106.07,293.32 c 26.56,10.28 53.19,20.59 79.94,30.95 -1.05,3.96 -2.07,7.84 -3.13,11.84 -2.18,-0.25 -4.31,-0.48 -6.43,-0.74 -12.51,-1.56 -25.01,-3.13 -37.52,-4.7 -3.88,-0.49 -7.54,-1.69 -10.81,-3.83 -11.82,-7.74 -19.29,-18.51 -22.23,-32.36 -0.05,-0.25 -0.07,-0.51 -0.09,-0.77 0,-0.05 0.07,-0.1 0.26,-0.38 z"
       id="path30" />
    <path
       d="m 382.36,324.28 c 26.75,-10.36 53.38,-20.67 80.38,-31.12 -0.36,1.72 -0.56,3.06 -0.92,4.35 -3.11,11.22 -9.43,20.27 -18.6,27.38 -4.96,3.84 -10.68,5.51 -16.85,6.21 -13.24,1.5 -26.44,3.25 -39.66,4.89 -0.38,0.05 -0.76,0.05 -1.21,0.08 -1.03,-3.89 -2.05,-7.72 -3.14,-11.8 z"
       id="path32" />
    <path
       d="m 117.97,339.08 c 21.01,3.03 42.02,6.05 63.1,9.09 v 14.44 c -1.34,0.21 -2.53,0.43 -3.74,0.59 -8.15,1.04 -16.31,2.03 -24.46,3.11 -4.54,0.6 -8.88,0 -12.94,-2.06 -10.34,-5.23 -17.56,-13.33 -21.89,-24.05 -0.07,-0.18 -0.14,-0.37 -0.17,-0.56 -0.02,-0.12 0.04,-0.25 0.11,-0.57 z"
       id="path34" />
    <path
       d="m 450.75,339.04 c -0.33,0.92 -0.52,1.53 -0.76,2.11 -3.76,8.94 -9.8,15.95 -17.94,21.17 -5.42,3.47 -11.23,4.86 -17.72,3.86 -8.44,-1.3 -16.95,-2.2 -25.42,-3.28 -0.44,-0.06 -0.88,-0.16 -1.52,-0.28 v -14.46 c 20.94,-3.02 42,-6.05 63.37,-9.13 z"
       id="path36" />
    <path
       d="m 136.27,379.19 c 15.53,-1.56 30.74,-3.09 45.92,-4.61 1.45,5.59 2.85,11 4.31,16.61 -0.35,0.18 -0.83,0.47 -1.34,0.69 -4.56,1.95 -9.16,3.8 -13.67,5.85 -4.22,1.92 -8.45,1.98 -12.77,0.56 -6.94,-2.28 -12.62,-6.43 -17.41,-11.88 -1.85,-2.11 -3.51,-4.36 -5.03,-7.23 z"
       id="path38" />
    <path
       d="m 386.21,374.58 c 15.19,1.52 30.4,3.05 45.82,4.6 -0.27,0.59 -0.39,0.95 -0.58,1.26 -4.57,7.42 -10.68,13.15 -18.7,16.66 -2.18,0.96 -4.57,1.55 -6.91,2.02 -2.6,0.52 -5.2,0.14 -7.67,-0.9 -5.16,-2.19 -10.33,-4.38 -15.49,-6.57 -0.29,-0.12 -0.56,-0.3 -0.79,-0.43 1.43,-5.5 2.83,-10.91 4.32,-16.64 z"
       id="path40" />
    <path
       d="m 191.03,402.33 c 3.45,5.65 6.8,11.14 10.26,16.82 -0.62,0.53 -1.35,1.15 -2.08,1.77 -1.54,1.31 -3.16,2.54 -4.62,3.94 -3.64,3.5 -7.99,4.18 -12.72,3.27 -6.11,-1.17 -11.4,-4.06 -16.04,-8.13 -1.95,-1.71 -3.7,-3.64 -5.56,-5.49 1.27,-1.03 27.22,-11.23 30.76,-12.19 z"
       id="path42" />
    <path
       d="m 377.43,402.23 c 10.1,3.89 20.3,7.83 30.52,11.77 -0.09,0.33 -0.08,0.55 -0.19,0.68 -5.24,6.36 -11.64,11.02 -19.7,13.1 -1.87,0.48 -3.87,0.62 -5.81,0.65 -2.91,0.04 -5.47,-1.01 -7.69,-2.94 -2.12,-1.84 -4.28,-3.63 -6.42,-5.44 -0.39,-0.33 -0.75,-0.69 -1.02,-0.94 3.44,-5.63 6.79,-11.13 10.3,-16.89 z"
       id="path44" />
    <path
       d="m 361.58,454.47 c -1.74,-0.22 -3.52,-0.3 -5.22,-0.68 -3.43,-0.76 -6.29,-2.44 -8.22,-5.53 -1.21,-1.94 -2.57,-3.78 -3.85,-5.67 -1.21,-1.8 -1.01,-2.53 0.67,-3.95 3.49,-2.94 6.96,-5.92 10.37,-8.94 1.7,-1.51 2.32,-1.66 4.07,-0.36 6.92,5.14 13.83,10.28 20.74,15.45 1.77,1.32 1.75,2.68 -0.08,3.83 -5.64,3.55 -11.73,5.67 -18.48,5.85 z"
       id="path46" />
    <path
       d="m 206.82,454.23 c -6.66,0.06 -12.7,-2.02 -18.29,-5.51 -1.97,-1.23 -2.04,-2.57 -0.21,-3.95 6.9,-5.16 13.81,-10.3 20.73,-15.44 1.7,-1.26 2.42,-1.22 3.91,0.28 3.28,3.29 6.77,6.32 10.52,9.08 1.75,1.29 1.87,2.15 0.66,3.94 -1.2,1.79 -2.5,3.52 -3.62,5.35 -2.47,4.04 -6.29,5.7 -10.76,6.23 -0.96,0.11 -1.95,0.02 -2.93,0.02 z"
       id="path48" />
    <path
       d="m 236.54,469.28 c -3.59,-0.11 -7,-0.92 -10.31,-2.18 -2,-0.76 -2.24,-1.53 -1.15,-3.41 2.85,-4.9 5.71,-9.8 8.58,-14.7 1.14,-1.95 1.6,-2.02 3.58,-1.03 3.85,1.92 7.71,3.8 11.6,5.64 1.9,0.9 2.27,1.52 1.72,3.49 -0.42,1.51 -0.96,2.99 -1.28,4.51 -0.88,4.23 -3.78,6.22 -7.7,7.05 -1.65,0.35 -3.36,0.41 -5.04,0.61 z"
       id="path50" />
    <path
       d="m 330.71,469.14 c -2.13,-0.06 -5.16,-0.32 -7.87,-2.04 -1.68,-1.06 -2.82,-2.48 -3.36,-4.39 -0.55,-1.95 -1.14,-3.88 -1.67,-5.83 -0.45,-1.65 -0.07,-2.37 1.48,-3.12 4.1,-1.99 8.2,-3.99 12.3,-5.98 1.54,-0.75 2.11,-0.61 3.02,0.93 2.97,5.06 5.93,10.12 8.88,15.2 0.94,1.62 0.65,2.46 -1.13,3.15 -3.43,1.31 -6.97,2.16 -11.63,2.09 z"
       id="path52" />
    <path
       d="m 304.5,475.06 c -2.11,-0.39 -4.77,-0.72 -7.33,-1.41 -1.41,-0.37 -2.7,-1.25 -3.96,-2.05 -1.2,-0.76 -1.89,-1.95 -2.19,-3.35 -0.4,-1.85 -0.81,-3.69 -1.19,-5.55 -0.35,-1.7 0.16,-2.42 1.91,-2.64 2.07,-0.25 4.16,-0.35 6.22,-0.65 2.77,-0.39 5.53,-0.9 8.3,-1.37 1.98,-0.34 2.39,-0.09 2.89,1.88 1.01,3.98 2.02,7.96 3.01,11.95 0.44,1.8 0.22,2.21 -1.64,2.52 -1.8,0.29 -3.62,0.4 -6.01,0.65 z"
       id="path54" />
    <path
       d="m 263.08,474.99 c -1.74,-0.2 -3.5,-0.31 -5.23,-0.61 -1.74,-0.3 -1.98,-0.72 -1.56,-2.41 1,-4.11 2.04,-8.22 3.09,-12.33 0.41,-1.59 0.92,-1.9 2.54,-1.63 2.89,0.47 5.78,1.02 8.68,1.44 1.93,0.28 3.89,0.39 5.83,0.6 2.09,0.23 2.56,0.89 2.13,2.96 -0.34,1.66 -0.74,3.31 -1.06,4.97 -0.33,1.7 -1.26,2.95 -2.63,3.96 -2.07,1.51 -4.46,2.14 -6.91,2.55 -1.6,0.27 -3.24,0.34 -4.88,0.51 z"
       id="path56" />
    <path
       d="m 350.48,382.71 h -6.28 v -24.44 c -1.56,-0.49 -24.56,-0.65 -28.38,-0.24 -0.1,2.01 -0.03,4.07 -0.05,6.13 -0.01,2.02 0,4.05 0,6.07 v 12.45 h -6.27 v -54.59 h 6.21 c 0.15,7.8 0,15.67 0.09,23.51 1.4,0.46 25.61,0.59 28.36,0.13 v -23.68 h 6.33 v 54.66 z"
       id="path58" />
    <path
       d="m 301.28,328.04 c -6.8,18.36 -13.52,36.51 -20.26,54.68 h -7.13 c -6.59,-18.17 -13.18,-36.35 -19.84,-54.71 0.84,-0.04 1.42,-0.08 2,-0.08 1.69,0 3.38,0 5.16,0 5.53,15.88 11.01,31.65 16.39,47.11 5.48,-15.39 11.09,-31.15 16.73,-46.99 h 6.95 z"
       id="path60" />
    <path
       d="m 216.42,373.21 c 0.78,0.46 1.26,0.76 1.75,1.03 5.61,3.15 11.57,4.38 17.92,3.11 3.8,-0.76 6.19,-3.07 6.69,-6.27 0.47,-2.98 -0.21,-5.66 -2.56,-7.62 -1.64,-1.37 -3.46,-2.57 -5.31,-3.63 -2.94,-1.69 -6.03,-3.12 -8.97,-4.81 -1.74,-1 -3.42,-2.18 -4.96,-3.47 -6.52,-5.46 -6.11,-16.39 1.8,-21.29 2.6,-1.61 5.43,-2.54 8.42,-3.01 4.18,-0.65 8.34,-0.41 12.47,0.39 1.25,0.25 2.46,0.76 3.65,1.14 v 7.09 c -0.66,-0.3 -1.16,-0.52 -1.65,-0.75 -5.02,-2.37 -10.25,-2.96 -15.64,-1.67 -1.12,0.27 -2.25,0.74 -3.23,1.35 -4.05,2.49 -4.9,7.8 -1.72,11.35 1.19,1.33 2.75,2.4 4.3,3.35 1.94,1.19 4.04,2.12 6.06,3.2 1.84,0.99 3.73,1.9 5.46,3.07 1.77,1.2 3.49,2.54 5.02,4.03 6.07,5.94 5.08,17.85 -4.37,21.88 -4.82,2.06 -9.88,2.47 -14.99,1.79 -2.82,-0.38 -5.58,-1.26 -8.35,-1.98 -1.27,-0.33 -1.92,-1.09 -1.8,-2.57 0.15,-1.79 0.04,-3.61 0.04,-5.7 z"
       id="path62" />
    <path
       class="f"
       d="m 266.23,48.51 c 0.15,2.87 0.3,5.48 0.42,8.08 0.58,12.59 1.15,25.19 1.73,37.78 0.59,12.66 1.2,25.32 1.78,37.98 0.59,13.05 1.15,26.1 1.74,39.15 0.58,13.12 1.19,26.23 1.76,39.35 0.48,10.9 0.97,21.8 1.37,32.7 0.2,5.55 -4.41,10.09 -9.96,9.87 -0.44,-1.31 -0.9,-2.66 -1.34,-4.02 C 251.86,212.69 240,175.97 228.1,139.27 c -2.74,-8.46 -4.4,-17.09 -4.05,-26 0.73,-18.54 6.59,-35.2 18.74,-49.4 5.79,-6.77 12.89,-11.79 21.36,-14.75 0.6,-0.21 1.23,-0.37 2.08,-0.63 z"
       id="path66"
       style="fill:#180c58;fill-opacity:1" />
    <path
       class="f"
       d="m 300.14,253.49 c -5.92,-0.17 -10.12,-4.45 -9.91,-10.07 0.41,-10.84 0.89,-21.67 1.36,-32.5 0.47,-10.9 0.96,-21.8 1.45,-32.69 0.6,-13.25 1.21,-26.49 1.81,-39.74 0.58,-12.86 1.15,-25.71 1.74,-38.57 0.58,-12.59 1.19,-25.19 1.79,-37.78 0.18,-3.85 0.35,-7.7 0.54,-11.55 0.03,-0.63 0.09,-1.26 0.15,-2.07 0.84,0.26 1.52,0.44 2.18,0.67 9.46,3.34 17.04,9.27 23.23,17.04 8.28,10.4 13.14,22.34 15.56,35.32 2.32,12.45 1.34,24.7 -2.56,36.74 -12.27,37.89 -24.51,75.78 -36.76,113.68 -0.16,0.49 -0.36,0.97 -0.56,1.52 z"
       id="path68"
       style="fill:#180c58;fill-opacity:1" />
    <path
       class="f"
       d="m 250.45,258.74 c -3.12,1.26 -5.96,2.4 -9,3.63 -0.4,-0.64 -0.82,-1.27 -1.21,-1.93 -15.72,-26.66 -31.45,-53.33 -47.17,-80 -3.71,-6.3 -7.4,-12.62 -11.15,-18.9 -8.42,-14.13 -11.74,-29.47 -11.02,-45.79 0.4,-9 1.93,-17.78 5.28,-26.18 2.85,-7.13 6.85,-13.5 12.54,-18.72 0.62,-0.56 1.27,-1.09 2.19,-1.88 19.88,63.39 39.68,126.5 59.52,189.76 z"
       id="path70"
       style="fill:#180c58;fill-opacity:1" />
    <path
       class="f"
       d="m 377.46,68.99 c 0.88,0.75 1.54,1.26 2.16,1.83 6.01,5.5 10.12,12.24 12.99,19.8 3.67,9.66 5.04,19.71 4.98,29.98 -0.09,14.81 -3.69,28.68 -11.39,41.41 -3.28,5.42 -6.45,10.91 -9.66,16.36 -16.15,27.4 -32.31,54.79 -48.46,82.19 -0.33,0.56 -0.68,1.1 -1.12,1.8 -2.97,-1.2 -5.91,-2.38 -9.01,-3.63 19.82,-63.19 39.61,-126.28 59.51,-189.74 z"
       id="path72"
       style="fill:#180c58;fill-opacity:1" />
    <path
       class="f"
       d="m 227.92,269.86 c -2.55,1.84 -5.03,3.63 -7.59,5.48 -0.45,-0.43 -0.89,-0.81 -1.28,-1.22 -22.57,-23.51 -45.14,-47.02 -67.7,-70.54 -9.14,-9.52 -14.44,-20.99 -17.08,-33.8 -1.64,-7.99 -2.18,-16.04 -1.2,-24.16 0.78,-6.42 2.56,-12.52 5.77,-18.17 0.38,-0.67 0.8,-1.33 1.22,-2.01 1.32,1.27 84.38,137.84 87.86,144.42 z"
       id="path74"
       style="fill:#180c58;fill-opacity:1" />
    <path
       class="f"
       d="m 348.07,275.35 c -2.62,-1.9 -5.1,-3.69 -7.67,-5.55 29.22,-48.19 58.39,-96.3 87.72,-144.67 0.62,1.01 1.12,1.76 1.56,2.55 3.57,6.39 5.42,13.3 5.9,20.54 0.96,14.52 -1.71,28.34 -8.41,41.32 -2.59,5.02 -5.86,9.58 -9.77,13.66 -22.74,23.71 -45.49,47.41 -68.24,71.11 -0.31,0.33 -0.65,0.63 -1.09,1.05 z"
       id="path76"
       style="fill:#180c58;fill-opacity:1" />
    <path
       class="f"
       d="m 191.02,357.87 c 0.16,-41.05 26.71,-77.66 65.31,-89.88 47.38,-14.99 97.9,9.72 115.42,56.48 5.1,13.61 6.85,27.67 5.63,42.15 -3.26,38.46 -30.75,71.79 -67.82,82.1 -39.13,10.89 -80.49,-4.67 -102.8,-38.69 -8.31,-12.67 -13.35,-26.54 -14.95,-41.62 -0.37,-3.5 -0.53,-7.03 -0.79,-10.54 z m 5.85,0.03 c 0.32,3.97 0.46,7.96 0.99,11.9 2.09,15.46 7.82,29.45 17.26,41.89 22.27,29.33 60.15,41.57 94.98,30.75 33.78,-10.49 59.11,-41.04 61.61,-78.58 1.08,-16.17 -2.01,-31.57 -9.3,-46.09 -18.83,-37.47 -61.01,-56.26 -101.36,-45.04 -36.41,10.12 -63.87,43.9 -64.17,85.18 z"
       id="path78" />
    <path
       class="f"
       d="m 209.79,284.88 c -2.2,2.52 -4.26,4.87 -6.4,7.33 -0.5,-0.29 -1.01,-0.55 -1.49,-0.86 -21.97,-14.48 -43.94,-28.97 -65.91,-43.46 -4.29,-2.83 -8.08,-6.23 -11.19,-10.31 -9.12,-11.96 -13.92,-25.45 -14.04,-40.53 -0.03,-3.74 0.53,-7.42 1.52,-11.03 0.1,-0.37 0.25,-0.73 0.49,-1.44 32.41,33.5 64.65,66.82 97.02,100.29 z"
       id="path80"
       style="fill:#180c58;fill-opacity:1" />
    <path
       class="f"
       d="m 365.01,292.21 c -2.1,-2.4 -4.16,-4.75 -6.21,-7.09 0.64,-1.26 92.86,-96.9 96.78,-100.35 0.2,0.49 0.43,0.91 0.55,1.36 2.02,7.54 1.93,15.12 0.39,22.71 -2.19,10.79 -6.4,20.67 -13.36,29.29 -3.02,3.73 -6.52,6.95 -10.53,9.6 -22.07,14.57 -44.15,29.13 -66.23,43.69 -0.43,0.28 -0.89,0.52 -1.39,0.8 z"
       id="path82"
       style="fill:#180c58;fill-opacity:1" />
    <path
       class="f"
       d="m 195.71,303.24 c -1.65,3.09 -3.28,6.12 -4.96,9.27 -0.58,-0.18 -1.13,-0.33 -1.67,-0.53 -18.71,-7.01 -37.41,-14.04 -56.12,-21.05 -5.62,-2.11 -10.4,-5.45 -14.44,-9.84 -7.74,-8.41 -12.89,-18.16 -15.03,-29.44 -0.61,-3.22 -0.74,-6.46 -0.59,-9.68 0.16,-0.07 0.22,-0.1 0.28,-0.12 0.06,-0.01 0.14,-0.04 0.18,0 30.59,20.28 61.18,40.57 91.77,60.86 0.21,0.14 0.37,0.34 0.58,0.54 z"
       id="path84"
       style="fill:#180c58;fill-opacity:1" />
    <path
       class="f"
       d="m 465.42,241.52 c 0.38,5.2 -0.2,9.91 -1.52,14.52 -3.3,11.45 -9.17,21.31 -18.34,29.05 -2.92,2.46 -6.19,4.35 -9.77,5.7 -18.95,7.12 -37.9,14.23 -56.84,21.34 -0.36,0.14 -0.74,0.23 -1.27,0.4 -1.66,-3.09 -3.32,-6.17 -5.04,-9.36 30.86,-20.5 61.67,-40.97 92.79,-61.64 z"
       id="path86"
       style="fill:#180c58;fill-opacity:1" />
    <path
       class="f"
       d="m 106.07,293.32 c 26.56,10.28 53.19,20.59 79.94,30.95 -1.05,3.96 -2.07,7.84 -3.13,11.84 -2.18,-0.25 -4.31,-0.48 -6.43,-0.74 -12.51,-1.56 -25.01,-3.13 -37.52,-4.7 -3.88,-0.49 -7.54,-1.69 -10.81,-3.83 -11.82,-7.74 -19.29,-18.51 -22.23,-32.36 -0.05,-0.25 -0.07,-0.51 -0.09,-0.77 0,-0.05 0.07,-0.1 0.26,-0.38 z"
       id="path88"
       style="fill:#180c58;fill-opacity:1" />
    <path
       class="f"
       d="m 382.36,324.28 c 26.75,-10.36 53.38,-20.67 80.38,-31.12 -0.36,1.72 -0.56,3.06 -0.92,4.35 -3.11,11.22 -9.43,20.27 -18.6,27.38 -4.96,3.84 -10.68,5.51 -16.85,6.21 -13.24,1.5 -26.44,3.25 -39.66,4.89 -0.38,0.05 -0.76,0.05 -1.21,0.08 -1.03,-3.89 -2.05,-7.72 -3.14,-11.8 z"
       id="path90"
       style="fill:#180c58;fill-opacity:1" />
    <path
       class="f"
       d="m 117.97,339.08 c 21.01,3.03 42.02,6.05 63.1,9.09 v 14.44 c -1.34,0.21 -2.53,0.43 -3.74,0.59 -8.15,1.04 -16.31,2.03 -24.46,3.11 -4.54,0.6 -8.88,0 -12.94,-2.06 -10.34,-5.23 -17.56,-13.33 -21.89,-24.05 -0.07,-0.18 -0.14,-0.37 -0.17,-0.56 -0.02,-0.12 0.04,-0.25 0.11,-0.57 z"
       id="path92"
       style="fill:#180c58;fill-opacity:1" />
    <path
       class="f"
       d="m 450.75,339.04 c -0.33,0.92 -0.52,1.53 -0.76,2.11 -3.76,8.94 -9.8,15.95 -17.94,21.17 -5.42,3.47 -11.23,4.86 -17.72,3.86 -8.44,-1.3 -16.95,-2.2 -25.42,-3.28 -0.44,-0.06 -0.88,-0.16 -1.52,-0.28 v -14.46 c 20.94,-3.02 42,-6.05 63.37,-9.13 z"
       id="path94"
       style="fill:#180c58;fill-opacity:1" />
    <path
       class="f"
       d="m 136.27,379.19 c 15.53,-1.56 30.74,-3.09 45.92,-4.61 1.45,5.59 2.85,11 4.31,16.61 -0.35,0.18 -0.83,0.47 -1.34,0.69 -4.56,1.95 -9.16,3.8 -13.67,5.85 -4.22,1.92 -8.45,1.98 -12.77,0.56 -6.94,-2.28 -12.62,-6.43 -17.41,-11.88 -1.85,-2.11 -3.51,-4.36 -5.03,-7.23 z"
       id="path96"
       style="fill:#180c58;fill-opacity:1" />
    <path
       class="f"
       d="m 386.21,374.58 c 15.19,1.52 30.4,3.05 45.82,4.6 -0.27,0.59 -0.39,0.95 -0.58,1.26 -4.57,7.42 -10.68,13.15 -18.7,16.66 -2.18,0.96 -4.57,1.55 -6.91,2.02 -2.6,0.52 -5.2,0.14 -7.67,-0.9 -5.16,-2.19 -10.33,-4.38 -15.49,-6.57 -0.29,-0.12 -0.56,-0.3 -0.79,-0.43 1.43,-5.5 2.83,-10.91 4.32,-16.64 z"
       id="path98"
       style="fill:#180c58;fill-opacity:1" />
    <path
       class="f"
       d="m 191.03,402.33 c 3.45,5.65 6.8,11.14 10.26,16.82 -0.62,0.53 -1.35,1.15 -2.08,1.77 -1.54,1.31 -3.16,2.54 -4.62,3.94 -3.64,3.5 -7.99,4.18 -12.72,3.27 -6.11,-1.17 -11.4,-4.06 -16.04,-8.13 -1.95,-1.71 -3.7,-3.64 -5.56,-5.49 1.27,-1.03 27.22,-11.23 30.76,-12.19 z"
       id="path100"
       style="fill:#180c58;fill-opacity:1" />
    <path
       class="f"
       d="m 377.43,402.23 c 10.1,3.89 20.3,7.83 30.52,11.77 -0.09,0.33 -0.08,0.55 -0.19,0.68 -5.24,6.36 -11.64,11.02 -19.7,13.1 -1.87,0.48 -3.87,0.62 -5.81,0.65 -2.91,0.04 -5.47,-1.01 -7.69,-2.94 -2.12,-1.84 -4.28,-3.63 -6.42,-5.44 -0.39,-0.33 -0.75,-0.69 -1.02,-0.94 3.44,-5.63 6.79,-11.13 10.3,-16.89 z"
       id="path102"
       style="fill:#180c58;fill-opacity:1" />
    <path
       class="f"
       d="m 361.58,454.47 c -1.74,-0.22 -3.52,-0.3 -5.22,-0.68 -3.43,-0.76 -6.29,-2.44 -8.22,-5.53 -1.21,-1.94 -2.57,-3.78 -3.85,-5.67 -1.21,-1.8 -1.01,-2.53 0.67,-3.95 3.49,-2.94 6.96,-5.92 10.37,-8.94 1.7,-1.51 2.32,-1.66 4.07,-0.36 6.92,5.14 13.83,10.28 20.74,15.45 1.77,1.32 1.75,2.68 -0.08,3.83 -5.64,3.55 -11.73,5.67 -18.48,5.85 z"
       id="path104"
       style="fill:#180c58;fill-opacity:1" />
    <path
       class="f"
       d="m 206.82,454.23 c -6.66,0.06 -12.7,-2.02 -18.29,-5.51 -1.97,-1.23 -2.04,-2.57 -0.21,-3.95 6.9,-5.16 13.81,-10.3 20.73,-15.44 1.7,-1.26 2.42,-1.22 3.91,0.28 3.28,3.29 6.77,6.32 10.52,9.08 1.75,1.29 1.87,2.15 0.66,3.94 -1.2,1.79 -2.5,3.52 -3.62,5.35 -2.47,4.04 -6.29,5.7 -10.76,6.23 -0.96,0.11 -1.95,0.02 -2.93,0.02 z"
       id="path106"
       style="fill:#180c58;fill-opacity:1" />
    <path
       class="f"
       d="m 236.54,469.28 c -3.59,-0.11 -7,-0.92 -10.31,-2.18 -2,-0.76 -2.24,-1.53 -1.15,-3.41 2.85,-4.9 5.71,-9.8 8.58,-14.7 1.14,-1.95 1.6,-2.02 3.58,-1.03 3.85,1.92 7.71,3.8 11.6,5.64 1.9,0.9 2.27,1.52 1.72,3.49 -0.42,1.51 -0.96,2.99 -1.28,4.51 -0.88,4.23 -3.78,6.22 -7.7,7.05 -1.65,0.35 -3.36,0.41 -5.04,0.61 z"
       id="path108"
       style="fill:#180c58;fill-opacity:1" />
    <path
       class="f"
       d="m 330.71,469.14 c -2.13,-0.06 -5.16,-0.32 -7.87,-2.04 -1.68,-1.06 -2.82,-2.48 -3.36,-4.39 -0.55,-1.95 -1.14,-3.88 -1.67,-5.83 -0.45,-1.65 -0.07,-2.37 1.48,-3.12 4.1,-1.99 8.2,-3.99 12.3,-5.98 1.54,-0.75 2.11,-0.61 3.02,0.93 2.97,5.06 5.93,10.12 8.88,15.2 0.94,1.62 0.65,2.46 -1.13,3.15 -3.43,1.31 -6.97,2.16 -11.63,2.09 z"
       id="path110"
       style="fill:#180c58;fill-opacity:1" />
    <path
       class="f"
       d="m 304.5,475.06 c -2.11,-0.39 -4.77,-0.72 -7.33,-1.41 -1.41,-0.37 -2.7,-1.25 -3.96,-2.05 -1.2,-0.76 -1.89,-1.95 -2.19,-3.35 -0.4,-1.85 -0.81,-3.69 -1.19,-5.55 -0.35,-1.7 0.16,-2.42 1.91,-2.64 2.07,-0.25 4.16,-0.35 6.22,-0.65 2.77,-0.39 5.53,-0.9 8.3,-1.37 1.98,-0.34 2.39,-0.09 2.89,1.88 1.01,3.98 2.02,7.96 3.01,11.95 0.44,1.8 0.22,2.21 -1.64,2.52 -1.8,0.29 -3.62,0.4 -6.01,0.65 z"
       id="path112"
       style="fill:#180c58;fill-opacity:1" />
    <path
       class="f"
       d="m 263.08,474.99 c -1.74,-0.2 -3.5,-0.31 -5.23,-0.61 -1.74,-0.3 -1.98,-0.72 -1.56,-2.41 1,-4.11 2.04,-8.22 3.09,-12.33 0.41,-1.59 0.92,-1.9 2.54,-1.63 2.89,0.47 5.78,1.02 8.68,1.44 1.93,0.28 3.89,0.39 5.83,0.6 2.09,0.23 2.56,0.89 2.13,2.96 -0.34,1.66 -0.74,3.31 -1.06,4.97 -0.33,1.7 -1.26,2.95 -2.63,3.96 -2.07,1.51 -4.46,2.14 -6.91,2.55 -1.6,0.27 -3.24,0.34 -4.88,0.51 z"
       id="path114"
       style="fill:#180c58;fill-opacity:1" />
    <circle
       style="color:#000000;overflow:visible;fill:#000000;fill-opacity:1;stroke-width:15;stroke-linecap:round"
       id="path2113"
       cx="284.59821"
       cy="357.83835"
       r="93.806816" />
    <path
       class="f"
       d="m 350.48,382.71 h -6.28 v -24.44 c -1.56,-0.49 -24.56,-0.65 -28.38,-0.24 -0.1,2.01 -0.03,4.07 -0.05,6.13 -0.01,2.02 0,4.05 0,6.07 v 12.45 h -6.27 v -54.59 h 6.21 c 0.15,7.8 0,15.67 0.09,23.51 1.4,0.46 25.61,0.59 28.36,0.13 v -23.68 h 6.33 v 54.66 z"
       id="path116"
       style="fill:#ffd42a;fill-opacity:1" />
    <path
       class="f"
       d="m 301.28,328.04 c -6.8,18.36 -13.52,36.51 -20.26,54.68 h -7.13 c -6.59,-18.17 -13.18,-36.35 -19.84,-54.71 0.84,-0.04 1.42,-0.08 2,-0.08 1.69,0 3.38,0 5.16,0 5.53,15.88 11.01,31.65 16.39,47.11 5.48,-15.39 11.09,-31.15 16.73,-46.99 h 6.95 z"
       id="path118"
       style="fill:#ffd42a;fill-opacity:1" />
    <path
       class="f"
       d="m 216.42,373.21 c 0.78,0.46 1.26,0.76 1.75,1.03 5.61,3.15 11.57,4.38 17.92,3.11 3.8,-0.76 6.19,-3.07 6.69,-6.27 0.47,-2.98 -0.21,-5.66 -2.56,-7.62 -1.64,-1.37 -3.46,-2.57 -5.31,-3.63 -2.94,-1.69 -6.03,-3.12 -8.97,-4.81 -1.74,-1 -3.42,-2.18 -4.96,-3.47 -6.52,-5.46 -6.11,-16.39 1.8,-21.29 2.6,-1.61 5.43,-2.54 8.42,-3.01 4.18,-0.65 8.34,-0.41 12.47,0.39 1.25,0.25 2.46,0.76 3.65,1.14 v 7.09 c -0.66,-0.3 -1.16,-0.52 -1.65,-0.75 -5.02,-2.37 -10.25,-2.96 -15.64,-1.67 -1.12,0.27 -2.25,0.74 -3.23,1.35 -4.05,2.49 -4.9,7.8 -1.72,11.35 1.19,1.33 2.75,2.4 4.3,3.35 1.94,1.19 4.04,2.12 6.06,3.2 1.84,0.99 3.73,1.9 5.46,3.07 1.77,1.2 3.49,2.54 5.02,4.03 6.07,5.94 5.08,17.85 -4.37,21.88 -4.82,2.06 -9.88,2.47 -14.99,1.79 -2.82,-0.38 -5.58,-1.26 -8.35,-1.98 -1.27,-0.33 -1.92,-1.09 -1.8,-2.57 0.15,-1.79 0.04,-3.61 0.04,-5.7 z"
       id="path120"
       style="fill:#ffd42a;fill-opacity:1" />
  </g>
</svg>
