<svg id="Ebene_1" data-name="Ebene 1" xmlns="http://www.w3.org/2000/svg" viewBox="0 0 753.926 968.474"><defs><style>.cls-1{fill:#0054a4;}.cls-1,.cls-2{fill-rule:evenodd;}.cls-2{fill:#fff;}</style></defs><title>sganspach</title><path class="cls-1" d="M.494,613.324c-.416-6.356,0-12.742,0-19.116C.415,396.671-.485,199.029.357,1.642L753.926,0q-1.058,294.4-2.117,588.916-.018,4.676-.033,9.353c-.7,205.959-167.689,367.46-372.433,370.183-4.355.059-8.648-.009-12.863-.063C188.081,966.047,14,819.544.494,613.324Z" transform="translate(0.001 0)"/><path class="cls-2" d="M23.147,628.14q-.376-299.149-.613-598.156l712.574.961-6.518,596.043C691.32,1030.468,86,1053.331,23.147,628.14Z" transform="translate(0.001 0)"/><path class="cls-1" d="M74.253,657.461l615.513-298.19.636,249.682c-29,338.177-506.9,410.644-616.075,55.868-.856-2.787.679-4.5-.074-7.36Z" transform="translate(0.001 0)"/><path class="cls-2" d="M326.341,799.175c-15.277-32.794-30.7-64.731-47.131-90.66-3.543,2.683-4.4,9.9-9.358,9.893-1.837-1.844-1.409-4.248-1.546-6.8a259.887,259.887,0,0,1,18.042-42.434,31.856,31.856,0,0,1,3.684-2.258c1.924.63,3.959,9.86,8.052,17.347,14.622,26.743,40.371,81.5,46.128,91.017,3.252,1.987,10.908,3.132,13.026,6.107-1.408,7.923-4.142,19.928-9.82,24.9-5.614,1.067-13.4-2.373-21.078-7.11Z" transform="translate(0.001 0)"/><path class="cls-2" d="M354.158,751.8c-3.8-13.594,1.172-25.476,4.308-39.059-.843-4.39-10.606-6.1-14.71-7.384-25.972-17.074-6.272-47.708,1.947-66.8,18.251-1.655,42.171,5.359,42.14,25.119-5.268,19.383-5.268,19.383-5.129,20.8,20.737,3.488,34.429,12.883,40,34.032-.027,17.269-7.415,34.524-11.4,51.361-1.278,2.971-1.278,2.971-2.555,4.243-22.628,1.185-42.42-.209-54.6-22.309Z" transform="translate(0.001 0)"/><path class="cls-1" d="M365.113,716.01c7.51-22.413,54.889,10.167,45.243,31.777-20.236,7.248-45.277-10.086-45.243-31.777Z" transform="translate(0.001 0)"/><path class="cls-2" d="M484.688,733.609c-57.045-32.068-94.5-69.474-50.879-138.084,3.543-3.533,14.6-14.981,19.691-11.576-1,8.209-2.856,16.132-2.868,24.342-4.962,4.945-13.031,6.207-17.994,11.86-5.968,15,1.931,32.274,8.42,45.873a5.053,5.053,0,0,0,3.113.713c.709-1.272,1.419-2.4,2.128-3.536,2.708-11.317,5.414-22.5,8.121-33.673,1.841-.563,3.823-.985,5.806-1.407,54.885,10.445,57.723,65.349,32.673,104.226-2.833,1.129-4.955,1.125-8.211,1.263Z" transform="translate(0.001 0)"/><path class="cls-1" d="M449.673,678.493c.012-7.219,3.139-15.281,7.252-21.077,18.976-5.773,44.255,30.218,39.841,46.629-10.911,6.346-40.39-15.94-47.093-25.552Z" transform="translate(0.001 0)"/><path class="cls-2" d="M543.336,702.138c-2.968-3.968-2.532-9.912-2.665-14.584,2.456-32.691,2.321-37.362,2.9-45.43.038-23.566-.644-67.007-37.986-55.4-3.683,1.55-12.464,4.509-14.451,8.469a12.473,12.473,0,0,0-2.406.279c-1.964-10.9-.1-23.5,6.138-32.828,21.534-15.193,60.394-15.348,63.936,26.286-.282,24.164-5.4,49.975-5.921,74.866,9.91-.976,25.484-5.055,32.716-12.263.994-3.4,2.991-11.885,7.654-7.207.393,19.533.393,19.533-.2,36.942-1.844,1.838-8.353.41-11.042.407-12.887,3.942-25.917,9.867-34.852,20.186a34.675,34.675,0,0,0-3.821.277Z" transform="translate(0.001 0)"/><path class="cls-1" d="M342.407,663.6c6.806-13.558,42.941,6.948,31.531,21-13.82,2.569-29.478-5.817-31.531-21Z" transform="translate(0.001 0)"/><path class="cls-1" d="M164.2,580.8c-12.082-23.394-24.04-46.35-35.7-69.978a3.742,3.742,0,0,0-.849-.709c-6.515,2.679-9.917,6.212-15.573,1.957.011-6.794,2.144-13.3,3.854-19.951.02-12.314-16.8-24.8-11.264-37.668,1.987-3.394,6.382-8.482,5.823-12.447-6.8,1.972-16.147,6.77-23.221,4.776.02-12.314,5.134-24.054,10.812-34.8,1.56-1.555,2.692-1.411,4.815-1.549.989.991,1.979,1.984,3.109,2.977,17.7-5.775,37.383-10.415,55.649-14.633,3.962,1,4.524,2.7,6.926,5.673,6.206,13.881,12.412,27.9,18.617,41.926,22.716,45.329,22.716,45.329,24.409,49.436,4.242,2.839,10.183,4.547,14.993,6.252-.3,8.068-1.734,22.5-2.3,24.2-1.133.706-2.267,1.554-3.4,2.4-16.843-.027-25.478.95-31.539-15.478,0-2.405-9.023-22.944-14.4-25.642-7.081,2.112-13.6,6.348-20.115,9.877a8.366,8.366,0,0,0-.286,1.981c7.333,17.279,16.081,34.137,24.406,50.852-.583,10.9-5.275,24.478-14.769,30.55Z" transform="translate(0.001 0)"/><path class="cls-1" d="M254.9,509.61c-7.358-1.994-14.572-4.412-21.077-8.525-.276-4.247-.131-6.653,1.432-10.614-6.591-18.879-22.38-42.693-29.773-58.786-7.355-3.125-10.751-3.7-14-10.354.143-1.274.143-1.274,9.662-24.188,7.082-2.536,10.194-.691,17.124,2.717a7.436,7.436,0,0,1,1.84-.139c3.266-6.364,6.108-13.578,11.211-18.666.991.143,3.4-.986,14.725-2.808,6.37-.415,12.881-.971,19.108.171,1.836,2.833.981,6.654.975,10.051,9.408,19.914,19.594,44.478,31.6,64.734,2.688,1.136,11.459,3.84,13.577,6.956-.015,9.2-4.135,19.1-8.676,27.02-7.505,2.112-22.787-.743-29.148-5.849l-.41-8.918C267.035,455.4,248.6,427.6,243.725,412.5l-.991,0c-2.117-4.248-8.773-1.57-12.313-.585,7.4,19.12,17.539,37.746,26.8,56.106,1.638,3.248,5.158,5.36,6.22,8.205,2.971.713,6.081,3.69,7.775,5.957-2.56,7.639-6.262,21.93-12.356,26.874a33.171,33.171,0,0,0-3.963.56Z" transform="translate(0.001 0)"/><path class="cls-2" d="M141.153,473.62c-5.815-9.587-16.237-25.676-16.22-36.118a111.027,111.027,0,0,1,24.495-5.2c4.653,8.264,14.261,22.358,14.245,32.011-7.934,3.951-14.168,8.753-22.52,9.306Z" transform="translate(0.001 0)"/><path class="cls-1" d="M342.734,457.1c-6.373,2.113-15.712.541-22.5.672-10.755-2.281-8.594-26.057-9.431-34.409-3.818-1.846-7.072-3.125-10.324-5.536-6.21-11.334-12.277-23.091-17.779-34.847.009-5.662,2.289-15.566,7.672-18.247a52.287,52.287,0,0,0,3.989-16.837c3.977-8.062,20.815-5.062,28.038-8.023-1.41-2.833-.276-4.529,2.133-5.941,13.306.021,15.106,24.227,10.7,33.136q-.636.213-1.274.423c6.793.293,10.757.442,15.987,4.838,7.623,12.892,17.082,27.485,22.3,41.648-.01,5.944-4.124,12.024-6.256,17.541-2.418,7.781-2.292,17.264-6.266,24.193-7.478,1.308-9.165,1.726-16.986,1.389Z" transform="translate(0.001 0)"/><path class="cls-1" d="M416.768,453.249c-2.468-3.466-6.96-12.736-9.605-19.949-2.472-6.739-5.349-9.361-8.754-5.7-1.84-.428-3.68-.855-5.519-1.142-1.831-6.8,1.011-12.453,1.022-19.248-.564-1.7-1.127-3.4-1.55-4.956-6.066-11.757-8.326-14.875-28.225-52.556-3.252-2.412-6.506-3.407-10.751-3.98-.564-1.133-.564-1.133-1.837-1.983.017-10.051,4.277-19.386,8.961-28.012,6.233-3.1,11.182.442,17.264,3.282a4.383,4.383,0,0,1,1.416-.139c2.7-6.364,5.256-12.306,9.228-17.819,13.59-1.394,28.455-3.777,31.144-3.631,4.1,2.838,4.1,5.668,5.221,10.624,4.938,10.623,9.874,21.247,14.953,32.012,5.5,10.624,11.148,21.247,16.792,32.015,7.921,3.975-1.164,20.379-3.719,24.622-3.7,12.309-3.7,12.309-4.977,14.853-4.536,4.1-13.025,2.387-16.711,6.06,1.409,3.116,2.82,6.232,4.372,9.349-.017,9.767-8.39,25.182-18.725,26.3Z" transform="translate(0.001 0)"/><path class="cls-2" d="M326.219,428.2a24.334,24.334,0,0,0-2.971-1c-1.827-8.5.738-19.672,5.847-26.883,2.264,0,3.111,1.562,4.382,3.263,3.668,7.507,7.335,15.014,11.146,22.663-6.229.557-12.316,1.255-18.4,1.953Z" transform="translate(0.001 0)"/><path class="cls-2" d="M320.193,390.394c-3.106-4.816-9.746-13.32-9.169-19.405,21.236-3.081,21.236-3.081,22.651-2.936-4.964,6.786-7.95,14.849-12.49,22.06a2.056,2.056,0,0,0-.991.281Z" transform="translate(0.001 0)"/><path class="cls-2" d="M416.867,389.132c-10.87-17.71-19.331-37.964-28.5-56.662q.212-.849.428-1.7c4.955-.983,4.955-.983,12.315-1.4,9.878,18.7,20.464,37.824,28.926,57.37-4.39.7-8.779,1.543-13.168,2.386Z" transform="translate(0.001 0)"/><path class="cls-1" d="M495.151,381.753c-3.679-.855-3.679-.855-17.831-1.727-8.615-12.611-14.677-27.765-21.449-41.363-6.352-11.192-12.7-22.384-18.915-33.434,0-1.7.148-3.4.292-5.095,1.7-1.979,11.071-19.515,19.161-33.373,9.49-4.656,22.086-3.5,32.424-6.6l4.954.007c1.837,1.843,1.835,2.692,1.83,5.381,9.874,21.955,20.738,43.486,32.312,64.594.849.426,1.554,2.55,4.1,5.1,3.111,1.986,6.363,4.114,9.614,6.243-.861,8.067-4.694,15.42-8.244,22.634-6.1,7.209-12.171-1.01-20.239-1.023a104.663,104.663,0,0,0-7.386,16.832,87.537,87.537,0,0,1-10.619,1.823Z" transform="translate(0.001 0)"/><path class="cls-1" d="M68.8,377.258,68.769,61.2l621.085-1.708c.142.425.282.85.424,1.415L68.8,377.258Z" transform="translate(0.001 0)"/><path class="cls-2" d="M491.661,350.892c-9.172-17.849-22.725-39.1-29.064-58.5,3.683-1.834,10.618-1.682,14.864-1.958,29.774,57.8,29.774,57.8,31.043,61.054-7.028-.922-8.245,1.846-16.843-.593Z" transform="translate(0.001 0)"/><path class="cls-1" d="M555.64,350.144c-4.385-1.705-5.376-1.99-7.775-6.1-7.749-21.951-20.315-42.777-31.039-63.458-1.835-3.118-3.67-6.234-5.5-9.209-6.363-4.4-5.935-5.954-3.094-13.31,4.26-8.2,8.66-16.263,13.059-24.325,7.226-4.094,17.7-2.661,25.766-2.224,5.083,8.076,5.214,14.87,5.2,24.353-2.7,3.958-9.63,3.665-14.019,4.365-.143.708-.143.708,27.653,56.944,7.785.012,15.294-4.506,23.075-2.936,1.827,8.495.254,18.541-3.581,26.321-10.143,5.639-19.575,5.9-29.737,9.578Z" transform="translate(0.001 0)"/><path class="cls-1" d="M656.592,328.647c-2.685-2.694-4.379-5.669-6.353-8.927-11.849-25.78-15.519-32.437-42.325-87.965-5.649-7.793-8.48-7.656-17.261-4.839a11.156,11.156,0,0,0,.28,2.124q15.025,29.959,30.2,59.92c4.383,2.979,9.48,1.713,11.736,7.378-2.847,9.337-5.834,18.533-11.932,26.309-8.351-.014-19.954-2.014-25.464-8.675.146-3.538.294-7.076.583-10.473-12.273-25.072-13.265-25.923-39.65-77.91-6.5-10.484-6.5-10.484-8.189-12.469-5.662-.008-9.2-3.694-6.072-8.926,9.639-8.619,17.581-19.081,24.959-29.827,11.322.019,6.638,9.07,4.081,15.152a208.543,208.543,0,0,0,11.853,23.09c.85-.706.85-.706,9.509-17.11,24.067-3.077,30.156-4.483,32.7-4.337,4.665,4.112,2.675,8.78,2.524,14.724,15.52,30.314,16.935,32.3,40.5,79.327,3.526,8.357,5.074,13.455,4.637,22.513-3.552,7.637-6.675,13.86-12.487,20.22a36.161,36.161,0,0,0-3.824.7Z" transform="translate(0.001 0)"/><path class="cls-2" d="M155.6,288.225c-3.522-10.9-2.088-22.509-.655-33.688,17.98-1.812,38.793-6.733,57.048-4.156,3.966-.984,3.966-.984,5.382-1.831-1.259-9.344-11.994-23.231-16.794-31.308-7.343-10.909-11.577-18.135-12.991-19.412-4.236-6.375-5.084-6.8-5.508-7.65-3.4.277-6.654.7-9.91,1.116-9.21,6.072-7.112,22.211-7.977,32.259-6.654,1.263-21.668,7.751-26.616,3.5-6.348-13.314-15.813-24.794-23.154-36.978q0-1.274,0-2.548c3.842-13.582,12.214-26.59,17.614-39.745,5.1-5.087,14.871-5.921,21.808-6.618,4.815-1.974,9.631-3.948,14.446-5.781,7.651-4.659,7.651-4.659,8.075-4.516-.439,9.058-2.292,17.972-3.864,26.886-2.69.986-8.213,2.394-9.774,4.656-8.5,2.251-16.851,5.068-25.347,7.037a55.161,55.161,0,0,0-4.958,2.682c0,.566,0,1.132,0,1.84,5.788,9.351,13.959,33.426,28.7,23.683,1.856-9.763,2.3-19.812,3.869-29.576,8.219-6.073,19.962-3.365,28.179-8.022,5.374,2.7,5.65,6.8,7.2,12.608,4.519,6.66,8.611,13.885,12.706,20.827,18.639,28.479,18.639,28.479,25.415,39.813.421,2.124.421,2.124.987,2.549-1.708,5.659-5.114,11.315-8.093,16.406-3.837,9.619-7.537,21.785-8.53,23.058-2.123.421-37.65.365-49.257.913a72.822,72.822,0,0,0-13.312,4.226,23.4,23.4,0,0,0-3.125,7.5,5.1,5.1,0,0,0-1.557.281Z" transform="translate(0.001 0)"/><path class="cls-2" d="M270.912,226.128c-3.252-2.128-6.355-9.069-7.339-13.033-8.049-12.327-17.084-27.344-20.474-32.021-4.524-3.121-7.779-3.409-12.737-1.011-2.831.137-2.831.137-3.538-.288.01-6.37.728-12.6.455-18.966-4.955-10.529-11.307-19.948-17.362-29.893,1.352-14.245,10.946-31.23,19.458-42.857,21.95-7.184,21.95-7.184,36.4-12.681l1.84,0c3.248,4.959-.453,18.117-2.868,23.067-7.789,2.677-15.719,5.212-23.648,7.324-.008,4.954,12.7,21.534,15.528,26.35,1.565-4.668,3.129-9.336,4.693-13.863,8.5-5.507,19.119-6.764,28.887-8.447,3.821.713,9.046,7.94,9.748,11.9a6.9,6.9,0,0,0,.99.426c10.162,17.85,21.741,35.279,32.046,52.987.139,1.274.279,2.69.418,4.105q-6.185,17.188-12.369,34.375c-15.017,8.327-33.138,10.988-50.125,12.518Z" transform="translate(0.001 0)"/><path class="cls-1" d="M284.118,199.681c-5.377-1-12.009-14.032-14.41-17.716-5.364-9.067-10.729-17.992-16.093-26.918,2.125-1.837,3.118-2.826,3.971-5.231a2.663,2.663,0,0,1,1.133-.281c11.015,15.446,20.329,33.436,30.069,49.728l-4.671.418Z" transform="translate(0.001 0)"/><path class="cls-1" d="M295.869,197.859q-16.729-27.627-33.175-54.97c.142-.565.284-.99.427-1.415,6.8-2.4,11.047-4.941,18.407-4.223,1.272,1.417,2.542,3.69,3.813,5.107,28.518,46.188,29.644,50.167,29.646,48.6-2.408,1.128-3.685,3.249-6.376,4.377a2.022,2.022,0,0,0-.285.849,5.737,5.737,0,0,0-1.354-.265c-3.329-.273-7.76,1.7-11.1,1.944Z" transform="translate(0.001 0)"/></svg>