<svg id="Ebene_1" data-name="Ebene 1" xmlns="http://www.w3.org/2000/svg" viewBox="0 0 500 500"><defs><style>.cls-1{fill:#2e4a83;}</style></defs><title>ebtberlin</title><path class="cls-1" d="M250,0C111.929,0,0,111.929,0,250S111.929,500,250,500,500,388.071,500,250,388.071,0,250,0Zm0,10.989A238.854,238.854,0,0,1,453.75,125.01H46.25A238.854,238.854,0,0,1,250,10.989ZM436.639,182.34H408.178c-3.448,0-6.9.123-10.338-.077-1.043-.061-2.034-1.019-3.049-1.567,1.008-.419,2.013-1.194,3.023-1.2,11.859-.086,23.719-.016,35.578-.117,1.227-.01,2.446-.854,3.669-1.312l-.435-1.521H408.976c-3.861,0-7.724-.074-11.583.019-2.529.061-3.181-.991-2.283-3.495h49.323v15.96h-7.407c-12.963,0-25.925-.022-38.888.017-2.368.007-4.244-.187-2.921-3.813H414c6.619,0,13.24.061,19.857-.062,1.087-.02,2.159-.849,3.237-1.3Zm-2.979-12.418c-11.588,0-23.175.017-34.763-.015-2.222-.006-5.215,1-4.146-4.252-8.009,5.81-16.151,4.154-24.011,4.228-14.621.138-29.245.04-43.867.04h-4.8V147.333h28.873l.5,6.357h33.411l.528,6.482h53.688V137.1c-1.351-.071-2.81-.213-4.269-.213q-187.057-.015-374.114-.1c-4.068,0-5.266,1.2-5.022,5.142.316,5.085.145,10.2.049,15.307-.042,2.235.636,3.207,3.053,3.2,16.82-.075,33.641-.04,50.868-.04l.475-6.468h33.456l.474-6.56h29.816v22.286H51.45v-41.3H444.433v41.566Zm-67.2,136.611c-.021-3.006.823-4.731,4.59-5.051V343.94l1.381.159a24.347,24.347,0,0,0,.615-3.837c.047-12.41-.016-24.82.091-37.229.012-1.414.87-2.82,1.336-4.229l1.7.289V324.15l1.935,0q0-3.344,0-6.689c0-5.515.179-11.039-.069-16.543-.14-3.1.929-4.624,4.3-4.833v66.512H366.8c-.091-1.158-.265-2.342-.267-3.527C366.518,341.556,366.585,324.044,366.464,306.533ZM186.2,380.39a72.133,72.133,0,0,1-48.411,5.092c-16.536-4.017-27.287-17.158-28.592-34.824-.414-5.608-.315-11.264-.192-16.892a3.957,3.957,0,0,1,2.022-2.974c8.007-2.863,16.1-5.494,24.944-8.455v46.43h13.606c.093-1.469.276-3.047.279-4.626.024-12.554-.1-25.11.136-37.659a9,9,0,0,1,2.671-5.4,32.928,32.928,0,0,1,6.944-5.17c1.409-.828,3.624-1.69,4.792-1.124s2,2.886,2.028,4.456c.2,10.619.145,21.242.171,31.864,0,1.639,0,3.278,0,5.244H180.3c.109-1.574.311-3.165.315-4.757.028-11.726.1-23.453-.033-35.178-.04-3.486.845-6.068,4.027-7.876,2.262-1.285,4.2-3.122,6.365-4.6,4.037-2.753,6.6-1.6,6.781,3.262.245,6.613.187,13.238.221,19.859.029,5.76.006,11.52.006,17.547h13.9c0-7.791-.2-15.352.121-22.891a11.2,11.2,0,0,1,2.6-6.483c5.637-6.342,11.627-12.37,18.2-19.259.216,2.975.465,4.857.47,6.739.035,13.243.111,26.488-.042,39.73-.039,3.333.835,4.805,4.385,4.515,3.248-.266,6.534-.056,10.364-.056,0-5.187.113-9.846-.046-14.5a5.212,5.212,0,0,1,2.831-5.322c9.654-5.866,16.138-14.473,20.39-24.808,2.69-6.538,6.2-10.8,12.98-15.016.715,1.477,1.443,2.916,2.115,4.381,4.188,9.135,11.732,12.159,21.232,11.857,8.722-.277,14.53-4.769,17.855-12.48,4.546-10.539,6.157-21.666,5.756-33.107-.048-1.359-.007-2.722-.007-4.035l11.119-3.67c.124,1.92.333,3.769.346,5.619.044,6.484.1,12.969-.015,19.451-.045,2.58.673,3.794,3.5,3.629,3.566-.208,7.154-.05,11.225-.05.079-1.659.207-3.111.209-4.563.017-11.174.094-22.35-.047-33.522a9.674,9.674,0,0,1,2.742-7.4c2.633-2.77,4.86-5.927,8-9.839v19.164H380.4v-34.74c-3.575,0-7.114-.19-10.609.123-.969.087-2.1,1.513-2.651,2.584-2.271,4.4-4.316,8.919-6.52,13.357a6.27,6.27,0,0,1-3.06,2.976v-10.18c-4.605,0-8.708-.2-12.76.166-.841.077-2.082,2.259-2.124,3.506-.218,6.477-.08,12.964-.12,19.448-.032,5.186-5.545,9.98-10.7,9.119-.8-.133-1.735-1.539-1.974-2.512-.686-2.8-.8-5.745-1.588-8.5-1.694-5.916-6.176-8.739-10.622-7-5.023,1.966-7.693,8.763-4.388,13.516,2.574,3.7,6.41,6.7,10.145,9.359,2.29,1.633,3.226,2.966,2.495,5.673-1.859,6.883-3.283,13.9-5.474,20.67a22.562,22.562,0,0,1-5.219,8.3c-5.31,5.517-12.711,3.812-14.848-3.5a38.923,38.923,0,0,1,2.751-28.9,18.33,18.33,0,0,1,3.042-4.9c3.981-4.01,2.67-7.625-.162-11.525-1.608-2.214-3.076-2.681-4.953-.634-9.777,10.66-17.724,22.285-18.354,37.378-.2,4.9-3.18,7.534-7,10.822.392-4.933.865-9.1,1.012-13.287a62.291,62.291,0,0,0-.3-10.29c-1-7.553-7.68-10.851-13.9-6.5-3.882,2.718-6.924,6.642-10.309,10.06-1.12,1.131-2.13,2.37-3.461,3.862-1.562-6.731-1.562-6.731-8.315-6.73a17.518,17.518,0,0,1-2.481-.017c-3.625-.523-4.9.953-4.718,4.615.264,5.367.181,10.761-.01,16.135a8.462,8.462,0,0,1-1.53,4.921c-5.74,6.7-11.714,13.2-17.627,19.751a15.734,15.734,0,0,1-2.172,1.458c0-5.6-.088-10.479.032-15.353.076-3.09-.249-6.5-3.451-7.157-2.764-.563-6.56-.135-8.772,1.439-6.264,4.456-11.95,9.724-18.087,14.859a39.236,39.236,0,0,0-2.853-3.614c-2.546-2.543-6.976-2.41-10.553.478-4.72,3.811-9.286,7.81-13.938,11.706-1.111.93-2.3,1.769-3.991,3.061l-.74-7.928L109.7,326.166a34.406,34.406,0,0,1,1.262-5.305c3.414-7.8,6.764-15.643,10.555-23.262a11.4,11.4,0,0,1,5.3-4.727q59.9-26.931,119.919-53.6,68.279-30.415,136.587-60.765c1.244-.553,2.51-1.056,4.614-1.938.116,2.329.263,3.923.264,5.516.013,32.7-.049,65.39.089,98.085.016,3.817-1.077,5.789-4.684,7.479C317.782,318.5,252.1,349.664,186.2,380.39Zm121.5-46.731c-.144-3.044,1.256-4.233,4.584-4.405v14.661l1.034.226a6.525,6.525,0,0,0,.927-2.087c.122-2.338.056-4.687.056-7.031,0-8.488.215-8.756,9.281-11.259v39.643H307.746c0-5.995,0-11.873,0-17.75C307.747,341.656,307.89,337.649,307.7,333.659ZM247.936,296.4a16.554,16.554,0,0,0-.9-5.62c-1.6-4.18-.478-8.012,1.672-11.368a33.53,33.53,0,0,1,6.78-7.173c3.553-3,6.976-1.891,8.009,2.654,2.188,9.626-.047,18.846-3.315,27.851-2.349,6.473-5.487,12.484-12.207,17.493C247.976,311.515,248.033,303.956,247.936,296.4Zm79.138-48.627L325.4,249c-2.587-2.119-5.483-3.971-7.636-6.465-1.129-1.308-1.313-3.759-1.219-5.659.049-.99,1.491-2.386,2.562-2.691.759-.216,2.432.854,2.867,1.752C323.838,239.8,325.4,243.814,327.074,247.772Zm-216.13,27.558v-62.5h4.4c0,1.563,0,3.034,0,4.5-.022,16.812.07,33.625-.181,50.434-.04,2.692-1.614,5.362-2.478,8.042Zm9.3-12.576c-.013,1.792-.889,3.577-1.365,5.365l-1.54-.384q0-24.379,0-48.759a37.713,37.713,0,0,1,.124-4.951c.07-.528.935-1.108,1.554-1.322.233-.081,1.016.746,1.166,1.269a9.158,9.158,0,0,1,.118,2.464C120.313,231.876,120.358,247.316,120.249,262.754Zm6.691-7.032c.062,3.3-1.081,5.459-4.452,7.35V212.839h4.381c0,4.033,0,7.983,0,11.934C126.868,235.09,126.745,245.409,126.939,255.722Zm7.029,25.362a132.073,132.073,0,0,1,33.518-27.455c0,4.5.1,8.173-.072,11.835a3.39,3.39,0,0,1-1.533,2.508c-10.322,4.616-20.7,9.1-31.078,13.6C134.73,281.6,134.573,281.445,133.969,281.084Zm42.366-33,1.073.58a123.348,123.348,0,0,1-.161,12.631c-.132,1.282-2.181,2.365-3.353,3.54l-1.06-.673a111.762,111.762,0,0,1,.161-12.284C173.147,250.5,175.168,249.339,176.335,248.081Zm-3.326-19.069V212.762l4.353-.313c0,4.571.259,8.926-.177,13.211C177.072,226.769,174.78,227.656,173.009,229.011Zm8.035-3.98a9.438,9.438,0,0,1-1.586.246c0-3.79-.058-7.339.056-10.882.019-.6.693-1.289,1.237-1.718.2-.155,1.321.364,1.31.527C181.792,217.151,181.429,221.092,181.044,225.031Zm-.853,36.267c.038-5.151-2.349-10.554,1.376-15.17C181.754,251.29,183.986,256.665,180.192,261.3Zm4.395-15.293c.1-1.157,2.105-2.144,3.236-3.208l1.146.618c0,4.33.241,8.683-.159,12.977-.108,1.165-2.151,2.149-3.306,3.216l-1.071-.584C184.431,254.68,184.2,250.314,184.586,246.005Zm-.03-22.7V212.823h3.932C190.015,220.64,189.521,222.036,184.556,223.3Zm-43.644-74.729a11.165,11.165,0,0,1-.188,2.272H107.262l-.458,6.315H59.641V140.686c1.5-.08,2.835-.213,4.175-.213q52.924-.017,105.848-.008a7.138,7.138,0,0,1,2.457.089c.707.275,1.223,1.04,1.823,1.589-.571.441-1.1,1.181-1.721,1.262a35.277,35.277,0,0,1-4.54.092c-7.167,0-14.344.228-21.5-.086C142.138,143.233,140.11,144.2,140.912,148.575ZM182.4,161.735c0,5.281.006,5.284,5.448,5.284H309.462V140.8H317.9v28.782H177.238V140.7H182.4C182.4,147.776,182.4,154.756,182.4,161.735Zm41.268-18.3c-9.648.112-19.3.066-28.948.066h-4.687v16.636H302.359V144.259H274.735a29.207,29.207,0,0,1-4.949-.083c-.938-.163-1.742-1.09-2.607-1.674.914-.677,1.818-1.927,2.743-1.943,8.82-.151,17.643-.094,26.466-.1h9.791v23.4H186.221v-23a15.765,15.765,0,0,1,2.4-.379c11.717-.026,23.435-.061,35.151.045,1.061.01,2.113.977,3.169,1.5C225.851,142.52,224.765,143.419,223.669,143.432Zm6.038,3.711.427-6.405h33.124l.577,6.248h34.956v10.28h-105.9V147.142Zm147.169,25.976c-2.03,2.355-4.791,3.424-9.065,3.424q-51.525,0-103.05,0H57.361c1.421,1.524,1.941,2.561,2.7,2.783a13.57,13.57,0,0,0,3.7.109H362.117l.289.955a49.358,49.358,0,0,1-5.235,1.881,15.918,15.918,0,0,1-3.711.066H57.861c1.548,1.56,2.1,2.572,2.878,2.793a13.9,13.9,0,0,0,3.7.1H349.124l.335,1.451c-3.187.782-6.371,2.23-9.561,2.243-37.66.158-75.322.1-112.983.1H51.349V173.118Zm-55-30.986a11.356,11.356,0,0,1,1.842-1.6c.423-.238,1.079-.07,1.63-.07q54.182,0,108.363.011c.684,0,1.367.1,2.546.189v16.547H388.253l-.406-6.312h-33.5l-.491-7.4c-8.559,0-16.93,0-25.3,0a43.373,43.373,0,0,1-4.956-.094C322.984,143.332,322.45,142.576,321.879,142.132ZM250,489.011A238.916,238.916,0,0,1,42.784,369.186H78.946v-5.25l-5.128-.539V212.691c5.966,1.068,5.561-2.851,5.494-6.92-.153-9.289-.048-9.291-9.357-9.291H41.112v15.671l5.277.638V363.136h-6.97a239.242,239.242,0,0,1,5.3-235.6h2.228l1.175.862v64.056H332.605l.324,1.459c-2.926.854-5.824,2.31-8.782,2.444-7.71.349-15.446.109-23.171.128-1.341,0-2.683.126-4.4.213,0,3-.2,5.747.05,8.45.3,3.3-.757,5.1-4,6.522-31.7,13.935-63.311,28.069-94.949,42.142-.86.383-1.741.717-3.315,1.362,0-4.725-.223-9.056.163-13.333.092-1.02,2.084-2.216,3.43-2.715,6.214-2.3,6.25-2.226,6.241-8.683q-.008-5.793-.066-11.586a5.21,5.21,0,0,0-.5-1.208l-9.071,2.013v-6.9l5.536-.659c0-4.619.088-9.119-.092-13.609a2.815,2.815,0,0,0-1.979-1.909c-11.965-.118-23.932-.085-36.143-.085v15.575l5.581.761c0,5.657.04,11.406-.054,17.152a2.784,2.784,0,0,1-1.192,1.932q-16.826,10.578-33.684,21.019v-40.18l5.475-.656c0-4.617.088-9.116-.092-13.605a2.815,2.815,0,0,0-1.975-1.913c-11.966-.118-23.933-.085-36.145-.085V212.2l5.611.552v4.414c0,21.245.053,42.491-.08,63.735a13.531,13.531,0,0,1-1.813,6.493c-8.853,14.992-15.574,30.753-17.169,48.259-.907,9.951-2.206,20.038-1.493,29.931,1.882,26.107,15.6,45.452,44.332,52.142,20.433,4.757,39.834-.519,58.625-8.432,1.1-.464,2.15-2.436,2.208-3.751.246-5.507.218-11.035.052-16.548-.069-2.285.776-3.351,2.8-4.3q52.827-24.749,105.589-49.635c1.087-.512,2.229-.907,3.673-1.488V363.4l-5.369.444v4.9h37.256v-4.764l-4.752-.7q0-8.621,0-17.269c0-7.45-.092-14.9.085-22.347.032-1.355.815-3.4,1.852-3.912,9.328-4.624,18.788-8.981,28.222-13.389a4.363,4.363,0,0,1,1.45-.019V362.6l-5.217.559v5.59h37.146v-5.547l-4.564-.633c-.063-1.215-.188-2.522-.189-3.83-.012-20.693.039-41.387-.067-62.08-.014-2.676.5-4.635,3.227-5.375,2.9-.787,3.529-2.607,3.519-5.476-.107-29.246-.065-58.493-.065-87.74,0-1.626,0-3.252,0-5.246,1.825-.08,3.291-.2,4.757-.2,14.623-.014,29.248-.105,43.869.063,3.4.039,4.463-.9,4.432-4.386-.165-18.347-.077-36.7-.077-55.044v-4.419h8.4A237.88,237.88,0,0,1,489.011,250C489.011,382,382,489.011,250,489.011ZM58.309,344.124c.086-1.5.245-2.994.246-4.491q.021-61.245.073-122.489c0-1.516.889-3.031,1.363-4.546.515,1.48,1.475,2.959,1.479,4.44q.127,51.106.087,102.212a48.274,48.274,0,0,0,.487,4.9l1.207-.074V212.713h4.614V363.406H52.246V212.744h4.5V344.053Z"/><path class="cls-1" d="M448.325,212.067V196.48H422.262c-12.809,0-12.809,0-12.2,12.688.007.138-.057.335.013.4a15.586,15.586,0,0,0,2.98,2.831c.84.478,2.085.241,3.284.334V363.452l-5.26.355V368.7h37.173v-4.785l-4.513-.615V212.858Zm-10.393,151.3H422.309V212.717l4.141-.193V343.646l1.021.1c.1-1.088.3-2.177.3-3.265.023-10.761-.051-21.522.026-32.283q.328-45.89.754-91.779a13.95,13.95,0,0,1,.189-2.877,1.446,1.446,0,0,1,1.129-.863c.546.088,1.381.539,1.461.957a19.8,19.8,0,0,1,.178,3.705q.009,50.908,0,101.816v4.663a4.777,4.777,0,0,0,.84.254.6.6,0,0,0,.36-.132,2.34,2.34,0,0,0,.558-.58,2.241,2.241,0,0,0,.2-.781,6.232,6.232,0,0,0,.032-.826q.094-54.212.2-108.425c0-.106.162-.211.5-.622l3.733-.222Z"/><path class="cls-1" d="M164.641,69.946c1.444.863,3.573,1.635,5.04,1.19,3.335-1.013,6.44-2.783,9.67-4.261,2.948,4.49,2.008,9.749-2.867,11.4-6.164,2.092-8.458,5.855-7.424,12.07.2,1.21-.285,2.612.146,3.685.507,1.263,1.5,2.987,2.577,3.24a35.546,35.546,0,0,0,8.956.887c3.926-.1,5.412-2.384,4.754-6.947-1.585,0-3.446.472-4.785-.162-.932-.441-1.147-2.4-1.682-3.678a51.983,51.983,0,0,1,7.269-.459c.672.04,1.536,1.627,1.816,2.641,1.407,5.085,2.648,10.216,3.951,15.33.923,3.625,1.852,7.248,2.891,11.314h-27.64c3.685,4.8,6.77,8.021,13.257,7.963q61.656-.556,123.319.009c6.834.066,11.068-2.4,15.072-8.246H294.6c0-4.445-.2-8.562.057-12.649a83.65,83.65,0,0,1,1.609-12.338c.41-1.9,1.572-4.362,3.108-5.12,2.49-1.229,5.569-1.263,8.338-1.79.993,4.038.3,5.908-3.544,5.652-2.989-.2-2.535,2.2-2.628,4.093-.11,2.21.376,3.678,3.1,3.757,4.085.118,9.647-3.419,10.538-7.023,2.084-8.422,1.319-11.633-4.739-13.846-3.793-1.386-3.976-3.733-3.442-6.585.27-1.439,1.648-2.671,2.386-3.788,2.333,1.161,4.175,2.542,6.21,2.942a6.8,6.8,0,0,0,5.018-1.114c.838-.671.944-2.987.558-4.333-1.969-6.875-4.2-13.677-6.372-20.492-.1-.31-.568-.5-.7-.608l-4.219,3.693-2.924-4.794-1.046-.266c.95,10.972-5.874,15.6-13.624,19.477l-5.182-18.665-5.047,6.708-4.01-5.6c-.582,2.2-.844,3.726-1.391,5.141-.844,2.182-1.364,5.533-2.938,6.189a15.861,15.861,0,0,1-13.908-.44,4.608,4.608,0,0,1-2.041-3.3c-.2-5.972-.094-11.955-.094-17.8-3.449-.919-4.883-.146-4.908,2.669-.02,2.207.338,4.512-.187,6.593-.549,2.175-1.952,4.135-2.982,6.189l-1.072-.621c1.233-11.638,1.142-12.419-2.662-13.9-3.477-1.357-6.823-1-9.4,1.943-2.969,3.394-2.607,6.732,1.258,13.011-5.771,6.441-13.548,9.338-21.558,11.768a2.47,2.47,0,0,1-2.131-.807c-2.769-3.922-7.307-6.954-6.528-12.743.093-.694-.6-1.494-1.129-2.71l-4.768,6.722-4.073-6.359L192.91,58.15c-5.66-4.041-13.178-5.533-12.355-14.927l-1.078.5-3.209,6.159-3.385-5.372c-1.695,3.829-3.348,7.326-4.8,10.9-1.461,3.609-2.845,7.26-3.988,10.978C163.766,67.479,163.964,69.541,164.641,69.946ZM199.4,117.2c0-4.239.107-7.1-.03-9.942-.14-2.911.33-6.3-.987-8.607-2.219-3.894-1.025-7.443-.452-11.121.159-1.024,1.424-1.875,2.182-2.806l.982.946c-4.815,12.629-.622,15.288,7.383,15.442-1.5,4.4-2.811,8.832-4.581,13.075C203.432,115.3,201.553,115.814,199.4,117.2Zm15.138-12.33c-.207,1.851-.59,3.686-.717,5.541-.126,1.833-.027,3.682-.027,5.562h-6.049c-.773-6.435,4.8-10.294,5.185-16.01l1.974.307C214.782,101.8,214.706,103.343,214.535,104.871Zm9.333-2.108c-1.445,4.266-2,8.834-2.943,13.27l-2.057-.179c.223-2.884.467-5.767.661-8.654.183-2.717.26-5.442.483-8.156.161-1.96.484-3.907.866-6.872C223.548,96.056,225.232,98.739,223.868,102.763Zm11.8,13.117,2.225-10.185,12.214.741,3.009,9.444ZM249.34,73.544H236.731C239.809,70.015,247.2,70.062,249.34,73.544Zm-15.655-3.37c-4.054,2.869-6.317-2.78-10.065-2.787l-.029-1.067,12.129-4.185,1.226.68C235.906,65.336,235.566,68.843,233.685,70.174Zm16.557,24.191c-1.264,2.983-1.937,5.71-3.508,7.742-.659.853-3.481.806-4.861.171-3-1.381-4.546-3.926-3.253-7.913Zm7.52,21.579c-1.951-6.5-6.884-12.859-.756-20.244.25,3.515.172,6.551.78,9.442.382,1.818,1.895,3.372,2.716,5.131.759,1.626,1.273,3.367,2.12,5.671Zm8.323-10.156c-3.5-5.183-3.342-7.775,0-11.1Zm12.141,9.843c-4.131,1.793-5.348-1.8-7.086-3.851-1.4-1.65-1.987-3.44.166-5.706,1.437-1.513,1.357-4.466,2.169-7.593C278.134,104.045,278.809,109.628,278.227,115.631Zm10.386.227h-5.137l-4.9-20.492c9.086.448,7.761-6.495,9.339-11.612C291.039,94.388,285.712,105.036,288.612,115.858Zm3.931-51.228c5.786-3.21,11.369-6.892,14.885-13.153,1.069-1.9,4.978-1.765,5.854.172,2.1,4.646,3.955,9.4,6.181,14.775-6.659.749-8.248-4.8-10.967-7.059-1.413,2.728-3.115,5.222-4,7.978-.686,2.135-.247,4.609-.494,6.912-.357,3.323,2.25,3.543,4.325,4.443,5.45,2.362,6.1,4.646,2.911,11.959-.069-1.465-.25-2.935-.186-4.394.165-3.784-1.646-5.4-5.3-4.822-2.762.436-5.738.618-8.167,1.823-4.038,2-4.734,5.852-4.371,10.159.224,2.664-.372,5.4-.6,8.1l-1.258-.161c.219-4.76.251-9.538.716-14.273.383-3.907-.693-6.227-4.908-6.61a62.034,62.034,0,0,1-6.207-1.2v-9.93c2.893.889,5.9,2.872,7.768,2.1C290.707,70.632,291.6,67.193,292.544,64.63Zm-15.417-9.924c1.777-4.369,4.487-3.47,7.451-3.567,3.256-.106,3.778,2.3,4,4.7a95.07,95.07,0,0,1,.532,10.311c-.016,1.108-1.1,2.2-1.692,3.3a11.351,11.351,0,0,1-2.7-2.189,24.685,24.685,0,0,1-1.8-4.447c-6.551,5.48-4.5,12.274-4.5,18.031,2.534,1.184,5.941,1.875,6.11,3.038.379,2.606-.853,5.446-1.428,8.191l-1.461-.255V84.8l-12.762-2.5-1.218,2.657a10.467,10.467,0,0,1-1.952-.3c-5.59-1.981-5.153-1.865-6.726,3.536-.846,2.906-3.478,5.291-5.967,8.863-2.6-7.358-3.46-13.437-1.5-19.668a4,4,0,0,1,2.475-2.188C265.229,72.314,272.9,65.112,277.126,54.706Zm-20.854.861c2.584.71,4.958,2.285,7.558,2.809,2.485.5,5.149.108,8.855.108a45.823,45.823,0,0,1-15.566,13.472c-2.135,1.134-4.442.571-5.7-2.237-1.715-3.835-1.082-10.719,1.661-12.993C253.926,56.027,255.367,55.319,256.273,55.568Zm-14.619-7.561c-1.11-1.193-2.116-2.125-2.946-3.195-1.836-2.368-2.052-5.211.235-6.954,1.5-1.141,5.148-1.76,6.037-.853,1.325,1.352,1.116,4.251,1.434,6.509.064.453-.355,1.042-.681,1.47-1.594,2.1-1.763,3.809.793,5.42,2.5,1.575,4.32,1.068,5.961-1.164.618-.84,1.316-1.622,1.977-2.43l1.163.6c-.785,1.826-1.281,3.863-2.42,5.433-2.006,2.764-4.4,5.243-7.205,8.5h-6.524l-1.022-3.485-19.339,6.624-.478-1.236C227.266,59.646,236.4,56.792,241.654,48.006Zm-45.482,9.443c.381-1.877,1.918-4.708,3.282-4.925,2.195-.348,5.87.37,6.839,1.93,5.583,8.984,13.733,14.484,23.113,18.516,5.141,2.21,7.1,5.924,6.7,11.416-.476,6.649-.568,13.325-.826,19.99l-.588-.237-8.379-20.887c-3.554.063-7.1,4.714-9.585-.379-2.18.94-4.193,1.974-6.313,2.688-5.256,1.77-6.813,5.037-4.712,10.138a15.573,15.573,0,0,1,.54,2.533c-3.492-.055-5.087-1.912-4.447-4.647.728-3.112,1.719-6.649,3.807-8.852,4.119-4.344,2.941-9.182,2.481-13.958-.21-2.175-1.631-4.234-2.72-6.869-1.642,2.061-2.768,3.994-4.388,5.328-1.093.9-2.881.956-4.358,1.389a17.039,17.039,0,0,1-.874-3.724A45.414,45.414,0,0,1,196.173,57.449Zm-24.193-2.5c1.814-3.751,5.084-4.041,8.562-1.622,2.584,1.8,5.17,3.6,7.812,5.3,3.129,2.024,6.708,3.433,4.95,8.629-.526,1.555.986,5.174,2.347,5.66,1.874.671,4.516-.651,6.775-1.3.7-.2,1.236-1,2.092-1.738,2.619,3.441,3,7.531.788,10.256-1.534,1.891-5.542,1.775-9.329,2.794.161,4.736-4.376,10.4-.178,16.714,1.638,2.462,2.449,5.546-.572,8.929-1.489-7.256-2.838-14-4.27-20.722-.53-2.489-1.755-4.281-4.745-4.05a29.6,29.6,0,0,1-4.955-.006c-3.105-.284-5.23.838-5.478,4.064-.257,3.349.859,5.982,4.786,6.34a6.39,6.39,0,0,1,1.1.3l.044,1.068-9.731-1.154c0-3.026-.123-6.013.076-8.979a4.025,4.025,0,0,1,1.621-2.484,21.827,21.827,0,0,1,3.658-1.844c6.309-3.061,8.348-10.081,4.781-16.228-1.214-2.093-2.361-2.479-4.571-1.015-3.095,2.05-6.529,3.589-9.7,5.281-.488-.593-.669-.729-.646-.8C168.747,63.866,169.927,59.2,171.979,54.954Z"/><path class="cls-1" d="M255.273,31.212l5.3-5.256c-.771-4.018-2.838-6.692-5.453-6.417-2.721.286-4.48,2.406-3.89,4.763C251.855,26.786,253.867,28.923,255.273,31.212Z"/></svg>