<?xml version="1.0" encoding="UTF-8" standalone="no"?>
<svg
   xmlns:dc="http://purl.org/dc/elements/1.1/"
   xmlns:cc="http://creativecommons.org/ns#"
   xmlns:rdf="http://www.w3.org/1999/02/22-rdf-syntax-ns#"
   xmlns:svg="http://www.w3.org/2000/svg"
   xmlns="http://www.w3.org/2000/svg"
   xmlns:sodipodi="http://sodipodi.sourceforge.net/DTD/sodipodi-0.dtd"
   xmlns:inkscape="http://www.inkscape.org/namespaces/inkscape"
   version="1.1"
   id="svg2"
   xml:space="preserve"
   width="265.55212"
   height="342.10663"
   viewBox="0 0 265.55213 342.10663"
   sodipodi:docname="sgschorndorf.svg"
   inkscape:version="1.0.2 (e86c870879, 2021-01-15)"><metadata
     id="metadata8"><rdf:RDF><cc:Work
         rdf:about=""><dc:format>image/svg+xml</dc:format><dc:type
           rdf:resource="http://purl.org/dc/dcmitype/StillImage" /><dc:title /></cc:Work></rdf:RDF></metadata><defs
     id="defs6" /><sodipodi:namedview
     pagecolor="#ffffff"
     bordercolor="#666666"
     borderopacity="1"
     objecttolerance="10"
     gridtolerance="10"
     guidetolerance="10"
     inkscape:pageopacity="0"
     inkscape:pageshadow="2"
     inkscape:window-width="1920"
     inkscape:window-height="1033"
     id="namedview4"
     showgrid="false"
     inkscape:zoom="1.6146013"
     inkscape:cx="132.36943"
     inkscape:cy="171.25795"
     inkscape:window-x="0"
     inkscape:window-y="0"
     inkscape:window-maximized="1"
     inkscape:current-layer="g10"
     fit-margin-top="0"
     fit-margin-left="0"
     fit-margin-right="0"
     fit-margin-bottom="0"
     inkscape:document-rotation="0" /><g
     id="g10"
     inkscape:groupmode="layer"
     inkscape:label="ink_ext_XXXXXX"
     transform="matrix(1.3333333,0,0,-1.3333333,-56.603898,360.23129)"><path
       d="m 239.809,186.389 c 0,0 0.039,-77.385 0,-84.033 -0.242,-40.9521 -39.93,-86.9361 -97.715,-86.972 -57.9663,-0.0371 -97.8506,45.1672 -97.8506,86.686 0,6.54 0,84.319 0,84.319 v 81.994 H 239.809 v -81.994"
       style="fill:#ffffff;stroke:none;stroke-width:3.58095;stroke-linecap:butt;stroke-linejoin:miter;stroke-miterlimit:4;stroke-dasharray:none;stroke-opacity:1"
       id="path14-3" /><path
       d="m 239.809,186.389 c 0,0 0.039,-77.385 0,-84.033 -0.242,-40.9521 -39.93,-86.9361 -97.715,-86.972 -57.9663,-0.0371 -97.8506,45.1672 -97.8506,86.686 0,6.54 0,84.319 0,84.319 v 81.994 H 239.809 v -81.994"
       style="fill:none;stroke:#231f20;stroke-width:3.58095;stroke-linecap:butt;stroke-linejoin:miter;stroke-miterlimit:4;stroke-dasharray:none;stroke-opacity:1"
       id="path14" /><path
       d="m 238.044,222.602 v 44.136 H 45.6359 v -44.136 z m -41.16,10.75 c -5.467,1.711 -5.8,1.211 -13.313,2.668 -7.767,1.507 -7.825,-0.563 -16.101,1.382 -8.464,1.993 -15.494,2.024 -25.177,1.168 -9.684,-0.859 -14.068,-0.683 -21.682,-1.472 -6.797,-0.703 -7.638,-2.633 -18.306,-1.832 -12.2898,0.922 -6.7714,3.691 -11.0507,3.183 -4.2793,-0.504 -7.3621,-0.808 -8.3145,-2.879 -0.3503,-0.761 -0.8804,-2.144 -2.7183,-2.707 -1.3086,-0.402 -2.3719,-0.933 -3.3617,0.91 -0.9903,1.848 -4.059,2.133 -0.1871,3.75 5.3601,2.243 -0.1868,7.602 2.5941,8.25 2.7812,0.645 2.7207,-3.48 5.3211,-3.027 2.6,0.457 6.8793,0.961 6.8793,0.961 0,0 4.9867,13.492 18.5478,16.316 17.514,3.649 3.58,-1.265 1.557,-2.265 -2.024,-0.996 -20.0603,-12.188 -7.464,-14.992 12.596,-2.801 15.486,9.301 23.924,14.246 8.439,4.945 16.278,4.66 17.783,4.668 1.964,0.012 -3.866,-1.805 -3.866,-1.805 -9.061,-2.902 -23.21,-15.328 -11.278,-15.906 14.213,-0.692 18.924,11.289 25.53,14.07 5.396,2.274 13.415,3.461 21.577,2.555 2.475,-0.274 -9.101,-2.266 -11.853,-3.176 -7.507,-2.476 -15.656,-10.976 -12.506,-12.379 10.606,-4.73 26.181,6.965 33.555,9.176 5.216,1.566 8.965,2.047 14.256,0.871 10.487,-2.332 -3.813,-0.727 -7.649,-1.738 -9.215,-2.434 -13.561,-8.688 -13.561,-10.953 0,-2.782 16.516,-2.61 27.296,-11.129 5.296,-4.188 -4.965,0.379 -10.432,2.086"
       style="fill:#231f20;fill-opacity:1;fill-rule:nonzero;stroke:none;stroke-width:0.1"
       id="path16" /><path
       d="m 46.068,194.643 h 191.921 v 20.7793 H 46.068 Z"
       style="fill:#ed1c24;fill-opacity:1;fill-rule:nonzero;stroke:none;stroke-width:0.1"
       id="path18" /><path
       d="m 110.568,170.294 c -11.9211,0 -18.318,-0.678 -21.9043,-3.198 -2.0356,-1.454 -3.2953,-4.749 -3.6832,-7.948 -0.0969,-1.647 -0.1938,-3.78 -0.1938,-6.59 0,-5.719 0.0969,-8.142 1.2602,-11.34 0.6785,-1.648 1.4535,-2.811 2.3258,-3.587 1.8418,-1.55 6.1062,-3.489 11.0496,-4.652 2.4227,-0.581 5.7187,-1.26 9.7887,-1.938 7.463,-1.454 10.759,-2.036 12.988,-3.974 2.229,-1.842 2.229,-3.102 2.229,-7.269 0,-4.362 0,-5.816 -2.035,-7.367 -1.939,-1.55 -4.943,-1.647 -11.922,-1.647 -4.749,0 -6.978,-0.097 -9.401,0.581 -1.1634,0.291 -1.9387,0.679 -2.4231,1.066 -1.5508,1.745 -2.1324,4.168 -1.9387,9.499 l -12.8906,-0.776 c 0,-5.136 0,-7.85 0.6785,-11.049 0.7754,-3.101 1.3566,-4.555 3.3922,-6.203 2.0351,-1.551 3.9738,-2.035 7.9476,-2.52 4.1681,-0.678 7.9481,-0.678 14.6351,-0.678 9.014,0 13.57,0 17.931,1.163 2.229,0.678 3.877,1.357 4.846,2.035 1.939,1.454 3.489,5.428 3.78,9.305 0.097,1.938 0.194,4.652 0.194,8.141 0,5.137 -0.097,7.851 -1.357,10.565 -0.581,1.357 -1.26,2.423 -2.035,3.101 -1.551,1.454 -5.622,3.102 -9.499,3.974 -1.938,0.485 -4.652,0.97 -8.238,1.648 -6.106,1.066 -10.371,2.035 -12.794,2.908 -2.423,0.872 -3.974,1.841 -4.6521,2.907 -0.6785,1.067 -0.9696,2.811 -0.9696,5.331 0,3.877 0.6786,6.203 1.9387,7.076 1.26,0.872 4.943,1.356 10.952,1.356 5.816,0 9.305,-0.484 10.565,-1.55 1.26,-1.066 1.841,-3.877 1.841,-8.626 l 12.891,0.775 c 0,6.494 0,9.595 -1.454,12.794 -0.678,1.647 -1.454,2.907 -2.423,3.586 -1.841,1.454 -6.397,2.617 -11.437,2.908 -2.423,0.096 -5.815,0.193 -9.983,0.193 m 61.836,-31.693 v -9.596 h 13.957 c 0,-8.529 -0.775,-12.794 -2.52,-15.411 -1.066,-1.26 -3.78,-2.229 -6.203,-2.52 -1.26,-0.096 -3.004,-0.096 -5.234,-0.096 -4.943,0 -7.075,0 -9.498,1.26 -1.26,0.678 -2.132,1.453 -2.617,2.326 -0.872,1.841 -1.841,6.494 -1.938,11.146 -0.097,2.326 -0.097,5.621 -0.097,9.789 0,4.265 0,7.56 0.097,9.886 0.097,2.326 0.29,4.556 0.678,6.591 0.388,2.132 0.775,3.586 1.26,4.458 1.066,1.648 3.78,3.296 6.397,3.393 1.357,0.097 3.295,0.194 5.718,0.194 12.6,0 13.473,-0.873 13.473,-9.887 l 12.794,0.776 c 0,6.203 0,9.304 -1.454,12.503 -0.679,1.648 -1.454,2.908 -2.52,3.586 -2.036,1.551 -6.591,2.811 -11.922,3.102 -2.617,0.096 -6.009,0.193 -10.371,0.193 -8.916,0 -13.472,-0.193 -18.027,-2.132 -2.229,-0.969 -3.877,-2.132 -4.943,-3.489 -2.036,-2.617 -3.78,-9.014 -4.168,-15.702 -0.097,-3.392 -0.194,-7.85 -0.194,-13.472 0,-5.621 0.097,-10.177 0.291,-13.569 0.194,-3.392 0.678,-6.494 1.357,-9.305 0.775,-2.811 1.648,-4.943 2.714,-6.3 2.229,-2.714 7.075,-4.846 12.406,-5.234 2.617,-0.29 6.203,-0.387 10.564,-0.387 8.917,0 13.473,0.097 17.834,1.938 2.23,0.969 3.877,2.036 4.943,3.296 2.036,2.616 3.78,8.626 4.071,14.926 0.194,3.198 0.291,7.463 0.291,12.89 v 4.847 h -27.139"
       style="fill:#231f20;fill-opacity:1;fill-rule:nonzero;stroke:none;stroke-width:0.1"
       id="path20" /><path
       d="m 108.203,61.5641 v 18.925 h -1.833 l -0.032,-0.0321 -7.8462,-1.2019 0.475,-3.102 4.9682,0.6328 V 61.5641 l -5.0002,-0.1903 v -3.034 h 13.8262 v 3.034 z m 24.403,8.1668 c 1.296,0.189 2.118,0.632 2.497,1.2961 0.411,0.664 0.601,1.8679 0.601,3.6089 0,2.8821 -0.126,4.0512 -1.359,5.0313 -0.601,0.4738 -1.423,0.7906 -2.435,0.9168 -0.981,0.1262 -2.469,0.1898 -4.4,0.1898 -1.932,0 -3.42,-0.0636 -4.432,-0.1898 -1.012,-0.1262 -1.834,-0.443 -2.467,-0.9168 -0.6,-0.4742 -0.98,-1.1063 -1.138,-1.8332 -0.158,-0.7281 -0.221,-1.7731 -0.221,-3.1981 0,-1.741 0.19,-2.9449 0.601,-3.6089 0.411,-0.6641 1.233,-1.1071 2.529,-1.2961 -1.518,-0.1899 -2.498,-0.6637 -2.972,-1.3911 -0.443,-0.7277 -0.665,-2.1207 -0.665,-4.1476 -0.063,-2.8184 0.317,-4.2723 1.423,-5.157 0.664,-0.4743 2.277,-0.8223 3.954,-0.9161 0.855,-0.032 1.963,-0.064 3.388,-0.064 2.817,0 4.306,0.032 5.729,0.3801 0.727,0.1578 1.233,0.3796 1.58,0.6007 0.664,0.475 1.202,1.5832 1.328,2.7539 0.064,0.6012 0.095,1.4243 0.095,2.4051 0,2.0571 -0.221,3.418 -0.695,4.1449 -0.443,0.7274 -1.423,1.2012 -2.941,1.3911 z M 127.51,77.55 c 1.741,0 2.817,-0.159 3.261,-0.507 0.443,-0.3481 0.665,-1.2032 0.665,-2.5649 0,-1.425 -0.222,-2.3121 -0.665,-2.6601 -0.412,-0.3481 -1.52,-0.5071 -3.261,-0.5071 -1.742,0 -2.85,0.159 -3.293,0.5071 -0.444,0.348 -0.665,1.2351 -0.665,2.6601 0,1.3617 0.221,2.2168 0.665,2.5649 0.443,0.348 1.551,0.507 3.293,0.507 z m 0,-16.2711 c -1.995,0 -3.262,0.1902 -3.737,0.5391 -0.474,0.38 -0.727,1.298 -0.727,2.7859 0,1.552 0.253,2.5332 0.728,2.9133 0.506,0.3797 1.741,0.5699 3.736,0.5699 1.994,0 3.229,-0.1902 3.704,-0.5699 0.475,-0.3801 0.728,-1.3613 0.728,-2.9133 0,-1.4879 -0.253,-2.4059 -0.728,-2.7859 -0.475,-0.3489 -1.71,-0.5391 -3.704,-0.5391 z m 33.923,3.1063 v 3.0339 h -3.671 v 13.07 h -6.009 L 142.354,67.166 v -2.7808 h 11.14 V 61.3109 L 149,61.1531 v -2.8133 h 12.433 v 2.8133 l -3.671,0.1578 v 3.0743 z m -14.49,3.0339 4.177,6.1387 c 0.918,1.3613 1.741,2.6274 2.437,3.7981 -0.032,-1.7411 -0.063,-3.102 -0.063,-4.0829 v -5.8539 z m 31.677,3.9559 c -3.42,0 -5.003,-0.348 -6.174,-1.2648 0,2.4367 0.032,3.7359 0.285,4.907 0.127,0.6008 0.253,1.0437 0.411,1.3289 0.697,0.9168 1.615,1.1379 3.547,1.075 1.899,0 3.071,-0.1902 3.482,-0.5383 0.412,-0.3469 0.633,-1.2648 0.633,-2.7508 l 4.174,0.2532 c 0,1.9918 -0.031,3.0039 -0.442,4.0476 -0.222,0.5383 -0.475,0.9512 -0.822,1.2043 -1.202,0.8207 -3.194,1.2 -7.025,1.1367 -2.755,0 -4.148,-0.0636 -5.571,-0.6949 -0.727,-0.284 -1.233,-0.6629 -1.581,-1.1078 -0.632,-0.8859 -1.17,-2.8781 -1.296,-5.125 -0.063,-1.109 -0.095,-2.5981 -0.095,-4.4313 0,-1.866 0.032,-3.3539 0.063,-4.4628 0.063,-1.1079 0.222,-2.1211 0.474,-3.0711 0.253,-0.918 0.538,-1.6129 0.854,-2.0559 0.664,-0.8531 2.213,-1.5172 3.827,-1.643 0.823,-0.0949 1.931,-0.1269 3.325,-0.1269 3.197,0 4.938,0.2211 6.297,0.7269 0.664,0.2532 1.17,0.6641 1.455,1.2328 0.632,1.1383 0.822,2.3411 0.822,4.7793 0,2.6598 -0.443,4.4309 -1.328,5.2848 -0.854,0.8531 -2.624,1.2961 -5.315,1.2961 z m -1.931,-9.9691 c -1.995,0 -2.66,0.0312 -3.388,0.9179 -0.728,0.8871 -0.823,2.2172 -0.855,5.225 1.171,0.3801 2.691,0.5703 4.527,0.5703 1.805,0 2.913,-0.1902 3.357,-0.6019 0.443,-0.3801 0.665,-1.3613 0.665,-2.9133 0,-1.298 -0.254,-2.1848 -0.792,-2.5969 -0.507,-0.4109 -1.678,-0.6011 -3.514,-0.6011"
       style="fill:#231f20;fill-opacity:1;fill-rule:nonzero;stroke:none;stroke-width:0.1"
       id="path22" /></g></svg>
