<svg id="Ebene_1" data-name="Ebene 1" xmlns="http://www.w3.org/2000/svg" viewBox="0 0 295 400"><defs><style>.cls-1{fill:#f8f8f8;}.cls-2{fill:#252222;}.cls-3{fill:#eb1c24;}.cls-4{fill:#f9da04;}.cls-5{fill:#2e231f;}.cls-6{fill:#322a2b;}</style></defs><title>Zeichenfläche 1</title><path class="cls-1" d="M147.5.126c-46.465,0-92.931.1-139.4-.126C2.2-.028.389,1.523.407,7.579Q.8,136.262.74,264.947a114.158,114.158,0,0,0,8.944,44.123c34.156,82.325,151.768,128.3,236.565,52.2,31.749-28.494,48.884-63.3,48.33-107.234-1.036-82.112-.359-164.246-.149-246.37C294.446,1.677,292.894-.029,286.9,0,240.435.227,193.97.126,147.5.126Z"/><path class="cls-2" d="M147.5.126c46.465,0,92.931.1,139.4-.125,5.994-.029,7.546,1.677,7.531,7.666-.21,82.124-.886,164.259.149,246.37.554,43.936-16.581,78.74-48.33,107.234-84.8,76.1-202.41,30.126-236.565-52.2A114.158,114.158,0,0,1,.74,264.947Q.686,136.263.407,7.579C.389,1.523,2.2-.028,8.109,0,54.573.227,101.039.126,147.5.126Zm.132,163.746c-45.37,0-90.741.073-136.11-.107-4.794-.019-6.262,1.158-6.22,6.094.236,27.652.076,55.308.138,82.962.017,7.554-.283,15.182.617,22.649,4.284,35.562,21.934,63.783,49.4,85.894,32.664,26.293,70.134,37.836,111.9,32.22,39.19-5.27,70.157-25.557,94.548-56.056,18.534-23.175,28.356-49.417,27.542-79.645-.756-28.066-.161-56.168-.161-84.255,0-9.755,0-9.756-9.436-9.756Zm-.362-80.286c45.368,0,90.736-.081,136.1.118,4.883.021,6.117-1.257,6.059-6.089q-.4-33.7-.017-67.4c.042-4.318-1.218-5.434-5.436-5.429q-136.427.165-272.854-.013c-4.558-.006-5.808,1.254-5.762,5.787.226,22.249.273,44.5-.026,66.753-.07,5.189,1.437,6.41,6.478,6.388C56.971,83.5,102.123,83.585,147.275,83.586Zm23.116,37.279c-6.936,3.84-9.854,9.263-7.69,16.452,2.287,7.594,8.621,9.555,15.67,10.275a33.126,33.126,0,0,0,11.577-.785c5.306-1.349,9.536-4.293,10.863-9.963,1.29-5.513-.105-10.335-4.909-13.714-1.874-1.318-2.6-1.755-.51-4.077,6.919-7.7,4.12-16.916-5.7-20.342-3.791-1.323-7.672-1.264-11.532-.9-5.928.564-11.116,2.8-13.085,8.906C163.282,112.287,164.6,117.3,170.391,120.865Zm-82.406,2.029c-1.509,0-3.018.006-4.527,0-2.844-.013-5.925-.195-6.688,3.464-.757,3.632,1.243,4.968,4.705,5.167,2.348.135,2.474,2.263,2.078,3.939-.415,1.756-.8,3.7-3.47,3.863-5.417.337-10.159-.958-12.4-6.182a23.081,23.081,0,0,1,1.6-22.276c3.1-4.934,7.75-5.694,12.723-2.122a13.5,13.5,0,0,0,9.755,2.329c1.618-.155,3.178-.655,2.541-2.762-1.49-4.923-2.478-10.216-9.362-10.6-3.886-.217-7.744-.549-11.6.07-11.223,1.8-19.421,11.233-20.444,23.46-1.062,12.7,4.455,22.051,15.221,25.416,7.227,2.258,14.417,1.752,21.589-.643,3.812-1.273,5.732-3.343,5.21-7.56-.31-2.5-.491-5.09,2.2-6.909,2.062-1.393,3.345-3.592,2.18-6.151-1.173-2.578-3.7-2.577-6.135-2.512C91.435,122.931,89.71,122.894,87.985,122.894Zm171.852-6.71c1.74-10.493,4.917-11.8,13.729-6.539,2.638,1.573,6.367,3.421,7.9-.921,1.349-3.825-3.867-10.186-7.992-10.894a21.18,21.18,0,0,0-22.853,11.118,34.977,34.977,0,0,0-3.847,20.074c1.338,13.775,10.629,20.665,24.282,18.251,9.4-1.662,14.906-9.737,13.379-19.62-1.393-9.021-8.13-14-17.674-12.938C264.648,114.95,262.583,115.588,259.837,116.184ZM29.053,148.169c1.2-.164,4-.379,6.733-.957,7.293-1.541,11.609-5.931,12.345-12.3.852-7.371-1.714-11.717-9.272-15.214-3.322-1.537-6.838-2.647-10.2-4.112-2.429-1.059-4.657-2.509-4.61-5.614a3.729,3.729,0,0,1,2.257-3.632,5.665,5.665,0,0,1,7,1.633c2.215,2.526,5.035,2.959,8.18,3.043,3.414.092,4.673-.737,3.587-4.461-2.087-7.158-6.529-9.774-16.744-9.226-9.265.5-14.343,3.977-15.636,10.717-1.46,7.613,1.548,12.471,10.234,16.509,3.707,1.723,7.5,3.28,11.1,5.2,2.342,1.252,3.022,3.6,2.381,6.165-.709,2.833-2.966,3.354-5.493,3.538a8.52,8.52,0,0,1-6.9-2.922c-2.686-2.687-6.1-2.974-9.626-2.863-3.233.1-3.889,1.4-2.88,4.569C13.845,145.551,17.266,147.86,29.053,148.169Zm201.489-.987a19.584,19.584,0,0,0,2.586-.017c3.045-.409,6.994,1.546,8.847-2.089,1.838-3.605-1.858-5.131-3.831-7.259-1.509-1.628-2.112-2.778,1.037-3.953,4.136-1.543,4.857-6.426,1.348-7.584-4.2-1.386-3.619-3.967-3.632-6.842-.02-4.314.137-8.635-.056-12.94-.134-2.992,1.541-7.432-2.925-8.118-4.446-.682-10.019-2.311-13.342,2.139A186.334,186.334,0,0,0,205.721,123.2c-3.8,7.034-.909,10.875,7.014,10.9,3.02.008,6.052-.154,9.055.07,1.64.122,4.3-1.282,4.633,1.729.287,2.591-1.855,3.118-3.928,3.145-3.03.038-3.479,1.914-3.325,4.342.17,2.682,1.744,3.765,4.253,3.784C225.8,147.187,228.169,147.172,230.542,147.182Zm-81.442-27.9c0-5.606.042-11.213-.017-16.819-.031-2.894-.79-5.551-4.5-4.208a114.515,114.515,0,0,0-12.4,5.457c-2.162,1.088-2.48,3.379-2.192,5.656.181,1.429,1.077,2.754,2.426,2.429,6.473-1.561,5.24,3.034,5.308,6.485.094,4.742-.134,9.494.072,14.229.17,3.9-.208,6.913-5.258,6.639-2.561-.139-3.144,1.65-3.122,3.886.022,2.267.907,3.979,3.222,4.026,7.111.144,14.229.124,21.34,0,1.952-.035,3.086-1.426,3.107-3.448.017-1.686.337-4.213-1.885-4.17-7.894.155-5.987-5.4-6.089-9.812C149.036,126.184,149.1,122.733,149.1,119.283Z"/><path class="cls-3" d="M147.636,163.871H279.858c9.435,0,9.436,0,9.436,9.756,0,28.086-.595,56.189.161,84.255.814,30.228-9.008,56.47-27.542,79.645-24.391,30.5-55.358,50.786-94.548,56.056-41.768,5.616-79.238-5.927-111.9-32.22-27.468-22.111-45.118-50.331-49.4-85.894-.9-7.467-.6-15.095-.617-22.649-.062-27.654.1-55.309-.138-82.962-.042-4.936,1.426-6.113,6.22-6.094C56.9,163.944,102.266,163.871,147.636,163.871Zm124.876,45.916c-.228-18.931-13.565-34.761-31.337-37.842-8.1-1.4-15.146.008-21.189,6.515-7.637,8.225-16.039,15.738-24.089,23.581-8.738,8.513-8.211,6.662-.3,14.505,1.689,1.673,3.287,3.445,5.049,5.036,2.96,2.673,2.984,5.07.278,8.157-15.539,17.726-32.079,34.5-48.5,51.385-1.889,1.942-3.127,2.232-5.2.175q-26.72-26.46-53.636-52.723c-2.26-2.207-2.1-3.9.087-5.9,3.829-3.495,7.585-7.071,11.373-10.611,2.732-2.553,2.769-4.734-.08-7.558q-14.976-14.848-31.036-28.488a18.335,18.335,0,0,0-11.936-4.249,38.717,38.717,0,0,0-38.722,31.707c-1.5,8.047.064,14.7,6.27,20.541,7.231,6.8,13.954,14.159,20.734,21.427,10.032,10.755,10.156,10.991,20.326.443,4.488-4.655,7.735-5.151,12.758-.555,16.748,15.322,32.929,31.229,49.414,46.82,3.654,3.455,3.863,5.5.151,9.145-17.88,17.574-35.487,35.426-53.156,53.214-5.206,5.242-5.376,10.064-.69,14.563,4.544,4.363,8.545,4.028,13.885-1.38,17.462-17.688,35.01-35.295,52.215-53.23,3.859-4.023,5.9-4.483,10.039-.219,16.558,17.057,33.572,33.671,50.364,50.5,2.914,2.921,5.9,5.055,10.3,3.574,6.913-2.331,9.737-10.964,3.864-16.46-17.986-16.828-35.336-34.337-52.873-51.642-1.742-1.719-5.154-3.035-1.645-6.565q25.365-25.525,50.436-51.341c2.526-2.6,4.289-2,6.372.31,3.329,3.689,6.756,7.289,10.138,10.93,2.746,2.957,5.2,3.073,8.076-.135q13.2-14.713,26.744-29.118C271.1,219.92,272.986,214.908,272.513,209.787Z"/><path class="cls-4" d="M147.275,83.585c-45.152,0-90.3-.082-135.455.114-5.042.022-6.548-1.2-6.478-6.388.3-22.248.252-44.5.026-66.753-.046-4.533,1.2-5.793,5.762-5.787q136.427.194,272.854.013c4.218-.005,5.478,1.111,5.436,5.429q-.33,33.7.017,67.4c.057,4.832-1.176,6.11-6.059,6.089C238.011,83.5,192.643,83.586,147.275,83.585ZM87.527,49.915c-2.39-.151-3.9-.22-5.41-.347-8.146-.69-11.087-6.5-6.91-13.594,2.12-3.6,5.434-5.383,9.343-6.4a46.255,46.255,0,0,0,17.171-8.78c2.346-1.863,3.6-4.335,1.548-6.652-1.978-2.228-3.184.713-4.483,1.79-2.231,1.849-4.854,1.762-7.412,1.562C74.628,16.179,64.675,24.975,58.4,39.4c-5.5,12.647-13.75,14.462-23.913,5.286-1.639-1.479-3.209-3-5.686-1.891A4.808,4.808,0,0,0,25.8,48.027c.623,5.813-1.507,10.511-5.307,14.731-1.833,2.035-2.728,4.4-.928,7.061,1.95,2.886,4.69,3.1,7.419,1.8,3.192-1.516,5.322-.935,8.038,1.406,5.99,5.161,10.831,3.063,12.114-4.806,1.472-9.025,2.747-9.86,11.954-7.6,3.773.925,7.54,1.9,11.258,3.017,9.674,2.915,19.2,4.037,29.268,1.024,6.785-2.03,14-1.715,21.137.175a40.517,40.517,0,0,0,22.444-.411c7.627-2.376,14.819-1.817,22.262.3,7.522,2.139,15.345,3.949,22.953,1.271,9.457-3.329,18.191-2.121,26.954,1.986,4.487,2.1,9.107,4.648,14.2,3.846,11.762-1.854,23.418-3.75,34.828,1.622a2.974,2.974,0,0,0,3.5-1.05c.88-1.111.123-2.018-.892-2.591-8.937-5.047-17.341-11.659-28.653-9.788a11.912,11.912,0,0,1-3.232.083c-3.313-.372-5.9-2.261-6.626-5.329-.775-3.286,2.042-4.977,4.637-6.184a14.95,14.95,0,0,1,4.917-1.34c9.243-.8,17.465-4.585,25.589-8.631,1.351-.673,3.763-1.06,2.893-3.467-.776-2.146-2.617-2.666-4.793-1.992-6.309,1.955-12.818,1.8-19.271,1.453A41.109,41.109,0,0,0,211.093,46C204.987,51.684,197.7,52.619,190,52.167a7.887,7.887,0,0,1-7.1-4.925c-1.14-3.147.883-5.831,3.246-7.9a29.005,29.005,0,0,1,13.116-6.781c7.817-1.656,14.09-6.432,21.047-9.816,1.4-.68,3.55-1.318,1.909-3.75-1.213-1.8-2.726-2.088-4.4-.83a9.492,9.492,0,0,1-7.263,2.086c-16.914-2.367-31.28,2.632-43.979,14.037-8.033,7.215-17,13.277-27.958,15.7-4.744,1.05-8.891.943-10.96-3.905-2.132-5,.287-8.971,4.674-11.4,4.712-2.607,9.711-4.7,14.619-6.947,5.274-2.41,9.2-6.332,12.641-10.868.986-1.3,1.8-2.4.208-3.855a2.036,2.036,0,0,0-3.31.155c-2.856,3.176-6.951,3.1-10.625,4.226-7.788,2.394-17.344,1.3-23.17,7.15C116.313,30.964,109.022,36.387,103,43.019,98.306,48.183,93.525,50.963,87.527,49.915Z"/><path class="cls-1" d="M170.391,120.865c-5.786-3.566-7.109-8.578-5.315-14.146,1.969-6.11,7.157-8.342,13.085-8.906,3.86-.368,7.741-.426,11.532.9,9.819,3.426,12.618,12.645,5.7,20.342-2.087,2.322-1.364,2.759.51,4.077,4.8,3.379,6.2,8.2,4.909,13.714-1.327,5.67-5.557,8.614-10.863,9.963a33.126,33.126,0,0,1-11.577.785c-7.049-.719-13.383-2.681-15.67-10.275C160.537,130.128,163.455,124.7,170.391,120.865Zm11.328,18.321c4.112-.513,7.837-1.581,7.687-6.727-.137-4.7-3.482-6.013-7.485-6.083-4.258-.074-7.912,1.194-8.022,6.207C173.786,137.673,177.618,138.718,181.719,139.186Zm.433-21.706c3.239-.038,5.736-1.643,5.728-5.634-.008-4.041-2.695-5.592-6.33-5.584-3.446.008-5.839,1.775-5.921,5.351C175.541,115.44,177.748,117.453,182.152,117.48Z"/><path class="cls-1" d="M87.985,122.894c1.725,0,3.45.037,5.174-.009,2.434-.065,4.961-.066,6.135,2.512,1.165,2.559-.118,4.758-2.18,6.151-2.692,1.819-2.511,4.406-2.2,6.909.522,4.218-1.4,6.287-5.21,7.56-7.173,2.4-14.362,2.9-21.589.643-10.767-3.365-16.284-12.713-15.221-25.416,1.022-12.227,9.221-21.659,20.444-23.46,3.857-.619,7.714-.286,11.6-.07,6.884.384,7.872,5.677,9.362,10.6.638,2.107-.923,2.607-2.541,2.762A13.5,13.5,0,0,1,82,108.747c-4.972-3.572-9.62-2.812-12.723,2.122a23.081,23.081,0,0,0-1.6,22.276c2.242,5.223,6.984,6.519,12.4,6.182,2.672-.166,3.055-2.107,3.47-3.863.4-1.677.269-3.8-2.078-3.939-3.462-.2-5.463-1.535-4.705-5.167.763-3.659,3.844-3.476,6.688-3.464C84.967,122.9,86.476,122.894,87.985,122.894Z"/><path class="cls-1" d="M259.837,116.184c2.746-.6,4.811-1.234,6.922-1.469,9.544-1.063,16.281,3.917,17.674,12.938,1.527,9.883-3.98,17.959-13.379,19.62-13.653,2.414-22.944-4.476-24.282-18.251a34.977,34.977,0,0,1,3.847-20.074,21.18,21.18,0,0,1,22.853-11.118c4.125.709,9.341,7.069,7.992,10.894-1.532,4.343-5.261,2.495-7.9.921C264.753,104.388,261.577,105.691,259.837,116.184Zm5.523,7.568c-3.131.629-6.711,1.229-6.912,5.731a8.365,8.365,0,0,0,8.787,8.976c4.736-.122,6.4-2.943,6.2-7.164C273.209,126.478,270.618,123.861,265.36,123.751Z"/><path class="cls-1" d="M29.053,148.169c-11.787-.309-15.208-2.618-17.532-9.926-1.009-3.171-.352-4.467,2.88-4.569,3.527-.111,6.94.175,9.626,2.863a8.52,8.52,0,0,0,6.9,2.922c2.527-.184,4.784-.7,5.493-3.538.642-2.563-.039-4.913-2.381-6.165-3.6-1.925-7.4-3.481-11.1-5.2-8.686-4.038-11.694-8.9-10.234-16.509,1.292-6.74,6.37-10.221,15.636-10.717,10.215-.547,14.657,2.068,16.744,9.226,1.086,3.725-.173,4.553-3.587,4.461-3.145-.085-5.965-.517-8.18-3.043a5.665,5.665,0,0,0-7-1.633,3.729,3.729,0,0,0-2.257,3.632c-.047,3.1,2.181,4.555,4.61,5.614,3.358,1.465,6.875,2.575,10.2,4.112,7.558,3.5,10.124,7.843,9.272,15.214-.737,6.373-5.053,10.763-12.345,12.3C33.055,147.79,30.248,148,29.053,148.169Z"/><path class="cls-1" d="M230.542,147.177c-2.373,0-4.746.01-7.118-.009-2.509-.02-4.083-1.1-4.253-3.784-.154-2.428.3-4.3,3.325-4.342,2.073-.026,4.215-.554,3.928-3.145-.333-3.011-2.993-1.607-4.633-1.729-3-.224-6.035-.062-9.055-.07-7.923-.022-10.813-3.863-7.014-10.9a186.334,186.334,0,0,1,14.855-22.681c3.322-4.45,8.9-2.822,13.342-2.139,4.466.686,2.791,5.126,2.925,8.118.193,4.305.036,8.626.056,12.94.013,2.875-.569,5.455,3.632,6.842,3.508,1.158,2.787,6.04-1.348,7.584-3.149,1.175-2.547,2.325-1.037,3.953,1.973,2.127,5.669,3.653,3.831,7.259-1.853,3.635-5.8,1.68-8.847,2.089A18.786,18.786,0,0,1,230.542,147.177ZM215.289,124.9c11.331,1.364,11.331,1.364,11.326-8.685q0-3.368,0-6.736l-1.235-.441Z"/><path class="cls-1" d="M149.1,119.283c0,3.45-.064,6.9.016,10.35.1,4.408-1.8,9.967,6.089,9.812,2.221-.044,1.9,2.484,1.885,4.17-.021,2.022-1.155,3.413-3.107,3.448-7.112.126-14.229.146-21.34,0-2.316-.047-3.2-1.759-3.222-4.026-.022-2.236.562-4.025,3.122-3.886,5.05.274,5.428-2.736,5.258-6.639-.206-4.735.022-9.487-.072-14.229-.068-3.451,1.165-8.046-5.308-6.485-1.349.325-2.245-1-2.426-2.429-.288-2.277.03-4.568,2.192-5.656a114.515,114.515,0,0,1,12.4-5.457c3.706-1.343,4.466,1.314,4.5,4.208C149.142,108.07,149.1,113.676,149.1,119.283Z"/><path class="cls-5" d="M272.513,209.787c.473,5.12-1.417,10.132-5.526,14.517q-13.516,14.425-26.744,29.118c-2.878,3.208-5.33,3.092-8.076.135-3.382-3.641-6.809-7.242-10.138-10.93-2.083-2.308-3.846-2.905-6.372-.31q-25.1,25.786-50.436,51.341c-3.508,3.531-.1,4.847,1.645,6.565,17.537,17.306,34.887,34.814,52.873,51.642,5.874,5.5,3.05,14.129-3.864,16.46-4.392,1.481-7.383-.653-10.3-3.574-16.791-16.832-33.806-33.445-50.364-50.5-4.139-4.264-6.18-3.8-10.039.219-17.205,17.935-34.753,35.542-52.215,53.23-5.339,5.408-9.34,5.743-13.885,1.38-4.686-4.5-4.517-9.322.69-14.563,17.669-17.788,35.276-35.64,53.156-53.214,3.712-3.649,3.5-5.69-.151-9.145-16.485-15.591-32.665-31.5-49.414-46.82-5.023-4.6-8.27-4.1-12.758.555-10.17,10.549-10.294,10.312-20.326-.443-6.78-7.269-13.5-14.624-20.734-21.427-6.206-5.839-7.772-12.494-6.27-20.541a38.717,38.717,0,0,1,38.722-31.707,18.335,18.335,0,0,1,11.936,4.249Q90,189.671,104.963,204.512c2.848,2.824,2.812,5.005.08,7.558-3.789,3.54-7.544,7.116-11.373,10.611-2.187,2-2.346,3.689-.087,5.9q26.9,26.274,53.636,52.723c2.077,2.057,3.316,1.767,5.2-.175,16.424-16.887,32.964-33.658,48.5-51.385,2.706-3.087,2.682-5.484-.278-8.157-1.762-1.591-3.36-3.362-5.049-5.036-7.914-7.843-8.441-5.993.3-14.505,8.05-7.843,16.452-15.356,24.089-23.581,6.042-6.507,13.087-7.919,21.189-6.515C258.948,175.027,272.284,190.856,272.513,209.787Zm-37.287-24c2.018,0,2.45,0,2.882,0,8.228-.045,16.827,5.031,19.518,11.878,3.23,8.219,3.689,16.125-4.191,22.26-2.4,1.872-3.189,4.617-3.853,7.128s.122,5.991,2.206,7.3c1.8,1.131,3.2-2,4.581-3.427,2.1-2.173,3.852-4.695,6.042-6.762,5.664-5.346,7.562-11.638,6.3-19.353-2.556-15.653-14.047-27.151-30.1-29.68a16.071,16.071,0,0,0-14.734,4.648c-7.4,7.207-14.081,15.086-22.092,21.748-8.669,7.209-8.294,7.66-.4,15.775,7.73,7.948,7.79,8.318.315,16.861-16.37,18.712-33.883,36.346-51.307,54.057-22.577,22.95-45.32,45.736-67.96,68.625-4.33,4.377-3.59,9.107,1.463,11.193,3.987,1.646,5.475-1.687,7.414-3.664q60.15-61.3,120.188-122.716c7.06-7.207,7.642-7.148,14.682.166,10.726,11.143,10.7,11.124,21.144-.843,1.631-1.87,2.38-3.013,1.022-5.962-2.857-6.2-2.316-12.58,3.4-17.433,5.667-4.808,5.666-10.743,3.556-17.053-4.4-13.145-21.667-16.726-30.756-6.382-.788.9-1.424,1.8-2.454.911-1.178-1.018-.692-2.469.042-3.541A13.17,13.17,0,0,1,235.226,185.784Zm-176.97,2.022c-6.708.7-12.92,1.918-16.513,8.873-4.481,8.675-3.3,16.645,4.631,24.541,3.43,3.415,5.04,7.181,1.559,11.065-2.536,2.83-2.037,4.3.662,6.234a27.412,27.412,0,0,1,3.606,3.706c8.272,8.771,8.271,8.772,16.667.623,7.558-7.336,8.279-7.406,16.374-.33,17.4,15.21,33.839,31.447,50.271,47.678,2.989,2.953,4.67,3.909,8.019.3,3.023-3.258,3.216-4.9-.092-8.089-17.557-16.934-34.713-34.286-52.338-51.148-4.5-4.3-4.166-7.326.035-11.056q4.84-4.3,9.455-8.847c.983-.965,3.25-2.094,2.106-3.474-4.113-4.961-8.508-9.726-13.941-13.336-1.161-.771-1.891.436-2.793.914-7.382,3.907-10.052,3.318-16.293-2.671C66.567,189.811,62.808,187.755,58.256,187.806Zm161.36,170.981c-.1-2.354-1.793-3.505-3.149-4.838-17.519-17.224-35.146-34.34-52.507-51.722-3.241-3.245-4.773-2.252-7.513.4-3.077,2.982-3.6,4.705-.169,8.046,17.286,16.846,34.274,34,51.37,51.038.762.76,1.536,1.51,2.334,2.232,1.878,1.7,3.944,1.519,5.973.4A6.645,6.645,0,0,0,219.616,358.787ZM35.823,209.059c.131-5.87.5-9.743,2.733-13.482,7-11.707,23.561-14,33.248-4.47a18.688,18.688,0,0,0,5.206,3.514c3.139,1.452,6.387-.186,7.989-2.2,1.635-2.055-1.79-3.35-3.182-4.765-1.963-1.994-4.4-3.535-6.268-5.606-6.914-7.677-15.319-7.84-24.368-5.181-10.146,2.981-17.276,9.407-21.672,18.969-5.635,12.257-4.6,18.282,4.779,27.775,2.125,2.149,4.13,4.431,6.39,6.426,1.072.946,1.837,3.7,3.966,1.784,1.817-1.634,2.855-4.019,1.54-6.4a12.53,12.53,0,0,0-3.619-3.629C37.652,218.156,35.3,213.409,35.823,209.059Z"/><path class="cls-2" d="M87.527,49.915c6,1.049,10.778-1.732,15.47-6.9,6.025-6.632,13.316-12.055,19.707-18.477,5.826-5.854,15.382-4.756,23.17-7.15,3.674-1.129,7.769-1.05,10.625-4.226a2.036,2.036,0,0,1,3.31-.155c1.592,1.453.778,2.555-.208,3.855-3.439,4.536-7.367,8.458-12.641,10.868-4.908,2.243-9.907,4.339-14.619,6.947-4.387,2.427-6.806,6.4-4.674,11.4,2.069,4.849,6.216,4.955,10.96,3.905,10.96-2.425,19.925-8.488,27.958-15.7,12.7-11.406,27.065-16.4,43.979-14.037a9.492,9.492,0,0,0,7.263-2.086c1.669-1.258,3.183-.967,4.4.83,1.641,2.432-.511,3.07-1.909,3.75-6.957,3.384-13.23,8.16-21.047,9.816a29.005,29.005,0,0,0-13.116,6.781c-2.363,2.074-4.385,4.757-3.246,7.9a7.887,7.887,0,0,0,7.1,4.925c7.7.452,14.983-.483,21.089-6.169a41.109,41.109,0,0,1,31.358-11.387c6.453.344,12.962.5,19.271-1.453,2.177-.674,4.017-.154,4.793,1.992.87,2.407-1.542,2.794-2.893,3.467-8.123,4.046-16.345,7.831-25.589,8.631a14.95,14.95,0,0,0-4.917,1.34c-2.595,1.208-5.412,2.9-4.637,6.184.724,3.068,3.313,4.957,6.626,5.329a11.912,11.912,0,0,0,3.232-.083c11.313-1.871,19.716,4.741,28.653,9.788,1.015.573,1.772,1.48.892,2.591a2.974,2.974,0,0,1-3.5,1.05c-11.41-5.372-23.065-3.476-34.828-1.622-5.088.8-9.708-1.743-14.2-3.846-8.763-4.107-17.5-5.315-26.954-1.986-7.609,2.679-15.432.869-22.953-1.271-7.443-2.117-14.635-2.675-22.262-.3a40.517,40.517,0,0,1-22.444.411c-7.137-1.889-14.352-2.2-21.137-.175-10.071,3.013-19.594,1.891-29.268-1.024-3.718-1.121-7.485-2.093-11.258-3.017C49.88,58.361,48.6,59.2,47.133,68.221c-1.283,7.869-6.124,9.967-12.114,4.806-2.716-2.341-4.846-2.922-8.038-1.406-2.728,1.3-5.469,1.084-7.419-1.8-1.8-2.664-.9-5.026.928-7.061,3.8-4.22,5.929-8.918,5.307-14.731A4.808,4.808,0,0,1,28.8,42.8c2.477-1.109,4.048.411,5.686,1.891C44.653,53.862,52.9,52.048,58.4,39.4,64.675,24.975,74.628,16.179,91.374,17.49c2.558.2,5.181.287,7.412-1.562,1.3-1.077,2.505-4.018,4.483-1.79,2.057,2.317.8,4.789-1.548,6.652A46.255,46.255,0,0,1,84.55,29.57c-3.909,1.021-7.223,2.8-9.343,6.4-4.177,7.1-1.236,12.9,6.91,13.594C83.625,49.695,85.137,49.763,87.527,49.915Z"/><path class="cls-2" d="M181.719,139.186c-4.1-.468-7.933-1.513-7.82-6.6.111-5.013,3.764-6.281,8.022-6.207,4,.07,7.348,1.38,7.485,6.083C189.556,137.6,185.831,138.673,181.719,139.186Z"/><path class="cls-6" d="M182.152,117.48c-4.4-.027-6.611-2.041-6.523-5.867.082-3.576,2.474-5.343,5.921-5.351,3.635-.008,6.322,1.542,6.33,5.584C187.888,115.837,185.391,117.442,182.152,117.48Z"/><path class="cls-2" d="M265.36,123.751c5.258.11,7.849,2.727,8.077,7.544.2,4.221-1.465,7.042-6.2,7.164a8.365,8.365,0,0,1-8.787-8.976C258.648,124.981,262.229,124.38,265.36,123.751Z"/><path class="cls-6" d="M215.289,124.9l10.091-15.861,1.235.441q0,3.368,0,6.736C226.619,126.265,226.619,126.265,215.289,124.9Z"/><path class="cls-4" d="M235.226,185.784a13.17,13.17,0,0,0-13.089,5.733c-.734,1.072-1.22,2.524-.042,3.541,1.03.89,1.667-.014,2.454-.911,9.089-10.344,26.36-6.763,30.756,6.382,2.11,6.31,2.111,12.245-3.556,17.053-5.72,4.853-6.261,11.231-3.4,17.433,1.358,2.949.609,4.092-1.022,5.962-10.439,11.967-10.418,11.985-21.144.843-7.041-7.314-7.623-7.374-14.682-.166Q151.4,303.009,91.309,364.37c-1.939,1.977-3.427,5.31-7.414,3.664-5.052-2.086-5.793-6.816-1.463-11.193,22.639-22.889,45.383-45.675,67.96-68.625,17.423-17.711,34.937-35.346,51.307-54.057,7.475-8.544,7.415-8.913-.315-16.861-7.892-8.115-8.267-8.566.4-15.775,8.012-6.662,14.695-14.54,22.092-21.748a16.071,16.071,0,0,1,14.734-4.648c16.054,2.529,27.545,14.027,30.1,29.68,1.26,7.715-.639,14.007-6.3,19.353-2.19,2.067-3.943,4.589-6.042,6.762-1.381,1.429-2.78,4.558-4.581,3.427-2.083-1.308-2.873-4.775-2.206-7.3s1.448-5.256,3.853-7.128c7.88-6.135,7.42-14.042,4.191-22.26-2.691-6.847-11.29-11.922-19.518-11.878C237.676,185.786,237.244,185.784,235.226,185.784Z"/><path class="cls-4" d="M58.26,187.8c4.549-.047,8.308,2.008,11.411,4.986,6.242,5.989,8.912,6.579,16.293,2.671.9-.478,1.632-1.686,2.793-.914,5.433,3.61,9.827,8.375,13.941,13.336,1.144,1.38-1.124,2.509-2.106,3.474q-4.618,4.536-9.455,8.847c-4.2,3.73-4.532,6.754-.035,11.056,17.625,16.862,34.78,34.214,52.338,51.148,3.308,3.191,3.115,4.831.092,8.089-3.348,3.608-5.03,2.653-8.019-.3-16.432-16.231-32.87-32.468-50.271-47.678-8.095-7.076-8.816-7.006-16.374.33C60.473,251,60.473,251,52.2,242.224a27.412,27.412,0,0,0-3.606-3.706c-2.7-1.935-3.2-3.4-.662-6.234,3.481-3.885,1.871-7.65-1.559-11.065-7.931-7.9-9.112-15.866-4.631-24.541C45.336,189.724,51.548,188.508,58.26,187.8Z"/><path class="cls-4" d="M219.616,358.787a6.645,6.645,0,0,1-3.66,5.558c-2.029,1.121-4.1,1.3-5.973-.4-.8-.722-1.571-1.473-2.334-2.232-17.1-17.041-34.084-34.192-51.37-51.038-3.428-3.34-2.908-5.064.169-8.046,2.74-2.655,4.272-3.649,7.513-.4,17.36,17.383,34.987,34.5,52.507,51.722C217.823,355.282,219.513,356.433,219.616,358.787Z"/><path class="cls-4" d="M35.823,209.059c-.527,4.35,1.829,9.1,6.743,12.739a12.53,12.53,0,0,1,3.619,3.629c1.315,2.378.277,4.763-1.54,6.4-2.129,1.914-2.894-.838-3.966-1.784-2.26-1.995-4.265-4.276-6.39-6.426-9.383-9.493-10.414-15.518-4.779-27.775,4.4-9.562,11.526-15.989,21.672-18.969,9.049-2.658,17.454-2.5,24.368,5.181,1.864,2.07,4.305,3.612,6.268,5.606,1.393,1.415,4.818,2.71,3.182,4.765-1.6,2.013-4.85,3.651-7.989,2.2a18.688,18.688,0,0,1-5.206-3.514c-9.688-9.535-26.251-7.238-33.248,4.47C36.321,199.316,35.954,203.189,35.823,209.059Z"/></svg>