<svg id="Ebene_1" data-name="Ebene 1" xmlns="http://www.w3.org/2000/svg" viewBox="0 0 400 400"><defs><style>.cls-1{fill:#14a4db;}</style></defs><title>Zeichenfläche 1</title><path class="cls-1" d="M29.159,96.231a1.175,1.175,0,0,0,.36-1.017,2.177,2.177,0,0,0,1.429-2.271l-.058.072q7.284-9.971,14.572-19.938l.03-.062c3.451-3.482,7-6.88,9.657-11.056l-.014-.032c3.623-2.092,6.267-5.214,8.82-8.432l.005,0L93.413,30.7a.314.314,0,0,0,.483-.234c2.7-1.007,5.323-2.145,7.152-4.538,12.693-6.168,25.328-12.375,38.9-16.582C169.317.243,199.081-2.393,229.527,2.244c11,1.675,21.655,4.661,32.384,7.414a121.926,121.926,0,0,0,18.407,6.986q9.466,4.787,18.932,9.572,11.769,7.964,23.537,15.933l-.034-.041a12.285,12.285,0,0,0,5.8,4.712c25.4,22.415,45.1,48.937,57.751,80.548-.139,2.26.916,4.061,2.2,5.772l.007.026a10.348,10.348,0,0,0,2.325,6.855l.016.057c.007,2.865.444,5.6,2.332,7.911,4.374,18.716,7.35,37.588,6.734,56.908a200.19,200.19,0,0,1-10.927,60.315,21.243,21.243,0,0,0-.587,2.789l-11.388,25.577L377,293.6c-3.441,5.453-6.819,10.948-10.335,16.352-9.268,14.248-20.609,26.756-32.543,38.758l.1-.018a1.278,1.278,0,0,0-1.231,1.271l.025-.114a7,7,0,0,0-4.395,3.707h0c-3.407,2.344-7.346,4.04-9.537,7.866l.112-.171a2.221,2.221,0,0,0-2.242,1.473c-11.779,7.734-23.791,15.061-36.612,20.965-2.756.224-5.275.986-7.16,3.182l.135-.081a3.759,3.759,0,0,0-3.552,1.346l-7.829,2.566-26.371,6.8-2.386.285a352.256,352.256,0,0,1-50.652,2.084l-1.173-.1-36.809-6.907-.046-.017a395.589,395.589,0,0,1-43.675-18.595c-16.515-10.094-31.845-21.7-45.192-35.808-29.251-30.909-47-67.519-53.822-109.521.1-.1.307-.234.287-.291a4.66,4.66,0,0,0-.36-.7l-.012-.122c.6-8.062-1.4-15.94-1.685-23.963-.365-10.178,1.87-20.152,1.6-30.282q.06-.683.119-1.366c1.248-1.579,1.479-3.514,1.709-5.391,1.611-13.172,5.521-25.714,10.085-38.1,3.828-10.392,9.429-19.948,13.8-30.079l-.074.075q.5-.667,1-1.333l.023-.021C29.021,97.312,29.308,96.939,29.159,96.231ZM62.418,71.546l-1.17,1.182a8.44,8.44,0,0,0-3.3,3.738l-.972,1.1c-8.5,8.675-15.007,18.779-20.961,29.286-3.7,6.534-3.593,6.763,3.851,6.766q86.256.031,172.512.05c21.468.007,42.936.047,64.4.012,1.6,0,3.863.853,4.589-1.179.571-1.6-1.4-2.5-2.461-3.526-2.888-2.783-5.827-5.514-8.733-8.28a3.919,3.919,0,0,0-4.2-1.119c-4.375,1.563-8.674.762-12.981-.265l-.026.078c-3.729-2.762-8.039-4.874-10.286-9.291-1.162-2.283-3.159-4.518-.282-6.96,1.48,7.873,7.272,11.805,13.98,14.238,3.306,1.2,7.484,1.81,10.244-2.066,1.132-.441,1.958-1.09,1.678-2.489,3.08-11.3-1.656-19.173-13.236-22.013-1.488-2.562-4.993.07-6.706-2.476,2.236-1.4,4.543-.337,6.645-.872l6.415,2.412a28.257,28.257,0,0,1,11.4,16.122c-.036.181-.143.385-.092.537a7.557,7.557,0,0,0,.457.954c-.419,3.923-5.159,7.809-.1,11.78l.953.771a24.952,24.952,0,0,0,7.257,6.776l-.005-.029c2.963,3.734,5.653,7.142,11.464,7.047,21.212-.345,42.434-.069,63.651-.2,3.283-.021,8.108,1.826,9.524-1.155,1.442-3.036-2.649-6.305-4.136-9.556-.268-.586-1.154-.888-1.755-1.321l.16.1a2.282,2.282,0,0,0-1.433-2.354c-11.985-20.276-27.959-36.84-46.875-50.665-2.917-2.68-5.749-5.48-9.626-6.791l.005.008A142.866,142.866,0,0,0,259.6,21.246l-.073-.028a86.772,86.772,0,0,0-28.68-6.942c-30.134-5.534-59.678-3.062-88.7,6.569-1.741.018-3.361.28-4.219,2.091a.358.358,0,0,0-.582-.114,9.28,9.28,0,0,0-7.161,2.575.476.476,0,0,0-.694.128c-2.228.109-4.317.543-5.76,2.483l-.024,0a19.5,19.5,0,0,0-9.287,4.483l-.037-.014c-3.348.459-5.984,2.278-8.438,4.445a.441.441,0,0,0-.575.329c-4.118,1.445-7.488,4.081-10.8,6.816l-1.13.656a22.447,22.447,0,0,0-6.909,4.869C81.5,52.9,76.7,56.5,72.878,61.247l.131.349-.155-.34a5.268,5.268,0,0,0-3.493,3.425l.315.265-.338-.235a10.405,10.405,0,0,0-4.865,4.678l-.8.806Q63.045,70.87,62.418,71.546Zm98.266,122.775a2.869,2.869,0,0,0,2.309-2.3l.183-.441,1.641-1.66.434-.2c2.408-.989,3.808-2.876,5.175-5.49a16.214,16.214,0,0,0-2.509-.46q-75.643.067-151.286.191c-1.433,0-3.14-.648-4.093,1.172a1.965,1.965,0,0,0-.417,2.251l-.033,1.933a53.729,53.729,0,0,0,.018,21.782,21.2,21.2,0,0,0,1.048,11.3c.941,16.791,5.468,32.684,11.958,48.086a5.387,5.387,0,0,0,2.062,4.554l.034.062a28.779,28.779,0,0,0,6.527,13.4c4.329,10.348,10.873,19.332,17.748,28.015,25.615,32.35,58.13,54.3,97.944,65.492a184.5,184.5,0,0,0,98.143.94c39.279-10.258,72.045-31.311,97.935-62.806,12.472-15.172,22.758-31.675,29.4-50.3a8.355,8.355,0,0,0,2.238-6.245.351.351,0,0,0,.109-.591,5.75,5.75,0,0,0,2.013-5.212l.014-.052c2.142-3.918,3.013-8.213,3.71-12.559,1.245-1.38.918-3.076.94-4.7,4.959-16.59,4.823-33.632,4.682-50.709-.041-4.923-2.047-5.987-6.6-5.977-48.425.111-96.851.015-145.276.018-2.242,0-4.608-.547-6.7.848-1.082.789-.983,1.726-.341,2.731,5.038,6.095,10.989,10.428,19.333,10.394,12.455-.052,24.911.043,37.364-.077a16.026,16.026,0,0,1,9.758,2.66l-.038-.06.99,1.383-.132-.1c-.168,3.724.435,7.5-.759,11.156l-.045.432-1.637,1.67-.415.113a30.29,30.29,0,0,1-5.568,1.015c-17.664-.046-35.328-.2-52.991-.332l-1.047-.664a3.074,3.074,0,0,0-2.509-2.194l-.011-.009a59.019,59.019,0,0,0-13.565-11.149l-.836-.618c-2.765-3.4-5.641-2.68-8.31-.007-3.921,3.927-7.768,7.937-11.491,12.053a8.225,8.225,0,0,1-6.5,3.017q-21.824-.052-43.648,0c-4.4.005-5.5-1.787-3.111-5.569l.011-.011a2.969,2.969,0,0,0,2.317-2.285l0,0a2.535,2.535,0,0,0,2.353-2.291l-.03.03a2.46,2.46,0,0,0,2.306-2.34h0a2.936,2.936,0,0,0,2.275-2.339l0,0a2.64,2.64,0,0,0,2.316-2.3l-.006.006a2.844,2.844,0,0,0,2.284-2.321l.012-.012a2.94,2.94,0,0,0,2.271-2.283Zm27.642-27.644a3.436,3.436,0,0,0,2.3-2.3,2.478,2.478,0,0,0,2.278-2.336c3.178-2.06,6.68-2.443,10.4-2.424,15.525.082,31.052-.021,46.577,0,3.138,0,6.217-.231,8.611-2.456,6.131-5.7,12.506-11.168,17.423-18.046l.027-.018a81.61,81.61,0,0,0,13.831-13.741l0-.068c2.977-1.787,3.745-3.565-.021-5.325a.652.652,0,0,0-.85-.474c-1.361-4.381-5.075-3.341-8.126-3.347q-60.326-.107-120.652-.075-62.049-.017-124.1-.052c-3.283,0-6.292.1-6.584,4.429a.4.4,0,0,0-.23.617,4.966,4.966,0,0,0-2,4.04l-.032.052a5.75,5.75,0,0,0-2.1,4.554c-5.507,13.957-10.154,28.146-11.583,43.2-.752,2.413-2.155,4.808-.2,7.3a4.107,4.107,0,0,0,3.475.394l1.165-.039,13.8-.012,3.47.026c2.159.31,4.315.57,6.416-.271l1.227-.529.2.076c9.229,2.13,18.547.761,27.831.709l11.474.037a115.541,115.541,0,0,0,18.446,0l2.318,0c6.24-.08,12.567,1.692,18.69-.884l.107-.109c.8,1.261,1.887,1.049,3.018.571l2.092.007c12.575,1.573,25.25-.213,37.776.861,8.908.764,14.439-2.928,18.933-9.722a2.691,2.691,0,0,0,2.283-2.328A2.69,2.69,0,0,0,188.326,166.676Zm186.528-35.988.042.062c.1-2.831-1.742-5.026-2.463-7.578-1.482-5.249-4.319-7.347-10.228-7.224-20.656.428-41.328.128-61.993.105-2.564,0-5.129,0-8.125,0,1.218,3.135,2.736,4.977,5.005,3.964,4.541-2.027,7.683.082,10.86,2.731l.013.017c1.4,3.841,1.718,7.686.039,11.538a.371.371,0,0,0-.345.457c-1.988.79-3.769,1.8-4.37,4.086l-.01.012a323.094,323.094,0,0,0-29.886,30l-.03.025c-1.983.171-2.938,1.9-3.878,3.144-3.859,5.094-8.828,6.65-15.025,6.234-6.08-.409-12.208-.163-18.313-.057-1.711.03-3.927-.715-5,2.356h44.588l19.541.009q40.877.786,81.754,0l3.418.045a1.532,1.532,0,0,0,1.969-.764l1.567.589c5,.815,3.513-2.047,2.59-4.591l-.231-2.327c-.12-4.084-.063-8.2-2.26-11.889-.791-9.165-3.933-17.685-7.148-26.184A5.387,5.387,0,0,0,374.854,130.689Z"/><path class="cls-1" d="M85.837,316.674c-5.9-5.464-6.128-8.784-1.1-16.056a233.6,233.6,0,0,0,26.078-25.64l.268-.147c.7.082,1.012-.232.938-.934l.144-.25a26.835,26.835,0,0,0,7.927-7.887l.208-.114c.7.059,1.033-.265.984-.973l.108-.186a24.868,24.868,0,0,0,2.714-2.038c10.5-10.3,20.946-20.662,31.469-30.94,2.142-2.092,3.831-5.1,7.233-5.256,5.337-.24,10.688-.189,16.033-.182,1.259,0,2.88-.311,3.318,1.469.318,1.292-.778,2.072-1.528,2.9-3.845,4.231-8.487,7.7-11.813,12.428l-.08.052a.936.936,0,0,0-1.011,1.1l-.11.187-1.015.976-.155.076c-.724-.031-1.117.293-1.112,1.043l-.033.069A76.178,76.178,0,0,0,152.664,259l-1.194,1.2a74.826,74.826,0,0,0-12.646,12.642l-.031.017A1,1,0,0,0,137.721,274l-.043.08a15.265,15.265,0,0,0-5.86,5.639l-1.086,1.218a17.86,17.86,0,0,0-5.813,5.711l-1.1,1.173a6.863,6.863,0,0,0-3.484,3.44l-3.422,3.487a6.283,6.283,0,0,0-3.389,3.488l-1.191,1.185a15.577,15.577,0,0,0-5.8,5.706l-1.148,1.123a14.381,14.381,0,0,0-5.735,5.809L98.47,313.14l-1.231,1.165.045-.039a1.187,1.187,0,0,0-1.253,1.157l.082-.081A19.272,19.272,0,0,1,85.837,316.674Z"/><path class="cls-1" d="M197.706,261.464c3.179-1.312,6.41-3.246,9.594.426-2.084,2.165-5.91-1.267-6.144,1.93-.328,4.476,5.056,4.161,7.154,7.194,3.18-9.8,3.88-10.575,8.985-10.267-4.851,4.233-6.2,11.05-2.928,14.763,2.623,2.975,7.579,2.78,10.7-.42,3.934-4.039,2.963-8.93-2.8-14.11,5.978-.429,8.232,3.686,7.073,12.916-5.9,7.266-10.78,7.9-17.551,1.947-1.707-1.5-2.754-1.8-4.014.123-2.5,3.812-5.993,4.215-9.982,3.01-.581-1.9-1.531-4,1.969-3.74l.239.229.322-.074c1.154,1.217,2.469,1.988,3.745.344.895-1.153.942-2.454-.765-3.146l-.23-.217-.3.1a2.791,2.791,0,0,0-2.871-2.091c-2.646-2.5-3.018-5.561-2.219-8.919Z"/><path class="cls-1" d="M314.7,237.047q.292-1.859.581-3.722c1.525-.374,3.5-1.471,2.8,1.749-.306,1.417-.576,2.843-.862,4.265-.97,2.87-1.931,5.743-2.912,8.609-.482,1.408-.66,3.368-2.455,3.459-2.137.108-2.416-2.035-3.031-3.574-.209-.523-.193-1.14-.414-1.655-.679-1.58.116-4.537-2.413-4.359-1.9.134-2.335,2.654-2.586,4.568a2.833,2.833,0,0,0-.919,3.27c-1.594,2.171-3.206,3.107-4.29-.305-1.447-4.556-2.768-9.156-4.011-13.773-.316-1.173-1.179-2.908.548-3.54,1.747-.639,2.091,1.276,2.64,2.37a28.233,28.233,0,0,1,1.309,3.792,7.107,7.107,0,0,0,1.93,5.541c1.775-1.959,2.88-4.028,2.625-6.7a.866.866,0,0,0,.233-.941c1.481-1.249,1.306-4.514,4.48-3.7l.016.024c.072,1.917.465,3.7,2.085,4.96a.627.627,0,0,0,.2.8c.126,1.788-.083,4.34,2.1,4.381,1.853.035,1.6-2.458,1.755-4.051l-.118-.024C314.744,238.268,314.867,237.73,314.7,237.047Z"/><path class="cls-1" d="M241.137,246.281c-.521,1.456,1.541,3.779-.936,4.38-1.8.436-2.208-1.794-2.773-3.111a4.007,4.007,0,0,0-3.923-2.746c-2.4-.045-3.054,1.693-3.975,3.47-3,5.79-8.523,3.186-12.963,3.358-4.414.17-2.613-3.821-2.72-6.132-.2-4.211.015-8.441.057-12.661l-.038-.083q1.935.3,3.874.6-.016,5.805-.03,11.611c-1.044,1.453-.91,2.519.983,3.007a1.719,1.719,0,0,0,.17.063c5.957,3.242,6.623,3.019,8.668-2.908l4.576-11.311,3.461-.578.233.264a12.659,12.659,0,0,0,3.061,7.087A7.239,7.239,0,0,0,241.137,246.281Zm-5.911-5.72c-.16-1.166-.417-2.318-1.958-2.126-1.2.149-1.327,1.179-1.311,2.128.02,1.21.363,2.307,1.9,2.092C234.982,242.5,235.256,241.591,235.226,240.561Z"/><path class="cls-1" d="M312.559,263.572l4.4,4.68c.137.972.383,2.009,1.553,2.007,1.4,0,1.167-1.116,1.044-2.048q.013-1.169.026-2.338-.029-1.14-.057-2.281c.513-1.524-.194-3.638,2.074-4.315.224,5.043.567,10.086.6,15.132.011,1.609.493,4.121-2.609,3.882l-4.381-4.337a1.43,1.43,0,0,0-1.3-1.439l.1.08q-.608-.623-1.212-1.247l.09.087q-.536-.668-1.069-1.338s-.053-.246-.054-.241c-1.715-2.609-3.276-3.052-3.492.671-.153,2.643.114,5.309-.566,7.918l-.419-.172-.45.056a.751.751,0,0,0-.763-.545q-.139-1.317-.277-2.635-.032-2.33-.064-4.659.013-1.715.026-3.43-.028-2.318-.056-4.635.075-.918.15-1.839,1.05-.777,2.1-1.549a.426.426,0,0,0,.666.134C309.858,260.711,310.482,262.794,312.559,263.572Z"/><path class="cls-1" d="M209.349,234.417c.465,3.614-.973,7.124.628,10.99,1.219,2.945-1.446,5.737-4.882,6.211a45.578,45.578,0,0,1-7.3-.113.446.446,0,0,0-.233-.612q-.14-3.477-.279-6.955.034-1.732.069-3.465.119-3.465.237-6.931l.078-.4c3.618-.784,7.266-.464,10.91-.305l.006-.109q.46.651.913,1.3ZM206.868,245.7c-.216-2.3-1.533-3.348-3.393-3.377-2.785-.043-2.652,2.17-2.593,4.056.055,1.774.448,3.75,2.809,3.22A3.91,3.91,0,0,0,206.868,245.7Zm-.723-8.453c-.5-1.234-1.1-2.775-2.894-2.689-2.343.111-2.321,2.042-2.234,3.746.069,1.354.487,2.808,2.155,2.692C205.152,240.858,205.923,239.339,206.145,237.247Z"/><path class="cls-1" d="M287.785,259.373c.576.941,1.8,1.9.87,3.028-1.129,1.381-2.434.023-3.648-.238-6.958-1.5-11.08,2.554-9.385,9.241.762,3.007,2.967,4.361,5.786,4.807,2.993.474,4.123-1.2,4.236-3.977.047-1.167.41-2.425,1.873-2.439,1.934-.019,1.891,1.573,1.907,2.892.019,1.53-.138,3.061-.218,4.592a13.533,13.533,0,0,1-8.5,2.3c-9.1-4.026-10.014-5.785-8.249-15.889C276.432,258.2,282.094,258.735,287.785,259.373Z"/><path class="cls-1" d="M252.575,268.227c.084-.367.191-.73.25-1.1.375-2.346-1.2-5.668,1.015-6.865,2.67-1.442,3.254,3.058,5.662,3.566l6.164,7.481c1.663-4.189.553-7.626,1.022-10.887l2.068-.359.1.13c.012,4.806-.145,9.62.086,14.416.2,4.135-1.547,4.05-4.349,2.46l0-.026a2.157,2.157,0,0,0-2.213-2.285l-.083-.056c-.035-1.743-1.241-2.559-2.574-3.275l-1.08-1.031c-.524-1.035-1.133-2.235-2.422-2.051-1.54.219-1.167,1.678-1.182,2.755-.03,2.187-.009,4.375-.009,6.807-2.975-.75-1.733-2.8-2.5-3.909q.021-1.173.042-2.345v-3.426Z"/><path class="cls-1" d="M363.742,235.7c-1.71-.466-3.857-2.027-4.92.347-.971,2.171,1.659,2.583,2.912,3.461,6.123,4.291,5.925,7.583-.855,12.385l-2.265.076-1.7-.2c-.444-1.186-2.24-1.933-1.437-3.463.523-1,1.676-.674,2.54-.234,1.623.828,3.113.684,3.885-.994.933-2.029-.5-3.381-2.1-4.031-6.054-2.455-6.285-6.388-3.153-11.335l-.174-.234.221.185c2.912.281,6.29-1.561,8.517,1.869l-.129.349.255.274Q364.539,234.932,363.742,235.7Z"/><path class="cls-1" d="M259.307,250.3l-2.094,1.364-4.507.339c-4.984-.207-7.124-3-6.956-7.8.129-3.668-.368-7.417.9-11.912,3.077,3.746,1.278,7.313,2.044,10.414q.085,1.2.178,2.4a1.738,1.738,0,0,0,1.53,2.345q1.107.334,2.213.666c3.949,1.164,5.513-1.043,5.728-4.449.211-3.345-.04-6.72-.089-10.082l.225-.315q1.029-.293,2.059-.59l1.052,1.067c-1.329,5.252.768,10.87-1.694,16A.732.732,0,0,0,259.307,250.3Z"/><path class="cls-1" d="M347.319,264.17a.367.367,0,0,0-.117-.615l-.67-4.249-.118.164c5.325-.808,3.629,5,6.278,6.713l1.1,2.137c0,.907-.02,2.056,1.059,2.151,1.5.132,1.524-1.151,1.515-2.265a.439.439,0,0,0,.134-.662,5.221,5.221,0,0,0,1.719-3.729l.923-2.419a3.938,3.938,0,0,1,3.822-1.983l-.218-.089q-.758,3.078-1.522,6.16l-.869,2.983c-2.3,1.534-2.314,4.252-3.173,6.474-1.072,2.773-2.585,3.511-5.169,2.143l.058.161c-.158-1.642-.012-3.376-1.409-4.64q-.833-2.319-1.667-4.639A5.815,5.815,0,0,0,347.319,264.17Z"/><path class="cls-1" d="M337.317,279.5c-5.2-.666-8.428-3.236-8.2-8.868.239-5.782,5.531-8.014,11.062-4.749.7,2.964,2.936,6.59-3.011,6.567-1.3-.005-3.548-.632-3.408,1.578.112,1.773,2.223,1.852,3.647,1.579,2.588-.5,3.547.1,2.421,2.736l.171-.13A3.029,3.029,0,0,0,337.317,279.5Zm.6-11.273c-.3-1.219-1-2.127-2.316-2a2.346,2.346,0,0,0-2.265,2.7c.145,1.518,1.512,1.472,2.622,1.449A1.773,1.773,0,0,0,337.916,268.228Z"/><path class="cls-1" d="M303.078,278.118l-5.639.584c-3.546.366-4.857-1.32-4.494-4.75a31.843,31.843,0,0,0-.007-4.584c-.4-10.067-.4-10.066,9.243-10.378l0-.008,1.045,1.52-2.145,1.789c-1.62-.11-3.464-.964-4.365,1.319l-.12,1.131c.455,3.775,3.618,1.57,5.383,2.452q0,1,0,2c-1.779,1.009-5.009-.869-5.487,2.6-.215,1.559-.628,3.7,2.237,3.45C300.474,275.753,303.086,274.934,303.078,278.118Z"/><path class="cls-1" d="M329.708,231.455c.875,1.332,2.027,2.827-.763,3.152-1.92.223-4.207-.02-4.048,2.753.131,2.29,2.332,2.04,3.954,2.445.624.156,1.124.807,1.6,1.166-.461,1.866-1.8,1.534-2.854,1.637-1.917.187-2.646,1.375-2.66,3.091a2.54,2.54,0,0,0,2.481,2.661c2.113.214,3.84.581,3.421,3.315l-8.622.167c-1.184-4.7-.071-9.508-.633-14.211-.472-3.955.752-6.081,4.855-6.185l2.241-.056.518.206.536-.154Z"/><path class="cls-1" d="M350.379,231.513c.958,1.732,1.754,3.385-1.5,2.983-1.492-.185-3.178-.7-3.839,1.285-.782,2.344,1.441,3.091,2.71,3.716,4.49,2.211,5.333,5.519,3.695,9.893l.007.076a8.276,8.276,0,0,0-4.51,2.505l-2.885-.2c-1.18-1.226-2.861-2.148-2.578-4.264l2.157-.075c2.062,1.943,4.605,2.051,5.374-.6.725-2.5-1.752-3.745-4.233-3.987l-.043-.025a3.416,3.416,0,0,0-2.275-2.028.792.792,0,0,0-.646-.648q-.065-3.012-.13-6.024l-.027-.249q.572-.733,1.148-1.463l2-1,5.648.081Z"/><path class="cls-1" d="M232.27,278.532c-.064-4.993-.146-9.986-.18-14.979-.009-1.332-.085-3.032,1.732-3.068,1.787-.035,1.85,1.615,1.871,2.979.023,1.536-.08,3.075-.041,4.611.1,3.949-1.53,8.931,5.442,8.723,1.092-.033.7,1.521.507,2.437C238.494,278.927,235.3,279.832,232.27,278.532Z"/><path class="cls-1" d="M335.264,251.483c-.295-6.631-1.618-13.307.857-19.817.374-.04.747-.081,1.123-.124,2.142,4.441-.263,9.269,1.165,13.771l.03.2-.949,6.343Z"/><path class="cls-1" d="M277.947,242.783c1.544.374,3.783-.387,3.614,1.89-.135,1.822-2.144,1.847-3.655,1.813-1.493-.034-3.542-.049-3.43-2.02C274.595,242.384,276.811,243.207,277.947,242.783Z"/><path class="cls-1" d="M361.4,277.759c-.168-2.685.96-3.819,3.657-3.073q.093,1.541.189,3.084-2.006.159-4.013.312Z"/><path class="cls-1" d="M346.722,277.968c-1.267.167-2.967.613-2.963-1.294.006-2.243,1.851-1.735,3.3-1.517l-.005-.01q0,1.141-.006,2.282A.424.424,0,0,0,346.722,277.968Z"/><path class="cls-1" d="M153.723,171.328l3.461-.151c3.161.061,5.823-1.608,8.7-2.538,1.059-.343,2.268-1.18,3.072.083.978,1.537.13,3.123-.974,4.107a15.929,15.929,0,0,1-8.8,3.743c-5.446.666-10.93,1.011-16.4,1.491l-.171-.131c-18.343-9.448-24.616-23.232-18.955-41.089,1.45-4.574,5.156-7.542,7.229-11.618l-.006,0c10.622-6.33,21.644-9.184,33.889-4.859,5.83,2.059,6.5,4.19,1.885,9.055l-.068.062c-.959-2.159-3.167-2.763-4.978-3.573-14.471-6.471-27.038.971-28.64,12.99q-.144.534-.288,1.068c-2.315,5.667-3.556,11.337-.059,17.024l-.193.251.124.291c1.381,5.3,3.252,10.207,9.369,11.692l.09-.015C145.334,173.154,149.689,171.346,153.723,171.328Z"/><path class="cls-1" d="M70.564,152.927c3.377,11.414.031,18.534-10.91,23.317a25.688,25.688,0,0,0-2.889,1.727l-.13.061a36.48,36.48,0,0,1-15.427-2.42l-.081.046a2.106,2.106,0,0,0-2.211-1.4l.142.165q-.222-3.322-.439-6.647c.078-.515.156-1.029.234-1.547,3.014-.964,3.986,2.838,6.587,2.84l-.009-.026a1.847,1.847,0,0,0,2.162,1.468l-.064-.125A1.16,1.16,0,0,0,49,171.2c7.246,2.148,11.945.4,14.173-5.284,2.074-5.287-.239-10.2-6.7-13.243-5.443-2.565-11.448-4.093-15.341-9.22-2.106-5.2-1.661-10.569-1-15.947l-.114.164a1.249,1.249,0,0,0,1.074-1.365l.02.037c5.753-5.729,12.348-8.867,20.679-6.935,7.578,1.758,8.129,2.7,5.626,10.238l-.038.022a1.178,1.178,0,0,0-1.109.054l-.345-.253-.427.04c-1.408-2.362-3.031-4.423-6.132-4.426-5.773-1.906-10.153-.09-12.027,4.988-1.634,4.426.683,9.534,6.006,11.341C60.2,143.737,66.071,147.209,70.564,152.927Z"/><path class="cls-1" d="M218.126,143.525a.448.448,0,0,0-.349.509c-9.022,9.581-20.445,9.862-26.728.655-4.334-6.351-3.659-14.639,1.682-20.643,4.135-4.649,12.1-6.1,17.945-3.263a16.666,16.666,0,0,1,8.647,18.334C219,140.6,218.529,142.057,218.126,143.525Z"/><path class="cls-1" d="M75.651,124.932c.131-3.456,1.505-4.967,5.355-4.867,10.732.278,21.476.074,32.216.071,2.285,0,5.063-.431,4.778,3.166-.269,3.389-2.834,2.108-4.831,2.081-13.195-.179-11.669-1.693-11.614,10.781.053,11.734.048,23.469.213,35.2.048,3.432-.688,5.461-4.711,5.4-4.191-.063-3.932-2.856-3.91-5.546.108-13.27.121-26.544.515-39.806.139-4.687-1.135-6.582-6.09-6.307-3.942.219-8,1.166-11.946-.2Z"/><path class="cls-1" d="M249.177,259.537c-.111,5.3-.189,10.6-.359,15.895-.04,1.236.119,3.012-1.8,2.871-1.465-.107-1.285-1.674-1.32-2.743-.133-4.179-.177-8.361-.262-12.541-.052-2.549.955-3.96,3.711-3.533Z"/><polygon class="cls-1" points="259.017 252.708 258.979 252.663 259.353 252.393 259.017 252.708"/><path class="cls-1" d="M120.7,233.915l1.156-1.17,1.078-1.21,1.143-1.175,1.118-1.174,1.106-1.194c5.628-3.567,11.834-1.935,17.8-1.745,2.59.082,6.54-2.019,7.618,1.233.907,2.734-2.813,4.578-4.774,6.571-6.953,7.063-13.992,14.041-20.911,21.138a17.606,17.606,0,0,1-7.625,4.9c-6.349,1.841-11.253-3.516-10.734-11.522l3.855-5.381a3.262,3.262,0,0,0,2.294-2.355l1.106-1.139a6.429,6.429,0,0,0,3.5-3.47l1.141-1.145Z"/></svg>