<svg id="Ebene_1" data-name="Ebene 1" xmlns="http://www.w3.org/2000/svg" viewBox="0 0 100 100"><defs><style>.cls-1{fill:#1f2025;}.cls-2{fill:#fdfdfd;}.cls-3{fill:#0e8cef;}</style></defs><title>Zeichenfläche 1</title><circle class="cls-1" cx="50" cy="50" r="50"/><g id="upjgQG"><path class="cls-1" d="M78.133,88.874c.956.116,1.533-.674,2.06-1.191a25.807,25.807,0,0,0,3.468-3.36c.941-1.334,2.244-2.383,3.292-3.669,1.226-1.5,2.2-3.167,3.33-4.726.659-.91,1.559-1.736,1.5-3.025,1.3-1.577,1.689-3.592,2.543-5.384a6.572,6.572,0,0,1,.587-1.334,4.631,4.631,0,0,0,.865-2.056c.251-1.8,1.287-3.428,1.065-5.313.632-.749.288-1.643.328-2.47a18.387,18.387,0,0,0,.4-2.647,4.252,4.252,0,0,1,.287-2.827.9.9,0,0,0,0-.834c-.548-.486-.352-1.1-.3-1.621.183-1.9-.4-3.728-.383-5.609a8.627,8.627,0,0,0-.317-1.251,8.77,8.77,0,0,0-.086-1.362c-.728-2.2-1.025-4.529-1.983-6.661-.395-.878-.7-1.8-1.046-2.7s-.912-1.7-1.243-2.617A10.373,10.373,0,0,0,91.424,26.4c-.371-.6-.734-1.208-1.131-1.791-.373-.547-.811-1.049-1.175-1.6a12.824,12.824,0,0,0-1-1.657c-.419-.457-.647-1.053-1.271-1.4-.531-.3-.813-1.029-1.25-1.528-.457-.52-.968-.992-1.455-1.484-.528-.534-1.094-1.036-1.572-1.612-.442-.533-1.1-.781-1.5-1.421a5.976,5.976,0,0,0-1.645-1.377,25.2,25.2,0,0,0-2.154-1.472c-.748-.437-1.233-1.226-2.117-1.491-.4-.119-.707-.5-1.085-.712-.978-.551-1.952-1.114-2.963-1.6-1.486-.712-3-1.375-4.508-2.029a7.651,7.651,0,0,0-1.955-.68C63.03,4.335,61.6,3.487,59.981,3.293a22.166,22.166,0,0,0-2.718-.479c-1.692.015-3.324-.649-5.026-.383a.563.563,0,0,1-.339,0c-1.163-.744-2.444-.146-3.652-.342a2.9,2.9,0,0,1-2.266.322,11.114,11.114,0,0,0-2.272.373,18.589,18.589,0,0,0-3.629.408c-.963.3-2.1.052-2.914.874-.1.1-.306.092-.465.112a11.841,11.841,0,0,0-3.363,1.046c-.29.131-.6.228-.889.352-1.371.578-2.778,1.085-4.1,1.76-1.668.851-3.273,1.83-4.891,2.779-.279.164-.462.488-.73.68a9.23,9.23,0,0,0-1.1.663c-.884.85-2.038,1.415-2.829,2.267-.821.885-1.807,1.566-2.64,2.425-.989,1.02-1.7,2.313-2.928,3.122-.382.252-.581.786-.869,1.187-.321.447-.63.905-.977,1.332A39.548,39.548,0,0,0,7.377,28.3c-.174.327-.2.737-.381,1.057A25.138,25.138,0,0,0,5.2,33.31c-.711,1.985-1.194,4.037-1.778,6.058A32.629,32.629,0,0,0,2.5,43.84c-.26,1.839.044,3.743-.381,5.6a6.205,6.205,0,0,0-.009,1.91c.054.6.265,1.178.322,1.775a35.456,35.456,0,0,0,.28,4.576c.26,1.165.5,2.355.765,3.528A17.32,17.32,0,0,0,4.2,64.068a21.226,21.226,0,0,1,.975,2.9c.224.863.812,1.533,1.04,2.354a10.077,10.077,0,0,0,1.071,2.345A26.324,26.324,0,0,1,8.4,74.156c.022.05.082.08.119.125,1.019,1.23,1.7,2.7,2.754,3.921.381.44.785.926,1.138,1.42.378.53.653,1.143,1.072,1.633.381.445,1.1.688,1.3,1.175a5.083,5.083,0,0,0,1.277,1.55c1.364,1.416,2.981,2.545,4.433,3.855a34.2,34.2,0,0,0,4.96,3.48c1,.625,2.185.979,3.11,1.617,1.236.852,2.8.857,3.906,1.864,1.707.249,3.131,1.522,4.941,1.394.654.85,1.814-.139,2.471.7,2.66.438,5.275,1.2,8.013,1.055,1.031-.054,2.067-.009,3.1-.009,1.091,0,2.183-.028,3.273.008,1.065.035,2.048-.579,3.132-.366.142.028.308-.077.464-.116a42.689,42.689,0,0,1,4.265-.983,7.745,7.745,0,0,0,2.663-.614,10.88,10.88,0,0,1,2.526-.966c.913-.219,1.59-.967,2.474-1.091a4.556,4.556,0,0,0,1.509-.548c.713-.373,1.348-.916,2.083-1.226.841-.356,1.556-.92,2.4-1.284A11.026,11.026,0,0,0,78.133,88.874Z"/><path class="cls-2" d="M78.133,88.874a11.026,11.026,0,0,1-2.347,1.873c-.846.364-1.561.928-2.4,1.284-.735.31-1.37.853-2.083,1.226a4.556,4.556,0,0,1-1.509.548c-.884.124-1.561.872-2.474,1.091a10.88,10.88,0,0,0-2.526.966,7.745,7.745,0,0,1-2.663.614,42.689,42.689,0,0,0-4.265.983c-.156.039-.322.144-.464.116-1.084-.213-2.067.4-3.132.366-1.09-.036-2.182-.008-3.273-.008-1.033,0-2.069-.045-3.1.009-2.738.143-5.353-.617-8.013-1.055-.657-.836-1.817.153-2.471-.7-1.81.128-3.234-1.145-4.941-1.394-1.109-1.007-2.67-1.012-3.906-1.864-.925-.638-2.108-.992-3.11-1.617a34.2,34.2,0,0,1-4.96-3.48c-1.452-1.31-3.069-2.439-4.433-3.855a5.083,5.083,0,0,1-1.277-1.55c-.2-.487-.919-.73-1.3-1.175-.419-.49-.694-1.1-1.072-1.633-.353-.494-.757-.98-1.138-1.42-1.057-1.222-1.735-2.691-2.754-3.921-.037-.045-.1-.075-.119-.125a26.324,26.324,0,0,0-1.118-2.491A10.077,10.077,0,0,1,6.212,69.32c-.228-.821-.816-1.491-1.04-2.354a21.226,21.226,0,0,0-.975-2.9,17.32,17.32,0,0,1-.718-2.836c-.269-1.173-.5-2.363-.765-3.528a35.456,35.456,0,0,1-.28-4.576c-.057-.6-.268-1.178-.322-1.775a6.205,6.205,0,0,1,.009-1.91c.425-1.86.121-3.764.381-5.6a32.629,32.629,0,0,1,.919-4.472C4.005,37.347,4.488,35.3,5.2,33.31A25.138,25.138,0,0,1,7,29.356c.181-.32.207-.73.381-1.057a39.548,39.548,0,0,1,4.009-6.513c.347-.427.656-.885.977-1.332.288-.4.487-.935.869-1.187,1.224-.809,1.939-2.1,2.928-3.122.833-.859,1.819-1.54,2.64-2.425.791-.852,1.945-1.417,2.829-2.267a9.23,9.23,0,0,1,1.1-.663c.268-.192.451-.516.73-.68,1.618-.949,3.223-1.928,4.891-2.779,1.323-.675,2.73-1.182,4.1-1.76.294-.124.6-.221.889-.352A11.841,11.841,0,0,1,36.7,4.173c.159-.02.369-.015.465-.112.811-.822,1.951-.57,2.914-.874a18.589,18.589,0,0,1,3.629-.408,11.114,11.114,0,0,1,2.272-.373,2.9,2.9,0,0,0,2.266-.322c1.208.2,2.489-.4,3.652.342a.563.563,0,0,0,.339,0c1.7-.266,3.334.4,5.026.383a22.166,22.166,0,0,1,2.718.479c1.616.194,3.049,1.042,4.663,1.255a7.651,7.651,0,0,1,1.955.68c1.512.654,3.022,1.317,4.508,2.029,1.011.484,1.985,1.047,2.963,1.6.378.212.689.593,1.085.712.884.265,1.369,1.054,2.117,1.491a25.2,25.2,0,0,1,2.154,1.472,5.976,5.976,0,0,1,1.645,1.377c.4.64,1.053.888,1.5,1.421.478.576,1.044,1.078,1.572,1.612.487.492,1,.964,1.455,1.484.437.5.719,1.23,1.25,1.528.624.349.852.945,1.271,1.4a12.824,12.824,0,0,1,1,1.657c.364.553.8,1.055,1.175,1.6.4.583.76,1.19,1.131,1.791A10.373,10.373,0,0,1,92.5,28.218c.331.922.9,1.714,1.243,2.617s.651,1.821,1.046,2.7c.958,2.132,1.255,4.461,1.983,6.661a8.77,8.77,0,0,1,.086,1.362,8.627,8.627,0,0,1,.317,1.251c-.019,1.881.566,3.713.383,5.609-.05.524-.246,1.135.3,1.621a.9.9,0,0,1,0,.834,4.252,4.252,0,0,0-.287,2.827,18.387,18.387,0,0,1-.4,2.647c-.04.827.3,1.721-.328,2.47.222,1.885-.814,3.517-1.065,5.313a4.631,4.631,0,0,1-.865,2.056,6.572,6.572,0,0,0-.587,1.334c-.854,1.792-1.247,3.807-2.543,5.384.058,1.289-.842,2.115-1.5,3.025-1.131,1.559-2.1,3.222-3.33,4.726-1.048,1.286-2.351,2.335-3.292,3.669a25.807,25.807,0,0,1-3.468,3.36C79.666,88.2,79.089,88.99,78.133,88.874ZM56.824,81.025a11.768,11.768,0,0,0,2.843-.562c1.016-.5,2.084-.806,3.119-1.22.494-.2,1.13-.2,1.5-.522,1.362-1.208,3.237-1.633,4.442-3.054.872-.135,1.133-1.075,1.826-1.428,1.464-.747,2.213-2.255,3.441-3.264.6-.493.857-1.389,1.378-2.008a27.775,27.775,0,0,0,3.271-5.427,8.719,8.719,0,0,1,.627-1.3,3.43,3.43,0,0,0,.724-1.8,5.064,5.064,0,0,1,.4-1.733c.994-1.868.831-3.953,1.241-5.92a16.447,16.447,0,0,0,.038-3.994c-.056-1.29-.21-2.576-.342-3.861-.015-.145-.233-.273-.241-.415a15.536,15.536,0,0,0-.752-3.167,37.334,37.334,0,0,0-1.346-3.968c-.3-.777-.947-1.291-1.149-2.142a2.535,2.535,0,0,0-1.325-2.018c-.942-2.338-2.821-3.949-4.416-5.777-.391-.448-1.278-.7-1.35-1.133-.113-.689-.7-.444-.931-.813a2.727,2.727,0,0,0-1.093-1.073,7.452,7.452,0,0,1-1.784-1.133c-.527-.427-1.285-.535-1.817-1a6.792,6.792,0,0,0-2.16-1.039,3.647,3.647,0,0,1-.6-.211,10.128,10.128,0,0,0-2.406-.863c-.967-.274-2.056-.229-2.927-1.007-1.148-.116-2.356-.3-3.569-.343-1.283-.045-2.513-.415-3.817-.422-1.252-.007-2.4.443-3.645.436a34.913,34.913,0,0,0-3.8.367,7.573,7.573,0,0,1-1.626.646,15.133,15.133,0,0,1-2.006.556,7.666,7.666,0,0,0-2.269,1.2c-1.333.674-2.671,1.345-3.957,2.1-.607.358-1.092,1.087-1.672,1.314-1.258.493-1.787,1.857-3.029,2.279a26.8,26.8,0,0,1-2.906,3.666,10.29,10.29,0,0,0-1.269,1.9c-.716,1.263-1.373,2.56-2.084,3.826a5.084,5.084,0,0,1-.68.789,2.5,2.5,0,0,1-.019,1.008,23.078,23.078,0,0,0-1.59,4.74c-.335,1.388-.556,2.8-.757,4.194a28.768,28.768,0,0,0-.042,4.347,22.54,22.54,0,0,0,.684,4.24,17.622,17.622,0,0,0,.736,3.523c.7,1.622,1.118,3.346,1.977,4.927a48.071,48.071,0,0,0,3.317,5.219,24.682,24.682,0,0,0,1.822,2.2,34.423,34.423,0,0,0,6.978,5.661A26.924,26.924,0,0,0,36.615,79.1a20.9,20.9,0,0,0,2.381.91,21.887,21.887,0,0,0,2.453.729,5.045,5.045,0,0,1,2.252.815c1.3-.2,2.539.322,3.817.342,1.492.025,2.987.062,4.476-.01,1.445-.07,2.883-.272,4.459-.429ZM83.7,36.986c1.546-.385,2.918-1.167,4.482-1.028a2.732,2.732,0,0,1-1.677,1.848v.645c-.365.285-.94.509-.986.815-.1.7-.633.7-1.044.941v1.959c.479,0,1,.153,1.362-.026,1.613-.8,3.408-.916,5.063-1.51a5.716,5.716,0,0,1,1.117-.21,2.683,2.683,0,0,0,.423-.173l.359-.979-.746-.63c-3.435,1.22-3.435,1.22-4.653.765a13.239,13.239,0,0,0,1.4-1.512c.408-.595,1.149-.745,1.52-1.411a8.582,8.582,0,0,1,1.358-1.5l-.564-1.658c-.612.425-1.363-.245-1.944.394-1.138-.142-2.01.7-3.106.869a10.638,10.638,0,0,0-2.951.732A1.339,1.339,0,0,0,83.7,36.986ZM12.953,27.921l1.775-.08c.094-.231.172-.431.257-.626s.171-.369.286-.614a4.118,4.118,0,0,0-3.386.675A10.4,10.4,0,0,0,10.6,29.262a7.862,7.862,0,0,0-.271,1.981,5.841,5.841,0,0,0,2.478,3.151c1.3.694,2.627.326,3.807.454A5.543,5.543,0,0,0,19.336,32.1v-1.22l1.017-.654V29.46c-1.265-.66-2.317-1.891-3.985-1.552-.763.726-1.436,1.515-1.095,2.7.962.309,1.2-.365,1.464-.983h.7A2.908,2.908,0,0,1,17.9,31.93l-1.49,1.508a5.3,5.3,0,0,1-2.578-.311l-1.6-1.458-.543-1.69Zm2.64,13.04V37.726l.746-.333a4.256,4.256,0,0,0-4.208-1.364c-.033.868-.7,1.663-.248,2.66l.954-.069v-.908c.918-.319,1.225.4,1.668.839-.026.913.147,1.836-.228,2.233-1.531,1.08-2.852.505-4.111.707L8.318,39.866v-1.53c.35-.848.606-1.585,1.554-1.419.415-.482,1.148-.827.731-1.683H8.612l-1.69,2.512v2.28l1.21,2.052,2.838,1.444h1.579c.374-.27.628-.6.913-.634C14.5,42.778,15.123,42.2,15.593,40.961Zm69,17.86A11.419,11.419,0,0,0,83.42,64.5c.834,1.536,2.372,1.908,3.876,2.805,1.092.317,2.112-.642,3.177-1.188a3.335,3.335,0,0,0,1.171-1.889,27.561,27.561,0,0,0,.658-3.2l-2.266-.447C88.188,59.526,86.262,59.628,84.6,58.821Zm-57.2-40.7H25.369l-3.012,1.165-1.138-1.249,2.022-1.579,1.8.309.566-.771c-.983-.876-1.295-1.039-1.887-1.012a4.972,4.972,0,0,0-3.131,1.993,3.556,3.556,0,0,0-.561,2.375.7.7,0,0,1,.12.124c.863,1.466,1.235,1.574,2.86,1.1,1.125-.329,2.285-.535,3.362-.78a1.91,1.91,0,0,1,.485,1.727l-1.721,1.2-1.87-.36-.948.579.932,1.082h2.474l2.141-1.555.765-1.512A2.89,2.89,0,0,0,27.4,18.117Zm29.2-3.279,1.063.538c1.106-.8.488-2.6,1.892-3.174.751.337,1.7.381,2.218,1.425L61.456,16.3h1.167l.46-.948a5.846,5.846,0,0,0-.336-2.652c-.061-.112.036-.312.058-.465l.562-.065,1.5-1.428a4.049,4.049,0,0,0-.277-1.014c-.263-.479-.547-1.138-.973-1.292a17.452,17.452,0,0,0-2.979-1.124c-.632-.107-1.27-.181-2.009-.284C58.313,9.687,56.943,12.094,56.6,14.838ZM40.258,7c.284,1.433.57,2.661.761,3.9.2,1.322.318,2.658.477,4.037h1.116l-.174-.164.8-.307c-.756-.995-.366-1.935-.5-2.78l.525-.532h1.421c1.5.5,1.189,1.975,2.02,2.8l1.333-.122-.83-2.87-.8-.405a5.871,5.871,0,0,1,.6-1.418,1.423,1.423,0,0,0,.188-1.3,2.777,2.777,0,0,0-2.935-1.9C42.964,6.2,41.691,6.61,40.258,7Zm1.084,77.692H39.281a5.02,5.02,0,0,0-3.046,3.951,4.221,4.221,0,0,0,2,4.76h2.6c2.307-1.715,3.5-4.2,2.48-6.981Zm49.8-42.173c-.859,0-1.722-.043-2.578.015a7.934,7.934,0,0,0-1.746.347c-.43.129-.4.8-.985.9-.252.046-.413.6-.616.917a2.954,2.954,0,0,0-.419,2.082,9,9,0,0,0,.433,1.9c.258.655,1.02.87,1.477,1.412.331.391,1.206.356,1.848.425a6.033,6.033,0,0,0,3.329-.577l1.863-2.632C93.743,45.076,93.743,45.076,91.137,42.515ZM75.256,14.984c-1.436,2.087-3.058,4.074-4.442,6.354l3.077,2.64a7.057,7.057,0,0,0,1.647.383,7.7,7.7,0,0,0,1.726-.458l2.349-2.8V18.324l-3.275-3.34ZM48.9,13.9l1.163.487.6-.609V11.653l1.134-.986c1.328,1.273,1.625,3.107,2.782,4.254h.89V13.732L53.422,9.774c.229-.92,1-1.2,1.527-1.7a4.091,4.091,0,0,0,1.2-1.751H54.586a12.517,12.517,0,0,1-3.26,2.4V6H49.783a5.491,5.491,0,0,0-.464,1.333c-.059,1.1.03,2.206-.034,3.3C49.223,11.692,49.043,12.735,48.9,13.9ZM93.372,52.073c-2.623-.748-5.215-.42-7.83-.514V53h2.539l.46.464v1.6l-1.285,1.49H85.2V57.8a5.031,5.031,0,0,0,3.964-.836,1.494,1.494,0,0,0,1.4,1.523,5.46,5.46,0,0,0,1.987-.3l.808-1.634c.154-1.4.307-2.784.445-4.042ZM80.529,25.462c.275,1.078,1.36,1.539,1.946,2.364H83.3c.554-.9-.411-1.228-.637-1.8a6.95,6.95,0,0,0-1.482-1.7c.61-.449.876-1.217,1.749-.939A5.893,5.893,0,0,1,83.994,24.5c.248.443.4.809.964.993.366.118.26.981,1.124.987l.487-1.036-3.756-4.293c-2.327,1.362-4.186,3.268-6.388,4.953.126.274.266.621.441.949.152.286.345.551.519.826a5.558,5.558,0,0,0,.62.951c.255.263.649.387.912.646a9.36,9.36,0,0,1,.52.815,9.858,9.858,0,0,0,.768.773c.689-.274.894-.684.809-1.158l-2.086-2.653V26.32C79.374,25.918,79.66,25.232,80.529,25.462ZM35.991,15.43c-.2-.381-.39-.7-.537-1.046-.139-.325-.231-.672-.333-.981a6.228,6.228,0,0,1,3.418-1.277V10.7l-3.871.869L34.015,10.2c1.415-.659,2.97-.769,4.213-1.687-.077-.967-.077-.967-1.035-1.2L35.682,8.358c-.431,0-1.029-.183-1.31.041-.482.385-.95.263-1.222.526L32,9.566l2.547,7.406c1.187.551,1.925-.628,3-.669a8.934,8.934,0,0,0,2.743-1.047V14.2Zm-12.8,70.154c1.357.915,2.63.409,4.08.067L30.1,82.067l-.421-2.282-1.552-1.7c-.409-.02-.9.1-1.059-.078-.621-.69-1.1-.017-1.643.056a1.507,1.507,0,0,0-1.282,1.13c-.215.6-.477,1.19-.7,1.746a4.9,4.9,0,0,1,.36.6c.388.94.834,1.776,2.012,1.895.292.03.553.363.858.577a3.234,3.234,0,0,1-2.793.626,4.063,4.063,0,0,1-.726-1.221c-.1-.528-.128-.994-.971-1.248l-.424.547C21.635,84.1,22.843,84.611,23.192,85.584ZM11.736,64.31a11.585,11.585,0,0,1,.363-4.042,3.079,3.079,0,0,1,.428-.62h1.24l.723,1.226v1.808l-1.042.85.063.934h1.151c1.1-.8,1.119-1.372.873-4.548L14,58.22h-2.47c-.281.307-.658.556-.8.9-.553,1.34-.311,2.78-.37,4.114a1.291,1.291,0,0,1-1.625.456l-.429-.435V61.172l.609-.647V59.258H8.042l-1.1,1.521c-.027,2.331.222,3.03,1.548,4.386h2.4ZM56.965,85.458c-.37,1.595.272,2.982.346,4.431,1.271.188,1.858-.893,2.64-1.417L61.7,89l.378,1.559-1.239,1.425h-1.06l-.61-.618H57.949v.856c.916,1.062,2.118.836,3.112.824,1.021-.548,2.087-.83,2.364-2.069a9.323,9.323,0,0,0-.014-1.332,6.4,6.4,0,0,0-.274-1.045l-1.748-1.541-2.719.408c-.155-.747-.043-1.228.686-1.384.631-.134,1.255-.306,1.975-.484.326-.3.625-.689.215-1.242A10.528,10.528,0,0,0,56.965,85.458ZM36.489,84.7l-.417-1.4c-1.151-.774-2.243-1.8-3.612-1.126l-1.42,1.175c.221.565.645.74,1.361.6l.513-.679,1.243.059.661,1.382-1.161,1.344a10.916,10.916,0,0,0-5.322,1.566c.065.992.076,1.011.693,1.246a3.884,3.884,0,0,1,.739.293,19.532,19.532,0,0,0,2.174,1.417c.541.251,1.164.753,1.841.22-.083-.71-.174-1.047-.463-1.179a13.769,13.769,0,0,0-2-1c-.105-.029-.171-.2-.249-.305l.347-.351c1-.171,1.906-.381,2.826-.473a2.213,2.213,0,0,0,1.957-1.7C36.326,85.436,36.4,85.064,36.489,84.7ZM79.3,83.412c-.216-2.379-1.672-4.452-2.124-6.836a4.782,4.782,0,0,0-.836-1.383l-1.248.634a5.789,5.789,0,0,0,.193.813c.47,1.191.965,2.372,1.441,3.561a1.52,1.52,0,0,1-.121,1.524c-.8-.652-1.5-1.264-2.245-1.819a3.883,3.883,0,0,0-3.068-1.09l-.322,1.033c2.4,1.547,4.66,3,6.955,4.482ZM71.364,11.883,69.533,11c-.488.517-.877.937-1.273,1.349-.359.373-.726.736-1.089,1.1-.4.408-.79.837-1.217,1.219-.359.32-1.041.542-1.095.885-.115.736-.8.672-1.1,1.068l.043.842c.61-.215,1.2.21,1.787-.28a1.053,1.053,0,0,1,.957-.093c.791.421,1.829.363,2.443,1.312l-.432,1.426,1.238.506a6.509,6.509,0,0,0,.5-1.309c.161-1.158.244-2.327.363-3.491.016-.162.006-.371.1-.473C71.58,14.167,71.3,13.061,71.364,11.883ZM56.129,94V92.678l-3.345.463v-.968a8.347,8.347,0,0,0,2.982-2.746c.355-1.22-.392-2.014-.652-2.745l-1.254-.948c-.286,0-.685,0-1.084,0a2.638,2.638,0,0,0-2.782,2.8c0,.095.082.2.126.291h1.06l.947-1.689h1.1l.888.841v1.235c-.283.82-1.016.919-1.405,1.483a9.81,9.81,0,0,1-1.6,1.4,2.235,2.235,0,0,0-.725,2.254ZM67.972,82.946l-1.778,1.487v2.441l1.034,1.937,1.233.133.254.587h1.371A3.766,3.766,0,0,1,71,88.887c1.252-.355,1.569-1.342,1.722-2.458.012-.091-.074-.2-.125-.321h-.75c-.741.625-1.2,1.711-2.282,2.064l-.962-.538v-.641c1.04-.852,2.328-1.127,3.531-1.829l-.447-1.243-1.275-.975ZM9.2,50.9c-2.038-.019-2.891.6-3.624,2.549l.752,3.764c1.2-.263,2.3.074,3.45-.256a14.912,14.912,0,0,1,3.545-.18l1.512-1.1-.986-.449.149-.21H11.527l-.349-.353-.491-2.657Zm4.951-4.424A15.857,15.857,0,0,0,10.157,44.9a1.959,1.959,0,0,1-.829-.48A3.779,3.779,0,0,0,6.31,43.6c-.217.659-.016,1.266.5,1.313,1.5.137,2.607,1.265,4.069,1.462.34.046.633.449,1.2.88a37.782,37.782,0,0,1-4.07.8A3.214,3.214,0,0,0,5.7,49.163a1.842,1.842,0,0,0-.21.468l.8.674a10.471,10.471,0,0,1,4.074-1.2,5.073,5.073,0,0,0,2.257-.744,2.9,2.9,0,0,1,1.275-.273c.094-.016.173-.119.254-.179ZM30.984,10.011,28.8,11.146c-.71.37-1.435.714-2.126,1.117-.64.372-1.244.808-1.8,1.175-.117.683.1,1.08.746,1.207.629-.494,1.2-1.151,2.194-1.052l3.079,5.54c.576.067,1.245.171,1.5-.506-.216-1.267-1.471-1.85-1.335-3.256l-1.013-.823-.435-2.191,1.379-.631ZM22.09,75.284l-1.309-.869v1.358l.764,1.113-3.581,3.62c.206.917.206.917,1.22,1.014q2.605-2.635,5.2-5.278c.095-.1.085-.3.122-.444l-.992-.514ZM47.011,85.908c-.935,2.346-1.833,4.567-2.7,6.8a6.374,6.374,0,0,0-.229,1.227l1.227.566.858-1.122c.5-2.265,1.657-4.46,2.436-6.831ZM86.03,33.078l-.962-3.058H83.786V31.6l1.095,1.475ZM75.694,86.037c-.582-.361-.742-.989-1.225-.808l-1.151.685.626,1.2C74.781,87.3,75.05,86.623,75.694,86.037ZM20.011,27.386c.213,1.187.213,1.187,1.254,1.187l1-1.209-1.556-.605a4.165,4.165,0,0,0-.36.264C20.224,27.14,20.117,27.27,20.011,27.386ZM81.2,81.873c.586-.81.624-1.046.245-1.433-.447-.457-.667-.417-1.423.222v1.211Z"/><path class="cls-1" d="M56.824,81.025l-.371.43c-1.576.157-3.014.359-4.459.429-1.489.072-2.984.035-4.476.01-1.278-.02-2.516-.546-3.817-.342a5.045,5.045,0,0,0-2.252-.815A21.887,21.887,0,0,1,39,80.008a20.9,20.9,0,0,1-2.381-.91,26.924,26.924,0,0,1-2.806-1.555,34.423,34.423,0,0,1-6.978-5.661,24.682,24.682,0,0,1-1.822-2.2,48.071,48.071,0,0,1-3.317-5.219c-.859-1.581-1.273-3.3-1.977-4.927a17.622,17.622,0,0,1-.736-3.523,22.54,22.54,0,0,1-.684-4.24,28.768,28.768,0,0,1,.042-4.347c.2-1.4.422-2.806.757-4.194a23.078,23.078,0,0,1,1.59-4.74,2.5,2.5,0,0,0,.019-1.008,5.084,5.084,0,0,0,.68-.789c.711-1.266,1.368-2.563,2.084-3.826a10.29,10.29,0,0,1,1.269-1.9,26.8,26.8,0,0,0,2.906-3.666c1.242-.422,1.771-1.786,3.029-2.279.58-.227,1.065-.956,1.672-1.314,1.286-.758,2.624-1.429,3.957-2.1a7.666,7.666,0,0,1,2.269-1.2,15.133,15.133,0,0,0,2.006-.556,7.573,7.573,0,0,0,1.626-.646,34.913,34.913,0,0,1,3.8-.367c1.241.007,2.393-.443,3.645-.436,1.3.007,2.534.377,3.817.422,1.213.043,2.421.227,3.569.343.871.778,1.96.733,2.927,1.007a10.128,10.128,0,0,1,2.406.863,3.647,3.647,0,0,0,.6.211,6.792,6.792,0,0,1,2.16,1.039c.532.462,1.29.57,1.817,1a7.452,7.452,0,0,0,1.784,1.133A2.727,2.727,0,0,1,69.82,25.5c.231.369.818.124.931.813.072.438.959.685,1.35,1.133,1.595,1.828,3.474,3.439,4.416,5.777a2.535,2.535,0,0,1,1.325,2.018c.2.851.847,1.365,1.149,2.142a37.334,37.334,0,0,1,1.346,3.968,15.536,15.536,0,0,1,.752,3.167c.008.142.226.27.241.415.132,1.285.286,2.571.342,3.861a16.447,16.447,0,0,1-.038,3.994c-.41,1.967-.247,4.052-1.241,5.92a5.064,5.064,0,0,0-.4,1.733,3.43,3.43,0,0,1-.724,1.8,8.719,8.719,0,0,0-.627,1.3,27.775,27.775,0,0,1-3.271,5.427c-.521.619-.778,1.515-1.378,2.008-1.228,1.009-1.977,2.517-3.441,3.264-.693.353-.954,1.293-1.826,1.428-1.2,1.421-3.08,1.846-4.442,3.054-.367.325-1,.324-1.5.522-1.035.414-2.1.722-3.119,1.22A11.768,11.768,0,0,1,56.824,81.025ZM73.084,31.01c-.066-.046-.481-.174-.568-.421-.329-.925-1.144-1.392-1.744-2.053-.32-.354-1.038-.555-1.088-.9-.108-.728-.768-.532-1.092-.9a13.736,13.736,0,0,0-3.859-2.706,31.545,31.545,0,0,0-6.958-2.786c-.557-.155-1.078-.652-1.612-.646-1.185.014-2.327-.367-3.474-.351-2.363.033-4.757-.4-7.092.311-1.505-.377-2.742.653-4.149.816-.519.06-1.009.418-1.525.454-.992.069-1.626.818-2.439,1.208A33.163,33.163,0,0,0,28,29.743c-.823.845-1.556,1.781-2.316,2.687-.1.114-.082.317-.166.449-.861,1.373-2.029,2.565-2.407,4.22-.736.537-.764,1.416-1.038,2.179-.2.554-.47,1.083-.65,1.643a7.079,7.079,0,0,0-.729,3.184c.032.225.091.549-.025.675-.651.713-.172,1.553-.309,2.317s-.26,1.526-.345,2.3a21.126,21.126,0,0,0,.339,4.559c.118,1.114.23,2.227.345,3.341.634.37.184,1.058.453,1.554.869,1.6,1.17,3.467,2.2,5,.244.362,0,.838.458,1.225a8.664,8.664,0,0,1,1.365,1.845,20.475,20.475,0,0,0,5.455,6.058c.247.163.367.523.511.739a38.946,38.946,0,0,1,3.408,2.215,4.482,4.482,0,0,0,1.692.94c.691.173,1.139.73,1.863.945a35.441,35.441,0,0,0,4.235,1.422,23.835,23.835,0,0,1,3.184.648c1.027.324,2.042,0,2.968.311a4.355,4.355,0,0,0,3.011-.006c.83-.291,1.771.177,2.665-.228a10.9,10.9,0,0,1,2.561-.44,13.592,13.592,0,0,0,3.684-1.128c1-.506,2.082-.787,3.089-1.31a8.3,8.3,0,0,0,2.844-1.814h.7a10.272,10.272,0,0,1,1.73-1.705,17.8,17.8,0,0,0,3.824-3.635,31.4,31.4,0,0,0,3.085-4.438,18.983,18.983,0,0,0,2.676-5.5,36.656,36.656,0,0,1,.945-3.614,5.413,5.413,0,0,0,.32-1.262c.053-.482.308-.949.315-1.426.035-2.322.016-4.646.016-6.969,0-.175.062-.382-.01-.518a13.79,13.79,0,0,1-.983-3.589c-.268-1.227-.725-2.376-1.09-3.56a11.468,11.468,0,0,0-.759-1.616l-.952-.6a3.4,3.4,0,0,0-.432-2.258c-.366-.486-.734-.97-1.1-1.458C74.193,32.52,73.749,31.914,73.084,31.01Z"/><path class="cls-1" d="M83.7,36.986a1.339,1.339,0,0,1-.584-1.67,10.638,10.638,0,0,1,2.951-.732c1.1-.171,1.968-1.011,3.106-.869.581-.639,1.332.031,1.944-.394l.564,1.658a8.582,8.582,0,0,0-1.358,1.5c-.371.666-1.112.816-1.52,1.411A13.239,13.239,0,0,1,87.4,39.4c1.218.455,1.218.455,4.653-.765l.746.63-.359.979a2.683,2.683,0,0,1-.423.173,5.716,5.716,0,0,0-1.117.21c-1.655.594-3.45.713-5.063,1.51-.362.179-.883.026-1.362.026V40.207c.411-.236.939-.243,1.044-.941.046-.306.621-.53.986-.815v-.645a2.732,2.732,0,0,0,1.677-1.848C86.622,35.819,85.25,36.6,83.7,36.986Z"/><path class="cls-1" d="M12.953,27.921,11.69,29.979l.543,1.69,1.6,1.458a5.3,5.3,0,0,0,2.578.311L17.9,31.93a2.908,2.908,0,0,0-.467-2.309h-.7c-.263.618-.5,1.292-1.464.983-.341-1.181.332-1.97,1.095-2.7,1.668-.339,2.72.892,3.985,1.552v.761l-1.017.654V32.1a5.543,5.543,0,0,1-2.723,2.753c-1.18-.128-2.512.24-3.807-.454a5.841,5.841,0,0,1-2.478-3.151,7.862,7.862,0,0,1,.271-1.981,10.4,10.4,0,0,1,1.286-1.986,4.118,4.118,0,0,1,3.386-.675c-.115.245-.205.428-.286.614s-.163.395-.257.626Z"/><path class="cls-1" d="M15.593,40.961c-.47,1.236-1.094,1.817-2.131,1.927-.285.031-.539.364-.913.634H10.97L8.132,42.078l-1.21-2.052v-2.28l1.69-2.512H10.6c.417.856-.316,1.2-.731,1.683-.948-.166-1.2.571-1.554,1.419v1.53l1.848,1.625c1.259-.2,2.58.373,4.111-.707.375-.4.2-1.32.228-2.233-.443-.44-.75-1.158-1.668-.839v.908l-.954.069c-.455-1,.215-1.792.248-2.66a4.256,4.256,0,0,1,4.208,1.364l-.746.333Z"/><path class="cls-1" d="M84.6,58.821c1.666.807,3.592.705,5.44,1.759l2.266.447a27.561,27.561,0,0,1-.658,3.2,3.335,3.335,0,0,1-1.171,1.889c-1.065.546-2.085,1.5-3.177,1.188-1.5-.9-3.042-1.269-3.876-2.805A11.419,11.419,0,0,1,84.6,58.821Zm.729,2.122-.887,2.28c.455.535.813,1.284,1.385,1.539A4.638,4.638,0,0,0,89.9,64.7l.887-2.137c-1.171-.822-2.571-.693-3.671-1.419C86.66,60.845,85.917,61,85.325,60.943Z"/><path class="cls-1" d="M27.4,18.117a2.89,2.89,0,0,1,1.228,2.838l-.765,1.512-2.141,1.555H23.245l-.932-1.082.948-.579,1.87.36,1.721-1.2a1.91,1.91,0,0,0-.485-1.727c-1.077.245-2.237.451-3.362.78-1.625.476-2,.368-2.86-1.1a.674.674,0,0,0-.121-.124,3.562,3.562,0,0,1,.562-2.375,4.972,4.972,0,0,1,3.131-1.993c.592-.027.9.136,1.887,1.012l-.566.771-1.8-.309-2.022,1.579,1.138,1.249,3.012-1.165Z"/><path class="cls-1" d="M56.6,14.838c.346-2.744,1.716-5.151,2.028-7.806.739.1,1.377.177,2.009.284A17.452,17.452,0,0,1,63.613,8.44c.426.154.71.813.973,1.292a4.049,4.049,0,0,1,.277,1.014l-1.5,1.428-.562.065c-.022.153-.119.353-.058.465a5.846,5.846,0,0,1,.336,2.652l-.46.948H61.456l.314-2.677c-.516-1.044-1.467-1.088-2.218-1.425-1.4.574-.786,2.372-1.892,3.174Zm3.095-5.614v1.884l2.433.445a1.385,1.385,0,0,0,.5-1.751L61.074,8.71C60.643,8.739,60.091,8.547,59.692,9.224Z"/><path class="cls-1" d="M40.258,7c1.433-.386,2.706-.8,4.009-1.058A2.777,2.777,0,0,1,47.2,7.84a1.423,1.423,0,0,1-.188,1.3,5.871,5.871,0,0,0-.6,1.418l.8.405.83,2.87-1.333.122c-.831-.828-.516-2.306-2.02-2.8H43.263l-.525.532c.132.845-.258,1.785.5,2.78l-.8.307.174.164H41.5c-.159-1.379-.273-2.715-.477-4.037C40.828,9.657,40.542,8.429,40.258,7ZM45.509,9.42V8.181l-.817-.816H42.874l-.432.436v2.3A8.593,8.593,0,0,0,45.509,9.42Z"/><path class="cls-1" d="M41.342,84.688l1.981,1.73c1.023,2.778-.173,5.266-2.48,6.981h-2.6a4.221,4.221,0,0,1-2-4.76,5.02,5.02,0,0,1,3.046-3.951Zm-.066,6.2a6.28,6.28,0,0,1,.556-1.9c.583-.785.026-1.388-.147-2.024-.092-.34-.534-.584-.912-.966l-1.7.458c-.221.512-.388.906-.56,1.3-.194.442-.42.871-.579,1.325-.142.4-.214.835-.342,1.358l1.1,1.546h1.5Z"/><path class="cls-1" d="M91.137,42.515c2.606,2.561,2.606,2.561,2.606,4.8L91.88,49.943a6.033,6.033,0,0,1-3.329.577c-.642-.069-1.517-.034-1.848-.425-.457-.542-1.219-.757-1.477-1.412a9,9,0,0,1-.433-1.9,2.954,2.954,0,0,1,.419-2.082c.2-.321.364-.871.616-.917.585-.107.555-.774.985-.9a7.934,7.934,0,0,1,1.746-.347C89.415,42.472,90.278,42.515,91.137,42.515Zm1.218,4.716c.052-.853.112-1.773-.606-2.337a3.689,3.689,0,0,0-2.866-.988l-2.446,1.272-.324,1.87C87.281,49.765,90.385,49.617,92.355,47.231Z"/><path class="cls-1" d="M75.256,14.984h1.082l3.275,3.34v2.783l-2.349,2.8a7.7,7.7,0,0,1-1.726.458,7.057,7.057,0,0,1-1.647-.383l-3.077-2.64C72.2,19.058,73.82,17.071,75.256,14.984Zm2.61,6.131a5.548,5.548,0,0,0-.076-3.236l-1.826-.911Q74.5,18.932,73.1,20.806v1.2l2.085,1.036A5.691,5.691,0,0,0,77.866,21.115Z"/><path class="cls-1" d="M48.9,13.9c.142-1.161.322-2.2.384-3.255.064-1.1-.025-2.2.034-3.3A5.491,5.491,0,0,1,49.783,6h1.543V8.726a12.517,12.517,0,0,0,3.26-2.4h1.559a4.091,4.091,0,0,1-1.2,1.751c-.528.5-1.3.781-1.527,1.7l2.046,3.958v1.189h-.89c-1.157-1.147-1.454-2.981-2.782-4.254l-1.134.986v2.121l-.6.609Z"/><path class="cls-1" d="M93.372,52.073l.43.435c-.138,1.258-.291,2.641-.445,4.042l-.808,1.634a5.46,5.46,0,0,1-1.987.3,1.494,1.494,0,0,1-1.4-1.523A5.031,5.031,0,0,1,85.2,57.8V56.551h2.061l1.285-1.49v-1.6L88.081,53H85.542V51.559C88.157,51.653,90.749,51.325,93.372,52.073Zm-2.959,4.674h1.221l.789-1.344-.385-2.048H90.525l-.908.808v1.779Z"/><path class="cls-1" d="M80.529,25.462c-.869-.23-1.155.456-1.6.858v.937l2.086,2.653c.085.474-.12.884-.809,1.158a9.858,9.858,0,0,1-.768-.773,9.36,9.36,0,0,0-.52-.815c-.263-.259-.657-.383-.912-.646a5.558,5.558,0,0,1-.62-.951c-.174-.275-.367-.54-.519-.826-.175-.328-.315-.675-.441-.949,2.2-1.685,4.061-3.591,6.388-4.953l3.756,4.293-.487,1.036c-.864-.006-.758-.869-1.124-.987-.568-.184-.716-.55-.964-.993a5.893,5.893,0,0,0-1.063-1.117c-.873-.278-1.139.49-1.749.939a6.95,6.95,0,0,1,1.482,1.7c.226.569,1.191.9.637,1.8h-.826C81.889,27,80.8,26.54,80.529,25.462Z"/><path class="cls-1" d="M35.991,15.43l4.3-1.229v1.055A8.934,8.934,0,0,1,37.548,16.3c-1.075.041-1.813,1.22-3,.669L32,9.566l1.149-.641c.272-.263.74-.141,1.222-.526.281-.224.879-.041,1.31-.041l1.511-1.041c.958.228.958.228,1.035,1.2-1.243.918-2.8,1.028-4.213,1.687l.653,1.369,3.871-.869v1.427A6.228,6.228,0,0,0,35.121,13.4c.1.309.194.656.333.981C35.6,14.727,35.793,15.049,35.991,15.43Z"/><path class="cls-1" d="M23.192,85.584c-.349-.973-1.557-1.48-1.436-2.868l.424-.547c.843.254.869.72.971,1.248a4.063,4.063,0,0,0,.726,1.221,3.234,3.234,0,0,0,2.793-.626c-.305-.214-.566-.547-.858-.577-1.178-.119-1.624-.955-2.012-1.895a4.9,4.9,0,0,0-.36-.6c.226-.556.488-1.143.7-1.746a1.507,1.507,0,0,1,1.282-1.13c.54-.073,1.022-.746,1.643-.056.162.179.65.058,1.059.078l1.552,1.7.421,2.282-2.828,3.584C25.822,85.993,24.549,86.5,23.192,85.584ZM27.2,82.607l1.55-1.368-.723-1.614-1.319-.556-1.237.552-.35,2.034A2.469,2.469,0,0,0,27.2,82.607Z"/><path class="cls-1" d="M11.736,64.31l-.85.855h-2.4C7.16,63.809,6.911,63.11,6.938,60.779l1.1-1.521h.874v1.267l-.609.647v2.087l.429.435a1.291,1.291,0,0,0,1.625-.456c.059-1.334-.183-2.774.37-4.114.144-.348.521-.6.8-.9H14l1.532,1.7c.246,3.176.223,3.746-.873,4.548H13.511l-.063-.934,1.042-.85V60.874l-.723-1.226h-1.24a3.079,3.079,0,0,0-.428.62A11.585,11.585,0,0,0,11.736,64.31Z"/><path class="cls-1" d="M56.965,85.458a10.528,10.528,0,0,1,4.581-1.106c.41.553.111.945-.215,1.242-.72.178-1.344.35-1.975.484-.729.156-.841.637-.686,1.384l2.719-.408L63.137,88.6a6.4,6.4,0,0,1,.274,1.045,9.323,9.323,0,0,1,.014,1.332c-.277,1.239-1.343,1.521-2.364,2.069-.994.012-2.2.238-3.112-.824v-.856h1.219l.61.618h1.06l1.239-1.425L61.7,89l-1.748-.523c-.782.524-1.369,1.605-2.64,1.417C57.237,88.44,56.6,87.053,56.965,85.458Z"/><path class="cls-1" d="M36.489,84.7c-.094.361-.163.733-.287,1.085a2.213,2.213,0,0,1-1.957,1.7c-.92.092-1.828.3-2.826.473l-.347.351c.078.1.144.276.249.305a13.769,13.769,0,0,1,2,1c.289.132.38.469.463,1.18-.677.532-1.3.03-1.841-.221a19.532,19.532,0,0,1-2.174-1.417,3.884,3.884,0,0,0-.739-.293c-.617-.235-.628-.254-.693-1.246a10.916,10.916,0,0,1,5.322-1.566l1.161-1.344-.661-1.382-1.243-.059-.513.679c-.716.136-1.14-.039-1.361-.6l1.42-1.175c1.369-.673,2.461.352,3.612,1.126Z"/><path class="cls-1" d="M79.3,83.412l-1.375.919c-2.3-1.48-4.554-2.935-6.955-4.482l.322-1.033a3.883,3.883,0,0,1,3.068,1.09c.744.555,1.445,1.167,2.245,1.819a1.52,1.52,0,0,0,.121-1.524c-.476-1.189-.971-2.37-1.441-3.561a5.789,5.789,0,0,1-.193-.813l1.248-.634a4.782,4.782,0,0,1,.836,1.383C77.63,78.96,79.086,81.033,79.3,83.412Z"/><path class="cls-1" d="M71.364,11.883c-.066,1.178.216,2.284-.6,3.185-.094.1-.084.311-.1.473-.119,1.164-.2,2.333-.363,3.491a6.509,6.509,0,0,1-.5,1.309l-1.238-.506.432-1.426c-.614-.949-1.652-.891-2.443-1.312a1.053,1.053,0,0,0-.957.093c-.591.49-1.177.065-1.787.28l-.043-.842c.3-.4.985-.332,1.1-1.068.054-.343.736-.565,1.095-.885.427-.382.813-.811,1.217-1.219.363-.368.73-.731,1.089-1.1.4-.412.785-.832,1.273-1.349Zm-1.458,1.278a5.868,5.868,0,0,0-2.688,2.009v.685l.473.479H69.16l.348-.378Z"/><path class="cls-1" d="M56.129,94l-5.745.357a2.235,2.235,0,0,1,.725-2.254,9.81,9.81,0,0,0,1.6-1.4c.389-.564,1.122-.663,1.405-1.483V87.981l-.888-.841h-1.1l-.947,1.689H50.12c-.044-.1-.13-.2-.126-.292a2.638,2.638,0,0,1,2.782-2.8c.4,0,.8,0,1.084,0l1.254.948c.26.731,1.007,1.525.652,2.745a8.347,8.347,0,0,1-2.982,2.746v.968l3.345-.463Z"/><path class="cls-1" d="M67.972,82.946H70.41l1.275.975.447,1.243c-1.2.7-2.491.977-3.531,1.829v.641l.962.538c1.081-.353,1.541-1.439,2.282-2.064h.75c.051.124.137.23.125.321-.153,1.116-.47,2.1-1.722,2.458a3.766,3.766,0,0,0-.912.644H68.715l-.254-.587-1.233-.133-1.034-1.937V84.433Zm2.04,1.546a2.616,2.616,0,0,0-2.463.356l.092,1.318C68.617,85.732,69.7,85.7,70.012,84.492Z"/><path class="cls-1" d="M9.2,50.9l1.486,1.107.491,2.657.349.353H14l-.149.21.986.449-1.512,1.1a14.912,14.912,0,0,0-3.545.18c-1.149.33-2.249-.007-3.45.256l-.752-3.764C6.31,51.5,7.163,50.88,9.2,50.9ZM7.38,55.7H9.513c1.177-.854,0-1.7.19-2.635a2.481,2.481,0,0,1-.471-.386,1,1,0,0,1-.187-.368H7.737c-.829,1.2-.829,1.2-.771,2.971Z"/><path class="cls-1" d="M14.152,46.475v1.431c-.081.06-.16.163-.254.179a2.9,2.9,0,0,0-1.275.273,5.073,5.073,0,0,1-2.257.744,10.471,10.471,0,0,0-4.074,1.2l-.8-.674a1.842,1.842,0,0,1,.21-.468A3.214,3.214,0,0,1,8.01,48.055a37.782,37.782,0,0,0,4.07-.8c-.566-.431-.859-.834-1.2-.88-1.462-.2-2.574-1.325-4.069-1.462-.518-.047-.719-.654-.5-1.313a3.779,3.779,0,0,1,3.018.813,1.959,1.959,0,0,0,.829.48A15.857,15.857,0,0,1,14.152,46.475Z"/><path class="cls-1" d="M30.984,10.011v1.715l-1.379.631.435,2.191,1.013.823c-.136,1.406,1.119,1.989,1.335,3.256-.252.677-.921.573-1.5.506l-3.079-5.54c-.993-.1-1.565.558-2.194,1.052-.649-.127-.863-.524-.746-1.207.558-.367,1.162-.8,1.8-1.175.691-.4,1.416-.747,2.126-1.117Z"/><path class="cls-1" d="M22.09,75.284h1.427l.992.514c-.037.145-.027.347-.122.444q-2.59,2.65-5.2,5.278c-1.014-.1-1.014-.1-1.22-1.014l3.581-3.62-.764-1.113V74.415Z"/><path class="cls-1" d="M47.011,85.908l1.6.641c-.779,2.371-1.934,4.566-2.436,6.831L45.313,94.5l-1.227-.566a6.374,6.374,0,0,1,.229-1.227C45.178,90.475,46.076,88.254,47.011,85.908Z"/><path class="cls-1" d="M86.03,33.078H84.881L83.786,31.6V30.02h1.282Z"/><path class="cls-1" d="M75.694,86.037c-.644.586-.913,1.26-1.75,1.076l-.626-1.2,1.151-.685C74.952,85.048,75.112,85.676,75.694,86.037Z"/><path class="cls-1" d="M20.011,27.386c.106-.116.213-.246.334-.363a4.165,4.165,0,0,1,.36-.264l1.556.605-1,1.209C20.224,28.573,20.224,28.573,20.011,27.386Z"/><path class="cls-1" d="M81.2,81.873H80.024V80.662c.756-.639.976-.679,1.423-.222C81.826,80.827,81.788,81.063,81.2,81.873Z"/><path class="cls-3" d="M73.084,31.01c.665.9,1.109,1.51,1.556,2.112.362.488.73.972,1.1,1.458a3.4,3.4,0,0,1,.432,2.258l.952.6a11.468,11.468,0,0,1,.759,1.616c.365,1.184.822,2.333,1.09,3.56a13.79,13.79,0,0,0,.983,3.589c.072.136.01.343.01.518,0,2.323.019,4.647-.016,6.969-.007.477-.262.944-.315,1.426a5.413,5.413,0,0,1-.32,1.262,36.656,36.656,0,0,0-.945,3.614,18.983,18.983,0,0,1-2.676,5.5,31.4,31.4,0,0,1-3.085,4.438,17.8,17.8,0,0,1-3.824,3.635,10.272,10.272,0,0,0-1.73,1.705h-.7a8.3,8.3,0,0,1-2.844,1.814c-1.007.523-2.087.8-3.089,1.31a13.592,13.592,0,0,1-3.684,1.128,10.9,10.9,0,0,0-2.561.44c-.894.405-1.835-.063-2.665.228a4.355,4.355,0,0,1-3.011.006c-.926-.309-1.941.013-2.968-.311a23.835,23.835,0,0,0-3.184-.648,35.441,35.441,0,0,1-4.235-1.422c-.724-.215-1.172-.772-1.863-.945a4.482,4.482,0,0,1-1.692-.94,38.946,38.946,0,0,0-3.408-2.215c-.144-.216-.264-.576-.511-.739a20.475,20.475,0,0,1-5.455-6.058,8.664,8.664,0,0,0-1.365-1.845c-.456-.387-.214-.863-.458-1.225-1.031-1.534-1.332-3.4-2.2-5-.269-.5.181-1.184-.453-1.554-.115-1.114-.227-2.227-.345-3.341a21.126,21.126,0,0,1-.339-4.559c.085-.769.208-1.534.345-2.3s-.342-1.6.309-2.317c.116-.126.057-.45.025-.675a7.079,7.079,0,0,1,.729-3.184c.18-.56.451-1.089.65-1.643.274-.763.3-1.642,1.038-2.179.378-1.655,1.546-2.847,2.407-4.22.084-.132.07-.335.166-.449.76-.906,1.493-1.842,2.316-2.687a33.163,33.163,0,0,1,9.48-6.708c.813-.39,1.447-1.139,2.439-1.208.516-.036,1.006-.394,1.525-.454,1.407-.163,2.644-1.193,4.149-.816,2.335-.715,4.729-.278,7.092-.311,1.147-.016,2.289.365,3.474.351.534-.006,1.055.491,1.612.646a31.545,31.545,0,0,1,6.958,2.786,13.736,13.736,0,0,1,3.859,2.706c.324.37.984.174,1.092.9.05.344.768.545,1.088.9.6.661,1.415,1.128,1.744,2.053C72.6,30.836,73.018,30.964,73.084,31.01ZM52.945,75.249A9.141,9.141,0,0,1,54.3,73.91a29.342,29.342,0,0,0,5.038-4.079c.525-.536,1.256-.98,1.527-1.624.29-.691,1.323-.645,1.25-1.535A31.059,31.059,0,0,0,65.5,62.166a17.628,17.628,0,0,0,2.018-3.5c.441-1.087.821-2.233,1.329-3.27,1.085-2.215,1.435-4.63,2.108-6.949a17.3,17.3,0,0,0,.38-4.194c.058-1.739.007-3.482.019-5.223a3.5,3.5,0,0,1,.124-.991,5.159,5.159,0,0,0-.3-3.97c-.427.107-.842.225-1.264.313a24.845,24.845,0,0,1-3.971.769c-1.434.06-2.931.385-4.33-.3a6.77,6.77,0,0,1-3.854-1.089,1.825,1.825,0,0,0-1.669-.058c-1.794.671-3.621,1.249-5.444,1.837a6.4,6.4,0,0,1-1.577.341c-1.164.067-2.316.168-3.477.3-2.984.349-5.981-.126-8.972-.3-.191-.011-.381-.309-.555-.293-1.192.116-2.15-.7-3.317-.786a13.5,13.5,0,0,1-2.919-.962H28.705a4.6,4.6,0,0,0-.4,1.244c-.043,1.857-.064,3.716-.007,5.571s.218,3.735.332,5.6c.567.736.165,1.651.431,2.431a7.66,7.66,0,0,1,.6,3.305,6.979,6.979,0,0,1,.347.652,24.733,24.733,0,0,1,1.015,2.7c.25.951.828,1.733,1.125,2.671.319,1,1.242,1.8,1.611,2.8.621,1.681,2.013,2.824,2.747,4.42.273.593,1.2.927,1.362,1.512.218.779,1.181.944,1.158,1.786.81.069.887.881,1.326,1.325a21.93,21.93,0,0,0,1.762,1.575c1.244,1.01,2.521,1.979,3.756,3a2.926,2.926,0,0,1,.5.829c1.27-.189,1.95.855,2.785,1.356C50.763,76.989,51.49,75.142,52.945,75.249Z"/><path class="cls-2" d="M85.325,60.943c.592.053,1.335-.1,1.788.2,1.1.726,2.5.6,3.671,1.419L89.9,64.7a4.638,4.638,0,0,1-4.074.062c-.572-.255-.93-1-1.385-1.539Z"/><path class="cls-2" d="M59.692,9.224c.4-.677.951-.485,1.382-.514L62.629,9.8a1.385,1.385,0,0,1-.5,1.751l-2.433-.445Z"/><path class="cls-2" d="M45.509,9.42a8.593,8.593,0,0,1-3.067.679V7.8l.432-.436h1.818l.817.816Z"/><path class="cls-2" d="M41.276,90.888l-1.082,1.094H38.7l-1.1-1.546c.128-.523.2-.954.342-1.358.159-.454.385-.883.579-1.325.172-.392.339-.786.56-1.3l1.7-.458c.378.382.82.626.912.966.173.636.73,1.239.147,2.024A6.28,6.28,0,0,0,41.276,90.888Z"/><path class="cls-2" d="M92.355,47.231c-1.97,2.386-5.074,2.534-6.242-.183l.324-1.87,2.446-1.272a3.689,3.689,0,0,1,2.866.988C92.467,45.458,92.407,46.378,92.355,47.231Z"/><path class="cls-2" d="M77.866,21.115a5.691,5.691,0,0,1-2.679,1.931L73.1,22.01v-1.2q1.4-1.878,2.862-3.838l1.826.911A5.548,5.548,0,0,1,77.866,21.115Z"/><path class="cls-2" d="M90.413,56.747l-.8-.8V54.163l.908-.808h1.513l.385,2.048-.789,1.344Z"/><path class="cls-2" d="M27.2,82.607a2.469,2.469,0,0,1-2.079-.952l.35-2.034,1.237-.552,1.319.556.723,1.614Z"/><path class="cls-2" d="M69.906,13.161l-.4,2.8-.348.378H67.691l-.473-.479V15.17A5.868,5.868,0,0,1,69.906,13.161Z"/><path class="cls-2" d="M70.012,84.492c-.31,1.207-1.395,1.24-2.371,1.674l-.092-1.318A2.616,2.616,0,0,1,70.012,84.492Z"/><path class="cls-2" d="M7.38,55.7l-.414-.418c-.058-1.774-.058-1.774.771-2.971H9.045a1,1,0,0,0,.187.368,2.481,2.481,0,0,0,.471.386c-.188.936.987,1.781-.19,2.635Z"/><path class="cls-1" d="M52.945,75.249c-1.455-.107-2.182,1.74-3.8,1.375-.835-.5-1.515-1.545-2.784-1.357a2.96,2.96,0,0,0-.5-.828c-1.235-1.021-2.512-1.99-3.756-3a21.93,21.93,0,0,1-1.762-1.575c-.439-.444-.516-1.256-1.326-1.325.023-.842-.94-1.007-1.158-1.786-.164-.585-1.089-.919-1.362-1.512-.734-1.6-2.126-2.739-2.747-4.42-.369-1-1.292-1.8-1.611-2.8-.3-.938-.875-1.72-1.125-2.671A24.733,24.733,0,0,0,30,52.644a6.979,6.979,0,0,0-.347-.652,7.66,7.66,0,0,0-.6-3.3c-.266-.78.136-1.7-.431-2.431-.114-1.867-.274-3.733-.332-5.6s-.036-3.714.007-5.571a4.6,4.6,0,0,1,.4-1.244h1.121a13.5,13.5,0,0,0,2.919.962c1.167.084,2.125.9,3.317.786.174-.016.364.282.555.293,2.991.175,5.988.65,8.972.3,1.161-.135,2.313-.236,3.477-.3a6.4,6.4,0,0,0,1.577-.341c1.823-.588,3.65-1.166,5.444-1.837a1.825,1.825,0,0,1,1.669.058,6.77,6.77,0,0,0,3.854,1.089c1.4.688,2.9.363,4.33.3a24.845,24.845,0,0,0,3.971-.769c.422-.088.837-.206,1.264-.313a5.159,5.159,0,0,1,.3,3.97,3.5,3.5,0,0,0-.124.991c-.012,1.741.039,3.484-.019,5.223a17.3,17.3,0,0,1-.38,4.194c-.673,2.319-1.023,4.734-2.108,6.949-.508,1.037-.888,2.183-1.329,3.27a17.628,17.628,0,0,1-2.018,3.5,31.059,31.059,0,0,1-3.388,4.506c.073.89-.96.844-1.25,1.535-.271.644-1,1.088-1.527,1.624A29.342,29.342,0,0,1,54.3,73.91,9.141,9.141,0,0,0,52.945,75.249Zm-2.341-.7A20.191,20.191,0,0,0,52.53,73.2c.581-.506,1.394-.605,1.867-1.371.242-.391,1.189-.369,1.419-.95.275-.7.966-.806,1.393-1.289a60.056,60.056,0,0,0,4.118-4.549c.808-1.126,1.7-2.189,2.54-3.292.125-.164.118-.442.257-.581.872-.875,1.123-2.1,1.743-3.1A13.772,13.772,0,0,0,67.4,54.7c.107-.359.247-.709.361-1.066.327-1.024.666-2.044.968-3.075a24.56,24.56,0,0,0,.867-3.284c.162-1.1.22-2.231.31-3.337.2-2.524.065-5.076.065-7.658h-1.58a2.775,2.775,0,0,1-2.146.664c-1.2-.034-2.409-.031-3.613,0a2.555,2.555,0,0,1-2.166-.739c-1.36.459-2.5-.99-4.06-.552L54.57,40.261c-.3.652.259,1.474-.443,2.075A23.408,23.408,0,0,1,52.5,46.7a44.992,44.992,0,0,1-2.115,5.558c-.665,1.255-1,2.686-1.661,4-.856,1.7-1.2,3.664-2.175,5.349-.05.087.022.238-.011.343a12.64,12.64,0,0,1-.82,2.436c-.635,1.132-.642,2.542-1.587,3.517.05,1.049-.715,2.035-.343,2.884,1.267.945,2.388,1.72,3.438,2.582A4.147,4.147,0,0,0,50.6,74.548Z"/><path class="cls-2" d="M50.6,74.548a4.147,4.147,0,0,1-3.378-1.173c-1.05-.862-2.171-1.637-3.438-2.582-.372-.849.393-1.835.343-2.884.945-.975.952-2.385,1.587-3.517a12.64,12.64,0,0,0,.82-2.436c.033-.105-.039-.256.011-.343.976-1.685,1.319-3.646,2.175-5.349.661-1.316,1-2.747,1.661-4A44.992,44.992,0,0,0,52.5,46.7a23.408,23.408,0,0,0,1.627-4.368c.7-.6.147-1.423.443-2.075l1.836-4.606c1.557-.438,2.7,1.011,4.06.552a2.555,2.555,0,0,0,2.166.739c1.2-.03,2.409-.033,3.613,0a2.775,2.775,0,0,0,2.146-.664h1.58c0,2.582.14,5.134-.065,7.658-.09,1.106-.148,2.236-.31,3.337a24.56,24.56,0,0,1-.867,3.284c-.3,1.031-.641,2.051-.968,3.075-.114.357-.254.707-.361,1.066a13.772,13.772,0,0,1-1.533,3.368c-.62,1-.871,2.222-1.743,3.1-.139.139-.132.417-.257.581-.84,1.1-1.732,2.166-2.54,3.292a60.056,60.056,0,0,1-4.118,4.549c-.427.483-1.118.593-1.393,1.289-.23.581-1.177.559-1.419.95-.473.766-1.286.865-1.867,1.371A20.191,20.191,0,0,1,50.6,74.548Z"/></g></svg>