<?xml version="1.0" encoding="UTF-8"?>
<svg width="200px" height="154px" viewBox="0 0 200 154" version="1.1" xmlns="http://www.w3.org/2000/svg" xmlns:xlink="http://www.w3.org/1999/xlink">
    <!-- Generator: Sketch 46.2 (44496) - http://www.bohemiancoding.com/sketch -->
    <title>Page 1</title>
    <desc>Created with Sketch.</desc>
    <defs>
        <polygon id="path-1" points="199.753871 153.212468 199.753871 0.315650741 0.145140033 0.315650741 0.145140033 153.212468 199.753871 153.212468"></polygon>
    </defs>
    <g id="assets-sonstige" stroke="none" stroke-width="1" fill="none" fill-rule="evenodd">
        <g id="Page-1">
            <g id="Group-5" transform="translate(0.000000, 0.013839)">
                <mask id="mask-2" fill="white">
                    <use xlink:href="#path-1"></use>
                </mask>
                <g id="Clip-4"></g>
                <path d="M159.80972,16.6689951 C159.671664,16.6146293 159.557331,16.5276442 159.5,16.5559802 C159.376442,16.6169357 159.218287,16.7210544 159.189621,16.8360461 C159.141516,17.0304448 159.320758,17.1085338 159.471005,17.0350577 C159.594563,16.9747611 159.673311,16.8228666 159.80972,16.6689951 L159.80972,16.6689951 Z M127.248929,59.1190774 C128.042339,60.1299506 128.618287,60.7447776 129.597199,59.6429654 C128.875947,59.4818451 128.224876,59.3368699 127.248929,59.1190774 L127.248929,59.1190774 Z M127.011367,47.6861285 C126.924712,47.6034267 126.838386,47.5203954 126.75173,47.4376936 C126.140527,47.9757496 124.727677,47.8278089 125.31285,49.5628995 C125.935914,48.8742669 126.473641,48.2801977 127.011367,47.6861285 L127.011367,47.6861285 Z M131.013344,64.5062273 C131.065074,64.4050741 131.116804,64.3045799 131.168863,64.2037562 C130.462768,63.8212191 129.761614,63.4287974 129.048929,63.0584514 C127.566886,62.2877759 126.316474,61.2383526 125.301318,59.9190774 C123.415651,57.4683361 122.246293,54.7276442 121.662438,51.6686656 C121.269357,49.6100165 121.769852,47.8966722 122.854201,46.2357166 C123.221911,45.6726194 123.572158,45.0979901 124.0486,44.3404942 C123.09374,44.6195717 122.933937,45.2673476 122.565898,45.7378583 C121.2743,47.3885997 121.279901,49.4795387 121.13196,51.3194069 C120.814003,55.2686656 122.275618,58.7971664 125.464415,61.2811862 C127.136573,62.5839868 129.152718,63.4452718 131.013344,64.5062273 L131.013344,64.5062273 Z M125.158979,55.8577924 C126.165239,54.5915651 126.989292,53.6927183 127.954695,52.9302801 C132.767875,49.1296211 137.941516,45.8544975 143.066722,42.5075453 C143.922735,41.9487315 144.844975,41.4640527 145.494728,40.6255025 C145.106919,40.7576277 144.772488,40.9675124 144.438715,41.1777265 C138.288138,45.0518616 132.247282,49.1085338 125.735914,52.379374 C125.431796,52.532257 125.148105,52.6558155 125.155025,53.07229 C125.168534,53.8772323 125.158979,54.6821746 125.158979,55.8577924 L125.158979,55.8577924 Z M118.208402,47.2093575 C116.143163,49.6591104 114.004448,52.1213839 114.417957,55.5961779 C114.842669,59.1678418 116.752389,62.0311038 119.362603,64.4419769 C121.540527,66.4538386 124.11285,66.7259967 126.974794,66.1988138 C120.59061,61.4199012 116.342834,55.7862932 118.208402,47.2093575 L118.208402,47.2093575 Z M133.016639,51.8910708 C148.664745,45.6535091 164.022241,38.7602636 179.778089,32.0591104 C177.679572,31.1556507 175.85486,30.4149588 174.070675,29.5872817 C172.735914,28.9678418 171.384349,28.8762438 169.97743,29.1698188 C166.167545,29.9652059 162.792586,31.7767381 159.538221,33.7965074 C151.006096,39.0927183 142.988303,45.1605931 134.535914,50.5797035 C133.988633,50.9306096 133.321087,51.1750906 133.016639,51.8910708 L133.016639,51.8910708 Z M171.600165,10.2782208 C156.666722,21.3045799 143.427183,34.1783855 130.174794,47.1342339 C130.965239,47.4462603 131.402471,46.9556507 131.864415,46.6683361 C140.130643,41.5236903 148.507578,36.5546623 156.146129,30.454168 C160.028171,27.3543328 164.136244,24.5378583 168.140198,21.5905766 C168.533937,21.3009555 168.985667,21.0604283 169.152059,20.549061 C170.233443,17.2307743 171.081878,13.8538386 171.600165,10.2782208 L171.600165,10.2782208 Z M133.726689,57.1088633 C133.755684,57.2027677 133.784679,57.2966722 133.813674,57.3902471 C134.361285,57.3411532 134.912521,57.316771 135.456178,57.2396705 C149.726689,55.2146293 163.743822,52.0861285 177.43575,47.5556507 C179.970511,46.716771 182.450577,45.7388468 184.789292,44.4271499 C185.494728,44.0311038 185.686161,43.7072158 184.924053,43.1467545 C184.097364,42.5388468 183.278913,41.8989786 182.556013,41.1741021 C181.374135,39.9895881 179.958979,39.6815157 178.374465,39.8205601 C175.994234,40.0291269 173.667051,40.518089 171.378418,41.1872817 C159.786985,44.5777265 148.868699,49.60771 138.06145,54.9045799 C136.606096,55.6175947 135.17117,56.3727842 133.726689,57.1088633 L133.726689,57.1088633 Z M135.832455,60.3622405 C136.236079,60.7839868 136.623229,60.7371993 136.985008,60.7714662 C141.208072,61.1708072 145.442339,61.4119934 149.683526,61.4100165 C163.874629,61.4024382 177.924712,60.5678418 191.024876,54.2327512 C193.099671,53.2291269 195.248929,52.3701483 197.026524,50.8571334 C198.17117,49.8825041 198.078913,49.3348929 196.651895,48.8241845 C194.526359,48.0637232 192.315815,47.9968369 190.077265,48.087117 C187.881219,48.1757496 185.964909,49.1839868 183.923723,49.7777265 C171.11285,53.5058979 157.992257,55.8531796 144.947446,58.5375288 C141.941845,59.1559802 138.930313,59.7428007 135.832455,60.3622405 L135.832455,60.3622405 Z M14.2950577,121.369489 C17.8739703,125.392554 22.0604613,128.711499 26.4588138,131.770478 C37.730972,139.609687 50.1510708,145.337199 62.4459638,151.295354 C63.0887974,151.606722 63.5299835,151.372455 64.0479407,151.110511 C71.0258649,147.579374 78.0271829,144.093707 84.9813839,140.5171 C92.6001647,136.598814 100.071664,132.436376 106.788303,127.042965 C117.484843,118.453509 123.392586,107.409687 123.717133,93.6271499 C123.90626,85.6034267 123.735255,77.5711367 123.745799,69.5428007 C123.746787,68.8670181 123.59654,68.4274794 122.850247,68.364547 C117.79028,67.9378583 112.559638,60.1503789 112.463756,55.0255025 C112.408402,52.0630643 113.844316,49.6508731 115.419605,47.3243493 C116.876606,45.1727842 118.797199,43.6676771 121.470675,43.2248435 C123.017298,42.9688303 123.573476,42.1628995 123.57084,40.639341 C123.548435,29.2759143 123.526359,17.9124876 123.503954,6.54939044 C123.503295,6.21990115 123.510544,5.88975288 123.491763,5.56158155 C123.469028,5.16355848 123.269357,4.95532125 122.846293,5.03505766 C122.641021,5.02319605 122.43575,4.99980231 122.230478,5.00079077 C82.406425,5.13423394 42.5823723,5.27327842 2.75864909,5.38266886 C1.77775947,5.38530478 1.62553542,5.72599671 1.62948929,6.59782537 C1.75799012,35.2199012 1.85288303,63.8419769 1.97907743,92.4643822 C2.00049423,97.3246787 2.90098847,102.039341 4.67957166,106.572784 C6.87199341,112.161911 10.0607908,117.106227 14.2950577,121.369489 L14.2950577,121.369489 Z M165.043328,5.68876442 C164.584349,5.82319605 164.314168,6.20902801 163.988633,6.50919275 C159.024217,11.0821746 154.321746,15.9184185 149.671993,20.8067216 C143.276936,27.5299506 137.016639,34.3754201 130.989292,41.5078748 C131.917463,41.701944 132.301977,40.9737727 132.792916,40.5563097 C142.186985,32.5737727 150.801153,23.8113344 158.750741,14.3978254 C161.055189,11.6689951 163.341186,8.91248764 165.179736,5.8278089 C165.201153,5.73950577 165.265733,5.59551895 165.236409,5.57311367 C165.122076,5.48514003 165.06771,5.57871499 165.043328,5.68876442 L165.043328,5.68876442 Z M140.307908,51.2255025 C135.579407,53.0884349 131.030478,55.4373641 126.008731,56.5049094 C125.781384,56.5530148 125.508237,56.5121582 125.550412,56.9049094 C125.675618,58.0640527 126.99687,58.7556507 127.951071,58.1441186 C131.904283,55.6113344 136.132949,53.5938715 140.332949,51.5230313 C140.774135,51.423855 141.165239,51.2469193 141.378748,50.7655354 L140.307908,51.2255025 Z M146.204448,39.9296211 C146.17084,40.1530148 145.777759,40.1701483 145.921746,40.5806919 C146.091104,40.3391763 146.48089,40.3032619 146.202142,39.9141351 C146.269687,40.0993081 146.400165,40.1250082 146.561614,40.0479077 C146.587315,40.0353871 146.593575,39.9833278 146.609061,39.9497199 C146.47397,39.9431301 146.339209,39.9365404 146.204448,39.9296211 L146.204448,39.9296211 Z M0.18830313,16.3582867 C0.174135091,12.2617463 0.159967051,8.16520593 0.145140033,4.07163097 C0.509555189,3.55663921 1.05255354,3.79848435 1.50757825,3.79716639 C38.2848435,3.67591433 75.0621087,3.56850082 111.839374,3.4584514 C115.834102,3.44658979 119.829489,3.4584514 123.823229,3.38135091 C124.830478,3.36191104 125.038715,3.68975288 125.038715,4.63209226 C125.036738,16.6166063 125.083855,28.6007908 125.085832,40.5853048 C125.086161,41.5741021 125.159967,41.8884349 126.383031,41.8729489 C127.946458,41.8531796 128.782372,41.1747611 129.704613,40.0937068 C140.427842,27.5233608 151.615321,15.3879407 163.70626,4.10919275 C164.850577,3.04197694 166.045964,2.03011532 167.346458,1.15334432 C168.256507,0.539835255 169.251565,0.224514003 170.398188,0.338517298 C169.308237,3.72566722 167.195222,6.47031301 165.192916,9.26306425 C163.707249,11.3355519 162.062438,13.2940362 160.507578,15.31743 C160.309555,15.5754201 159.772817,15.8456013 160.127348,16.2093575 C160.485502,16.5760791 160.768863,16.0614168 161.022241,15.8505437 C163.901977,13.454827 166.754036,11.0225371 169.890115,8.9599341 C170.708567,8.4215486 171.562603,7.90392092 172.464745,7.53456343 C173.592257,7.07327842 173.855848,7.30919275 173.902965,8.48744646 C173.994893,10.7754201 173.232125,12.9141351 172.714168,15.087117 C172.211367,17.1958484 171.537891,19.2633937 170.948105,21.3516969 C170.697364,22.238682 170.072323,22.7826689 169.340198,23.2795387 C165.016969,26.2159473 160.879242,29.4073806 156.679572,32.5131466 C156.585997,32.5823394 156.520099,32.6881054 156.388303,32.8363756 C157.071664,33.055486 157.506919,32.6607578 157.973476,32.3859638 C161.234102,30.4657002 164.51318,28.6030972 168.176771,27.502603 C170.618287,26.7691598 172.925371,26.6383526 175.318781,27.79486 C178.156013,29.1655354 181.100988,30.3138056 184.004448,31.5460956 C184.310873,31.6762438 184.602471,31.7984843 184.929325,32.2617463 C177.720428,34.9596046 170.792586,38.1757496 163.592586,41.2212191 C164.66145,41.379374 165.378748,40.8970016 166.140857,40.6488962 C169.619934,39.5157825 173.111862,38.4488962 176.748435,37.9276442 C177.898023,37.7628995 179.046293,37.7909061 180.198847,37.8073806 C182.098353,37.8340692 183.314498,39.1223723 184.64168,40.1968369 C185.690445,41.0459308 186.677595,41.9741021 187.755025,42.7836573 C188.398188,43.2666886 188.308567,43.6772323 187.925041,44.2287974 C186.979736,45.5876112 185.543163,46.3082043 184.071993,47.1289621 C184.960626,47.4452718 185.598847,47.0225371 186.271993,46.7925535 C189.95173,45.5368699 193.632784,45.5279736 197.305601,46.8123229 C198.597858,47.2637232 199.583361,48.1467545 199.736573,49.5049094 C199.874959,50.7306096 199.175453,51.7091928 198.21631,52.5540033 C197.14514,53.4976606 195.914168,54.1283031 194.672323,54.7513674 C186.363262,58.9190774 177.638715,61.6225371 168.349753,62.5843163 C158.320428,63.6225371 148.3,63.7734432 138.259143,62.9596046 C137.660791,62.9111697 137.258155,63.0320923 136.875947,63.5078748 C135.503624,65.2156178 133.985667,66.6904119 131.544152,66.5757496 C131.289456,66.563888 131.00346,66.7605931 130.766227,66.9138056 C129.423229,67.779374 127.943493,68.2963427 126.367216,68.377397 C125.341516,68.4301153 125.217957,68.8785502 125.223558,69.7589456 C125.270675,77.0070511 125.233443,84.2558155 125.294728,91.5039209 C125.423558,106.752026 119.389292,119.002109 107.503295,128.468007 C100.962932,133.676903 93.7514003,137.791236 86.3441516,141.587282 C78.8828666,145.411664 71.3859967,149.166853 63.9098847,152.96257 C63.407743,153.217265 62.9925865,153.327974 62.4186161,153.048567 C51.3273476,147.646919 40.1105437,142.483493 29.6835255,135.822537 C21.9016474,130.851532 14.7164745,125.1886 9.14184514,117.715124 C3.5583196,110.229786 0.515156507,101.83374 0.465403624,92.4653707 C0.331630972,67.2607578 0.261779242,42.056145 0.167874794,16.8518616 C0.167215815,16.687117 0.181054366,16.5227018 0.18830313,16.3582867 L0.18830313,16.3582867 Z" id="Fill-3" fill="#282320" mask="url(#mask-2)"></path>
            </g>
            <path d="M84.4644481,78.776771 L84.4644481,78.9191104 C78.5774629,78.9191104 72.6908072,78.9187809 66.8041516,78.9197694 C66.3507743,78.9197694 65.8723558,78.8469522 65.8700494,79.5589786 C65.868402,80.2324547 66.2805931,80.2588138 66.7721911,80.2400329 C67.0598353,80.2291598 67.3484679,80.2367381 67.6364415,80.2485997 C70.6891598,80.3718287 71.8730148,81.5042834 72.0077759,84.515486 C72.2637891,90.2341021 72.1194728,95.9576606 72.1520923,101.678913 C72.1850412,107.44201 72.1758155,113.205437 72.1379242,118.968204 C72.1211203,121.539868 71.0104119,122.714498 68.4641186,123.031466 C67.975486,123.092092 67.4796046,123.097364 66.9866886,123.115815 C66.5366063,123.132619 66.0446787,123.040692 66.0324876,123.746458 C66.0193081,124.528666 66.5590115,124.433773 67.0525865,124.433114 C67.0937727,124.433114 67.1349588,124.432784 67.176145,124.432455 C74.0921252,124.399506 81.0077759,124.367216 87.9237562,124.333937 C88.0885008,124.333278 88.252916,124.328995 88.4176606,124.328666 C88.8202965,124.328666 89.0117298,124.146787 89.0048105,123.725041 C88.9978913,123.300988 88.9115651,123.005766 88.3955848,123.013015 C87.8199671,123.021252 87.2423723,123.00939 86.6680725,122.969522 C84.3652718,122.80939 83.0772982,121.64827 82.928369,119.374135 C82.5810873,114.071664 82.8252389,108.757661 82.7280395,103.449259 C82.7171664,102.86145 82.9422076,102.650577 83.5201318,102.650906 C87.1534102,102.654201 91.4585173,103.979736 92.7352883,108.909885 C93.0130478,109.982043 93.2074465,111.076936 93.4298517,112.163262 C93.5224382,112.615321 93.3487974,113.245305 94.1230972,113.227512 C95.0420428,113.206425 94.7145305,112.480231 94.713542,112.029489 C94.7026689,105.401812 94.6802636,98.7738056 94.6117298,92.1467875 C94.6054695,91.5520593 95.1026689,90.514827 94.1158484,90.4103789 C92.9537397,90.2874794 93.3646129,91.4861614 93.2525865,92.085173 C92.2133773,97.6509061 89.1046458,100.297035 83.6700494,100.188962 C83.0199671,100.176112 82.7076112,100.057825 82.7089292,99.3128501 C82.7188138,93.6733114 82.7000329,88.0334432 82.6660956,82.3939044 C82.6624712,81.7728171 82.8183196,81.5184514 83.4865239,81.53229 C86.5708731,81.5962109 89.6575288,81.4347611 92.7375947,81.7919275 C97.1860297,82.3072488 100.194267,84.9088962 101.204152,89.2169687 C101.326063,89.7365733 101.422273,90.2657331 101.479605,90.7958814 C101.545173,91.3981878 101.56659,91.992257 102.429193,91.8855025 C103.304975,91.77743 102.98603,91.0943987 102.987018,90.6334432 C102.994267,87.1342669 102.929028,83.6347611 102.974827,80.1362438 C102.988336,79.0924217 102.768896,78.7332784 101.630181,78.746458 C95.9089292,78.8123558 90.1863591,78.776771 84.4644481,78.776771 M122.846326,5.04892916 C123.26939,4.96919275 123.468731,5.17742998 123.491796,5.57512356 C123.510577,5.90362438 123.503328,6.23377265 123.503987,6.56326194 C123.526392,17.9263591 123.548468,29.2897858 123.570873,40.6532125 C123.573509,42.1764415 123.017331,42.9827018 121.470708,43.238715 C118.797232,43.6815486 116.876639,45.1866557 115.419638,47.3378913 C113.84402,49.6647446 112.408435,52.0769357 112.463789,55.039374 C112.559671,60.1642504 117.790313,67.9517298 122.85028,68.378089 C123.596573,68.4413509 123.74682,68.8808896 123.745832,69.5566722 C123.735288,77.5850082 123.906293,85.6172982 123.717166,93.6410214 C123.39229,107.423558 117.484876,118.467051 106.788007,127.056837 C100.071697,132.450247 92.6001977,136.612685 84.9814168,140.530972 C78.0268863,144.107578 71.0258979,147.593245 64.0479736,151.124382 C63.5300165,151.386326 63.0888303,151.620593 62.4459967,151.309226 C50.1507743,145.351071 37.7310049,139.623229 26.4588468,131.78402 C22.0604942,128.725371 17.8740033,125.406425 14.2950906,121.383361 C31.2931137,103.193904 48.2921252,85.0060956 65.2881713,66.8153213 C81.8067875,49.1359143 98.3260626,31.4565074 114.836442,13.7691928 C117.529687,10.883855 120.177463,7.95667216 122.846326,5.04892916" id="Fill-6" fill="#D9251D"></path>
            <path d="M140.332982,51.5369357 C140.309918,51.4726853 140.278946,51.4097529 140.266755,51.343196 C140.260824,51.3122241 140.290148,51.2746623 140.305634,51.2397364 C140.664778,51.0861944 141.021614,50.9329819 141.378781,50.7794399 C141.164942,51.2608237 140.774168,51.4377595 140.332982,51.5369357" id="Fill-8" fill="#D9251D"></path>
            <path d="M12.6789127,49.8597364 C12.6789127,47.8010873 12.669028,45.7424382 12.6881384,43.6837891 C12.6914333,43.3229984 12.4565074,42.7908731 13.1059308,42.704547 C13.776112,42.6155848 13.7708402,43.1519934 13.8752883,43.5856013 C14.7962109,47.41229 16.4607908,50.7809885 19.7813839,53.119374 C22.2255354,54.840626 24.8940692,55.5424382 27.8443163,54.7898847 C32.2736409,53.6607249 33.7289951,48.9371664 30.7187809,45.5121252 C29.6397035,44.2844481 28.2644152,43.4659967 26.8578254,42.6828007 C23.7714992,40.9641845 20.5092257,39.5430972 17.683196,37.3809885 C13.8403624,34.440626 11.9019769,30.6600659 12.9253707,25.7566063 C14.0192751,20.5150906 18.901318,16.9430972 24.378089,17.2043822 C26.2930807,17.2953213 28.1177924,17.6778583 29.8426689,18.53486 C30.5771005,18.8999341 31.33229,19.2310708 32.100659,19.5177265 C33.6242175,20.0860956 34.285173,19.7253048 34.7728171,18.164514 C34.8947282,17.7740692 34.8097199,17.103229 35.4614498,17.1879077 C36.1375618,17.2752224 35.8291598,17.9101483 35.8416804,18.3028995 C35.9540362,21.8004283 36.0433278,25.2989456 36.1217463,28.7971334 C36.1306425,29.194168 36.3988468,29.7701153 35.6423394,29.8297529 C34.9810544,29.8818122 34.9866557,29.3809885 34.885832,28.93486 C34.0060956,25.0287644 31.930972,21.9826359 28.3049423,20.1678089 C26.0733114,19.0508402 23.7217463,18.8663262 21.4018122,19.9575947 C18.3705107,21.3829654 17.5958814,24.9450741 19.7250412,27.50257 C20.6611203,28.6267875 21.837397,29.4485338 23.099341,30.1602306 C26.2140033,31.9170675 29.485173,33.3918616 32.4749588,35.3730807 C35.3803954,37.2986161 37.6927512,39.6768699 38.3102142,43.2742339 C39.4143328,49.7101483 35.1514003,55.6393081 28.6317957,56.8053707 C25.7645799,57.318056 22.9810544,57.0534761 20.270346,55.9925206 C19.5042834,55.6930148 18.7474465,55.3661614 17.9682043,55.1061944 C16.1339374,54.4949918 15.1490939,54.8310708 14.0624382,56.4409555 C13.8202636,56.7994399 13.6304778,57.1737397 13.1250412,57.0551236 C12.5217463,56.9134432 12.7527183,56.3984514 12.7490939,56.0353542 C12.7283361,53.9770346 12.7392092,51.9183855 12.7392092,49.8597364 L12.6789127,49.8597364 Z" id="Fill-10" fill="#282320"></path>
            <path d="M63.9444152,44.5399671 C64.6920264,42.7972982 65.3826359,41.2220099 66.0462273,39.6355189 C68.1724217,34.5518287 70.4972982,29.5511697 72.4346952,24.388402 C72.5790115,24.0035585 72.7262932,23.6157496 72.8178913,23.2167381 C73.3852718,20.7445799 72.3671499,19.3676442 69.8353542,19.0213509 C69.2748929,18.9445799 68.2053707,19.3758814 68.2432619,18.4338715 C68.2837891,17.4239868 69.350346,17.9241516 69.9401318,17.9119605 C73.0277759,17.8473806 76.1167381,17.8572652 79.2053707,17.8618781 C79.5701153,17.8625371 80.0943328,17.6292586 80.2211862,18.2450741 C80.3457331,18.850346 79.9131137,18.9534761 79.4468863,19.1198682 C77.8165733,19.7014168 76.7131137,20.8879077 75.8795058,22.3696211 C74.7055354,24.4559473 73.7836244,26.6602306 72.8350247,28.8500165 C68.9276112,37.8734102 65.0429325,46.9070181 61.1440857,55.9340362 C60.9720923,56.3327183 60.9104778,56.8809885 60.3384843,56.9178913 C59.6686326,56.9613839 59.6043822,56.3495222 59.4218451,55.9195387 C54.7780231,44.9748929 50.1424382,34.0269522 45.5035585,23.08 C45.3272817,22.6635255 45.1246458,22.2582537 44.9510049,21.8407908 C44.3454036,20.3814827 43.3935091,19.3330478 41.7394728,19.109654 C41.3374959,19.0552883 41.0007578,18.9432619 41.0781878,18.4292586 C41.148369,17.9620428 41.5190445,18.0091598 41.8399671,18.0078418 C47.2346952,17.9818122 52.6294234,17.9620428 58.0241516,17.9343657 C58.3872488,17.9327183 58.7121252,17.9725865 58.7305766,18.4121252 C58.7519934,18.9172323 58.4024053,18.9828007 57.9875783,18.9972982 C57.1678089,19.0253048 56.3457331,19.0150906 55.5470511,19.2892257 C54.5747282,19.6233278 54.1546293,20.2694563 54.3315651,21.2760461 C54.4020758,21.6776936 54.5052059,22.0832949 54.6610544,22.4592422 C57.6370016,29.6401318 60.6231631,36.8170675 63.609654,43.9933443 C63.656112,44.1043822 63.7351895,44.2015815 63.9444152,44.5399671" id="Fill-12" fill="#282320"></path>
        </g>
    </g>
</svg>