<?xml version="1.0" encoding="UTF-8"?>
<svg width="90px" height="26px" viewBox="0 0 90 26" version="1.1" xmlns="http://www.w3.org/2000/svg" xmlns:xlink="http://www.w3.org/1999/xlink">
    <!-- Generator: Sketch 46.2 (44496) - http://www.bohemiancoding.com/sketch -->
    <title>svgutsmuths</title>
    <desc>Created with Sketch.</desc>
    <defs>
        <polygon id="path-1" points="23.2889338 25.1877133 0 25.1877133 0 0.122897611 23.2889338 0.122897611"></polygon>
    </defs>
    <g id="Symbols" stroke="none" stroke-width="1" fill="none" fill-rule="evenodd">
        <g id="teams/svgutsmuths" transform="translate(-15.000000, -17.000000)">
            <g id="svgutsmuths" transform="translate(15.000000, 17.000000)">
                <path d="M48.3141655,1.66410922 L46.3611962,1.66410922 C45.9457526,1.66410922 45.9457526,1.66410922 45.8563669,2.07248805 C45.7941655,2.35677133 45.7941655,2.35677133 46.0865887,2.37228328 C46.5037218,2.39439932 46.6394898,2.55182253 46.5530222,2.96465529 C46.3137389,4.1054744 46.0629369,5.24398976 45.8152065,6.38296587 C45.5233976,7.72590102 45.231128,9.06883618 44.936401,10.411157 C44.8847969,10.6461399 44.7909573,10.8657645 44.6707014,11.0749454 C44.4297287,11.494843 44.070343,11.7236826 43.5887048,11.7754403 C43.4939437,11.7855768 43.3518788,11.7284437 43.314558,11.8895529 C43.2784659,12.0448259 43.2479027,12.2014812 43.2105819,12.3566007 C43.1930734,12.428785 43.2141143,12.4555085 43.2886024,12.460116 C43.9439437,12.5008157 44.5942167,12.5470444 45.2490973,12.3989898 C46.5785171,12.098273 47.4926468,11.3573857 47.8646263,10.020901 C47.9894898,9.57212969 48.077186,9.11306826 48.1774761,8.65784642 C48.5815546,6.82436519 48.9768788,4.98888737 49.3898652,3.15740273 C49.5612645,2.39793174 49.5907526,2.38871672 50.359285,2.37381911 C50.4644898,2.37166894 50.5157867,2.34494539 50.531913,2.23774403 C50.5528003,2.0982901 50.5772201,1.95791468 50.6185341,1.82368259 C50.6598481,1.68929693 50.6225273,1.66026962 50.4882952,1.66134471 C49.7636877,1.66733447 49.0389266,1.66410922 48.3141655,1.66410922 L48.3141655,1.66410922 Z M83.8067253,10.6283242 C84.4330392,10.6283242 85.0595068,10.6298601 85.6858208,10.6272491 C85.8444727,10.6266348 86.0381416,10.6894505 86.1525614,10.6009863 C86.2679027,10.5119078 86.2402577,10.306413 86.2792679,10.1528294 C86.3354795,9.93212969 86.3304113,9.93090102 86.0971177,9.93028669 C85.6454283,9.92890444 85.5538925,9.84566212 85.5082782,9.39289761 C85.4700358,9.01416041 85.4333294,8.63542321 85.3949334,8.25683959 C85.1789949,6.12555973 84.9596775,3.99474061 84.7515717,1.86269283 C84.7343703,1.68668601 84.6724761,1.66026962 84.5184317,1.66103754 C83.370087,1.66672014 82.2217423,1.66211263 81.0733976,1.6661058 C80.8863328,1.66687372 80.6404454,1.58117406 80.5271007,1.70542321 C80.4112986,1.83212969 80.424814,2.07417747 80.3739778,2.26369966 C80.351401,2.34786348 80.3732099,2.37228328 80.4570666,2.37259044 C80.6040461,2.37335836 80.7516399,2.37735154 80.8981587,2.38979181 C81.1733805,2.41313652 81.2583123,2.53646416 81.1804454,2.80861433 C81.128227,2.99107167 81.0598823,3.16815358 80.9709573,3.33786348 C80.2762986,4.66405802 79.5868618,5.99286348 78.8900529,7.31798294 C78.4933464,8.07269283 78.1192167,8.83953584 77.6904113,9.57735154 C77.5698481,9.78453584 77.3946092,9.89573038 77.1590119,9.92567918 C77.0095751,9.94456997 76.8114522,9.86009898 76.7225273,9.9705256 C76.6334488,10.0811058 76.6441997,10.2723174 76.6113328,10.4282048 C76.6099505,10.4343481 76.609029,10.4404915 76.6073396,10.4463276 C76.5661792,10.5784096 76.5890631,10.6344676 76.7524761,10.6326246 C77.5260768,10.6231024 78.2998311,10.6283242 79.0737389,10.6283242 C79.4177662,10.6283242 79.4177662,10.6283242 79.4936365,10.3002696 C79.5785683,9.93335836 79.5785683,9.93335836 79.19507,9.93028669 C79.1582099,9.92997952 79.1211962,9.93074744 79.0846433,9.92752218 C78.8676297,9.9086314 78.788227,9.7839215 78.883756,9.58718089 C79.1860085,8.96347782 79.4917935,8.34146416 79.8026468,7.72175427 C79.8934147,7.54083276 80.0328686,7.43624232 80.2586365,7.44760751 C80.5831587,7.46388737 80.9093703,7.44868259 81.234814,7.45282935 C81.5230904,7.45651536 81.8115205,7.43716382 82.0997969,7.4683413 C82.2412474,7.48385324 82.3060597,7.54820478 82.3079027,7.69226621 C82.3155819,8.27603754 82.3843874,8.8558157 82.4252406,9.43743686 C82.4467423,9.74429693 82.3217253,9.89004778 82.0131758,9.92813652 C81.8704966,9.94564505 81.6851212,9.86102048 81.5954283,9.97574744 C81.514029,10.0801843 81.5230904,10.255116 81.4922201,10.3990239 C81.4897628,10.4110034 81.4886877,10.4235973 81.4842338,10.4348089 C81.4249505,10.5831706 81.4654966,10.6336997 81.6327491,10.6318567 C82.3573567,10.6237167 83.0819642,10.6283242 83.8067253,10.6283242 L83.8067253,10.6283242 Z M58.00007,7.26914334 C58.4638925,7.26914334 58.898227,7.26730034 59.3324078,7.2705256 C59.4222543,7.27129352 59.4426809,7.22491126 59.4600358,7.15042321 C59.642186,6.36131058 59.8260256,5.57250512 60.0140119,4.78477474 C60.0384317,4.68218089 60.0270666,4.64593515 59.9109573,4.64808532 C59.5547969,4.654843 59.1984829,4.65422867 58.8423225,4.64885324 C58.7435683,4.64731741 58.7025614,4.68079863 58.6816741,4.77617406 C58.6388242,4.97368259 58.5912133,5.16996246 58.5181075,5.36025256 C58.4569812,5.51997952 58.3424078,5.59477474 58.1848311,5.60291468 C57.9704283,5.6139727 57.7552577,5.60967235 57.5405478,5.61305119 C57.4385683,5.61474061 57.3964863,5.55346075 57.3908038,5.46422867 C57.3863498,5.39726621 57.386657,5.32769283 57.4003259,5.2624198 C57.5700358,4.45165188 57.7405137,3.64119113 57.9151382,2.83165188 C57.9707355,2.57378498 58.1389096,2.43617406 58.4003089,2.40023549 C58.8177491,2.34279522 59.2351894,2.36015017 59.6484829,2.41958703 C60.0407355,2.47595222 60.1626809,2.66916041 60.1015546,3.06878498 C60.0579369,3.35398976 60.0204625,3.64011604 59.9688584,3.92378498 C59.947971,4.03927986 59.9714693,4.07061092 60.0911109,4.06846075 C60.4964181,4.06124232 60.9020324,4.05909215 61.3070324,4.069843 C61.4435683,4.07352901 61.4821177,4.02161775 61.5079198,3.90044027 C61.6522884,3.22221502 61.8001894,2.5446041 61.9580734,1.8696041 C61.99693,1.70296587 61.9708208,1.65950171 61.7909744,1.65996246 C59.4938242,1.66625939 57.1968276,1.66410922 54.8998311,1.66410922 C54.3069983,1.66410922 54.3091485,1.66441638 54.2205307,2.2577099 C54.2067082,2.34986007 54.2252918,2.37719795 54.3185171,2.37274403 C54.4842338,2.36491126 54.6505648,2.36567918 54.8116741,2.41559386 C54.9724761,2.46535495 55.061401,2.56641297 55.0422031,2.74272696 C55.0342167,2.81598635 55.028227,2.8895529 55.0148652,2.96189078 C54.8497628,3.85513311 54.6390461,4.73854608 54.4366229,5.62349488 C54.1343703,6.94492833 53.8907867,8.28003072 53.5274078,9.58733447 C53.4598311,9.83015017 53.3818106,9.89818771 53.128244,9.91907509 C52.9815717,9.93105461 52.8336706,9.93105461 52.686384,9.92859727 C52.6054454,9.92721502 52.5633635,9.95163481 52.54693,10.0351843 C52.5091485,10.2268567 52.4636877,10.4169932 52.4194556,10.615884 C52.466913,10.6207986 52.502698,10.6277099 52.5384829,10.6277099 C55.0627833,10.6283242 57.5870836,10.626942 60.111384,10.6318567 C60.2469983,10.6321638 60.272186,10.5678123 60.2952235,10.4636826 C60.4700017,9.67288055 60.645087,8.8820785 60.8273908,8.09296587 C60.8565717,7.96656655 60.8459744,7.92340956 60.7020666,7.92755631 C60.3522031,7.93769283 60.0015717,7.94122526 59.6520154,7.92663481 C59.4726297,7.91910922 59.4038242,7.96641297 59.3732611,8.15378498 C59.3052235,8.56999659 59.2436365,8.98958703 59.0542679,9.37815358 C58.9020666,9.69023549 58.6647799,9.85042321 58.3253601,9.89035495 C57.8044044,9.9517884 57.2839096,9.94625939 56.7635683,9.89434812 C56.4800529,9.86608874 56.4047969,9.76810239 56.4659232,9.49303413 C56.6694215,8.57660068 56.8813669,7.66216382 57.0862474,6.74603754 C57.1206502,6.59245392 57.2132611,6.51504778 57.3593191,6.48632765 C57.5546775,6.44808532 57.7509573,6.45545734 57.9463157,6.4801843 C58.1938925,6.51151536 58.2960256,6.68613993 58.1969642,6.91544027 C58.1490461,7.0267884 58.0793191,7.12861433 58.00007,7.26914334 L58.00007,7.26914334 Z M67.367442,5.13970648 C67.3797287,5.13939932 67.3921689,5.13909215 67.4046092,5.13878498 C67.4227321,5.19038908 67.4414693,5.24199317 67.4591314,5.29390444 C68.0445922,7.01311945 68.6315887,8.73187372 69.2122884,10.4527782 C69.2562133,10.5831706 69.3078174,10.6338532 69.4529539,10.6323174 C70.2207184,10.6237167 70.9887901,10.623256 71.7565546,10.6327782 C71.9073737,10.6344676 71.9526809,10.578256 71.9812474,10.4458669 C72.251401,9.19830717 72.5252406,7.95136177 72.8009232,6.70487713 C73.0684659,5.49463823 73.327715,4.28209556 73.6138413,3.076157 C73.7706502,2.41528669 73.841913,2.37904096 74.5201382,2.37381911 C74.6377833,2.37289761 74.7007526,2.34801706 74.7161109,2.22084983 C74.7322372,2.08738567 74.7592679,1.95330717 74.7990461,1.82491126 C74.8400529,1.69282935 74.8067253,1.66042321 74.6698823,1.66149829 C73.9082611,1.66748805 73.1464863,1.66195904 72.3847116,1.66564505 C72.1959573,1.66656655 71.9473055,1.58378498 71.8341143,1.70066212 C71.71693,1.82153242 71.7336706,2.06849488 71.6811451,2.25724915 C71.6545751,2.35201024 71.6797628,2.37381911 71.7711451,2.37289761 C71.8996945,2.37166894 72.0293191,2.37658362 72.1571007,2.39086689 C72.4310939,2.42158362 72.5481246,2.57486007 72.4982099,2.8436314 C72.4737901,2.97586689 72.4224932,3.10272696 72.3934659,3.23434812 C72.0993532,4.56468942 71.8073908,5.89549147 71.514814,7.22613993 C71.4966911,7.30846075 71.4791826,7.39108874 71.4613669,7.47371672 C71.4168276,7.44084983 71.4048481,7.41366553 71.3954795,7.38555973 C70.7746945,5.53579863 70.1523737,3.68649829 69.5371177,1.8348942 C69.4919642,1.69943345 69.4325273,1.65965529 69.2926126,1.66073038 C68.3956843,1.66748805 67.4989096,1.66257338 66.6019812,1.66533788 C66.4126126,1.66595222 66.1641143,1.5854744 66.0498481,1.69682253 C65.9309744,1.81293174 65.9398823,2.06004778 65.8928857,2.24987713 C65.8913498,2.25586689 65.8899676,2.26185666 65.8878174,2.26753925 C65.8532611,2.35416041 65.8945751,2.37289761 65.9730563,2.37259044 C66.1140461,2.37197611 66.2548823,2.36398976 66.3954113,2.39347782 C66.680616,2.45322184 66.7478857,2.56180546 66.7059573,2.84562799 C66.6188754,3.43554266 66.471128,4.01224915 66.3435,4.59325597 C65.9922543,6.19375085 65.6368618,7.79317065 65.2810085,9.39259044 C65.2008379,9.75274403 65.0463328,9.8917372 64.7422372,9.9264471 C64.5760597,9.94549147 64.3605819,9.84627645 64.2558379,9.98004778 C64.1603089,10.1019932 64.1791997,10.3088703 64.1285171,10.4724369 C64.0835171,10.6172662 64.1395751,10.6313959 64.2639778,10.6307816 C65.1240461,10.6263276 65.9841143,10.6283242 66.8441826,10.6283242 C67.151657,10.6281706 67.151657,10.6281706 67.2216911,10.3351331 C67.3158379,9.94165188 67.3158379,9.94165188 66.9197457,9.92997952 C66.907459,9.92951877 66.8951724,9.92905802 66.8828857,9.92844369 C66.4708208,9.9086314 66.3594727,9.7633413 66.4468618,9.3611058 C66.6491314,8.43161775 66.8506331,7.50197611 67.0532099,6.57248805 C67.157186,6.09468942 67.2625444,5.61735154 67.367442,5.13970648 L67.367442,5.13970648 Z M89.9385512,0.817095563 C89.8213669,1.07020137 89.8133805,1.34849488 89.7650017,1.61603754 C89.0588242,5.52366553 88.3578686,9.43221502 87.6616741,13.341686 C87.6354113,13.4889727 87.5861109,13.5239898 87.4428174,13.5238362 C71.2064181,13.5204573 54.9701724,13.5206109 38.7340802,13.5238362 C38.5804966,13.5239898 38.5376468,13.4992628 38.567442,13.3344676 C39.122186,10.2663276 39.6706331,7.19711263 40.2207696,4.12805119 C40.4274932,2.97417747 40.6366741,1.82076451 40.8403259,0.666276451 C40.8576809,0.568136519 40.8911621,0.522215017 40.9926809,0.533733788 C41.03507,0.538648464 41.0785341,0.53465529 41.1215375,0.53465529 C57.3086365,0.53465529 73.4957355,0.53465529 89.6828345,0.534348123 C89.7680734,0.534348123 89.8533123,0.526361775 89.9385512,0.522215017 L89.9385512,0.817095563 Z" id="Fill-1" fill="#3466A4"></path>
                <g id="Group-5" transform="translate(0.000000, 0.030717)">
                    <mask id="mask-2" fill="white">
                        <use xlink:href="#path-1"></use>
                    </mask>
                    <g id="Clip-4"></g>
                    <path d="M16.2921195,0.122897611 C16.5826997,0.200918089 16.88357,0.192163823 17.1792184,0.226259386 C19.1974608,0.458938567 21.177,0.871003413 23.1103106,1.49808532 C23.1880239,1.52327304 23.3368464,1.51006485 23.2737235,1.6727099 C23.2265734,1.79434812 23.299372,1.9801843 23.0388942,1.97526962 C22.1607031,1.95883618 21.2820512,1.9689727 20.4035529,1.96943345 C20.0825631,1.96974061 19.9663003,2.06219795 19.8892014,2.37827304 C19.8442014,2.56303413 19.7981263,2.74779522 19.7595768,2.93393857 C19.6907713,3.26583276 19.8388259,3.45059386 20.1793208,3.46687372 C20.2085017,3.46825597 20.237529,3.47486007 20.2906689,3.48253925 C20.1350887,3.81028669 19.9858055,4.12497952 19.8366758,4.43967235 C19.4003447,5.36025256 18.9641672,6.28067918 18.5276826,7.2011058 C18.4710102,7.32059386 18.1965563,7.40782935 18.0898157,7.33840956 C18.0332969,7.30170307 18.0515734,7.23719795 18.0531092,7.18559386 C18.0644744,6.80409215 18.1375802,6.42950171 18.1947133,6.05383618 C18.3203447,5.22786348 18.3834676,4.40573038 18.1194573,3.59327304 C18.0872048,3.49390444 18.1102423,3.46764164 18.2140648,3.46364846 C18.5958737,3.4492116 18.6451741,3.40436519 18.734099,3.03315358 C18.7784846,2.84808532 18.8257884,2.66378498 18.8663345,2.47794881 C18.9300717,2.1855256 18.7711126,1.97250512 18.4705495,1.9717372 C16.9347133,1.96759044 15.3988771,1.96927986 13.863041,1.96974061 C13.6956348,1.96974061 13.5684676,2.04131058 13.4896792,2.19274403 C13.3896962,2.38487713 13.2361126,2.41620819 13.039372,2.32267577 C12.7845768,2.20134471 12.5110444,2.12317065 12.2368976,2.05820478 C10.7984334,1.71724915 9.34814334,1.638 7.88756314,1.89064505 C7.07080546,2.0317884 6.42421843,2.43694198 5.92921843,3.11716382 C5.31903072,3.95588396 5.00756314,4.88306826 4.97316041,5.91146416 C4.93906485,6.93125939 5.41471331,7.63712969 6.32761433,8.05165188 C6.97005461,8.34315358 7.62232423,8.61361433 8.27551536,8.88038908 C8.54336519,8.98974061 8.64534471,9.17020137 8.63551536,9.45125939 C8.6153959,10.0265836 8.46949147,10.5346382 7.93333106,10.8434949 C7.5691843,11.0532901 7.18261433,11.0436143 6.79327986,10.9221297 C6.66488396,10.8820444 6.60145392,10.7789898 6.56259727,10.6552014 C6.44080546,10.2678635 6.48718771,9.87730034 6.53587372,9.48658362 C6.5586041,9.3039727 6.58701706,9.12197611 6.61281911,8.93967235 C6.64706826,8.69793174 6.50961092,8.49612287 6.27109556,8.49028669 C5.74937201,8.47769283 5.22703413,8.48061092 4.70500341,8.48890444 C4.51348464,8.49197611 4.39522526,8.61315358 4.35513993,8.80927986 C4.19356997,9.60315358 4.03215358,10.3970273 3.87442321,11.1916689 C3.80853584,11.5240239 3.89193174,11.6581024 4.21722184,11.7746724 C4.92186348,12.0273174 5.62205119,12.2957816 6.36631741,12.414041 C6.99416724,12.5138703 7.62508874,12.5319932 8.25570307,12.4415324 C8.39991809,12.4209522 8.44722184,12.4297065 8.40805802,12.5998771 C8.01119795,14.3289215 7.64858703,16.0650307 7.3544744,17.8146553 C7.1998157,18.7353891 7.05621502,19.6587338 7.08155631,20.5966689 C7.09599317,21.1331365 7.18691468,21.659314 7.36752901,22.1662935 C7.53708532,22.6420956 7.86437201,22.9626246 8.3453959,23.1192799 C9.45104437,23.4792799 10.4994061,23.3920444 11.4672901,22.7073686 C11.8887235,22.4092628 12.1238601,21.9678635 12.3545427,21.5267713 C12.7257543,20.8169078 12.8876314,20.0396212 13.0645597,19.2680171 C13.3362491,18.0837338 13.6091672,16.8996041 13.8768635,15.7145529 C13.9462833,15.4073857 13.9674778,15.0960717 13.9131092,14.781686 C13.8724096,14.545628 13.7338771,14.4141604 13.5053447,14.3663959 C13.2342696,14.3097235 12.9616587,14.2705597 12.6833652,14.2740922 C12.376198,14.2779317 12.0690307,14.273785 11.7618635,14.275628 C11.6852253,14.2760887 11.6283993,14.273785 11.651744,14.1678123 C11.7755324,13.604314 11.8968635,13.0403549 12.0160444,12.4759352 C12.0287918,12.4154232 12.054901,12.3914642 12.1140307,12.3953038 C12.1508908,12.3977611 12.1877509,12.3957645 12.2246109,12.3957645 C15.3024266,12.3957645 18.3802423,12.3969932 21.4579044,12.3923857 C21.6257713,12.3920785 21.6706177,12.4172662 21.6309932,12.5974198 C20.8927167,15.9539898 20.1605836,19.311942 19.4307543,22.6703549 C19.4061809,22.7830853 19.3597986,22.849587 19.2542867,22.9011911 C17.3799522,23.8203891 15.4200717,24.47957 13.3626655,24.8384949 C12.4428532,24.9991433 11.5144403,25.0954403 10.5821877,25.152727 C10.5313515,25.1557986 10.4699181,25.1272321 10.4313686,25.187744 L8.25662457,25.187744 C8.23358703,25.1346041 8.18397952,25.1516519 8.14466212,25.1487338 C7.64275085,25.1111058 7.14022526,25.0785461 6.63846758,25.038 C5.38476451,24.936942 4.17314334,24.6598771 3.04645392,24.0914642 C1.46638567,23.2942116 0.498962457,22.0180853 0.143416382,20.2789044 C0.0862832765,19.9995358 0.0847474403,19.7115666 -3.07167235e-05,19.4375734 L-3.07167235e-05,17.1522491 C0.0643208191,17.1072491 0.0319146758,17.0396724 0.035447099,16.9833072 C0.0601740614,16.5913618 0.0721535836,16.1984949 0.123911263,15.8088532 C0.42140273,13.5711399 0.932221843,11.3821126 1.62457679,9.23439932 C2.17348464,7.531157 2.83097611,5.87583276 3.76153925,4.33907509 C4.20816041,3.60125939 4.69978157,2.90521843 5.37002048,2.34279522 C6.43420137,1.4495529 7.68099317,0.969757679 9.01455973,0.677180887 C10.3553447,0.383221843 11.7193208,0.276481229 13.0856007,0.189706485 C13.3188942,0.174962457 13.5578703,0.201071672 13.7856348,0.122897611 L16.2921195,0.122897611 Z" id="Fill-3" fill="#3466A4" mask="url(#mask-2)"></path>
                </g>
                <path d="M22.8163515,25.2184147 C22.5971877,25.1476126 22.3643549,25.1451553 22.143041,25.0778857 C21.7550887,24.9602406 21.4539113,24.7452235 21.3373413,24.3462133 C21.2525631,24.056401 21.2458055,23.75507 21.3132287,23.4538925 C21.5866075,22.232442 21.8563003,21.0102235 22.1258396,19.7880051 C22.1548669,19.6562304 22.1777509,19.5230734 22.1987918,19.3897628 C22.235959,19.1552406 22.1573242,19.0400529 21.9251058,19.0033464 C21.8105324,18.9852235 21.6924266,18.9786195 21.576471,18.9829198 C21.4603618,18.9872201 21.4420853,18.9466741 21.4703447,18.842698 C21.5041331,18.718756 21.5307031,18.5912816 21.5440648,18.4636536 C21.5574266,18.3375614 21.6165563,18.3096092 21.736198,18.31007 C22.8787065,18.3143703 24.0210614,18.3159061 25.1634164,18.3086877 C25.3286724,18.3076126 25.3541672,18.3492338 25.3197645,18.5038925 C24.9917099,19.9772201 24.6701058,21.45193 24.3475802,22.9264863 C24.2925973,23.1780563 24.2242526,23.4276297 24.2088942,23.6864181 C24.1893891,24.0146263 24.3422048,24.1490119 24.6702594,24.1003259 C24.7988089,24.081128 24.9222901,24.0487218 25.0388601,23.9923567 C25.2369829,23.8963669 25.3813515,23.7756502 25.431727,23.5302235 C25.7129386,22.1599505 26.0128874,20.7935171 26.3045427,19.4253942 C26.3676655,19.1294386 26.2798157,19.0253089 25.9726485,18.9901382 C25.8557713,18.9767765 25.6909761,19.0395922 25.6346109,18.9379198 C25.5913003,18.8600529 25.6653276,18.7170666 25.6868294,18.6031075 C25.6903618,18.5849846 25.6951229,18.5668618 25.6955836,18.5485853 C25.7012662,18.3595239 25.7877338,18.3048481 25.9833993,18.3069983 C27.0703106,18.3189778 28.157529,18.3151382 29.2445939,18.3097628 C29.3980239,18.3089949 29.4265904,18.3438584 29.3921877,18.4968276 C29.0094573,20.2031416 28.6344061,21.9109915 28.2579727,23.6186877 C28.2355495,23.7205137 28.2163515,23.8232611 28.2011468,23.9263157 C28.1661297,24.1640631 28.2559761,24.290616 28.4941843,24.3230222 C28.6274949,24.3411451 28.7637235,24.3465205 28.8982628,24.3446775 C29.0053106,24.3429881 29.0278874,24.3862986 28.9988601,24.4779881 C28.9951741,24.4896604 28.9925631,24.5016399 28.9888771,24.5134659 C28.9408055,24.6702747 28.9745939,24.8905137 28.8503447,24.9729881 C28.7383823,25.0473225 28.5421024,24.997715 28.3829898,24.997715 C27.3819317,24.9986365 26.3807201,24.9981758 25.3795085,24.9981758 C25.159884,24.9981758 25.1603447,24.9983294 25.2096451,24.7868447 C25.2231604,24.7283294 25.2331433,24.6688925 25.2481945,24.5925614 C25.0459249,24.6931587 24.8656177,24.7977491 24.6744061,24.8750017 C24.227785,25.0553089 23.7642696,25.1685 23.2801741,25.1835512 C23.2457713,25.1846263 23.2044573,25.1737218 23.1849522,25.2184147 L22.8163515,25.2184147 Z" id="Fill-6" fill="#3466A4"></path>
                <path d="M58.4232235,25.2184147 C58.1968413,25.1494556 57.9580188,25.1468447 57.7304078,25.0775785 C57.3499812,24.96193 57.0514147,24.7544386 56.9303908,24.3635683 C56.8426945,24.0808208 56.825186,23.7880904 56.8910734,23.4910597 C57.1768925,22.2032611 57.4574898,20.9143874 57.7383942,19.6253601 C57.8543498,19.0930392 57.7737184,18.9849164 57.2315683,18.9849164 C57.0603225,18.98507 57.0165512,18.9555819 57.0613976,18.7772713 C57.1775068,18.3149846 57.1689061,18.3128345 57.6503908,18.3128345 C58.6821655,18.3128345 59.7139403,18.3151382 60.7458686,18.3102235 C60.8963805,18.3094556 60.9462952,18.326657 60.9066706,18.5014352 C60.5440597,20.1053089 60.1915853,21.7113328 59.8388038,23.3173567 C59.80993,23.4488242 59.7887355,23.5838242 59.7832065,23.7179027 C59.7718413,23.9898993 59.9240427,24.1319642 60.1926604,24.1089266 C60.4634283,24.0857355 60.7008686,23.9826809 60.9100495,23.8077491 C60.9653396,23.7616741 60.9728652,23.7051553 60.9853055,23.6472543 C61.2860222,22.2496433 61.5873532,20.8520324 61.8846911,19.4538072 C61.9562611,19.1171519 61.8696399,19.0156331 61.5134795,18.9893703 C61.1989403,18.9661792 61.1989403,18.9661792 61.2655956,18.6519471 C61.3376263,18.3126809 61.3376263,18.3128345 61.6933259,18.3128345 C62.737541,18.3128345 63.7816024,18.3157526 64.8256638,18.3094556 C64.9778652,18.3083805 65.0113464,18.3438584 64.9778652,18.4929881 C64.6035819,20.1632099 64.2339061,21.8346604 63.8653055,23.5064181 C63.8336672,23.6498652 63.8141621,23.7962304 63.7943498,23.9419812 C63.7639403,24.163756 63.8453396,24.2838584 64.0645034,24.3196433 C64.1970461,24.3412986 64.3334283,24.3449846 64.4681212,24.3448311 C64.5667218,24.3445239 64.5926775,24.3737048 64.5793157,24.474302 C64.5097423,24.9983294 64.5123532,24.9984829 63.9933942,24.9983294 C62.9798959,24.9981758 61.9665512,24.9983294 60.9530529,24.9983294 C60.7329676,24.9983294 60.7335819,24.9984829 60.7867218,24.7859232 C60.8011587,24.7281758 60.8360222,24.6721177 60.8096058,24.6031587 C60.6139403,24.698227 60.4259539,24.8026638 60.2281382,24.8834488 C59.7875068,25.0631416 59.3290597,25.1704966 58.8511075,25.1841655 C58.8165512,25.1852406 58.7755444,25.1754113 58.7549642,25.2184147 L58.4232235,25.2184147 Z" id="Fill-8" fill="#3466A4"></path>
                <path d="M68.3385973,25.2184147 C68.2736314,25.153756 68.1891604,25.1820154 68.1139044,25.1755648 C67.6984608,25.1402406 67.3051331,25.0493191 66.9703208,24.7779369 C66.7609863,24.608227 66.6407304,24.3895239 66.582215,24.1336536 C66.4954403,23.7544556 66.5350648,23.3787901 66.618,23.0032782 C66.9024369,21.7154795 67.1804232,20.4262986 67.4691604,19.1394215 C67.5023345,18.9919812 67.4585631,18.9741655 67.3332389,18.978773 C67.136959,18.9861451 66.9399113,18.9738584 66.7439386,18.9830734 C66.6258328,18.9886024 66.6058669,18.9449846 66.6411911,18.8469983 C66.6431877,18.8413157 66.6439556,18.8350188 66.6441092,18.8288754 C66.6511741,18.4349334 66.8492969,18.2604625 67.2366348,18.1461962 C68.1619761,17.8732782 68.9587679,17.3788925 69.5150478,16.5566058 C69.6052014,16.4232952 69.6738532,16.2803089 69.7435802,16.1373225 C69.7881195,16.0460939 69.837727,15.9984829 69.9518396,16.0023225 C70.2583925,16.012459 70.5658669,16.0104625 70.872727,16.0033976 C71.0031195,16.0003259 71.0424369,16.0295068 71.0134096,16.1695751 C70.8796382,16.8120154 70.7607645,17.4576809 70.6273003,18.1004283 C70.5944334,18.258773 70.606413,18.3269642 70.7968567,18.3172884 C71.1215324,18.3007014 71.4475904,18.3152918 71.7728805,18.3109915 C71.8736314,18.3096092 71.9123345,18.3374078 71.8696382,18.4370836 C71.8671809,18.4426126 71.8651843,18.4484488 71.8634949,18.454285 C71.7077611,18.9804625 71.7077611,18.9804625 71.1597747,18.980616 C70.957198,18.980616 70.7538532,18.9909061 70.552198,18.9770836 C70.410901,18.9675614 70.3652867,19.0220836 70.3377952,19.1526297 C70.0668737,20.4372031 69.7888874,21.720087 69.5155085,23.0041997 C69.4545358,23.2900188 69.3573174,23.5718447 69.4434778,23.8733294 C69.4953891,24.0551724 69.6133413,24.1442509 69.7852014,24.1894044 C70.0191092,24.2508379 70.2484096,24.2313328 70.4735631,24.1553089 C70.632215,24.1017082 70.6567884,24.1565375 70.6050307,24.2959915 C70.5815324,24.3589608 70.5560375,24.4254625 70.5537338,24.4911962 C70.5419078,24.82693 70.3201331,24.9312133 70.0378464,25.0000188 C69.6849113,25.0860256 69.3296724,25.1471519 68.9682901,25.1789437 C68.9177611,25.1833976 68.8555597,25.159285 68.8177782,25.2184147 L68.3385973,25.2184147 Z" id="Fill-10" fill="#3466A4"></path>
                <path d="M50.1738174,24.998099 C50.2249608,24.7691058 50.2767184,24.5608464 50.3161894,24.3502833 C50.3350802,24.2495324 50.3826911,24.223884 50.4788345,24.2266485 C50.6439369,24.2314096 50.8093464,24.234942 50.9727594,24.1910171 C51.1272645,24.1493959 51.2250973,24.0636962 51.2846877,23.910727 C51.4731348,23.4270922 51.5543805,22.9165802 51.6689539,22.4149761 C51.9890222,21.015215 52.2991075,19.6133038 52.6130324,18.2121604 C52.6248584,18.1594812 52.634227,18.1061877 52.613186,18.0410683 C52.5525205,18.1634744 52.4909334,18.2854198 52.4311894,18.4084403 C51.3883567,20.5553857 50.3449096,22.7020239 49.3054556,24.8506587 C49.2533908,24.9583208 49.198715,25.0034744 49.0727765,25.0019386 C48.4585956,24.9941058 47.8442611,24.9947201 47.2300802,25.0011706 C47.1016843,25.0025529 47.048698,24.9773652 47.0396365,24.8357611 C46.9421109,23.3286451 46.8379812,21.8218362 46.7344659,20.3150273 C46.6857799,19.6045495 46.6346365,18.8942253 46.583186,18.1648567 C46.5120768,18.2547031 46.5163771,18.3525358 46.4976399,18.4400785 C46.1417867,20.1020068 45.78793,21.7643959 45.4359164,23.4272457 C45.413186,23.5349078 45.4084249,23.6464096 45.3976741,23.7562218 C45.3698754,24.0408123 45.4634078,24.1644471 45.7509164,24.2043788 C45.8839198,24.2229625 46.0199949,24.2258805 46.1546877,24.2271092 C46.2449949,24.2278771 46.2764795,24.2581331 46.2557457,24.3485939 C46.2145853,24.5281331 46.176343,24.7082867 46.1416331,24.8890546 C46.1264283,24.9679966 46.0921792,25.0002491 46.0069403,24.999942 C45.0608652,24.9971775 44.1149437,24.9974846 43.1691758,24.9996348 C43.0810188,24.999942 43.0496877,24.9833549 43.0734932,24.8858294 C43.1169573,24.707058 43.1492099,24.5253686 43.1793123,24.3438328 C43.1940563,24.2541399 43.2342952,24.2241911 43.3259846,24.2266485 C44.0872986,24.2466143 44.166087,24.0358976 44.2998584,23.4051297 C44.7799608,21.1422287 45.2605239,18.8793276 45.7407799,16.6164266 C45.7432372,16.6044471 45.7433908,16.5916997 45.7472304,16.5801809 C45.930302,16.0391058 45.6693635,15.9123993 45.2161382,15.8996519 C44.9171109,15.8913584 44.9169573,15.8936621 44.9877594,15.598628 C45.0971109,15.1432526 45.0971109,15.143099 45.5644659,15.143099 C46.7745512,15.1432526 47.9846365,15.1463242 49.1947218,15.1397201 C49.3567526,15.1387986 49.4149608,15.1753515 49.4260188,15.3475188 C49.528459,16.9404881 49.6428788,18.5325358 49.748698,20.1253515 C49.7766502,20.5457099 49.7869403,20.9671433 49.8356263,21.3994812 C50.0193123,21.0505392 50.2122133,20.7062048 50.3848413,20.3518874 C51.2012918,18.6747543 52.0137491,16.9956246 52.8228276,15.314959 C52.8839539,15.1879454 52.9512235,15.1384915 53.0983567,15.1392594 C54.4313089,15.1461706 55.7642611,15.1460171 57.0970597,15.1395666 C57.2624693,15.1387986 57.298715,15.180727 57.2503362,15.3350785 C57.2082543,15.469157 57.1836809,15.6098396 57.1640222,15.7491399 C57.1468208,15.8713925 57.0901485,15.911785 56.9686638,15.9021092 C56.8656092,15.8939693 56.7604044,15.9097884 56.6564283,15.9176212 C56.2032031,15.9523311 56.0459334,16.0830307 55.9499437,16.5238157 C55.6301826,17.9926894 55.3122645,19.4620239 54.9958823,20.9316655 C54.8049778,21.8195324 54.6183737,22.7081672 54.4299266,23.5964949 C54.426087,23.6146177 54.4228618,23.6327406 54.4202509,23.6510171 C54.3621962,24.0703003 54.4717014,24.2043788 54.8914454,24.2237304 C54.9957287,24.2286451 55.1009334,24.234942 55.2044488,24.226802 C55.3329983,24.2168191 55.3482031,24.2745666 55.322401,24.3803857 C55.2817014,24.5471775 55.245302,24.715198 55.2110529,24.8835256 C55.1960017,24.9580137 55.1711212,25.0000956 55.0809676,25.0000956 C53.4537491,24.9974846 51.8265307,24.998099 50.1738174,24.998099" id="Fill-12" fill="#3466A4"></path>
                <path d="M76.9971809,18.6139505 C77.4223003,18.3642235 77.8357474,18.1754693 78.284058,18.089616 C78.960901,17.9599915 79.6360546,17.9063908 80.2757304,18.2564078 C80.802215,18.5445307 80.9866689,19.083302 80.8743993,19.6061007 C80.6283584,20.7515273 80.3872321,21.8984898 80.1344334,23.0425341 C80.0694676,23.336186 80.00957,23.630913 79.952744,23.9259471 C79.9089727,24.1530973 79.9928294,24.2807253 80.2210546,24.3198891 C80.3532901,24.3426195 80.4899795,24.3429266 80.6248259,24.3455375 C80.7060717,24.3470734 80.740628,24.3724147 80.7137509,24.4550427 C80.7099113,24.466715 80.7065324,24.478541 80.7033072,24.4903669 C80.6583072,24.6548549 80.6854915,24.8818515 80.562471,24.9693942 C80.4508157,25.0486433 80.2440922,24.9973464 80.0791433,24.9976536 C79.0533584,24.9987287 78.0275734,24.9953498 77.001942,25.0014932 C76.8612594,25.0024147 76.8282389,24.978302 76.8600307,24.8330119 C77.2135802,23.2208447 77.5608328,21.6071416 77.9082389,19.9935922 C77.9497065,19.8009983 77.9716689,19.6044113 77.9434096,19.4084386 C77.9106962,19.1819027 77.7563447,19.0730119 77.5241263,19.1031143 C77.2596553,19.1372099 77.0397235,19.2666809 76.8346894,19.4291724 C76.7790922,19.4732509 76.7726416,19.5329949 76.7603549,19.5915102 C76.4617884,21.0147696 76.1621468,22.4377218 75.867727,23.8619027 C75.7992287,24.1922611 75.8933754,24.3016126 76.2450819,24.3363225 C76.5772833,24.3690358 76.5772833,24.3690358 76.5190751,24.6973976 C76.4659352,24.9982679 76.4659352,24.9982679 76.1596894,24.9982679 C74.777744,24.9982679 73.3956451,24.9961177 72.0136997,25.0013396 C71.8651843,25.0018003 71.8192628,24.9707765 71.8636485,24.8198038 C71.9064983,24.6737457 71.8822321,24.4843771 71.9680853,24.3813225 C72.0528635,24.2796502 72.2456109,24.3510666 72.3902867,24.3406229 C72.6417031,24.3226536 72.8091092,24.2268174 72.8964983,23.9715614 C73.0766519,23.4461519 73.1591263,22.8995478 73.2746212,22.3604693 C73.6842287,20.4463567 74.0853891,18.5305546 74.4906962,16.6155205 C74.5186485,16.4835922 74.5599625,16.3544283 74.5865324,16.2223464 C74.6296894,16.006715 74.5459863,15.8763225 74.3269761,15.8391553 C74.1885973,15.8155034 74.0459181,15.8153498 73.9049283,15.8125853 C73.8262935,15.8110495 73.7889727,15.7958447 73.816157,15.7070734 C73.8356621,15.643029 73.840884,15.5745307 73.8536314,15.5083362 C73.9233584,15.1434215 73.9235119,15.1432679 74.3034778,15.1432679 C75.3784096,15.1431143 76.4533413,15.1474147 77.5281195,15.1391212 C77.7015154,15.1377389 77.7306962,15.1781314 77.6944505,15.3430802 C77.4639215,16.3919027 77.2429147,17.4427218 77.0189898,18.492773 C77.0139215,18.5161177 77.0103891,18.539616 76.9971809,18.6139505" id="Fill-14" fill="#3466A4"></path>
                <path d="M10.8103669,5.15145563 C10.8774829,4.85672867 10.9456741,4.57766724 11.0040358,4.29660922 C11.0564078,4.04519283 11.0359812,3.79131911 10.9621075,3.54942491 C10.8436945,3.16224061 10.4938311,2.93186519 10.0191041,2.91451024 C8.87229522,2.87258191 8.2687116,3.78363993 8.38359215,4.79867406 C8.42705631,5.18370819 8.7515785,5.35188225 9.06197099,5.48841809 C9.42074232,5.64630205 9.79579352,5.76701877 10.1628584,5.90601195 C10.5139505,6.03870819 10.8436945,6.21133618 11.1651451,6.40700171 C11.9158618,6.8636058 12.2104352,7.53031229 12.1216638,8.38638737 C12.0207594,9.35872526 11.6607594,10.2209437 10.9713225,10.9188276 C10.3603669,11.5374625 9.57908703,11.8447833 8.7422099,12.0187935 C7.33569113,12.3115239 5.98338737,12.0977355 4.66717577,11.5671041 C4.52557167,11.5101246 4.3312884,11.4900051 4.25726109,11.3851075 C4.17893345,11.2745273 4.28767065,11.093913 4.31669795,10.9449369 C4.43895051,10.3184693 4.57087884,9.69384471 4.69144198,9.06691638 C4.71647611,8.93621672 4.76178328,8.88630205 4.90369454,8.89060239 C5.29026451,8.90212116 5.67775597,8.90196758 6.06432594,8.89060239 C6.22251706,8.88599488 6.24831911,8.94082423 6.22758532,9.08166041 C6.18289249,9.38514164 6.14726109,9.69031229 6.11639078,9.99563652 C6.0908959,10.2482816 6.12729522,10.4966263 6.18596416,10.7437423 C6.26352389,11.0707218 6.46656143,11.2628549 6.78662969,11.3468652 C7.88966724,11.6359096 8.87014505,10.9579915 8.99101536,9.82024403 C9.00268771,9.71043174 9.01942833,9.60046587 9.02019625,9.49034642 C9.02280717,9.09962969 8.88412116,8.79829863 8.51982082,8.59787201 C8.0971587,8.36534642 7.64746587,8.20669454 7.19992321,8.03821331 C6.87232935,7.91503925 6.55041809,7.778657 6.24401877,7.60817918 C5.69695392,7.30377645 5.38318259,6.8439471 5.36122014,6.21440785 C5.31499147,4.89896416 5.75040102,3.76874232 6.70553754,2.85323038 C7.00640785,2.56495392 7.38545222,2.40323038 7.78753413,2.33258191 C9.42074232,2.0458413 11.0385922,2.0992884 12.6332509,2.58845222 C12.7842235,2.63468089 12.8166297,2.69626792 12.78407,2.84770137 C12.6304863,3.56155802 12.4859642,4.27771843 12.3454352,4.99433959 C12.3225512,5.11152389 12.2823123,5.15652389 12.1574488,5.15437372 C11.7108276,5.14684812 11.2642065,5.15145563 10.8103669,5.15145563" id="Fill-16" fill="#D74532"></path>
                <path d="M17.7906195,9.61161604 C17.8529744,9.58258874 17.8580427,9.51593345 17.882616,9.46463652 C18.8058072,7.52548976 19.7279232,5.58588225 20.6503464,3.64627474 C20.6581792,3.62968771 20.667087,3.61340785 20.674459,3.59666724 C20.8348003,3.23574573 20.7664556,3.12946587 20.3729744,3.12716212 C20.1126502,3.12562628 20.1120358,3.1254727 20.1728549,2.87943174 C20.2124795,2.71893686 20.2058754,2.50653072 20.3077014,2.41253754 C20.4205853,2.30871502 20.6362167,2.38166724 20.8066945,2.38074573 C21.5253123,2.37721331 22.2440836,2.38351024 22.9627014,2.37567747 C23.1215068,2.37398805 23.1511485,2.41960239 23.1061485,2.56335666 C23.0603805,2.70941468 23.028128,2.86038737 23.0009437,3.01120648 C22.9843567,3.10381741 22.9387423,3.14221331 22.8511997,3.12685495 C22.2720358,3.0261041 22.0114044,3.36506314 21.7816433,3.831343 C20.4764898,6.47912457 19.1509096,9.11676962 17.8385375,11.7608652 C17.7645102,11.9098413 17.6826502,11.9576058 17.5186229,11.9557628 C16.7139983,11.9462406 15.9092201,11.9468549 15.1047491,11.9554556 C14.9522406,11.9571451 14.9100051,11.9150631 14.9026331,11.7657799 C14.8296809,10.2938345 14.7482816,8.82234983 14.6716433,7.3507116 C14.6074454,6.11820307 14.5472406,4.88538737 14.4831962,3.65287884 C14.4639983,3.28243515 14.2879915,3.12762287 13.8981962,3.12777645 C13.6771894,3.12777645 13.671814,3.12654778 13.7244932,2.91506314 C13.7682645,2.7392099 13.7350904,2.4954727 13.8717799,2.40516553 C13.9967969,2.32253754 14.2159608,2.37982423 14.393657,2.37967065 C15.7018823,2.3792099 17.0102611,2.38243515 18.3186399,2.37644539 C18.4800563,2.37567747 18.5333498,2.41269113 18.4693055,2.56781058 C18.4600904,2.59023379 18.4588618,2.61572867 18.4530256,2.63953413 C18.417087,2.78851024 18.4198515,2.96743515 18.3343055,3.07816894 C18.2390836,3.201343 18.0471041,3.10934642 17.8988959,3.13269113 C17.6589983,3.17062628 17.5350563,3.30086519 17.5419676,3.56333959 C17.5613191,4.28763993 17.5869676,5.01178669 17.6149198,5.73577986 C17.6637594,6.99992662 17.7161314,8.26376621 17.7678891,9.52775939 C17.7689642,9.5547901 17.7540666,9.58842491 17.7906195,9.61161604" id="Fill-18" fill="#D74532"></path>
                <path d="M87.0262986,20.1932816 C87.0777491,20.0516775 87.1167594,19.9363362 87.1612986,19.8229915 C87.2579027,19.5772577 87.246384,19.3292201 87.1706672,19.0834863 C87.1350358,18.9678379 87.0372031,18.8801416 86.9319983,18.8445102 C86.265599,18.6185887 85.7162304,19.0232816 85.6349846,19.5987594 C85.5964352,19.8724454 85.7060939,20.0785546 85.9544386,20.1992713 C86.304302,20.3692884 86.6856502,20.4477696 87.0517935,20.5703294 C87.3436024,20.6681621 87.6280392,20.7816604 87.9006502,20.922343 C88.6274078,21.2973942 88.7633294,22.0167799 88.6552065,22.6980768 C88.5589096,23.3044249 88.2016741,23.7551928 87.8080392,24.1955171 C87.1887901,24.8883328 86.379558,25.1124113 85.4995239,25.1706195 C84.6752406,25.2249881 83.8547969,25.2042543 83.0481758,24.99707 C82.7135171,24.9110631 82.4002065,24.771302 82.0876638,24.6275478 C82.0096433,24.5916092 82.0171689,24.5424625 82.0285341,24.4788788 C82.1226809,23.9533157 82.2177491,23.4279061 82.3065205,22.9012679 C82.3208038,22.8166433 82.3513669,22.7897662 82.4353771,22.7903805 C82.9022713,22.7936058 83.3691655,22.7946809 83.8360597,22.7900734 C83.9475614,22.7888447 83.9716741,22.827087 83.9552406,22.9315239 C83.921913,23.1434693 83.8818276,23.3567969 83.8770666,23.5702782 C83.8701553,23.8705341 83.9076297,24.1795444 84.215872,24.3279061 C84.4364181,24.4340324 84.6893703,24.4524625 84.9363328,24.4089983 C85.3155307,24.342343 85.6105648,24.162343 85.7580051,23.7852952 C85.9069812,23.4042543 85.76507,23.0651416 85.3947799,22.8872918 C85.059814,22.7264898 84.6967423,22.6555341 84.3501041,22.533128 C84.1593532,22.4658584 83.9698311,22.3950563 83.7821519,22.3196468 C83.1917765,22.0823601 82.8965887,21.6153123 82.8730904,21.0072747 C82.8369983,20.0716433 83.1939266,19.3006536 83.9538584,18.7277867 C84.707186,18.1598345 85.578773,18.0045614 86.4895239,17.9924283 C87.3248652,17.9813703 88.1410085,18.1017799 88.9293532,18.391285 C89.0291826,18.4279915 89.0623567,18.4610119 89.0373225,18.573128 C88.9272031,19.0641348 88.8264522,19.5571382 88.7267765,20.0504488 C88.7092679,20.1372235 88.6940631,20.1965068 88.582715,20.1954317 C88.0731246,20.1905171 87.5635341,20.1932816 87.0262986,20.1932816" id="Fill-20" fill="#3466A4"></path>
                <path d="M40.9966587,20.193128 C41.0660785,19.988401 41.1344232,19.8113191 41.1860273,19.6296297 C41.2706519,19.3318311 41.1955495,19.0229744 40.971471,18.8893567 C40.7169829,18.737616 40.4350034,18.7448345 40.159628,18.8595614 C39.839099,18.9930256 39.5787747,19.3779061 39.5904471,19.7157901 C39.5981263,19.9367969 39.7108567,20.0963703 39.9095939,20.1935887 C40.2757372,20.3729744 40.6770512,20.4480768 41.0593208,20.5798515 C41.344372,20.6779915 41.6226655,20.7899539 41.8889795,20.9294078 C42.6005324,21.3018481 42.7270853,22.0074113 42.6214198,22.6971553 C42.5294232,23.2978208 42.1758737,23.7430597 41.7916075,24.183384 C41.173587,24.891558 40.3585188,25.1153294 39.4723413,25.1720017 C38.6486724,25.2248345 37.8280751,25.2057901 37.0214539,24.9976843 C36.6867952,24.9112167 36.3734846,24.7719164 36.0607884,24.6292372 C35.9898328,24.5968311 35.9795427,24.558128 35.9925973,24.4860973 C36.0873584,23.9608413 36.1801229,23.434971 36.2662833,22.9081792 C36.2817952,22.8132645 36.3186553,22.7896126 36.4085017,22.7903805 C36.869099,22.7942201 37.3296962,22.7954488 37.7904471,22.789459 C37.9097816,22.7879232 37.93543,22.8232474 37.9186894,22.9385887 C37.870157,23.2712509 37.8084164,23.6006877 37.8833652,23.9434863 C37.9272901,24.1449881 38.0513857,24.284442 38.2045085,24.338657 C38.6366928,24.4913191 39.2138601,24.4934693 39.5850717,24.0367116 C39.919884,23.6244932 39.8827167,23.1276502 39.3362662,22.8762338 C38.8991672,22.6750392 38.4216758,22.5960973 37.9788942,22.4131792 C37.6365563,22.2718823 37.2986724,22.1264386 37.0942526,21.788401 C36.907802,21.4803123 36.824099,21.1527184 36.8477509,20.7898003 C36.8790819,20.3106195 36.981215,19.8598515 37.2482969,19.4507048 C37.6256519,18.8723089 38.1459932,18.4680768 38.7921195,18.2605853 C40.176215,17.8159608 41.5524778,17.931302 42.9127679,18.3961997 C43.0003106,18.4261485 43.0264198,18.4651587 43.0066075,18.5566945 C42.8974096,19.0602952 42.7911297,19.5646638 42.6893038,20.0698003 C42.6717952,20.1570358 42.6427679,20.1955853 42.5478532,20.194971 C42.0384164,20.1911314 41.5289795,20.193128 40.9966587,20.193128" id="Fill-22" fill="#3466A4"></path>
                <path d="M35.0015836,18.9805085 C34.8358669,18.9805085 34.6695358,18.988802 34.5044334,18.977744 C34.3778805,18.9694505 34.3397918,19.0221297 34.3152184,19.1383925 C34.0198771,20.5429147 33.7188532,21.9462082 33.4195188,23.3498089 C33.3872662,23.500628 33.3729829,23.652215 33.3966348,23.8061058 C33.4470102,24.1312423 33.6657133,24.2002014 34.0120444,24.2264642 C34.1796041,24.239058 34.340099,24.1863788 34.4996724,24.1439898 C34.5956621,24.1184949 34.624843,24.1329317 34.5936655,24.2359863 C34.5420614,24.406157 34.4967543,24.5783242 34.454058,24.7509522 C34.4339386,24.8323515 34.3855597,24.8681365 34.3087679,24.8962423 C33.476959,25.1997235 32.6191945,25.2571638 31.7512935,25.1364471 C31.4167884,25.0897577 31.0996382,24.9499966 30.8505256,24.7079488 C30.7144505,24.5758669 30.6183072,24.4020102 30.5703891,24.2192457 C30.4705597,23.8398942 30.4842287,23.4568567 30.5706962,23.072744 C30.8629659,21.7743481 31.1460205,20.473802 31.4418225,19.1761741 C31.4806792,19.0063106 31.4470444,18.964843 31.2790239,18.9774369 C31.0896553,18.9917201 30.8984437,18.9775904 30.7081536,18.9820444 C30.6195358,18.9841945 30.5774539,18.9628464 30.6153891,18.8683925 C30.6176928,18.8627099 30.6190751,18.8565666 30.6201502,18.8505768 C30.7173686,18.3136485 30.7212082,18.3248601 31.2341775,18.1505427 C32.1413959,17.8418396 32.9411058,17.3735631 33.4886314,16.5535802 C33.5294846,16.4926075 33.5812423,16.4331706 33.6015154,16.3651331 C33.6936655,16.0550478 33.8936314,15.9573686 34.2074027,16.000372 C34.418273,16.0292457 34.6366689,16.0131195 34.8512253,16.0034437 C34.9816177,15.9976075 35.0055768,16.038 34.981157,16.1616348 C34.8506109,16.8234266 34.7315836,17.4876758 34.5987338,18.1490068 C34.5721638,18.2809352 34.5919761,18.3191775 34.7306621,18.3154915 C35.0620956,18.3065836 35.3938362,18.3162594 35.7252696,18.3107304 C35.8459863,18.3085802 35.8688703,18.3377611 35.8333925,18.4578635 C35.6791945,18.9794334 35.6831877,18.9805085 35.1488703,18.9805085 L35.0015836,18.9805085 Z" id="Fill-24" fill="#3466A4"></path>
                <path d="M20.4446519,7.37505461 C20.7349249,6.79174403 21.0095324,6.23822867 21.2855222,5.68548123 C21.6058976,5.04380887 21.9264266,4.40213652 22.2491058,3.76153925 C22.370744,3.5201058 22.5453686,3.44177816 22.8030819,3.49676109 C22.9268703,3.52317747 22.8559147,3.60549829 22.8453174,3.65433788 C22.7107782,4.2775802 22.5705563,4.89928669 22.4317167,5.52145392 C22.3060853,6.08356997 22.1767679,6.64507167 22.0572799,7.20872355 C22.0313242,7.33097611 21.9913925,7.38150512 21.855471,7.37874061 C21.3959488,7.36906485 20.9359659,7.37505461 20.4446519,7.37505461" id="Fill-26" fill="#3466A4"></path>
                <path d="M10.6489044,3.88612628 C10.6587338,4.31769625 10.5499966,4.59445392 10.4784266,4.87843003 C10.4424881,5.02095563 10.3997918,5.15948805 10.4599966,5.30892491 C10.495628,5.39754266 10.4343481,5.48124573 10.3876587,5.54544369 C10.3352867,5.61732082 10.2644846,5.53914676 10.2078123,5.51872014 C9.8796041,5.40061433 9.54294881,5.30385666 9.22764164,5.15288396 C8.73878498,4.91866894 8.68549147,4.80977816 8.7761058,4.27530717 C8.88054266,3.65851536 9.34974061,3.26749147 9.95532082,3.29298635 C10.4467884,3.31356655 10.6450648,3.5202901 10.6489044,3.88612628" id="Fill-28" fill="#3466A4"></path>
                <path d="M82.0071706,3.26833618 C82.0835017,4.32176621 82.1584505,5.32988908 82.2283311,6.33816553 C82.2439966,6.56285836 82.1578362,6.66299488 81.9334505,6.66744881 C81.5041843,6.67620307 81.0747645,6.67036689 80.6454983,6.66975256 C80.4932969,6.66959898 80.4343208,6.5915785 80.4699522,6.44521331 C80.4871536,6.37441126 80.503587,6.30130546 80.5352253,6.23633959 C81.002273,5.2781314 81.4717782,4.32099829 81.9411297,3.36386519 C81.9512662,3.34343857 81.9670853,3.32593003 82.0071706,3.26833618" id="Fill-30" fill="#3466A4"></path>
            </g>
        </g>
    </g>
</svg>