<svg id="Ebene_1" data-name="Ebene 1" xmlns="http://www.w3.org/2000/svg" viewBox="0 0 298.477 301.048"><defs><style>.cls-1{fill:#fe0000;}</style></defs><title>Zeichenfläche 1</title><path class="cls-1" d="M.558,34.371,44.093.881A44.755,44.755,0,0,0,61.568,8.864a39.844,39.844,0,0,0,5.611.914c1.711.149,3.4.925,5.087.885,2.03-.048,4.049.59,6.178-.783,1.572-1.014,4.205.648,5.995-1.141,6.241-.052,11.96-3.283,18.256-3,2.02-1.473,4.76-.2,6.482-1.183,2.339-1.339,4.5-.468,6.694-.782,1.88-.268,3.526-1.39,5.59-1.1,1.694.235,3.493.426,5.137-.853.623-.485,1.939-.079,2.939-.079,4.166,0,8.338.125,12.5-.042,3.037-.121,6.2-1.364,9.059-.813,7.21,1.391,14.415.591,21.614.82,1.944.062,3.49,1.456,5.6,1.129,1.646-.255,3.6-.734,5.108.871.234.249.964.015,1.463.038,3.973.182,7.813,1.145,11.7,1.805,2.478.421,5.051.747,7.545,1.234,3.981.777,7.955,1.992,11.9,2.485,4.752.594,9.484,2.934,14.6.625,2.152-.971,4.97-.325,7.549-1.033,5.592-1.535,11.058-3.125,15.735-6.73a11.3,11.3,0,0,1,2.181-1.1l42.94,33.051c-.432,1.683-.53,3.485-1.322,4.9-3.367,6.013-5.267,12.473-7.163,19.068-1.321,4.594-1.7,9.265-2.863,13.8-1.718,6.691-.818,13.415-.856,20.106-.151,26.664-.088,53.33-.016,80,.006,2.3-.678,4.4-.982,6.594-.294,2.126.749,4.878-.259,6.358-1.426,2.094.441,4.753-1.779,6.315.255,3.572-1.185,6.809-2.043,10.156-.576,2.247-1.226,4.484-2,6.67A158.266,158.266,0,0,1,267.308,234.9c-2.685,4.62-5.886,8.85-8.692,13.361a47.79,47.79,0,0,1-6.307,7.392c-3.452,3.615-6.91,7.245-10.615,10.593A132.614,132.614,0,0,1,220.7,281.863a145.707,145.707,0,0,1-14.38,7.6,96.045,96.045,0,0,1-21.476,7.31c-1.806.347-3.5,1.28-5.3,1.635-1.74.342-3.96-.317-5.251.542-1.972,1.313-3.854.376-5.707.795-1.367.309-2.716.7-4.089.984s-2.944-.557-4.178.863c-.3.342-1.252.142-1.9.143-5.5.008-11,.076-16.5-.041a34.74,34.74,0,0,1-4.59-.935c-1.4-.226-2.975.5-4.126-.985-.188-.242-.96.009-1.455-.041a139.513,139.513,0,0,1-19.433-3.693,119.622,119.622,0,0,1-26.7-10.426,106.6,106.6,0,0,1-19.287-12.689c-5.106-4.281-10.5-8.229-14.993-13.178-4.2-4.628-7.937-9.648-11.827-14.536-6.413-8.058-10.738-17.177-14.981-26.348A100.883,100.883,0,0,1,17.634,198.7c-.614-2.721-1.185-5.488-1.788-8.219-.581-2.63-.779-5.43-1.285-8.028-.7-3.577-.115-7.208-.921-10.6-1.2-5.056-.727-10.079-.846-15.116-.118-5-.026-10-.026-15v-63c0-2.667.83-5.736-.218-7.894-1.213-2.5-.128-5.02-1.4-7.449a24.738,24.738,0,0,1-2.06-7.081c-.627-3.63-2.429-6.72-3.425-10.143-.936-3.217-2.783-6.166-4.19-9.251C1.088,36.086.844,35.184.558,34.371ZM13.8,37.879c1.337,3.235,2.914,6.118,3.711,9.2,1.129,4.371,2.985,8.528,3.42,13.144.186,1.973.182,4.39,1.078,5.976,1.14,2.018-.019,4.066.864,5.653,1.052,1.891.885,3.739.886,5.64q.031,47.241.015,94.481c0,1.333-.5,2.995.109,3.928,1.122,1.715.694,3.428.916,5.153s.9,3.39.924,5.088c.052,4.5,1.521,8.648,2.809,12.854,1.717,5.609,3.845,11.045,6.027,16.5,2.445,6.107,5.7,11.675,8.881,17.31,3.37,5.972,7.916,11.184,12.378,16.347a112.081,112.081,0,0,0,21.449,19.388,124.794,124.794,0,0,0,28.389,14.673,222.809,222.809,0,0,0,22.326,6.393c4.351,1.059,9.019.872,13.552,1.1,2.825.145,5.664.027,8.5.027,3.5,0,7,.13,10.5-.036,3.536-.169,7.058-.626,10.585-.968a6.351,6.351,0,0,0,1.4-.244,97.718,97.718,0,0,1,9.882-2.642,83.689,83.689,0,0,0,18.442-6.2c8.121-3.932,16.171-7.956,23.426-13.6,4.938-3.844,9.754-7.834,14.463-11.914,4.264-3.695,7.4-8.544,11.093-12.82a95.517,95.517,0,0,0,11.816-18.145,114.769,114.769,0,0,0,10.129-25.78c.757-3.034,1.533-6.066,2.186-9.129.547-2.568.094-5.324.994-7.554,1.127-2.79.153-5.57.936-8.12a28.566,28.566,0,0,0,.893-8.615c.008-28.328.049-56.656-.031-84.983a69.367,69.367,0,0,1,1.992-17.679c1.471-5.709,2.47-11.529,4.895-16.977a75.66,75.66,0,0,0,2.429-7.44L255.867,14.437c-1.149.4-2.338.763-3.5,1.212-1.722.667-3.372,1.77-5.144,2.01-3.444.467-6.477,2.7-10.1,2.222-1.847,1.725-4.272.136-6.1.958a12.35,12.35,0,0,1-6.126.855c-1.377-.09-2.71-.74-4.091-.929-3.017-.413-6.219-.213-9.023-1.19-1.921-.669-3.882-.275-5.582-.98-5.434-2.256-11.34-2.239-16.921-3.778-2.419-.667-5.006-.022-7.625-.888-2.293-.758-5.022-.773-7.538-1.043-4.994-.535-10.034-.322-15.088-.986-5.406-.709-10.984-.332-16.474-.111-5.363.216-10.671,1.459-16.085.955-.33-.031-.8-.148-.978.018-1.666,1.585-3.725.738-5.6.995s-3.715.73-5.589.965c-3.186.4-6.719-.038-9.483,1.232-2.5,1.147-4.96.356-7.427,1.407C94,18.8,90,18.747,86.409,19.823c-2.71.812-5.7.153-8.014,1.139-2.2.937-4.552,1.281-6.1.6-3.533-1.561-7.221-.622-10.815-1.567-3.923-1.031-7.738-2.262-11.551-3.584-2.2-.761-4.26-2.125-5.991-1.755Z"/><path class="cls-1" d="M57.768,56.239l1.405-1.405H241.768V58.3c0,37.481.153,74.964-.113,112.443a74.264,74.264,0,0,1-5.243,25.77,95.049,95.049,0,0,1-13.967,25.236A100.24,100.24,0,0,1,208.8,235.957a74.626,74.626,0,0,1-18.89,12.162c-6.255,2.687-12.5,5.287-19.228,6.712-4.378.927-8.686,1.94-13.184,1.914s-9-.006-13.493-.006c-2.166,0-4.614.635-6.42-.171-1.965-.877-4.045-.135-5.589-.96-1.872-1-4.232-.116-5.739-1.868-11.289-1.948-25.128-9.625-30.979-14.321-5.373-4.312-11.084-8.467-15.069-14.505-2.165-3.281-5.178-6.106-7.246-9.533-3.673-6.088-7.091-12.331-9.171-19.181-1.125-3.7-2.941-7.214-3.223-11.161-1.96-2.08.362-5.221-1.8-7.251.737-4.115-1.056-8-1.047-12.08Q57.842,110.982,57.768,56.239ZM70.28,65.815c-2.006,1.118-1.5,2.9-1.505,4.5q-.013,50.474-.021,100.948c0,3.24,1,6.332,1.241,9.564.211,2.8,1.332,5.714,2.033,8.587a51.3,51.3,0,0,0,3.19,8.161,87.924,87.924,0,0,0,16.2,24.259,100.334,100.334,0,0,0,7.571,6.868c3.975,3.522,8.645,5.8,12.972,8.665a36.881,36.881,0,0,0,5.808,2.847c2.118.916,4.4,1.492,6.422,2.576,1.981,1.064,4.2,1.082,6.257,1.768a38.922,38.922,0,0,0,12.106,2.054c6.686,0,13.427,1,20.107-.757,1.479-.389,3.019-1.165,4.547-1.053,1.864.137,3.429-.555,5.088-1.068a82.75,82.75,0,0,0,18.665-8.016c5.924-3.6,11.577-7.559,16.179-12.842.873-1,1.885-1.883,2.815-2.837a72.929,72.929,0,0,0,12.781-18.2,76.9,76.9,0,0,0,3.45-8.063c2.339-6.334,4.514-12.782,4.533-19.594.1-34.482.045-68.965.045-103.447V65.815Z"/><path class="cls-1" d="M137.469,32.972c-1.739-3.492-1.765-6.046-.114-9.282l4.157-3.884a32.73,32.73,0,0,1,17.889.067l4.052,4.052,1.031,3.549-1.09,1.171H158.17c-2.323-5.856-7.319-4.895-11.8-4.752-2.174.438-2.95,2.093-3.662,4.059a9.569,9.569,0,0,0,7.087,3.925c3.476.47,6.808,2,11.017,3.32l3.624,4.316c1.384,5.525-2.029,8.108-4.743,10.782-5,2.3-10.119,1.165-15.067,1.473-7.859-4.456-7.879-4.483-7.572-9.918h5.154l4.531,4.887h7.205l2.621-1.365,1.411-3.566c-.352-.495-.538-1.015-.9-1.222a11.722,11.722,0,0,0-5.725-1.824c-2.423-.011-4.5-1.327-6.792-1.683A11.569,11.569,0,0,1,137.469,32.972Z"/><path class="cls-1" d="M180.181,40.753l1.109-.067a144.886,144.886,0,0,1,7.371-21.839h5.824c.738,2.63-.314,4.743-1.322,7.173-2.471,5.955-4.263,12.19-6.415,18.281-.869,2.458-1.965,4.836-2.976,7.294h-5.732c-2.606-2.715-2.747-6.678-4.225-10.053-1.538-3.512-2.7-7.189-4.051-10.784-.974-2.587-2.132-5.114-2.933-7.751-.364-1.2-.062-2.6-.062-4.089h5.695c3.079,2.781,2.717,7.236,4.237,10.923C178.157,33.371,179.052,37.133,180.181,40.753Z"/><path class="cls-1" d="M122.939,50.069l-1.54,1.54h-5.562v-24.3l-1.4-1.4h-9.42V19.993l1.139-1.139h26.419v6.871h-9.634Z"/><path class="cls-1" d="M57.154,243.06l-2.677-4.615,6.747-5.547-4.644-6.239-7.055,4.37L46.334,227.6c3.394-2.3,6.47-4.386,9.544-6.475,3.109-2.113,6.216-4.229,9.656-6.571L73.712,226.3v3.985l-4.836,4.429H65.228C64.158,238.916,59.465,239.552,57.154,243.06Zm11.6-13.664a7.715,7.715,0,0,0-3.668-7.61c-2.659-.345-3.175,1.717-4.52,2.6a22.661,22.661,0,0,0,1.644,3.237c.882,1.189,1.971,2.225,2.984,3.338Z"/><path class="cls-1" d="M213.829,245.967c-.226-3.224-.366-6.641,2.637-9.507,4.709-4.493,4.561-3.717,12.468-3.722,4.941,3,9.32,6.572,8.761,13.036-.555,6.416-5.082,9.427-11.133,10.8-2.272-1.281-5.5-.836-7.84-3.235A31.158,31.158,0,0,1,213.829,245.967Zm4.274-2.857,1,3.465c.714.714,1.741,1.8,2.83,2.819,3.209,3,5.7,3.119,9.2.475.655-.494,1.319-.978,1.573-1.166v-4.743c-1.522-4.929-5.155-6.065-8.459-7.289C220.433,237.494,218.8,240.025,218.1,243.111Z"/><path class="cls-1" d="M172.914,285.008c-3.132-7.127-4.247-14.543-6.33-21.631,1.85-.995,3.815-1.211,5.422-1.865,1.9-.775,3.946-.759,5.842-1.581,1.431-.62,3.622.512,5.378.845,4.311,3.441,5.71,7.988,5.574,13.251a7.267,7.267,0,0,1-3.889,6.664c-2.717,1.464-5.459,3-8.723,3.094C175.318,283.81,174.465,284.407,172.914,285.008Zm10.752-9.667c.451-4.063.307-7.887-3.329-10.457h-7.215l-1.054,1.054,3.957,13.4,4.538-.9Z"/><path class="cls-1" d="M79.35,232.821l10.993,10.993-2.07,2.819L80.142,238.5c-2.85,2.383-2.85,2.383-3.494,4.766l7.206,5.993c-.368,2.12-1.713,2.65-3.581,2.475l-5.937-6.016a5.121,5.121,0,0,0-4.45,3.806l7.848,7.515c.205,1.92-.227,3.185-2.167,3.774l-13-11.461C68.644,244.22,72.12,236.857,79.35,232.821Z"/><path class="cls-1" d="M108.414,272.012l2.167,4.232,4.815,1.535c2.1-.306,2.5-1.593,2.333-3.756-1.205-.943-2.674-2.152-4.2-3.275-1.925-1.413-3.9-2.758-5.649-3.987-.117-5.617,1.173-8.031,5.035-9.63a3.411,3.411,0,0,1,2.307-.336c3.244,1.478,7.334,1.5,9.437,5.935v3.819h-3.812l-.1-2.189a9.171,9.171,0,0,0-5.488-3.684c-2.12.333-2.631,1.544-2.434,3.75l9.889,7.385v5.651L117.281,282c-2.359-.427-4.86-.462-6.968-1.39-1.748-.769-3.634-1.719-4.636-3.881a11.286,11.286,0,0,1-.746-6.314Z"/><path class="cls-1" d="M148.666,286.62h-4.98l7.164-22.837h5.577c2.825,7.048,6.51,13.925,8.624,21.769H161l-2.462-3.7h-7.663l-1.105,2.387Zm3.2-8.254,4.933-.978-2.543-7.689C153.061,271.383,151.872,275.833,151.863,278.367Z"/><path class="cls-1" d="M245.753,219.037v5.737l-4.315,6.09,6.58,4.4-1.877,3.81c-7.326-2.611-12.615-8.512-19.806-11.911,2.134-3.351,3.865-6.7,6.192-9.56,2.85-3.508,6.717-4.174,10.828-.766C244.241,217.573,245.057,218.395,245.753,219.037Zm-7.942,8.765c2.307-.986,2.953-3.205,4.2-5.429l-3.4-2.443h-2.666l-3.35,4.989A6.965,6.965,0,0,0,237.811,227.8Z"/><path class="cls-1" d="M57.515,196.532l6.254,14.307a2.859,2.859,0,0,1-3.607,1.873l-4.546-10.286L51.907,204.1c-.861,3.482,1.779,5.826,3.143,9.2l-2.187.925.46.488h-2.08l-4.086-8.233-9.023,2.649-1.852-3.769Z"/><path class="cls-1" d="M245.568,195.913c.691,2.38-.5,4.086-1.357,5.955a42.247,42.247,0,0,0-1.687,5.481l4.658,1.719,3.881-9.238,3.528,2.024-3.623,8.691c2.43,2.109,6.666,1.835,9.417,5.591l-4.629,1.743c-5.246-2.239-12.521-4.343-18.717-8.166l5.3-13.8Z"/><path class="cls-1" d="M42.266,107.915c-3.522-5.328-3.522-5.328-3.473-12.367a16.747,16.747,0,0,1,1.443-2.725,40.691,40.691,0,0,1,2.915-2.966h4.811l4.6,4.608c0,3.08.659,5.771-.133,7.929-1.8,4.905-4.316,9.548-6.584,14.39l-3.054-.183c-.025-3.393,4.353-4.932,2.66-8.686Zm4.946-3.308,2.222-2.015L50.4,99.2l-.7-2.479-2.275-2.907h-2.8l-2.8,2.3v5.014l2.112,3.483Z"/><path class="cls-1" d="M206.044,272.293l-4.1,2.546-8.459-16.494-6.106,2.386-1.916-3.415c5.821-2.494,10.911-6.015,16.752-7.814l1.506,3.076-5.875,3.282Z"/><path class="cls-1" d="M91.768,244.627l3.929,2.762c.309,3.243-.242,6.84.339,10.8l8.667-5.647,4.372,2.594c-3.652,2.323-6.968,4.54-10.39,6.577-3.307,1.968-3.836,2.382-5.916,6.176-.516.942-1.009,1.9-1.628,3.066-.536-.314-1.039-.662-1.586-.915s-1.148-.418-1.741-.627v-3.572c.314-.246,1.248-.618,1.555-1.281,1.238-2.676,2.825-5.171,2.483-8.46C91.48,252.5,91.768,248.832,91.768,244.627Z"/><path class="cls-1" d="M133.93,267.193l-6.067-1.814v-3.629c5.691-.185,10.957,2.33,15.96,2.676l3.276,1.435-3.23,1.348c-1.247.322-3.139,1.168-4.732-.4-.4.523-1.367,1.215-1.292,1.767.579,4.283-1.365,8.3-1.146,12.554.076,1.474-.659,2.99-1.031,4.522h-3.536c-.14-.361-.363-.654-.346-.932.311-5.012.606-10.026,1.027-15.029A8.565,8.565,0,0,1,133.93,267.193Z"/><path class="cls-1" d="M245.768,94.223l3.218-4.482h5.543l3.239,4.468c0,4.991.011,9.964,0,14.936-.014,4.9-1,6.225-5.771,7.891-.282.1-.475.451-.686.662a28.254,28.254,0,0,1-3.111-2.073,6.774,6.774,0,0,1-2.449-5.445C245.81,104.876,245.768,99.571,245.768,94.223Zm5.715,19.989c3.21-2.386,4.528-4.876,4.323-8.252-.179-2.955-.037-5.929-.037-8.454-1.358-2.048-1.924-4.246-4.619-4.892l-3.3,4.568v12.239Z"/><path class="cls-1" d="M267.19,89.649l2.972.329L265.9,98.46l2.249.375c5.321,3.737,5.588,8.676,3.075,15.066l-4.96,3.911a6.5,6.5,0,0,1-5.49-5.44c-.517-2.376-2.342-4.758,0-7.137C261.446,99.543,265.068,95.066,267.19,89.649Zm-4.7,21.1,2.71,2.964h2.292l2.11-3.342v-6.3l-1.227-1.227h-4.77Z"/><path class="cls-1" d="M35.592,117.074l-2.763-1.509V93.234l-4.368-1.584,1.67-1.809h5.461Z"/><path class="cls-1" d="M260.615,157.643h-3.692V140.889l3.692-.18Z"/><path class="cls-1" d="M39.931,140.826h3.675V157.57l-3.675.2Z"/><path class="cls-1" d="M206.777,243.3l1.286-1.383c.232.1.617.155.668.314,1.7,5.286,3.3,10.605,5.065,15.869.928,2.768,1.466,5.676,2.932,8.27.281.5.04,1.288.04,2.047l-1.466.427Z"/><path class="cls-1" d="M165.846,78.464c-.975,3.439-1.122,3.558-8.249,6.826,1.561,3.53,4.435,4.717,8.4,4.456l-.986,3.887,3.334.186c.144.144.384.332.362.37-.539.936-1.1,1.857-1.784,2.974l.736,1.117-1.183,4.909,2.273,1.367v2.177l-4.381,6.2,2.446,4.728h4.443l3.507-3.982c0-2.452.722-5.829-.182-8.693-1.143-3.619-.587-7.111-.754-10.646a6.041,6.041,0,0,1,1.017-4.008c2.06-2.261,3.926-4.839,6.918-6.094A37.407,37.407,0,0,0,196.005,73.97a7.113,7.113,0,0,0,.8-1.7l.808.619v7.193l1.49,1.49,4.746-1.835c1.724-.667,3.488-1.247,5.16-2.026,1.481-.69,2.35-2.963,4.788-1.541l-2.346,6.888c6.8-2.179,10.441-7.261,15.556-11.93-3.481,12.366-10.165,21.523-20.149,29.5,4.411,0,7.528-1.461,10.772-2.257,3.288-.806,5.969-2.877,9.5-5-1.789,5.333-5.119,8.49-8.269,11.851-3.121,3.33-7.094,5.33-11.558,8.048l2.878.484-.926,1.152h13.515c-3.3,3.61-12.906,9.017-18.169,10.168,2.45,2.458,5.675,2.505,8.285,3.8,3.224,1.6,6.467.154,9.975,1.177a54.662,54.662,0,0,1-5.737,3.634,21.387,21.387,0,0,1-6.156,1.977,37.767,37.767,0,0,1-7.487.041c-2.162-.139-4.3-.6-6.547-.929,1.474,5.146,6.175,7.008,9.613,9.8,3.384,2.746,7.766,4.387,12.229,5.974-2.78.732-5.575,2.094-8.337,2.03a25.559,25.559,0,0,1-9.486-2.285c-4.8-2.127-9.851-3.936-13.9-7.526-.154-.137-.61.065-.924.11.231,3.973,4.557,8.2,11.553,11.234-2.441,1.914-5.036,2.033-7.874,1.214a66.872,66.872,0,0,1-7.986-3.408c.279.742.541,1.49.84,2.223,1.391,3.406,4.031,4.747,7.546,5.758,4.771,1.373,8.914.448,13.328-1.077,3.426-1.184,7.083-1.992,10.655-.094.26.138.657.018.939.018a13.809,13.809,0,0,1,5,6.9c.349,1.033.941,2.413.549,3.2-2.735,5.482-4.98,11.5-12.113,12.946a12.332,12.332,0,0,0-3,1.634c1.888,3.917,5.465,3.255,7.217,3.293l3.734,1.689-4.038,4.181,2.251,2.808a6.186,6.186,0,0,1-1.675,5.477c-3.17,3.729-6.574,7.26-10.068,11.071l-1.9-1.2c-2.143.918-4.78,1.053-6.1,3.327a7.925,7.925,0,0,0-1.143,5.918l-4.138,3.83-4.251-.91-4.486,2.168a21.623,21.623,0,0,1-8.039,10.686c-.8-3.514,2.237-6.7.192-10.272a17.9,17.9,0,0,1-9.01,3.567c-.894.108-2.851.712-2.789,2.523l-1.785-1.341,1.51-5.207a21.409,21.409,0,0,1,7.974-6.089,37.914,37.914,0,0,0,3.916-2.522l-1.408-1.408c-3.061-.39-6.2-.816-9.349-1.148-.3-.031-.66.531-1,.824l-1.464-1.545,8.978-8.978c3.347,1.725,5.167,5.758,8.569,8.488h3.894c2.645-1.581,3.868-4.274,4.644-7.444,3.384-.933,4.3-4.133,5.982-7.8.309-2.812-.145-6.138-5.58-7.692a14.762,14.762,0,0,0-7.365,1.062A43.051,43.051,0,0,0,171.116,195a106.316,106.316,0,0,0-12.223,10.266c-4.515,4.613-8.4,9.722-10.477,16.13-.954,2.943-2.734,5.614-2.675,9.05l-6.87,4.193-6.681-1.106-6.263,3.788c-.052-4.875-1.961-8.569-5.047-13.034l6.8,3.42c2.126-.95,4.486-1.756,5.36-4.63.3-.985,1.5-1.756,2.4-2.486a11.144,11.144,0,0,0,4.4-9.243l10.109-3.91-1.2-2.751,2.717-3.978,3.163.688,4.178-1.753v-5.8h4.285l4.817-3.4-3.063-3.813,6.97-5.093-.121-2.522c-2.839,1.335-5.754.394-8.556.747-2.675.337-5.326.869-8.334,1.373,1.495,3.889-.113,7.383-1.82,11.051a10.961,10.961,0,0,1-4.439,5.038c-3.349,1.82-6.28,4.833-10.565,4.507-1.508,5.116-3.18,9.9-9.356,11.16l-2.432-2.081c-2.072,1.809-2.627,4.246-2.436,7.07-3.191-2.036-4.485-4.97-5.819-7.591-3.215-1.9-5.171,1.151-7.639,1.547l-2.714,4v5.226c-2.57-1.368-4.958-2.17-7.163-.033l-2.544-6.362,3.855-4.48c-1.838-1.51-3.063.382-4.506.68-1.469.3-2.763,1.38-4.223,1.826a36.833,36.833,0,0,1-4.751.817l-1.5-2.544,2.466-6.48c3.13-1.12,5.612-4.335,9.612-1.772-.14-2.437-2.177-3.1-3.041-4.58v-3.043l2.042-.72L93.953,189.1c1.474-1.149,1.474-1.149,6.841-.267l2.336,2.815,3.17.34c-2.773,3.336-1.053,6.351-.276,9.437l3.043,1.442,15.6-10.787v-4.611l2.9-4.282-5.095-1.9-2.709-6.479,1.27-2.736,3.052,3.127c1.209.362,1.516.425,1.8.543,4.207,1.749,7.817,1.014,11.446-1.865,1.692-1.342,4.323-1.887,6.578-2.031,2.742-.174,5.394-.738,8.088-1.02,2.892-.3,5.324-1.453,8.128-2.751L154.3,160.9c-1.167-.182-2.582-.538-4.076.777-1.125.99-2.737,1.406-4.061,2.2-1.358.81-2.631,1.763-4.008,2.7-5.457-4.95-9.31-11.3-13.025-18.259-1.844,1.557-3.382,3.281-5.288,4.342-1.85,1.031-4.079,1.382-6.837,2.251l-1.743-1.789,1.46-1.926c-1.278-1.278-4.731-.147-8.826,2.927,3.023,3.848,5.028,7.91,2.369,13.5l-3.128,2.784-1.969-3.9-2.183,1.235v-4.089c-1.488-2.089-3.161-2.638-4.2-1.324a18.436,18.436,0,0,0-1.9,3.991l1.081,4.527c-1.123,1.8-3.043,2.32-3.981,4.046-.843,1.55-2.4,2.713-3.414,3.8h-2.4l-1.5-6.361,3.713-3.713,1.1-3.518-1.1-2.235c-1.8-.38-3.213-.066-3.624,2.06a8.488,8.488,0,0,1-.492,1.794c-2.255,5.144-2.509,5.36-9.051,8.039l-1.366-4.153a26.639,26.639,0,0,1,3.316-6.6l6.415-3.194v-2.772l-2.336-2.239c-2.912-.555-5.545.394-7.989,2.566-.543-5.537,3.063-9.231,8.685-9.636l5.595,3.988a6.245,6.245,0,0,0,4.3-.969c3.635-2.308,7.321-4.537,11.393-7.048-1.939-1.471-5-1.255-5.527-4.5l9.592-2.822-4.928-6.937-2.667,1.319c-2.323-2.065-2.336-2.065-.976-4.573l-1.36-1.36-.561-4.09-4.81-4.126-1.636-6.975-4.487,1.991H80.19l4.653-3.322L83.553,105.7c2.076-2.838,5.451-4.707,6.417-8.69H84.13c-5.289-2.376-7.638-5.863-7.291-11.748L80.78,87.8l2.52-1.463,1.087,2.295h5.382c0-.8.314-1.81-.056-2.331A10.5,10.5,0,0,0,84.2,82.541l-2.035-9.678c2.818-.953,4.657,1.916,7.266,2.724,1.738-1.551,1.738-1.551,4.425-1.723-.686,5.358.941,10.39,2.077,15.494.125.564.791,1.007,1.574,1.948,1.124-2.558,1.893-4.767,3.03-6.766a56.735,56.735,0,0,1,3.79-5.269c2.547,2.478,2.547,2.478,2.35,11.056-.707.707-1.37,1.467-2.129,2.112-2.628,2.231-3.667,5.382-2.642,8.3,1.6,4.569,2.2,9.356,3.68,13.95a15.29,15.29,0,0,0,4.369,6.694c1.815,1.716,4.192,1.338,6.429,1.347.322,0,.644-.048.956-.074,2.4-2,1.5-4.237.817-6.669,2.5-1.02,5.722-1.686,8.112-3.469,3.3-2.465,5.983-5.772,9.165-8.954l6.124,1.344.28-2.657c-3.294-2.014-7.238-1.555-10.581-2.889,1.71-1.99,3.991-3.028,11.555-5.126l-1.563-1.4c-7.819-.949-14.466,1.961-20.214,6.962-2.014-.494-2.4-1.789-2.243-3.749,5.355-4.414,11.258-8.084,18.689-8.537.071-.118.226-.314.2-.342-.454-.488-.93-.954-1.3-1.327-4.014-.7-7.6.668-11.643,1.536a9.615,9.615,0,0,1,.734-2.794c2.37-3.877,4.907-7.492,10.123-7.953,1.491-.132,2.942-1.315,4.59-.886,2.849.742,5.707,1.487,8.488,2.444a41.011,41.011,0,0,1,4.911,2.479A21.174,21.174,0,0,0,165.846,78.464Zm50.09,90.221a8.439,8.439,0,0,1-.712-1c-.894-1.886-1.736-3.631-4.244-4.017-1.937-.3-3.767-2.084-5.669.029-4.3-.008-8.088,2.636-12.613,2.037,1.354,2.96,2.536,5.525,1.957,8.684l4.608,3.34C206.512,178.091,211.977,175.094,215.936,168.686Zm-76.6-86.114,2.894-1.68-1.751-3.225c-3.314.635-3.314.635-3.68,3.6Z"/><path class="cls-1" d="M165.664,78.648l.7-.817.315.315-.817.7Z"/></svg>