<svg xmlns="http://www.w3.org/2000/svg" viewBox="0 0 855.025 872.369"><defs><style>.cls-1{fill:#181716;}</style></defs><title>Logo_TSV-NN_sw_1509 [Konvertiert]</title><path class="cls-1" d="M495.123,654.3c0,47.4-60.028,104.337-67.715,107.379-7.687-3.042-67.715-59.976-67.715-107.379V561.285H321.269v93.377c0,10.994,4.457,46.938,34.924,85.808,53.266,67.954,67.094,65.74,71.216,65.74s17.95,2.214,71.216-65.74c30.466-38.869,34.924-74.813,34.924-85.808V561.285H495.123Zm15.909-218.117c0,26.2-20.662,68.038-63.864,77.895V350c32.764,23.943,63.864,52.2,63.864,86.183M407.858,269.4C385.273,247.011,382.914,232,382.914,225.9c0-24.707,11.439-33.592,24.944-36.772Zm194.267-187H252.9v.038L119.026,216.317l27.794,27.794L269.23,121.7H407.858v25.62c-37.656,7.3-62.812,36.048-62.812,78.579,0,29.969,21.574,63.049,62.813,95.694V514.5c-46.526-8.214-65.336-45.243-65.336-78.205,0-25.472,28.085-57.659,28.085-57.659l-29.978-23.667s-35.659,31.872-35.659,82.914c0,63.837,42.825,109.031,102.889,117.107V683.815h39.31V554.594c60.025-10.413,102.678-67.165,102.678-118.409,0-60.519-56.231-101.493-102.678-135.164V192.547c12.795,6.735,23.156,19.323,23.156,33.355h37.868c0-31.866-19.871-69.2-61.024-78.343V121.7H585.832L708.243,244.111l27.794-27.794L602.125,82.4ZM731.848,475.344c-5.729-5.731-17.42-18.939-49.262-49.262-63.9-60.854-75.283-101.29-77.214-117.5h-.017V267.547H566.045V608.22h39.311V399.792c4,4.136,48.638,50.341,52.334,54.039,11.271,11.276,74.158,64.878,74.158,120.406V608.22h39.31V267.547h-39.31Zm-482.176,0c-5.73-5.731-17.42-18.939-49.263-49.262-63.9-60.854-75.283-101.29-77.213-117.5h-.018V267.547H83.868V608.22h39.309V399.792c4,4.136,48.638,50.341,52.334,54.039,11.272,11.276,74.16,64.878,74.16,120.406V608.22H288.98V267.547H249.671ZM814.848,638.572l-187.2,192.8H226.962L40.177,639.865V237.677L231.363,40.994H620.744l194.1,196.683ZM640.789,0H211.017L0,217.086V661L206.157,872.369H648.409l206.616-212.8V217.086Z"/></svg>