<svg id="Ebene_1" data-name="Ebene 1" xmlns="http://www.w3.org/2000/svg" viewBox="0 0 1448.827 2046.83"><defs><style>.cls-1{fill:#e2001a;}</style></defs><title>Zeichenfläche 1</title><path class="cls-1" d="M1415.435,1521c-2.563,3.779-4.807,7.087-7.049,10.4-12.926,19.072-26.428,37.731-40.17,56.221a1700.465,1700.465,0,0,1-137.895,162.9,1377.474,1377.474,0,0,1-132.728,122.07c-41.389,33.152-84.741,63.451-130.854,89.71-39.4,22.434-80.277,41.632-123.164,56.472a592.421,592.421,0,0,1-84.2,22.453c-8.476,1.6-17.033,2.771-25.563,4.077-3.622.555-7.27.945-10.905,1.417-.961.125-2.039.343-2.652-.57-.945-1.408-2.366-1.5-3.784-1.685-48.775-6.364-95.7-19.629-141.276-37.9-44.949-18.024-87.545-40.616-128.438-66.487-46.6-29.483-90.334-62.8-132-98.865q-34.668-30.006-67.242-62.277A1694.955,1694.955,0,0,1,87.785,1596.277c-17.876-23.581-35.186-47.587-51.63-72.2-.881-1.318-1.8-2.609-2.8-4.048-2.2.22-4.269.345-6.309.647a33.431,33.431,0,0,1-12.392-.585C3.718,1517.606-2.273,1507.414.8,1496.643a26.14,26.14,0,0,1,4.92-9.261,102.945,102.945,0,0,1,7.025-7.866,490.658,490.658,0,0,0,89.138-123.681c20.008-39.2,34.9-80.3,45.807-122.878a727.478,727.478,0,0,0,15.673-79.963q3.652-26.141,5.779-52.442c1.749-21.855,2.873-43.736,2.88-65.66.005-16.8.065-33.6-.422-50.383-.446-15.343-1.454-30.674-2.474-45.993q-1.308-19.624-3.238-39.206c-1.238-12.569-2.751-25.114-4.339-37.645-1.528-12.054-3.13-24.1-5.017-36.106-2.68-17.054-5.572-34.077-8.516-51.088-3.982-23-8.767-45.848-13.868-68.623q-13.314-59.442-30.218-117.972Q74.581,485.954,35.55,387.338c-7.74-19.464-15.821-38.784-24.631-57.792-.737-1.589-1.395-3.214-2.2-5.079a20.38,20.38,0,0,1,3.2-1.062c20.7-3.143,41.326-6.7,61.838-10.873q49.567-10.093,98.17-24.143c84.966-24.562,166.854-57.042,246.21-95.993A1651.771,1651.771,0,0,0,596.029,91.157C625.875,71.6,655.092,51.15,682.984,28.863c5.872-4.692,11.564-9.61,17.282-14.491a60.082,60.082,0,0,0,11.1-11.9C711.895,1.688,712.572,1,713.4,0l23.176,2.581c1.907,2.3,3.586,4.648,5.6,6.667,3.158,3.17,6.454,6.216,9.843,9.139,15.273,13.178,31.336,25.351,47.666,37.176,51.886,37.57,106.208,71.277,162.325,102.118a1617.132,1617.132,0,0,0,199.8,92.991A1387.049,1387.049,0,0,0,1319.271,300.8c24.014,6.06,48.167,11.533,72.557,15.88,14.785,2.635,29.606,5.065,44.406,7.618,1.208.208,2.377.647,3.78,1.039-.58,1.522-.964,2.732-1.488,3.878-24.984,54.583-45.761,110.8-64.94,167.627q-27.615,81.826-48.42,165.653-12.919,52.147-22.917,104.93c-4.136,22-7.961,44.055-11.089,66.216-2.659,18.837-4.869,37.739-7.106,56.632-2.22,18.744-3.677,37.558-4.906,56.394q-2.642,40.479-2.593,81.036c.06,20.643.849,41.264,2.184,61.857q2.065,31.843,6.531,63.457c7.629,53.859,20.333,106.423,40.5,157.047,19.546,49.071,45.387,94.5,78.831,135.487a469.163,469.163,0,0,0,31.813,35.266,54.489,54.489,0,0,1,9.578,11.937,20.89,20.89,0,0,1,2.775,11.972c-.653,8.136-6.295,14.431-14.586,16.352a34.059,34.059,0,0,1-12.868.538C1419.433,1521.329,1417.531,1521.212,1415.435,1521Zm-272.43,273.335c1.231-1.091,2.557-2.224,3.838-3.408q35.961-33.244,69.6-68.841a1689.282,1689.282,0,0,0,132.668-158.535c13.489-18.28,26.7-36.755,39.311-55.654.956-1.432,2.175-2.742,2.624-4.526-1.233-1.669-3.025-2.462-4.61-3.491q-299.618-194.476-599.248-388.934Q497.038,922.579,206.949,734.124q-19.113-12.413-38.238-24.807c-.981-.634-1.886-1.725-3.6-1.192.41,2.076.777,4.094,1.208,6.1,5.451,25.321,10.487,50.728,14.677,76.285q4.927,30.051,8.973,60.243,3.67,27.575,6.311,55.283c1.626,17.032,2.939,34.111,3.769,51.2.962,19.807,1.37,39.644,1.774,59.474.192,9.43-.064,18.876-.331,28.309-.371,13.111-.692,26.231-1.5,39.319-.835,13.564-2.032,27.113-3.424,40.633-1.261,12.243-2.973,24.44-4.538,36.651-.588,4.586-1.323,9.154-1.978,13.644a6.236,6.236,0,0,0,1.035,1.218q475.142,308.722,950.313,617.4A6.527,6.527,0,0,0,1143.005,1794.334ZM148.181,635.677q574.937,0,1149.544-.013c1.1,0,2.2-.193,3.175-.283a4.172,4.172,0,0,0,.671-.927q.634-2.062,1.182-4.149,20.382-77.721,46.371-153.751c4.654-13.612,9.544-27.142,14.319-40.713.458-1.3,1.277-2.556.746-4.027-4.363-.554-1261.628-.921-1277.092-.369a19.192,19.192,0,0,0-2.217.326,3.532,3.532,0,0,0-.079,1.146c23.793,66.052,44.8,132.97,62.513,200.915A14.5,14.5,0,0,0,148.181,635.677Zm1002.494,675.087c.722-5.043,1.11-618.653.445-642.009-.026-.923-.183-1.843-.292-2.88-2.22-.718-4.3-.468-6.335-.469q-80.4-.02-160.8-.01c-1.28,0-2.565-.053-3.838.041a20.034,20.034,0,0,0-2.567.5c-.579,4.66-.552,528.568-.012,532.481C981.639,1201.869,1146.979,1309.064,1150.675,1310.764ZM469.439,1918.577c.3-.236.457-.307.535-.427a1.172,1.172,0,0,0,.139-.455,6.224,6.224,0,0,0,.111-.949q.02-259.422.025-518.844c0-1.277-.079-2.555-.135-3.832a1.367,1.367,0,0,0-.158-.445c-.063-.146-.142-.286-.377-.752-1.465-.971-3.184-2.13-4.922-3.259q-62.97-40.893-125.943-81.781Q319.2,1295.16,299.678,1282.5c-.994-.642-1.9-1.775-3.657-1.252a26.623,26.623,0,0,0-.263,6.093q-.014,245.023-.009,490.046a28.219,28.219,0,0,1-.019,3.357c-.3,2.484.755,4.213,2.563,5.829,6.442,5.756,12.743,11.669,19.174,17.436,38.279,34.325,78.38,66.341,121,95.136,9.009,6.086,18.206,11.895,27.339,17.8C466.958,1917.681,468.014,1918.808,469.439,1918.577Zm338.817-305.39c-1.288-.917-2.176-1.593-3.106-2.2-10.552-6.941-21.084-13.914-31.672-20.8q-56.5-36.745-113.041-73.439-11.667-7.578-23.356-15.121c-.868-.559-1.663-1.608-3.157-.791a27.245,27.245,0,0,0-.247,6.034q-.014,241.163-.008,482.325c0,1.12-.055,2.244.023,3.358.076,1.084.292,2.158.417,3.031a5.9,5.9,0,0,0,1.052.7c1.366.448,2.745.859,4.121,1.274a537.572,537.572,0,0,0,63.869,15c6.77,1.169,13.6,1.986,20.385,3.068,5.338.851,10.539-.215,15.729-1.043a527.144,527.144,0,0,0,58.98-12.792c3.206-.9,6.394-1.859,10.011-2.914Zm-.034-524.968q0-210.685-.015-420.4a10.526,10.526,0,0,0-.374-1.918,9.084,9.084,0,0,0-1.909-.441q-85.185,0-170.37.052a3.608,3.608,0,0,0-1.219.459,3.387,3.387,0,0,0-.3.505,3.547,3.547,0,0,0-.253.909c-.062.956-.108,1.916-.108,2.874q.064,152.374.143,304.747a1.148,1.148,0,0,0,.12.457c.066.143.175.266.7,1.037,56.807,36.856,114.214,74.1,171.632,111.327A7.452,7.452,0,0,0,808.223,1088.22ZM634.391,401.682c2,.039,3.89.108,5.783.108q80.873.009,161.747,0c1.12,0,2.248.07,3.357-.041a22.245,22.245,0,0,0,2.8-.644V97.959c-28.92-20.294-57.614-40.88-84.105-64.668-1.27,1.039-2.377,1.923-3.46,2.835-6,5.047-11.9,10.214-18,15.131-20.686,16.671-42.223,32.2-64.107,47.247-1.565,1.076-3.095,2.2-4.741,3.377v6.4q0,143.029,0,286.057c0,1.6-.035,3.2.065,4.8A14.851,14.851,0,0,0,634.391,401.682ZM470.24,200.652c-.906-.3-1.1-.431-1.2-.381-55.89,28.346-112.635,54.794-171.241,77.109a11.76,11.76,0,0,0-1.67.971c-.638,2.073-.372,4.162-.372,6.217q-.025,54.955-.011,109.91c0,1.44-.065,2.886.052,4.317a19.318,19.318,0,0,0,.724,2.929c2.211.025,4.277.068,6.343.068q80.153.006,160.305,0c1.28,0,2.563.047,3.838-.031.916-.056,1.821-.284,2.856-.457a18.943,18.943,0,0,0,.356-2.512Q470.248,299.707,470.24,200.652Zm507.245-.5a6.37,6.37,0,0,0-.529,1.582q-.021,99.105.018,198.21a4.917,4.917,0,0,0,.545,1.44,9.274,9.274,0,0,0,1.8.352q84.947.005,169.895-.042a5.878,5.878,0,0,0,1.541-.52,26.077,26.077,0,0,0,.362-2.71c.627-18.828.251-115.644-.5-120.2-4.738-1.876-9.628-3.8-14.509-5.748q-7.345-2.934-14.672-5.912c-4.884-1.985-9.768-3.973-14.634-6s-9.718-4.1-14.562-6.178-9.68-4.186-14.5-6.32-9.629-4.3-14.429-6.486q-7.418-3.376-14.808-6.815-7.171-3.336-14.313-6.736t-14.252-6.871q-7.106-3.474-14.175-7.024c-4.714-2.362-9.384-4.817-14.122-7.129C986.966,204.762,982.551,201.906,977.485,200.156ZM296.436,665.827c-1.043,1.978-.667,3.934-.669,5.818q-.04,39.112,0,78.223c.013,7.748-.932,5.905,5.643,10.18q69.371,45.109,138.78,90.158,13.074,8.492,26.166,16.956c1.015.654,1.918,1.8,3.576,1.228.619-1.614.308-3.379.309-5.089q.03-95.739.016-191.479c0-1.12.065-2.246-.035-3.357a21.175,21.175,0,0,0-.538-2.6c-4.478-.67-153.723-1.048-170.553-.448A22.417,22.417,0,0,0,296.436,665.827ZM977.283,1920.788a5.037,5.037,0,0,0,1.548-.281,987.06,987.06,0,0,0,95.932-67.7c22.421-17.782,40.612-33.181,44.339-37.5-1.192-1.555-2.969-2.365-4.555-3.4q-54.072-35.143-108.161-70.259-13.069-8.487-26.149-16.957c-.874-.564-1.7-1.584-2.985-.931-.478,3.685-.819,184.747-.35,195.169A12.242,12.242,0,0,0,977.283,1920.788Z"/><path class="cls-1" d="M689.707,1162.414c1.142,1.959,1.874,3.172,2.565,4.407,4.328,7.731,4.488,15.579.294,23.359a29.305,29.305,0,0,1-20.28,15.491,21.365,21.365,0,0,1-11.793-.895,42.041,42.041,0,0,1-8.254-3.791c-12.809-7.865-25.528-15.877-38.27-23.851a12.772,12.772,0,0,1-1.409-1.178c1.631-3.839,48.778-79.3,52.523-84.045a24.088,24.088,0,0,1,2.853,1.312c7.478,4.63,14.92,9.318,22.4,13.95,3.94,2.441,7.96,4.753,11.879,7.227a47.975,47.975,0,0,1,6.649,4.692c13.874,12.521,9.319,30.013-.877,38.736a19.116,19.116,0,0,1-12.833,4.585C693.591,1162.409,692.031,1162.414,689.707,1162.414ZM629.4,1173.6c.988.738,1.7,1.355,2.494,1.85,7.435,4.66,14.868,9.323,22.34,13.924a29.683,29.683,0,0,0,5.11,2.582c6.262,2.339,11.92,1.037,16.949-3.21a19.8,19.8,0,0,0,5.4-7.8c2.562-6.2,1.648-11.95-2.63-16.992a28.151,28.151,0,0,0-6.184-5.2c-7.1-4.6-14.311-9.009-21.493-13.474-.933-.58-1.938-1.046-2.867-1.543C645.924,1146.367,634.123,1164.8,629.4,1173.6Zm41.106-65.674c-1.735,2.572-3.222,4.642-4.57,6.8-3.812,6.1-7.568,12.236-11.337,18.364a.859.859,0,0,0-.047.473,3.7,3.7,0,0,0,.133.547,7.178,7.178,0,0,0,.988.886c8.258,5.19,16.543,10.338,24.784,15.554a14.509,14.509,0,0,0,17.4-1.171,22.931,22.931,0,0,0,4.07-4.677c4.611-6.9,2.923-16.291-4.407-20.409-5.57-3.129-10.855-6.763-16.31-10.1C677.827,1112.112,674.36,1110.169,670.509,1107.922Z"/><path class="cls-1" d="M720.067,1393.726c1.072,1.761,1.751,2.817,2.371,3.906,4.766,8.373,4.758,16.772-.141,25.047a28.967,28.967,0,0,1-20.03,14.328,20.977,20.977,0,0,1-11.316-.977,46.165,46.165,0,0,1-8.666-4.025c-12.4-7.606-24.713-15.368-37.046-23.09-.786-.492-1.492-1.112-2.4-1.8a24.205,24.205,0,0,1,1.085-2.232q25.643-41.087,51.4-82.309c1.127.6,1.987.986,2.781,1.481q18.316,11.423,36.6,22.891a35.615,35.615,0,0,1,4.981,3.734,24.4,24.4,0,0,1,5.986,28.487c-2.837,6.39-7.049,11.472-14.036,13.5a41.332,41.332,0,0,1-7.067,1.036C723.329,1393.836,722.06,1393.726,720.067,1393.726Zm-60.023,11.255a22.2,22.2,0,0,0,1.79,1.379c7.834,4.922,15.658,9.861,23.54,14.707a31.521,31.521,0,0,0,5.192,2.4,14.642,14.642,0,0,0,11.2-.356c5.179-2.14,8.507-6.106,10.492-11.212,2.335-6.007,1.481-11.665-2.667-16.588a26.063,26.063,0,0,0-5.773-4.958c-7.5-4.845-15.12-9.518-22.711-14.227a18.97,18.97,0,0,0-2.389-1.083C675.773,1378.571,661.61,1401.3,660.044,1404.981Zm24.857-39.73c.961.7,1.933,1.5,2.986,2.163,3.915,2.477,7.857,4.912,11.79,7.361s7.863,4.9,11.8,7.342a14.2,14.2,0,0,0,16.559-1.284,22.641,22.641,0,0,0,4.154-4.592c4.433-6.375,3.7-16.1-4.351-20.786-8.143-4.739-16.018-9.937-24.027-14.907a28.549,28.549,0,0,0-2.778-1.355C697.828,1343.233,686.318,1361.829,684.9,1365.251Z"/><path class="cls-1" d="M769.292,1273.936c1.978-4.209,50.179-81.294,52.814-84.459.912.509,1.884,1,2.8,1.571q17.909,11.167,35.792,22.375a38.728,38.728,0,0,1,5.386,3.989,24.258,24.258,0,0,1,5.977,28.462,32.952,32.952,0,0,1-3.639,6.181c-4.454,5.934-10.571,8.55-17.91,8.455-1.1-.014-2.194-.182-3.495-.3-.179,1.614.808,2.5,1.419,3.488a24.326,24.326,0,0,1,3.857,11.708,23.7,23.7,0,0,1-2.973,12.911c-4.413,7.973-10.909,13.182-19.893,15.275a21.59,21.59,0,0,1-12.258-.865,42.668,42.668,0,0,1-8.233-3.831c-12.533-7.7-24.979-15.541-37.447-23.346C770.709,1275.065,770,1274.46,769.292,1273.936Zm35.857-32.377c-4.032,5.218-17.245,26.663-18.64,30.2a21.854,21.854,0,0,0,1.8,1.392q11.556,7.252,23.14,14.46a27.823,27.823,0,0,0,3.813,1.99,16.48,16.48,0,0,0,19.825-4.942,25.276,25.276,0,0,0,3.415-5.727c2.749-6.353,1.611-12.249-2.9-17.345a30.15,30.15,0,0,0-6.276-5.108c-6.838-4.411-13.784-8.654-20.7-12.947C807.56,1242.877,806.448,1242.3,805.149,1241.559Zm5.865-10.01a8.846,8.846,0,0,0,1.232,1.268q12.782,8.026,25.589,16.011a12.871,12.871,0,0,0,6.8,2c7.043.074,11.751-3.59,14.885-9.5,3.758-7.09,1.816-14.5-4.924-18.8-8.211-5.243-16.514-10.342-24.8-15.472a20.353,20.353,0,0,0-2.732-1.159C821.537,1214.546,816.263,1223.06,811.014,1231.55Z"/><path class="cls-1" d="M951.833,1600.5c17.315-28.128,34.669-55.713,52-83.309a6.109,6.109,0,0,1,1.213-1.037,117.64,117.64,0,0,1,11.8,7.2c-.486,30.153-1.408,60.092-1.964,91.115,3.733-3.939,5.529-7.815,7.812-11.333,2.347-3.618,4.507-7.357,6.777-11.026s4.577-7.317,6.864-10.976q3.3-5.286,6.6-10.576c2.287-3.66,4.556-7.33,6.871-10.972,2.3-3.619,4.378-7.392,7.193-11.081a107.2,107.2,0,0,1,10.764,6.748c-.6,1.184-1.082,2.32-1.724,3.354q-8.6,13.847-17.255,27.664-15.331,24.623-30.645,49.257c-.922,1.48-1.905,2.922-2.962,4.537a118.709,118.709,0,0,1-12.057-7.364c-.214-15.069.566-30.061.885-45.059s.653-30.019.979-44.942c-1.226-.563-1.621.2-2.034.848q-1.939,3.028-3.836,6.082-16.455,26.464-32.908,52.93c-1,1.609-2.061,3.181-3.227,4.977A101.472,101.472,0,0,1,951.833,1600.5Z"/><path class="cls-1" d="M363.286,929.894c-5.156,6.877-9.488,14.113-13.975,21.249-4.594,7.307-9.132,14.649-13.725,21.957-4.494,7.15-8.887,14.366-13.548,21.566A79.4,79.4,0,0,1,311.209,988c1.456-3.486,49-79.846,52.426-84.251a47.33,47.33,0,0,1,12.334,7.507c-.255,9.686-.525,19.58-.774,29.474-.254,10.068-.477,20.137-.733,30.2-.25,9.815-.416,19.629-.505,29.336a4.528,4.528,0,0,0,1.072.163,1.136,1.136,0,0,0,.367-.3,2.942,2.942,0,0,0,.326-.349c.192-.255.371-.519.552-.782.091-.132.173-.269.259-.4.257-.4.517-.808.771-1.215L414.657,937.6c.085-.136.166-.274.257-.4a4.237,4.237,0,0,1,.29-.379,2.915,2.915,0,0,1,.34-.337c.123-.1.264-.179.6-.4a99.247,99.247,0,0,1,10.672,6.61c-.527,1.019-.947,1.991-1.5,2.878q-24.508,39.251-49.046,78.483c-.585.935-1.255,1.816-2.046,2.952-4.615-1.676-8.179-4.884-12.34-7.072.345-15.358.736-30.375,1.005-45.394C363.15,959.71,364.03,944.887,363.286,929.894Z"/><path class="cls-1" d="M1108.544,1580.574c4.269,2.671,8.284,4.9,12.161,7.842-.185,7.489-.383,14.985-.551,22.481-.168,7.517-.288,15.035-.461,22.551s-.438,15.03-.566,22.547c-.127,7.45-.354,14.9-.41,22.652,1.915-.6,2.272-1.921,2.893-2.911q16.691-26.63,33.321-53.3c1.356-2.17,2.693-4.353,4.078-6.5.505-.784,1.126-1.494,1.773-2.34a94.271,94.271,0,0,1,10.486,6.576,3.592,3.592,0,0,1,.094.678,1.132,1.132,0,0,1-.158.45q-25.394,40.709-50.8,81.41a14.714,14.714,0,0,1-1.163,1.514c-.093.113-.278.149-.7.362-4.053-1.8-7.718-4.589-11.688-7.024-.23-15.16.654-30.171.921-45.191.265-14.861.652-29.72.983-44.477-1.615-.66-1.9.511-2.357,1.234q-8.045,12.8-16.038,25.624-10.3,16.48-20.6,32.959c-.919,1.469-1.893,2.9-2.93,4.487a65.964,65.964,0,0,1-11.051-6.732c.738-1.323,1.372-2.581,2.115-3.771q19.94-31.957,39.9-63.9c2.624-4.206,5.181-8.454,7.788-12.67C1106.418,1583.765,1107.317,1582.451,1108.544,1580.574Z"/><path class="cls-1" d="M759.271,1479.27a68.156,68.156,0,0,1-10.9-6.979c.515-.977.9-1.83,1.389-2.617q25.5-40.837,51.133-81.84c1.515.849,2.776,1.488,3.97,2.234q18.3,11.417,36.571,22.868c1.218.763,2.433,1.539,3.58,2.4,9.426,7.085,12.856,18.407,8.845,29.478a38.416,38.416,0,0,1-9.562,14.757,24.822,24.822,0,0,1-9.759,5.882,16.505,16.505,0,0,1-9.9.3c-1.36-.4-2.758-.664-4.461-1.066-1.1,5.448-1.315,10.809-1.774,16.144-.465,5.411-1.064,10.811-1.56,16.22s-.935,10.808-1.431,16.581a8.178,8.178,0,0,1-2.274-.52c-3.145-1.892-6.237-3.873-9.31-5.8-.842-1.96-.348-3.886-.151-5.752,1.407-13.344,2.891-26.68,4.332-40.021.084-.78.011-1.576.011-2.686l-24.842-15.529c-1.9.228-2.306,1.592-2.956,2.627q-8.922,14.207-17.785,28.451C761.516,1475.888,760.535,1477.336,759.271,1479.27Zm47.435-74.867c-3.286,3.941-16.812,25.778-18.081,29.166.581.438,1.175.959,1.836,1.373q13.177,8.256,26.372,16.484c.54.337,1.088.668,1.656.956,5.513,2.793,10.95,2.129,15.486-2.044a25.3,25.3,0,0,0,7.1-11.171,14.975,14.975,0,0,0-.485-10.3,15.96,15.96,0,0,0-6.779-7.8c-8.4-5.212-16.767-10.487-25.154-15.723A21.6,21.6,0,0,0,806.706,1404.4Z"/><path class="cls-1" d="M979.819,1405.028c-2.789-1.728-5.352-3.3-7.893-4.9-.928-.585-1.8-1.253-2.541-1.77a3.949,3.949,0,0,1-.125-.71,1.032,1.032,0,0,1,.139-.456q25.118-40.3,50.247-80.6c.422-.677.871-1.34,1.351-1.977a5.691,5.691,0,0,1,.956-.753,20.15,20.15,0,0,1,2.385,1.112q19.539,12.177,39.044,24.407a28.667,28.667,0,0,1,3.857,2.842c8.059,7.191,10.663,16.087,7.847,26.46a36.571,36.571,0,0,1-10.131,16.594,25.663,25.663,0,0,1-3.352,2.71,20.259,20.259,0,0,1-17.325,3.225c-1.05-.271-2.122-.461-3.5-.758-1.26,8.3-1.625,16.418-2.454,24.49s-1.255,16.174-2.4,24.653c-4.5-1.923-8.007-4.572-11.908-7.027,1.265-16,3.462-31.815,4.811-47.977l-25.068-15.7c-1.728.33-2.149,1.656-2.808,2.707q-9.174,14.631-18.317,29.281C981.8,1402.213,980.871,1403.483,979.819,1405.028Zm29.327-45.86c1.4.95,2.552,1.784,3.754,2.538q11.549,7.242,23.117,14.453c.947.591,1.881,1.208,2.864,1.732a13.453,13.453,0,0,0,15.938-1.988,25.243,25.243,0,0,0,6.579-9.866,15.563,15.563,0,0,0-4.672-17.73,22.233,22.233,0,0,0-2.336-1.663q-12.363-7.743-24.747-15.454c-.662-.412-1.386-.725-2.039-1.063C1025.149,1332.564,1012.057,1353.127,1009.147,1359.168Z"/><path class="cls-1" d="M1161.352,1439.742c.918-2.826,1.742-4.912,2.27-7.07,2.034-8.318-.034-15.613-6.182-21.49-10.11-9.665-22.648-10.869-34.322-3.852a40.679,40.679,0,0,0-9.177,7.668,70.55,70.55,0,0,0-13.541,21.367c-2.755,6.949-4.163,14.116-2.487,21.587a24.074,24.074,0,0,0,1.706,5.468c4.558,9.147,11.823,15.006,21.9,16.932,8.515,1.628,18.576-3.019,23.2-10.318,1.022-1.615,2-3.255,3.124-5.078a30.468,30.468,0,0,0-2.64-2.143c-2.825-1.814-5.711-3.534-8.545-5.335-.919-.584-1.749-1.306-2.807-2.107l5.366-8.558c3.992,1.659,22.081,12.908,25.322,15.682-1.591,3.774-24.282,40.081-27.028,43.156l-7.694-4.873,1.87-9.818a14.473,14.473,0,0,0-2.547-.064,32.346,32.346,0,0,1-19.585-3.051,46.8,46.8,0,0,1-15.233-11.466,38.7,38.7,0,0,1-9.571-22.58,50,50,0,0,1,3.856-24.863,74.355,74.355,0,0,1,18.635-26.468,41.782,41.782,0,0,1,24.05-10.884c13.494-1.389,24.815,3.182,34.5,12.31a35.6,35.6,0,0,1,11.31,23.688,31.574,31.574,0,0,1-3.1,16.773,21.681,21.681,0,0,1-1.34,2.086C1168.543,1444.6,1165.182,1441.953,1161.352,1439.742Z"/><path class="cls-1" d="M587.888,1366.891c-19.561-.3-36.936-14.714-40.734-33.848a45.8,45.8,0,0,1,1.291-23.218,69.547,69.547,0,0,1,18.981-30.116,44.084,44.084,0,0,1,30.4-12.305c18.121-.227,35.145,12.535,40.262,29.929a46.006,46.006,0,0,1-1.113,29.216,70.994,70.994,0,0,1-16.158,25.848c-6.878,7.044-15.045,11.845-24.865,13.5C593.285,1366.345,590.578,1366.565,587.888,1366.891Zm12.313-87.723a30.293,30.293,0,0,0-21.233,8.277,64.351,64.351,0,0,0-19,31.088,29.318,29.318,0,0,0,2.411,21.891c5.2,9.839,13.649,14.645,24.628,14.516a29.244,29.244,0,0,0,19.651-7.807,64.549,64.549,0,0,0,19.59-31.8,29.961,29.961,0,0,0-1.5-19.726C619.9,1284.1,608.949,1278.843,600.2,1279.168Z"/><path class="cls-1" d="M333.112,1118.856a45.765,45.765,0,0,1-3.412,17.326,71.334,71.334,0,0,1-16.7,25.492c-10.389,10.067-22.76,14.476-37.19,12.926-15.756-1.692-30.541-14.639-34.767-30.468a45.166,45.166,0,0,1,1.077-27.387,70.225,70.225,0,0,1,19.044-28.983,44.848,44.848,0,0,1,30.1-11.87c14.685-.275,35.379,10.04,40.566,32.034a44.944,44.944,0,0,1,.955,5.185C333,1115.014,333.01,1116.94,333.112,1118.856Zm-81.03,15.651a41.164,41.164,0,0,0,.4,4.772,39.931,39.931,0,0,0,1.62,6.008,26.52,26.52,0,0,0,27.653,17.868,30.611,30.611,0,0,0,18.919-8.421,66.59,66.59,0,0,0,18.506-29.808,28.906,28.906,0,0,0-2.689-23.632c-5.552-9.579-14.078-14.04-25.177-13.471a30.59,30.59,0,0,0-20.113,9.033,69.1,69.1,0,0,0-16.527,25.018A35.022,35.022,0,0,0,252.082,1134.507Z"/><path class="cls-1" d="M472.911,984.311c-2.7,2.767-12.014,17.279-16.481,25.557.194,1.537,1.6,1.887,2.622,2.528q16.245,10.207,32.535,20.341c1.342.839,2.644,1.742,4.183,2.759a17.722,17.722,0,0,1-2.538,4.6c-.955,1.434-1.551,3.156-3.313,4.406-13.214-7.979-26.177-16.4-39.555-24.528-2.9,3.086-4.57,6.739-6.742,10.034q-3.167,4.805-6.1,9.763c-2.006,3.405-4.6,6.489-6.078,10.567,5,3.335,10.072,6.342,15.056,9.48q7.307,4.6,14.629,9.174c5,3.133,10,6.262,14.946,9.355a22.508,22.508,0,0,1-5.282,9.033c-3.53-1.463-29.733-17.553-53.841-33.084-.913-.588-1.733-1.322-2.823-2.163l52.531-84.073a13.462,13.462,0,0,1,2.353.872q25.24,15.726,50.445,31.507a18.658,18.658,0,0,1,1.676,1.375,64.374,64.374,0,0,1-5.5,8.734c-1.173-.6-2.313-1.082-3.35-1.728q-17.508-10.9-34.99-21.843C475.823,986.054,474.328,985.17,472.911,984.311Z"/><path class="cls-1" d="M930.742,1270.5c-2.589,3.044-14.192,21.493-16.157,25.639.711,1.588,2.329,2.111,3.648,2.94q15.829,9.951,31.7,19.828c1.327.831,2.6,1.756,4.128,2.8a61.731,61.731,0,0,1-5.749,8.766c-1.31-.709-2.573-1.311-3.753-2.044q-15.878-9.871-31.734-19.779c-1.349-.841-2.722-1.643-4.27-2.574a12.2,12.2,0,0,0-1.629,1.717q-8.29,13.194-16.513,26.43a17.753,17.753,0,0,0-.859,1.844c3.5,3.007,7.533,4.96,11.236,7.383,3.743,2.449,7.584,4.748,11.38,7.117q5.491,3.426,10.976,6.861c3.768,2.369,7.525,4.754,11.564,7.308-1.027,1.74-1.868,3.229-2.773,4.678-.836,1.339-1.739,2.636-2.769,4.189a21.691,21.691,0,0,1-2.631-1.178q-25.839-16.1-51.648-32.24c-.8-.5-1.532-1.1-2.459-1.766.578-1.114,1.023-2.107,1.583-3.03,19.212-31.681,48.257-77.69,51.131-81.016a3.245,3.245,0,0,1,.476-.047.973.973,0,0,1,.457.091q25.442,15.816,50.873,31.649c.668.416,1.295.9,2.11,1.473-1.136,3.457-3.2,6.2-5.51,9.206-3.625-2.241-7.142-4.4-10.65-6.585q-5.5-3.416-10.979-6.856c-3.524-2.2-7.007-4.472-10.583-6.584C937.807,1274.631,934.588,1271.965,930.742,1270.5Z"/><path class="cls-1" d="M953.272,1483.5l10.758,6.78a27.343,27.343,0,0,1-1.3,2.776q-17.888,28.691-35.818,57.356c-4.039,6.448-9.411,11.228-16.96,13.234a27.337,27.337,0,0,1-13.757.172,60.306,60.306,0,0,1-30.318-18.329,27.5,27.5,0,0,1-4.294-31.234,48.624,48.624,0,0,1,2.605-4.582q17.137-27.464,34.308-54.906c.747-1.195,1.6-2.325,2.578-3.745a105.492,105.492,0,0,1,10.736,6.837c-.456,1.839-1.61,3.19-2.516,4.642q-16.5,26.45-33.022,52.882a42.723,42.723,0,0,0-2.631,4.566,17.677,17.677,0,0,0,.107,15.74c4.032,8.41,16.253,16.209,25.573,16.407a18.034,18.034,0,0,0,15.364-7.374,47.194,47.194,0,0,0,2.64-4q16.528-26.43,33.048-52.866C951.206,1486.521,952.114,1485.234,953.272,1483.5Z"/><path class="cls-1" d="M561.881,1026.931l10.962,6.913c-1.041,1.771-1.884,3.285-2.8,4.753q-16.5,26.448-32.992,52.9a37.865,37.865,0,0,0-3.6,7.264,15.843,15.843,0,0,0,2.129,14.639,32.826,32.826,0,0,0,21.005,14.051c8.056,1.693,14.847-.974,19.6-7.963,2.155-3.172,4.22-6.408,6.254-9.66q14.245-22.769,28.453-45.56c.926-1.482,1.918-2.924,2.986-4.547a89.515,89.515,0,0,1,11.139,6.827c-1.106,1.841-1.981,3.353-2.909,4.833q-16.948,27.015-33.913,54.02c-.595.947-1.207,1.884-1.847,2.8-6.57,9.411-17.311,14.62-30.776,11.026a59.368,59.368,0,0,1-28.6-17.627c-5.181-5.61-8.009-12.258-7.609-20.072a27.294,27.294,0,0,1,2.736-10.6,54.135,54.135,0,0,1,2.783-5.029q17.377-27.88,34.8-55.732C560.269,1029.229,560.926,1028.333,561.881,1026.931Z"/><path class="cls-1" d="M405.966,1154.886c-2.878-2.726-6.249-4.257-9.287-6.257-3.069-2.021-6.263-3.852-9.337-5.866-3.036-1.99-6.369-3.563-9.232-6.224l5.521-8.813c7.865,4.552,15.18,9.362,22.617,13.968q11.414,7.068,22.776,14.222c7.394,4.67,14.9,9.177,22.456,14.151-1.236,2.014-2.206,3.641-3.224,5.237-.764,1.2-1.59,2.353-2.544,3.755-4.941-2.661-9.4-5.75-14.013-8.557s-9.177-5.7-13.933-8.669c-3.413,4.038-5.629,8.47-8.3,12.589-2.607,4.024-5.092,8.127-7.633,12.194q-3.938,6.3-7.878,12.607t-7.888,12.6q-3.814,6.1-7.621,12.2c-2.623,4.188-5.255,8.37-7.852,12.5a37.175,37.175,0,0,1-11.286-6.837C374.724,1204.775,390.42,1179.967,405.966,1154.886Z"/><path class="cls-1" d="M467.54,1297.869l-10.669-6.685c.105-2.078,1.385-3.384,2.283-4.824q20.667-33.154,41.373-66.283c.909-1.458,2.121-2.791,2.479-4.935-9.016-5.894-18.327-11.413-27.667-17.442a90.488,90.488,0,0,1,5.564-8.951,17.107,17.107,0,0,1,2.15.955q31.92,19.914,63.817,39.866a19.822,19.822,0,0,1,1.627,1.285,42.287,42.287,0,0,1-5.623,9.015c-9.471-5.64-18.479-11.65-28.069-17.338-4.257,6.346-8,12.651-11.911,18.841-3.928,6.212-7.787,12.469-11.681,18.7s-7.787,12.468-11.689,18.7S471.727,1291.2,467.54,1297.869Z"/><path class="cls-1" d="M762.508,1167.327l-4.63-3.48a79.122,79.122,0,0,1,6.264-10.115c3.439,1.339,17.892,10.25,21.915,13.509a29,29,0,0,1-2.989,5.218c-.991,1.627-2.046,3.216-3.207,5.03l-5.422-2.711a23.043,23.043,0,0,0-1.755,2.175q-18.193,29.067-36.346,58.159c-.418.669-.762,1.383-1.277,2.327l4.747,3.693c-.59,1.926-1.89,3.532-2.935,5.253-.991,1.631-2.064,3.213-3.229,5.014-4.207-1.51-7.531-4.279-11.147-6.489-3.648-2.229-7.466-4.236-10.968-7.178,1.664-2.71,3.222-5.283,4.82-7.831.5-.792,1.1-1.517,1.754-2.406l5.092,2.663C725.847,1227.131,760.8,1171.264,762.508,1167.327Z"/><path class="cls-1" d="M1257.743,1513.7a30.5,30.5,0,0,1-4.8,7.446l-55.525-34.7c-.174-1.832.941-2.864,1.642-4.043.722-1.214,1.585-2.344,2.506-3.685a15.231,15.231,0,0,1,2.261.932q25.982,16.2,51.933,32.441A22.137,22.137,0,0,1,1257.743,1513.7Z"/><path class="cls-1" d="M743.386,499.633a78.172,78.172,0,0,1-11.994.1c-1.2-.772-1.03-1.832-1.214-2.715-1.548-7.423-6.258-11.789-13.469-13.268a39.23,39.23,0,0,0-18.526.588,13.9,13.9,0,0,0-7.162,4.566c-2.99,3.6-3.623,7.742-2.62,12.187a8.012,8.012,0,0,0,3.893,5.259,74.174,74.174,0,0,0,7.2,3.777c10.654,4.735,21.346,9.387,32.027,14.062a27.384,27.384,0,0,1,8.673,5.887,21.249,21.249,0,0,1,6.358,16.017,26.479,26.479,0,0,1-17.436,24.643,45.2,45.2,0,0,1-9.738,2.387c-8.293,1.063-16.578,1.014-24.716-1.339a36.156,36.156,0,0,1-9.163-4.076,26.03,26.03,0,0,1-12.672-20.394c-.148-1.429-.238-2.866-.275-4.3a5.556,5.556,0,0,1,.425-1.476,10.061,10.061,0,0,1,1.808-.343c3.348-.034,6.7-.016,10.268-.016a30.508,30.508,0,0,1,.776,3.814c.772,10.748,7.264,15.3,16.39,17.16a39.936,39.936,0,0,0,15.736.042,19.8,19.8,0,0,0,12.5-7.383c4.366-5.736,3.75-12.485-1.818-17.034a33.35,33.35,0,0,0-6.892-4.29c-9.254-4.341-18.588-8.512-27.893-12.744-2.035-.926-4.059-1.881-6.117-2.753-11.646-4.937-14.407-13.981-12.511-24.075,1.844-9.813,7.71-16.627,17.239-20.125a44.661,44.661,0,0,1,15.088-2.347,46.112,46.112,0,0,1,16.971,2.583c10.372,3.933,16.906,11.182,18.839,22.269A22.356,22.356,0,0,1,743.386,499.633Z"/><path class="cls-1" d="M1064.9,572.869c-1.717.036-3.618.116-5.519.1-1.417-.009-2.833-.136-4.084-.2-1.865-3.3-36.222-89.775-39.208-98.642a11.6,11.6,0,0,1-.281-2h12.615c1.557,1.164,1.781,3.006,2.393,4.6q11.995,31.328,23.925,62.681c1.309,3.432,2.592,6.875,3.94,10.292a30.178,30.178,0,0,0,1.622,2.953c3.961-9.31,7.114-18.337,10.568-27.242,3.408-8.786,6.7-17.619,10.09-26.411,3.441-8.919,6.657-17.929,10.426-27,2.866-.013,5.56-.044,8.254-.03,1.566.008,3.133.088,4.99.145-.262,1.05-.385,1.817-.643,2.535C1097.527,492.661,1067.22,568.894,1064.9,572.869Z"/><path class="cls-1" d="M400,472.91v9.619c-1.089,1.243-2.443.916-3.672.921-7.993.031-15.985.012-23.978.022-1.579,0-3.158.058-4.509.085-1.458,1.849-1.021,3.675-1.03,5.387-.046,8.472-.021,16.944-.021,25.417q0,25.9,0,51.793c0,1.906-.061,3.812-.092,5.644-2.154,1.346-4.278.74-6.293.78-2.034.04-4.126.352-6.146-.393-.925-2.087-.585-4.186-.587-6.224q-.035-38.125-.031-76.251c0-1.888.311-3.831-.623-5.919-1.153-.1-2.383-.3-3.614-.306-7.833-.029-15.666-.016-23.5-.016H321.01c-1.279-3.483-.713-6.74-.458-10.015,1.736-1.121,3.541-.729,5.243-.734,12.948-.038,25.9-.021,38.845-.021q14.867,0,29.733.009C396.1,472.711,397.819,472.828,400,472.91Z"/><path class="cls-1" d="M426.243,560.662c.813,3.7.463,7.47.2,11.183a29.386,29.386,0,0,1-12.59.235,15.6,15.6,0,0,1-.3-2.181c-.011-3.014.039-6.029.065-8.934A25.989,25.989,0,0,1,426.243,560.662Z"/><path class="cls-1" d="M1116.661,572.1v-11.35c4.119-1.289,8.183-.485,12.121-.609,1.1,3.227,1.21,6.805.452,11.845A33.631,33.631,0,0,1,1116.661,572.1Z"/><path class="cls-1" d="M775.747,560.743c0,2.645.024,5.018-.01,7.391-.018,1.258-.138,2.514-.23,4.092-4.153.751-8.178.312-12.315.248a33.763,33.763,0,0,1-.234-11.705c3.144-1.3,6.339-.538,9.448-.658A15.791,15.791,0,0,1,775.747,560.743Z"/></svg>