<?xml version="1.0" encoding="utf-8"?>
<!-- Generator: Adobe Illustrator 21.0.0, SVG Export Plug-In . SVG Version: 6.00 Build 0)  -->
<svg version="1.1" id="Ebene_1" xmlns="http://www.w3.org/2000/svg" xmlns:xlink="http://www.w3.org/1999/xlink" x="0px" y="0px"
	 viewBox="0 0 1999.3 1289" style="enable-background:new 0 0 1999.3 1289;" xml:space="preserve">
<style type="text/css">
	.st0{fill:#055EA3;}
	.st1{fill:#DF301F;}
</style>
<g>
	<path class="st0" d="M19,1090.4c-5.8-7.8-9.4-16.6-12-25.8c-10.1-34.6-8.6-69.1,0.8-103.5c11.4-41.5,32.9-77.5,60.3-110.2
		c28.9-34.4,62.7-63.1,99.7-88.3c48.8-33.3,101.2-59.7,156.1-81.2c43.4-17.1,87-33.8,128.3-55.7c34-18,66.2-38.5,93.8-65.7
		c29.6-29.2,47.3-64.7,56-105c1.3-6,2.7-11.9,3.9-17.9c1.9-10.1-1.4-19.4-5-28.4c-11.3-27.6-27.2-52.6-43.7-77.2
		c-12.6-18.7-25.8-36.9-39.3-55c-1.6-2.2-2.6-2.5-4.9-0.8c-15.8,11.6-33.8,15.4-53,14.4c-33.2-1.7-61.7-15.3-87.8-34.7
		c-33.7-24.9-59.1-56.6-76.5-94.5c-12.3-26.9-19.3-55.1-16.4-84.9c3.1-30.8,16.4-55.4,45.8-69c15.4-7.1,31.8-8.2,48.3-6
		c36.3,4.8,66.5,22.2,93.8,45.8c24.3,21,43.5,46.1,58,74.6c12.4,24.3,20.2,50.1,20.9,77.5c0.6,21.7-3.6,42.6-16.8,60.6
		c-1.1,1.5-1,2.5,0.2,3.9c9.5,10.7,19.1,21.2,28.3,32.2c26.3,31.4,52.2,63,71,99.8c7.5,14.7,11.2,30.2,11.7,46.7
		c0.4,11.1,1.1,22.3,0.9,33.4c-0.4,35.5-9.1,68.8-25.8,100.1c-16.2,30.5-38.4,56-64,78.7c-36.8,32.7-78.8,57.4-122.9,78.7
		c-28,13.5-57.2,24.2-85.9,35.9c-55.4,22.5-109.7,47.6-160.7,79.1c-35.4,21.9-68.8,46.5-97.3,77.1c-26.8,28.7-47.8,60.9-58.8,99
		c-5.6,19.4-8.3,39.2-7.5,59.4C18.4,1085.8,18.8,1088.1,19,1090.4z"/>
	<path class="st0" d="M256.2,664.8c-69.1,0.3-128.6-54.3-128.8-126.5c-0.2-72.2,57.5-124.9,123-127.6c77-3.2,133.4,57.6,134.9,123.6
		C387,607.8,326.4,665.4,256.2,664.8z"/>
	<path class="st0" d="M977,891.4c23.5-39.7,87.7-33.5,99.6,2.7c5.7-9,12.4-16.9,21.3-22.5c13.3-8.4,28-8.2,42.8-6.1
		c15.4,2.3,27.3,9.7,34.6,23.8c5.4,10.3,7.7,21.6,7.8,33.1c0.3,38,0.1,76,0.2,114c0,4.2-1.5,5.1-5.4,5.6c-12.3,1.3-24.5,1.2-36.8,0
		c-4.4-0.4-5.5-1.9-5.4-6.1c0.2-31.4,0.2-62.8,0-94.3c0-7.3-0.9-14.6-2.9-21.6c-3.1-10.8-11.1-14.4-22.3-13.7
		c-21,1.4-28.1,18.4-28.3,35c-0.5,31.2-0.2,62.3,0,93.5c0,5-1.1,6.7-6.4,7.2c-12.3,1.1-24.5,1.1-36.8-0.1c-3.8-0.4-5-1.6-5-5.5
		c0.1-32.7,0.1-65.3,0.1-98c0-6.7-1-13.3-3.1-19.6c-3.3-9.9-10.7-13.9-22.1-12.4c-17.7,2.4-26.7,13.1-27.8,31.1
		c-1.9,32.3-0.4,64.6-0.9,96.9c0,1.3-0.1,2.7,0,4c0.2,2.2-1.1,3-2.9,3.2c-13.8,1.7-27.5,1.6-41.3,0c-3-0.3-3.2-2.2-3.2-4.6
		c0.1-9.1,0-18.3,0-27.4c0-45.6,0-91.3-0.1-136.9c0-3.5,0.6-5,4.6-5.5c10.6-1.2,21.2-1.1,31.8,0.4c2.8,0.4,3.3,2.3,4,4.4
		C975.1,878,975.8,884.2,977,891.4z"/>
	<path class="st0" d="M412.2,884c8.8-12.2,20.3-17.6,33.3-19.1c17.1-2,33.7,0.4,48.4,10.5c14.2,9.8,22.5,23.8,26.8,40
		c7,26.4,7.4,52.9-3.4,78.6c-9.9,23.7-28.4,38.1-52.4,45.6c-23.8,7.5-48.1,6.1-72.4,2.4c-8-1.2-15.9-3.1-23.7-5.2
		c-3-0.8-4.2-2.1-4.2-5.4c0.1-76.6,0.1-153.2,0-229.8c0-3.8,1.4-5.3,4.8-5.7c12.8-1.4,25.5-1.7,38.3,0.2c3.5,0.5,4.6,1.8,4.6,5.4
		c-0.2,25.3-0.1,50.6-0.1,76C412.2,879.2,412.2,881,412.2,884z M412.2,966.8C412.2,966.8,412.2,966.8,412.2,966.8
		c0,10.8,0.1,21.7-0.1,32.5c-0.1,3.7,1.2,4.9,4.6,5.3c8,1.1,15.9,1.5,23.8-0.1c14.1-2.9,25.4-9.7,30.7-23.9
		c6.6-17.7,6-35.6,1.4-53.7c-5.4-21.5-24.7-25.7-40.4-21.1c-12,3.5-19.7,14.8-19.9,29.1C412.1,945.5,412.2,956.1,412.2,966.8z"/>
	<path class="st0" d="M887.2,916.3c0,38.1,0,76.2,0.1,114.3c0,3.4-0.7,5.1-4.4,6.1c-25.5,7.2-51.6,9.8-77.8,7.8
		c-25.1-1.9-47.4-10.7-62.9-32.2c-9.3-12.9-13.8-27.5-15-43c-1.6-20.4,0.5-40.5,10.4-58.9c14.3-26.7,36.8-41.3,66.8-44.9
		c10.7-1.3,21.2-0.7,31.7,1.3c3.5,0.7,4-0.1,4-3.3c-0.1-20.6,0.1-41.2-0.2-61.8c0-3.8,1.1-5.3,4.7-5.6c12.5-1,24.9-0.9,37.4-0.1
		c3.9,0.2,5.3,1.9,5.3,6.2C887.2,840.1,887.2,878.2,887.2,916.3z M840.1,954.1C840.1,954.1,840.1,954.1,840.1,954.1
		c0-15.1-0.2-30.3,0.1-45.4c0.1-4-1.5-5.1-4.8-5.8c-5.8-1.2-11.6-1.3-17.4-1.2c-15.9,0.1-27.8,7.3-34.7,21.4
		c-9.6,19.5-10,40-2.7,60.3c3.6,10.2,11.5,17,22,20c10.9,3.2,21.9,3,33,0.9c3.5-0.7,4.7-2,4.7-5.8
		C839.9,983.7,840.1,968.9,840.1,954.1z"/>
	<path class="st1" d="M1103.9,1182.9c0-32.1,0.1-64.2-0.1-96.2c0-5.2,1.1-6.8,6.5-7.3c14.4-1.3,28.8-2.9,43.3-2.6
		c16.2,0.3,32.2,1.9,47.4,8.3c29.7,12.4,40.6,37.9,35.7,68c-3,18.5-13.3,32.4-28.8,42.4c-3.6,2.3-4,3.9-1.8,7.6
		c15.1,25.8,29.9,51.7,44.9,77.6c2.1,3.7,1.9,4.9-2.6,5.2c-12.3,0.8-24.6,1.6-36.9,0c-2.6-0.3-4.5-0.9-6-3.5
		c-16.8-30-33.6-59.9-50.6-89.7c-1.7-3,0-3.7,2.1-4.7c8.2-4,16.4-8,23.4-14c15.1-12.9,18.1-37.4,5.8-51.1
		c-7.1-7.9-16.4-10.8-26.8-11.1c-13.7-0.4-13.7-0.5-13.7,13c0,51.3,0,102.6,0,153.9c0,6.9,0,6.7-6.8,7.5c-10.3,1.2-20.6,0.8-30.9,0
		c-3.6-0.3-4.3-1.6-4.3-4.8C1103.8,1248.3,1103.8,1215.6,1103.9,1182.9C1103.8,1182.9,1103.8,1182.9,1103.9,1182.9z"/>
	<path class="st1" d="M1841.5,1149.1c0-21.5,0.1-43-0.1-64.4c0-3.5,0.7-4.9,4.6-5.2c10.8-0.9,21.6-0.9,32.4-0.1c4.4,0.3,5,2.1,5,5.9
		c-0.1,34.3-0.2,68.6,0,103c0.1,12.1,0.3,24.3,2.5,36.3c3.8,20.4,15.9,29.9,36.6,28c15.8-1.5,24.2-9,27.7-24.7
		c4.1-18.4,3.3-37.1,3.4-55.7c0.1-29.1,0.1-58.2,0-87.4c0-4,1.2-4.9,5-5.3c11.3-1.1,22.6-0.9,33.9,0.1c2.4,0.2,3.5,1,3.5,3.6
		c-0.4,43,1,85.9-0.9,128.9c-0.6,13.3-2.7,26.5-8.2,38.8c-8.3,18.8-22.7,30.4-42.6,35c-18,4.2-36.1,4.2-53.9-0.6
		c-24-6.5-38.1-23-44.2-46.7c-3.7-14.5-4.5-29.3-4.6-44.1C1841.4,1179.4,1841.5,1164.3,1841.5,1149.1z"/>
	<path class="st0" d="M1890.6,891.5c20.9-30.6,56.2-33.2,82.5-19.9c14.5,7.3,21,20.6,24,35.9c1.6,8.2,2.1,16.4,2.1,24.8
		c-0.1,34.7-0.1,69.3,0,104c0,4.2-1.3,5.2-5.3,5.6c-12.5,1.2-24.8,1.3-37.3-0.1c-3.7-0.4-5-1.4-5-5.4c0.1-31.6,0.1-63.2-0.2-94.8
		c-0.1-8-0.9-15.8-4.2-23.4c-4-9.3-13-12.6-22.4-12.1c-23,1.3-30.2,18.8-30.6,35.9c-0.7,31.4-0.5,62.9-0.4,94.4
		c0,3.7-1.1,4.9-4.6,5.3c-12.8,1.5-25.5,1.4-38.3,0.1c-3.8-0.4-4.9-1.7-4.9-5.5c0.1-54.5,0.1-109,0-163.5c0-3.8,1-5,4.9-5.4
		c10-1.2,19.8-1.1,29.8,0c4,0.4,5.6,2.4,6.3,5.8C1888.3,879,1889.4,885,1890.6,891.5z"/>
	<path class="st0" d="M1372.9,892c9.2-13,20-22.6,34.7-25.8c20-4.2,39.4-2.8,56,10.9c8.8,7.3,13,17.3,15.6,28.1
		c2,8.4,2.6,17,2.6,25.7c0.1,35.1,0,70.2,0.2,105.3c0,4.1-1.3,5.1-5.3,5.6c-12.3,1.3-24.5,1.2-36.8,0.1c-4.9-0.4-6-2-5.9-6.6
		c0.2-31.7,0.1-63.3,0.1-95c0-7-1.2-13.8-3.6-20.5c-3.9-10.8-12.5-14.5-23.3-13.7c-19.3,1.4-27.5,12.5-30,31.6
		c-2.4,18.5-0.7,37.3-1,55.9c-0.2,14.3-0.2,28.7,0,43c0,3.7-1.1,4.7-4.7,5.1c-12.6,1.4-25.2,1.4-37.8,0c-3.8-0.4-5.1-1.4-5.1-5.4
		c0.1-54.8,0.1-109.6,0.1-164.4c0-2.7,0.5-4.1,3.7-4.6c11-1.6,21.8-1.4,32.8,0.1c2.9,0.4,3.3,2.3,3.9,4.4
		C1371,878.1,1371.8,884.5,1372.9,892z"/>
	<path class="st0" d="M1725.7,864.4c18.3-0.5,35.2,3.7,50.2,14.4c16.7,11.9,25.9,28.6,30.2,48.3c5.3,24.9,4.5,49.6-5.8,73.2
		c-11,25.3-30.9,39.4-58,43.5c-16.1,2.4-32.1,1.8-47.7-3.5c-21.5-7.3-36.2-22-44-42.9c-11.7-31.3-11.1-62.9,3.8-93.1
		c11.1-22.4,30.2-34.9,54.9-38.8C1714.7,864.5,1720.2,864.6,1725.7,864.4z M1691.1,953.9c0.1,13,1,25,6,36.3
		c5.8,13.3,14.6,18.7,30.3,18.5c13.4-0.2,22.6-6.7,27.8-19.3c3.7-8.9,4.8-18.2,5.2-27.7c0.6-14.4-0.3-28.7-5.8-42.4
		c-8.7-21.4-36.3-21-48.1-12.2c-2.8,2.1-5.1,4.7-6.9,7.8C1692.5,927.3,1691.3,940.8,1691.1,953.9z"/>
	<path class="st0" d="M694.6,977c0,17.9-0.1,35.8,0.1,53.6c0,3-0.8,4.2-3.8,5.2c-24.7,7.5-50,10.5-75.7,8.7
		c-15.5-1.1-30.8-3.9-43.9-13.7c-14.9-11.3-19.7-26.8-19.7-44.6c0-29.3,20-44.9,42.9-51.6c16.6-4.9,33.5-4.5,50.4-3.7
		c2.9,0.1,3.2-0.4,3.3-3c0.5-15-7.6-23.6-22.6-25.4c-16.9-2-33,0.3-49,5.2c-1.9,0.6-3.3,1.3-4.4-1.1c-4.3-9.2-8-18.5-8.1-28.9
		c0-3,0.8-4.4,3.7-5.3c21.3-6.6,43.2-9.7,65.4-7.7c17.5,1.5,33.8,6.8,46.2,20.4c9.8,10.7,14,23.7,14.6,37.7
		c0.8,18,0.2,36.1,0.2,54.2C694.3,977,694.4,977,694.6,977z M648.2,984c0-6.3,0-12.7,0-19c0-1.5,0.6-3.1-2.2-3.5
		c-11.8-1.7-23.5-2.3-34.9,1.9c-10.1,3.8-14.8,10.6-14.9,21.1c-0.1,10.3,4,17.3,13.8,20.7c11.7,4,23.8,3,35.9,0.8
		c2.2-0.4,2.3-1.7,2.3-3.6C648.1,996.3,648.2,990.2,648.2,984z"/>
	<path class="st1" d="M1732.8,1078.5c6.1-0.2,12.7,0.6,19.3,1.1c2.6,0.2,3.7,1.3,4.4,3.7c6.4,20.8,13,41.5,19.6,62.3
		c12.4,39.6,24.8,79.2,37.2,118.8c1.8,5.9,3.6,11.8,5.5,17.6c0.8,2.5,0.5,3.5-2.4,3.8c-12.3,1.4-24.5,1.6-36.8,0.1
		c-3.1-0.4-4.3-1.6-5-4.3c-2.8-10.6-5.9-21.1-8.5-31.8c-1-4.3-2.9-5.8-7.4-5.8c-19.3,0.3-38.6,0.2-57.9,0c-3,0-4.4,0.7-5.2,3.8
		c-2.9,11.1-6.2,22.1-9.3,33.1c-0.8,3-1.9,4.5-5.5,5c-10.8,1.3-21.5,1.2-32.3,0c-3.2-0.4-4.2-0.8-3-4.4c16.3-51,32.4-102,48.5-153
		c4.8-15,9.6-30.1,14.2-45.2c0.7-2.4,1.7-3.5,4.3-3.8C1718.9,1079,1725.5,1078.3,1732.8,1078.5z M1731.4,1125.6
		c-0.3,0-0.6-0.1-0.9-0.1c-7.8,26.9-15.5,53.8-23.4,80.7c-0.9,2.9-0.2,3.6,2.8,3.5c13.5-0.1,26.9-0.2,40.4,0.1c4.2,0.1,4-1.4,3-4.6
		c-2.6-8.6-4.8-17.3-7.2-25.9C1741.3,1161.3,1736.3,1143.5,1731.4,1125.6z"/>
	<path class="st1" d="M766.7,1239c2.4-8.4,4.9-16.8,7.2-25.2c11-39.4,22-78.7,33.1-118.1c0.7-2.4,1.3-4.8,2-7.2
		c2.6-8.6,2.6-8.7,11.3-9.5c10.3-0.9,20.6-0.5,30.9,0.4c3.6,0.3,2.9,2,2.2,4.3c-11.6,35.7-23.1,71.4-34.6,107.2
		c-9.6,29.9-19.3,59.7-28.8,89.6c-1.1,3.5-2.7,4.8-6.5,5.3c-12.6,1.4-25.2,1.2-37.8-0.1c-3-0.3-4.4-1.4-5.3-4.1
		c-8-25.3-16.1-50.6-24.2-75.9c-10.4-32.6-20.8-65.1-31.2-97.7c-2.7-8.4-5.3-16.8-8.1-25.1c-0.9-2.7,0.1-3.1,2.4-3.4
		c13.1-1.5,26.2-1.7,39.3,0c2.3,0.3,3,1.3,3.6,3.3c9.9,35.9,19.8,71.7,29.8,107.6c4.5,16.1,8.9,32.3,13.4,48.4
		C765.9,1239,766.3,1239,766.7,1239z"/>
	<path class="st1" d="M582.6,1288.6c-18.8,0.3-36-2.7-52.8-9c-2.7-1-3.6-2.2-3-5.1c1.7-9.4,4-18.5,6.8-27.6c1.2-3.9,2.6-4,5.9-2.7
		c16,6.5,32.6,9.2,49.9,7.6c4.4-0.4,8.6-1.4,12.6-2.9c10-3.9,16.1-10.6,16.6-22c0.5-12.2-5.3-20.1-15.9-25.2
		c-9.9-4.7-20.4-8-30.6-12.2c-11.3-4.6-22.3-9.6-30.1-19.6c-10.4-13.4-11.5-28.9-9.2-44.7c4.3-29.4,26.5-43.9,52.8-47.5
		c23.1-3.2,45.4,0.4,67.3,7.9c2.4,0.8,3,1.7,2.6,4.3c-1.3,8.8-3.8,17.2-7,25.4c-1.3,3.4-2.7,3.9-5.8,2.5
		c-12.2-5.5-25.2-7.2-38.4-7.3c-5,0-10,0.3-14.8,1.8c-8,2.4-12.9,7.8-14,16.4c-1.1,8.8,1,16.2,8.8,21.2c8.3,5.3,17.8,8,26.9,11.6
		c7.7,3.1,15.4,6.3,22.8,9.9c18,8.7,27.3,23.1,29.1,42.7c3.3,37.7-16.1,63.9-53.2,71.9c-2.4,0.5-4.9,1.3-7.3,1.5
		C595.6,1288.1,588.7,1289.2,582.6,1288.6z"/>
	<path class="st0" d="M1529.1,949.2c0-15.3-0.1-28,0.1-40.6c0-3-0.6-4.2-3.8-4c-4.5,0.3-9,0.1-13.5,0.1c-1.7,0-4.1,0.8-4.6-1.7
		c-0.4-2.4-2-4.6,0.2-7.4c15.5-19.5,30.7-39.1,46.1-58.7c4.3-5.5,9-10.7,12.8-16.5c2.4-3.6,5.4-2.7,8.3-2.5c2.6,0.1,1.4,2.6,1.4,4
		c0.1,14,0.2,27.9,0,41.9c-0.1,3.8,1.1,4.7,4.7,4.7c10.7-0.2,21.4,0,32.1-0.2c2.9-0.1,4,0.7,4.5,3.7c1.4,10,1.2,19.9-0.1,29.8
		c-0.4,3.4-2.5,3-4.6,3c-10.7,0-21.3,0.1-32-0.1c-3.3-0.1-4.6,0.6-4.5,4.3c0.2,22.3,0,44.6,0.2,66.9c0.1,6.3,0.9,12.5,3.6,18.4
		c3.2,7,8.7,10.1,16.1,10.5c7.1,0.4,14.3,0.3,21.2-1.5c2.2-0.6,3.1,0.1,3.7,1.9c3.2,10.5,3.7,21.2,3.2,32c-0.1,1.6-0.7,2.4-2.3,2.7
		c-21.1,4.1-42.3,5.7-62.7-2.5c-18.6-7.4-26.8-22.6-29-41.7C1528.3,979.2,1529.6,962.9,1529.1,949.2z"/>
	<path class="st0" d="M1057.3,657.6c32.1,14.8,64.2,29.5,97.4,44.8c-14.5-29.3-28.5-57.5-42.5-85.6c0.3-0.2,0.6-0.5,0.8-0.7
		c22.4,22.2,44.7,44.4,67.1,66.7c0.2-0.2,0.5-0.3,0.7-0.5c-8.1-24.8-16.1-49.7-24.2-74.5c0.2-0.1,0.5-0.2,0.7-0.3
		c8.8,12.4,17.7,24.7,26.4,37.1c20.1,28.6,40.1,57.2,60.3,85.8c2,2.9,2.9,3.7-1.8,4.5c-21.7,3.6-43.6,24.2-44.1,47.8
		c0,2.5,0.3,4.9,1.5,8.6c-51-27.3-100.9-54-150.8-80.7c0.1-0.3,0.2-0.6,0.3-0.9c27.6,5.2,55.2,10.4,83.9,15.9
		c-26-22.8-51.1-45-76.3-67.1C1057,658.2,1057.2,657.9,1057.3,657.6z"/>
	<path class="st1" d="M459.8,1200.9c0,26.3-0.1,52.6,0.1,78.9c0,4.4-1.1,5.8-5.7,6.2c-10.7,0.8-21.3,0.9-31.9,0
		c-3.8-0.3-4.9-1.5-4.9-5.4c0.1-52.8,0.1-105.6,0.1-158.4c0-7.4,1-6.5-6.7-6.5c-13.3,0-26.6,0-39.9,0.1c-3.1,0-4.6-0.5-5-4.2
		c-1.2-9.3-1.3-18.5,0.1-27.9c0.4-2.9,1.2-3.9,4.2-3.9c45.7,0.1,91.3,0.1,137,0c3.1,0,4,1.2,4.4,4c1.1,9.3,1.2,18.6,0,27.9
		c-0.4,3.2-1.6,4.1-4.8,4c-13.8-0.2-27.6,0.1-41.4-0.2c-4.2-0.1-5.6,0.8-5.6,5.4C459.9,1147.6,459.8,1174.2,459.8,1200.9
		C459.8,1200.9,459.8,1200.9,459.8,1200.9z"/>
	<path class="st1" d="M1601.7,1200.5c0,26.5-0.1,53,0.1,79.5c0,4.1-0.8,5.6-5.3,6c-10.7,0.7-21.2,0.9-31.9,0.1
		c-4.1-0.3-5.2-1.6-5.2-5.6c0.1-52.4,0.1-104.8,0.1-157.3c0-1-0.1-2,0-3c0.6-3.5-0.9-4.6-4.4-4.5c-14,0.2-28-0.1-41.9,0.2
		c-3.8,0.1-5-1-5.5-4.8c-1.2-8.8-1.1-17.5,0-26.4c0.4-3.8,1.8-4.8,5.6-4.8c37.3,0.1,74.6,0.1,111.9,0.1c7.7,0,15.3,0.2,23-0.1
		c3.7-0.1,4.8,1.1,5.3,4.7c1.1,9,1.1,17.9,0,26.9c-0.4,3.3-1.5,4.4-5,4.4c-14-0.2-28,0.1-41.9-0.2c-4-0.1-4.9,1.1-4.9,5
		C1601.8,1147.2,1601.7,1173.9,1601.7,1200.5z"/>
	<path class="st1" d="M1397.9,1200.5c0-26.6-0.1-53.3,0.1-79.9c0-3.9-0.9-5-4.8-5c-14.1,0.3-28.3,0-42.4,0.2c-3.2,0-4.3-0.9-4.7-4.1
		c-1.1-9-1.2-17.9-0.2-26.9c0.5-4.3,2.2-5.1,6-5c8,0.2,16,0.1,24,0.1c36.6,0,73.3,0.1,109.9-0.1c3.9,0,5.8,1,6.1,5
		c0.8,9,0.9,17.9-0.2,26.9c-0.4,3.1-1.6,4.1-4.8,4c-13.6-0.2-27.3,0.1-40.9-0.2c-4.6-0.1-6.1,0.8-6.1,5.8
		c0.2,52.7,0.1,105.4,0.3,158.2c0,4.6-1,6.1-5.9,6.4c-10.7,0.7-21.2,0.8-31.9,0c-3.7-0.3-4.6-1.5-4.6-5.1
		C1397.9,1254.1,1397.9,1227.3,1397.9,1200.5z"/>
	<path class="st1" d="M1022.1,1200.6c0,26.6-0.1,53.3,0.1,79.9c0,3.8-0.9,5-4.8,5.3c-11,0.8-21.9,1-32.9,0c-3.9-0.3-4.5-1.6-4.5-5.1
		c0.1-53,0-106,0.2-159c0-4.8-0.8-6.5-6.1-6.3c-13.6,0.5-27.3,0-40.9,0.2c-3.3,0-4.7-0.8-5.1-4.3c-1.1-9.2-1-18.3,0-27.4
		c0.3-3.1,1.5-4.2,4.7-4.2c45.5,0.1,91,0.1,136.5,0c3.4,0,4.4,1.5,4.7,4.3c1,9,1,17.9,0.1,26.9c-0.3,3.3-1.5,4.8-5.3,4.7
		c-13.8-0.3-27.6,0.2-41.4-0.3c-4.8-0.1-5.3,1.6-5.3,5.6C1022.2,1147.7,1022.1,1174.1,1022.1,1200.6z"/>
	<path class="st0" d="M1282.2,954.6c0,27.1-0.1,54.2,0.1,81.3c0,4.3-1.3,5.6-5.6,6c-12,1.1-23.8,1.2-35.8-0.1
		c-3.9-0.4-5.4-1.5-5.4-5.7c0.1-42,0-84,0.2-126c0-4.2-0.8-6-5.4-5.5c-4.5,0.5-9-0.1-13.5,0.2c-2.8,0.1-3.9-1.2-4.3-3.6
		c-1.6-9.9-2-19.8,0.1-29.7c0.5-2.3,1.4-3.3,3.9-3.3c20.7,0.1,41.4,0.1,62.1-0.1c3.9,0,3.7,2.1,3.7,4.7
		C1282.2,900.1,1282.2,927.3,1282.2,954.6C1282.2,954.6,1282.2,954.6,1282.2,954.6z"/>
	<path class="st1" d="M1318.2,1183.2c0,32.5-0.1,64.9,0.1,97.4c0,3.8-0.9,5-4.8,5.4c-11,1.2-21.9,1.1-32.8,0
		c-3.6-0.4-4.6-1.5-4.6-5.1c0.1-36,0.1-71.9,0.1-107.9c0-29.3,0.1-58.6-0.1-87.9c0-3.9,0.9-5.3,5.1-5.7c10.8-1.1,21.5-1,32.4,0.1
		c3.9,0.4,4.9,1.6,4.8,5.4C1318.1,1117.6,1318.2,1150.4,1318.2,1183.2z"/>
	<path class="st1" d="M1211.7,793.5c-0.1-23.6,19.2-42.9,42.8-42.9c23.8,0,43.2,19.2,43.4,42.9c0.1,23.6-19.4,43.2-43.1,43.3
		C1231,836.9,1211.8,817.6,1211.7,793.5z"/>
</g>
</svg>
