<svg id="Ebene_1" data-name="Ebene 1" xmlns="http://www.w3.org/2000/svg" viewBox="0 0 133.228 133.228"><defs><style>.cls-1{fill:#534898;}.cls-1,.cls-2{fill-rule:evenodd;}.cls-2,.cls-3{fill:#fff;}</style></defs><title>tuswiebelskirchen</title><path class="cls-1" d="M66.594,0a66.624,66.624,0,1,0,.02,0h-.02" transform="translate(0 0)"/><path class="cls-2" d="M66.6,7.046a59.577,59.577,0,1,0,.018,0H66.6" transform="translate(0 0)"/><path class="cls-1" d="M66.6,11.42a55.2,55.2,0,1,0,.013,0H66.6" transform="translate(0 0)"/><path class="cls-2" d="M66.615,76.708l19.9,34.483,7.751-5.394a47.99,47.99,0,0,0,14.5-62.215l-14.1,0A36.263,36.263,0,0,1,90,94.285L66.615,53.8v.291L43.231,94.577a36.263,36.263,0,0,1-4.669-50.7l-14.1,0a47.991,47.991,0,0,0,14.5,62.215l7.751,5.394L66.615,77Z" transform="translate(0 0)"/><path class="cls-3" d="M44.3,23.069H56.232V26.95H52.3v16.8H48.133V26.95H44.3Z" transform="translate(0 0)"/><path class="cls-3" d="M58.595,28.454h4.049v7.368a9.791,9.791,0,0,0,.309,2.988,2.615,2.615,0,0,0,.993,1.3,2.931,2.931,0,0,0,1.684.464,3.036,3.036,0,0,0,1.7-.457,2.686,2.686,0,0,0,1.037-1.343,9.873,9.873,0,0,0,.25-2.826V28.454h4.006v6.482a15.3,15.3,0,0,1-.66,5.483,6.04,6.04,0,0,1-2.377,2.763,7.528,7.528,0,0,1-3.991.963,7.308,7.308,0,0,1-4.248-1.125,5.951,5.951,0,0,1-2.282-3.136,18.243,18.243,0,0,1-.469-5.062Z" transform="translate(0 0)"/><path class="cls-3" d="M88.408,25.881l-3.043,2.573q-1.6-2.137-3.263-2.137a2.042,2.042,0,0,0-1.323.415,1.194,1.194,0,0,0-.515.935,1.559,1.559,0,0,0,.368.984,27.407,27.407,0,0,0,3.013,2.658Q86,33.192,86.5,33.684A8.27,8.27,0,0,1,88.268,36a5.573,5.573,0,0,1,.521,2.412,5.418,5.418,0,0,1-1.836,4.2,6.866,6.866,0,0,1-4.788,1.659,7.352,7.352,0,0,1-4.017-1.083,8.643,8.643,0,0,1-2.931-3.4l3.453-2q1.559,2.742,3.586,2.742a2.707,2.707,0,0,0,1.777-.591,1.732,1.732,0,0,0,.721-1.364,2.3,2.3,0,0,0-.544-1.406,15.434,15.434,0,0,0-2.4-2.151,23.711,23.711,0,0,1-4.557-4.253,5.254,5.254,0,0,1-1.028-2.988,4.8,4.8,0,0,1,1.711-3.691,6.084,6.084,0,0,1,4.224-1.54,6.9,6.9,0,0,1,3.077.717A11.112,11.112,0,0,1,88.408,25.881Z" transform="translate(0 0)"/></svg>