<svg id="Ebene_1" data-name="Ebene 1" xmlns="http://www.w3.org/2000/svg" viewBox="0 0 300 91.626"><defs><style>.cls-1{fill:#fbf10b;}.cls-2{fill:#32358e;}.cls-3{fill:#818284;}</style></defs><title>tvdillingen</title><g id="MNC6kv"><path class="cls-1" d="M222.841,49.4c-1.134.212-2.26.512-3.4.621-12.565,1.2-25.2,1.089-37.773,1.933-8.506.571-17.054.606-25.509,1.487-9.847,1.026-19.73,1.8-29.54,3.05-12.116,1.541-24.324,2.537-36.335,4.64-8.477,1.484-17,2.941-25.36,5.406-6.7,1.977-13.45,3.7-19.877,6.492a23.167,23.167,0,0,0-5.581,3.149c-3.89,3.185-3.51,7.342,1.05,9.343,1.651.724,3.07,1.845,4.764,2.413a54.088,54.088,0,0,1,5.148,1.792c-10.6,1.1-21.12,3.412-31.852,1.091C14.339,89.9,9.8,90.9,5.722,88.711A30.345,30.345,0,0,1,3.106,87.16c-3.959-2.67-4.192-6.295-.362-9.087,5.18-3.777,11.093-6.043,17.187-7.991,7.726-2.471,15.736-3.7,23.555-5.764,6.174-1.631,12.643-2.117,18.875-3.568,7.993-1.861,16.231-2.13,24.192-4.087a4.852,4.852,0,0,1,1.148-.172c6.809.011,13.515-1.362,20.187-2.266,7.138-.967,14.468-.2,21.441-2.391a2.344,2.344,0,0,1,.771-.071c10.583.364,21.014-1.656,31.576-1.93,19.5-.505,38.971-1.825,58.49-1.512l1.237.029Z" transform="translate(0 -0.187)"/><path class="cls-2" d="M196.8,52.365c31.2-1.244,62.408-1.445,93.614-.086l.072.765c-13.462.61-26.932.762-40.406.767-5.357-.065-10.727-.561-16.054.449l-13.31.406-1.648.046-1.358.015c-3.145-.017-6.327-.573-9.389.638l-25.655,1.626c-1.307-.18-2.622-.419-3.785.5-16.025,1.542-32.083,2.672-47.994,5.386-13.084,2.232-26.105,4.491-38.472,9.534a21.925,21.925,0,0,0-5.958,3.477c-3.331,2.806-3.364,5.06.008,7.894,2.712,2.279,6.12,3.2,9.291,4.58.552.24,1.121.44,2.218.867-9.938,1.441-19.3,1.257-28.668.875a3.055,3.055,0,0,0-3-.4,34.626,34.626,0,0,1-15.6-3.876c-4.919-2.637-5.191-6.191-.6-9.423,6.671-4.7,14.384-6.858,22.179-8.619,16.083-3.632,32.333-6.348,48.651-8.736,16.475-2.411,33.057-3.676,49.618-5.173,6.292-.569,12.629-.647,18.946-.949C191.96,53.062,194.434,53.407,196.8,52.365Z" transform="translate(0 -0.187)"/><path class="cls-3" d="M98.3,29.932a3.774,3.774,0,0,0-.053.74c.152,1.258,2.75-.34,2.054,1.572-.588,1.617-2.214,1.779-3.8,1.4-.094-.269-.039-.793-.563-.332l.618.281c-.2,1.36-1.184,1.58-2.316,1.579l-.073-.07a1.374,1.374,0,0,1,.018-.753L94.757,34l-.45-.171-.049.58a1.162,1.162,0,0,0-1.635.761l.066-.053c-.511.048-.888.23-.833.84l.049-.057c-1.932,1.188-3.951,2.288-4.59,4.616-1.33-.2-2.351,0-2.9,1.413,1.366.283,2.114-.478,2.9-1.413,2.219-.876,4.521-1.824,6.154-3.841l-.065.054c1.45.255,2.355-.89,3.527-1.347,1.078-.421,1.988-2.015,3.373-.769.762.686.146,5.3-.773,5.676-9.122,3.767-16.575,10.5-25.576,14.433-5.047,2.208-10.215,2.836-15.073-.74-3.9-2.868-3.766-6.452.345-9.574l.081.068v3.981a4.077,4.077,0,0,0,3.24-.641c2.406-1.272,5.517-.739,7.872.739,2.207,1.386,3.184-1.306,4.572-2.194,1.105-.707-.381-1.379-1.1-1.771-1.692-.926-3.445-1.745-5.116-2.705a9.118,9.118,0,0,0-5.941-1.476c2.325-2.463,3.946-4.891,7.384-2.916.6.347,1.217-.19,1.736-.579l.685.7c-.315,1.253.27,1.624,1.416,1.445L74,39c.6,1.426,1.816,1.613,3.152,1.55a2.886,2.886,0,0,0,3.151,1.512,1.109,1.109,0,0,0,.033.3c.022.056.116.084.177.124l-.264-.381q-.007-.767-.013-1.534a.831.831,0,0,0,.892-.658l.888-.647c.421-.226.806-.471.518-1.048,1.308.285,1.992-.382,2.352-1.542,1.032-.068,2.2.149,2.61-1.233l.793-.818a1.813,1.813,0,0,0,1.475-.8c.387-.242.97-.387.511-1.043a1.032,1.032,0,0,0,1.6-.765c1.209-.767,3.293.692,3.925-1.543l-.055.049c.476-.075.878-.223.821-.827l-.04.04,1.466-.126Q98.148,29.769,98.3,29.932Z" transform="translate(0 -0.187)"/><path class="cls-3" d="M101.217,18.043a7.021,7.021,0,0,0-4.7,3.938l.062-.051c-1.284-.2-1.951.536-2.4,1.6l.059-.049c-.52-.132-1.581.349-1.357-.693a5.63,5.63,0,0,1,2.238-3.923c3.37-2.055,4.63-6.444,8.737-7.746.8-.255,1.426-1.466,1.877-2.364.623-1.242-.315-2.2-.982-3.122-.471-.655-.995-.562-1.587-.02-2.557,2.339-5.59,4.316-7.6,7.05-1.99,2.707-4.666,3.89-7.191,5.738-.438-1.111.074-1.539.317-2.113,1.447-3.405,4.6-5.751,5.748-9.292.292-.9,1.571-2.183-.094-2.925-1.209-.539-2,.364-2.845,1.322A95,95,0,0,0,83.766,15.1c-.731-1.594.4-2.9-.408-4.044l-.037.058c1.334.287,1.235-.792,1.351-1.521C84.838,8.547,84,8.96,83.5,8.911l-.208-.2c1-1.765,1.892-3.6,3.008-5.28C88.387.29,91.39-.48,95.152.731c2.791.9,5.528,2.1,8.573,2.018A4.43,4.43,0,0,1,107.517,4.3c1.334,1.689,3.126,2.111,5.141,2.126,1.9.015,3.8.524,4.472,2.414.978,2.769,3.073,3.038,5.46,3.259,2.14.2,4.382.256,4.361,3.524-.013,2.037,2.018,1.4,3.3,1.731,1.994.521,5.223-.035,3.808,3.91-.336.936.3,1.313,1.181,1.554,2.113.579,1.315-1.888,2.471-2.272-.639,2.152.736,2.933,2.4,3.519-.751.48-1.536.912-2.245,1.448-2.373,1.791-4.529,2.709-6.723-.431a9.257,9.257,0,0,0-3.678-2.686c-2.507-1.17-.337-1.679.52-2.8-3.408.516-5.546-.406-5.5-4.037.01-.819-.679-1.327-1.6-1.294-3.415.125-6.992-1.732-10.218.839-.159.127-.5.028-.752.034l-.2-.187c-.422-1.314-1.6-.343-2.313-.761l.027.025-.589-.544-.237.559.065-.059c-1.134.035-2.088.338-2.4,1.606l.063-.057c-.542.017-.895.222-.833.838l.062-.054a2.165,2.165,0,0,0-2.4,1.6Zm10.09-7.7c-.464.053-.866.167-.771.776-.53-.01-.9.144-.771.781l-1.046.118.15.457.837-.626a.838.838,0,0,0,.779-.779c.513-.008.79-.249.769-.782.512-.007.873-.166.777-.78l.941-.257c-.061-.1-.108-.258-.186-.275-.463-.1-.568.263-.7.584A.756.756,0,0,0,111.307,10.341Zm25.289,14.3c-.237-.083-.46-.238-.656-.21-.215.031-.717-.138-.547.393.032.1.423.137.635.109A1.948,1.948,0,0,0,136.6,24.639Z" transform="translate(0 -0.187)"/><path class="cls-2" d="M104.341,21.01c5.271.037,10.556-.4,15.8.6a16.838,16.838,0,0,1,9.641,5.249c3.977,4.393,2.834,10.605-2.48,13.2a16.642,16.642,0,0,1-7,1.975c-6.423.087-12.847.029-18.588.029,3.083-6.432,1.824-13.221.925-19.98C102.878,21.209,103.736,21.31,104.341,21.01Zm7.7,1.489c-2.425.09-3.349,1.348-3.184,3.744.149,2.175.032,4.369.033,6.554,0,8.486,0,8.486,8.587,7.622a5.116,5.116,0,0,0,1.147-.109c3.2-1.115,6.373-2.322,7.236-6.143.89-3.936-1.106-6.645-4-8.922a15.8,15.8,0,0,0-5.974-2.524A3.244,3.244,0,0,0,112.043,22.5Z" transform="translate(0 -0.187)"/><path class="cls-2" d="M221.4,48.348l-1.237-.029c-.542-.313-1.068-.656-1.628-.934-1.649-.818-2.293-1.693-.258-2.844.986-.558,1.951-1.154,3.124-1.85.137,2.8,1.914,3.934,4.155,4.456a18.451,18.451,0,0,0,10.629-.5c1.024-.37,2.388-.831,2.226-2.3-.175-1.583-1.588-1.95-2.866-2.04-2.441-.174-4.906-.041-7.343-.252-3.352-.29-6.613-1-9.221-3.371-4.314-3.924-3.122-9.529,2.462-11.268a38.779,38.779,0,0,1,11.072-1.382c3.093-.043,6.187-.009,9.695-.009-2.763,2.329-1.692,5.292-1.786,7.991-.1,2.851-.8,5.9,2.389,7.965,2.053,1.327,1.313,3.153-.174,4.545a19.343,19.343,0,0,1-2.891,1.9l-1.843.092a3.954,3.954,0,0,0-3.522.677,25.556,25.556,0,0,1-8.759.011C224.373,48.157,222.88,48.3,221.4,48.348Zm.452-15.511a2.347,2.347,0,0,0,.4,3.165,9.168,9.168,0,0,0,6.526,4.333c5.86,1.083,6.354.634,6.326-5.274-.008-1.545.056-3.1-.051-4.635-.092-1.318-.471-2.44-2.064-2.86A9.725,9.725,0,0,0,221.856,32.837Z" transform="translate(0 -0.187)"/><path class="cls-2" d="M187.912,26.534c2.421.656,5.271-1.95,6.861,1.817.47,1.115,1.564,0,2.323-.331,2.718-1.186,5.452-2.307,8.5-2.177,4.185.178,5.77,1.787,5.859,5.984.041,1.934.061,3.871,0,5.8-.056,1.721.124,3.3,2.579,4.5h-8.6c1.317-3.936.58-7.861.61-11.745a2.234,2.234,0,0,0-1.609-1.992c-3.922-1.692-9.335,1.788-9.3,6.115.02,2.527-1.017,5.309,1.544,7.611h-7.958C190.374,38.287,189.976,29.232,187.912,26.534Z" transform="translate(0 -0.187)"/><path class="cls-2" d="M63.2,20.987l4.6.027.894,1.044c-4.093,5.475-6.741,11.807-10.428,17.505-.747,1.155,1.321,2.388-.279,2.592a29.888,29.888,0,0,1-7.3-.164c-.24-.029.62-2.12-.224-3.513-2.252-3.72-4.139-7.662-6.179-11.51-.9-1.689-1.458-3.573-2.895-4.945a6.789,6.789,0,0,1,7.12.129c.32,4.193,3.286,7.285,4.618,11.063a38.553,38.553,0,0,0,1.98,4.083c.045.214.025.558.147.618.4.2.7.04.786-.43C58.2,33.463,60.39,29.456,62.493,25.4c.534-1.029,1.729-2.03.646-3.4Z" transform="translate(0 -0.187)"/><path class="cls-2" d="M25.942,42.216H17.208c2.739-1.1,3.275-2.659,3.256-4.576-.04-4.264-.114-8.534.055-12.792.082-2.081-.808-2.329-2.513-2.181-3.414.3-6.674.86-9.05,4.561.569-5.859.969-6.255,5.688-6.264q8.136-.014,16.272-.006c5.285,0,5.285.006,6.882,6.461-2.816-3.733-6.169-4.6-9.854-4.775-1.5-.07-2.064.354-2.021,1.912.147,5.29.185,10.582.264,15.874Z" transform="translate(0 -0.187)"/><path class="cls-2" d="M297.061,38.111c.309,1.481.335,3.109,2,4.024H290.9c2.269-3.871.947-8.007,1.008-12.013.015-1.008-1.122-1.6-2.2-1.882a6.989,6.989,0,0,0-8.865,6.878c.026,2.31-.944,4.923,1.5,6.751-1.281.706-2.6.283-3.863.357s-2.557.016-3.7.016a27.859,27.859,0,0,0-.075-15.427c1.8.359,5.223-2.651,6.069,2.53a19.387,19.387,0,0,1,8.761-3.418c5.33-.765,7.579,1.3,7.557,6.671A10.4,10.4,0,0,0,297.061,38.111Z" transform="translate(0 -0.187)"/><path class="cls-2" d="M269.731,38.35c-.314,2.946-1.873,3.76-4.873,4.1-5.027.566-9.733.242-14.278-1.907-2.831-1.339-5.066-3.369-4.931-6.75.133-3.333,2.392-5.292,5.319-6.469,5.523-2.222,11.031-2.475,16.314.64,1.015.6,2.583,1.464,2.226,2.854-.28,1.091-1.891,1.031-3.009,1.238q-7.182,1.33-14.375,2.676c2.183,6.619,10.285,8.026,17.281,3.089A.5.5,0,0,0,269.731,38.35ZM251.7,32.564a39.714,39.714,0,0,0,12.158-2.182c-2.538-2.813-5.024-3.727-8.092-2.685C253.512,28.463,251.63,29.734,251.7,32.564Z" transform="translate(0 -0.187)"/><path class="cls-2" d="M114.5,70.093c4.753-.012,9.508-.083,14.26,0,1.594.026,3.751-.22,4.192,1.832.472,2.191-1.739,2.454-3.18,3.155a12.81,12.81,0,0,0-1.24.836,13.983,13.983,0,0,1,4.849,1.916,3.852,3.852,0,0,1,2.052,4.2c-.595,3-2.814,3.683-5.479,3.626a4.656,4.656,0,0,0-3.233.383l-1.289.017-.128-1.2c2.543-.408,5.673-.6,5.926-3.764.236-2.947-2.9-4.159-5.047-4.417-2.225-.267-5.506-.877-6.557,2.688a4.883,4.883,0,0,0-.036,4.622c.229.91,1.06.779,1.7.981-1.34,1.294-3.266.067-4.67,1.084l-1.26,0-.417-.76c.34-4.844,1.195-9.706-.491-14.481A2.587,2.587,0,0,1,114.5,70.093Zm9.573.987c-.761,0-1.151-.038-1.531.007-.961.114-2.248-.355-2.648.953-.37,1.209-.643,2.668.108,3.715.725,1.01,1.844.063,2.784-.156a8.592,8.592,0,0,0,1.509-.29c1.474-.65,4.067-.787,3.876-2.536C127.934,70.635,125.366,71.3,124.069,71.081Z" transform="translate(0 -0.187)"/><path class="cls-2" d="M170.271,74.1c4.693-.538,1.021-2.96,1.026-4.554,4.624-.488,4.517-.484,4.685,4.248.144,4.049-.792,8.213.8,12.3-3.836-.084-7.943.289-12.05-.282-4.238-.589-6.486-2.212-6.827-5.013-.382-3.136,1.209-4.847,5.927-6.378,1.072.468,2.493-.222,3.335,1.007-.254.044-.51.079-.762.135-2.279.5-4.165,1.509-4.505,4.077-.254,1.914.931,3.178,2.436,4.039a9.466,9.466,0,0,0,7.49.831c1.671-.5.451-7.651-1.454-9.041Z" transform="translate(0 -0.187)"/><path class="cls-2" d="M157.827,42.138h-8.274c2.175-3.687,1.655-19.324-.784-21.562l7.09-.907c0,5.882-.013,11.7.006,17.527C155.874,39.944,155.9,39.944,157.827,42.138Z" transform="translate(0 -0.187)"/><path class="cls-2" d="M170.089,42.1H162.8c1.788-4.637,1.154-19.279-.858-21.343a1.97,1.97,0,0,1,.645-.359c6.209-.753,6.21-.75,6.209,5.427,0,3.987.009,7.974-.015,11.961C168.771,39.357,168.684,40.924,170.089,42.1Z" transform="translate(0 -0.187)"/><path class="cls-3" d="M71.958,36.912c.111-1.481,2.113-2.352,1.331-4.121l-.055.046c1.693.263,1.706-1.358,2.436-2.174-.53-.246-1.042-.645-1.652-.188l.056.05c.449-1.011-.344-2.122.638-3.215,3.355-3.733,4.666-8.45,5.931-13.174A11.518,11.518,0,0,1,83.3,8.716l.208.2-.183,2.2.037-.058c-1.4,1.478-1.146,3.571-1.956,5.281-.791,1.671,1.767,2.208,1.429,3.787l1.6-.937.6.554c-.017.545-.312,1.208.58,1.367a1.927,1.927,0,0,0,.549.447c-.071,1.3-1.7,2.055-1.225,3.542-2.066,1.355-4.044-1.2-6.414-.36.528,1.681,4.837.96,2.271,3.9-2.264.481-3.308,2.026-3.649,4.184-.743.222-.834.829-.868,1.469-.351.143-.772.411-.42.748s.566-.154.733-.451c.526-.488,1.223-.925.534-1.778l3.05.086c.048.543.444.637.879.682-.143.822-1.084,1.358-.831,2.323-.534-.047-.759.251-.817.734a.783.783,0,0,0-.81.745C76.524,36.4,75.977,39.72,74,39l.057.054c.032-1.048,1.47-1.676.916-2.938-1.239-.155-1.446,1.2-2.332,1.493Zm5.167-8.765-.669.8.425.307q.141-.536.281-1.073l.556-.266-.318-.355Z" transform="translate(0 -0.187)"/><path class="cls-2" d="M145.357,75.077A13.989,13.989,0,0,0,138.5,77.9c.028-2.4.392-3.692,2.927-3.771,2.835-.088,5.665-.34,8.51-.223s4.067,1.56,4.189,4.428c.109,2.577-1.031,5.406,1.656,8.226a23.86,23.86,0,0,0-12.579-.152,6.184,6.184,0,0,1-2.694-.1c-1.627-.385-3.46-.858-3.533-2.927-.062-1.733,1.273-2.644,2.8-3.278a40.5,40.5,0,0,1,7.838-2.022c.782-.155,2.05.286,2.215-.957.175-1.326-1.013-1.609-2-1.927A1.931,1.931,0,0,0,145.357,75.077Zm-1.924,9.744c2.2.089,3.544-.179,4.741-1.051,1.263-.921,2.058-2.322,1.567-3.636-.593-1.586-2.191-.61-3.331-.4a11.632,11.632,0,0,0-3.254,1.063c-.964.5-2.313,1.025-2.044,2.444C141.419,84.867,142.94,84.762,143.432,84.822Z" transform="translate(0 -0.187)"/><path class="cls-2" d="M265.682,73.944c3.6-.194,7.192-.486,10.3,2.014,3.172,2.555,3.207,5.816-.01,8.344-3.436,2.7-11.413,2.937-14.942.355-1.586-1.161-3.084-2.71-2.836-4.761.387-3.2,2.952-4.6,5.7-5.625.495.353,1.073.634,1.126,1.353-2.753,1.81-3.192,4.3-1.617,6.971,1.558,2.644,4.028,3.325,7,2.422a4.827,4.827,0,0,0,3.758-5.106c-.058-2.838-2.214-4.544-5.852-4.918a14.542,14.542,0,0,0-1.543,0C266.286,74.757,265.755,74.584,265.682,73.944Z" transform="translate(0 -0.187)"/><path class="cls-2" d="M200.2,76.447c-2.7,2.011-1.819,4.909-1.873,7.575-.649,2.667-2.735,1.276-4.247,1.5.1-1.917.231-3.833.3-5.751.083-2.152.066-4.238-2.99-4.213-3.074.025-5.334,1.612-5.473,4.2-.1,1.892-.371,3.855.486,5.689l-4.627.059-.007-9.771c.694-1.6,2.18-.982,3.366-1.2l.05.043.514.812c.808,1.468,1.594.125,2.166-.159,3.877-1.929,7.538-2.153,10.945.956Z" transform="translate(0 -0.187)"/><path class="cls-2" d="M183.222,42.139h-7.047a30.362,30.362,0,0,0-.118-14.933.669.669,0,0,1,.348-.249c5.592-.915,5.465-.908,5.626,4.681C182.13,35.111,181.067,38.754,183.222,42.139Z" transform="translate(0 -0.187)"/><path class="cls-2" d="M144.051,42.234c-1.792,0-3.584.007-5.376,0-.5,0-1.007-.063-1.527-.1a37.613,37.613,0,0,0,.314-13.276c-.38-2.888,1.425-2.073,2.542-2.2,1.246-.146,3.254-1.211,3.123,1.691-.139,3.082-.042,6.174-.023,9.262C143.112,39.124,142.722,40.765,144.051,42.234Z" transform="translate(0 -0.187)"/><path class="cls-2" d="M256.633,85.042c-1.817,2.239-4.217,1.608-6.353.965s-1.649-2.81-2.028-4.55c-.444-2.038,1.713-4.724-1.389-6.127.733-1.194,2.377-1.871,2.071-3.654l.49-.822c.731-.367,1.386-.992,2.317-.686.1,1.213-.355,2.488.4,3.629,1.069.759,2.546-.1,3.738.984-.881,1.367-2.238.515-3.271.8-1.264.549-.807,1.505-.569,2.409l.047,2.727a1.917,1.917,0,0,0,.27,2.508c.605,2.324,2.383,1.372,3.822,1.368Q256.408,84.813,256.633,85.042Z" transform="translate(0 -0.187)"/><path class="cls-2" d="M294.869,77.2c-2.086-3.218-4.671-.86-7.065-.632q-.218-.182-.419-.384c1.161-1.6,2.973-1.894,4.7-2.168,5.259-.838,6.611.436,6.639,5.822.01,1.9.287,3.805.442,5.708-1.566-.206-3.68.956-4.261-1.708l.069-1.28a5.087,5.087,0,0,0,.019-3.107l-.058-1.522c.055-.08.169-.174.153-.236A2.915,2.915,0,0,0,294.869,77.2Z" transform="translate(0 -0.187)"/><path class="cls-2" d="M231.242,75.881a7.57,7.57,0,0,1,4.148-1.8c5.427-1.065,7.019.282,7.037,5.768.005,1.666.121,3.332.185,5-1.246,1.291-2.808.611-4.25.684.084-1.9.25-3.806.236-5.708-.033-4.249-.914-4.877-5.027-3.782-.61.162-1.239.258-1.859.384Z" transform="translate(0 -0.187)"/><path class="cls-2" d="M206.634,84.858c.068-1.636.2-3.273.191-4.909-.019-4.156-.314-4.4-4.648-4.237l-1.636-.417a7.678,7.678,0,0,1,4.734-1.4c4.247-.1,5.272.9,5.351,5.087.041,2.189.181,4.376.276,6.565C209.464,85.41,207.877,86.2,206.634,84.858Z" transform="translate(0 -0.187)"/><path class="cls-2" d="M287.8,76.569c-2.212,2.773-.919,5.972-1.092,8.992l-4.528-.117c.582-3.771,1.222-7.548-.819-11.152,2.459-1.21,4.17.579,6.021,1.894Q287.585,76.387,287.8,76.569Z" transform="translate(0 -0.187)"/><path class="cls-2" d="M231.713,76.422c-2.714,2.682-1.481,5.988-1.439,9.105l-4.28.03q0-4.934,0-9.868l.282-1.554c2.236-1.069,3.184,1.525,4.966,1.747Z" transform="translate(0 -0.187)"/><path class="cls-2" d="M220.993,86.087h-5.107c.91-3.789,1.448-7.5-.427-11.252.752-.176,1.627-.337,2.474-.588,1.808-.537,2.2.3,2.236,1.946C220.235,79.478,219.608,82.824,220.993,86.087Z" transform="translate(0 -0.187)"/><path class="cls-3" d="M96.513,21.981c.565.138,1.815.327,1.4.727-1.813,1.756.3,3.158.142,4.7l.058-.053c-1.357.242-2.056.922-1.59,2.381l.04-.04c-.784-.231-1.068.035-.821.827l.055-.049c-2.181.071-4.486.55-5.957-1.766.942-2.213,4.191-2.442,4.393-5.232l-.059.049c1.316.244,1.979-.493,2.4-1.6Z" transform="translate(0 -0.187)"/><path class="cls-2" d="M178.839,19.532c1.573.291,3.065.407,3.247,2.237.208,2.086-1.541,2.176-2.8,2.221-1.3.047-3-.1-3.123-1.986C176.038,20.071,177.82,20.114,178.839,19.532Z" transform="translate(0 -0.187)"/><path class="cls-2" d="M140.108,24.066c-1.66-.586-3.036-1.366-2.4-3.519a5.271,5.271,0,0,1,1.324-.765c1.785-.419,3.6-.2,4.079,1.785C143.68,23.908,141.464,23.631,140.108,24.066Z" transform="translate(0 -0.187)"/><path class="cls-2" d="M220.637,70.728a1.911,1.911,0,0,1-2.131,1.7c-1.161-.021-2.444.072-2.554-1.56-.09-1.34.861-1.722,1.988-1.785A2.351,2.351,0,0,1,220.637,70.728Z" transform="translate(0 -0.187)"/><path class="cls-2" d="M234.029,54.259c5.327-1.009,10.7-.513,16.054-.449Z" transform="translate(0 -0.187)"/><path class="cls-2" d="M48.514,22.152a6.789,6.789,0,0,0-7.12-.129c-.375-.08-.9-.036-1.092-.267-.353-.433-.276-1.076.406-1.084,2.821-.036,5.644-.005,8.465.061.712.017.762.618.414,1.052C49.388,22.034,48.882,22.038,48.514,22.152Z" transform="translate(0 -0.187)"/><path class="cls-2" d="M116.614,86.055c1.4-1.018,3.33.209,4.67-1.084l4.015-.11.128,1.2A29.418,29.418,0,0,1,116.614,86.055Z" transform="translate(0 -0.187)"/><path class="cls-2" d="M167.166,75.427c-.842-1.229-2.263-.539-3.335-1.007,2.108-.89,4.275-.582,6.44-.32l.1,1.367Z" transform="translate(0 -0.187)"/><path class="cls-2" d="M208.324,55.363c3.062-1.211,6.244-.655,9.389-.638C214.643,55.82,211.467,55.344,208.324,55.363Z" transform="translate(0 -0.187)"/><path class="cls-2" d="M194.081,85.526c1.512-.228,3.6,1.163,4.247-1.5l1.62,2.263c-2.247,0-4.326,0-6.4-.011-.089,0-.176-.168-.264-.257Z" transform="translate(0 -0.187)"/><path class="cls-2" d="M294.9,83.839c.581,2.664,2.7,1.5,4.261,1.708a.963.963,0,0,1,.38.049A3.367,3.367,0,0,1,300,86c-2.086.659-4.19.172-6.473.367Z" transform="translate(0 -0.187)"/><path class="cls-1" d="M237.909,48.512l1.843-.092a3.81,3.81,0,0,1,1.368.541c.25.245-.065.681-.5.667-1.646-.052-3.291-.139-4.936-.213Z" transform="translate(0 -0.187)"/><path class="cls-2" d="M238.363,85.527c1.442-.073,3,.607,4.25-.684l1.914,1.47c-2.6,0-4.622,0-6.648-.011-.092,0-.183-.16-.274-.246Z" transform="translate(0 -0.187)"/><path class="cls-2" d="M206.634,84.858c1.243,1.339,2.83.551,4.267.689a3.168,3.168,0,0,1,.748.039c.368.107.653.628.242.657a17.97,17.97,0,0,1-5.663-.033C204.719,85.813,206.54,85.361,206.634,84.858Z" transform="translate(0 -0.187)"/><path class="cls-2" d="M282.183,85.444l4.528.117a.95.95,0,0,1,.365.073,3.116,3.116,0,0,1,.406.408,14.327,14.327,0,0,1-6.187.035C281.064,86.034,281.826,85.617,282.183,85.444Z" transform="translate(0 -0.187)"/><path class="cls-2" d="M225.994,85.556l4.28-.03a3.667,3.667,0,0,1,.757.074c.378.116.616.647.2.647-2,0-4.036.439-6.015-.217-.006,0,.016-.218.065-.239C225.513,85.695,225.756,85.632,225.994,85.556Z" transform="translate(0 -0.187)"/><path class="cls-2" d="M181.782,85.511l4.627-.059c.3.211,1.152.582.771.651a13.475,13.475,0,0,1-6.159-.082c.026-.085.027-.219.081-.245C181.32,85.67,181.554,85.6,181.782,85.511Z" transform="translate(0 -0.187)"/><path class="cls-2" d="M196.8,52.365c-2.369,1.042-4.842.7-7.3.553A21.492,21.492,0,0,1,196.8,52.365Z" transform="translate(0 -0.187)"/><path class="cls-3" d="M105.847,15.74c.122,2.341-1.574,2.224-3.121,2.309l.044.05.791-1.6-.062.054c.471-.087.826-.29.833-.838l-.063.057,1.606,0Z" transform="translate(0 -0.187)"/><path class="cls-2" d="M185.141,74.537c-1.186.222-2.671-.393-3.366,1.2l-2.043-1.546C181.916,74.016,183.531,73.36,185.141,74.537Z" transform="translate(0 -0.187)"/><path class="cls-3" d="M104.341,21.01c-.6.3-1.463.2-1.7,1.075-.625-.25-1.8.235-1.751-.881.034-.824.989-.56,1.582-.514C103.1,20.738,103.717,20.9,104.341,21.01Z" transform="translate(0 -0.187)"/><path class="cls-3" d="M98.057,27.409c.63.854,1.816-1.419,2.25.384.4,1.679-1.21,1.542-2,2.14q-.154-.163-.312-.322a3,3,0,0,0,.125-2.255Z" transform="translate(0 -0.187)"/><path class="cls-2" d="M68.7,22.059l-.894-1.044c.911-.406,2.146-.982,2.55.2C70.682,22.162,69.345,21.885,68.7,22.059Z" transform="translate(0 -0.187)"/><path class="cls-2" d="M297.061,38.111A10.4,10.4,0,0,1,297.1,32.6,9.814,9.814,0,0,1,297.061,38.111Z" transform="translate(0 -0.187)"/><path class="cls-2" d="M25.942,42.216l.247-1.787,2.571,1.343A3.085,3.085,0,0,1,25.942,42.216Z" transform="translate(0 -0.187)"/><path class="cls-3" d="M71.615,32.743c.263-1.357.831-2.375,2.459-2.219l-.056-.05a3.907,3.907,0,0,0-.784,2.362l.055-.046-1.179.373Q71.868,32.947,71.615,32.743Z" transform="translate(0 -0.187)"/><path class="cls-2" d="M252.142,73.8c-.755-1.141-.3-2.416-.4-3.629C252.988,71.255,252.17,72.57,252.142,73.8Z" transform="translate(0 -0.187)"/><path class="cls-1" d="M221.4,48.348c1.476-.051,2.969-.191,4.223.853l-2.787.2Z" transform="translate(0 -0.187)"/><path class="cls-2" d="M178.884,57.487c1.163-.916,2.478-.677,3.785-.5A6.465,6.465,0,0,1,178.884,57.487Z" transform="translate(0 -0.187)"/><path class="cls-2" d="M290.489,53.044l-.072-.765c1.232-.1,2.48-.381,3.7.341C292.952,53.491,291.7,53.077,290.489,53.044Z" transform="translate(0 -0.187)"/><path class="cls-2" d="M237.909,48.512l-2.222.9-1.3-.227A3.954,3.954,0,0,1,237.909,48.512Z" transform="translate(0 -0.187)"/><path class="cls-2" d="M63.2,20.987,63.139,22c-.529-.09-1.381.078-1.253-.756C62,20.476,62.657,20.574,63.2,20.987Z" transform="translate(0 -0.187)"/><path class="cls-3" d="M116.137,19.495c-.155-.309-.35-.522-.3-.636a.985.985,0,0,1,1.134-.676c.117.021.294.392.271.413C116.9,18.908,116.526,19.188,116.137,19.495Z" transform="translate(0 -0.187)"/><path class="cls-2" d="M226.277,74.134l-.282,1.554-1.536-1.511Z" transform="translate(0 -0.187)"/><path class="cls-2" d="M66.312,89.694a3.055,3.055,0,0,1,3,.4A3.8,3.8,0,0,1,66.312,89.694Z" transform="translate(0 -0.187)"/><path class="cls-2" d="M265.682,73.944c.073.64.6.813,1.072,1.05l-1.742.632c-.053-.719-.632-1-1.126-1.353Z" transform="translate(0 -0.187)"/><path class="cls-2" d="M126.716,86.039a4.656,4.656,0,0,1,3.233-.383A3.451,3.451,0,0,1,126.716,86.039Z" transform="translate(0 -0.187)"/><path class="cls-2" d="M200.541,75.3l1.636.417a2.116,2.116,0,0,1-1.976.734l-1.386-.257A2.064,2.064,0,0,1,200.541,75.3Z" transform="translate(0 -0.187)"/><path class="cls-3" d="M109.912,15.135a1.764,1.764,0,0,1-1.773,1.023,1.561,1.561,0,0,1,1.572-1.211Z" transform="translate(0 -0.187)"/><path class="cls-3" d="M94.241,35.176l-.835,1.551.065-.054c-.627-.045-1.354.113-1.564-.775l-.049.057c.472-.087.84-.277.833-.84l-.066.053,1.544-.064Z" transform="translate(0 -0.187)"/><path class="cls-2" d="M294.991,79.451a5.087,5.087,0,0,1-.019,3.107A4.01,4.01,0,0,1,294.991,79.451Z" transform="translate(0 -0.187)"/><path class="cls-2" d="M114.936,85.291l.417.76c-.581.354-1.611.531-1.725.119C113.41,85.381,114.442,85.549,114.936,85.291Z" transform="translate(0 -0.187)"/><path class="cls-2" d="M252.356,83.22a1.917,1.917,0,0,1-.27-2.508Z" transform="translate(0 -0.187)"/><path class="cls-2" d="M252.039,77.986c-.237-.9-.694-1.86.569-2.409Z" transform="translate(0 -0.187)"/><path class="cls-2" d="M145.357,75.077a1.931,1.931,0,0,1,2.46.125Z" transform="translate(0 -0.187)"/><path class="cls-3" d="M102.726,18.05c.088.788-.548.925-1.057,1.175l-.452-1.182-.054.055h1.606Z" transform="translate(0 -0.187)"/><path class="cls-2" d="M269.406,37.819l.46-.886c.171.1.461.18.491.314a.862.862,0,0,1-.626,1.1A.5.5,0,0,1,269.406,37.819Z" transform="translate(0 -0.187)"/><path class="cls-2" d="M56.044,37.487c-.085.47-.389.627-.786.43-.121-.06-.1-.4-.147-.618Z" transform="translate(0 -0.187)"/><path class="cls-3" d="M72.11,33.163l-1.2,1.18.053.061a1.368,1.368,0,0,1,.647-1.662Q71.868,32.947,72.11,33.163Z" transform="translate(0 -0.187)"/><path class="cls-2" d="M114.5,70.093a2.587,2.587,0,0,0-.051.717l-.992-.431Z" transform="translate(0 -0.187)"/><path class="cls-3" d="M59.228,44.406l.338-.949c.092.075.246.137.264.226a.626.626,0,0,1-.521.791Z" transform="translate(0 -0.187)"/><path class="cls-2" d="M219.071,54.71l1.648-.046A1.278,1.278,0,0,1,219.071,54.71Z" transform="translate(0 -0.187)"/><path class="cls-3" d="M106.622,14.963a.7.7,0,0,1-.775.777l.027.027c-.145-.665.241-.8.779-.779Z" transform="translate(0 -0.187)"/><path class="cls-2" d="M294.869,77.2a2.915,2.915,0,0,1,.217.492c.016.062-.1.156-.153.236a3.061,3.061,0,0,1-.222-.5C294.695,77.373,294.812,77.279,294.869,77.2Z" transform="translate(0 -0.187)"/><path class="cls-3" d="M107.4,14.186c.074.59-.261.773-.776.777l.03.025q.005-.411.011-.822l-.065.059.826-.015Z" transform="translate(0 -0.187)"/><path class="cls-2" d="M256.178,84.589c.183-.307.419-.742.786-.4.34.32.013.65-.331.85Q256.408,84.814,256.178,84.589Z" transform="translate(0 -0.187)"/><path class="cls-3" d="M70.915,34.343a1.351,1.351,0,0,1-.149.331c-.037.046-.155.025-.237.035l.439-.3Z" transform="translate(0 -0.187)"/><path class="cls-3" d="M61.582,41.318l-.269.419c.009-.068-.008-.165.031-.2a1.455,1.455,0,0,1,.293-.155Z" transform="translate(0 -0.187)"/><path class="cls-2" d="M249.425,70.855l-.49.822C248.638,71.129,248.957,70.947,249.425,70.855Z" transform="translate(0 -0.187)"/><path class="cls-3" d="M61.637,41.384l.369-.572.246.414-.67.092Z" transform="translate(0 -0.187)"/><path class="cls-3" d="M118.85,17.562c0,.074.022.177-.017.216-.059.059-.185.124-.243.1-.333-.146-.325-.312.019-.428C118.67,17.429,118.769,17.521,118.85,17.562Z" transform="translate(0 -0.187)"/><polygon class="cls-3" points="120.125 16.816 120.05 16.625 120.265 16.667 120.125 16.816"/><path class="cls-2" d="M185.7,75.392l-.514-.812A.614.614,0,0,1,185.7,75.392Z" transform="translate(0 -0.187)"/><path class="cls-2" d="M115.892,22.723l-3.849-.223A3.244,3.244,0,0,1,115.892,22.723Z" transform="translate(0 -0.187)"/><path class="cls-2" d="M221.856,32.837l.4,3.165A2.347,2.347,0,0,1,221.856,32.837Z" transform="translate(0 -0.187)"/><path class="cls-2" d="M119.621,79.367a10.28,10.28,0,0,1-.036,4.622A4.883,4.883,0,0,1,119.621,79.367Z" transform="translate(0 -0.187)"/><path class="cls-3" d="M79.541,36.772a.753.753,0,0,0,.719-.835,10.985,10.985,0,0,1,1.322-.721c.884-.341,2.488-.291,1.976-1.65-.484-1.285-1.672.257-2.569.064.086-.558-.2-.8-.718-.844-1.634-1.671.537-2.512.82-3.766A5.743,5.743,0,0,1,85.7,27.416l-.05-.06c-.075.629.414.7.832.843l-.056-.059c.7,1.469-1.5,1.857-1.257,3.583,2.405-1.126,4.942-3.616,6.755.348a1.7,1.7,0,0,0-1.578.767l-.895.633c-.609.083-1.212.178-1.5.841l-.883.659c-.333,1.045-3.4-1.228-2.133,1.757a2.213,2.213,0,0,0-2.355,1.536.809.809,0,0,0-.832.717l-.891.661c-.449.167-.789.4-.586.964L77.113,40.6c-.235-1.447,1.557-1.784,1.667-3.042A.8.8,0,0,0,79.541,36.772Z" transform="translate(0 -0.187)"/><path class="cls-3" d="M85.7,27.416l-.063-.845c.673.089,1.229-.041,1.405-.8.023-.1-.128-.328-.131-.327a1.685,1.685,0,0,0-1.217,1.2c-.863-.232-.907-.883-.82-1.6,1.535-2,3.917-1.564,6.141-2.121.306,3.434-1.613,4.78-4.59,5.226l.056.058c.07-.624-.307-.807-.832-.843Z" transform="translate(0 -0.187)"/><path class="cls-3" d="M84.43,19.183c.357-.332.388-1.406,1.116-.837.556.434-.014,1.033-.517,1.391Z" transform="translate(0 -0.187)"/><path class="cls-3" d="M85.61,21.1c.157-.325.415-.644.752-.376.354.281.03.584-.2.823A1.927,1.927,0,0,1,85.61,21.1Z" transform="translate(0 -0.187)"/><path class="cls-3" d="M87.531,19.046c.077,0,.183-.028.225.01.063.058.133.187.108.247-.144.344-.317.34-.445-.01C87.4,19.231,87.491,19.127,87.531,19.046Z" transform="translate(0 -0.187)"/><path class="cls-3" d="M83.031,16.364l-.216-.128.23-.359c.071.083.2.168.2.25S83.106,16.285,83.031,16.364Z" transform="translate(0 -0.187)"/></g></svg>