<svg id="Ebene_1" data-name="Ebene 1" xmlns="http://www.w3.org/2000/svg" viewBox="0 0 200 200"><title>Zeichenfläche 1</title><path d="M104.154,148.044c-1.648,2.481-3.326,5.085-5.081,7.636-4.2,6.1-10.073,10.179-16.4,13.817-5.742,3.3-11.264,6.988-16.861,10.539a15.218,15.218,0,0,0-1.573,1.491,41.009,41.009,0,0,1-5.51,4.6,13.7,13.7,0,0,0-5.756,6.619,42.246,42.246,0,0,1-2.772,5.676c-.5.8-1.808,1.705-2.558,1.562a3.565,3.565,0,0,1-2.26-2.223,7.478,7.478,0,0,1,.044-4.408c1.433-3.57,3.19-7.015,4.93-10.454,1.008-1.992,2.641-2.752,5.01-2.74a7.365,7.365,0,0,0,4.414-1.849c2.8-2.434,5.2-5.32,7.965-7.791,5.329-4.755,10.635-9.565,16.275-13.934,3.835-2.971,5.387-6.818,5.792-11.258.261-2.87-.314-5.808-.22-8.705a37.087,37.087,0,0,1,.961-7.684,12.082,12.082,0,0,1,2.455-4.591c4.948-5.971,4.289-12.491,2.194-19.225a19.426,19.426,0,0,0-6.3-9.512,7.917,7.917,0,0,0-8.326-1.578c-3.952,1.446-7.988,2.67-12.017,3.9a12.107,12.107,0,0,1-3.246.365c-3.648.073-5.154-1.608-5.025-5.221a16,16,0,0,1,3.125-9.139,78.387,78.387,0,0,0,5.135-7.6,12.061,12.061,0,0,0,1.472-5.1c.136-2.474.322-2.808,2.709-3.209,1.085-.182,2.629-.8,2.983-1.642,2.206-5.213,6.88-8.429,10.03-12.852.972-1.364,2.059-2.647,3.065-3.987,1.672-2.228,3.024-4.457,2.945-7.517-.1-3.725,1.921-6.851,4.212-9.617,3-3.624,10.317-2.732,12.364,1.552a5.308,5.308,0,0,1-.22,4.114c-2.478,4.848-6.3,7.873-12.024,8.148a4.578,4.578,0,0,0-2.955,1.661,141.691,141.691,0,0,0-9.6,13.013c-2.2,3.588-3.43,7.76-5.257,11.593a6.673,6.673,0,0,1-2.541,2.995C70.728,78.1,69.8,83.127,68.228,87.75c-.457,1.347.455,2.284,1.954,2.108a21.841,21.841,0,0,0,4.924-.892C80.488,87,85.86,84.991,91.112,82.711c1.5-.653,2.67-2.2,3.839-3.475,1.234-1.348,1.016-2.546-.643-3.544a20.575,20.575,0,0,1-3.464-2.632,7.281,7.281,0,0,1-2.26-5.714c.07-2.97,1.271-4.653,4.188-4.891a23.592,23.592,0,0,1,7.362.446,5.3,5.3,0,0,1,3.164,2.977c.944,2.625,1.207,5.487,1.905,8.212.3,1.176.718,2.951,1.539,3.267,7.447,2.864,14.777,6.281,23.122,5.607,7.955-.642,14.944-3.137,19.944-9.726a20.513,20.513,0,0,0,2.031-3.556c.928-1.933,2.235-3.2,4.528-3.146,1.413.031,2.21.633,2.193,2.1a8.325,8.325,0,0,1-3.066,6.932q-7.676,5.954-15.4,11.849a12.893,12.893,0,0,1-8.42,2.547c-2.98-.094-5.95-.453-8.929-.6-2.745-.132-2.843.361-3.151,3.054-.76,6.646-1.983,13.24-2.708,19.888a68.016,68.016,0,0,0,.056,9.733c.309,8.651.859,17.3.974,25.951.1,7.465-3.012,13.463-9.124,17.963-2.981,2.2-5.515,4.993-8.454,7.253-2.171,1.669-4.742,2.805-7.008,4.364-3.919,2.7-7.573,5.655-8.794,10.63a58.771,58.771,0,0,1-1.671,5.642,2.7,2.7,0,0,1-3.416,1.965c-1.678-.385-1.907-1.762-1.77-3.082.362-3.472.445-7.065,1.469-10.351,1.063-3.409,3.225-6.258,7.333-6.954a7.319,7.319,0,0,0,3.886-2.223q6.587-7.3,12.848-14.9C104.991,156.159,105.189,151.782,104.154,148.044ZM101.33,31.527c-1.236.664-2.816,1.048-3.633,2.052a29,29,0,0,0-3.809,6.251c-.414.907-.287,2.8.332,3.27,1,.751,2.875,1.3,3.9.848a33.609,33.609,0,0,0,6.958-4.317,3.679,3.679,0,0,0,1.19-4.86C105.279,32.764,103.671,31.936,101.33,31.527Z"/><path d="M67.292,24.338,52.851,30.764c-2.689-6.016-5.3-11.854-7.9-17.7-.171-.385-.265-.8-.438-1.34L58.355,5.564l1.5,3.125-10.187,4.6,1.887,4.159,9.476-4.138,1.409,3.13-9.456,4.289,2.272,5.1L65.785,21.2Z"/><path d="M69.025,7.452l4.16.225c3.724-2.423,5.274-2.66,7.967-.956,2.117-.972,3.868-2.166,5.782-2.554,2.231-.453,3.861.773,4.408,2.986.887,3.59,1.528,7.24,2.332,11.15l-3.893.717c-.6-3.038-1.107-5.892-1.733-8.72-.305-1.379-.462-3.071-2.535-2.929-1.631.112-2.621,1.6-2.354,3.791.281,2.308.791,4.588,1.189,6.883.108.622.176,1.25.278,2l-3.714.735c-.639-3.13-1.242-6.108-1.856-9.084-.29-1.4-.622-2.894-2.541-2.563a2.726,2.726,0,0,0-2.371,3.359c.429,3.016,1.029,6.007,1.6,9.269l-3.8.784Z"/><path d="M127.829,6.911,129.025,0l3.864.447L129.659,20.9c-1.5-.451-3.542.687-3.6-2.025-4.514,1.971-7.431,1.275-9.153-2.154-1.841-3.668-.323-9.8,2.975-11.528C122.75,3.691,125.36,4.407,127.829,6.911Zm-.774,5.191c.007-2.741-1.012-4.193-2.739-4.455-1.629-.247-3.214.973-3.722,3a11.477,11.477,0,0,0-.368,3.025c.043,1.768.829,3.169,2.711,3.454,1.791.271,2.9-.828,3.478-2.383A17.877,17.877,0,0,0,127.055,12.1Z"/><path d="M29.669,21.1C32.1,27.613,34.5,33.945,36.759,40.33a2.693,2.693,0,0,1-.948,2.212c-.773.636-2.227,1.484-2.8,1.169-6.05-3.34-11.983-6.893-18.12-10.489l3.365-2.857,13.9,8.336c-.462-1.3-.706-2.059-1-2.8-1.211-3.048-2.438-6.089-3.657-9.133C26.115,23.308,26.116,23.307,29.669,21.1Z"/><path d="M138.632,18.158c.453,1.168.663,2.538,1.422,3.451.924,1.112,2.161.705,3.547.184,1.037-.39,2.523.411,3.985.719-2.287,3.384-5.869,3.873-9.444,1.683-3.406-2.087-4.1-6.3-1.757-10.657a6.75,6.75,0,0,1,9.274-3.127c3.687,1.77,4.745,5.494,2.773,10.345-1.534-.5-3.094-1-4.65-1.508-1.5-.494-2.992-1-4.488-1.507Zm1.365-2.8,5.6,1.9c.567-1.975.266-3.453-1.513-4.179C142.147,12.279,140.949,13.316,140,15.354Z"/><path d="M111.405,6.92c-1.976.17-3.625,1.269-4.85-.707a.938.938,0,0,0-.765-.351c-1.222.19-3.353.225-3.481.736-.442,1.767,1.485,1.463,2.5,1.867,1.481.589,3.1.857,4.538,1.525a3.9,3.9,0,0,1,1.668,5.881c-1.893,2.923-4.885,2.891-7.83,2.57a5.839,5.839,0,0,1-5.481-4.5c1.846-.243,3.6-1.328,4.921.984a2.27,2.27,0,0,0,1.939.738,14.886,14.886,0,0,0,3.02-1.21,11.308,11.308,0,0,0-2.253-1.756c-1.523-.668-3.233-.927-4.724-1.647a4.066,4.066,0,0,1-1.127-6.612c2.22-2.337,8.565-2.179,10.652.3A16.506,16.506,0,0,1,111.405,6.92Z"/><path d="M173.365,36.809c-.051,1.254-.442,2.622-.069,3.734.479,1.427,1.8,1.623,3.41,1.534,1-.055,2.07,1.285,3.229,2.081-3.155,2.246-6.714,1.4-9.19-1.812s-1.512-7.6,2.336-10.708a6.68,6.68,0,0,1,9.722.766c2.617,2.985,2.107,7.116-1.365,10.321l-7.33-6.033Zm6.754,1.8c1.332-1.886,1.5-3.414-.076-4.747-1.3-1.1-2.846-.725-4.361,1.027Z"/><path d="M183.431,53.639,181,50.707l11.265-9.455c2.53,2.475,2.687,2.187,1.31,3.8a20.5,20.5,0,0,1,2.991,1.109c3.557,1.974,4.005,5.724.97,8.456-2.436,2.192-5,4.241-7.736,6.543l-2.514-2.9c2.333-1.985,4.555-3.843,6.739-5.743,1.265-1.1,2.4-2.307,1.077-4.093-1.063-1.437-2.956-1.689-4.664-.418C188.1,49.734,185.9,51.639,183.431,53.639Z"/><path d="M22.843,55.148l-2.6,3.146L7.045,47.261l-4.031,4.6L.449,49.711,10.946,37.2l2.6,2.178-3.89,4.684Z"/><path d="M164.193,22.331c.719-.978.894-2.858,3.1-1.463.913-3.195,3.351-2.38,5.925-2.27L170.659,23l2.1,1.541-1.528,2.522-2.394-1.218c-1.121,1.778-2.213,3.481-3.277,5.2-1.411,2.283-1.4,2.319.885,3.687-.658,1.11-.531,3.045-2.852,2.075-2.678-1.12-3.949-3.056-2.894-5.17,1.133-2.268,2.648-4.342,3.858-6.575a6.693,6.693,0,0,0,.3-2.325Z"/><path d="M157.278,29.47c-.4,1.326-.616,2.766-2.7,2.023-2.659-.947-4.021-2.724-3.177-4.824s2-4.047,3.018-6.062c.36-.71.73-1.416,1.135-2.2l-1.369-1.162,1.254-2.44,1.858.481c.693-3.094,3.077-2.6,5.7-2.46l-2.224,4.4,2.228,1.486-1.34,2.542-2.512-1.009a70.213,70.213,0,0,0-3.364,6.531c-.266.658.572,1.761.9,2.66Z"/></svg>