<?xml version="1.0" encoding="UTF-8" standalone="no"?>
<!-- Created with Inkscape (http://www.inkscape.org/) -->

<svg
   xmlns:dc="http://purl.org/dc/elements/1.1/"
   xmlns:cc="http://creativecommons.org/ns#"
   xmlns:rdf="http://www.w3.org/1999/02/22-rdf-syntax-ns#"
   xmlns:svg="http://www.w3.org/2000/svg"
   xmlns="http://www.w3.org/2000/svg"
   xmlns:sodipodi="http://sodipodi.sourceforge.net/DTD/sodipodi-0.dtd"
   xmlns:inkscape="http://www.inkscape.org/namespaces/inkscape"
   version="1.1"
   id="svg2"
   xml:space="preserve"
   width="433.51065"
   height="379.61908"
   viewBox="0 0 433.51064 379.61908"
   sodipodi:docname="tvhofheim.svg"
   inkscape:version="0.92.4 (5da689c313, 2019-01-14)"><metadata
     id="metadata8"><rdf:RDF><cc:Work
         rdf:about=""><dc:format>image/svg+xml</dc:format><dc:type
           rdf:resource="http://purl.org/dc/dcmitype/StillImage" /><dc:title></dc:title></cc:Work></rdf:RDF></metadata><defs
     id="defs6"><clipPath
       clipPathUnits="userSpaceOnUse"
       id="clipPath18"><path
         d="M 0,595.276 H 841.89 V 0 H 0 Z"
         id="path16"
         inkscape:connector-curvature="0" /></clipPath></defs><sodipodi:namedview
     pagecolor="#ffffff"
     bordercolor="#666666"
     borderopacity="1"
     objecttolerance="10"
     gridtolerance="10"
     guidetolerance="10"
     inkscape:pageopacity="0"
     inkscape:pageshadow="2"
     inkscape:window-width="1920"
     inkscape:window-height="1031"
     id="namedview4"
     showgrid="false"
     fit-margin-top="0"
     fit-margin-left="0"
     fit-margin-right="0"
     fit-margin-bottom="0"
     inkscape:zoom="0.29734106"
     inkscape:cx="218.6143"
     inkscape:cy="159.38266"
     inkscape:window-x="0"
     inkscape:window-y="0"
     inkscape:window-maximized="1"
     inkscape:current-layer="g10" /><g
     id="g10"
     inkscape:groupmode="layer"
     inkscape:label="Logo TVH Badminton"
     transform="matrix(1.3333333,0,0,-1.3333333,-349.37199,617.08707)"><g
       id="g12"><g
         id="g14"
         clip-path="url(#clipPath18)"><path
           d="m 311.358,444.155 -20.255,-8.206 2.117,-5.23 6.933,2.808 10.758,-26.532 6.381,2.59 -10.758,26.533 6.942,2.808 z"
           style="fill:#231f20;fill-opacity:1;fill-rule:nonzero;stroke:none"
           id="path20"
           inkscape:connector-curvature="0" /><path
           d="m 325.798,448.105 -7.126,-1.919 16.489,-31.024 8.565,2.305 -1.3,35.111 -6.902,-1.863 1.675,-25.767 -0.145,-0.04 z"
           style="fill:#231f20;fill-opacity:1;fill-rule:nonzero;stroke:none"
           id="path22"
           inkscape:connector-curvature="0" /><path
           d="m 361.038,456.994 4.215,-34.017 6.871,0.852 -1.87,15.087 8.023,0.995 1.871,-15.087 6.871,0.853 -4.216,34.017 -6.871,-0.853 1.614,-13.02 -8.024,-0.996 -1.614,13.021 z"
           style="fill:#231f20;fill-opacity:1;fill-rule:nonzero;stroke:none"
           id="path24"
           inkscape:connector-curvature="0" /><path
           d="m 399.439,444.68 c -0.152,2.294 -0.23,4.246 -0.225,5.854 0.013,1.6 0.148,2.921 0.412,3.971 0.265,1.042 0.691,1.813 1.28,2.321 0.596,0.5 1.395,0.786 2.418,0.857 1.015,0.064 1.849,-0.107 2.5,-0.534 0.651,-0.42 1.184,-1.128 1.583,-2.125 0.399,-1.005 0.712,-2.299 0.931,-3.89 0.211,-1.582 0.401,-3.525 0.554,-5.828 0.151,-2.295 0.229,-4.254 0.225,-5.879 -0.005,-1.615 -0.139,-2.945 -0.412,-3.971 -0.265,-1.026 -0.692,-1.789 -1.288,-2.297 -0.589,-0.5 -1.387,-0.794 -2.41,-0.857 -1.016,-0.072 -1.849,0.107 -2.5,0.527 -0.651,0.427 -1.184,1.127 -1.583,2.109 -0.399,0.989 -0.712,2.283 -0.931,3.881 -0.212,1.607 -0.401,3.557 -0.554,5.861 m -6.909,-0.465 c 0.171,-2.615 0.451,-5.006 0.835,-7.162 0.383,-2.15 1.036,-3.986 1.95,-5.499 0.923,-1.514 2.171,-2.633 3.76,-3.358 1.59,-0.733 3.68,-1.006 6.262,-0.836 2.583,0.17 4.62,0.721 6.093,1.659 1.482,0.93 2.569,2.202 3.277,3.823 0.717,1.621 1.12,3.52 1.208,5.713 0.097,2.185 0.056,4.593 -0.115,7.208 -0.17,2.591 -0.45,4.972 -0.834,7.138 -0.383,2.174 -1.036,4.016 -1.959,5.531 -0.914,1.513 -2.171,2.656 -3.76,3.429 -1.589,0.781 -3.68,1.078 -6.263,0.908 -2.59,-0.17 -4.619,-0.745 -6.092,-1.731 -1.473,-0.978 -2.568,-2.274 -3.276,-3.895 -0.709,-1.621 -1.112,-3.536 -1.2,-5.737 -0.097,-2.2 -0.056,-4.6 0.114,-7.191"
           style="fill:#231f20;fill-opacity:1;fill-rule:nonzero;stroke:none"
           id="path26"
           inkscape:connector-curvature="0" /><path
           d="m 424.18,462.65 -0.224,-34.226 6.913,-0.042 0.1,14.882 11.505,-0.08 0.04,5.665 -11.513,0.079 0.06,8.017 12.224,-0.084 0.04,5.664 z"
           style="fill:#231f20;fill-opacity:1;fill-rule:nonzero;stroke:none"
           id="path28"
           inkscape:connector-curvature="0" /><path
           d="m 452.862,462.241 -3.802,-34.07 6.862,-0.763 1.683,15.115 8.014,-0.895 -1.683,-15.116 6.861,-0.763 3.803,34.069 -6.863,0.764 -1.461,-13.052 -8.013,0.895 1.462,13.052 z"
           style="fill:#231f20;fill-opacity:1;fill-rule:nonzero;stroke:none"
           id="path30"
           inkscape:connector-curvature="0" /><path
           d="m 503.912,454.633 -18.82,3.645 -6.515,-33.646 19.292,-3.737 1.075,5.56 -12.484,2.419 1.751,9.058 11.311,-2.193 1.077,5.559 -11.312,2.194 1.534,7.908 12.015,-2.327 z"
           style="fill:#231f20;fill-opacity:1;fill-rule:nonzero;stroke:none"
           id="path32"
           inkscape:connector-curvature="0" /><path
           d="m 504.352,419.628 6.707,-1.672 8.278,33.245 -6.706,1.672 z"
           style="fill:#231f20;fill-opacity:1;fill-rule:nonzero;stroke:none"
           id="path34"
           inkscape:connector-curvature="0" /><path
           d="m 530.838,448.635 -11.94,-32.121 5.946,-2.211 9.533,25.64 0.088,-0.032 -3.82,-27.765 5.034,-1.872 15.246,23.518 0.088,-0.033 -9.534,-25.64 5.945,-2.212 11.939,32.12 -9.58,3.56 -13.062,-20.948 -0.096,0.032 3.842,24.38 z"
           style="fill:#231f20;fill-opacity:1;fill-rule:nonzero;stroke:none"
           id="path36"
           inkscape:connector-curvature="0" /><path
           d="m 320.323,201.172 3.026,8.782 2.532,-0.873 c 0.654,-0.225 1.229,-0.499 1.727,-0.823 0.497,-0.324 0.885,-0.724 1.163,-1.2 0.277,-0.477 0.436,-1.034 0.475,-1.672 0.039,-0.638 -0.087,-1.379 -0.378,-2.223 -0.581,-1.688 -1.416,-2.695 -2.503,-3.021 -1.087,-0.327 -2.339,-0.246 -3.755,0.242 z m 4.432,12.866 2.632,7.638 2.124,-0.732 c 1.47,-0.506 2.447,-1.163 2.931,-1.969 0.483,-0.806 0.486,-1.904 0.008,-3.292 -0.479,-1.389 -1.193,-2.247 -2.143,-2.575 -0.951,-0.328 -2.244,-0.21 -3.877,0.353 z m -1.758,13.993 -10.047,-29.163 9.925,-3.419 c 1.716,-0.591 3.232,-0.854 4.549,-0.79 1.316,0.065 2.469,0.361 3.458,0.888 0.989,0.527 1.811,1.257 2.468,2.188 0.655,0.932 1.181,1.97 1.574,3.114 0.676,1.96 0.739,3.69 0.189,5.189 -0.55,1.499 -1.604,2.639 -3.163,3.419 l 0.029,0.082 c 1.611,-0.098 2.979,0.291 4.103,1.168 1.124,0.877 1.959,2.106 2.503,3.685 0.478,1.388 0.677,2.629 0.597,3.723 -0.08,1.094 -0.389,2.053 -0.928,2.878 -0.537,0.825 -1.275,1.536 -2.212,2.133 -0.937,0.597 -2.004,1.102 -3.202,1.515 z m 30.16,-29.386 0.403,14.177 -0.084,0.022 -6.193,-12.761 z m 5.369,18.476 0.596,-31.901 -6.294,1.541 0.166,6.676 -7.973,1.952 -2.936,-5.998 -6.293,1.541 15.266,28.018 z m 12.665,-29.301 2.921,21.49 2.611,-0.356 c 1.17,-0.158 2.075,-0.507 2.714,-1.044 0.639,-0.538 1.078,-1.265 1.316,-2.184 0.238,-0.919 0.326,-2.042 0.262,-3.372 -0.065,-1.328 -0.216,-2.862 -0.452,-4.603 -0.283,-2.083 -0.584,-3.815 -0.902,-5.196 -0.319,-1.381 -0.729,-2.473 -1.23,-3.277 -0.502,-0.803 -1.106,-1.346 -1.813,-1.629 -0.707,-0.281 -1.602,-0.348 -2.687,-0.201 z m -2.627,26.865 -4.153,-30.565 9.717,-1.32 c 2.055,-0.279 3.795,-0.196 5.222,0.25 1.426,0.445 2.627,1.256 3.6,2.431 0.974,1.176 1.759,2.733 2.357,4.672 0.598,1.939 1.079,4.249 1.443,6.932 0.307,2.255 0.456,4.312 0.447,6.174 -0.009,1.861 -0.288,3.49 -0.84,4.887 -0.551,1.398 -1.436,2.536 -2.653,3.413 -1.218,0.878 -2.897,1.462 -5.037,1.753 z m 24.759,-3.937 -2.111,-30.772 5.689,-0.391 1.685,24.566 0.087,-0.005 3.788,-24.943 4.827,-0.331 7.159,24.191 0.086,-0.005 -1.685,-24.567 5.688,-0.39 2.112,30.772 -9.18,0.63 -5.93,-21.417 -0.086,0.006 -2.906,22.023 z m 32.626,-32.283 6.22,0.154 -0.763,30.835 -6.219,-0.153 z m 18.919,31.245 -7.161,-0.39 1.675,-30.799 5.694,0.31 -1.173,21.568 0.086,0.004 8.765,-21.155 7.075,0.385 -1.675,30.8 -5.694,-0.31 1.147,-21.094 -0.086,-0.005 z m 35.692,4.109 -19.525,-2.614 0.676,-5.053 6.68,0.895 3.417,-25.52 6.166,0.826 -3.417,25.519 6.679,0.895 z m 11.194,-13.94 c -0.445,2.025 -0.773,3.752 -0.983,5.18 -0.211,1.428 -0.268,2.625 -0.17,3.589 0.097,0.965 0.377,1.712 0.835,2.241 0.459,0.528 1.138,0.891 2.038,1.089 0.901,0.198 1.67,0.153 2.307,-0.134 0.639,-0.288 1.204,-0.85 1.698,-1.685 0.493,-0.835 0.943,-1.945 1.351,-3.33 0.406,-1.385 0.833,-3.09 1.278,-5.115 0.445,-2.026 0.774,-3.759 0.988,-5.201 0.214,-1.443 0.27,-2.639 0.17,-3.59 -0.102,-0.95 -0.381,-1.691 -0.84,-2.219 -0.459,-0.528 -1.138,-0.891 -2.039,-1.089 -0.9,-0.198 -1.669,-0.153 -2.307,0.134 -0.639,0.288 -1.202,0.842 -1.692,1.663 -0.491,0.821 -0.941,1.932 -1.351,3.33 -0.41,1.4 -0.839,3.112 -1.283,5.137 m -6.076,-1.335 c 0.507,-2.307 1.075,-4.394 1.707,-6.26 0.631,-1.866 1.457,-3.41 2.476,-4.631 1.021,-1.22 2.286,-2.049 3.797,-2.483 1.511,-0.435 3.405,-0.401 5.684,0.099 2.279,0.501 4.012,1.265 5.202,2.293 1.189,1.028 1.992,2.31 2.406,3.845 0.414,1.536 0.517,3.284 0.308,5.243 -0.209,1.959 -0.568,4.092 -1.073,6.399 -0.501,2.278 -1.069,4.358 -1.704,6.238 -0.633,1.881 -1.46,3.432 -2.481,4.652 -1.02,1.221 -2.29,2.07 -3.811,2.547 -1.52,0.477 -3.418,0.465 -5.698,-0.036 -2.278,-0.5 -4.007,-1.286 -5.187,-2.355 -1.181,-1.072 -1.978,-2.374 -2.393,-3.91 -0.414,-1.536 -0.515,-3.29 -0.303,-5.263 0.212,-1.974 0.569,-4.1 1.07,-6.378 m 27.636,23.315 -6.838,-2.156 9.274,-29.418 5.438,1.715 -6.495,20.601 0.083,0.026 13.745,-18.314 6.758,2.129 -9.274,29.418 -5.439,-1.714 6.352,-20.148 -0.082,-0.026 z"
           style="fill:#231f20;fill-opacity:1;fill-rule:nonzero;stroke:none"
           id="path38"
           inkscape:connector-curvature="0" /><path
           d="m 444.13,291.722 c -3.293,-10.495 -6.809,-20.767 -9.841,-31.522 1.89,-0.256 3.832,-0.46 5.697,-0.74 3.577,9.984 7.202,20.335 10.73,30.338 0.22,0.624 0.684,1.29 0.517,1.998 -2.231,-0.161 -4.752,-0.033 -7.103,-0.074 m -17.167,0.739 c -1.204,-10.363 -2.33,-20.806 -3.256,-31.447 2.53,-0.183 5.037,-0.389 7.622,-0.518 1.471,10.367 2.775,20.903 3.995,31.522 -2.831,0.152 -5.629,0.339 -8.287,0.666 -0.086,-0.013 -0.08,-0.118 -0.074,-0.223 m -18.868,3.33 c 1.192,-11.731 2.781,-23.708 4.365,-35.295 2.599,0.163 5.15,0.375 7.769,0.518 -0.922,11.237 -2.201,22.118 -3.403,33.076 -3.056,0.422 -5.841,1.115 -8.731,1.701 m -4.366,-36.331 c 1.86,0.358 3.984,0.455 5.845,0.814 -3.944,13 -8.061,25.829 -12.283,38.551 -2.902,0.871 -5.857,2.085 -8.509,2.96 4.971,-14.12 9.997,-28.184 14.947,-42.325 m 3.478,43.657 c 2.806,-0.202 5.562,-0.456 8.583,-0.444 -1.172,10.815 -2.573,21.402 -3.774,32.188 -2.787,0.073 -5.603,0.118 -8.361,0.222 1.053,-10.49 2.325,-21.402 3.552,-31.966 m 24.862,32.705 c -1.298,-10.961 -2.609,-21.908 -3.923,-32.853 2.921,0.163 5.67,0.496 8.51,0.74 0.975,8.168 1.925,16.668 2.812,24.936 0.269,2.502 0.676,4.927 0.814,7.326 0.013,0.23 0.321,0.775 -0.147,0.887 -2.623,-0.411 -5.306,-0.762 -8.066,-1.036 m -55.423,1.85 c 3.102,-10.095 6.786,-20.247 10.212,-30.263 2.709,-0.843 5.398,-1.705 8.361,-2.295 -3.424,10.561 -6.921,21.05 -10.433,31.523 -2.745,0.313 -5.429,0.688 -8.14,1.035 m 92.864,7.104 c -2.864,-1.132 -5.816,-2.176 -8.879,-3.108 -3.927,-12.105 -8.034,-24.03 -11.913,-36.183 2.715,0.441 5.317,0.996 7.991,1.479 4.375,12.448 8.801,25.237 12.801,37.812 m 117.652,-71.257 c -9.134,-2.78 -18.474,-5.748 -27.526,-8.362 v 46.395 c -9.572,-2.835 -19.31,-5.504 -29.228,-7.991 v -46.025 c -9.134,-2.779 -18.473,-5.747 -27.526,-8.361 v 48.392 c -14.056,-2.545 -28.547,-4.652 -44.249,-5.549 -4.391,-11.148 -8.638,-22.44 -12.949,-33.667 1.386,-0.415 2.886,-0.716 4.144,-1.259 0.15,-9.934 -2.783,-17.138 -6.882,-22.494 -2.083,-2.722 -4.642,-5.245 -8.065,-6.586 -3.484,-1.364 -7.999,-1.48 -13.172,-1.48 -5.239,0 -9.597,0.126 -13.097,1.554 -3.429,1.399 -5.996,3.838 -8.065,6.586 -4.045,5.373 -7.031,12.547 -6.808,22.494 1.421,0.404 2.774,0.877 4.292,1.185 -5.944,15.81 -12.038,31.469 -18.055,47.208 -1.122,0.51 -2.183,0.986 -3.255,1.48 -1.033,0.474 -2.286,0.837 -3.182,1.48 -0.078,0.055 -0.241,0.148 -0.296,0.221 -1.428,1.872 -2.495,4.531 -3.922,6.512 2.721,-1.595 5.528,-3.105 8.583,-4.366 -3.651,9.447 -7.304,18.889 -11.025,28.266 -0.002,0.072 -0.09,0.057 -0.148,0.074 -13.084,2.282 -25.619,5.114 -37.885,8.214 v -89.978 c -9.208,2.927 -18.488,5.782 -27.526,8.88 v 88.867 c -11.698,3.668 -23.4,7.333 -34.63,11.469 -1.576,11.792 -3.198,23.538 -4.661,35.444 30.796,-14.538 62.039,-28.629 95.823,-40.179 -5.389,13.874 -11.238,27.683 -16.575,41.363 5.161,-1.598 10.479,-3.037 15.613,-4.661 4.231,-13.652 8.541,-27.224 12.949,-40.698 2.898,-0.802 5.854,-1.94 8.732,-2.515 -5.021,14.834 -9.948,29.762 -14.947,44.618 5.056,1.997 10.049,4.058 15.168,5.994 5.916,-2.225 11.907,-4.373 17.833,-6.586 1.729,-16.77 3.61,-33.388 5.401,-50.095 2.819,-0.487 5.498,-1.112 8.362,-1.553 -2.211,18.606 -4.565,37.068 -6.807,55.644 6.185,2.102 12.276,4.298 18.424,6.437 6.073,-2.214 12.312,-4.262 18.351,-6.511 -2.334,-19.396 -4.793,-38.667 -7.103,-58.086 2.441,-0.296 5.281,-0.194 7.991,-0.222 2.114,18.012 3.936,36.318 5.993,54.386 5.93,2.234 11.898,4.432 17.908,6.586 4.973,-2.056 10.136,-3.923 15.02,-6.068 -44.397,-131.698 -50.25,-150.069 -17.536,-52.388 3.035,0.714 5.998,1.499 8.731,2.516 5.288,16.095 10.464,32.304 15.538,48.614 5.266,1.493 10.435,3.082 15.688,4.588 -6.565,-16.029 -13.07,-32.116 -19.461,-48.319 1.646,0.673 3.268,1.764 4.736,2.368 -1.374,-2.203 -2.778,-4.375 -4.144,-6.585 -0.991,-0.317 -1.808,-0.807 -2.738,-1.184 -5.303,-13.516 -10.824,-27.21 -15.834,-40.772 13.058,3.221 25.777,6.781 37.737,11.1 v 65.041 c 9.134,2.409 18.471,5.01 27.526,7.252 0.049,-20.744 -0.098,-41.684 0.073,-62.304 9.987,4.048 19.809,8.261 29.155,12.949 v 58.012 c 0.013,0.06 0.074,0.074 0.074,0.148 9.214,2.353 18.29,4.845 27.452,7.252 z"
           style="fill:#231f20;fill-opacity:1;fill-rule:evenodd;stroke:none"
           id="path40"
           inkscape:connector-curvature="0" /></g></g></g></svg>