<?xml version="1.0" encoding="UTF-8"?>
<svg width="200px" height="202px" viewBox="0 0 200 202" version="1.1" xmlns="http://www.w3.org/2000/svg" xmlns:xlink="http://www.w3.org/1999/xlink">
    <!-- Generator: Sketch 46.2 (44496) - http://www.bohemiancoding.com/sketch -->
    <title>Page 1</title>
    <desc>Created with Sketch.</desc>
    <defs>
        <polygon id="path-1" points="0.117539052 0.0273993808 134.270546 0.0273993808 134.270546 149.500774 0.117539052 149.500774"></polygon>
    </defs>
    <g id="assets-sonstige" stroke="none" stroke-width="1" fill="none" fill-rule="evenodd">
        <g id="Page-1">
            <g id="Group-3" transform="translate(32.817337, 0.126935)">
                <mask id="mask-2" fill="white">
                    <use xlink:href="#path-1"></use>
                </mask>
                <g id="Clip-2"></g>
                <path d="M54.9320433,99.9427245 C54.8317337,100.09195 54.8540248,100.24257 54.8571207,100.389009 C54.8712074,101.059288 54.9679567,101.719195 55.1198142,102.371207 C55.7930341,105.263158 57.2068111,107.746594 59.2684211,109.869505 C60.2229102,110.852477 61.2982972,111.680186 62.5125387,112.31904 C64.693808,113.466563 66.9848297,113.855108 69.406192,113.282353 C71.021517,112.90031 72.4630031,112.154954 73.7613003,111.133437 C76.0106811,109.363622 77.6283282,107.121672 78.6817337,104.467337 C79.2052632,103.147988 79.5481424,101.786997 79.5913313,100.360991 C79.5956656,100.219814 79.6369969,100.063932 79.4823529,99.9329721 C79.4029412,99.9495356 79.3065015,99.9639319 79.2136223,99.9904025 C77.048452,100.604954 74.8583591,101.112848 72.6377709,101.480805 C70.9283282,101.763932 69.2091331,101.964861 67.4732198,101.979102 C66.0595975,101.990712 64.6552632,101.84969 63.2588235,101.658359 C60.7342105,101.312384 58.2450464,100.781889 55.7806502,100.133746 C55.5001548,100.059907 55.2278638,99.9301858 54.9320433,99.9427245 M68.3582043,149.500774 C68.1202786,149.249536 68.0572755,148.978173 67.9506192,148.730495 C63.4083591,138.188545 58.8679567,127.645975 54.3256966,117.10418 C53.9170279,116.155882 54.1185759,116.323065 53.0883901,116.312074 C50.0205882,116.279257 46.9527864,116.230805 43.8848297,116.228947 C29.569969,116.220124 15.2549536,116.225232 0.93993808,116.224303 C0.675077399,116.224149 0.41006192,116.212229 0.168111455,116.206347 C0.137306502,116.141641 0.120278638,116.119969 0.117956656,116.096749 C0.115634675,116.073684 0.123219814,116.04613 0.135139319,116.025697 C12.0532508,95.330031 23.9721362,74.6348297 35.8914861,53.9397833 C35.9893189,53.7698142 36.0952012,53.6043344 36.2156347,53.4066563 C36.4578947,53.5780186 36.4931889,53.8334365 36.5820433,54.0436533 C38.6235294,58.874613 40.6583591,63.7085139 42.6942724,68.5419505 C46.775387,78.2312693 50.8565015,87.920743 54.9383901,97.6097523 C55.0421053,97.8560372 55.1551084,98.0981424 55.2605263,98.3345201 C55.4078947,98.3103715 55.445356,98.2221362 55.4749226,98.1249226 C55.8712074,96.8226006 56.2402477,95.5131579 56.4580495,94.1667183 C56.5656347,93.502322 56.5670279,92.8452012 56.4233746,92.1766254 C55.8,89.2735294 55.0673375,86.3973684 54.3450464,83.5182663 C52.124613,74.6651703 49.8164087,65.8346749 47.4603715,57.0165635 C47.0645511,55.5349845 46.6424149,54.0603715 46.2580495,52.5758514 C46.0972136,51.954644 45.7911765,51.4456656 45.3385449,50.9981424 C44.3153251,49.9862229 43.2094427,49.0705882 42.0900929,48.1702786 C41.5306502,47.7204334 40.9592879,47.2851393 40.3967492,46.8390093 C40.1306502,46.6281734 40.130805,46.6102167 40.3066563,46.2882353 C40.3896285,46.1362229 40.4780186,45.9873065 40.5645511,45.8371517 C42.4671827,42.5348297 44.3698142,39.2323529 46.273065,35.9301858 C46.3840557,35.7377709 46.4981424,35.5467492 46.6193498,35.3606811 C46.6383901,35.3314241 46.7080495,35.3150155 46.7464396,35.3244582 C46.7818885,35.3332817 46.8193498,35.3798762 46.8335913,35.4182663 C46.8592879,35.4871517 46.8662539,35.5626935 46.8843653,35.6346749 C47.8212074,39.352322 48.7560372,43.0704334 49.6964396,46.7873065 C51.3405573,53.2857585 52.9786378,59.7859133 54.6371517,66.280805 C56.344582,72.9673375 58.0667183,79.6501548 59.7958204,86.3311146 C60.7998452,90.2102167 61.8069659,94.0890093 62.9145511,97.9404025 C63.0103715,98.273065 63.1178019,98.602322 63.2184211,98.9335913 C63.2547988,99.0532508 63.2928793,99.1704334 63.4140867,99.2386997 C63.5710526,99.1826625 63.5998452,99.0326625 63.6424149,98.9027864 C63.8517028,98.2656347 63.9623839,97.604644 64.0654799,96.9456656 C64.5452012,93.8764706 64.701548,90.7914861 64.4835913,87.6900929 C64.4609907,87.3690402 64.4450464,87.0473684 64.4345201,86.7258514 C64.3633127,84.5478328 64.2975232,82.3696594 64.2241486,80.1917957 C64.1232198,77.1972136 64.0182663,74.2029412 63.9131579,71.2085139 C63.819195,68.5359133 63.7250774,65.8633127 63.6263158,63.1908669 C63.527709,60.5182663 63.4273994,57.8459752 63.3201238,55.173839 C63.2297214,52.9224458 63.1455108,50.6704334 63.0266254,48.4204334 C62.9075851,46.1705882 62.8204334,43.9187307 62.6255418,41.6732198 C62.5687307,41.0181115 62.3905573,40.4130031 62.0772446,39.8402477 C61.7315789,39.2085139 61.3213622,38.6202786 60.8815789,38.0517028 C59.8950464,36.776161 58.7987616,35.5979876 57.6674923,34.4517028 C55.6653251,32.4233746 53.5569659,30.5097523 51.3962848,28.6527864 C51.2648607,28.5397833 51.1365325,28.4229102 51.000774,28.3154799 C50.8391641,28.1873065 50.8055728,28.0456656 50.9167183,27.8659443 C51.0335913,27.6766254 51.1414861,27.4815789 51.2526316,27.2886997 C56.3560372,18.4326625 61.4592879,9.57662539 66.5631579,0.720897833 C66.6979876,0.486996904 66.8416409,0.258204334 66.9809598,0.027244582 C67.046904,0.0659442724 67.1074303,0.079876161 67.1287926,0.116718266 C72.5509288,9.47383901 77.9702786,18.8325077 83.3795666,28.1733746 C83.3283282,28.4130031 83.1510836,28.5210526 83.0106811,28.656192 C80.2982972,31.2667183 77.6006192,33.8922601 75.0390093,36.6526316 C74.2814241,37.4690402 73.5648607,38.3235294 72.8332817,39.1639319 C72.6871517,39.3317337 72.5642415,39.5196594 72.4195046,39.6888545 C71.8493808,40.3547988 71.6099071,41.1315789 71.5349845,41.999226 C71.298452,44.7373065 71.0803406,47.4763158 70.9069659,50.2193498 C70.7148607,53.2585139 70.5072755,56.2967492 70.3159443,59.3360681 C70.1106811,62.5978328 69.9151703,65.8603715 69.7181115,69.1226006 C69.5687307,71.5941176 69.423839,74.0657895 69.276161,76.5374613 C69.076935,79.8739938 68.8995356,83.2122291 68.6668731,86.5464396 C68.5633127,88.0317337 68.4959752,89.5143963 68.577709,90.9990712 C68.6921053,93.0755418 68.8571207,95.1486068 69.2854489,97.1899381 C69.3359133,97.4303406 69.4185759,97.6643963 69.495356,97.898452 C69.5065015,97.9329721 69.5660991,97.9678019 69.6063467,97.9719814 C69.6433437,97.9756966 69.7082043,97.947678 69.7202786,97.9174923 C69.8304954,97.6425697 69.9456656,97.3682663 70.0337461,97.0857585 C70.7332817,94.8425697 71.4430341,92.602322 72.1205882,90.352322 C76.3710526,76.2363777 80.5102167,62.0876161 84.6390093,47.9359133 C85.7058824,44.279257 86.7783282,40.6243034 87.8495356,36.9690402 C87.903096,36.7862229 87.8948916,36.5724458 88.1346749,36.4243034 C90.3702786,40.273065 92.5910217,44.126935 94.8116099,47.9696594 C94.6743034,48.2575851 94.422291,48.3862229 94.2165635,48.5569659 C92.9396285,49.6168731 91.6698142,50.6846749 90.4654799,51.8273994 C90.1244582,52.1510836 89.8009288,52.4931889 89.471517,52.8289474 C89.1001548,53.2074303 88.8577399,53.6529412 88.705418,54.1651703 C88.0498452,56.369969 87.3603715,58.5647059 86.7133127,60.7719814 C83.9925697,70.0526316 81.3044892,79.3427245 78.7399381,88.6681115 C78.3464396,90.0987616 77.9874613,91.5390093 77.6179567,92.976161 C77.5626935,93.1910217 77.5108359,93.4120743 77.500774,93.6323529 C77.4340557,95.0886997 77.473065,96.5417957 77.655418,98.0212074 C77.9339009,97.8848297 77.9625387,97.6157895 78.0575851,97.4086687 C79.6558824,93.9229102 81.2448916,90.4328173 82.8356037,86.9434985 C87.7919505,76.0702786 92.7481424,65.196904 97.7051084,54.3239938 C97.796904,54.1227554 97.8989164,53.9263158 98.0195046,53.6803406 C98.2605263,53.8303406 98.3343653,54.0674923 98.4475232,54.2630031 C100.593498,57.9678019 102.735139,61.6752322 104.877864,65.3818885 C114.538854,82.094582 124.200774,98.8066563 133.858359,115.521207 C134.41517,116.48483 134.429567,116.15805 133.768266,117.044272 C129.651548,122.560681 125.524768,128.069505 121.40031,133.580031 C121.387771,133.596904 121.362229,133.60387 121.31517,133.631889 C121.109907,133.55031 121.014706,133.33808 120.884056,133.170743 C116.525232,127.589474 112.169195,122.005728 107.812848,116.422291 C107.490712,115.791641 106.976006,115.664551 106.287616,115.667028 C98.7835913,115.692879 91.279257,115.681115 83.7750774,115.685604 C82.7767802,115.686223 82.9904025,115.538235 82.5973684,116.450155 C77.9758514,127.17322 73.3588235,137.897988 68.7404025,148.622291 C68.6232198,148.894272 68.5041796,149.16548 68.3582043,149.500774" id="Fill-1" fill="#1C3759" mask="url(#mask-2)"></path>
            </g>
            <path d="M3.09597523e-05,173.479195 C0.00962848297,173.17517 0.15993808,173.029195 0.255294118,172.86356 C8.4201548,158.68709 16.5876471,144.512322 24.7580805,130.339102 C25.1675232,129.628885 25.0045201,129.696378 25.8398142,129.696068 C32.1554489,129.69452 38.4710836,129.69452 44.7868731,129.696223 C45.6056037,129.696378 45.539195,129.621765 45.5393498,130.459226 C45.539969,144.55195 45.5401238,158.644675 45.5390402,172.737399 C45.5390402,173.562632 45.619226,173.478111 44.7720124,173.478266 C30.0600929,173.479659 15.3481734,173.479195 0.636408669,173.479195 L3.09597523e-05,173.479195 Z" id="Fill-4" fill="#1C3759"></path>
            <path d="M95.7277245,173.479195 L94.9137926,173.479195 L60.5185913,173.479195 C60.3453715,173.479195 60.1716873,173.483684 59.9986223,173.475944 C59.7167337,173.46356 59.6698297,173.413406 59.660387,173.115108 C59.6540402,172.917276 59.658065,172.718978 59.658065,172.520991 C59.658065,158.579505 59.6569814,144.638328 59.6599226,130.696842 C59.6600774,129.579659 59.5116254,129.696997 60.6345356,129.696378 C65.6367028,129.693746 70.6387152,129.693591 75.6407276,129.696533 C76.6625542,129.697152 76.4243189,129.593901 76.8151858,130.478111 C83.0159598,144.504892 89.2089938,158.535232 95.3998607,172.566347 C95.5170433,172.831827 95.681904,173.085077 95.7277245,173.479195" id="Fill-6" fill="#1C3759"></path>
            <path d="M154.573251,154.149009 C156.138421,151.988638 157.627276,149.894675 159.125573,147.807523 C160.612415,145.736471 162.096625,143.663715 163.582229,141.591734 C165.076502,139.507988 166.56644,137.420991 168.053282,135.358607 C168.2587,135.430898 168.212879,135.546378 168.213344,135.633375 C168.21969,136.673158 168.223406,137.713096 168.22387,138.753034 C168.227585,149.523622 168.230526,160.294211 168.234241,171.064799 C168.234551,171.708607 168.24291,172.352415 168.239505,172.996068 C168.237028,173.468669 168.231146,173.469288 167.728359,173.478731 C167.579907,173.481517 167.4313,173.479195 167.282848,173.479195 C158.517678,173.479195 149.752508,173.47935 140.987492,173.47904 C140.764737,173.47904 140.541672,173.480898 140.319071,173.473003 C140.142136,173.466656 140.056223,173.365418 140.056842,173.187864 C140.057461,172.989876 140.054365,172.791734 140.054365,172.593591 C140.054365,160.114644 140.054211,147.635542 140.05483,135.15644 C140.05483,134.933839 140.059628,134.711084 140.072012,134.488793 C140.072941,134.472384 140.177895,134.435232 140.19322,134.450248 C140.297709,134.551641 140.401269,134.657368 140.486873,134.775015 C141.623406,136.335697 142.756533,137.8987 143.891207,139.460774 C147.295077,144.147307 150.699412,148.833375 154.103901,153.519443 C154.234396,153.699009 154.369071,153.875325 154.573251,154.149009" id="Fill-8" fill="#1C3759"></path>
            <path d="M125.935929,129.764195 L125.935929,130.50243 C125.935929,144.569923 125.936084,158.637415 125.936084,172.705062 C125.936084,172.853669 125.93918,173.00243 125.933452,173.150882 C125.921842,173.449334 125.902492,173.466981 125.572152,173.476889 C125.398932,173.482152 125.225557,173.479211 125.052183,173.479211 C119.157601,173.479211 113.263173,173.479365 107.368591,173.479056 C107.170449,173.479056 106.972152,173.481378 106.774319,173.473173 C106.585929,173.465433 106.529427,173.364814 106.603885,173.172864 C106.657601,173.034783 106.721378,172.900418 106.781285,172.764505 C113.02695,158.619613 119.272461,144.474567 125.518901,130.32983 C125.606207,130.132307 125.703731,129.939272 125.796455,129.744226 L125.935929,129.764195 Z" id="Fill-10" fill="#1C3759"></path>
            <path d="M182.264319,142.806966 C182.592957,143.080341 182.684443,143.340093 182.815402,143.566409 C185.691099,148.534365 188.562152,153.504799 191.435217,158.474303 C194.147446,163.165325 196.862307,167.854644 199.570666,172.547678 C199.725619,172.816254 199.962616,173.065635 199.911842,173.412384 C199.704257,173.518266 199.503328,173.477245 199.309365,173.477399 C193.887074,173.479567 188.464628,173.479257 183.042183,173.478947 C182.893731,173.478947 182.745124,173.477554 182.596672,173.472755 C182.456424,173.468111 182.364938,173.403406 182.360449,173.253251 C182.355186,173.079876 182.353019,172.906656 182.352554,172.733437 C182.34048,167.657895 182.331347,162.582198 182.316022,157.506656 C182.302245,152.901703 182.281811,148.296904 182.264319,143.69195 C182.263545,143.447833 182.264319,143.20356 182.264319,142.806966" id="Fill-12" fill="#1C3759"></path>
            <path d="M75.4673684,178.788158 C75.8958514,179.900851 76.3052941,180.961687 76.7127245,182.023297 C78.5467802,186.802864 80.3800619,191.582585 82.2144272,196.361997 C82.2763467,196.522988 82.3426006,196.682895 82.4172136,196.838158 C82.4333127,196.871285 82.4967802,196.900851 82.5364087,196.898375 C82.5727864,196.896362 82.6229412,196.85596 82.6387307,196.820046 C82.7082353,196.661533 82.7678328,196.498684 82.8303715,196.337229 C83.9569969,193.431966 85.0848607,190.527012 86.2096285,187.620975 C87.2628793,184.899303 88.3125697,182.176238 89.3639628,179.453947 C89.4175232,179.315402 89.469226,179.176084 89.5272755,179.039551 C89.5882663,178.896053 89.6766563,178.79017 89.8548297,178.790635 C90.969226,178.792647 92.0834675,178.790944 93.197709,178.792183 C93.3681424,178.792337 93.4785139,178.868498 93.4814551,179.053947 C93.4840867,179.227322 93.4860991,179.400542 93.4860991,179.573762 C93.4862539,186.408282 93.4867183,193.242647 93.4856347,200.076858 C93.4856347,200.975774 93.5706192,200.902554 92.6373375,200.903328 C92.1421362,200.903793 91.646935,200.902554 91.1517337,200.896517 C91.0088545,200.894814 90.923096,200.806269 90.9124149,200.666176 C90.899257,200.493885 90.8972446,200.320356 90.8972446,200.147136 C90.8964706,195.516641 90.8845511,190.885991 90.9039009,186.25565 C90.9100929,184.796053 90.9388854,183.333978 91.0788235,181.877941 C91.0901238,181.759211 91.0802167,181.638313 91.0802167,181.515867 C90.8805263,181.550232 90.8616409,181.708437 90.8088545,181.845279 C90.2210836,183.368034 89.6305263,184.889706 89.0421362,186.412307 C87.2596285,191.026238 85.4794427,195.640944 83.6941486,200.253793 C83.4193808,200.963545 83.5333127,200.90209 82.7455418,200.903483 C82.3741796,200.904257 82.0026625,200.90178 81.6313003,200.901625 C81.468452,200.901625 81.3483282,200.843111 81.2876471,200.679644 C81.2187616,200.49435 81.1371827,200.3137 81.0664396,200.12887 C78.8148916,194.238158 76.5642724,188.347136 74.3127245,182.456269 C74.2243344,182.22531 74.1272755,181.997601 74.0370279,181.767415 C74.0068421,181.690635 73.9426006,181.632276 73.8783591,181.664164 C73.8362539,181.685217 73.8121053,181.78692 73.8162848,181.850077 C74.019226,184.867105 73.9808359,187.888313 73.9817647,190.909056 C73.9828483,193.929954 73.9820743,196.951006 73.9819195,199.972059 C73.9819195,200.145279 73.9867183,200.318808 73.9802167,200.491873 C73.9675232,200.834288 73.9172136,200.896362 73.6029721,200.900387 C73.0336223,200.907663 72.4639628,200.900077 71.8944582,200.901006 C71.7178328,200.901316 71.6142724,200.820201 71.6043653,200.642957 C71.5947678,200.470046 71.595387,200.296517 71.595387,200.123297 C71.5950774,193.264319 71.5949226,186.405031 71.595387,179.545898 C71.595387,178.700232 71.5398142,178.791563 72.3537461,178.788932 C73.367678,178.785681 74.3816099,178.788158 75.4673684,178.788158" id="Fill-14" fill="#203A5B"></path>
            <path d="M123.190433,197.216471 C123.130836,195.800836 123.067368,194.490464 123.02356,193.179319 C122.998019,192.412601 122.997399,191.644799 122.996935,190.877461 C122.994303,187.187214 122.995697,183.497121 122.995697,179.806873 C122.995697,179.683034 122.996625,179.55935 122.995697,179.435511 C122.990124,178.74774 123.001734,178.786285 123.647554,178.788142 C124.142755,178.78969 124.638111,178.788762 125.133467,178.792632 C125.30452,178.794025 125.412105,178.87483 125.415046,179.058266 C125.418142,179.256409 125.42,179.454396 125.42,179.652539 C125.42031,186.438452 125.420929,193.224365 125.419536,200.010279 C125.419381,200.992941 125.514118,200.900372 124.56195,200.903467 C124.017214,200.905325 123.471238,200.883808 122.927895,200.910588 C122.583932,200.927771 122.359009,200.812136 122.21226,200.508111 C122.1587,200.397585 122.080217,200.298978 122.012724,200.195263 C118.300186,194.48969 114.588111,188.783498 110.872477,183.079783 C110.730062,182.861207 110.62031,182.60935 110.336873,182.386749 C110.336873,182.705325 110.320929,182.94031 110.339505,183.172663 C110.48161,184.951455 110.529288,186.733808 110.535325,188.51678 C110.548328,192.330712 110.53935,196.144644 110.53935,199.958731 C110.53935,200.107337 110.541981,200.255944 110.538576,200.404396 C110.527585,200.884892 110.519071,200.89743 110.028514,200.902384 C109.508545,200.907492 108.988266,200.906718 108.468452,200.898978 C108.221858,200.895418 108.171548,200.838142 108.156997,200.585511 C108.148638,200.437368 108.152508,200.288452 108.152508,200.139845 C108.152353,193.279474 108.151734,186.419257 108.15483,179.55904 C108.154985,179.317245 108.097864,179.064458 108.25808,178.79 C109.100495,178.79 109.965201,178.790929 110.829907,178.789226 C110.993065,178.788916 111.111022,178.854396 111.19678,178.99418 C111.300186,179.16291 111.413189,179.325759 111.521238,179.491548 C115.225263,185.173437 118.928204,190.855789 122.635944,196.535201 C122.778669,196.753622 122.876347,197.018173 123.190433,197.216471" id="Fill-16" fill="#203A5B"></path>
            <path d="M11.9329102,184.611703 C11.9329102,185.700093 11.9296594,186.788483 11.9349226,187.876873 C11.9364706,188.217121 11.979969,188.261548 12.3234675,188.263715 C13.362322,188.270062 14.4013313,188.262477 15.4401858,188.268359 C16.183065,188.272539 16.9236223,188.240495 17.6629412,188.169443 C18.306904,188.107678 18.9324458,187.968824 19.5253251,187.707214 C20.2923529,187.368978 20.807678,186.797616 21.0575232,185.995139 C21.2589164,185.348854 21.3228483,184.685077 21.2420433,184.015108 C21.0997833,182.833839 20.488483,181.997152 19.3655728,181.561858 C19.1360062,181.472848 18.9010217,181.392198 18.6624768,181.331981 C17.8923529,181.137864 17.1087616,181.035542 16.3140248,181.031827 C15.0525697,181.025789 13.7909598,181.024396 12.5295046,181.022074 C12.40613,181.02192 12.2821362,181.023003 12.1590712,181.032136 C12.0141796,181.042663 11.9428173,181.131517 11.9389474,181.272693 C11.9341486,181.445604 11.9327554,181.618824 11.9326006,181.791734 C11.9321362,182.731672 11.9324458,183.671765 11.9329102,184.611703 M11.9324458,194.562941 C11.9324458,195.701022 11.9318266,196.838947 11.9329102,197.977028 C11.933065,198.149938 11.9370898,198.323003 11.9474613,198.495604 C11.9541176,198.606594 12.0211455,198.676254 12.1335294,198.685697 C12.2564396,198.695913 12.3801238,198.701022 12.5034985,198.700867 C13.8889474,198.699938 15.2743963,198.691269 16.6598452,198.698854 C17.2321362,198.70195 17.7969969,198.635077 18.3573684,198.544211 C18.9439009,198.449164 19.5095356,198.272848 20.0398762,197.990341 C20.9191331,197.521765 21.4748607,196.808452 21.740031,195.849628 C21.9011765,195.267121 21.9186687,194.676873 21.8912693,194.083529 C21.8213003,192.570372 21.0886378,191.523777 19.6682043,190.970836 C19.0651084,190.736161 18.4404954,190.595449 17.7971517,190.537554 C15.9697523,190.373158 14.1378638,190.467585 12.3078328,190.446378 C12.2587616,190.445759 12.2093808,190.45257 12.1603096,190.458297 C12.0152632,190.47517 11.9431269,190.563096 11.9381734,190.703653 C11.9321362,190.876563 11.9326006,191.049938 11.9326006,191.223003 C11.9321362,192.336316 11.9324458,193.449628 11.9324458,194.562941 M19.7110836,189.304272 C19.9932817,189.374861 20.2352322,189.42517 20.4711455,189.496223 C20.8493189,189.610155 21.2332198,189.713715 21.5973065,189.86356 C23.4666563,190.632601 24.4914241,192.031672 24.6641796,194.046223 C24.732291,194.841269 24.660774,195.628111 24.4626316,196.401486 C24.058452,197.979505 23.1017957,199.121455 21.688483,199.899783 C20.8098452,200.383529 19.8590712,200.649009 18.8730031,200.778576 C18.186935,200.868824 17.4954489,200.911393 16.8000929,200.907833 C14.5974613,200.896842 12.3946749,200.904118 10.1920433,200.903344 C9.99421053,200.903344 9.79622291,200.899474 9.59839009,200.893591 C9.44653251,200.888947 9.38043344,200.787554 9.37130031,200.654118 C9.3593808,200.481672 9.36356037,200.307678 9.36356037,200.134458 C9.36294118,199.095139 9.36325077,198.055666 9.36325077,197.016192 C9.36325077,191.249628 9.36325077,185.48291 9.36340557,179.716347 C9.36340557,179.493591 9.36510836,179.270836 9.36712074,179.048235 C9.36882353,178.860929 9.47609907,178.788173 9.65102167,178.79065 C9.67563467,178.790805 9.70055728,178.789567 9.72517028,178.789567 C12.1753251,178.796997 14.6257895,178.779814 17.0753251,178.822539 C18.2127864,178.842198 19.3425077,179.01774 20.429969,179.383684 C20.756904,179.493591 21.0835294,179.614954 21.3925077,179.766966 C22.7525697,180.436471 23.5558204,181.526099 23.8267183,183.018824 C23.9743963,183.832446 23.9866254,184.639721 23.8228483,185.451796 C23.5350774,186.87904 22.7457585,187.927028 21.4558204,188.59452 C21.0380186,188.810619 20.5963777,188.972384 20.133839,189.070217 C19.9898762,189.100557 19.8406502,189.120836 19.7110836,189.304272" id="Fill-18" fill="#203A5B"></path>
            <path d="M175.043653,182.448158 C174.864087,182.598932 174.932508,182.753111 174.940557,182.885 C175.293963,188.675867 175.057276,194.47308 175.125697,200.266734 C175.127245,200.390418 175.127554,200.514721 175.119659,200.638096 C175.108204,200.814721 175.006811,200.899861 174.83096,200.900015 C174.236687,200.900015 173.64226,200.905743 173.047988,200.897693 C172.814396,200.894443 172.758514,200.824164 172.748142,200.569675 C172.740248,200.371997 172.744582,200.173545 172.744582,199.975557 C172.744582,193.213947 172.743344,186.452492 172.745975,179.690882 C172.74644,178.662554 172.626935,178.798313 173.66161,178.789025 C174.181734,178.784381 174.703251,178.811161 175.221517,178.780356 C175.570279,178.759613 175.781889,178.894598 175.93483,179.185155 C176.00387,179.316115 176.092105,179.437012 176.173375,179.561471 C179.82322,185.160542 183.47322,190.759768 187.123684,196.358684 C187.258824,196.56596 187.397059,196.771223 187.53808,196.974474 C187.578019,197.031904 187.63808,197.106672 187.711146,197.046455 C187.755263,197.009923 187.780186,196.9237 187.777709,196.861006 C187.741022,195.920604 187.695975,194.980666 187.65805,194.040418 C187.63096,193.372307 187.592724,192.704195 187.59226,192.036084 C187.5887,187.875093 187.594272,183.714257 187.597368,179.553266 C187.597523,179.380046 187.599845,179.206827 187.605573,179.033452 C187.610526,178.888715 187.694427,178.799241 187.834056,178.797693 C188.477864,178.791192 189.121672,178.791811 189.76548,178.793978 C189.906811,178.794288 189.994737,178.871997 190.001238,179.018127 C190.009133,179.191192 190.012074,179.364567 190.012074,179.537786 C190.012539,186.398467 190.012539,193.258994 190.012384,200.119365 C190.012384,200.267972 190.016409,200.416889 190.008359,200.565186 C189.993344,200.844907 189.94226,200.898777 189.642415,200.901099 C188.899536,200.906981 188.156347,200.898777 187.413467,200.906053 C187.195356,200.90822 187.032817,200.845062 186.917183,200.652492 C186.789938,200.440263 186.647368,200.237477 186.512384,200.030046 C182.839783,194.386548 179.167492,188.742895 175.493963,183.099861 C175.350929,182.880201 175.19613,182.668282 175.043653,182.448158" id="Fill-20" fill="#203A5B"></path>
            <path d="M51.5855882,189.821053 C51.5855882,192.494582 51.5855882,195.167957 51.5858978,197.841486 C51.5858978,198.039474 51.5823375,198.237926 51.5939474,198.435139 C51.6023065,198.575851 51.6908514,198.654025 51.8345046,198.661146 C51.9086533,198.665015 51.9828019,198.66904 52.0569505,198.668731 C53.0719659,198.665015 54.087291,198.679567 55.1013777,198.651238 C56.3163932,198.617647 57.520418,198.481579 58.6840402,198.102786 C61.1541641,197.298607 62.7490557,195.64582 63.4761455,193.152477 C63.6851238,192.436533 63.8023065,191.70387 63.863452,190.963932 C64.0077245,189.221517 63.8985913,187.50031 63.3312539,185.832508 C62.7012229,183.980495 61.5072601,182.625387 59.7098916,181.825542 C58.9602012,181.49195 58.1727399,181.285759 57.3602012,181.16935 C55.536517,180.90805 53.7023065,181.063777 51.8730495,181.024458 C51.6998297,181.020588 51.5910062,181.092879 51.5894582,181.280805 C51.5877554,181.478793 51.585743,181.676935 51.585743,181.874923 C51.5855882,184.523529 51.5855882,187.172446 51.5855882,189.821053 M48.989613,189.792105 C48.989613,186.426006 48.9894582,183.059907 48.9900774,179.693808 C48.9900774,179.471362 48.994257,179.248607 49.0012229,179.026161 C49.0057121,178.879567 49.0931734,178.802632 49.2338854,178.794582 C49.3818731,178.786068 49.5306347,178.78839 49.6792415,178.78839 C51.8077245,178.788235 53.9363622,178.790557 56.0648452,178.787771 C57.4866718,178.785913 58.8831115,178.974613 60.2232043,179.44613 C63.4128328,180.567957 65.421192,182.806966 66.2280031,186.070898 C66.8747523,188.68839 66.8273839,191.32709 66.0690248,193.921207 C65.0937926,197.25743 62.8567957,199.349845 59.5518421,200.332663 C58.2383746,200.72322 56.8851238,200.879721 55.5215015,200.896904 C53.5417802,200.921672 51.5614396,200.903715 49.5814087,200.90356 C49.4824923,200.90356 49.3834211,200.900774 49.2845046,200.89969 C49.1075697,200.897988 49.0066409,200.805728 48.9982817,200.632817 C48.9874458,200.410526 48.9899226,200.187461 48.9897678,199.964706 C48.9894582,196.573994 48.9894582,193.183127 48.989613,189.792105" id="Fill-22" fill="#203A5B"></path>
            <g id="Group-26" transform="translate(147.368421, 178.300310)" fill="#203A5B">
                <path d="M2.86970588,11.359582 C2.8669195,12.391161 2.90190402,13.2807895 3.05314241,14.1629876 C3.25948916,15.367322 3.59772446,16.5247523 4.24911765,17.5721207 C5.09633127,18.9345046 6.28735294,19.8453406 7.83394737,20.2818731 C9.2924613,20.693483 10.7692415,20.7075697 12.2460217,20.4185604 C14.2152167,20.0331115 15.6715635,18.943483 16.5984985,17.1555573 C17.1763622,16.0406966 17.4621207,14.8428638 17.6097988,13.6067957 C17.774969,12.2238235 17.7810062,10.8399226 17.6132043,9.45633127 C17.4478793,8.09394737 17.1245046,6.78001548 16.4235759,5.58233746 C15.5532972,4.09518576 14.2769814,3.14874613 12.6094892,2.7273839 C11.2423065,2.38202786 9.86258514,2.36267802 8.48456656,2.63017028 C7.13952012,2.89131579 5.95856037,3.47862229 5.01382353,4.49781734 C4.2048452,5.37057276 3.68967492,6.4030805 3.35948916,7.53388545 C2.98162539,8.8280031 2.85004644,10.1546285 2.86970588,11.359582 M20.4497368,11.389613 C20.4712539,13.2283127 20.2590248,14.8893034 19.7053096,16.4984365 C19.1554644,18.0965789 18.2854954,19.4877554 17.0189319,20.6176316 C15.685805,21.8067957 14.1048452,22.4687152 12.3584056,22.7431734 C10.6789938,23.0071053 9.00004644,22.9646904 7.34354489,22.5701084 C4.23719814,21.8300155 2.16088235,19.9067957 1.00995356,16.9589628 C0.566919505,15.8238235 0.336114551,14.6358978 0.214133127,13.4232043 C0.0796130031,12.0871362 0.0837925697,10.7543189 0.228219814,9.42103715 C0.375433437,8.06051084 0.676362229,6.73868421 1.24927245,5.48899381 C2.53952012,2.67459752 4.72078947,0.969643963 7.74602167,0.384349845 C9.55948916,0.0332662539 11.3878173,0.0352786378 13.1994272,0.463297214 C15.9841022,1.12150155 17.9571672,2.7902322 19.2193963,5.32862229 C19.7746594,6.44549536 20.0941641,7.63899381 20.2776006,8.86856037 C20.4093344,9.75106811 20.4805418,10.6391486 20.4497368,11.389613" id="Fill-24"></path>
            </g>
            <path d="M36.2345046,181.824567 C36.0540093,181.943916 36.0363622,182.068839 36.0061765,182.187724 C35.7261455,183.289892 35.3592724,184.363576 34.9540093,185.425341 C34.2584985,187.247322 33.5668576,189.070851 32.8809443,190.896393 C32.8060217,191.096084 32.6487461,191.289118 32.7654644,191.548251 L39.6371362,191.548251 C39.6492105,191.505526 39.6671672,191.477972 39.6608204,191.458467 C38.613452,188.220077 37.1831115,185.118684 36.2345046,181.824567 M36.1391486,193.866672 C34.8523065,193.866362 33.5654644,193.86404 32.2786223,193.867601 C31.7275387,193.869149 31.7208824,193.87209 31.5252167,194.373483 C30.9320279,195.893142 30.3441022,197.414659 29.7547833,198.935712 C29.540387,199.488808 29.3298607,200.043297 29.1129876,200.595464 C29.0484365,200.759551 28.9659288,200.903669 28.7471981,200.901811 C28.0544737,200.895619 27.3615944,200.900573 26.66887,200.896238 C26.5281579,200.89531 26.445805,200.779211 26.487291,200.64887 C26.5397678,200.484474 26.6002941,200.322399 26.663452,200.161563 C29.3886842,193.239272 32.112678,186.316362 34.8433282,179.396084 C35.1598916,178.593916 35.0244427,178.708158 35.8354334,178.699489 C36.2314087,178.695155 36.6273839,178.701502 37.0232043,178.700728 C37.1876006,178.700418 37.3063313,178.761409 37.3679412,178.922399 C37.4297059,179.084009 37.5013777,179.241594 37.5643808,179.402585 C40.2770743,186.32983 42.9877554,193.257693 45.7033901,200.183854 C46.0125232,200.972554 46.0156192,200.90274 45.1815635,200.903669 C44.7114396,200.904288 44.2391486,200.876579 43.7716563,200.912337 C43.3996749,200.940666 43.245805,200.767601 43.1272291,200.455217 C42.7413158,199.438653 42.3368266,198.429211 41.9406966,197.416517 C41.5264551,196.357539 41.1102012,195.299489 40.7026161,194.238034 C40.6010681,193.973483 40.4374458,193.860325 40.1478173,193.862492 C38.8115944,193.872399 37.4753715,193.866827 36.1391486,193.866672" id="Fill-27" fill="#203A5B"></path>
            <path d="M135.73322,190.93291 C135.73322,187.91356 135.733375,184.894211 135.733065,181.874861 C135.73291,181.677028 135.733839,181.47904 135.72548,181.281207 C135.719598,181.14096 135.644211,181.054118 135.495759,181.051176 C135.297771,181.047307 135.099938,181.04452 134.90195,181.04452 C133.070526,181.043901 131.239102,181.042972 129.407833,181.044675 C128.674706,181.045449 128.742817,181.063406 128.74065,180.346687 C128.739721,180.025015 128.742817,179.703189 128.740031,179.381517 C128.734768,178.770836 128.742043,178.783994 129.369133,178.788173 C129.443437,178.788638 129.51774,178.788173 129.591889,178.788173 C134.566347,178.788173 139.540805,178.787709 144.515263,178.788793 C145.427028,178.788947 145.328731,178.707523 145.332755,179.640031 C145.334458,180.035697 145.329195,180.431672 145.323467,180.827492 C145.321765,180.939412 145.255975,181.016347 145.145759,181.024551 C144.949009,181.039257 144.751022,181.043282 144.553498,181.043437 C142.796378,181.044675 141.039257,181.044211 139.282136,181.044211 C139.133684,181.044211 138.985077,181.042043 138.836625,181.044675 C138.35257,181.053189 138.350402,181.053808 138.342043,181.54452 C138.337245,181.816502 138.34096,182.088947 138.34096,182.361238 L138.34096,199.88322 C138.34096,200.05644 138.343746,200.229814 138.340186,200.402879 C138.330124,200.889412 138.326718,200.897616 137.83291,200.902105 C137.239102,200.907678 136.644985,200.907059 136.051176,200.89839 C135.811703,200.89483 135.748235,200.823932 135.737554,200.584923 C135.728731,200.387245 135.733375,200.188947 135.733375,199.99096 C135.73322,196.97161 135.73322,193.95226 135.73322,190.93291" id="Fill-29" fill="#203A5B"></path>
            <path d="M102.111889,189.793235 C102.111889,193.209799 102.111889,196.626517 102.111734,200.04308 C102.111734,200.241068 102.112353,200.439211 102.10709,200.637198 C102.102136,200.820944 101.989598,200.899272 101.818545,200.899737 C101.150279,200.90144 100.481703,200.899892 99.8132817,200.899582 C99.6295356,200.899582 99.5460991,200.7937 99.5391331,200.62404 C99.5312384,200.426053 99.5334056,200.22791 99.5334056,200.029923 C99.533096,193.246176 99.5318576,186.46243 99.5344892,179.678684 C99.5349536,178.641068 99.4312384,178.801904 100.458328,178.78952 C100.928452,178.783947 101.39904,178.789365 101.869164,178.796331 C102.008638,178.798498 102.098885,178.876517 102.10291,179.023885 C102.109102,179.246331 102.111579,179.469241 102.111579,179.691842 C102.112043,183.059025 102.111889,186.426053 102.111889,189.793235" id="Fill-31" fill="#203A5B"></path>
        </g>
    </g>
</svg>