<svg id="Ebene_1" data-name="Ebene 1" xmlns="http://www.w3.org/2000/svg" viewBox="0 0 500 82.605"><defs><style>.cls-1{fill:#005393;}</style></defs><title>tvrefrath</title><path class="cls-1" d="M108.923,216.777h22.631L89.785,288.29h-24.6l-7.3-44.843h22l2.178,23.707Zm-1.962-2.866L84.44,256.888l-1.671-16.409H54.123l8.29,50.778h28.65L136.2,213.911Z" transform="translate(0 -208.698)"/><path class="cls-1" d="M6.712,216.777H85.43l-4.145,17.881H49.371L38.21,288.29H14.8l11.659-53.631H3.254ZM4.63,213.911,0,237.419H22.812L11.549,291.257H40.106l11.536-53.838H83.463l5.331-23.508Z" transform="translate(0 -208.698)"/><path class="cls-1" d="M144.723,260.69h3.021q7.6,0,9.838-.7a5.881,5.881,0,0,0,3.321-2.381A5.944,5.944,0,0,0,162,254.389a3.875,3.875,0,0,0-1.3-3.082c-.869-.767-2.756-1.129-5.662-1.129h-8.105Zm-11.545-20.964h29.347q7.594,0,11.121,3.964a13.941,13.941,0,0,1,3.515,9.582,16.178,16.178,0,0,1-3.726,10.57c-2.483,3.016-6.465,4.943-11.915,5.79q4.835,3.936,11.593,21.669H156.272c-1.42-3.731-3.069-7.805-4.987-12.237q-2.864-6.615-4.313-7.677a5.725,5.725,0,0,0-3.484-1.045h-.842L138.241,291.3h-16Z" transform="translate(0 -208.698)"/><polygon class="cls-1" points="189.237 31.03 178.213 82.602 222.513 82.602 225.057 70.85 196.658 70.85 198.832 60.751 224.034 60.751 226.34 50.296 201.125 50.296 202.845 42.107 229.026 42.107 231.372 31.03 189.237 31.03"/><polygon class="cls-1" points="241.335 31.03 230.324 82.602 246.274 82.602 250.498 61.708 273.698 61.708 275.991 51.262 252.893 51.262 254.886 42.041 278.531 42.041 280.921 31.03 241.335 31.03"/><path class="cls-1" d="M300.863,260.69h3.03q7.594,0,9.842-.7a6.145,6.145,0,0,0,4.41-5.6,3.84,3.84,0,0,0-1.305-3.082c-.86-.767-2.769-1.129-5.653-1.129h-8.092Zm-11.549-20.964h29.347q7.607,0,11.121,3.964a14,14,0,0,1,3.541,9.582,16.1,16.1,0,0,1-3.744,10.57c-2.492,3.016-6.46,4.943-11.942,5.79q4.875,3.936,11.611,21.669H312.4q-2.1-5.6-4.952-12.237c-1.931-4.41-3.356-6.963-4.326-7.677a5.735,5.735,0,0,0-3.484-1.045h-.847L294.4,291.3H278.387Z" transform="translate(0 -208.698)"/><path class="cls-1" d="M365.565,253.129h.154l1.57,18.79h-10.6Zm-6.112-13.4L330.3,291.3h17.185l4.008-8.445h16.823l.714,8.445h15.615l-8.193-51.572Z" transform="translate(0 -208.698)"/><polygon class="cls-1" points="390.48 31.03 387.804 43.695 403.815 43.695 395.437 82.602 411.444 82.602 419.871 43.695 436.619 43.695 439.256 31.03 390.48 31.03"/><polygon class="cls-1" points="479.575 31.03 475.527 49.251 458.285 49.251 462.174 31.03 446.185 31.03 435.094 82.602 451.234 82.602 455.648 61.647 472.916 61.647 468.454 82.602 484.452 82.602 495.547 31.03 479.575 31.03"/><path class="cls-1" d="M299.055,219.985h6.434c3.082,0,5.287-.4,6.645-1.217a3.953,3.953,0,0,0,2.033-3.576,2.966,2.966,0,0,0-.635-1.927,3.509,3.509,0,0,0-1.685-1.177,13.715,13.715,0,0,0-3.942-.375h-6.778ZM296,232.138h7.241a28.655,28.655,0,0,0,3.881-.159A10.209,10.209,0,0,0,310.4,231a5.4,5.4,0,0,0,1.962-1.826,4.5,4.5,0,0,0,.706-2.386,3.23,3.23,0,0,0-1.385-2.822c-.93-.644-2.716-.966-5.331-.966h-8.048Zm-5.014,2.99,6.645-26.427h9.851a33.052,33.052,0,0,1,4,.185,11.29,11.29,0,0,1,3.576,1.072,5.708,5.708,0,0,1,1.636,8.859,9.076,9.076,0,0,1-4.414,2.527,7.762,7.762,0,0,1,3.85,2.121,4.647,4.647,0,0,1,1.27,3.294,6.818,6.818,0,0,1-1.491,4.194,9.963,9.963,0,0,1-3.982,3.091,13.584,13.584,0,0,1-5.539,1.085Z" transform="translate(0 -208.698)"/><path class="cls-1" d="M337.118,225.435a10.42,10.42,0,0,1-1.782.41c-.6.11-1.671.2-3.126.313a28.652,28.652,0,0,0-4.855.639,4,4,0,0,0-2.121,1.23,2.8,2.8,0,0,0,.423,4.136,5.275,5.275,0,0,0,3.246.869,8.673,8.673,0,0,0,3.753-.851,7.069,7.069,0,0,0,2.835-2.386,12.726,12.726,0,0,0,1.627-4.361m-1.468,7.316a15.775,15.775,0,0,1-3.907,2.139,11.831,11.831,0,0,1-4.035.67,8.024,8.024,0,0,1-5.142-1.565,4.833,4.833,0,0,1-1.945-3.982,4.765,4.765,0,0,1,.873-2.84,6.409,6.409,0,0,1,2.342-1.984,11.85,11.85,0,0,1,3.545-1.072,47.035,47.035,0,0,1,5.014-.344,20.872,20.872,0,0,0,5.3-.653,6.89,6.89,0,0,0,.459-2.214,2.056,2.056,0,0,0-1.005-1.79,7.307,7.307,0,0,0-3.973-.9,8.02,8.02,0,0,0-4.048.913,5.237,5.237,0,0,0-2.284,2.593l-3.978-.291a8.98,8.98,0,0,1,3.854-4.37,13.232,13.232,0,0,1,6.637-1.5,11.873,11.873,0,0,1,6.76,1.689,3.791,3.791,0,0,1,1.918,3.281,13.974,13.974,0,0,1-.551,3.554l-1.274,4.771a14.617,14.617,0,0,0-.6,3.682,10.161,10.161,0,0,0,.472,2.593h-3.973a10.784,10.784,0,0,1-.463-2.377" transform="translate(0 -208.698)"/><path class="cls-1" d="M349.586,227.117a8.493,8.493,0,0,0,.485,3.149,4.228,4.228,0,0,0,1.623,1.914,4.839,4.839,0,0,0,2.765.767,6.468,6.468,0,0,0,4.815-2.3,10.593,10.593,0,0,0,2.906-7.567,4.5,4.5,0,0,0-1.438-3.563,5.178,5.178,0,0,0-3.6-1.274,6.174,6.174,0,0,0-2.558.525,6.957,6.957,0,0,0-2.284,1.773,10.428,10.428,0,0,0-1.931,3.188,9.275,9.275,0,0,0-.785,3.391m10.76,5.234a10.086,10.086,0,0,1-7.029,3.206,7.767,7.767,0,0,1-5.45-1.993,7.6,7.6,0,0,1-2.17-5.847,12.191,12.191,0,0,1,1.729-6.39,11.493,11.493,0,0,1,4.313-4.335,10.431,10.431,0,0,1,5.177-1.433A7.181,7.181,0,0,1,363.4,219l2.593-10.3h3.9l-6.632,26.432h-3.62Z" transform="translate(0 -208.698)"/><path class="cls-1" d="M369.487,235.128l4.815-19.134h3.916l-.811,3.149a15.829,15.829,0,0,1,3.929-2.822,9.09,9.09,0,0,1,3.739-.763,6.312,6.312,0,0,1,3.576.948,4.436,4.436,0,0,1,1.9,2.637,12.74,12.74,0,0,1,3.687-2.7,9.732,9.732,0,0,1,4.1-.886,6.875,6.875,0,0,1,4.313,1.129,3.813,3.813,0,0,1,1.455,3.193,14.067,14.067,0,0,1-.507,2.924l-3.1,12.325h-3.916l3.166-12.647a10.7,10.7,0,0,0,.414-2.227,1.719,1.719,0,0,0-.728-1.468,3.267,3.267,0,0,0-2-.547,8.343,8.343,0,0,0-3.59.878,7.28,7.28,0,0,0-2.831,2.328,13.859,13.859,0,0,0-1.746,4.4l-2.346,9.282h-3.925l3.254-12.934a8.784,8.784,0,0,0,.348-1.865,1.848,1.848,0,0,0-.723-1.513,2.758,2.758,0,0,0-1.83-.578,8.232,8.232,0,0,0-3.5.878,7.745,7.745,0,0,0-2.977,2.478,13.1,13.1,0,0,0-1.887,4.494l-2.271,9.04Z" transform="translate(0 -208.698)"/><path class="cls-1" d="M411.14,215.994l-4.811,19.134h3.929l4.807-19.134Zm1.839-7.294-.926,3.709h3.907l.93-3.709Z" transform="translate(0 -208.698)"/><path class="cls-1" d="M416.327,235.128l4.824-19.134h3.559l-.851,3.329a18.735,18.735,0,0,1,4.339-2.862,9.8,9.8,0,0,1,4.105-.9,6.876,6.876,0,0,1,4.4,1.252,4.144,4.144,0,0,1,1.6,3.378,15.788,15.788,0,0,1-.564,3.343l-2.937,11.6h-3.916L433.944,223a11.854,11.854,0,0,0,.445-2.6,1.862,1.862,0,0,0-.78-1.565,3.764,3.764,0,0,0-2.28-.591,8.633,8.633,0,0,0-5.375,1.8c-1.561,1.213-2.708,3.268-3.462,6.191l-2.222,8.9Z" transform="translate(0 -208.698)"/><path class="cls-1" d="M450.205,232.481l-.67,2.668a12.453,12.453,0,0,1-2.712.309,6.421,6.421,0,0,1-3.726-.957,2.248,2.248,0,0,1-1.05-1.967,16.1,16.1,0,0,1,.564-2.893l2.8-11.126h-3.1l.613-2.522h3.113l1.186-4.714,4.489-2.249-1.746,6.963h3.845l-.648,2.522h-3.845L446.66,229.1a17.228,17.228,0,0,0-.5,2.412,1.023,1.023,0,0,0,.4.878,2.081,2.081,0,0,0,1.31.3,11.4,11.4,0,0,0,2.333-.212" transform="translate(0 -208.698)"/><path class="cls-1" d="M457.971,227.552a5.226,5.226,0,0,0,1.565,4.092,5.7,5.7,0,0,0,3.96,1.389,7.6,7.6,0,0,0,2.5-.415,7.272,7.272,0,0,0,2.293-1.292,8.481,8.481,0,0,0,1.8-1.976,10.015,10.015,0,0,0,1.213-2.381,9.4,9.4,0,0,0,.692-3.44A5.2,5.2,0,0,0,470.4,219.5a5.65,5.65,0,0,0-3.947-1.424,7.468,7.468,0,0,0-3.36.732,8.588,8.588,0,0,0-2.743,2.13,9.065,9.065,0,0,0-1.8,3.276,11.444,11.444,0,0,0-.578,3.334m-3.911.317a11.915,11.915,0,0,1,12.546-12.312,10,10,0,0,1,6.7,2.156,7.244,7.244,0,0,1,2.553,5.843,12.37,12.37,0,0,1-1.61,6.143,10.847,10.847,0,0,1-4.551,4.357,13.65,13.65,0,0,1-6.244,1.5,12.12,12.12,0,0,1-4.877-.948,7.5,7.5,0,0,1-3.356-2.7,7.029,7.029,0,0,1-1.16-4.039" transform="translate(0 -208.698)"/><path class="cls-1" d="M478.053,235.128l4.8-19.134h3.55l-.833,3.329a17.823,17.823,0,0,1,4.33-2.862,9.789,9.789,0,0,1,4.123-.9,6.808,6.808,0,0,1,4.37,1.252A4.1,4.1,0,0,1,500,220.188a15.788,15.788,0,0,1-.564,3.343l-2.924,11.6h-3.92L495.634,223a11.007,11.007,0,0,0,.472-2.6,1.86,1.86,0,0,0-.8-1.565,3.739,3.739,0,0,0-2.289-.591,8.641,8.641,0,0,0-5.362,1.8c-1.565,1.213-2.716,3.268-3.448,6.191l-2.245,8.9Z" transform="translate(0 -208.698)"/></svg>