<svg id="Ebene_1" data-name="Ebene 1" xmlns="http://www.w3.org/2000/svg" viewBox="0 0 345 400"><defs><style>.cls-1{fill:#201b18;}.cls-2{fill:#c92720;}</style></defs><title>Zeichenfläche 1</title><path class="cls-1" d="M.319,0H344.687q0,113.321-.006,226.641a171.014,171.014,0,0,1-4.491,40.185c-9.351,38.789-29.6,70.776-60.769,95.66-30.14,24.062-64.709,36.349-103.215,37.447a160.416,160.416,0,0,1-43.54-4.692C85.89,383.575,49.94,356.986,24.809,315.993,8.092,288.725.345,258.779.33,226.841Q.278,113.421.319,0ZM172.4,92.039q77.08,0,154.16.047c1.808,0,2.151-.479,2.147-2.194q-.09-35.937,0-71.874c0-1.658-.379-2.056-2.049-2.055q-154.16.07-308.319,0c-1.669,0-2.053.4-2.049,2.054q.091,35.837-.005,71.674c-.006,1.9.393,2.4,2.356,2.394Q95.525,91.994,172.4,92.039Zm.245,16q-77.077,0-154.154-.036c-1.651,0-2.214.246-2.211,2.1q.1,58.859.045,117.717a156.609,156.609,0,0,0,96,144.078,156.013,156.013,0,0,0,121.372-.419,155.293,155.293,0,0,0,66.874-54.476c18.127-25.955,27.705-54.85,27.993-86.488.364-40.037.076-80.079.163-120.119,0-2.135-.645-2.4-2.527-2.4Q249.426,108.077,172.65,108.041Z"/><path class="cls-1" d="M107.731,44.973c0,7.025.027,13.827-.025,20.627-.009,1.217.305,1.611,1.568,1.555,2.989-.131,2.992-.066,2.992,2.979,0,3.7,0,3.662-3.8,3.627-3.469-.032-6.94-.017-10.408.086-1.175.035-1.79-.163-1.605-1.484a13.106,13.106,0,0,0,.014-1.8c0-3.343,0-3.4,3.334-3.4,1.122,0,1.323-.429,1.319-1.414-.029-7.807-.049-15.615.015-23.422.011-1.34-.5-1.5-1.641-1.474-3.027.075-3.028.025-3.028-2.958,0-3.813,0-3.763,3.881-3.7,3.335.053,6.674.044,10.006-.078a2.7,2.7,0,0,1,2.813,1.612c3.931,7.031,7.947,14.015,11.935,21.015.324.569.658,1.133,1.236,2.127.045-.99.091-1.536.092-2.081.006-4.8-.042-9.61.034-14.413.02-1.251-.321-1.573-1.561-1.528-2.837.1-2.84.032-2.84-2.913,0-3.847,0-3.791,3.825-3.734q5.1.075,10.206-.105c1.235-.045,1.742.262,1.559,1.522a10.936,10.936,0,0,0-.012,1.4c-.018,1.2.379,2.665-.172,3.52-.637.989-2.207.314-3.357.3-1.565-.014-1.057,1.082-1.059,1.807-.027,9.609-.065,19.219.024,28.827.016,1.782-.37,2.475-2.258,2.3-2.05-.2-4.52.588-6.084-.312s-2.232-3.338-3.255-5.125q-6.2-10.836-12.386-21.678C108.783,46.113,108.644,45.408,107.731,44.973Z"/><path class="cls-1" d="M296.135,58.119q0-8.165,0-16.33c0-1.427-1.082-.876-1.743-.884-2.6-.029-2.6,0-2.6-2.6,0-4.169,0-4.129,4.255-4.086,3.2.032,6.406.007,9.6-.119,1.271-.05,1.9.21,1.708,1.6a11.6,11.6,0,0,0-.012,1.6c0,3.4,0,3.482-3.454,3.536-1.463.023-1.187.875-1.187,1.7,0,9.741-.053,19.482.044,29.222.017,1.739-.594,1.8-2.091,2.063-4.991.879-7.564-1.3-9.745-5.662-3.689-7.37-8.072-14.393-12.168-21.559-.314-.55-.66-1.083-1.309-2.144v2.672c0,5.4-.008,10.808.006,16.212,0,1.191-.325,2.653.237,3.5s2.095.19,3.2.181c.807-.007,1.095.289,1.035,1.043-.011.133,0,.267,0,.4-.044,1.724.531,3.91-.311,5.041-.813,1.091-3.106.17-4.748.217-3.134.089-6.271.041-9.4.137-.949.029-1.317-.184-1.267-1.182a39.833,39.833,0,0,0,0-4.4c-.071-1.153.441-1.369,1.421-1.23.592.084,1.208,0,1.8.1,1.1.179,1.361-.308,1.357-1.321-.028-7.873-.056-15.746.02-23.617.015-1.521-.8-1.339-1.746-1.325-2.827.041-2.828.03-2.828-2.74,0-4.051,0-4.005,4.017-3.939,3.134.052,6.274.07,9.4-.087a3.21,3.21,0,0,1,3.435,1.934c3.789,6.88,7.726,13.678,11.613,20.5.324.569.678,1.12,1.019,1.68Z"/><path class="cls-1" d="M222.092,74.637c-10.294-.061-17.748-5.373-20.13-14.346-2.629-9.9,1.313-19.993,9.5-24.311,8.821-4.654,20.872-3.132,26.805,3.654,6.148,7.032,6.838,15.14,3.451,23.542C238.729,70.584,231.311,74.691,222.092,74.637Zm10.5-20.7a17.736,17.736,0,0,0-1.619-8.146,8.9,8.9,0,0,0-8.264-5.312c-3.79-.114-6.831,1.443-8.517,4.857a18.934,18.934,0,0,0-.229,16.959c1.667,3.614,4.786,5.3,8.715,5.243a8.873,8.873,0,0,0,8.464-5.614A18.081,18.081,0,0,0,232.6,53.938Z"/><path class="cls-1" d="M70.092,53.141c0,3.267.043,6.534-.009,9.8-.123,7.759-5.39,10.776-11.148,11.521a19.784,19.784,0,0,1-6.768-.189c-6.06-1.319-9.654-5.457-9.792-11.657-.147-6.6-.106-13.2-.036-19.8.016-1.533-.312-2.081-1.949-1.966-2.723.19-2.73.081-2.73-2.664,0-4.1,0-4.035,4.009-3.987,4.266.051,8.535.013,12.8-.092,1.187-.029,1.764.178,1.6,1.484a17.976,17.976,0,0,0-.016,2.2c0,2.8,0,2.848-2.735,3.049-.841.062-.968.385-.966,1.093.027,6.8-.051,13.6.078,20.4.066,3.5,2.014,5.267,5.251,5.227,3.559-.044,5.39-1.591,5.483-5.2.175-6.8.092-13.6.18-20.4.017-1.333-.8-1.181-1.564-1.078-1.622.218-2.512-.135-2.211-2.056.234-1.492-.614-3.479.332-4.417s2.906-.143,4.421-.17c3-.055,6-.029,9-.142,1.118-.042,1.617.226,1.471,1.4a14.7,14.7,0,0,0-.013,1.8c0,3.393,0,3.464-3.408,3.534-1.247.026-1.2.652-1.193,1.5.016,3.6.007,7.2.007,10.8Z"/><path class="cls-1" d="M164.1,54.083c0-3.866-.053-7.733.03-11.6.027-1.288-.29-1.7-1.635-1.638-2.938.129-2.941.049-2.941-2.816,0-3.95,0-3.88,3.954-3.836,4.531.051,9.064,0,13.594-.093,1.181-.025,1.767.214,1.607,1.5a14.66,14.66,0,0,0-.012,1.8c0,3.322,0,3.367-3.324,3.445-.972.023-1.236.311-1.233,1.254q.046,11.9,0,23.8c0,.927.234,1.379,1.234,1.249.592-.077,1.211.012,1.794-.1,1.318-.25,1.616.357,1.543,1.535-.1,1.655.518,3.783-.3,4.849-.887,1.162-3.1.25-4.733.283-4.2.086-8.4.017-12.6.138-1.267.037-1.7-.313-1.546-1.537a12.6,12.6,0,0,0,.011-1.6c0-3.478,0-3.554,3.379-3.541,1.294,0,1.174-.672,1.172-1.495C164.09,61.815,164.1,57.949,164.1,54.083Z"/><path class="cls-1" d="M172.613,124.03q68.861,0,137.721-.048c1.921,0,2.371.432,2.367,2.362-.068,33.429.032,66.859-.07,100.288-.126,41.4-15.352,76.377-45.647,104.529a133.281,133.281,0,0,1-71.106,34.789c-44.47,7.031-83.851-4.48-117.4-34.417-24.066-21.475-38.648-48.55-44.157-80.413a140.017,140.017,0,0,1-1.967-23.9q0-50.544-.049-101.089c0-1.808.486-2.133,2.186-2.131q69.061.074,138.121.039ZM119.3,348.8a131.706,131.706,0,0,0,104.657.761,132.29,132.29,0,0,0,80.682-122.113c.033-31.027-.012-62.054.05-93.081,0-1.856-.325-2.414-2.323-2.409q-42.737.121-85.474.062-87.176.008-174.352-.017c-1.612,0-2.237.187-2.232,2.085q.113,46.74.055,93.481a127.5,127.5,0,0,0,6.416,40.9c11.91,35.412,34.744,61.389,68.03,78.239.71.359,1.385,1.028,2.589.673a12.7,12.7,0,0,1-3.282-2.831c-.512-.619-.746-.991.191-1.478,1.378-.718,2.359-1.375,3.9.193,2.627,2.676,5.628,1.944,6.493-1.216-5.924.786-9.284-2.71-7.935-8.288a11.762,11.762,0,0,1,.862-2.435c3.141-6.352,9.836-6.428,12.288-1.029.781-1.219.786-1.23,1.875-.754,1.462.639,2.883,1.393,4.384,1.919,1.139.4,1.1,1.061.538,1.741-.524.631-.111,2.619-1.93,1.575-.948-.544-1.208-.077-1.54.681-1.305,2.986-2.6,5.978-4,8.921-1.981,4.171-3.672,5.037-8.212,4.425A17.19,17.19,0,0,0,119.3,348.8Zm2.266-12.516c-.042,1.62.6,2.742,2.326,2.894,1.914.168,3.919-2.45,4.043-5.187a2.56,2.56,0,0,0-2.374-2.9C123.594,330.975,121.639,333.516,121.566,336.283Z"/><path class="cls-1" d="M172.365,324.915A32.44,32.44,0,0,1,146.4,311.887a5.214,5.214,0,0,0-3.052-1.972c-12.2-3.11-23.839-7.549-34.3-14.717a52.069,52.069,0,0,1-9.928-8.648,19.265,19.265,0,0,1-1.236-1.57c-2.424-3.442-1.845-6.048,1.869-8.012a47.243,47.243,0,0,0,11.068-7.81c10.516-10.253,14.616-22.938,13.851-37.356-.383-7.235-.219-14.4,1.65-21.439,3.77-14.195,12.295-24.131,26.309-29.027,1.36-.475,1.3-1.011.863-2.078-3.232-7.8-6.412-15.625-9.646-23.426-.913-2.2-1.526-4.423-.879-6.795a7.817,7.817,0,0,1,10.517-5.07,19.087,19.087,0,0,0,7.985,1.492,7.076,7.076,0,0,0,5.1-2.3c3.257-3.5,8.205-3.838,11.344-.447,2.8,3.022,6.023,3.023,9.519,2.481a17.421,17.421,0,0,0,3.818-1.136,7.586,7.586,0,0,1,8.688,1.548,7.341,7.341,0,0,1,1.822,8.456c-2.252,5.757-4.709,11.434-7.056,17.155-1.135,2.769-2.195,5.568-3.327,8.338-.358.875-.35,1.281.736,1.67,17.789,6.375,26.138,19.773,28.089,37.91a97.1,97.1,0,0,1,.092,13.19c-.558,19.694,7.039,34.906,24.726,44.48,4.045,2.189,4.691,4.923,1.787,8.6-4.627,5.852-10.635,10.046-17.058,13.669a112.5,112.5,0,0,1-28.022,10.83,5.486,5.486,0,0,0-3.2,2.087C191.906,320.425,183.174,324.7,172.365,324.915Zm-.891-137.558a42.456,42.456,0,0,0-16.184,3.127,29.99,29.99,0,0,0-16.452,14.151c-4.353,8.094-5.063,16.885-4.582,25.843a40.34,40.34,0,0,1,.016,8.787c-.891,5.306-.169,10.479.548,15.694.239,1.74.81,2.07,2.569,1.527a117.012,117.012,0,0,1,70.474.064c1.2.364,1.977.476,2.236-1.061.931-5.532,1.968-11.194,1.426-16.685-.688-6.966-.394-13.954-1.317-20.909-1.613-12.158-7.21-21.383-18.469-26.637C185.364,188.281,178.44,187.55,171.474,187.357Zm1.053,84.027a20.721,20.721,0,1,0,20.8,20.693A20.753,20.753,0,0,0,172.527,271.384Zm32.211,27.664a91.006,91.006,0,0,0,9.369-3.176,72.872,72.872,0,0,0,20.557-11.737c1.432-1.2,1.128-1.662-.276-2.428-2.279-1.243-4.462-2.66-6.708-3.966-10.174-5.92-20.66-11.093-32.38-13.207-1.745-.315-3.508-.9-5.6-.515C201.993,272.669,207,284.163,204.738,299.048ZM155.41,263.941a10.387,10.387,0,0,0-1.281-.068,65.505,65.505,0,0,0-12.293,2.564c-11.455,3.495-21.673,9.51-31.834,15.646-1.383.835-.508,1.265.153,1.838,6.227,5.4,13.446,9.069,21.056,12.048a76.593,76.593,0,0,0,9.067,3.084C137.961,284.182,143.013,272.641,155.41,263.941Zm2.453-108.96a23.8,23.8,0,0,0-4.973.3c-.895.181-1.285.34-1,1.379,1.884,6.938,3.691,13.9,6.8,20.431.677,1.424,1.372,2.093,3.024,1.3a25.981,25.981,0,0,1,4.169-1.365c2.576-.735,2.548-.71,2.106-3.408a71.477,71.477,0,0,1-1.079-11.719c.01-4.339-1.86-6.44-6.247-6.9A26.844,26.844,0,0,0,157.864,154.981Zm29.6.006a29.567,29.567,0,0,0-3.194.018c-3.52.385-6.127,2.344-6.132,4.969a97.5,97.5,0,0,1-1.285,14.9c-.187,1.2.28,1.652,1.371,1.933a39,39,0,0,1,5.14,1.6c1.508.62,2.218.212,2.9-1.209,3.153-6.591,4.966-13.615,6.867-20.616.244-.9-.042-1.135-.9-1.287A21.194,21.194,0,0,0,187.467,154.987Z"/><path class="cls-1" d="M109.008,154.114c-.583-2.573.673-2.657,2.261-2.618,3.2.079,3.18.022,3.133,3.311-.035,2.4-.05,4.8.021,7.2.028.957-.235,1.375-1.214,1.257a4.286,4.286,0,0,0-1,0c-2.237.259-3.663-.177-4.878-2.615-2.684-5.386-10.84-5.343-13.837-.03a14.814,14.814,0,0,0-.127,14.743c1.513,2.9,4.218,4.14,7.5,4.039a7.536,7.536,0,0,0,6.706-4.32,12.408,12.408,0,0,0,1.366-4.59c2.056,1.028,3.972,2.033,5.931,2.946.918.428.606,1,.381,1.618a14.648,14.648,0,0,1-12.258,10.116C93.584,186.7,85.4,181.909,83.11,173.227c-1.744-6.612-.687-12.813,4.308-17.76,4.636-4.592,10.384-5.654,16.651-4.156A12.322,12.322,0,0,1,109.008,154.114Z"/><path class="cls-1" d="M276.606,167.21c3.76,1.895,5.7,4.658,5.376,8.758-.478,6.088-4.391,9.326-11.407,9.353a14.49,14.49,0,0,1-6.583-1.393,9.143,9.143,0,0,1-1.491-15.664c.668-.5,1.707-.788.282-1.707-5.221-3.366-4.511-12.151,2.359-14.75a14.034,14.034,0,0,1,11.08.186,8.33,8.33,0,0,1,2.066,13.813C277.8,166.248,277.273,166.655,276.606,167.21Zm-1.838,7.427c.118-2.839-1.465-4.652-4.17-4.775a4.146,4.146,0,0,0-4.545,4.208c-.171,3.074,1.471,5.235,4.068,5.355C272.883,179.553,274.639,177.744,274.768,174.637Zm-4.258-18.131c-2.305-.1-3.8,1.361-3.88,3.805s1.333,4.212,3.444,4.294c2.158.084,3.6-1.368,3.726-3.762C273.943,158.263,272.684,156.6,270.511,156.506Z"/><path class="cls-1" d="M231.657,167.811a28.56,28.56,0,0,1,1.33-9.649c1.736-4.866,5.106-7.338,10.022-7.341,5.026,0,8.413,2.266,10.058,7.23a30.718,30.718,0,0,1-.092,20.015c-1.621,4.734-5.171,7.236-9.7,7.269-4.714.034-8.153-2.427-10.029-7.128A27.385,27.385,0,0,1,231.657,167.811Zm15.062-.336c-.118-2.687.1-5.643-.85-8.483-.459-1.375-1.294-2.382-2.856-2.359a2.8,2.8,0,0,0-2.734,2.5,40.55,40.55,0,0,0,.084,17.638c.314,1.382,1.064,2.692,2.807,2.646s2.272-1.388,2.69-2.775C246.742,173.721,246.613,170.7,246.719,167.475Z"/><path class="cls-1" d="M71.666,153.269c-.447-1.679.078-1.959,1.3-1.956,4.13.012,4.13-.047,4.126,4.116,0,.667,0,1.334.011,2,.042,4.062-.639,4.575-4.8,3.9-.9-.147-.806-.739-.955-1.256A4.608,4.608,0,0,0,66.8,156.36a2.923,2.923,0,0,0-2.039,5.246,18.766,18.766,0,0,0,4.005,2.219,36.582,36.582,0,0,1,6.468,3.538,10.352,10.352,0,0,1,2.606,12.992,9.074,9.074,0,0,1-10.8,4.67,11.076,11.076,0,0,1-3.933-2.31c-.868.4.353,1.78-.79,1.872a35.258,35.258,0,0,1-4.8-.018c-.481-.027-.34-.638-.341-1.012-.008-3,.02-6-.019-9-.011-.846.22-1.258,1.12-1.14a6.246,6.246,0,0,0,1,.005c1.943-.06,3.812-.455,3.941,2.671.087,2.113,1.972,3.278,3.9,3.308a3.639,3.639,0,0,0,3.848-2.583A3.387,3.387,0,0,0,69.3,172.54c-2.709-1.554-5.581-2.833-8.244-4.457-4.2-2.56-5.539-6.259-4.254-10.981a8.723,8.723,0,0,1,12.972-5.16C70.27,152.249,70.735,152.615,71.666,153.269Z"/><path class="cls-1" d="M280.822,271.978q-4.019-3.083-8.04-6.161a5.153,5.153,0,0,0-.665-.37c-.9,2-2.24,2.256-3.993.952-.567-.422-.333-.776-.176-1.185.979-2.54,2.047-5.049,2.925-7.623.432-1.265,1.182-.684,1.657-.375.73.475,2.611.047,1.924,1.746-.512,1.266-.011,1.784.815,2.466,4.262,3.52,8.483,7.089,12.753,10.6.858.705,1.477,1.337.737,2.464-.765,1.165-.293,3.21-2.805,3.069-5.651-.317-11.317-.371-16.978-.5-.593-.014-1.319-.34-1.679.6-.194.5-.135,1.5-.854,1.386a10.277,10.277,0,0,1-2.956-1.112c-.614-.309-.08-.844.056-1.209.926-2.489,1.943-4.944,2.844-7.441.336-.929.8-1.5,1.68-.819.747.575,2.9-.023,1.98,2.06-.473,1.076-.048,1.255.887,1.3,3.254.159,6.507.354,9.76.535Z"/><path class="cls-1" d="M87.259,298.732c.787-.61,1.489-1.2,2.238-1.722.877-.613,1.23-1.072.409-2.185-.974-1.321.869-1.4,1.36-2.1.4-.563.932-.834,1.536.007,1.162,1.616,3.331,3.1,3.418,4.728.084,1.573-2.57,2.536-4.026,3.755-3.015,2.524-6.1,4.959-9.142,7.456-.367.3-1.257.675-.852,1.114,2.37,2.57-1.164,2.418-1.506,3.913-1.476-1.79-2.694-3.472-4.131-4.939-1.043-1.064.394-1.27.45-1.915-4.687-.941-6.646-4.738-4.516-8.969a10.084,10.084,0,0,1,7.006-5.5C83.856,291.4,86.647,293.7,87.259,298.732Zm-3.187.992a2.436,2.436,0,0,0-2.941-2.434,6.19,6.19,0,0,0-4.309,3.252,2.482,2.482,0,0,0,1.6,3.617C80.6,304.77,84.119,302.006,84.072,299.723Z"/><path class="cls-1" d="M145.137,335.295c1-.245,1.682-.48,2.385-.574,3.845-.516,6.331,2.139,5.542,5.925-.448,2.15-.957,4.288-1.44,6.432-.114.508-.4,1.128.439,1.232,2.437.3.938,1.818.846,2.82-.147,1.611-1.215.658-1.935.569a14.718,14.718,0,0,1-1.561-.336c-3.743-.887-3.742-.888-2.858-4.7q.677-2.919,1.356-5.837c.258-1.1.163-2.135-1.168-2.28-1.161-.127-2.438-.129-2.742,1.533-.24,1.308-.61,2.591-.9,3.891-.242,1.089-.991,2.189,1.085,2.592,1.108.215.132,1.565.051,2.388-.053.538-.1,1.254-1.051,1.026-2.525-.6-5.058-1.17-7.591-1.739a.821.821,0,0,1-.605-1.343c.471-.721-.318-2.46,1.321-2.142,1.547.3,1.605-.483,1.839-1.545.886-4.031,1.843-8.046,2.771-12.067.125-.541.517-1.15-.493-1.312-2.227-.356-.914-1.774-.829-2.834.137-1.7,1.23-.738,1.877-.608,1.751.352,4.177.311,5.015,1.423.862,1.143-.548,3.321-.838,5.072C145.538,333.593,145.354,334.295,145.137,335.295Z"/><path class="cls-1" d="M69.815,258.666c-2.07.706-4.021,1.365-5.967,2.037-2.2.758-4.368,1.6-6.594,2.261-1.1.324-1.18.847-.793,1.715.7,1.564.605,3.917,1.941,4.608,1.248.646,3.132-.663,4.6-1.373,2.17-1.049,1.945.8,2.485,1.789.783,1.439-.164,1.728-1.262,2.067-2.346.725-4.68,1.5-6.989,2.328-.89.321-1.359.424-1.737-.716-1.735-5.231-3.572-10.428-5.406-15.626-.246-.7-.217-1.208.551-1.354,1.269-.24,2.986-1.979,3.418.961.1.7.678.379,1.119.228,4.084-1.4,8.161-2.822,12.265-4.159,1.086-.354.88-.909.54-1.621-.958-2,.992-1.482,1.737-1.937.915-.559,1.578-.588,1.972.8.742,2.615,1.729,5.162,2.663,7.719.314.86.466,1.642-.732,1.643-.95,0-2.1,1.912-2.89-.239C70.561,259.327,70.647,258.482,69.815,258.666Z"/><path class="cls-1" d="M236.779,317.988a21.828,21.828,0,0,1,1-2.086c2.049-3.316,5.467-3.6,7.908-.591,1.426,1.756,2.685,3.647,4.037,5.465.326.438.594,1.221,1.354.549,1.842-1.629,1.973.558,2.672,1.249,1.155,1.142-.31,1.347-.829,1.821a20.837,20.837,0,0,1-1.767,1.3c-2.611,1.921-2.609,1.921-4.578-.775q-1.945-2.663-3.9-5.322c-.618-.838-1.419-1.383-2.349-.575-.9.781-1.8,1.7-.79,3.049.8,1.069,1.54,2.176,2.356,3.229.657.849.972,2.149,2.653.876,1.084-.82,1.26,1.085,1.968,1.627.555.425.579.9-.132,1.4-2.079,1.443-4.131,2.929-6.136,4.474-1.16.894-1.437-.208-1.717-.776-.312-.631-1.991-1.211-.432-2.122,1.172-.685.773-1.231.182-2-1.1-1.426-2.149-2.886-3.179-4.361-.632-.905-.98-1.63-2.405-.688-1.308.864-1.362-1.129-2.11-1.7-.7-.535-.284-.959.295-1.353a46.791,46.791,0,0,0,3.884-2.809C235.567,317.2,236.168,317.228,236.779,317.988Z"/><path class="cls-1" d="M115.344,323.23a5.044,5.044,0,0,1-1.008,2.69q-1.594,2.419-3.242,4.8c-.643.929-1.39,1.6.18,2.617,1.021.662-.462,1.487-.786,2.242-.211.492-.523,1.206-1.317.578-.1-.082-.216-.155-.325-.231-1.586-1.1-4.051-1.91-4.515-3.362-.481-1.507,1.768-3.144,2.759-4.765.728-1.192,1.564-2.318,2.322-3.492.561-.87.775-1.79-.321-2.389-1.011-.552-2.155-.967-3.024.224-1.059,1.451-1.994,2.993-3.035,4.459-.417.588-.321.944.265,1.263,2.228,1.213-.041,1.99-.352,2.878-.473,1.353-1.227.356-1.8-.019-1.9-1.236-3.744-2.55-5.663-3.751-.85-.532-.993-1.086-.254-1.678.665-.533.558-2.5,2.129-1.392.969.681,1.326.35,1.836-.457q1.493-2.364,3.132-4.635c.671-.932,1.049-1.481-.231-2.454-1.264-.96.6-1.652.868-2.545.241-.8.776-.636,1.371-.2,1.346.978,2.744,1.886,4.12,2.822.165.112.485.232.478.329-.172,2.382,1.872,1.421,2.9,1.841C114.06,319.512,115.367,320.956,115.344,323.23Z"/><path class="cls-1" d="M191.889,335.894c1.6-.69,1.838.3,1.953,1.828.231,3.052.672,6.087.978,9.135.077.772.191,1.273,1.151,1.054,1.852-.421,1.186,1.077,1.363,1.883.2.921.193,1.687-1.146,1.724-1.46.04-2.911.326-4.372.413-.616.037-1.441.525-1.713-.7-.169-.761-.558-.023-.787.13-4.482,3-7.879,1.438-8.462-3.9-.21-1.919-.46-3.835-.659-5.755-.062-.6-.147-1.055-.915-.912-2.41.447-1.429-1.494-1.62-2.457-.3-1.495,1.009-1.025,1.743-1.139,1.183-.184,2.39-.218,3.567-.425,1.337-.235,1.882.148,1.96,1.6.139,2.59.5,5.168.778,7.749.128,1.182.333,2.415,1.951,2.113,1.357-.253,2.312-.949,1.987-2.629-.227-1.172-.248-2.383-.4-3.571-.144-1.1.108-2.295-1.879-2.181-1.192.068-.63-1.587-.847-2.466-.193-.78.213-1.018.97-1.06C188.883,336.248,190.271,336.06,191.889,335.894Z"/><path class="cls-1" d="M66.478,295.446c-.621-.008-.642-.506-.809-.819-.78-1.469-1.525-2.957-2.282-4.438-.091-.178-.3-.436-.244-.527,1.131-1.83-.769-2.073-1.521-2.856-2.326-2.423-2.106-5.517.752-7.31,2.023-1.269,4.224-2.252,6.34-3.375.5-.263,1.29-.436.749-1.267-1.463-2.248.977-1.925,1.754-2.477,1.274-.9,1.306.626,1.58,1.226.733,1.605,2.651,3.268,2.042,4.7-.523,1.23-2.845,1.7-4.372,2.5-1.413.743-2.838,1.464-4.236,2.235-.947.522-1.425,1.274-.669,2.282.637.848,1.286,1.778,2.61,1.07,1.232-.659,2.488-1.271,3.736-1.9,1.024-.517,2.2-.687,1.325-2.512-.512-1.071,1.3-1.068,1.993-1.64.615-.508,1-.247,1.329.463a37.523,37.523,0,0,0,2.092,4.082c.678,1.1.586,1.645-.664,2.228-2.893,1.35-5.712,2.859-8.547,4.331-.441.229-1.307.233-.766,1.2.226.4.924.937.352,1.385A17.074,17.074,0,0,1,66.478,295.446Z"/><path class="cls-1" d="M168.323,343.716c.282-1.385.368-2.6-.9-3.319a3.036,3.036,0,0,0-3.573.077c-1.625,1.3-3.005-.1-4.437-.38-.642-.124.088-.869.393-1.2,2.388-2.6,5.489-2.5,8.553-1.985,3.772.631,5.077,2.385,4.966,6.21-.042,1.465-.2,2.926-.29,4.39-.071,1.18-.628,2.4,1.548,2.553,1.189.083.155,1.67.345,2.558.127.593-.093,1-.867.923-1.791-.17-3.957.308-5.292-.543-1.7-1.084-2.792-.09-4.137.083a5.451,5.451,0,0,1-6.314-4.7c-.324-3.133,1.911-5.49,5.315-5.647A10.244,10.244,0,0,1,168.323,343.716Zm-2.727,5.877c.91-.379,2.5-.4,2.452-1.866-.051-1.529-1.563-1.709-2.8-1.776a1.673,1.673,0,0,0-1.9,1.812C163.341,349.056,164.2,349.6,165.6,349.593Z"/><path class="cls-1" d="M272.892,300.5a9.764,9.764,0,0,1-6.379,8.641c-3.4.96-7.422-.892-9.47-4.359a7.694,7.694,0,0,1,1.253-9.538,7.889,7.889,0,0,1,11.012-.15c.772.73.331,1.093-.094,1.613-1.77,2.168-3.485,4.382-5.318,6.5-.931,1.073-.394,1.454.576,1.785,2.082.711,4.457-1.249,4.378-3.6a4.649,4.649,0,0,1,2.941-3.526c.5-.065.571.284.643.547C272.642,299.175,272.778,299.963,272.892,300.5Zm-10.265-3.3a3,3,0,0,0-2.679,3.829c.437,1.131.981,1.743,1.908.306.5-.771,1.169-1.426,1.719-2.166.3-.4.98-.732.724-1.27C263.992,297.258,263.175,297.362,262.627,297.2Z"/><path class="cls-1" d="M216.568,333.332a8.149,8.149,0,0,1,6.924-8.494c3.359-.556,7.2,1.867,8.4,5.138.36.982-.285.989-.759,1.224-2.557,1.27-5.106,2.561-7.7,3.754-1.1.506-1.044.969-.276,1.71a3.5,3.5,0,0,0,5.595-1.393c.488-1.116,3.159-2.323,4.212-1.862.721.316.305.928.216,1.382-.65,3.329-3.979,6.139-7.858,6.677-2.962.411-5.87-1.221-7.5-4.254A9.791,9.791,0,0,1,216.568,333.332Zm4.5-.527a30.256,30.256,0,0,0,4.538-2.024c.748-.319.649-.68.156-1.169a2.655,2.655,0,0,0-3.1-.669C221.032,329.62,220.607,330.89,221.071,332.8Z"/><path class="cls-1" d="M205.889,332.221c1.557.413,2.561-1.033,3.993-1.195.855-.1,1.224-.022,1.394.79a7.982,7.982,0,0,1,.279,1.16c.046.875,1.135,2.053.258,2.494-1.08.544-2.448,1.547-3.866.346a2.024,2.024,0,0,0-1.315-.341c-1.3.073-3.241-.015-3.175,1.556.068,1.62,1.91.82,2.985.753a17.368,17.368,0,0,1,4.768.027,4.659,4.659,0,0,1,3.143,7.055,5.441,5.441,0,0,1-4.3,2.929,29.788,29.788,0,0,0-6.031,1.4c-.832.215-1.4.244-1.533-.837-.089-.717-.487-1.4-.541-2.117-.062-.815-1.233-1.926-.029-2.382,1.122-.425,2.541-1.673,3.8.275.775,1.2,3.763.873,4.7-.293a1.167,1.167,0,0,0,.291-1.285,1.336,1.336,0,0,0-1.31-.761c-1.262.007-2.524.138-3.786.175-4.259.124-6.426-1.368-6.473-4.432C199.092,334.527,202.2,332.08,205.889,332.221Z"/><path class="cls-1" d="M94.8,305.271c.478.432.82.734,1.155,1.045a19.486,19.486,0,0,0,2.358,2.156c1.838,1.206,1.55,2.182.1,3.556-2.077,1.968-3.946,4.157-5.9,6.256-.442.475-1.046.9-.156,1.572,1.9,1.423-.289,1.865-.728,2.671-.607,1.114-1.218.458-1.839-.137-1.636-1.569-3.268-3.147-4.994-4.613-.856-.727-.825-1.345.017-1.812.725-.4.89-2.465,2.324-.96.715.751,1.136.575,1.736-.1,1.416-1.594,2.882-3.145,4.355-4.688.516-.54.85-.954.032-1.548-.333-.242-1.139-.514-.534-1.21C93.373,306.719,94.075,306.035,94.8,305.271Z"/><path class="cls-1" d="M290.02,255.871c1.349.395,2.744.807,4.143,1.21.435.125.441.42.337.767-.057.19-.146.371-.193.563-1,4.028-1.712,4.364-5.474,2.61-.372-.173-.788-.318-.652-.825.361-1.339.757-2.669,1.153-4C289.423,255.9,289.684,255.844,290.02,255.871Z"/><path class="cls-1" d="M278.327,294.51a43.79,43.79,0,0,1-4.129-2.685c-.467-.378.286-1.028.556-1.495,1.772-3.062,1.735-2.961,4.805-1.288,1.492.813,1.73,1.537.657,2.807C279.525,292.666,279.283,293.839,278.327,294.51Z"/><path class="cls-1" d="M101.435,302.523a2.931,2.931,0,0,1,2.85,2.762,3.025,3.025,0,0,1-2.887,2.946,2.881,2.881,0,0,1-2.818-2.783A2.838,2.838,0,0,1,101.435,302.523Z"/><path class="cls-1" d="M82.084,278.6a2.019,2.019,0,0,1,1.967,2.263,2.121,2.121,0,0,1-4.233-.256A2.022,2.022,0,0,1,82.084,278.6Z"/><path class="cls-1" d="M76.733,274.837c.077-1.3.646-2.187,2.016-2.235a2.107,2.107,0,1,1,.223,4.208A2,2,0,0,1,76.733,274.837Z"/><path class="cls-2" d="M171.474,187.357c6.966.194,13.89.925,20.265,3.9,11.259,5.254,16.856,14.479,18.469,26.637.923,6.955.629,13.944,1.317,20.909.542,5.491-.494,11.154-1.426,16.685-.259,1.537-1.032,1.425-2.236,1.061a117.012,117.012,0,0,0-70.474-.064c-1.759.543-2.33.213-2.569-1.527-.717-5.215-1.439-10.389-.548-15.694a40.34,40.34,0,0,0-.016-8.787c-.48-8.958.229-17.749,4.582-25.843a29.99,29.99,0,0,1,16.452-14.151A42.456,42.456,0,0,1,171.474,187.357Zm10.3,23.74a33.837,33.837,0,0,0,1.584,11,8.963,8.963,0,0,0,2.7,4.351,2.157,2.157,0,0,0,3.21-.223c.864-.939,1.38-1.972.376-3.185-2.477-2.992-3.246-6.647-3.891-10.327-.263-1.5-.332-3.037-.477-4.558-.115-1.2-.386-2.368-1.873-2.353-1.442.015-1.577,1.2-1.622,2.3C181.739,209.1,181.771,210.1,181.771,211.1Z"/><path class="cls-2" d="M172.527,271.384a20.721,20.721,0,1,1-20.844,20.645A20.749,20.749,0,0,1,172.527,271.384Z"/><path class="cls-2" d="M204.738,299.048c2.26-14.885-2.744-26.379-15.038-35.029,2.093-.38,3.856.2,5.6.515,11.72,2.114,22.206,7.287,32.38,13.207,2.245,1.306,4.429,2.723,6.708,3.966,1.4.766,1.708,1.225.276,2.428a72.872,72.872,0,0,1-20.557,11.737A91.006,91.006,0,0,1,204.738,299.048Z"/><path class="cls-2" d="M155.41,263.941c-12.4,8.7-17.449,20.241-15.131,35.113a76.593,76.593,0,0,1-9.067-3.084c-7.61-2.979-14.829-6.648-21.056-12.048-.661-.573-1.536-1-.153-1.838,10.161-6.136,20.379-12.152,31.834-15.646a65.505,65.505,0,0,1,12.293-2.564A10.387,10.387,0,0,1,155.41,263.941Z"/><path class="cls-2" d="M157.864,154.981a26.844,26.844,0,0,1,2.8.014c4.387.462,6.256,2.562,6.247,6.9a71.477,71.477,0,0,0,1.079,11.719c.442,2.7.47,2.673-2.106,3.408a25.981,25.981,0,0,0-4.169,1.365c-1.652.8-2.348.126-3.024-1.3-3.106-6.536-4.913-13.493-6.8-20.431-.282-1.039.108-1.2,1-1.379A23.8,23.8,0,0,1,157.864,154.981Z"/><path class="cls-2" d="M187.467,154.987a21.194,21.194,0,0,1,4.77.315c.853.152,1.14.388.9,1.287-1.9,7-3.714,14.025-6.867,20.616-.68,1.421-1.391,1.829-2.9,1.209a39,39,0,0,0-5.14-1.6c-1.091-.28-1.558-.734-1.371-1.933a97.5,97.5,0,0,0,1.285-14.9c0-2.625,2.612-4.584,6.132-4.969A29.567,29.567,0,0,1,187.467,154.987Z"/><path class="cls-1" d="M181.771,211.1c0-1-.032-2,.009-2.995.045-1.1.18-2.285,1.622-2.3,1.487-.015,1.759,1.151,1.873,2.353.145,1.521.214,3.057.477,4.558.645,3.679,1.414,7.334,3.891,10.327,1,1.213.488,2.246-.376,3.185a2.157,2.157,0,0,1-3.21.223,8.963,8.963,0,0,1-2.7-4.351A33.837,33.837,0,0,1,181.771,211.1Z"/></svg>