<svg id="Ebene_1" data-name="Ebene 1" xmlns="http://www.w3.org/2000/svg" viewBox="0 0 400 400"><defs><style>.cls-1{fill:#191918;}.cls-2{fill:#20519f;}.cls-3{fill:#fefefe;}</style></defs><title>Zeichenfläche 1</title><path class="cls-1" d="M200.37,400c-5.35-6.32-11.481-11.88-17.315-17.724Q91.932,291,.765,199.761c-.258-.258-.422-.44-.765-.221v-.68c1.135.83,1.293-.444,1.731-.882Q37.6,162.172,73.423,126.324q48.891-48.876,97.787-97.745c8.951-8.949,17.951-17.851,26.778-26.922,2.04-2.1,3.169-2.285,5.347-.1q58.778,59.032,117.712,117.91,38.856,38.88,77.786,77.686c2.227,2.213.814,3.349-.506,4.668-8.234,8.225-16.551,16.366-24.783,24.593q-36.219,36.2-72.4,72.439-42.323,42.311-84.675,84.593-7.434,7.429-14.809,14.917c-.417.422-1.176.806-.614,1.635ZM396.757,199.037a6.922,6.922,0,0,0-.686-.942c-3.069-3.129-6.126-6.27-9.237-9.356-6.881-6.824-13.823-13.587-20.683-20.432-8.215-8.2-16.353-16.471-24.557-24.679-7.809-7.812-15.692-15.55-23.485-23.379-8.26-8.3-16.421-16.7-24.683-24.993-6.664-6.693-13.436-13.278-20.117-19.953-7.889-7.882-15.707-15.833-23.6-23.71-8.213-8.2-16.5-16.316-24.716-24.513-7.5-7.481-14.935-15.021-22.4-22.532-1.272-1.28-2.517-1.247-3.8.046-5.6,5.67-11.285,11.264-16.822,17-6.48,6.711-13.1,13.3-19.714,19.858-7.937,7.877-15.788,15.85-23.764,23.691-6.643,6.531-13.046,13.328-19.712,19.816-9.8,9.535-19.317,19.339-29.037,28.946-8.476,8.377-16.863,16.853-25.234,25.337q-11.886,12.047-24.026,23.884-10.447,10.218-20.779,20.553c-4.413,4.41-8.74,8.907-13.1,13.37-1.172,1.2-2.153,2.393-.527,4.023,6.685,6.7,13.327,13.44,20.011,20.14q14.164,14.2,28.363,28.367,15.624,15.64,31.24,31.287c8.128,8.1,16.365,16.091,24.469,24.214,9.851,9.874,19.56,19.888,29.427,29.746,10.668,10.658,21.473,21.18,32.171,31.81,8.681,8.626,16.94,17.675,25.971,25.951,3.34,3.06,3.324,3.088,6.552-.166,18.221-18.364,36.3-36.872,54.721-55.033q12.172-12,24.172-24.169c12.022-12.2,24.37-24.076,36.319-36.354,13.625-14,27.876-27.388,41.561-41.33,11.283-11.495,22.584-22.964,34.2-34.117A3.661,3.661,0,0,0,396.757,199.037Z"/><path class="cls-2" d="M396.757,199.037a3.661,3.661,0,0,1-1.5,2.379c-11.62,11.153-22.921,22.622-34.2,34.117-13.685,13.942-27.936,27.33-41.561,41.33-11.949,12.278-24.3,24.151-36.319,36.354Q271.2,325.378,259,337.385c-18.422,18.16-36.5,36.668-54.721,55.033-3.229,3.254-3.212,3.226-6.552.166-9.032-8.276-17.29-17.325-25.971-25.951-10.7-10.629-21.5-21.151-32.171-31.81-9.867-9.857-19.577-19.872-29.427-29.746-8.1-8.123-16.341-16.114-24.469-24.214q-15.659-15.6-31.24-31.287-14.175-14.19-28.363-28.367c-6.683-6.7-13.326-13.441-20.011-20.14-1.626-1.629-.645-2.822.527-4.023,4.359-4.464,8.686-8.961,13.1-13.37q10.338-10.328,20.779-20.553Q52.6,151.28,64.511,139.241c8.371-8.484,16.757-16.959,25.234-25.337,9.72-9.607,19.24-19.411,29.037-28.946,6.666-6.488,13.069-13.285,19.712-19.816,7.976-7.842,15.827-15.815,23.764-23.691,6.613-6.562,13.235-13.147,19.714-19.858,5.536-5.735,11.218-11.328,16.822-17,1.278-1.293,2.523-1.325,3.8-.046,7.468,7.511,14.906,15.051,22.4,22.532,8.213,8.2,16.5,16.316,24.716,24.513,7.893,7.877,15.712,15.828,23.6,23.71,6.681,6.676,13.453,13.261,20.117,19.953,8.261,8.3,16.423,16.694,24.683,24.993,7.792,7.829,15.676,15.567,23.485,23.379,8.2,8.208,16.342,16.482,24.557,24.679,6.86,6.845,13.8,13.608,20.683,20.432,3.112,3.086,6.168,6.227,9.237,9.356A6.922,6.922,0,0,1,396.757,199.037Zm-212.194-60.81c.054,2.322,1.085,3.436,3.518,2.914,3.616-.776,4.208.993,4.173,4.249-.167,15.34-.084,30.683-.086,46.026,0,6.981,0,6.979,6.766,7.376a2.605,2.605,0,0,1,.639.211,8.306,8.306,0,0,1,.163,2.011c-.538,3.318.85,4.25,4.091,4.076a145.1,145.1,0,0,1,15.238.01c3.1.16,3.722-.952,3.7-3.849-.136-16.72-.021-33.441-.117-50.161-.015-2.584.573-3.732,3.393-3.5,3.029.251,6.11-.125,9.136.143,3.248.287,4.3-.816,4.183-4.114-.243-7.047-.078-7.052-7.059-7.365-.684-1.04-.4-2.229-.292-3.291.258-2.5-.548-3.432-3.161-3.156a15.445,15.445,0,0,1-6.028-.235c-.025-6.431-.1-12.863-.056-19.294.029-4.041,1.92-5.847,6.073-5.933,3.5-.072,6.994-.014,10.491-.06.852-.011,2.018.295,2.342-.834.788-2.745,1.273-5.667,0-8.28-.971-2-3.253-.649-4.926-.93a14.156,14.156,0,0,0-2.025-.06,13.181,13.181,0,0,1-.225-3.012c.439-2.887-.727-3.644-3.53-3.563-6.664.193-13.338-.017-20.007.065-12.247.152-18.744,6.76-18.782,19.007q-.032,10.348.012,20.7c.005,1.469,0,2.522-2.071,2.606-5.036.2-5.027.331-5.283,5.448a5.5,5.5,0,0,1-.229.981l-10-.241c-.252-1.592.745-2.82,1.376-4.079,1.007-2.009.234-2.311-1.579-2.261a81.8,81.8,0,0,1-8.486-.026c-2.3-.175-3.431.64-4.292,2.765q-4.783,11.791-9.893,23.447c-2.834,6.5-5.1,13.25-8.616,19.446-1.736-1.545-1.516-3.937-2.484-5.782-4.811-9.174-8.262-18.929-12.178-28.479-1.339-3.267-2.7-5.634-6.684-4.809a3.278,3.278,0,0,1-1.474-2.55c-.725-3.51-2.878-4.159-6.155-4.054q-11.355.365-22.727.026c-3.435-.1-3.331.963-2.232,3.576q17.147,40.791,34.145,81.645,4.224,10.114,8.47,20.268c1.673-.992,1.182-2.979,2.578-3.774,1.121.169,1.192,1.154,1.615,1.938,1.358,2.518,1.716,5.534,3.647,7.821.343-.276.6-.379.677-.558q6.039-14.281,12.051-28.573,5.658-13.407,11.337-26.8,9.172-21.685,18.371-43.359C182.657,140.616,182.706,138.793,184.563,138.226Zm67.374,94.129c.017.565.047,1.13.048,1.695.006,4.72,0,4.723,4.833,4.725,7.58,0,15.16.065,22.739-.011,9.133-.092,18.338.742,27.357-1.227,7.851-1.715,14.29-5.73,17.59-13.384a26.676,26.676,0,0,0-2.13-26.167,15.346,15.346,0,0,0-7.581-6.617c-1.466-1.961-3.618-3.331-4.786-5.55,1.613-1.784,4.017-2.357,5.811-3.967,6.938-6.225,8.381-14.26,7.338-22.847-.93-7.659-4.218-14.186-11.541-17.914-7.091-8.642-16.572-11.692-27.352-11.7-12,0-24,.146-35.991-.1-3.367-.068-4.1.958-4.093,4.1.1,30.345.059,60.69.069,91.035,0,2.373-.762,5.33.358,6.972,1.379,2.021,4.625.32,7,.869Zm-91.655,30.278c-4.9-2.316-7.545-1.851-9.118,1.7a15.549,15.549,0,0,0-.11,12.515,4.651,4.651,0,0,0,7.025,2.254c1.113-.675,1.591-1.214,2.88.057,1.024,1.01,2.587.393,2.583-1.615q-.02-11.18-.019-22.361c0-1-.165-1.747-1.446-1.784-1.327-.038-1.824.522-1.805,1.8C160.307,257.561,160.281,259.93,160.281,262.633Zm76.8,1.235c0-2.936.081-5.189-.033-7.433-.059-1.164.775-2.974-1.529-3.036-2.274-.062-1.672,1.692-1.679,2.908q-.061,10.166,0,20.333c.008,1.208-.605,2.961,1.72,2.835,2.308-.125,1.437-1.888,1.483-3.053.124-3.143-.373-6.366,1.195-9.3.762-1.426,1.759-2.809,3.651-2.45,1.935.366,1.807,2.108,1.848,3.529.091,3.161.07,6.326.054,9.489-.005,1.015.125,1.776,1.4,1.789,1.054.011,1.795-.249,1.773-1.467-.078-4.4.492-8.836-.311-13.191-.626-3.4-3.7-4.686-6.734-3.045A28.73,28.73,0,0,0,237.084,263.869Zm-31.616-.057c0-3.266-.01-6.031.005-8.795.006-1.1-.427-1.683-1.6-1.657-.93.021-1.54.342-1.542,1.352q-.012,11.692-.006,23.384c0,.934.411,1.421,1.429,1.448,1.13.03,1.7-.4,1.7-1.544-.005-1.92.02-3.84-.016-5.759a10.835,10.835,0,0,1,1.343-5.529c.744-1.341,1.867-2.371,3.566-2.027,1.819.369,1.634,1.957,1.658,3.269.061,3.275.042,6.552.024,9.828-.006,1.048.24,1.738,1.489,1.722,1.03-.013,1.807-.21,1.786-1.445-.073-4.4.126-8.831-.319-13.194-.343-3.359-3.717-4.716-6.7-3.094A30.1,30.1,0,0,0,205.468,263.812Zm57.345,8.2h-.029c0-1.919.077-3.842-.02-5.757-.116-2.31-1-4.263-3.451-4.855-2.621-.632-5.231-.575-7.144,1.724-.762.917-1.768,2.3-.437,3.234a1.964,1.964,0,0,0,3.016-1.121,2.265,2.265,0,0,1,3.081-1.3c1.8.588,1.642,2.184,1.736,3.656.119,1.867-1.373,1.369-2.328,1.649a27.7,27.7,0,0,0-3.566,1.024,5.239,5.239,0,0,0-2.711,7.084c1.131,2.4,3.775,3.153,6.674,1.916.563-.24,1-1.1,1.715-.623,3.6,2.4,3.53-.045,3.47-2.565C262.787,274.718,262.813,273.362,262.813,272.007Zm-162.375-5.361h-.055c0,3.619.02,7.239-.011,10.858-.012,1.35.358,2.111,1.924,2.044,1.41-.061,1.7-.768,1.624-1.965-.053-.788-.018-1.583,0-2.375.043-2.373-.737-5.288.363-6.974,1.252-1.919,4.389-.473,6.682-.765a1.394,1.394,0,0,1,.339,0c1.169.14,1.619-.412,1.63-1.548.012-1.2-.606-1.574-1.69-1.557-1.809.029-3.618.041-5.426.013-.761-.012-1.479.026-1.846-1.02-1.513-4.312.249-6.878,4.828-6.876.9,0,1.81-.033,2.713,0,1.219.042,1.92-.359,1.868-1.735-.051-1.351-.953-1.321-1.884-1.324-2.827-.01-5.661.1-8.478-.066-2.18-.131-2.691.778-2.615,2.771C100.533,259.629,100.438,263.139,100.438,266.646Zm193.756,3.935h.012c0,1.922-.079,3.849.028,5.765.07,1.264-.866,3.271,1.716,3.151,2.271-.105,1.4-1.927,1.473-3.095.206-3.236-.566-6.584,1.25-9.615.807-1.348,1.841-2.37,3.529-2.1,1.834.294,1.739,1.9,1.793,3.2.137,3.274.135,6.554.191,9.832.017.967.149,1.8,1.437,1.824,1.028.023,1.466-.46,1.461-1.4-.024-4.408.195-8.838-.188-13.216-.306-3.5-3.887-4.878-6.926-3.083-.946.559-1.84,3.11-3.072-.029-.3-.766-2.651-.958-2.693,1.3C294.158,265.606,294.194,268.094,294.194,270.581Zm-8.532-1.453c.836,0,1.4,0,1.965,0,3.28-.03,3.722-.607,2.822-3.746a5.383,5.383,0,0,0-5.409-4.282c-2.98-.07-5.3,1.182-6.365,4.083a14.382,14.382,0,0,0-.288,8.345,8.114,8.114,0,0,0,10.671,6.131c.9-.276,1.4-.716,1.365-1.628-.042-1.179-.917-1.039-1.718-1.014a13.319,13.319,0,0,1-2.7,0c-2.44-.431-5.128-3.773-4.719-6.31C281.774,267.695,284.419,269.822,285.662,269.128Zm-142.975.066c1.433-.8,4.065,1.439,4.484-1.376a5.55,5.55,0,0,0-3.568-6.291,6.4,6.4,0,0,0-6.7,1.075c-2.51,2.041-3.283,7.844-1.724,12.147,1.211,3.343,3.7,5.136,7.582,4.99,1.419-.054,4.007,1.054,4.02-1.578.012-2.434-2.266-.8-3.435-.984-3-.459-5.78-3.165-5.483-6.3C138.195,267.428,141.124,269.92,142.687,269.194Zm125.881,2.7h.037c0,1.58-.033,3.161.01,4.74.034,1.24-.628,2.966,1.649,2.9,2.345-.063,1.413-1.9,1.454-3.037.116-3.157.16-6.324.033-9.479-.085-2.107.443-3.2,2.792-2.9.884.112,2.156.378,2.134-1.315-.022-1.677-1.262-1.167-2.173-1.345-1.041-.2-2.714.728-2.745-1.425-.028-1.944.409-3.656,2.59-4.179a7.344,7.344,0,0,1,2.353-.007c.8.076,1.594.375,1.727-.877.118-1.114-.352-1.6-1.419-1.878-4.36-1.126-7.838,1.228-8.392,5.791-.158,1.3.193,2.873-2.01,2.635-.65-.07-.958.487-.991,1.118-.038.728.108,1.5.97,1.474,2.41-.069,1.951,1.633,1.975,3.036C268.589,268.732,268.568,270.313,268.568,271.893Zm-81.919-1.911c.06,7.265,4.4,11.1,10.958,9.73,1.017-.212,1.745-.561,1.759-1.656.016-1.289-.99-.9-1.721-.945-5.732-.383-8.507-4.134-7.313-9.893.34-1.641,1.018-3.023,2.9-3.307,1.784-.27,2.346.876,2.706,2.331.457,1.849,2.02,1.3,3.054,1.023,1.175-.315.657-1.516.4-2.313A5.132,5.132,0,0,0,196,261.459C190.688,259.629,186.595,263.328,186.65,269.983Zm35.959,9.836c3.386.058,5.951-.46,6.878-3.479.914-2.981-.23-5.27-2.945-6.818a34.068,34.068,0,0,1-3.084-2.077c-.764-.554-1.389-1.3-.963-2.288a2.273,2.273,0,0,1,2.181-1.342,15.664,15.664,0,0,1,2.345.286c.608.093,1.351.647,1.61-.418a1.738,1.738,0,0,0-.619-2.094c-1.9-1.3-6.636-.355-8.073,1.644-1.579,2.2-1.125,5.008,1.223,6.892,1.228.985,2.6,1.788,3.89,2.7.95.67,1.828,1.417,1.3,2.774a2.588,2.588,0,0,1-2.763,1.528,21.567,21.567,0,0,1-2.68-.3c-.7-.09-1.6-.818-1.85.513a1.632,1.632,0,0,0,1.162,2.13A18.743,18.743,0,0,0,222.609,279.819ZM115.88,270.248h.053c0,2.48.018,4.961-.007,7.441-.013,1.247.458,1.891,1.795,1.824,1.261-.063,1.413-.851,1.395-1.845-.02-1.127-.049-2.257,0-3.382.179-3.838-.763-8.159,4.593-9.636,1.115-.308.718-1.849.48-2.709-.382-1.381-1.54-.677-2.186-.263-1.318.845-2.273,1.572-3.765-.019-.653-.7-2.45-.575-2.379,1.486C115.943,265.51,115.88,267.88,115.88,270.248Zm52.321.219h-.014c0,2.374.02,4.749-.008,7.123-.014,1.18.261,1.962,1.682,1.929,1.339-.03,1.37-.909,1.375-1.842.01-1.583-.035-3.166-.012-4.748.051-3.474.14-6.89,4.4-8.168,1.539-.462,1.045-2.078.7-2.893-.58-1.359-1.689-.292-2.569,0-1,.335-1.936,3.232-3.075-.094-.239-.7-2.429-.811-2.465,1.23C168.167,265.493,168.2,267.98,168.2,270.467Zm11.377,0h.037c0,2.368.026,4.736-.011,7.1-.018,1.145.121,1.969,1.591,1.961,1.411-.008,1.687-.76,1.678-1.933q-.054-7.1-.056-14.208c0-1.128-.086-1.958-1.585-1.936-1.41.021-1.688.714-1.667,1.909C179.607,265.73,179.578,268.1,179.578,270.466Zm-52,.068h-.038c0,2.256-.03,4.513.014,6.769.018.951-.252,2.15,1.342,2.21,1.445.054,1.638-.854,1.636-1.98-.008-4.738,0-9.476-.009-14.215,0-.925.009-1.793-1.346-1.835-1.486-.045-1.62.812-1.608,1.944C127.593,265.8,127.576,268.166,127.576,270.535Zm55.567-15.107c.215-1.445-.326-2.059-1.834-2.062-1.4,0-2.07.372-2.029,1.889.035,1.307.235,2.114,1.851,2.037C182.478,257.228,183.341,256.967,183.143,255.428Zm-54.167-2c-1.514-.2-1.874.609-1.894,2.007-.023,1.6.8,1.858,2.118,1.854,1.356,0,1.7-.659,1.721-1.9C130.94,253.989,130.564,253.179,128.975,253.426Z"/><path class="cls-3" d="M310.006,185.818c1.168,2.219,3.32,3.589,4.786,5.551.7,1.287,1.446,2.547,2.08,3.864,6.455,13.4.713,28.888-12.8,34.445a37.668,37.668,0,0,1-14.566,2.554c-12.524-.013-25.047.076-37.571.124l-.331-.076c-2.375-.548-5.621,1.152-7-.869-1.12-1.642-.357-4.6-.358-6.972-.011-30.345.031-60.69-.069-91.035-.01-3.147.725-4.173,4.093-4.1,11.993.242,23.993.091,35.991.1,10.779,0,20.261,3.054,27.352,11.7.4.8.779,1.612,1.208,2.4,5.223,9.558,3.871,22.694-3.1,30.4-2.968,3.284-6.785,5.08-11.922,6.341C302.913,181.461,306.315,183.932,310.006,185.818Zm-21.665-36.58c-1.277-3.344-3.9-5.128-7.157-6.169-3.2-1.023-6.518-.472-9.775-.721-2.149-.165-2.655.541-2.616,2.628.132,7.019.051,14.041.037,21.063-.016,7.5-.023,7.5,7.651,6.432,5,.857,9.332-.5,11.8-4.977A18.256,18.256,0,0,0,288.341,149.238Zm-11.841,69.7c4.871.735,9.267-.246,12.59-4.061,4.655-5.343,4.682-16.253.231-22.109A12.284,12.284,0,0,0,280,186.21c-2.853-.514-5.856-.132-8.78-.334-1.965-.136-2.461.6-2.438,2.482.1,7.91.045,15.821.047,23.732C268.835,219.623,268.834,219.623,276.5,218.935Z"/><path class="cls-3" d="M134.373,231.526c-1.395.793-.9,2.781-2.577,3.773q-4.253-10.176-8.47-20.268-17.054-40.83-34.145-81.645c-1.1-2.614-1.2-3.679,2.232-3.576q11.356.339,22.727-.026c3.277-.105,5.43.544,6.155,4.054a3.275,3.275,0,0,0,1.476,2.55c-.3,1.111.438,1.948.817,2.85q6.807,16.2,13.677,32.374c1.38,3.264,2.751,6.532,4.325,10.272a22.63,22.63,0,0,0,2.524-6.425c3.515-6.2,5.782-12.948,8.616-19.446q5.087-11.663,9.893-23.447c.862-2.125,2-2.94,4.292-2.765a81.8,81.8,0,0,0,8.486.026c1.813-.05,2.586.252,1.579,2.261-.631,1.259-1.628,2.486-1.377,4.08-1.012.846-1.23,2.122-1.7,3.24q-14.172,33.525-28.279,67.077C141.141,214.8,137.187,222.933,134.373,231.526Z"/><path class="cls-3" d="M199.572,199a2.6,2.6,0,0,0-.639-.211c-6.762-.4-6.767-.395-6.766-7.376,0-15.342-.081-30.685.086-46.026.035-3.256-.557-5.025-4.173-4.249-2.433.522-3.463-.592-3.517-2.912q.02-.908.04-1.819a5.5,5.5,0,0,0,.229-.981c.255-5.118.247-5.244,5.283-5.448,2.067-.084,2.076-1.137,2.071-2.606q-.038-10.348-.012-20.7c.037-12.246,6.535-18.855,18.782-19.007,6.668-.083,13.343.128,20.007-.065,2.8-.081,3.969.676,3.53,3.563a13.246,13.246,0,0,0,.224,3.013c.361,3.176-1.228,3.92-4.11,3.648-2.688-.254-5.419-.075-8.131-.068-5.689.016-7.3,1.488-7.4,7.18-.107,5.99-.021,11.983-.021,17.974,0,7.469,0,7.469,7.759,6.657a15.445,15.445,0,0,0,6.028.235c2.612-.276,3.419.658,3.161,3.156-.11,1.062-.393,2.251.291,3.292a4.019,4.019,0,0,0-.239,1.317c.489,2.894-.786,3.673-3.538,3.484-3.375-.231-6.792.134-10.165-.11-2.677-.193-3.36.67-3.343,3.319.112,17.188-.009,34.377.1,51.565.015,2.429-.664,3.091-3.016,3.022C207.924,198.73,203.746,198.934,199.572,199Z"/><path class="cls-1" d="M184.6,136.408q-.02.91-.04,1.819c-1.857.566-1.906,2.389-2.491,3.761q-9.236,21.658-18.371,43.359-5.669,13.4-11.337,26.8-6.029,14.285-12.051,28.573c-.076.18-.334.283-.677.558-1.931-2.287-2.289-5.3-3.647-7.821-.423-.784-.494-1.769-1.615-1.938,2.813-8.593,6.768-16.721,10.248-25.04q14.047-33.577,28.279-67.077c.473-1.118.69-2.395,1.7-3.24Z"/><path class="cls-1" d="M251.937,232.355c12.524-.048,25.047-.137,37.571-.124a37.668,37.668,0,0,0,14.566-2.554c13.512-5.557,19.254-21.043,12.8-34.445-.634-1.316-1.384-2.577-2.08-3.864a15.344,15.344,0,0,1,7.58,6.616,26.676,26.676,0,0,1,2.13,26.167c-3.3,7.654-9.739,11.67-17.59,13.384-9.019,1.97-18.223,1.135-27.357,1.227-7.579.076-15.159.015-22.739.011-4.828,0-4.826-.005-4.833-4.725C251.984,233.485,251.953,232.92,251.937,232.355Z"/><path class="cls-1" d="M199.572,199c4.174-.067,8.353-.27,12.521-.148,2.352.069,3.031-.594,3.016-3.022-.107-17.188.013-34.377-.1-51.565-.017-2.648.665-3.512,3.343-3.319,3.373.244,6.79-.121,10.165.11,2.752.189,4.027-.59,3.538-3.484a4.019,4.019,0,0,1,.239-1.317c6.982.312,6.817.317,7.059,7.364.114,3.3-.935,4.4-4.183,4.114-3.026-.267-6.108.109-9.136-.143-2.819-.234-3.407.913-3.393,3.5.1,16.72-.019,33.442.117,50.161.024,2.9-.6,4.009-3.7,3.849a145.1,145.1,0,0,0-15.238-.01c-3.241.174-4.629-.758-4.091-4.076A8.306,8.306,0,0,0,199.572,199Z"/><path class="cls-1" d="M222.816,129.572c-7.759.812-7.758.812-7.759-6.657,0-5.992-.086-11.985.021-17.974.1-5.692,1.708-7.164,7.4-7.18,2.712-.008,5.442-.187,8.131.068,2.883.273,4.471-.471,4.11-3.648a13.987,13.987,0,0,1,2.026.059c1.672.282,3.954-1.066,4.926.93,1.271,2.613.786,5.535,0,8.28-.324,1.129-1.489.823-2.342.834-3.5.046-7-.012-10.491.06-4.153.086-6.044,1.891-6.073,5.933C222.714,116.709,222.791,123.141,222.816,129.572Z"/><path class="cls-1" d="M310.006,185.818c-3.691-1.886-7.094-4.357-12.2-5.587,5.137-1.261,8.954-3.057,11.922-6.341,6.967-7.709,8.319-20.845,3.1-30.4-.429-.784-.806-1.6-1.208-2.4,7.322,3.727,10.611,10.254,11.54,17.913,1.043,8.587-.4,16.623-7.338,22.847C314.023,183.461,311.62,184.034,310.006,185.818Z"/><path class="cls-1" d="M143.115,175.459a22.63,22.63,0,0,1-2.524,6.425c-1.575-3.74-2.945-7.008-4.325-10.272q-6.844-16.184-13.677-32.374c-.379-.9-1.118-1.739-.817-2.85,3.986-.825,5.343,1.542,6.682,4.809,3.915,9.55,7.367,19.3,12.178,28.479C141.6,171.522,141.379,173.914,143.115,175.459Z"/><path class="cls-3" d="M160.281,262.633c0-2.7.025-5.073-.01-7.442-.019-1.275.478-1.835,1.805-1.8,1.281.037,1.446.783,1.446,1.784q0,11.18.019,22.361c0,2.008-1.559,2.625-2.583,1.615-1.289-1.271-1.767-.731-2.88-.057a4.651,4.651,0,0,1-7.025-2.254,15.549,15.549,0,0,1,.11-12.515C152.736,260.782,155.386,260.318,160.281,262.633Zm-.123,8.965a11.523,11.523,0,0,0-.511-5.254c-.532-1.509-1.465-2.614-3.187-2.471a2.943,2.943,0,0,0-2.6,2.72,16.841,16.841,0,0,0-.383,4.344c.183,2.451-.333,6,3.209,5.966C160.292,276.866,159.792,273.2,160.159,271.6Z"/><path class="cls-3" d="M237.084,263.869a28.73,28.73,0,0,1,2.845-2.094c3.035-1.641,6.108-.35,6.734,3.045.8,4.355.233,8.791.311,13.191.022,1.218-.719,1.478-1.773,1.467-1.277-.013-1.407-.775-1.4-1.789.016-3.163.037-6.328-.054-9.489-.041-1.421.087-3.162-1.848-3.529-1.892-.358-2.89,1.024-3.651,2.45-1.568,2.936-1.071,6.159-1.195,9.3-.046,1.165.826,2.928-1.483,3.053-2.325.126-1.712-1.627-1.72-2.835q-.066-10.166,0-20.333c.007-1.216-.595-2.97,1.679-2.908,2.3.062,1.47,1.872,1.529,3.036C237.165,258.679,237.084,260.933,237.084,263.869Z"/><path class="cls-3" d="M205.468,263.812a30.1,30.1,0,0,1,2.816-2.039c2.987-1.622,6.361-.265,6.7,3.094.446,4.363.247,8.793.319,13.194.02,1.235-.756,1.431-1.786,1.445-1.249.016-1.494-.674-1.489-1.722.018-3.276.037-6.553-.024-9.828-.025-1.312.161-2.9-1.658-3.269-1.7-.345-2.822.686-3.566,2.027a10.835,10.835,0,0,0-1.343,5.529c.035,1.919.01,3.839.016,5.759,0,1.148-.571,1.574-1.7,1.544-1.018-.027-1.429-.514-1.429-1.448q0-11.692.006-23.384c0-1.01.611-1.332,1.542-1.352,1.171-.026,1.6.557,1.6,1.657C205.458,257.781,205.468,260.546,205.468,263.812Z"/><path class="cls-3" d="M262.813,272.007c0,1.355-.026,2.711.006,4.065.06,2.519.128,4.968-3.47,2.565-.715-.478-1.152.383-1.715.623-2.9,1.237-5.543.485-6.674-1.916a5.239,5.239,0,0,1,2.711-7.084,27.7,27.7,0,0,1,3.566-1.024c.956-.281,2.447.217,2.328-1.649-.094-1.472.062-3.068-1.736-3.656a2.265,2.265,0,0,0-3.081,1.3,1.964,1.964,0,0,1-3.016,1.121c-1.331-.936-.326-2.317.437-3.234,1.912-2.3,4.523-2.356,7.144-1.724,2.453.592,3.335,2.545,3.451,4.855.1,1.914.02,3.837.02,5.757Zm-6.79,5.1c2.193-.335,3.047-1.951,3.45-3.929.205-1.008.016-1.8-1.321-1.656-2.054.221-3.787.943-4.029,3.253A1.9,1.9,0,0,0,256.023,277.1Z"/><path class="cls-3" d="M100.438,266.646c0-3.507.1-7.017-.037-10.519-.075-1.993.435-2.9,2.615-2.771,2.817.169,5.651.055,8.478.066.931,0,1.833-.026,1.884,1.324.052,1.376-.649,1.776-1.868,1.735-.9-.031-1.809,0-2.713,0-4.579,0-6.341,2.564-4.828,6.876.367,1.046,1.085,1.008,1.846,1.02,1.808.028,3.618.015,5.426-.013,1.084-.017,1.7.354,1.69,1.557-.011,1.136-.462,1.688-1.63,1.548a1.394,1.394,0,0,0-.339,0c-2.293.292-5.43-1.154-6.682.765-1.1,1.686-.32,4.6-.363,6.974-.014.792-.049,1.587,0,2.375.08,1.2-.214,1.9-1.624,1.965-1.566.067-1.935-.694-1.924-2.044.031-3.619.011-7.239.011-10.858Z"/><path class="cls-3" d="M294.194,270.581c0-2.487-.036-4.975.011-7.462.042-2.261,2.393-2.069,2.693-1.3,1.232,3.139,2.126.588,3.072.029,3.039-1.8,6.62-.418,6.926,3.083.383,4.377.165,8.808.188,13.216,0,.941-.434,1.424-1.461,1.4-1.288-.028-1.421-.856-1.437-1.824-.056-3.278-.054-6.558-.191-9.832-.054-1.3.041-2.907-1.793-3.2-1.687-.271-2.722.751-3.529,2.1-1.816,3.032-1.044,6.379-1.25,9.615-.074,1.168.8,2.989-1.473,3.095-2.581.12-1.645-1.887-1.716-3.151-.107-1.916-.028-3.843-.028-5.765Z"/><path class="cls-3" d="M285.662,269.128c-1.242.694-3.888-1.433-4.374,1.579-.409,2.537,2.279,5.879,4.719,6.31a13.319,13.319,0,0,0,2.7,0c.8-.025,1.677-.165,1.718,1.014.032.912-.469,1.352-1.365,1.628a8.114,8.114,0,0,1-10.671-6.131,14.382,14.382,0,0,1,.288-8.345c1.063-2.9,3.385-4.154,6.365-4.083a5.383,5.383,0,0,1,5.409,4.282c.9,3.139.458,3.717-2.822,3.746C287.062,269.132,286.5,269.128,285.662,269.128Zm-1.314-2.094c.779-.785,2.622.917,2.909-1.052.218-1.494-1.219-2.085-2.5-2.178-1.46-.106-2.944.552-3.063,2.049C281.544,267.792,283.345,266.479,284.348,267.034Z"/><path class="cls-3" d="M142.687,269.194c-1.563.726-4.492-1.765-4.818,1.679-.3,3.139,2.48,5.845,5.483,6.3,1.169.179,3.447-1.451,3.435.984-.013,2.632-2.6,1.525-4.02,1.578-3.881.146-6.371-1.647-7.582-4.99-1.559-4.3-.786-10.106,1.724-12.147a6.4,6.4,0,0,1,6.7-1.075,5.55,5.55,0,0,1,3.568,6.291C146.752,270.633,144.121,268.4,142.687,269.194Zm-1.518-2.107c.734-.825,2.517.774,2.638-1.064.107-1.606-1.405-2.232-2.843-2.208-1.284.022-2.743.637-2.733,2C138.247,267.906,140.148,266.357,141.169,267.087Z"/><path class="cls-3" d="M268.568,271.893c0-1.58.021-3.161-.006-4.741-.024-1.4.435-3.105-1.975-3.036-.862.025-1.008-.746-.97-1.474.033-.631.341-1.189.991-1.118,2.2.238,1.853-1.338,2.01-2.635.554-4.562,4.032-6.917,8.392-5.791,1.066.275,1.537.764,1.419,1.878-.133,1.252-.93.953-1.727.877a7.344,7.344,0,0,0-2.353.007c-2.181.523-2.618,2.234-2.59,4.179.031,2.153,1.7,1.222,2.745,1.425.911.178,2.152-.331,2.173,1.345.022,1.693-1.251,1.428-2.134,1.315-2.349-.3-2.877.791-2.792,2.9.127,3.155.083,6.322-.033,9.479-.042,1.135.89,2.974-1.454,3.037-2.277.061-1.615-1.665-1.649-2.9-.043-1.579-.01-3.16-.01-4.74Z"/><path class="cls-3" d="M186.65,269.983c-.055-6.655,4.038-10.353,9.353-8.523a5.132,5.132,0,0,1,3.387,3.491c.257.8.775,2-.4,2.313-1.034.277-2.6.826-3.054-1.023-.36-1.455-.921-2.6-2.706-2.331-1.88.284-2.557,1.666-2.9,3.307-1.194,5.76,1.581,9.51,7.313,9.893.731.049,1.737-.344,1.721.945-.014,1.1-.741,1.444-1.759,1.656C191.053,281.078,186.71,277.248,186.65,269.983Z"/><path class="cls-3" d="M222.609,279.819a18.743,18.743,0,0,1-2.387-.354,1.632,1.632,0,0,1-1.162-2.13c.251-1.33,1.154-.6,1.85-.513a21.567,21.567,0,0,0,2.68.3,2.588,2.588,0,0,0,2.763-1.528c.526-1.357-.352-2.1-1.3-2.774-1.29-.91-2.662-1.713-3.89-2.7-2.348-1.883-2.8-4.7-1.223-6.892,1.437-2,6.176-2.941,8.073-1.644a1.738,1.738,0,0,1,.619,2.094c-.259,1.065-1,.511-1.61.418a15.664,15.664,0,0,0-2.345-.286,2.273,2.273,0,0,0-2.181,1.342c-.426.99.2,1.733.963,2.288a34.068,34.068,0,0,0,3.084,2.077c2.715,1.548,3.86,3.837,2.945,6.818C228.56,279.359,226,279.877,222.609,279.819Z"/><path class="cls-3" d="M115.88,270.248c0-2.368.063-4.738-.019-7.1-.071-2.061,1.726-2.182,2.379-1.486,1.492,1.591,2.447.863,3.765.019.646-.414,1.8-1.118,2.186.263.238.86.635,2.4-.48,2.709-5.356,1.477-4.414,5.8-4.593,9.636-.052,1.125-.024,2.255,0,3.382.018.994-.134,1.782-1.395,1.845-1.337.067-1.807-.577-1.795-1.824.025-2.48.007-4.961.007-7.441Z"/><path class="cls-3" d="M168.2,270.467c0-2.487-.033-4.974.01-7.46.036-2.041,2.226-1.927,2.465-1.23,1.139,3.326,2.079.429,3.075.094.879-.3,1.988-1.362,2.569,0,.348.815.843,2.431-.7,2.893-4.259,1.278-4.348,4.694-4.4,8.168-.023,1.582.022,3.166.012,4.748-.006.932-.037,1.812-1.375,1.842-1.421.032-1.7-.749-1.682-1.929.028-2.374.008-4.748.008-7.123Z"/><path class="cls-3" d="M179.578,270.466c0-2.368.03-4.736-.012-7.1-.021-1.2.257-1.889,1.667-1.909,1.5-.022,1.586.808,1.585,1.936q-.007,7.1.056,14.208c.009,1.172-.268,1.925-1.678,1.933-1.471.008-1.61-.816-1.591-1.961.038-2.367.011-4.736.011-7.1Z"/><path class="cls-3" d="M127.576,270.535c0-2.369.018-4.738-.008-7.107-.012-1.132.121-1.989,1.608-1.944,1.355.041,1.344.91,1.346,1.835.007,4.738,0,9.476.009,14.215,0,1.126-.191,2.034-1.636,1.98-1.595-.06-1.324-1.258-1.342-2.21-.044-2.256-.014-4.512-.014-6.769Z"/><path class="cls-3" d="M183.143,255.428c.2,1.539-.665,1.8-2.012,1.864-1.616.076-1.816-.73-1.851-2.037-.041-1.516.633-1.891,2.029-1.889C182.816,253.369,183.358,253.983,183.143,255.428Z"/><path class="cls-3" d="M128.975,253.426c1.589-.247,1.965.563,1.945,1.962-.018,1.241-.365,1.9-1.721,1.9-1.317,0-2.141-.254-2.118-1.854C127.1,254.034,127.462,253.229,128.975,253.426Z"/><path class="cls-2" d="M289.321,192.765c4.452,5.856,4.424,16.766-.231,22.109-3.323,3.815-7.719,4.8-12.592,4.061-.029-8.1-.014-16.208-.115-24.312-.024-1.91.656-2.622,2.542-2.547C282.4,192.216,285.9,191.921,289.321,192.765Z"/><path class="cls-1" d="M289.321,192.765c-3.426-.844-6.923-.549-10.4-.688-1.886-.075-2.566.637-2.542,2.547.1,8.1.086,16.208.115,24.312-7.664.687-7.664.687-7.665-6.847,0-7.911.049-15.822-.047-23.732-.023-1.885.473-2.618,2.438-2.482,2.923.2,5.927-.179,8.78.334A12.284,12.284,0,0,1,289.321,192.765Z"/><path class="cls-2" d="M288.341,149.238a18.256,18.256,0,0,1-.061,18.256c-2.466,4.474-6.8,5.834-11.8,4.977-.023-5.074-.06-10.149-.066-15.223-.011-9.419,1.043-10.232,10.595-8.237C287.45,149.1,287.9,149.163,288.341,149.238Z"/><path class="cls-1" d="M288.341,149.238c-.444-.075-.891-.136-1.331-.227-9.551-1.994-10.605-1.181-10.595,8.237.006,5.074.043,10.149.066,15.223-7.674,1.068-7.666,1.068-7.65-6.433.015-7.021.1-14.044-.037-21.063-.039-2.086.467-2.793,2.616-2.628,3.257.25,6.573-.3,9.775.721C284.44,144.11,287.064,145.894,288.341,149.238Z"/><path class="cls-2" d="M160.159,271.6c-.367,1.6.134,5.267-3.468,5.3-3.542.037-3.027-3.515-3.209-5.966a16.841,16.841,0,0,1,.383-4.344,2.943,2.943,0,0,1,2.6-2.72c1.722-.143,2.655.962,3.187,2.471A11.523,11.523,0,0,1,160.159,271.6Z"/><path class="cls-2" d="M256.023,277.1a1.9,1.9,0,0,1-1.9-2.331c.241-2.31,1.974-3.033,4.029-3.253,1.336-.144,1.526.647,1.321,1.656C259.07,275.153,258.217,276.769,256.023,277.1Z"/><path class="cls-2" d="M284.348,267.034c-1-.555-2.8.758-2.651-1.181.118-1.5,1.6-2.155,3.063-2.049,1.279.093,2.716.684,2.5,2.178C286.97,267.951,285.127,266.248,284.348,267.034Z"/><path class="cls-2" d="M141.169,267.087c-1.02-.73-2.922.819-2.937-1.27-.01-1.365,1.449-1.981,2.733-2,1.438-.024,2.949.6,2.843,2.208C143.685,267.861,141.9,266.262,141.169,267.087Z"/></svg>