<?xml version="1.0" encoding="utf-8"?>
<!-- Generator: Adobe Illustrator 21.1.0, SVG Export Plug-In . SVG Version: 6.00 Build 0)  -->
<svg version="1.1" id="Ebene_1" xmlns="http://www.w3.org/2000/svg" xmlns:xlink="http://www.w3.org/1999/xlink" x="0px" y="0px"
	 viewBox="0 0 200 255" style="enable-background:new 0 0 200 255;" xml:space="preserve">
<style type="text/css">
	.st0{fill:#181716;}
	.st1{fill:none;stroke:#181716;stroke-width:0.825;}
	.st2{fill:none;stroke:#181716;}
	.st3{filter:url(#Adobe_OpacityMaskFilter);}
	.st4{fill:#FFFFFF;}
	.st5{mask:url(#mask-2_1_);fill:#181716;}
	.st6{fill:#47BB1A;}
</style>
<title>Page 1</title>
<desc>Created with Sketch.</desc>
<g id="Clip-72_1_">
</g>
<path id="Fill-1_1_" class="st0" d="M23.8,49.5c0.4,0.6,0.3,1.3-0.3,1.9c-0.5,0.6-0.8,1.2-0.8,1.6l0.7,14.4c0.1,1.9,0,3.3-0.2,4.1
	c-0.2,0.9-0.7,1.5-1.6,1.9c-0.8,0.4-1.6,0.5-2.3,0.2c-0.7-0.3-1.7-1.2-3.1-2.6L7.4,62c-0.5-0.6-1.2-0.8-1.9-0.7
	c-0.7,0.1-1.3-0.2-1.6-0.8c-0.3-0.6-0.1-1.3,0.7-2c0.7-0.8,2.2-1.8,4.3-2.9c1.5-0.8,2.6-1.3,3.4-1.5c0.8-0.1,1.4,0.1,1.7,0.8
	c0.3,0.6,0.3,1.1-0.2,1.6c-0.4,0.5-0.5,1-0.4,1.3c0.2,0.4,1.2,1.5,2.9,3.4c1.7,1.8,2.7,2.6,3,2.5c0.3-0.2,0.3-1.5,0.1-4
	c-0.3-2.5-0.5-4.1-0.8-4.6c-0.2-0.3-0.5-0.5-1.2-0.6c-0.6-0.1-1-0.4-1.2-0.7c-0.6-1.1,0.3-2.4,2.9-3.8
	C21.6,48.5,23.2,48.4,23.8,49.5"/>
<path id="Fill-3_1_" class="st0" d="M44.2,44.4c0.3,0.7,0.4,1.4,0.2,1.9c-0.2,0.5-0.6,0.9-1.1,1.2c-0.6,0.3-1.2,0.2-1.7-0.2
	c-0.5-0.4-1-0.7-1.4-1.1c-0.7-0.3-1.4-0.3-2.3,0l-0.8,0.3c-0.7,0.3-1.1,0.6-1.2,0.9c-0.2,0.3-0.2,0.7-0.1,1.1
	c0.4,1.9,0.7,3.1,0.9,3.6c0.1,0.2,0.3,0.3,0.7,0.1c0.6-0.2,0.9-0.6,0.9-1.2c0-0.6,0-1.1,0-1.5c0-0.2,0-0.4,0.2-0.6
	c0.1-0.2,0.4-0.4,0.8-0.6c1.2-0.5,2.2,0.3,3,2.4c0.7,1.8,1.1,3.3,1,4.5c-0.1,1.2-0.5,1.9-1.2,2.2c-0.6,0.3-1.1,0.1-1.4-0.3
	c-0.3-0.4-0.5-0.9-0.8-1.3c-0.3-0.4-0.7-0.6-1.1-0.4c-0.5,0.2-0.6,0.7-0.4,1.4c0.2,0.8,0.5,1.9,1.1,3.4c0.2,0.5,0.7,0.7,1.4,0.8
	c0.8,0.1,1.3,0.3,1.5,0.8c0.5,1.2-1,2.5-4.6,4c-2.6,1-4.3,1.5-5.2,1.5c-0.9,0-1.5-0.4-1.7-1c-0.1-0.3-0.1-0.6-0.1-0.8
	c0.1-0.3,0.2-0.6,0.5-0.8c0.2-0.2,0.4-0.4,0.5-0.6c0.1-0.2,0.2-0.4,0.2-0.6c0.1-0.8-0.2-2.7-1-5.6c-0.7-2.9-1.3-5.1-1.8-6.3
	c-0.3-0.7-0.7-1.1-1.1-1.3c-0.4,0-0.8-0.1-1.1-0.1c-0.4,0-0.7-0.3-0.9-0.9c-0.5-1.2,0.3-2.3,2.4-3.2c0.2-0.1,0.9-0.3,2.1-0.8
	c1.2-0.4,1.8-0.7,1.9-0.7l4.7-1.9c0.6-0.3,1.2-0.6,1.8-1c0.6-0.4,0.9-0.6,1-0.6c0.7-0.3,1.5-0.1,2.4,0.7
	C43.2,42.6,43.9,43.5,44.2,44.4"/>
<path id="Fill-5_1_" class="st0" d="M59.4,51c-0.2-0.8-0.5-1.4-0.9-1.6c-0.4-0.3-1-0.3-1.7-0.1c-0.4,0.1-0.6,0.2-0.7,0.3
	C56,49.7,56,49.8,56,50l1,4.9c0,0.1,0.1,0.2,0.1,0.3c0.1,0.3,0.4,0.4,0.9,0.3C59.6,55,60.1,53.5,59.4,51 M57.2,42
	c-0.3-1.2-1-1.7-2-1.4c-0.5,0.1-0.8,0.4-0.7,0.7l0.6,4.1c0.1,0.2,0.1,0.3,0.1,0.4c0.1,0.4,0.4,0.6,0.9,0.5
	C57.5,45.9,57.9,44.4,57.2,42 M67.1,49.7c0.5,1.7,0.2,3.4-0.8,4.9c-1,1.6-2.6,2.6-4.9,3.2l-9.6,2.6c-2.1,0.6-3.4,0.2-3.7-1
	c-0.2-0.6,0.1-1.1,0.7-1.5c0.6-0.4,0.9-0.7,0.9-0.9c0.1,0,0.1-0.5,0.1-1.6c0-1-0.2-2.7-0.4-4.9c-0.4-2.8-0.7-4.9-1.2-6.6
	c-0.2-0.6-0.6-1-1.4-1c-0.7-0.1-1.2-0.4-1.4-0.9c-0.4-1.3,0.4-2.2,2.4-2.7c0.2-0.1,0.8-0.2,1.6-0.4c0.9-0.2,1.5-0.4,2-0.5
	c0.4-0.1,1.4-0.4,2.8-0.8c1.5-0.4,2.3-0.7,2.5-0.7c4-1.1,6.4,0,7.3,3.2c0.3,0.9,0.3,1.8,0,2.5c-0.3,0.7-0.6,1.4-1,1.9
	c-0.4,0.6-0.6,0.9-0.6,1.1c0,0.1,0.4,0.3,1,0.5c0.9,0.3,1.7,0.6,2.3,1.2C66.4,47.8,66.8,48.6,67.1,49.7"/>
<path id="Fill-7_1_" class="st0" d="M155.8,53.2c-0.1,0.4-0.3,0.8-0.6,0.9c-0.1,0.1-0.3,0.1-0.6,0.1c-0.3,0-0.5,0-0.7,0
	c-0.2,0-0.4,0-0.5,0.1c-0.2,0.2-0.5,0.7-1.1,1.5c-0.6,0.8-1.4,1.5-2.3,2c-1.1,0.7-2.5,1.1-4.2,1.3c-1.7,0.2-3.3,0-5.1-0.4
	c-2.9-0.8-5.1-2.2-6.3-4.1c-1.2-1.9-1.5-4.2-0.8-6.9c0.9-3.4,2.9-6.1,6-8.1c3.1-2,6.4-2.5,9.7-1.6c0.8,0.2,1.5,0.5,2.1,1
	c0.7,0.5,1,0.7,1.2,0.7c0.2,0.1,0.4,0.1,0.7,0.1c0.3,0,0.5,0,0.7,0c0.7,0.2,1.3,0.9,1.7,2c0.4,1.1,0.5,2.3,0.2,3.5
	c-0.2,0.9-0.7,1.6-1.4,2.1c-0.7,0.4-1.4,0.5-2.3,0.3c-0.8-0.2-1.3-0.7-1.6-1.5c-0.2-0.7-0.4-1.5-0.6-2.2c-0.2-0.8-0.7-1.3-1.5-1.5
	c-1.3-0.4-2.6,0.2-4,1.7c-1.3,1.5-2.2,3.3-2.8,5.5c-0.3,1.3-0.4,2.4-0.1,3.4c0.3,1,0.9,1.6,1.7,1.9c0.6,0.1,1,0.1,1.5-0.2
	c0.5-0.3,0.8-0.7,0.9-1.4c0.1-0.5,0.1-0.8,0-1l-1-0.6c-0.4-0.3-0.6-0.8-0.4-1.4c0.4-1.6,2.7-1.8,6.9-0.7
	C154.7,50.4,156.2,51.6,155.8,53.2L155.8,53.2z"/>
<path id="Fill-9_1_" class="st0" d="M193.8,58.1c-0.3,0.6-0.9,0.8-1.8,0.8c-0.9-0.1-1.6,0.1-2,0.4l-12.3,9.5c-2,1.6-3.7,2.1-4.8,1.5
	c-0.7-0.3-1.1-1.1-1.2-2.2c0-0.4,0.1-1.5,0.4-3.3c0.3-2,0.5-3.4,0.6-4.1c0-0.8,0-1.2-0.2-1.3c-0.2-0.1-0.6,0.1-1.3,0.5
	c-0.7,0.4-1.8,1.3-3.5,2.6c-0.9,0.8-1.7,1.4-2.3,1.8c-0.6,0.4-1.1,0.7-1.2,0.7c-0.4,0.2-0.9,0.3-1.2,0.3c-0.3,0-0.7-0.1-1.2-0.3
	c-1-0.5-1.3-1.7-1-3.6l2.8-14.7c0.1-0.5-0.1-1-0.6-1.6c-0.5-0.5-0.7-1.1-0.4-1.7c0.3-0.6,1-0.9,2.1-0.7c1.1,0.2,2.9,0.8,5.2,1.9
	c2.3,1.1,3.2,2.2,2.6,3.4c-0.2,0.4-0.6,0.7-1.3,0.8c-0.6,0.1-1.1,0.5-1.3,1c-0.3,0.6-0.6,1.9-1.1,3.8c-0.4,1.9-0.5,3-0.2,3.1
	c0.4,0.2,1.3-0.3,2.7-1.4c1.4-1.1,2.3-2,2.6-2.6c0.4-0.8,0.4-1.6,0-2.4c-0.4-0.8-0.5-1.4-0.3-1.8c0.6-1.2,2.7-0.9,6.5,0.9
	c2.8,1.3,3.9,2.5,3.3,3.7c-0.3,0.6-0.8,0.9-1.5,0.9c-0.7,0-1.2,0.2-1.4,0.8c-0.4,0.8-0.7,2.2-1.1,4.2c-0.3,2-0.3,3,0.1,3.2
	c0.3,0.1,1.3-0.6,3.2-2.1c1.8-1.6,2.9-2.7,3.2-3.3c0.1-0.3,0.1-0.7-0.2-1.2c-0.2-0.5-0.3-0.9-0.1-1.4c0.3-0.6,0.8-0.9,1.6-0.9
	c0.8,0,2.1,0.4,3.8,1.2C193.5,55.8,194.3,56.9,193.8,58.1"/>
<path id="Fill-11_1_" class="st0" d="M36.7,208.4c-0.8,1-3,0.2-6.7-2.6c-2.3-1.8-3.1-3.2-2.3-4.2c0.3-0.5,0.9-0.6,1.5-0.4
	c0.7,0.2,1.2,0.2,1.5,0c0.4-0.2,1-0.8,2-1.6c0.9-1,1.6-1.8,2.1-2.5c0.3-0.3,0.3-0.6,0.2-0.7c-0.2-0.1-0.6-0.1-1.3,0.2l-5.7,2.1
	c-1.4,0.5-2.3,0.6-2.8,0.2c-0.5-0.4-0.7-1-0.4-1.7l1.8-5.5c0.2-0.7,0.3-1.1,0.2-1.2c-0.2-0.1-0.4,0-0.7,0.2
	c-2.5,2.2-3.9,3.4-4.2,3.8c-0.3,0.3-0.3,0.8-0.1,1.4c0.2,0.6,0.2,1-0.1,1.4c-0.4,0.6-1,0.7-1.8,0.5c-0.8-0.2-2-0.9-3.5-2.1
	c-2-1.5-2.6-2.7-1.8-3.8c0.4-0.6,1-0.8,1.7-0.6c0.7,0.2,1.3,0.1,1.8-0.2c4.9-3.2,8.1-5.9,9.7-7.9c0.5-0.7,0.5-1.3-0.1-2.1
	c-0.5-0.8-0.6-1.4-0.2-1.9c0.3-0.5,1-0.5,2.1-0.2c1.1,0.3,2.4,1.2,4.1,2.4c1,0.7,1.6,1.3,1.8,1.8c0.2,0.5,0.2,1.1,0,1.9
	c-0.1,0.7-0.6,2.1-1.4,4.4c-0.5,1.6-0.7,2.5-0.4,2.7c0.3,0.3,1.6-0.1,3.7-0.9c1.3-0.5,2.6-1.1,3.9-1.6c1-0.4,1.8-0.5,2.5-0.3
	c0.7,0.1,1.6,0.7,2.8,1.6c2.3,1.7,3.1,3.1,2.3,4.2c-0.4,0.5-0.8,0.8-1.3,0.7c-0.5-0.1-0.9-0.2-1.4-0.3c-0.6,0-1.4,0.5-2.3,1.6
	c-0.9,1-1.9,2.1-3,3.3c-1.3,1.5-2.5,2.9-3.7,4.5c-0.6,0.7-0.7,1.5-0.5,2.2C36.9,207.7,36.9,208.2,36.7,208.4"/>
<path id="Fill-13_1_" class="st0" d="M64.8,195.8c0.4-0.9,1.2-1.4,2.6-1.4c1.4-0.1,2.6,0.1,3.8,0.6c0.6,0.3,1.1,0.6,1.3,1
	c0.2,0.4,0.2,0.8,0.1,1.2c-0.3,0.7-1,1.1-2.3,1.3c-1.3,0.2-2.5,0.1-3.7-0.4c-0.8-0.3-1.3-0.7-1.6-1
	C64.7,196.6,64.7,196.2,64.8,195.8L64.8,195.8z M56.5,192.4c0.3-0.8,1.2-1.3,2.6-1.4c1.4-0.1,2.6,0.1,3.8,0.6c0.6,0.3,1.1,0.6,1.2,1
	c0.2,0.4,0.2,0.8,0.1,1.1c-0.3,0.7-1,1.1-2.3,1.3c-1.3,0.2-2.5,0.1-3.7-0.4c-0.7-0.3-1.2-0.6-1.5-1
	C56.3,193.3,56.3,192.9,56.5,192.4L56.5,192.4z M71.4,203.5c-0.2,0.5-0.5,0.8-0.8,0.9c-0.2,0.1-0.5,0.1-0.9,0.1c-0.4,0-0.7,0-1,0.1
	c-0.4,0.1-0.7,0.4-0.9,0.8l-3.9,6.6c-1.8,3.1-3.7,5-5.7,5.8c-2,0.8-4.4,0.6-7.2-0.6c-5.7-2.3-7.8-5.5-6.2-9.5c0.4-1,1.3-2.6,2.6-4.7
	c1.3-2.1,2.1-3.6,2.5-4.6c0.3-0.7,0.1-1.3-0.4-1.7c-0.6-0.4-0.7-1-0.4-1.7c0.6-1.4,3.1-1.2,7.6,0.6c1.6,0.6,2.7,1.2,3.3,1.8
	c0.6,0.6,0.8,1.2,0.5,1.8c-0.2,0.6-0.7,0.9-1.4,1c-0.7,0-1.2,0.1-1.5,0.3c-0.5,0.2-0.9,0.8-1.4,1.7l-3.5,6.3
	c-0.2,0.4-0.4,0.8-0.6,1.2c-0.7,1.8-0.2,3.1,1.6,3.8c1.1,0.4,2.1,0.5,3.2,0.1c1-0.4,2.4-1.8,3.9-4.4c1.1-1.8,2-3.6,2.7-5.3
	c0.3-0.8,0.3-1.3-0.1-1.7c-0.3-0.3-0.5-0.5-0.8-0.9c-0.3-0.4-0.4-0.8-0.1-1.4c0.3-0.6,0.7-0.9,1.5-1c0.7-0.1,2,0.3,3.8,1
	C70.6,201.2,71.9,202.4,71.4,203.5L71.4,203.5z"/>
<path id="Fill-15_1_" class="st0" d="M87.2,220.6c-0.2,1.2-0.7,2.4-1.6,3.5c-0.8,1.1-1.7,1.6-2.5,1.5c-0.2,0-0.5-0.2-1-0.4
	c-0.5-0.2-0.9-0.3-1.2-0.4l-7.5-1.3c-1.1-0.2-2.1-0.3-3.1-0.5c-1-0.1-1.6-0.3-1.9-0.3c-1.4-0.2-2-1-1.8-2.1c0.1-0.6,0.6-1,1.3-1.3
	c0.9-0.3,1.5-0.8,1.9-1.6c0.4-0.8,1-2.5,1.9-5.2c0.9-2.9,1.5-5,1.7-6.3c0.1-0.4-0.2-0.8-0.9-1.3c-0.6-0.4-0.9-0.9-0.8-1.6
	c0.1-0.8,0.8-1.2,1.9-1.3c1.1-0.1,3.1,0.1,6,0.6c1.8,0.3,3,0.7,3.6,1.1c0.6,0.4,0.9,0.9,0.7,1.6c-0.1,0.4-0.2,0.7-0.4,0.9
	c-0.2,0.2-0.5,0.3-0.9,0.3c-0.7,0.1-1.2,0.3-1.6,0.6s-0.7,0.9-0.9,1.8l-2.5,9.3c-0.1,0.2-0.1,0.5-0.2,0.7c-0.1,0.5,0,1,0.2,1.2
	c0.2,0.3,0.8,0.4,1.6,0.6c1.4,0.2,2.4,0.1,3.2-0.4c0.2-0.1,0.5-0.4,0.8-0.8c0.4-0.4,0.6-0.6,0.7-0.7c0.6-0.6,1.2-0.8,1.8-0.7
	C87,218.4,87.4,219.2,87.2,220.6L87.2,220.6z"/>
<path id="Fill-17_1_" class="st0" d="M112.8,223.9c0,1.3-1.6,2-5,2c-2.4,0-3.9,0-4.7-0.2c-1-0.2-1.5-0.8-1.5-1.6
	c0-0.5,0.3-0.9,0.8-1.2c0.6-0.3,0.9-0.5,1-0.8c0.1-0.3,0.3-1,0.5-2.1c0.2-1.1,0.3-2,0.3-2.4c0-0.7-0.7-1-2-1c-0.9,0-1.6,0.1-1.9,0.2
	c-0.3,0.1-0.5,0.3-0.7,0.6c-0.1,0.2-0.2,0.9-0.3,2.2c-0.1,1.2-0.1,2.1-0.1,2.5c0,0.4,0.2,0.7,0.6,0.9c0.4,0.2,0.6,0.6,0.7,1
	c0,0.7-0.4,1.2-1.2,1.5c-0.8,0.3-2.2,0.5-4.1,0.5c-1.8,0-2.9,0-3.4-0.1c-1.5-0.2-2.2-0.8-2.3-1.8c0-0.5,0.3-0.9,0.8-1.2
	c0.6-0.4,0.9-0.7,1.1-0.9c0.4-0.4,0.7-2.1,1.1-4.9c0.4-2.8,0.5-5.5,0.5-8c0-0.7-0.3-1.2-0.9-1.4c-0.6-0.3-0.9-0.7-0.9-1.3
	c0-1.5,2.2-2.3,6.5-2.4c1.8,0,3,0.1,3.7,0.4c0.6,0.2,1,0.7,1,1.4c0,0.5-0.1,0.9-0.4,1.1c-0.3,0.2-0.6,0.5-0.9,0.7
	c-0.3,0.2-0.5,0.3-0.6,0.4c-0.1,0.2-0.1,0.4-0.2,0.7l-0.3,2.4c0,0.3-0.1,0.6,0,1c0,0.4,0.2,0.6,0.7,0.7c0.4,0.1,1,0.1,1.6,0.1l0.2,0
	c0.9,0,1.5-0.2,1.8-0.5c0.3-0.3,0.5-0.8,0.5-1.5c0.1-1,0.1-1.9,0.1-2.5c0-0.6-0.3-1-0.7-1.3c-0.5-0.3-0.7-0.7-0.7-1.2
	c0-0.7,0.3-1.2,1.1-1.5c0.7-0.3,2.4-0.5,5.1-0.5c1.6,0,2.8,0.1,3.6,0.3c0.8,0.2,1.2,0.7,1.2,1.4c0,0.6-0.2,1-0.6,1.2
	c-0.5,0.3-0.9,0.5-1.1,0.8c-0.2,0.2-0.4,0.7-0.5,1.2c-0.2,1.6-0.4,3.8-0.7,6.6c-0.3,2.8-0.4,4.8-0.4,5.8c0,0.6,0.3,1.1,0.8,1.3
	C112.6,222.9,112.8,223.4,112.8,223.9"/>
<path id="Fill-19_1_" class="st0" d="M136.6,214.9c0.3,1.4,0.3,2.7-0.2,3.9c-0.5,1.2-1,1.9-1.6,2c-0.2,0.1-0.6,0.1-1.2,0.1
	c-0.5,0-1,0.1-1.4,0.2l-6.9,1.7c-0.8,0.2-1.7,0.5-2.8,0.8c-1.1,0.3-1.8,0.5-2.2,0.6c-1.7,0.4-2.7,0.1-2.9-0.9
	c-0.1-0.6,0.1-1.1,0.7-1.6c0.6-0.5,0.9-1,1.1-1.4c0.2-0.6,0.1-2.5-0.2-5.6c-0.3-3.2-0.6-5.4-0.9-6.7c-0.2-0.8-0.7-1.3-1.4-1.5
	c-0.7-0.2-1.1-0.6-1.2-1.1c-0.3-1.4,0.5-2.3,2.4-2.8c0.1,0,0.7-0.2,2-0.4s2-0.5,2.4-0.6l4.4-1.1c1.2-0.3,2.1-0.6,2.6-0.9
	c0.5-0.3,0.9-0.4,1.1-0.5c0.7-0.2,1.3,0.1,2.1,0.9c0.7,0.8,1.2,1.7,1.5,2.8c0.2,0.7,0.2,1.2-0.1,1.8c-0.2,0.5-0.6,0.8-1.2,1
	c-0.7,0.2-1.2,0.1-1.7-0.3c-0.4-0.4-0.9-0.8-1.3-1.2c-0.6-0.4-1.4-0.4-2.5-0.2c-1.1,0.3-1.8,0.5-2.1,0.8c-0.3,0.3-0.4,0.7-0.3,1.3
	c0.2,1.8,0.4,2.8,0.5,3.1c0,0.1,0.1,0.3,0.3,0.4c0.2,0.1,0.4,0.1,0.6,0c0.6-0.1,0.9-0.7,0.9-1.7c0-1,0.4-1.6,1-1.7
	c1.3-0.3,2.3,0.7,2.9,3.2c0.4,1.4,0.4,2.8,0.3,4c-0.2,1.2-0.7,1.9-1.4,2.1c-0.4,0.1-0.7,0.1-0.9-0.1c-0.3-0.2-0.5-0.5-0.7-1.1
	c-0.2-0.5-0.4-0.9-0.6-1.1c-0.2-0.2-0.5-0.3-0.8-0.2c-0.7,0.2-0.8,1-0.5,2.4l0.6,2.4c0.1,0.4,0.3,0.6,0.5,0.7c0.3,0.1,0.7,0,1.4-0.1
	c1.4-0.4,2.4-0.9,3-1.6c0.3-0.4,0.6-1,0.9-2c0.3-1,0.8-1.6,1.5-1.8C135.5,212.6,136.2,213.3,136.6,214.9L136.6,214.9z"/>
<path id="Fill-21_1_" class="st0" d="M147.2,194.3c0.3,0.6,0.1,1.2-0.5,1.6c-0.6,0.5-0.9,0.9-0.9,1.2c0,0.4,0.2,1.2,0.5,2.3l2.5,9.5
	c0,0.2,0.1,0.4,0.3,0.7c0.3,0.8,0.9,1.2,1.7,1.2c0.5,0,0.8,0.1,1,0.2c0.2,0.1,0.3,0.3,0.4,0.6c0.5,1.2-0.9,2.5-4.4,4
	c-2.5,1.1-4.2,1.6-5.3,1.7c-1,0.1-1.7-0.2-2-1c-0.1-0.3-0.2-0.5-0.1-0.8c0-0.3,0.3-0.6,0.7-1c0.4-0.3,0.6-0.7,0.7-1.1
	c0.1-0.4,0.1-1-0.1-1.7l-2.8-10.4c-0.1-0.3-0.2-0.5-0.2-0.7c-0.2-0.5-0.7-0.7-1.5-0.6c-0.8,0.1-1.4-0.1-1.6-0.8
	c-0.5-1.2,1.1-2.6,4.8-4.2c2.4-1,4-1.6,5-1.6C146.3,193.3,146.9,193.6,147.2,194.3L147.2,194.3z"/>
<path id="Fill-23_1_" class="st0" d="M179.2,194.6c0.7,1.1-0.8,2.9-4.7,5.5c-2.4,1.6-4,1.9-4.7,0.8c-0.3-0.5-0.3-1,0.1-1.6
	c0.4-0.6,0.6-1.1,0.5-1.4c-0.1-0.4-0.4-1.2-0.9-2.4c-0.6-1.2-1.2-2.1-1.6-2.8c-0.2-0.4-0.4-0.5-0.6-0.4c-0.2,0.1-0.3,0.6-0.3,1.3
	l0.1,6.1c0,1.5-0.2,2.4-0.7,2.7c-0.6,0.4-1.1,0.3-1.8-0.2l-4.6-3.5c-0.6-0.5-1-0.6-1.1-0.5c-0.2,0.1-0.2,0.4,0,0.8
	c1.3,3.1,2,4.8,2.2,5.2c0.2,0.4,0.7,0.5,1.3,0.5c0.6,0,1,0.2,1.3,0.5c0.4,0.6,0.3,1.2-0.2,1.9c-0.5,0.7-1.5,1.6-3.1,2.6
	c-2,1.4-3.4,1.5-4.2,0.5c-0.4-0.6-0.4-1.2,0-1.8c0.4-0.6,0.5-1.2,0.4-1.8c-1.5-5.7-2.9-9.6-4.3-11.7c-0.5-0.7-1.1-0.9-2-0.6
	c-0.9,0.3-1.5,0.1-1.9-0.4c-0.3-0.5-0.2-1.1,0.5-2c0.7-0.9,1.9-1.9,3.7-3.1c1-0.7,1.8-1.1,2.3-1.1c0.5,0,1.2,0.2,1.8,0.6
	c0.6,0.4,1.8,1.3,3.7,2.8c1.4,1,2.2,1.5,2.4,1.3c0.4-0.2,0.4-1.5,0.3-3.8c-0.1-1.4-0.2-2.8-0.3-4.2c0-1.1,0.1-1.9,0.5-2.4
	c0.4-0.6,1.2-1.3,2.4-2.1c2.4-1.6,4-1.9,4.7-0.8c0.4,0.6,0.5,1.1,0.2,1.4c-0.3,0.4-0.5,0.8-0.7,1.2c-0.2,0.6,0.1,1.5,0.7,2.7
	c0.6,1.2,1.4,2.5,2.1,3.9c1,1.7,2,3.3,3,4.9c0.5,0.8,1.2,1.2,1.9,1.2C178.5,194.2,179,194.4,179.2,194.6"/>
<path id="Stroke-29_1_" class="st1" d="M85,35.7c-3.8-3.7-7.1-9.5-9.3-15.4c-2.5-7.2-1.8-12.9,0-13.3 M88.1,44.9
	c7.4-3.3,15.5-3.7,24.2-1.2 M85.2,35.9c1,2.9,1.9,5.8,2.7,8.9l1.9,6.5 M85.1,35.8c2.4-5.4,16.2-5.1,15.9-5
	c7.6-0.1,12.5,1.2,15.7,3.1c-1.5,2.2-3.1,5.4-4.4,10c-0.7,2.7-1.8,5.5-2.1,7.8"/>
<path id="Fill-31_1_" class="st0" d="M82,15.2c1.5,5.5,3.1,13.8,3.2,20.3c-4.2-10.7-8.1-21.7-9.4-28.5C77.1,6.8,80.9,11.7,82,15.2"
	/>
<path id="Stroke-33_1_" class="st1" d="M79.1,10c0.3-3.5,1.5-5.5,3.5-6.1"/>
<path id="Fill-35_1_" class="st0" d="M88.3,11.6c1,5.3,1.7,13,1.5,20.6C89.6,31,83.1,4.9,82.6,3.9C84.4,3.5,86.5,5.7,88.3,11.6"/>
<path id="Stroke-37_1_" class="st1" d="M86.1,6.5c0.8-3.2,2.1-4.7,3.7-5.1"/>
<path id="Fill-39_1_" class="st0" d="M94.6,31c0,0-3.1-23.2-4.6-29.6l0.1,0c1.7-0.6,4.9,3.4,6.1,6.8C97.4,15.1,96.7,17.4,94.6,31"/>
<path id="Stroke-41_1_" class="st1" d="M95.4,6.4c1.1-3,2.7-4.9,4.9-5.5"/>
<path id="Fill-43_1_" class="st0" d="M100.5,30.6c0,0,0-13.2-0.1-29.6l0.2-0.1c1.4-0.3,3,1.2,4.8,4.5
	C108.1,12.3,106.4,20.4,100.5,30.6"/>
<path id="Fill-45_1_" class="st0" d="M106.9,30.9c2.4-10.5,4.2-20.2,5.1-28.5c1.8,0.5,2.6,4.9,2.8,6.6
	C114.6,17.4,112,24.6,106.9,30.9"/>
<path id="Stroke-47_1_" class="st1" d="M106.5,10.5c0.7-3.7,3-8.7,5.4-8.2"/>
<path id="Fill-49_1_" class="st0" d="M112.6,32.1c0.8-2.9,6.1-23.8,7.4-27.4C124.3,6.1,120,23.1,112.6,32.1"/>
<path id="Stroke-51_1_" class="st1" d="M121.8,7.9c1-1.5,2.3-2.1,3.1-1.3c0.4,0.3,0.7,0.8,1,1.3c-2.5,6.4-5.9,17.3-6.6,21.9
	c-0.8,1.4-1.8,2.7-2.7,4 M115,8.8c0.5-1.8,2.3-4.6,5-4.1"/>
<path id="Fill-53_1_" class="st0" d="M119.3,29.8c0.6-4.6,4.1-15.5,6.6-21.9C128.2,13.6,124.3,21.9,119.3,29.8"/>
<path id="Stroke-55_1_" class="st1" d="M112.5,32.1L107.4,51 M106.7,31.1l-2.9,19.3 M100.4,31.1l0.1,19.1 M94.5,31.3l2.2,18.9
	 M89.7,32.5l3.7,18 M116.1,33.2L116,30 M111.7,31.2l-0.8-1.9 M106.6,30.4l-1.9-4.8 M99.8,29.9l-2.9-5 M88.5,32l-2.6-2.6 M91.2,25.6
	l2.4,4.9 M84.6,34L81,30.3"/>
<path id="Fill-57_1_" class="st0" d="M109.8,65.1c-0.9,4.5-3.8,7.5-7.1,8.6c0.7-0.5,1.2-0.9,1.6-1.2c2.2-2.3,3.6-4.6,4.2-6.9
	c0.1-0.1,0.2-1.6,0.3-3.2c0-1.6,0-3.1,0-3.1l-1.8,0l0-5.6c1.1,0.5,2.1,1.1,2.8,1.8V65.1z"/>
<path id="Fill-59_1_" class="st0" d="M90.2,55.4c1.2-1.3,3.2-2.2,5.6-2.7l-0.1,5c-0.1,0-0.3,0-0.5,0c-0.8,0-1.8,0.2-2.7,0.5
	c-0.8,0.3-1.7,0.7-2.5,1.2C90,57.3,90,55.4,90.2,55.4"/>
<path id="Stroke-61_1_" class="st2" d="M95.8,57.7c4.2-0.4,7.9-0.2,11.1,0.7L95.8,57.7z M90,65.2c0.1,0,0-3,0-5.7
	c0.8-0.5,1.6-1,2.5-1.3c1.1-0.3,2.1-0.5,2.7-0.5c0.2,0,0.3,0,0.5,0l0.1-5c3.7-0.7,8.1-0.4,11.2,0.9l0,5.6l1.8,0c0,0.3,0,6.3-0.3,6.3
	c-0.6,2.3-2,4.6-4.2,6.9c-0.4,0.3-1,0.8-1.6,1.2c-0.1,0-0.2,0.1-0.3,0.1C97.4,75.2,91.6,72.6,90,65.2z"/>
<path id="Fill-63_1_" class="st0" d="M104.5,59.5c0.6,0,1.7,0,1.7,0c0.2,2.8-0.7,5.7-2.4,9.1C104.1,65.3,104.4,64.3,104.5,59.5"/>
<path id="Fill-65_1_" class="st0" d="M50.6,244.8c-0.5,1.4-3.2,1.1-8.1-0.7c-1.9-0.7-3.1-1.4-3.6-1.9c-0.5-0.5-0.7-1.1-0.5-1.6
	c0.1-0.3,0.3-0.5,0.6-0.6c0.3-0.1,0.7-0.1,1.2,0c0.6,0.2,1.1,0.1,1.6-0.1c0.4-0.3,1.1-1.3,2-3c0.7-1.3,1.1-2.1,1.3-2.5
	c0.3-0.9,0.2-1.5-0.4-1.7c-0.2-0.1-0.5-0.1-1,0c-0.4,0-0.7,0-0.9,0c-0.5-0.2-0.6-0.6-0.3-1.4c0.2-0.4,0.4-0.7,0.7-0.9
	c0.3-0.2,0.8-0.4,1.4-0.5c1.1-0.2,2.7-0.2,4.7,0c2.1,0.2,3.5,0.4,4.3,0.7c1,0.4,1.4,1,1.1,1.8c-0.2,0.4-0.5,0.7-1.1,0.9l-0.6,0.2
	c-0.4,0.1-0.8,0.4-1.1,1c-0.4,0.5-1,1.7-1.9,3.5c-1,2.1-1.6,3.2-1.7,3.6c-0.2,0.4-0.2,0.8-0.1,1c0.2,0.2,0.5,0.5,1.1,0.7
	C50.5,243.5,50.8,244.1,50.6,244.8"/>
<path id="Fill-67_1_" class="st0" d="M62.6,242.2c-0.3,1.3-0.2,2.1,0.5,2.3c0.7,0.2,1.4-0.3,2.1-1.4c0.7-1.1,1.2-2.3,1.5-3.5
	c0.3-1.3,0.2-2.1-0.4-2.2c-0.7-0.2-1.4,0.3-2.1,1.4C63.4,239.8,62.9,241,62.6,242.2 M63.4,247.7c0-0.2,0-0.3-0.1-0.3
	c-0.1,0-0.4,0-1.1,0.1c-0.7,0.1-1.4,0-2.2-0.1c-1.5-0.4-2.4-1.2-3-2.4c-0.5-1.2-0.6-2.6-0.3-4.1c0.6-2.4,2-4.2,4.1-5.4
	c2.2-1.2,4.5-1.5,7.1-0.9c1.9,0.5,3.1,1.4,3.9,2.9c0.7,1.5,0.9,3.2,0.4,5.2c-0.7,2.8-2.3,5.4-4.9,7.7c-2.6,2.3-4.4,3.4-5.3,3.2
	c-0.5-0.1-1-0.4-1.5-0.9c-0.5-0.5-0.7-0.9-0.6-1.1c0-0.1,0.1-0.2,0.2-0.3c0.1-0.1,0.2-0.1,0.3-0.3c0.1-0.1,0.5-0.3,0.9-0.7
	c0.5-0.3,0.9-0.7,1.3-1.1C63,248.5,63.3,248.1,63.4,247.7"/>
<path id="Fill-69_1_" class="st0" d="M83.9,241.7L83.9,241.7c0.3,0,0.4-0.3,0.5-0.9c0.1-0.7,0-1.3-0.3-1.9c-0.3-0.6-0.7-0.9-1.3-0.9
	c-0.4,0-0.8,0-1.1,0.2c-0.3,0.2-0.5,0.5-0.6,0.9c-0.1,0.5,0.3,1.1,1.2,1.7C83.1,241.4,83.7,241.7,83.9,241.7 M79.4,246L79.4,246
	c-0.4,0-0.6,0.4-0.7,1.4c-0.1,0.8,0.2,1.5,0.7,2.1c0.5,0.6,1.2,1,2,1.1c0.5,0,0.9,0,1.3-0.3c0.4-0.2,0.6-0.5,0.6-0.9
	c0.1-0.6-0.3-1.1-0.9-1.5c-0.4-0.3-1-0.7-1.8-1.1C79.8,246.3,79.4,246,79.4,246 M76.8,242.7L76.8,242.7c0-0.1-0.1-0.4-0.3-1
	c-0.2-0.6-0.3-1.1-0.2-1.7c0.2-1.6,1-2.9,2.5-3.7c1.5-0.9,3.2-1.3,5.1-1.1c1.8,0.2,3.1,0.8,4.1,1.8c1,1,1.4,2.2,1.3,3.6
	c-0.1,0.9-0.4,1.6-1,2.2c-0.6,0.6-0.9,0.9-0.9,0.9c0,0.1,0.2,0.4,0.5,0.8c0.2,0.3,0.5,0.8,0.7,1.4c0.2,0.6,0.3,1.3,0.2,2
	c-0.2,1.9-1.1,3.4-2.8,4.4c-1.7,1-3.5,1.4-5.5,1.1c-1.9-0.2-3.5-0.9-4.7-2.1c-1.2-1.2-1.8-2.7-1.6-4.4c0.1-0.7,0.3-1.4,0.6-2
	c0.4-0.5,0.8-1.1,1.4-1.5C76.5,243,76.7,242.8,76.8,242.7"/>
<defs>
	<filter id="Adobe_OpacityMaskFilter" filterUnits="userSpaceOnUse" x="92.3" y="237.2" width="15.1" height="16.9">
		<feColorMatrix  type="matrix" values="1 0 0 0 0  0 1 0 0 0  0 0 1 0 0  0 0 0 1 0"/>
	</filter>
</defs>
<mask maskUnits="userSpaceOnUse" x="92.3" y="237.2" width="15.1" height="16.9" id="mask-2_1_">
	<g class="st3">
		<polygon id="path-1_1_" class="st4" points="107.3,254.2 92.3,254.2 92.3,237.2 107.3,237.2 		"/>
	</g>
</mask>
<path id="Fill-71_1_" class="st5" d="M98.2,249.2c0,1.4,0.4,2.1,1,2.1c0.6,0,1-0.3,1.2-1c0.2-0.6,0.4-1.8,0.6-3.6
	c0.2-1.8,0.4-3.3,0.3-4.5c0-0.9-0.1-1.5-0.3-1.8c-0.1-0.2-0.4-0.3-0.7-0.3c-0.5,0-0.8,0.3-1.1,0.8c-0.3,0.6-0.5,1.8-0.8,3.8
	C98.3,246.7,98.2,248.2,98.2,249.2 M92.3,247.4c-0.1-2.7,0.6-5,2.2-7c1.6-2,3.6-3,6.2-3.1c2-0.1,3.6,0.5,4.8,1.7
	c1.2,1.2,1.8,2.9,1.9,5.1c0.1,2.7-0.7,5.1-2.2,7c-1.6,2-3.6,3-6.1,3.1c-2,0.1-3.6-0.5-4.8-1.7C93,251.2,92.3,249.5,92.3,247.4"/>
<path id="Fill-74_1_" class="st0" d="M135,245.4c0.2,1.1,0.1,2.1-0.3,3c-0.4,0.9-0.9,1.4-1.3,1.5c-0.2,0-0.5,0.1-0.9,0
	c-0.4,0-0.8,0-1.1,0.1l-5.5,1.2c-0.6,0.1-1.3,0.3-2.2,0.5c-0.8,0.2-1.4,0.3-1.7,0.4c-1.3,0.3-2.1,0-2.3-0.8
	c-0.1-0.5,0.1-0.9,0.6-1.2c0.5-0.4,0.7-0.7,0.9-1.1c0.1-0.5,0.1-1.9,0-4.4c-0.1-2.5-0.3-4.2-0.5-5.2c-0.1-0.7-0.5-1.1-1-1.2
	c-0.6-0.2-0.9-0.5-0.9-0.9c-0.2-1.1,0.4-1.8,1.9-2.1c0,0,0.6-0.1,1.6-0.3c1-0.2,1.6-0.3,1.9-0.4l3.5-0.7c1-0.2,1.6-0.4,2-0.6
	c0.4-0.2,0.7-0.3,0.9-0.3c0.5-0.1,1,0.1,1.6,0.7c0.5,0.6,0.9,1.4,1.1,2.2c0.1,0.5,0.1,1-0.1,1.4c-0.2,0.4-0.5,0.6-0.9,0.7
	c-0.5,0.1-0.9,0-1.3-0.3c-0.3-0.3-0.7-0.6-1-0.9c-0.5-0.3-1.1-0.4-1.9-0.2c-0.8,0.2-1.4,0.4-1.6,0.6c-0.2,0.2-0.3,0.6-0.3,1
	c0.1,1.4,0.2,2.2,0.3,2.5c0,0.1,0.1,0.2,0.2,0.3c0.1,0,0.3,0.1,0.5,0c0.5-0.1,0.7-0.5,0.8-1.3c0.1-0.8,0.3-1.2,0.9-1.3
	c1-0.2,1.8,0.6,2.2,2.5c0.2,1.1,0.3,2.2,0.1,3.2c-0.2,0.9-0.6,1.5-1.2,1.6c-0.3,0.1-0.5,0-0.7-0.1c-0.2-0.1-0.4-0.4-0.5-0.9
	c-0.2-0.4-0.3-0.7-0.4-0.9c-0.1-0.2-0.3-0.2-0.6-0.2c-0.5,0.1-0.7,0.7-0.4,1.9l0.4,1.9c0.1,0.3,0.2,0.4,0.4,0.5
	c0.2,0.1,0.6,0,1.1-0.1c1.1-0.2,1.9-0.6,2.4-1.1c0.2-0.3,0.5-0.8,0.8-1.5c0.3-0.8,0.7-1.2,1.2-1.3
	C134.1,243.6,134.7,244.2,135,245.4L135,245.4z"/>
<path id="Fill-76_1_" class="st0" d="M138.1,246c-0.2-0.7-0.1-1.4,0.2-2.1c0.4-0.7,0.9-1.1,1.7-1.4c0.7-0.2,1.3-0.2,2,0.1
	c0.6,0.3,1,0.8,1.2,1.5c0.2,0.8,0.2,1.5-0.2,2.2c-0.4,0.7-0.9,1.1-1.6,1.4c-0.7,0.2-1.4,0.2-2-0.2
	C138.7,247.3,138.3,246.7,138.1,246"/>
<path id="Fill-78_1_" class="st0" d="M158.7,224.6c0.2,0.5,0.1,1-0.4,1.4c-0.5,0.4-0.7,0.8-0.7,1.2l-0.9,11.2
	c-0.1,1.5-0.3,2.5-0.5,3.1c-0.3,0.6-0.7,1.1-1.4,1.4c-0.7,0.3-1.3,0.3-1.8,0c-0.5-0.3-1.2-1.1-2.1-2.3l-6-7.9
	c-0.4-0.5-0.8-0.7-1.4-0.7c-0.6,0-1-0.2-1.2-0.7c-0.2-0.5,0-1,0.7-1.5c0.7-0.5,1.8-1.2,3.6-1.9c1.3-0.5,2.2-0.8,2.8-0.8
	c0.6,0,1,0.2,1.3,0.8c0.2,0.5,0.1,0.9-0.3,1.2c-0.4,0.4-0.5,0.7-0.4,1c0.1,0.4,0.8,1.3,1.9,2.9c1.1,1.6,1.8,2.3,2.1,2.2
	c0.2-0.1,0.4-1.1,0.4-3.1c0-2,0-3.2-0.2-3.7c-0.1-0.2-0.4-0.4-0.8-0.6c-0.4-0.2-0.7-0.4-0.9-0.7c-0.4-0.9,0.5-1.8,2.6-2.7
	C157.1,223.6,158.4,223.7,158.7,224.6"/>
<path id="Fill-80_1_" class="st0" d="M164.5,235.7c-0.4-0.7-0.4-1.4-0.2-2.1c0.2-0.7,0.7-1.3,1.4-1.6c0.6-0.3,1.3-0.4,1.9-0.2
	c0.7,0.2,1.2,0.6,1.5,1.2c0.4,0.7,0.5,1.5,0.2,2.2c-0.2,0.7-0.7,1.3-1.3,1.7c-0.7,0.4-1.3,0.4-2,0.2
	C165.4,236.9,164.9,236.4,164.5,235.7"/>
<path class="st6" d="M116,65.7l-21.1,55.2c0,0-6.5,44.9,22.4,65c24.8-0.8,46.4-11.8,60.5-33.7l22.2-57.1C176,74.4,148,64.6,116,65.7
	z M168.6,149.3c-14.2,17.8-28.3,25-48.1,27.4c-16.1-15.2-18.3-38.6-16.6-53.2l9.8-25.1c8.9,2.3,15,1.1,18.3-3.5
	c-4.8,0.8-8.9-0.3-11.9-3c-4.3-5-4.4-9.9-0.2-14.4c3.5-2.8,5-3.4,9.6-3.6c11.5,0.2,22.4,6,32.5,17.3c5.6,5.3,14.2,8.1,25.9,8.3
	L168.6,149.3z"/>
<path class="st6" d="M102.9,123.1L83.2,65.1c-31.6-0.5-59.3,10-83.2,31.4l19.3,55.9c0,0,23.9,38.6,58.9,35.4
	C96.7,171.2,106.2,148.9,102.9,123.1z M74.8,178.6c-22.1-1.3-38.8-17.8-46.9-30.1L19.3,123c8.3-4,12.2-8.8,11.8-14.5
	c-3.2,3.7-7,5.5-11,5.4c-6.5-1.1-9.7-4.7-9.4-10.9c0.9-4.4,1.6-5.8,5.1-8.9c9-7.2,21-9.8,36.1-7.7c7.7,0.5,16.1-3,25.2-10.3
	L94,126.7C94.6,149.5,88.4,164.1,74.8,178.6z"/>
<path id="Fill-82_1_" class="st0" d="M146,112.2l-7.4-2.9l1.4-3.5l5.8,2.2c0,0,1.3,2.9,1.3,2.9C147.6,112,146.7,112.7,146,112.2
	L146,112.2z M158.2,126.7l-7.5-16.8l29,11.1l0.3-0.7l-29.7-11.4l-3.2-7.2l3.4-8.8c0.9-2.3-2.6-3.6-3.5-1.3c0,0-3.6,9.4-3.6,9.4
	c-0.3,0.7-0.2,1.2,0.1,1.8l1.8,4.2l-5.1-1.9l2.2-5.6c0.9-2.3-2.6-3.7-3.5-1.4l-2.2,5.6L124.6,99l-0.8,0.5l12.7,4.9l-2.1,5.4
	c-0.4,1,0,1.9,1.1,2.3c4.7,1.8,7.8,2.6,8.7,4.4l2.5,5.8l-37.1-14.2l-0.3,0.7l65.4,25.1l0.2-0.7L158.2,126.7z"/>
<path id="Fill-84_1_" class="st0" d="M154,141.3l3.9-10.1c0.7-2.2-2.4-3.4-3.5-1.4l-3.9,10.1l-2.3-0.9l3.9-10.1
	c0.4-2.2-2.5-3.3-3.5-1.4l-4.6,11.9c-0.4,1.1-0.1,2,1.1,2.4l6.1,2.3l5.2,11.7c1,2.3,4.5,0.7,3.5-1.5L154,141.3z"/>
<path id="Fill-86_1_" class="st0" d="M150.1,103.1c0.7-1.9,2.8-2.8,4.7-2.1c1.9,0.7,2.8,2.8,2.1,4.7c-0.7,1.9-2.8,2.8-4.7,2.1
	C150.3,107,149.4,104.9,150.1,103.1"/>
<path id="Fill-88_1_" class="st0" d="M142.3,87.4c1.9,0.7,2.8,2.8,2.1,4.7s-2.8,2.8-4.7,2.1c-1.9-0.7-2.8-2.8-2.1-4.7
	C138.3,87.6,140.4,86.7,142.3,87.4 M139.3,95c2.3,0.9,5-0.3,5.9-2.6c0.9-2.3-0.3-5-2.6-5.9c-2.3-0.9-5,0.3-5.9,2.6
	C135.8,91.5,137,94.1,139.3,95"/>
<path id="Fill-90_1_" class="st0" d="M57.2,110.9c2-0.7,3.1-2.9,2.4-5c-0.7-2-2.9-3.1-5-2.4c-2,0.7-3.1,2.9-2.4,5
	C52.9,110.5,55.1,111.6,57.2,110.9"/>
<path id="Fill-92_1_" class="st0" d="M44,146.3l5-10c0.7-2.7-2.5-3.6-3.7-1.8l-4.9,10C39.2,146.8,42.8,148.7,44,146.3"/>
<path id="Fill-94_1_" class="st0" d="M40.3,157.6c-1.2,2.4,2.5,4.2,3.6,1.8l12.1-24.8c1.2-2.5-2.6-4.2-3.7-1.8L40.3,157.6z"/>
<path id="Fill-96_1_" class="st0" d="M66.9,93.7c-0.9,1.9-3.8,1.6-5.3,0.8c-1.6-0.8-3.6-2.7-2.6-4.7c0.7-1.5,3.1-1.9,5.3-0.8
	C66.4,90.1,67.6,92.2,66.9,93.7L66.9,93.7z M81.6,91.3L78,92.5l-2.5,0.9L73,94.2l-2.5,0.9l-0.7-0.3l-0.7-0.3l-0.7-0.3l-0.7-0.3
	c0.2-0.5,0.2-0.9,0.1-1.4c-0.1-0.5-0.3-1-0.5-1.5c-0.3-0.5-0.7-0.9-1.1-1.3c-0.5-0.4-1-0.8-1.6-1.1c-0.6-0.3-1.3-0.5-1.9-0.6
	c-0.6-0.1-1.3-0.1-1.8,0c-0.6,0.1-1.1,0.3-1.5,0.6c-0.4,0.3-0.8,0.7-1,1.1c-0.3,0.6-0.4,1.2-0.3,1.7c0.1,0.6,0.3,1.1,0.6,1.6
	c0.3,0.5,0.7,1,1.2,1.4c0.5,0.4,1,0.7,1.4,1c0.5,0.2,1,0.4,1.6,0.5c0.6,0.1,1.1,0.2,1.7,0.1c0.6,0,1.1-0.2,1.6-0.4
	c0.5-0.2,0.9-0.6,1.2-1.1l0.5,0.3l0.5,0.3l0.5,0.3l0.5,0.3L56.1,100l-13.4,4.6L31,108.7l-0.4,0.5l0.5,0.3l12.3-4.2l13.6-4.7
	l13.6-4.7l1.2,0.6l1.2,0.6l1.2,0.6l1.2,0.6l-1.2,2.5l-1.2,2.5l-1.2,2.5l-1.2,2.5l-3.2,1.1l-3.2,1.1l-3.2,1.1l-3.2,1.1
	c-0.4,0.1-0.7,0.3-1,0.4c-0.3,0.2-0.5,0.4-0.7,0.6c-0.2,0.2-0.4,0.4-0.5,0.7c-0.2,0.2-0.3,0.5-0.4,0.7l-0.7,1.4l-0.7,1.4l-0.7,1.4
	l-0.7,1.4l-7.6,2.6l-7.6,2.6L21.9,131l0.2,0.8l7.4-2.6l7.4-2.6l7.4-2.6l7.4-2.6l-1.2,2.6l-2.1,4.3c-0.5,1.1,0.1,2.7,1.6,2.2l7.5-2.6
	c1.8-0.6,2.3-1.1,2.9-2.3l0.8-1.5l0.8-1.5l0.8-1.5l1.3,0.6l1.3,0.6l1.3,0.6l1.3,0.6c0.2,0.1,0.4,0.2,0.5,0.2
	c0.2,0.1,0.4,0.1,0.6,0.1c0.2,0,0.4,0,0.6,0c0.2,0,0.4-0.1,0.6-0.2l3.1-1.1l3.1-1.1l3.1-1.1l3.1-1.1c0.6-0.2,1-0.6,1.2-1.1
	c0.2-0.5,0.2-1,0-1.5c-0.2-0.5-0.5-0.9-0.9-1.2c-0.4-0.3-1-0.3-1.6-0.1l-3,1l-3,1l-3,1l-3,1l-1.2-0.6l-1.2-0.6l-1.2-0.6l-1.2-0.6
	l0.1-0.2l0.1-0.2l5.5-1.9l5.5-1.9l5.5-1.9l6.7-2.3l-0.3-0.7l-1.2,0.4l-5.3,1.8l-5.3,1.8l-5.3,1.8l-5.3,1.8l0.3-0.6l0.3-0.6
	c0.4-0.9,0.8-1.2,2-1.6l1.5-0.5l1.5-0.5l1.5-0.5c0.2-0.1,0.4-0.2,0.6-0.2c0.2-0.1,0.3-0.2,0.5-0.3c0.1-0.1,0.3-0.2,0.4-0.4
	c0.1-0.1,0.2-0.3,0.3-0.5l1.3-2.7l1.3-2.7l1.3-2.7l1.3-2.7c0.3-0.5,0.3-1.1,0.1-1.5c-0.1-0.4-0.4-0.8-0.8-1.1
	C78,97,77.5,96.8,77,96.9c-0.5,0-1,0.3-1.4,0.7l-1.1-0.5l-1.1-0.5l-1.1-0.5l-1.1-0.5l2.3-0.8l2.3-0.8l2.3-0.8l2.3-0.8l1.1-0.4
	L81.6,91.3z"/>
</svg>
