<svg id="Ebene_1" data-name="Ebene 1" xmlns="http://www.w3.org/2000/svg" viewBox="0 0 130 177"><defs><style>.cls-1{fill:#ed1a24;}.cls-2{fill:#fefcfc;}</style></defs><title>Zeichenfläche 1</title><path class="cls-1" d="M129.948,0V2.618q0,55.419.052,110.838c0,1.619-.652,3.048-.661,4.631-.009,1.453.478,3.006-.541,4.346.4,1.526-.542,2.879-.567,4.345a12.4,12.4,0,0,1-1.286,4.626,3.694,3.694,0,0,0-.4,2.1c.157.86-.515,1.35-.705,2.037-.318,1.153-.268,2.635-1.639,3.223v1.815a4.585,4.585,0,0,0-1.741,3.3c-.052,1.875-1.637,2.8-2.811,4.143l-.081,1.791a2.888,2.888,0,0,0-2.185,1.649c-1.086,2.832-4.224,4.344-4.819,7.591-1.035.985-2.023,2.195-3.694,2.574a2.817,2.817,0,0,0-2.261,2.4c-2.344.456-3.883,2.071-5.677,3.236-.675.437-1.282,1.121-1.906,1.6a7.247,7.247,0,0,1-4.4,1.807c-1.253,0-1.74,1.527-2.985,1.617l-.462-.46-1.741,1.654c-1,.247-2.132-.5-2.876.617-.331-.314-.542-.666-.987-.577-.816,0-.178.876-.7,1.079-.534.276-.833-.124-1.228-.547l-.866,1.121c-3.189.056-6.147,1.312-9.294,1.186-.308-.012-.6-.368-.926-.58-.665.46-1.543.519-2.045,1.108a100.088,100.088,0,0,1-26.621-2.329l-.346-.964c-.645-.269-.928.157-1.355.6l-.9-1.155c-.9-.341-1.082.665-1.9.425l-1.542-1.836-.6.615a4.63,4.63,0,0,1-2.422-1.593c-2.216.273-3.978-.763-5.64-2.149-1.835-1.531-3.753-2.962-5.6-4.48-.445-.366-.9-.164-1.376-.263a7.311,7.311,0,0,0-1.189-1.732c-1.54-1.431-3.021-2.929-4.482-4.442a35.107,35.107,0,0,1-6.171-8.331,1.734,1.734,0,0,0-1.52-1.043c-.429-.6-.015-1.293-.282-1.879a6.957,6.957,0,0,0-2.128-2.8c-.3-.727.316-1.608-.44-2.159-.7-.509-.539-1.414-.882-1.914-.785-1.145-.108-2.9-1.634-3.642.19-1.335-.584-2.426-.932-3.625-.049-.167-.241-.35-.2-.478.378-1.266-.613-2.3-.583-3.49A12.249,12.249,0,0,0,.733,123.5a1.12,1.12,0,0,1-.113-.521c.429-2.736-.624-5.346-.62-8.07Q.083,58.916.037,2.924V0Zm-4.6,5.706c-1.165.218-.977,1.332-1.6,1.812-1.807,1.393-2.919,3.4-4.407,5.081a40.154,40.154,0,0,0-3.45,4,14.169,14.169,0,0,1-2.529,2.929c-1.024.87-1.386,2.185-2.4,3.045a31.6,31.6,0,0,0-4.2,4.875c-2.21,2.824-4.611,5.488-6.842,8.292-1.778,2.236-3.639,4.419-5.453,6.637-2.536,3.1-5.354,5.971-7.852,9.1-1.171,1.465-2.6,2.709-3.658,4.213-2.128,3.02-4.668,5.69-7,8.531-1.355,1.649-2.72,3.324-4.137,4.935a32.794,32.794,0,0,0-3.275,3.778,49.613,49.613,0,0,1-4.381,5.312c-1.507,1.775-3.1,3.53-4.529,5.345-2.214,2.82-4.754,5.372-6.807,8.322-.59.849-1.834,1.387-2.113,2.275-.314,1-1.072,1.387-1.627,2.026-.665.766-1.2,1.642-1.844,2.382-2.991,3.412-5.766,7-8.742,10.419-3.108,3.565-6.134,7.186-9.116,10.853-2.406,2.96-5.089,5.7-7.45,8.69-1.043,1.321-2.32,2.447-3.255,3.805-2.153,3.124-5.018,5.652-7.135,8.945a5.978,5.978,0,0,0,.489,2.2,48.6,48.6,0,0,0,8.244,12.048c1.439,1.591,3.185,2.891,4.762,4.334,2.794,2.554,6.336,3.872,9.247,6.174,1.993-.056,3.363,1.531,5.243,1.939s3.778,1.06,5.629,1.649a30.9,30.9,0,0,0,6.532,1.433c2.31.2,4.566.84,6.934.753,4.3-.158,8.617-.044,12.926-.044.574,0,1.387.24,1.678-.046.84-.824,1.805-.58,2.675-.484,1.091.12,1.891-.664,2.928-.63,2.4.08,4.623-.816,6.854-1.477a46.846,46.846,0,0,0,12.432-5.35c2.19-1.421,4.6-2.6,6.477-4.377a72.581,72.581,0,0,0,7.622-7.969,48.8,48.8,0,0,0,7.152-11.957c1.818-4.6,3.835-9.2,4.347-14.274.164-1.626,1.083-3.3.982-4.972-.115-1.912.693-3.608.69-5.494q-.09-53.263-.044-106.529ZM27.616,30.426a3.587,3.587,0,0,0-2.182-.029c-1.487,4.306-2.02,8.768-3.308,13.2-.415-1.493-.879-2.843-1.151-4.23-.26-1.324-.654-2.615-.9-3.948-.248-1.373-1.106-2.62-1.115-4.121,0-.357-.532-.711-.692-.909H15.717L12.372,42.878c-.3-.014-.6.065-.726-.14-.455-4.323-2.1-8.284-2.548-12.486-.791.1-1.469-.171-2.292.334.9,5.028,2.827,9.885,3.686,14.789.606,1.345,1.639.874,2.82.907,1.3-4.3,2.372-8.726,3.8-13.7l3.835,13.67h2.477Zm-7.451-9.158c-.409-.848.548-1.318.576-2.045a2.15,2.15,0,0,1-.546-2L17.946,15l1.675-1.67c-.273-1.022.11-2.081-.362-3.237-.9-2.2-2.929-2.337-4.623-2.648a36.447,36.447,0,0,0-6.488-.092V23.968c2.048,0,4.038-.049,6.024.013A6.5,6.5,0,0,0,20.165,21.268ZM62.118,32.653H72c-.276-.9.181-1.622-.319-2.319H59.9V46.109l.7.7H71.647a1.656,1.656,0,0,0,.631-2.231h-10.1V39.5h8.169c.881-.657,1.269-1.324.726-2.355-1.46,0-2.977.021-4.493-.006a39.528,39.528,0,0,1-4.466-.079ZM44.392,41.145c-.109.868-.349,1.645.073,2.107.456.5.4,1.181.938,1.658.567.5,1.241.758,1.811,1.191.6.459,1.611-.186,1.973.787,2.426.044,4.852.13,6.632-2a5.573,5.573,0,0,1,1.09-.868V40.263c-.576-.575-1.1-1.134-1.662-1.648-.737-.672-1.885-.625-2.547-1.4-.894-.3-1.826.182-2.74-.38a13.359,13.359,0,0,0-2.73-.973c.2-.8-.792-1.088-.633-1.807a5.839,5.839,0,0,1,2.859-2.041c3.694-.047,4.231.239,4.767,2.72a3.947,3.947,0,0,0,1.92.052c.076-.011.136-.127.2-.2-.382-2.9-1.856-4.289-4.6-4.318-1.24-.013-2.481,0-3.075,0A7.132,7.132,0,0,0,44.9,32.877v3.189l1.826,2.074c2.843.8,5.492,1.246,7.863,2.534v2.043l-1.334,1.921c-2.165-.226-4.29.49-6.084-.947C46.163,41.371,46.163,41.371,44.392,41.145ZM29.976,46.214H41.941V44.567H31.562c.429-1.988-.58-3.942.851-5.787h8.619c-.356-.632.062-1.152-.478-1.644H31.742V32.76l.841-.838h8.7c.142-.633.362-1.178-.043-1.556H29.976ZM28.144,7.676c1,2.659,1.861,5.444,3.078,8.065,1.263,2.72,1.742,5.782,3.566,8.381.669-.416,1.385.169,1.785-.2,2.3-4.261,3.136-8.874,5.426-12.893-.244-1.248,1.323-2.346.318-3.65A1.588,1.588,0,0,0,40.28,8.4c-1.208,3.414-2.3,6.876-3.663,10.226-.314.771.056,2.144-1.36,2.356-1.641-4.56-3.284-9.123-4.958-13.776C29.566,7.56,28.862,7.076,28.144,7.676Zm47.293,22.65v15.9c3.225,0,6.352,0,9.479-.008.065,0,.13-.128.24-.244-.218-.384.2-.907-.347-1.389H77.056V30.326Zm-49.5-6.406c-.112-.884.153-1.552-.228-2.179-.715-.03-1.447-.279-2.109.2.084.665-.181,1.333.211,1.977Zm17.181-2.2c.108.878-.151,1.545.223,2.176.715.04,1.446.274,2.112-.193-.082-.665.177-1.332-.209-1.983Z"/><path class="cls-2" d="M87.891,50.362c37.458-43.795,37.458-42.957,37.458-42.12q0,53.265.044,106.529c0,1.886-.805,3.582-.69,5.494.1,1.668-.818,3.346-.982,4.972-.512,5.075-2.529,9.672-4.347,14.274a48.8,48.8,0,0,1-7.152,11.957,72.581,72.581,0,0,1-7.622,7.969c-1.88,1.773-4.287,2.956-6.477,4.377a46.846,46.846,0,0,1-12.432,5.35c-2.231.661-4.456,1.557-6.854,1.477-1.037-.034-1.837.75-2.928.63-.87-.1-1.835-.34-2.675.484-.291.286-1.1.046-1.678.046-4.309,0-8.623-.114-12.926.044-2.368.087-4.624-.55-6.934-.753a30.9,30.9,0,0,1-6.532-1.433c-1.851-.589-3.735-1.239-5.629-1.649s-3.25-2-5.243-1.939c-2.911-2.3-6.453-3.62-9.247-6.174-1.577-1.443-3.323-2.743-4.762-4.334a48.6,48.6,0,0,1-8.244-12.048,5.978,5.978,0,0,1-.489-2.2c2.117-3.293,4.982-5.821,7.135-8.945.935-1.358,2.212-2.484,3.255-3.805,2.361-2.992,5.044-5.73,7.45-8.69,2.982-3.667,6.008-7.288,9.116-10.853,2.976-3.415,5.751-7.007,8.742-10.419.649-.74,1.179-1.616,1.844-2.382.555-.639,1.313-1.025,1.627-2.026.279-.888,1.523-1.426,2.113-2.275,2.053-2.95,4.593-5.5,6.807-8.322,1.425-1.815,3.022-3.57,4.529-5.345a49.613,49.613,0,0,0,4.381-5.312,32.794,32.794,0,0,1,3.275-3.778c1.417-1.611,2.782-3.286,4.137-4.935,2.332-2.841,4.872-5.511,7-8.531,1.06-1.5,2.487-2.748,3.658-4.213,2.5-3.128,5.316-6,7.852-9.1,1.814-2.218,3.675-4.4,5.453-6.637,2.231-2.8,4.632-5.468,6.842-8.292a31.6,31.6,0,0,1,4.2-4.875c1.015-.86,1.377-2.175,2.4-3.045a14.169,14.169,0,0,0,2.529-2.929,40.154,40.154,0,0,1,3.45-4c1.488-1.677,2.6-3.688,4.407-5.081.623-.48.435-1.594-35.858,42.844C51.871,100.393,53.3,105.72,54.708,110.991h2.569l3.379-12.512.714.055c1.119,4.19,2.221,8.318,3.327,12.464h2.408a20.686,20.686,0,0,0,.9-3.149c1.2-4,2.143-8.069,3.3-12.078a.641.641,0,0,0-.275-.742c-.636.057-1.308-.19-1.829.113-1.318,4.163-1.969,8.408-3.267,12.709-1.192-4.437-2.319-8.632-3.446-12.832-.826,0-1.588,0-2.351.008-.072,0-.142.112-.578.48-1.221,3.738-2.27,7.95-3.538,12.306-1.617-4.252-1.788-8.718-3.383-12.794C51.962,95.019,51.292,95.019,87.891,50.362ZM71.316,163.779q.6.021.574-.573a1.707,1.707,0,0,0,1.078-1.646c-.006-1.961.893-3.767.7-5.776a35.612,35.612,0,0,1,.006-6.856c.146-1.506.13-3.378,2.486-3.754a5.457,5.457,0,0,1-.966-2.736c-.429.428-.873.659-.942.973a37.122,37.122,0,0,1-2.27,6.793c-.407.934.384,1.524.5,2.292-1.682,1.372.893,2.928-.342,4.481-3.987,1.939-8.4,1.7-13.325,1.6,1.05-.57,1.786-.715,2.063-1.236v-2.677H60.06c-.678.612.315,1.648-.658,2.114-.443-.857.148-1.864-.352-2.694a.913.913,0,0,0-1.032.359v4.187l-.5-.006v-5.484c.947-.581,1.968.086,3-.54-1.479-1.891.058-4.333-1.355-6.243.2-.19.342-.318.475-.454a1.711,1.711,0,0,0,.145-.2c-2.047-.321-2.047-.321-2.188.041.163.532.747.046,1.065.673-.628,1.846,1.159,3.777.2,6.426-.6-1.729-1.4-2.842-1.349-4.276a2.77,2.77,0,0,0-1.291-2.671c-.645.683-.4,1.184-.188,1.858.549,1.725,1.515,3.625.8,5.308a6.325,6.325,0,0,0-.351,4.345c.624,1.884.211,3.7.362,4.685,1.1,3.433,2.882,5.252,6.084,6.241,1.3-.121,3.3.541,4.508-.529.776-1.013-.2-1.075-.036-1.566.431-.337.679-1.012,1.425-.642.365.283.109.7.181,1.053a.4.4,0,0,0-.51.339c-.01.045.125.179.169.169a.4.4,0,0,0,.343-.51c.447.067.576-.538.839-.521,1,.064.9-.58.886-1.2C71.6,164.876,71.229,164.213,71.316,163.779Zm-.643-34.269c-.665,1.084-.665,1.084,0,2.777a16.413,16.413,0,0,1,.137-2.743c.917-.621.376-1.5.436-2.2.019-.217-.237-.258-.436,0A12.651,12.651,0,0,1,70.673,129.51ZM74.7,133.5c-1.246,1.723-1.246,1.723-.617,3.887-.209-1.414,1.28-2.485.681-3.977.769,0,.54-.586.57-1,.028-.388.034-.761.58-.719.571,1.376-1,2.562-.381,4.157a37.411,37.411,0,0,0,5.6-10.321,13.936,13.936,0,0,0,.554-3.2c.25-1.541-1-2.76-.555-4.259h-4.06v1.845c.3.545,1.074.761,1.157,1.55a6.324,6.324,0,0,0-1.008,1.818c-.122.672-.789,1.629.414,2.105.3,1.638-.863,3.076-.663,4.746.036.3-.183,1.4-1.062,1.557-.068-.537.161-1.108-.177-1.618C74.678,130.977,74.709,132.19,74.7,133.5Zm2.773,1.544a17.494,17.494,0,0,1-1.074,2.484c.551.581.859,1.463,1.986.694-.839-.9-.839-1.989-.4-4.2-.119.1-.34.271-.327.293.156.252-.346.88.241.761C78.36,134.985,78.34,134.422,77.473,135.044Zm-8.363.4c-.2-.68.169-1.191-.436-1.413-.384.4-.336.76,1.166-1.194.251,1.579-1.506,2.943-.607,4.559.459.052.727.029.943-.289C70.085,135.721,70.306,134.265,69.11,135.44Zm2.282,10.47a18.832,18.832,0,0,0-2.376,5.785.532.532,0,0,0,.394.622,1.681,1.681,0,0,0,.75-.245c1-.4.344-1.365.768-1.974.878-1.263.125-2.73.112-4.01.831-.2,1.5.241,2.243-.758C72.432,145.659,71.851,145.072,71.392,145.91Zm-2.953-7.346a.4.4,0,0,0-.34-.507c-.045-.01-.179.124-.169.168a.38.38,0,0,0,.46.342c.411,1.981-.426,3.794-.744,5.684a4.363,4.363,0,0,1-2.142-.168v-5.828l-1.084,1.284c-.047,4.1.275,8.393-.784,13.09.881-.522,1.452-.013,2.02-.706v-6.5a4.307,4.307,0,0,0,3.449-.984c-.9-1.955,1.011-3.848.342-5.872C69.112,138.567,68.92,138.567,68.439,138.564ZM50.047,125.388c-.839.179-.311-1.035-1.15-1.157v1.73a1.488,1.488,0,0,1-1.17-1.343c-.191-1.3-.509-2.573-.76-3.787-.464-.048-.737-.031-.926.248,0,2.2-.229,4.408.52,6.574.175.506.6.816.658,1.449.312,3.164,1.976,5.626,4.552,7.991v-2.537c.478-.205.526.677,1.15.379V133.41c.465-.089.559.418,1.079.614.123-3.684.483-7.307-1.555-11.116-.3-.294-.951-.972-1.636-1.621-.342-.324-.114-.707-.187-1.056,2.088.242,3.007,1.877,3.345,3.512a13.812,13.812,0,0,1,.766,3.739,2.92,2.92,0,0,0,1.062,2.49c.127.731-.252,1.551.575,2.76v-2.76c.51-.037.576.294.575.685q0,1.09,0,2.18c-.5-.035-.577.283-.576.674,0,.539,0,1.078-.118,3.269.518-1.477-.985-2.548-.686-3.947a12.17,12.17,0,0,0-.325,4c.455-.023.709-.036,1.13-1.7.559-.044.552.343.578.731a8.523,8.523,0,0,0,.172,2.724c.763-.1,1.436.173,2.042-.2-.206-.859-1.087-.8-1.613-1.217.025-.448-.18-.92.135-1.34l.985-.334c0-1.009-.339-2.147.068-2.862.984-1.727.348-3.479.472-5.2.13-1.8.359-3.684-1.081-5.234-.237-.255-.033-.917-.033-1.39.344-.064.736.156,1.039-.172v-2.59c-.942-.34-1.173.42-1.614.792v1.4c-.983-.243-1.289-1.328-2.158-1.721-.427.083-.948-.214-1.278.3.568,1.162.568,1.162.316,3.1-1.053-.9-.765-2.281-1.04-3.369-1.559-.232-2.2.66-2.738,1.692-.633.255-1.068-.451-1.67-.418-.262,1.287.5,2.114,1.095,3.128Zm12.888,13.6a1.857,1.857,0,0,0-.213,1.532c.037.476-.379,1.09.6,1.595-.233-1.1.265-2.05-1.117,1.913v-4.69c1.306-.89.093-1.7-.114-2.658l1.132-1.285a5.115,5.115,0,0,1,.17-1.78c1.03-1.952.961-4.163,1.511-6.224a7.323,7.323,0,0,0-.394-4.345c-.587-1.6-1.608-2.944-1.958-4.3l-2.731-1.393c0,.913-.009,1.748.017,2.582,0,.07.244.132.444.233.324-.507-.154-1.182.418-1.669.683.707.022,1.713.65,2.541.466.613.1,1.818.207,2.747.388,3.294-.727,6.485-.622,9.767.046,1.442.447,2.978-.511,4.354a1.071,1.071,0,0,0,.126,1.04c.657.546.324,1.228.422,1.847.141.885-.408,1.917.561,2.626-.135,1.45.445,2.992-.561,4.33,1.191,1.55.141,3.459.743,5.082.343.047.622.147.973-.241-.068-1.215.364-2.611-.616-3.719l1.122-2.077-.494-.493c.186-.548,1.269.035,1.125-1.065C63.59,144.618,62.491,144.892,62.935,138.991ZM88.822,88.618h2.76a34.459,34.459,0,0,0-4.921-7.524c3.093-1.022,3.684-2.049,3.569-5.246A5.132,5.132,0,0,0,86.952,72.1q-4.725,0-9.449,0a.465.465,0,0,0-.244.094,1.383,1.383,0,0,0-.2.2q0,7.992.007,15.984c0,.072.106.143.275.358.592-.254,1.351.345,2.017-.306,0-1.809.058-3.618-.027-5.421a1.944,1.944,0,0,1,.91-1.748c.657,0,1.411,0,2.166,0a2.814,2.814,0,0,1,2.373,1.141C86.155,84.39,87.418,86.443,88.822,88.618Zm13.59.1c4.812-1.464,6.279-4.407,6.278-8.355,0-3.972-1.773-6.722-5.76-8.241-5.541.077-4.815-1.027-9.038,3.672a14.291,14.291,0,0,0-.016,9.342c.573.571,1.322,1.3,2.054,2.051A4.5,4.5,0,0,0,99.6,88.731C100.747,88.655,101.9,88.716,102.412,88.716Zm-5.8,17.44a2.991,2.991,0,0,0-2.116-.167,2.937,2.937,0,0,0,.4,2.869A4.3,4.3,0,0,0,96.92,110.6a13.084,13.084,0,0,0,4.158,1.1c1.219.146,2.072-.856,3.279-.621l2.562-2.727c-.218-.673.3-1.266.716-2.09-1.162-.567-.351-2.313-1.762-2.867a23.71,23.71,0,0,0-3.669-1.573c-1.7-.373-3.658-.332-4.953-1.863V98.3c.527-1.041,1.49-1.034,2.011-1.474,2.683-.5,4.586.423,5.609,2.815.776-.152,1.473.231,2.171-.374l-1.462-3.041c-2.172-1.172-4.34-1.885-5.595-1.77a7.058,7.058,0,0,0-5.1,3.281c0,.44.027.824,0,1.2a3.659,3.659,0,0,0,2.552,4.03,26.049,26.049,0,0,0,4.381,1.191,5.4,5.4,0,0,1,2.742,1.35v2.623c-.305.967-1.573.389-1.879,1.159-2.322.249-4.532.167-6.067-2.023Zm12.772-.1a2,2,0,0,0,.119,1.568,7,7,0,0,0,6.911,4.05,7.467,7.467,0,0,0,4.9-2.041,3.866,3.866,0,0,0,1.164-3.612,6.365,6.365,0,0,0-2.773-3.427c-2.394-1.341-5.556-.573-7.513-2.638-.26-1.178.542-1.75.678-2.461a4.6,4.6,0,0,1,4.018-.682,3.962,3.962,0,0,1,2.987,2.815c.724-.142,1.422.243,2-.263-.247-1.993-.849-2.956-2.243-3.777a7.276,7.276,0,0,0-7.645.026c-1.825,1.009-2.6,3.328-2.017,4.394a6.337,6.337,0,0,0,4.457,3.652c2,.385,4.212.486,5.593,2.385a1.682,1.682,0,0,1,.16.5c.139.9-.7,1.429-.842,2.213-2.941,1.07-6.959,1.074-8.022-2.811A3.982,3.982,0,0,0,109.38,106.055Zm-24.9-4.16h-8.5v-5.19H85.61V95.154h-11.9v15.809c3.992,0,7.892,0,11.791-.009.063,0,.125-.13.188-.2-.1-.443.2-.952-.326-1.443h-9.32v-5.764h8.436Zm33.383-27.6h5.131V72.184H110.58c-.117.373-.758.461-.759,1.192-.015.421.561.566.867,1.051h4.941V88.686a4.544,4.544,0,0,0,2.231-.18ZM70.966,137.9c.363-1,.886-1.93,1.292-2.907,1.287-3.091,3.315-5.823,3.767-9.338s.859-3.945-.648-7.62c-.233-.568-.4-.749-1.127-.592.086,2.316-1.006,4.449-1.323,6.8-.3,2.22-.946,4.4-1.083,6.689C71.705,133.247,70.576,135.448,70.966,137.9Zm-4.531-2.774a1.284,1.284,0,0,0,1.414-1.078c.744-2.826,2.53-5.361,2.377-8.436,1.217-1.389.047-2.739-.023-4.116-.081-1.626-1.463-2.29-2-3.558-1.135,1.922-.816,3.886-.926,5.8s.178,3.817-.457,5.787C66.261,131.255,66.935,133.273,66.435,135.129Zm22.8-40.053v15.931h1.524V95.076Zm-9.264,39.048a26.86,26.86,0,0,0,3.872-6.416,11.092,11.092,0,0,0,1.039-8.128c-.352.392-.767.66-.9,1.03-1.5,4.145-2.763,8.375-4.6,12.4C79.247,133.3,79.267,133.758,79.971,134.124ZM56.732,144.735c-1.175-1.233-.881-2.554-.954-3.957-.867.251-1.255,0-1.126-.81l1.144-.521c-1.138-.148-2.192-.566-3.4-.782,2.2,1.563,1.794,4.34,3.189,6.208Zm8.805-8.153c.368-1.446-.584-3.1.571-4.671.361-.491-.079-3.243-.362-4.1-1.275,3.1-.551,6.328-.8,9.53.949.047,1.677.284,2.353-.192C66.881,136.547,66.2,137.079,65.537,136.582ZM67.7,152.634c.192-2.451,1.294-4.426.514-6.643l-.861.8c-.278,1.5.4,3.158-.725,4.511Zm5.045-13.387c-.746,2.213-1.311,3.887-1.963,5.817.725-.341,1.252.036,1.718-.533C71.961,142.973,73.477,141.491,72.749,139.247Zm-14.271,5.79c.262-3.31.262-3.31-1.014-6.3C57.652,141.129,57.057,143.06,58.478,145.037Zm7.153-24.152c-.182-1.318.178-2.456-.312-3.587-1.252.3-1.635.991-1.2,1.774Zm-5.237,15.338c0-.777.047-1.511-.013-2.235-.062-.741.258-1.556-.374-2.5-.183,1.766-1.319,3.111-.577,4.74Zm11.092-9.8c.811-.856.047-1.927.741-2.88.553-.759.337-1.782-.009-2.837C70.862,122.633,71.444,124.558,71.486,126.423ZM60.5,128.71a9.956,9.956,0,0,0,0-5.529Zm9.556-10.448,1.024,2.058c.276-1.062,1.3-1.766.63-2.858Zm4.322,21.354c.737.014.171-.726.563-.972.263-.165.981.235.809-.523H73.076c-.022.451-.179.829.294.951l.614-.5Zm-7.751-20.434c-.36,1.092-.711,2.2,0,3.238Zm-12.47,18.4-1.029-2.07a3.756,3.756,0,0,0-.068,2.364A.779.779,0,0,0,54.152,137.582ZM82.52,118.51a.679.679,0,0,0,.016,1.151c.263-.042.576.12.761-.2C83.189,118.751,83.189,118.751,82.52,118.51ZM70.379,139.249a3.059,3.059,0,0,0,.137,2.371A2.593,2.593,0,0,0,70.379,139.249Zm2.387-20.815a1.632,1.632,0,0,0-.024,1.872A1.652,1.652,0,0,0,72.766,118.434Zm-24.73,1.72a1.631,1.631,0,0,0,0,1.871A1.651,1.651,0,0,0,48.036,120.154Zm27.591,21.857a.692.692,0,0,0,0-1.158A.691.691,0,0,0,75.627,142.011Zm.575-2.877a.691.691,0,0,0,0,1.158A.691.691,0,0,0,76.2,139.134Zm-27.7-16.486c.118.279-.575.742.193.947C49.006,123.266,48.986,122.949,48.506,122.648Zm15.907,15.059c-.187-.267-.379-.267-.565,0C64.034,137.975,64.226,137.975,64.413,137.707Zm14.378-2.865c.189.267.38.267.569,0C79.171,134.575,78.98,134.575,78.791,134.842Z"/><path class="cls-2" d="M27.616,30.426,23.422,46.248H20.945L17.11,32.578c-1.426,4.978-2.5,9.4-3.8,13.7-1.181-.033-2.214.438-2.82-.907-.859-4.9-2.786-9.761-3.686-14.789.823-.5,1.5-.235,2.292-.334.449,4.2,2.093,8.163,2.548,12.486.123.2.427.126.726.14l3.345-12.489h2.555c.16.2.69.552.692.909.009,1.5.867,2.748,1.115,4.121.242,1.333.636,2.624.9,3.948.272,1.387.736,2.737,1.151,4.23,1.288-4.432,1.821-8.894,3.308-13.2A3.587,3.587,0,0,1,27.616,30.426Z"/><path class="cls-2" d="M20.165,21.268a6.5,6.5,0,0,1-5.993,2.713c-1.986-.062-3.976-.013-6.024-.013V7.351a36.447,36.447,0,0,1,6.488.092c1.694.311,3.725.45,4.623,2.648.472,1.156.089,2.215.362,3.237L17.946,15,20.2,17.226a2.15,2.15,0,0,0,.546,2C20.713,19.95,19.756,20.42,20.165,21.268ZM16.522,16.62H10.443v4.971h6.011l1.395-1.325V17.947Zm-6.079-2.393h5.4l1.424-1.42c-.042-.637.191-1.3-.138-1.884l-1.2-1.194H10.443Z"/><path class="cls-2" d="M62.118,32.653v4.409a39.528,39.528,0,0,0,4.466.079c1.516.027,3.033.006,4.493.006.543,1.031.155,1.7-.726,2.355H62.182v5.074h10.1a1.656,1.656,0,0,1-.631,2.231H60.6l-.7-.7V30.334H71.678c.5.7.043,1.414.319,2.319Z"/><path class="cls-2" d="M44.392,41.145c1.771.226,1.771.226,2.781,2.546,1.794,1.437,3.919.721,6.084.947l1.334-1.921V40.674c-2.371-1.288-5.02-1.734-7.863-2.534L44.9,36.066V32.877a7.132,7.132,0,0,1,3.766-2.606c.594,0,1.835-.011,3.075,0,2.748.029,4.222,1.417,4.6,4.318-.068.068-.128.184-.2.2a3.947,3.947,0,0,1-1.92-.052c-.536-2.481-1.073-2.767-4.767-2.72A5.826,5.826,0,0,0,46.6,34.056c-.16.718.828,1.008.632,1.806a13.359,13.359,0,0,1,2.73.973c.914.562,1.846.082,2.74.38.662.775,1.81.728,2.547,1.4.564.514,1.086,1.073,1.662,1.648v3.752a5.573,5.573,0,0,0-1.09.868c-1.78,2.135-4.206,2.049-6.632,2-.362-.973-1.37-.328-1.973-.787-.57-.433-1.244-.69-1.811-1.191-.54-.477-.482-1.158-.938-1.658C44.043,42.79,44.283,42.013,44.392,41.145Z"/><path class="cls-2" d="M29.976,46.214V30.366H41.239c.405.378.185.923.043,1.556h-8.7l-.841.838v4.376h8.812c.54.492.122,1.012.478,1.644H32.413c-1.431,1.845-.422,3.8-.851,5.787H41.941v1.647Z"/><path class="cls-2" d="M28.144,7.676c.718-.6,1.422-.116,2.155-.466,1.674,4.653,3.317,9.216,4.958,13.776,1.416-.212,1.046-1.585,1.36-2.356,1.366-3.35,2.455-6.812,3.663-10.226a1.588,1.588,0,0,1,2.037-1.028c1.005,1.3-.562,2.4-.318,3.65-2.29,4.019-3.128,8.632-5.426,12.893-.4.372-1.116-.213-1.785.2-1.824-2.6-2.3-5.661-3.566-8.381C30.005,13.12,29.142,10.335,28.144,7.676Z"/><path class="cls-2" d="M75.437,30.326h1.619V44.582h7.753c.548.482.129,1.005.347,1.389-.11.116-.175.243-.24.244-3.127.009-6.254.008-9.479.008Z"/><path class="cls-2" d="M25.937,23.92H23.811c-.392-.644-.127-1.312-.211-1.977.662-.481,1.394-.232,2.109-.2C26.09,22.368,25.825,23.036,25.937,23.92Z"/><path class="cls-2" d="M43.118,21.724h2.126c.386.651.127,1.318.209,1.983-.666.467-1.4.233-2.112.193C42.967,23.269,43.226,22.6,43.118,21.724Z"/><path class="cls-1" d="M70.741,164.925c.011.618.119,1.262-.886,1.2-.263-.017-.392.588-.839.521-.074-.353.182-.768-.183-1.051-.746-.37-.994.305-1.425.642-.163.491.812.553.036,1.566-1.2,1.07-3.211.408-4.508.529-3.2-.989-4.984-2.808-6.084-6.241-.151-.985.262-2.8-.362-4.685a6.325,6.325,0,0,1,.351-4.345c.713-1.683-.253-3.583-.8-5.308-.215-.674-.457-1.175.188-1.858a2.77,2.77,0,0,1,1.291,2.671c-.05,1.434.744,2.547,1.349,4.276.958-2.649-.829-4.58-.2-6.426-.318-.627-.9-.141-1.065-.673.141-.362.141-.362,2.188-.041a1.711,1.711,0,0,1-.145.2c-.133.136-.274.264-.475.454,1.413,1.91-.124,4.352,1.355,6.243-1.036.626-2.057-.041-3,.54v5.484l.5.006v-4.187a.913.913,0,0,1,1.032-.359c.5.83-.091,1.837.352,2.694.973-.466-.02-1.5.658-2.114h.816v2.677c-.277.521-1.013.666-2.063,1.236,4.927.1,9.338.341,13.325-1.6,1.235-1.553-1.34-3.109.342-4.481-.116-.768-.907-1.358-.5-2.292a37.122,37.122,0,0,0,2.27-6.793c.069-.314.513-.545.942-.973a5.457,5.457,0,0,0,.966,2.736c-2.356.376-2.34,2.248-2.486,3.754a35.612,35.612,0,0,0-.006,6.856c.2,2.009-.7,3.815-.7,5.776a1.707,1.707,0,0,1-1.078,1.646V160.4h-.931l-1.348,4.287C69.978,165.077,70.385,164.864,70.741,164.925Z"/><path class="cls-1" d="M50.432,95.019H52.64c1.595,4.076,1.766,8.542,3.383,12.794,1.268-4.356,2.317-8.568,3.538-12.306.436-.368.506-.479.578-.48.763-.012,1.525-.008,2.351-.008,1.127,4.2,2.254,8.395,3.446,12.832,1.3-4.3,1.949-8.546,3.267-12.709.521-.3,1.193-.056,1.829-.113a.641.641,0,0,1,.275.742c-1.161,4.009-2.1,8.078-3.3,12.078a20.686,20.686,0,0,1-.9,3.149H64.7c-1.106-4.146-2.208-8.274-3.327-12.464l-.714-.055-3.379,12.512H54.708Q52.592,103.084,50.432,95.019Z"/><path class="cls-1" d="M88.822,88.618c-1.4-2.175-2.667-4.228-4.037-6.208a2.814,2.814,0,0,0-2.373-1.141c-.755-.006-1.509,0-2.166,0a1.944,1.944,0,0,0-.91,1.748c.085,1.8.027,3.612.027,5.421-.666.651-1.425.052-2.017.306-.169-.215-.275-.286-.275-.358q-.012-7.992-.007-15.984a1.383,1.383,0,0,1,.2-.2A.465.465,0,0,1,77.5,72.1q4.725-.007,9.449,0a5.135,5.135,0,0,1,3.278,3.749c.115,3.2-.476,4.224-3.569,5.246a34.459,34.459,0,0,1,4.921,7.524Zm-8.6-9.07a14.02,14.02,0,0,1,2.833.038c1.206.253,2.1-.556,3.2-.658.839-.078,1.284-.946,1.727-1.48V76.26l-1.359-1.8H79.439v4.306Z"/><path class="cls-1" d="M102.412,88.716c-.512,0-1.665-.061-2.809.015a4.5,4.5,0,0,1-3.673-1.546c-.732-.749-1.481-1.48-2.054-2.051a14.291,14.291,0,0,1,.016-9.342c4.223-4.7,3.5-3.595,9.038-3.672,3.987,1.519,5.76,4.269,5.76,8.241C108.691,84.309,107.224,87.252,102.412,88.716Zm.8-14.167c-1.586-1.082-3.111-.54-4.508-.108a4.849,4.849,0,0,0-3.25,3.527v4.88A5.181,5.181,0,0,0,98.7,86.4a5.932,5.932,0,0,0,4.95-.326C107.49,83.273,107.487,77.541,103.216,74.549Z"/><path class="cls-1" d="M96.608,106.156v1.11c1.535,2.19,3.745,2.272,6.067,2.023.306-.77,1.574-.192,1.879-1.159v-2.623a5.4,5.4,0,0,0-2.742-1.35,26.049,26.049,0,0,1-4.381-1.191,3.659,3.659,0,0,1-2.552-4.03c.031-.379,0-.763,0-1.2a7.058,7.058,0,0,1,5.1-3.281c1.255-.115,3.423.6,5.595,1.77l1.462,3.041c-.7.6-1.395.222-2.171.374-1.023-2.392-2.926-3.31-5.609-2.815-.521.44-1.484.433-2.011,1.474,0,.379,0,1.019,0,1.66,1.3,1.531,3.256,1.49,4.954,1.863a23.71,23.71,0,0,1,3.669,1.573c1.411.554.6,2.3,1.762,2.867-.412.824-.934,1.417-.716,2.09l-2.562,2.727c-1.207-.235-2.06.767-3.279.621a13.084,13.084,0,0,1-4.158-1.1,4.3,4.3,0,0,1-2.024-1.737,2.937,2.937,0,0,1-.4-2.869A2.991,2.991,0,0,1,96.608,106.156Z"/><path class="cls-1" d="M109.38,106.055a3.969,3.969,0,0,1,1.932-.1c1.063,3.884,5.081,3.88,8.022,2.81.137-.784.981-1.309.842-2.213a1.682,1.682,0,0,0-.16-.5c-1.381-1.9-3.6-2-5.593-2.385a6.337,6.337,0,0,1-4.457-3.652c-.584-1.066.192-3.385,2.017-4.394a7.276,7.276,0,0,1,7.645-.026c1.394.821,2,1.784,2.243,3.777-.577.506-1.275.121-2,.263a3.962,3.962,0,0,0-2.987-2.815,4.6,4.6,0,0,0-4.018.682c-.136.711-.938,1.283-.678,2.461,1.957,2.065,5.119,1.3,7.513,2.638a6.365,6.365,0,0,1,2.773,3.427,3.866,3.866,0,0,1-1.164,3.612,7.467,7.467,0,0,1-4.9,2.041,7,7,0,0,1-6.911-4.05A2,2,0,0,1,109.38,106.055Z"/><path class="cls-1" d="M84.477,101.9v1.652H76.041v5.764h9.32c.529.491.225,1,.326,1.443-.063.07-.125.2-.188.2-3.9.01-7.8.009-11.791.009V95.154h11.9v1.551H75.973v5.19Z"/><path class="cls-1" d="M62.2,144.031c.288.861,1.387.587,1.62,1.211.144,1.1-.939.517-1.126,1.065l.495.493-1.122,2.077c.98,1.108.548,2.5.616,3.719-.351.388-.63.288-.973.241-.6-1.623.448-3.532-.743-5.082,1.006-1.338.426-2.88.561-4.33-.969-.709-.42-1.741-.561-2.626-.1-.619.235-1.3-.422-1.847a1.071,1.071,0,0,1-.126-1.04c.958-1.376.557-2.912.511-4.354-.1-3.282,1.01-6.473.622-9.767-.11-.929.259-2.134-.207-2.747-.628-.828.033-1.834-.65-2.541-.572.487-.094,1.162-.418,1.669-.2-.1-.442-.163-.444-.233-.026-.834-.017-1.669-.017-2.582l2.731,1.393c.35,1.355,1.371,2.7,1.958,4.3a7.323,7.323,0,0,1,.394,4.345c-.55,2.061-.481,4.272-1.511,6.224a5.115,5.115,0,0,0-.17,1.78l-1.132,1.285c.207.963,1.42,1.768.114,2.658Zm-.565-8.431c.34-1.845.707-3.7,0-5.529Z"/><path class="cls-1" d="M58.1,120.8c0,.473-.2,1.135.033,1.39,1.44,1.55,1.211,3.432,1.081,5.234-.124,1.721.512,3.473-.472,5.2-.407.715-.068,1.853-.068,2.862l-.986.334c-.314.42-.109.892-.134,1.341.526.415,1.407.357,1.613,1.216-.606.376-1.279.1-2.042.2a8.523,8.523,0,0,1-.172-2.724c-.026-.388-.019-.775-.578-.731,0-.54,0-1.079,0-1.618,0-.391.078-.709.551-.767.157.646-.289,1.314.421,1.839a6,6,0,0,0,.172-.792.868.868,0,0,0-.593-1.047c.025-.634.024-1.36.025-2.087,0-.391-.065-.722-.575-.685-.127-.731.253-1.551-.575-2.76v2.76a2.92,2.92,0,0,1-1.062-2.49,13.812,13.812,0,0,0-.766-3.739c-.338-1.635-1.257-3.27-3.345-3.512.542-1.032,1.179-1.924,2.738-1.692.275,1.088-.013,2.468,1.04,3.369.252-1.935.252-1.935-.317-3.1.331-.514.852-.217,1.279-.3.869.393,1.175,1.478,2.158,1.721Q57.5,120.827,58.1,120.8Zm-2.614,4.115c-.12.709-.661,1.464.173,2.169A2.637,2.637,0,0,0,55.481,124.919Zm-.549-.6a1.63,1.63,0,0,0,0-1.87A1.649,1.649,0,0,0,54.932,124.319Z"/><path class="cls-1" d="M117.86,74.29V88.506a4.544,4.544,0,0,1-2.231.18V74.427h-4.941c-.306-.485-.882-.63-.867-1.051,0-.731.642-.819.759-1.192h12.411V74.29Z"/><path class="cls-1" d="M77.81,124.836c-1.374.076-.707-.881-.585-1.553a6.324,6.324,0,0,1,1.008-1.818c-.083-.789-.854-1.005-1.157-1.55V118.07h4.06c-.445,1.5.805,2.718.555,4.259a13.936,13.936,0,0,1-.554,3.2,37.411,37.411,0,0,1-5.6,10.321c-.623-1.6.952-2.781.381-4.157.879-.161,1.1-1.254,1.062-1.557-.2-1.67.963-3.108.834-5.3.053-.447-.168-.281-.155-.259.156.253-.346.88.241.761C78.36,125.245,78.34,124.681,77.81,124.836Zm1.266-4.076c-.372.521-.539.885.084,1.122C79.472,121.547,79.452,121.23,79.076,120.76Z"/><path class="cls-1" d="M70.966,137.9c-.39-2.455.739-4.656.878-6.968.137-2.292.785-4.469,1.083-6.689.317-2.351,1.409-4.484,1.323-6.8.731-.157.894.024,1.127.592,1.507,3.675,1.1,4.108.648,7.62s-2.48,6.247-3.767,9.338C71.852,135.973,71.329,136.9,70.966,137.9Z"/><path class="cls-1" d="M66.436,135.129c.5-1.856-.175-3.874.381-5.6.635-1.97.347-3.864.457-5.787s-.209-3.882.926-5.8c.54,1.268,1.922,1.932,2,3.558.07,1.377,1.24,2.727.023,4.116.153,3.075-1.633,5.61-2.377,8.436A1.284,1.284,0,0,1,66.436,135.129Z"/><path class="cls-1" d="M51.771,134.556v2.537c-2.576-2.365-4.24-4.827-4.552-7.991-.062-.633-.483-.943-.658-1.449-.749-2.166-.517-4.379-.52-6.574.189-.279.462-.3.926-.248.251,1.214.569,2.491.76,3.787a1.488,1.488,0,0,0,1.17,1.343c.019,1.267-.225,2.621,1.15,3.438-.268,1.537.711,2.879.718,4.389A1.058,1.058,0,0,0,51.771,134.556Z"/><path class="cls-1" d="M50.622,120.231c.073.349-.155.732.187,1.056.685.649,1.341,1.327,1.636,1.621,2.038,3.809,1.678,7.432,1.555,11.116-.52-.2-.614-.7-1.079-.614a9.233,9.233,0,0,0-2.3-6.3c-.219-.564.533-1.45-.575-1.719v-2.447c-.592-1.014-1.357-1.841-1.095-3.128C49.554,119.78,49.989,120.486,50.622,120.231Z"/><path class="cls-1" d="M89.235,95.076h1.524v15.931H89.235Z"/><path class="cls-1" d="M68.39,138.567h1.057c.669,2.024-1.237,3.917-.342,5.872a4.307,4.307,0,0,1-3.449.984v6.5c-.568.693-1.139.184-2.02.706,1.059-4.7.737-8.994.784-13.09l1.084-1.284v5.828a4.363,4.363,0,0,0,2.142.168C67.964,142.361,68.8,140.548,68.39,138.567Z"/><path class="cls-1" d="M79.971,134.124c-.7-.366-.724-.822-.589-1.118,1.837-4.021,3.1-8.251,4.6-12.4.133-.37.548-.638.9-1.03a11.092,11.092,0,0,1-1.039,8.128A26.86,26.86,0,0,1,79.971,134.124Z"/><path class="cls-1" d="M56.732,144.735l-1.146.138c-1.395-1.868-.994-4.645-3.189-6.208,1.207.216,2.261.634,3.4.782l-1.144.521c-.129.807.259,1.061,1.126.81C55.851,142.181,55.557,143.5,56.732,144.735Z"/><path class="cls-1" d="M65.537,136.582c.66.5,1.344-.035,1.765.569-.676.476-1.4.239-2.353.192.246-3.2-.478-6.433.8-9.53.283.855.723,3.607.362,4.1C64.953,133.484,65.905,135.136,65.537,136.582Z"/><path class="cls-1" d="M71.392,145.91c-.339,1.458.414,2.925-.464,4.188-.424.609.233,1.578-.768,1.974a1.681,1.681,0,0,1-.749.245.531.531,0,0,1-.395-.622A18.832,18.832,0,0,1,71.392,145.91Z"/><path class="cls-1" d="M67.7,152.634l-1.072-1.328c1.127-1.353.447-3.015.725-4.511l.861-.8C69,148.208,67.9,150.183,67.7,152.634Z"/><path class="cls-1" d="M72.749,139.247c.728,2.244-.788,3.726-.245,5.284-.466.569-.993.192-1.718.533C71.438,143.134,72,141.46,72.749,139.247Z"/><path class="cls-1" d="M58.478,145.037c-1.421-1.977-.826-3.908-1.014-6.3C58.74,141.727,58.74,141.727,58.478,145.037Z"/><path class="cls-1" d="M65.631,120.885l-1.512-1.813c-.435-.783-.052-1.479,1.2-1.774C65.809,118.429,65.449,119.567,65.631,120.885Z"/><path class="cls-1" d="M60.394,136.223H59.43c-.742-1.629.394-2.974.577-4.74.632.949.312,1.764.374,2.5C60.441,134.712,60.394,135.446,60.394,136.223Z"/><path class="cls-1" d="M71.486,126.423c-.042-1.865-.624-3.79.732-5.717.346,1.055.562,2.078.009,2.837C71.533,124.5,72.3,125.567,71.486,126.423Z"/><path class="cls-1" d="M57.52,120.231v-1.4c.441-.372.672-1.132,1.614-.792v2.59c-.3.328-.7.108-1.039.172Q58.116,120.208,57.52,120.231Z"/><path class="cls-1" d="M69.84,132.833a16.6,16.6,0,0,1,.336,4.27c-.216.318-.484.341-.943.289C68.334,135.776,70.091,134.412,69.84,132.833Z"/><path class="cls-1" d="M77.473,135.044a4.619,4.619,0,0,0,.912,3.178c-1.127.769-1.435-.113-1.986-.694A17.494,17.494,0,0,0,77.473,135.044Z"/><path class="cls-1" d="M56.251,136.78l-1.011.052a12.17,12.17,0,0,1,.325-4C55.266,134.232,56.769,135.3,56.251,136.78Z"/><path class="cls-1" d="M60.5,128.71v-5.529A9.956,9.956,0,0,1,60.5,128.71Z"/><path class="cls-1" d="M74.7,133.5c.663,1.4-.826,2.473-.617,3.887C73.454,135.223,73.454,135.223,74.7,133.5Z"/><path class="cls-1" d="M70.051,118.262l1.654-.8c.67,1.092-.354,1.8-.63,2.858Z"/><path class="cls-1" d="M74.373,139.616l-.389-1.044-.614.5c-.473-.122-.316-.5-.294-.951h2.669c.172.758-.546.358-.809.523C74.544,138.89,75.11,139.63,74.373,139.616Z"/><path class="cls-1" d="M74.764,133.41c-.055-1.22-.086-2.433.973-3.337.338.51.109,1.081.177,1.618-.546-.042-.552.331-.58.719C75.3,132.824,75.533,133.406,74.764,133.41Z"/><path class="cls-1" d="M52.921,133.41v1.525c-.624.3-.672-.584-1.15-.379v-2.292c.54-.041.54.327.586.711A.447.447,0,0,0,52.921,133.41Z"/><path class="cls-1" d="M66.622,119.182v3.238C65.911,121.378,66.262,120.274,66.622,119.182Z"/><path class="cls-1" d="M48.9,125.961v-1.73c.839.122.311,1.336,1.15,1.157v1.719c-.54.041-.54-.327-.586-.711A.446.446,0,0,0,48.9,125.961Z"/><path class="cls-1" d="M54.152,137.582a.779.779,0,0,1-1.1.294,3.756,3.756,0,0,1,.068-2.364Z"/><path class="cls-1" d="M62.935,138.991c.65,1.077.152,2.027.385,3.127-.977-.5-.561-1.119-.6-1.595A1.857,1.857,0,0,1,62.935,138.991Z"/><path class="cls-1" d="M70.673,129.51v2.777C70.008,130.594,70.008,130.594,70.673,129.51Z"/><path class="cls-1" d="M82.52,118.51c.669.241.669.241.777.946-.185.325-.5.163-.761.2A.679.679,0,0,1,82.52,118.51Z"/><path class="cls-1" d="M70.379,139.249a2.593,2.593,0,0,1,.137,2.371A3.059,3.059,0,0,1,70.379,139.249Z"/><path class="cls-1" d="M70.81,129.544v-2.2c.2-.257.455-.216.436,0C71.186,128.049,71.727,128.923,70.81,129.544Z"/><path class="cls-1" d="M56.37,129.972v2.76c-.827-1.209-.448-2.029-.575-2.76Z"/><path class="cls-1" d="M72.766,118.434a1.652,1.652,0,0,1-.024,1.872A1.632,1.632,0,0,1,72.766,118.434Z"/><path class="cls-1" d="M71.04,146.088c.811-1.016,1.392-.429,2.243-.758C72.541,146.329,71.871,145.884,71.04,146.088Z"/><path class="cls-1" d="M48.036,120.154a1.651,1.651,0,0,1,0,1.871A1.631,1.631,0,0,1,48.036,120.154Z"/><path class="cls-1" d="M71.316,163.779c-.087.434.285,1.1-.575,1.146C70.827,164.49,70.456,163.828,71.316,163.779Z"/><path class="cls-1" d="M75.627,142.011a.691.691,0,0,1,0-1.158A.692.692,0,0,1,75.627,142.011Z"/><path class="cls-1" d="M76.2,139.134a.692.692,0,0,1,0,1.158A.692.692,0,0,1,76.2,139.134Z"/><path class="cls-1" d="M48.506,122.648c.48.3.5.618.193.947C47.931,123.39,48.624,122.927,48.506,122.648Z"/><path class="cls-1" d="M69.11,135.44c-.772-.653-.82-1.017-.436-1.413C69.279,134.249,68.914,134.76,69.11,135.44Z"/><path class="cls-1" d="M77.982,134.025c.358.4.378.96-.086,1.054-.587.119-.085-.509-.241-.761C77.642,134.3,77.863,134.13,77.982,134.025Z"/><path class="cls-1" d="M68.439,138.564a.4.4,0,0,1-.509-.339c-.01-.044.124-.178.169-.168A.4.4,0,0,1,68.439,138.564Z"/><path class="cls-1" d="M64.413,137.707c-.187.268-.379.268-.565,0C64.034,137.44,64.226,137.44,64.413,137.707Z"/><path class="cls-1" d="M71.89,163.206q.022.594-.574.573Q71.294,163.184,71.89,163.206Z"/><path class="cls-1" d="M69.014,166.646a.4.4,0,0,1-.341.508c-.044.01-.179-.124-.169-.169A.4.4,0,0,1,69.014,166.646Z"/><path class="cls-1" d="M78.791,134.842c.189-.267.38-.267.569,0C79.171,135.109,78.98,135.109,78.791,134.842Z"/><path class="cls-1" d="M16.522,16.62l1.327,1.327v2.319l-1.395,1.325H10.443V16.62Z"/><path class="cls-1" d="M10.443,14.227v-4.5H15.93l1.2,1.194c.329.581.1,1.247.138,1.884l-1.424,1.421Z"/><path class="cls-2" d="M71.89,163.206q-.6-.022-.574.573c-.86.049-.489.711-.575,1.146-.356-.061-.763.152-1.13-.242l1.348-4.287h.931Z"/><path class="cls-2" d="M80.225,79.548l-.786-.783V74.459h7.187l1.359,1.8v1.188c-.443.534-.888,1.4-1.727,1.48-1.1.1-1.994.911-3.2.658A14.02,14.02,0,0,0,80.225,79.548Z"/><path class="cls-2" d="M103.216,74.549c4.271,2.992,4.274,8.724.433,11.529a5.932,5.932,0,0,1-4.95.326,5.181,5.181,0,0,1-3.241-3.556v-4.88a4.849,4.849,0,0,1,3.25-3.527C100.105,74.009,101.63,73.467,103.216,74.549Z"/><path class="cls-2" d="M61.638,135.6v-5.529C62.345,131.9,61.978,133.755,61.638,135.6Z"/><path class="cls-2" d="M56.37,129.972H55.8v-2.76C56.623,128.421,56.243,129.241,56.37,129.972Z"/><path class="cls-2" d="M55.481,124.919a2.637,2.637,0,0,1,.173,2.169C54.82,126.383,55.361,125.628,55.481,124.919Z"/><path class="cls-2" d="M54.932,124.319a1.649,1.649,0,0,1,0-1.87A1.63,1.63,0,0,1,54.932,124.319Z"/><path class="cls-2" d="M56.894,132.65c.7.418.645.794.619,1.141a6,6,0,0,1-.172.792C56.631,134.058,57.077,133.39,56.894,132.65Z"/><path class="cls-2" d="M57.52,120.231q.6-.023.575.573Q57.5,120.827,57.52,120.231Z"/><path class="cls-2" d="M79.076,120.76c.376.47.4.787.084,1.122C78.537,121.645,78.7,121.281,79.076,120.76Z"/><path class="cls-2" d="M77.982,124.284c.358.4.378.961-.086,1.054-.587.119-.085-.508-.241-.761C77.642,124.555,77.863,124.389,77.982,124.284Z"/><path class="cls-2" d="M51.771,132.264v2.292a1.058,1.058,0,0,1-1.006-.768c-.007-1.51-.986-2.852-.718-4.389a.446.446,0,0,1,.564.434c.046.385.046.753.586.712C51.415,131.109,50.664,132,51.771,132.264Z"/><path class="cls-2" d="M48.9,125.961a.446.446,0,0,1,.564.435c.046.384.046.752.586.711V129.4C48.672,128.582,48.916,127.228,48.9,125.961Z"/><path class="cls-2" d="M52.921,133.41a.447.447,0,0,1-.564-.435c-.046-.384-.046-.752-.586-.711-.218-.564.533-1.45-.574-1.719.293-1.227-.868-2.211-.575-3.438A9.233,9.233,0,0,1,52.921,133.41Z"/><path class="cls-2" d="M50.047,127.107v-1.719c1.108.269.356,1.155.575,1.719Z"/><path class="cls-1" d="M50.047,127.107h.575c-.293,1.227.868,2.211.575,3.438-.54.041-.54-.327-.586-.712a.446.446,0,0,0-.564-.434Z"/><path class="cls-1" d="M51.2,130.545c1.107.269.356,1.155.574,1.719C50.664,132,51.415,131.109,51.2,130.545Z"/></svg>