<svg id="Ebene_1" data-name="Ebene 1" xmlns="http://www.w3.org/2000/svg" viewBox="0 0 408.415 500"><defs><style>.cls-1{fill:#3d6796;}</style></defs><title>wittorfneumuenster</title><path class="cls-1" d="M.218,90.9V87.32c1.857.17,2.909-.933,3.935-2.289q2.8-3.694,5.813-7.218c2.661-3.12,5.457-6.126,8.112-9.25,2.81-3.306,5.471-6.739,8.293-10.035,4.179-4.882,8.482-9.658,12.659-14.541,7.582-8.863,15.1-17.778,22.665-26.658,2.22-2.608,3.744-2.751,6.878-1.267a30.47,30.47,0,0,0,5.869,1.926c2.478.6,5.026.911,7.519,1.459,2.944.647,5.826,1.719,8.8,2.071,8.023.95,16.085,1.559,24.12,2.414,6.265.667,12.468.05,18.676-.622,2.6-.282,5.19-.647,7.78-1.009,4.412-.617,8.84-1.147,13.223-1.933,3.2-.574,6.355-1.462,9.511-2.284,1.536-.4,3.023-.984,4.54-1.46q2.945-.923,5.9-1.8c.565-.166,1.265-.079,1.721-.381,2.927-1.939,6.307-2.679,9.548-3.812,1.488-.52,2.751-1.84,4.248-2.145a14.346,14.346,0,0,0,6.505-3.073,3.46,3.46,0,0,1,.8-.4c2.7-1.234,5.409-2.466,8.213-3.743,1.721.906,3.751,2.091,5.877,3.066,3.326,1.526,6.718,2.911,10.082,4.355,4.227,1.815,8.41,3.748,12.7,5.406,3.2,1.236,6.519,2.155,9.808,3.143,1.584.476,3.213.8,4.83,1.162a21.405,21.405,0,0,1,4.346.944c5.179,2.4,10.756,2.376,16.241,2.937,5.205.533,10.452.8,15.609,1.622,6.11.979,12.111-.188,18.15-.4A138.3,138.3,0,0,0,317.162,21.9c3.225-.445,6.435-1.026,9.625-1.673,1.787-.363,3.5-1.067,5.283-1.471,3.541-.8,7.283-.5,10.532-2.887,1.324-.973,3.745-1.752,5.415.157,3.563,4.072,7.05,8.211,10.559,12.329,2.853,3.349,5.669,6.729,8.547,10.056,2.917,3.371,5.938,6.652,8.826,10.048,4,4.708,7.907,9.5,11.887,14.23,3.519,4.181,7.082,8.325,10.633,12.479,2.319,2.712,4.51,5.551,7.009,8.087,3.873,3.93,4.176,6.577.916,11.085a22.751,22.751,0,0,0-1.984,3.374c-1.551,3.185-3.068,6.388-4.528,9.616-1.683,3.722-3.515,7.4-4.87,11.24a97.4,97.4,0,0,0-3.692,13c-1.285,6.349-2.288,12.769-3.094,19.2a94.006,94.006,0,0,0-.741,13.193q.218,13.3.986,26.584c.331,5.7,1.083,11.377,1.734,17.054.488,4.251,1.063,8.493,1.7,12.724.4,2.64,1.086,5.236,1.458,7.879.531,3.772.617,7.624,1.39,11.339a118.044,118.044,0,0,1,2.519,15.817c.332,4.741,1.049,9.455,1.626,14.178.4,3.307,1.139,6.6,1.237,9.913.295,9.946.4,19.9.481,29.851.057,7.385.056,14.775-2.078,21.97a36.533,36.533,0,0,0-.867,4.914c-.411,2.707-.475,5.51-1.238,8.11-1.532,5.221-3.408,10.343-5.2,15.485-1.089,3.124-1.835,6.4-3.837,9.144a3.657,3.657,0,0,0-.221.488c-2.009,3.877-3.9,7.825-6.07,11.608a88.6,88.6,0,0,1-6.122,9.366c-2.546,3.363-5.35,6.542-8.178,9.679a135.069,135.069,0,0,1-21.794,19.463c-1.828,1.308-3.643,2.637-5.5,3.907-4.144,2.84-8.25,5.74-12.481,8.444-3.63,2.319-7.41,4.4-11.129,6.582-.356.208-.76.331-1.126.523-1.4.738-2.815,1.46-4.194,2.24-2.8,1.587-5.586,3.21-8.38,4.814-.1.058-.235.054-.34.105-3.507,1.706-7.034,3.371-10.511,5.137-3.111,1.58-6.128,3.349-9.255,4.894-3.613,1.785-7.319,3.382-10.953,5.125-2.616,1.255-5.184,2.611-7.767,3.934-3.742,1.918-7.566,3.7-11.194,5.812-3.77,2.2-8.291,2.893-11.628,5.927a2.99,2.99,0,0,1-1.311.524c-4.037.943-7.167,3.7-10.8,5.459-2.3,1.109-4.238,2.981-6.276,4.59-2.741,2.165-5.416,4.413-8.13,6.612-2.757,2.235-5.531,4.448-8.287,6.683a1.549,1.549,0,0,1-2.331-.213q-2.877-2.74-5.817-5.414c-1.887-1.714-3.779-3.426-5.73-5.067a60.337,60.337,0,0,0-6.528-5.192c-3.444-2.16-7.077-4.032-10.694-5.9-4.667-2.413-9.386-4.726-14.1-7.038-3.715-1.821-7.489-3.524-11.189-5.374-3.6-1.8-7.117-3.751-10.7-5.572-1.783-.906-3.673-1.6-5.452-2.513-3.363-1.724-6.68-3.537-10.019-5.31-.156-.083-.339-.116-.5-.19-2.945-1.359-5.945-2.614-8.818-4.111-3.089-1.609-6.052-3.457-9.083-5.178-3.852-2.188-7.728-4.333-11.572-6.534-2.857-1.636-5.688-3.318-8.514-5.007-1.671-1-3.31-2.05-4.965-3.077-2.6-1.616-5.307-3.092-7.788-4.877-4.459-3.206-8.926-6.43-13.129-9.956-4.455-3.736-8.762-7.68-12.841-11.822a111.249,111.249,0,0,1-8.731-10.336c-2.817-3.663-5.534-7.429-7.973-11.351-2.057-3.307-3.649-6.9-5.453-10.369-.655-1.258-1.409-2.472-1.97-3.77-.658-1.521-1.153-3.112-1.722-4.671-1.6-4.389-3.437-8.711-4.749-13.186a99.54,99.54,0,0,1-2.955-13.387c-.756-5.1-.968-10.288-1.474-15.431a204.939,204.939,0,0,1-.338-33.7c.327-4.932.447-9.879.831-14.806.29-3.728.815-7.439,1.3-11.15.6-4.594,1.277-9.179,1.905-13.77.5-3.651.574-7.419,1.568-10.929a71.79,71.79,0,0,0,2.032-12.454c.355-3.481.925-6.941,1.413-10.409.587-4.17,1.376-8.322,1.736-12.512.485-5.633.627-11.294.949-16.941.231-4.04.793-8.082.717-12.114-.133-7.017-.547-14.034-1.032-21.038-.316-4.561-.811-9.124-1.526-13.639a68.516,68.516,0,0,0-2.242-8.588c-1.073-3.632-2.183-7.257-3.424-10.834-.831-2.394-1.917-4.7-2.89-7.043-.114-.274-.217-.553-.343-.822-1.772-3.8-3.536-7.6-5.327-11.386-.7-1.483-1.468-2.936-2.2-4.4C3.28,91.859,2.219,90.669.218,90.9ZM41.475,349.69A29.044,29.044,0,0,0,42.6,352.9c1.954,3.978,3.911,7.956,5.992,11.869a69.294,69.294,0,0,0,4.287,7.148c1.7,2.432,3.769,4.6,5.5,7.013,5.816,8.1,13.539,14.173,21.322,20.167,3.473,2.675,7.142,5.1,10.762,7.58,2.738,1.876,5.495,3.73,8.323,5.463,3.334,2.043,6.728,3.994,10.146,5.9s6.9,3.669,10.337,5.536,6.817,3.8,10.246,5.666c3.8,2.065,7.65,4.032,11.425,6.138,2.351,1.312,4.423,1.11,5.845-.9,1.232-1.743,2.324-3.585,3.537-5.343q4.3-6.234,8.669-12.424c2.956-4.168,5.991-8.28,8.946-12.449,2.817-3.974,5.548-8.008,8.367-11.98,2.957-4.166,6-8.269,8.956-12.439,2.745-3.878,5.383-7.833,8.13-11.71,3.264-4.607,6.609-9.155,9.89-13.75,2.656-3.72,5.255-7.48,7.905-11.2,3.273-4.6,6.59-9.168,9.858-13.77,2.476-3.487,4.888-7.019,7.362-10.507,3.334-4.7,6.705-9.377,10.049-14.071,1.343-1.885,2.629-3.811,3.989-5.683,2.831-3.895,5.752-7.725,8.527-11.658,2.944-4.172,5.717-8.464,8.65-12.644,2.831-4.034,5.787-7.979,8.661-11.983,4.645-6.469,9.3-12.928,13.889-19.44,4.068-5.778,7.993-11.656,12.071-17.426,4.048-5.727,8.211-11.375,12.321-17.058,1.393-1.926,2.8-3.84,4.165-5.787,2.858-4.088,5.65-8.224,8.543-12.287,2.759-3.874,5.657-7.649,8.412-11.526,3.4-4.79,6.706-9.653,10.087-14.461,2.565-3.649,5.2-7.25,7.775-10.891,2.916-4.121,5.791-8.27,8.705-12.392,1.991-2.816,4.021-5.6,6.026-8.409,1.9-2.658,3.812-5.308,5.675-7.992,1.216-1.753,2.737-3.421,3.442-5.373,1.261-3.491,1.839-7.181,3.38-10.649,1.384-3.115,2.024-6.552,3.759-9.579.787-1.374,1.041-3.066,1.884-4.392,1.593-2.506,1.752-3.592-.188-5.9-3.9-4.643-7.9-9.2-11.841-13.806-6.725-7.872-13.407-15.78-20.159-23.627-2.4-2.792-4.919-5.488-7.462-8.153a3.822,3.822,0,0,0-4.321-.923c-4.708,1.941-9.694,2.306-14.652,2.926-4.841.606-9.647,1.584-14.5,1.968-5.1.4-10.243.191-15.358.431-9.422.441-18.619-1.375-27.889-2.521-2.44-.3-5.076-.825-6.851,1.72-1.289,1.848-2.532,3.727-3.818,5.577-2.881,4.142-5.755,8.29-8.671,12.407s-5.9,8.2-8.829,12.312c-3.063,4.3-6.081,8.63-9.153,12.922-1.627,2.273-3.361,4.47-4.987,6.745-2.208,3.09-4.349,6.228-6.536,9.333-1.091,1.55-2.241,3.058-3.325,4.613-3.02,4.334-5.991,8.7-9.034,13.019-2.909,4.128-5.9,8.2-8.825,12.314-2.956,4.161-5.861,8.359-8.816,12.521-2.752,3.876-5.574,7.7-8.307,11.593-2.9,4.129-5.688,8.34-8.61,12.455-2.681,3.776-5.515,7.444-8.208,11.212-3.589,5.022-7.1,10.1-10.658,15.144-2.053,2.91-4.137,5.8-6.2,8.7-2.86,4.017-5.734,8.025-8.568,12.06-2.764,3.934-5.449,7.924-8.237,11.841-2.927,4.113-5.974,8.141-8.894,12.258-2.884,4.067-5.632,8.231-8.521,12.295-2.65,3.729-5.453,7.348-8.106,11.074-3.683,5.174-7.29,10.4-10.926,15.609-2.821,4.041-5.6,8.11-8.461,12.125-2.961,4.16-6,8.268-8.988,12.406-1.463,2.024-2.922,4.051-4.349,6.1-1.7,2.437-3.319,4.926-5.041,7.344-3.1,4.347-6.245,8.658-9.369,12.985-2.954,4.092-5.939,8.163-8.832,12.3A18.859,18.859,0,0,0,41.475,349.69ZM310.5,293.815l-2.92,5.518a22.216,22.216,0,0,0,3.931-.033c5.733-1.159,8.947-9.017,5.6-13.79a17.089,17.089,0,0,0-9.079-6.634c-5.505-1.705-12.095,3.829-11.489,9.551a7.72,7.72,0,0,0,7.9,6.762c3.8-.121,6.227-2.929,6.439-7.709.751.7,1.437,1.246,2,1.895.87,1,1.713,2.061,1.023,3.516C313.19,294.395,311.888,294.062,310.5,293.815Zm21.873-20.455,10.466-14.519-3.967-2.859c-.949,1.31-1.779,2.467-2.62,3.616s-1.709,2.309-2.564,3.464a14.182,14.182,0,0,1-.432-3.5,30.636,30.636,0,0,0-.81-6.516,5.933,5.933,0,0,0-9.9-2.682,21.779,21.779,0,0,0-4.334,6.02c-1.42,2.808-.322,5.811,2.373,7.688.727-.837,1.415-1.732,2.21-2.521,1.06-1.052,1.611-1.949.446-3.417-.882-1.111-.172-2.826,1.095-3.489a2.275,2.275,0,0,1,3.239,1.254,9.757,9.757,0,0,1,.641,2.93c.184,2.134.2,4.283.38,6.417A11.752,11.752,0,0,0,332.369,273.36Zm-42.1,58.423c-.588-.456-1.09-.862-1.609-1.244-1.681-1.234-3.414-2.4-5.041-3.7-1.57-1.255-1.855-2.534-.949-3.675,1.238-1.559,2.424-.638,3.562.164,2.181,1.538,4.342,3.1,6.672,4.774l3.562-4.893c-3.184-2.254-6.12-4.5-9.226-6.479-2.674-1.7-5.332-1.09-6.874,1.69-.894,1.611-1.1,3.606-1.613,5.43l-1.441-.78-3.134,4.444,12.619,9.076ZM274.008,348.49c4.576,0,9.2-4.823,9.226-9.62a8.473,8.473,0,0,0-8.345-8.085c-4.468.04-8.915,4.869-8.919,9.686A8.005,8.005,0,0,0,274.008,348.49ZM313.7,279.822l1.231-6.687,11.325,8.123,3.552-4.919-17.738-12.785a23.382,23.382,0,0,1-1.495,2.033,3.374,3.374,0,0,0-.682,3.979,6.719,6.719,0,0,1,.285,4.355c-1,2.723.2,4.056,2.328,5.169C312.817,279.251,313.106,279.455,313.7,279.822Zm-4.631,25.5L291.3,292.51c-.886,1.251-1.711,2.332-2.427,3.481a1.572,1.572,0,0,0-.09,1.274,11.477,11.477,0,0,1,.373,7.523,1.852,1.852,0,0,0,.266,1.514c1,.877,2.139,1.584,3.543,2.583l1.195-6.784,11.327,8.12Zm-55.6,50.416c4.538,1.077,8.794,1.91,12.933,3.135,2.6.769,4.235.418,5.61-2.071a2.6,2.6,0,0,0,.031-3.144c-2.435-3.878-4.768-7.821-7.155-11.729a7.34,7.34,0,0,0-.832-.934l-3.371,4.74,6.019,8.17c-.812-.245-1.189-.345-1.558-.472-2.305-.793-4.6-1.629-6.922-2.358a1.768,1.768,0,0,0-1.529.227C255.6,352.623,254.661,354.065,253.469,355.739Z" transform="translate(-0.218 -1.273)"/><path class="cls-1" d="M79.656,345.124,96.69,357.4c1.536-2.118,2.99-4.123,4.443-6.128q.629-.868,1.252-1.741c1.652-2.309,1.651-2.309,4.352-1.071-.521-.829-.88-1.413-1.252-1.989-3.946-6.1-7.861-12.223-11.869-18.284a2.426,2.426,0,0,1,.077-3.317c2.818-3.625,1.621-3.251,6.034-2.168q10.4,2.55,20.783,5.14c.624.155,1.233.368,2.259.679a50.321,50.321,0,0,1-3.285,4.322c-.313.338-1.35.163-2,0-4.2-1.024-4-.88-6.753,2.345-2.543,2.984-3.632,5.623-.386,8.737a1.957,1.957,0,0,1-.038,1.841c-4.109,5.913-8.3,11.767-12.45,17.654-.635.9-1.22.9-2.066.285-6.121-4.445-12.271-8.849-18.376-13.314-.349-.255-.686-1.114-.522-1.385C77.684,347.7,78.648,346.5,79.656,345.124Zm20.833-16.855-.39.36,4.8,7.129,3.733-5.187Z" transform="translate(-0.218 -1.273)"/><path class="cls-1" d="M140.888,286.9c-.333-.451-.647-.916-1-1.349-2.749-3.372-5.479-6.761-8.278-10.09a1.7,1.7,0,0,1-.062-2.478c2.879-4.02,2.85-4.044,7.518-2.206,3.582,1.41,7.161,2.827,10.948,3.969-.3-.39-.585-.8-.912-1.166-2.934-3.293-5.848-6.6-8.833-9.849-.833-.906-1.014-1.626-.166-2.6.8-.923,1.487-1.948,2.365-3.118.648.68,1.106,1.118,1.517,1.6,4.886,5.7,9.743,11.427,14.669,17.093a1.749,1.749,0,0,1,.1,2.609c-2.49,3.427-2.454,3.459-6.453,1.942-4.275-1.622-8.547-3.254-13.352-5.084.531.822.728,1.2.993,1.526,3.2,3.925,6.386,7.864,9.64,11.745a1.654,1.654,0,0,1,.088,2.46c-3.365,4.356-1.783,3.944-6.678,1.975-6.137-2.468-12.24-5.023-18.354-7.549-.584-.241-1.145-.539-1.967-.93a40.065,40.065,0,0,1,2.89-3.844c.3-.321,1.323-.235,1.877-.005,3.849,1.6,7.66,3.285,11.487,4.934.578.249,1.177.45,1.766.674Z" transform="translate(-0.218 -1.273)"/><path class="cls-1" d="M220.177,177.01q-4.566-5.12-9.129-10.242c-1.857-2.1-2.041-1.6-.222-4.091a16.1,16.1,0,0,1,2.34-2.54,7.245,7.245,0,0,0,.791,1.615q7.4,8.724,14.875,17.387a1.6,1.6,0,0,1,.175,2.321c-2.526,3.672-2.5,3.7-6.705,2.1-3.677-1.4-7.347-2.811-11.024-4.209a3.767,3.767,0,0,0-2-.283c1.18,1.464,2.351,2.935,3.541,4.391,2.263,2.768,4.507,5.552,6.821,8.277.718.846.921,1.486.172,2.456-3.436,4.445-1.794,4-6.821,1.984-6.084-2.442-12.13-4.977-18.19-7.478-.589-.243-1.159-.53-2.024-.928a40.019,40.019,0,0,1,2.841-3.827,2.143,2.143,0,0,1,1.863-.078c3.85,1.593,7.661,3.281,11.487,4.933.589.254,1.19.481,2.24.9-.482-.758-.678-1.146-.946-1.475-2.783-3.421-5.549-6.857-8.388-10.232a1.873,1.873,0,0,1-.16-2.765c2.869-3.9,2.823-3.937,7.4-2.132q5.388,2.125,10.772,4.259Z" transform="translate(-0.218 -1.273)"/><path class="cls-1" d="M187.474,310.177c-2.983-3.628-5.914-7.3-8.979-10.859-1.049-1.217-1.192-2.118-.12-3.356,1.049-1.212,1.844-2.645,2.9-3.848a1.788,1.788,0,0,1,1.7-.31c6.417,4.546,12.779,9.168,19.147,13.782a2.642,2.642,0,0,1,.421.478.965.965,0,0,1-.032.255c-2.322,4.314-2.335,4.314-6.225,1.5q-4.128-2.987-8.271-5.953a2.845,2.845,0,0,0-1.654-.631c.381.493.747,1,1.147,1.477,2.793,3.335,5.561,6.691,8.411,9.977.829.956,1.023,1.665.188,2.745-2.73,3.532-1.6,3.212-5.635,1.662s-8.063-3.2-12.093-4.8l-.28.44,13.02,9.443c-.9,1.27-1.691,2.5-2.624,3.61-.185.22-1.041.166-1.369-.067q-9.463-6.746-18.834-13.619a1.786,1.786,0,0,1-.211-1.713c.927-1.522,2.083-2.9,3.078-4.386a1.722,1.722,0,0,1,2.436-.615c3.986,1.575,8,3.079,12.005,4.6.538.2,1.091.373,1.636.558Z" transform="translate(-0.218 -1.273)"/><path class="cls-1" d="M225.811,149.82c-1.242,1.694-2.4,3.2-3.47,4.762-.672.985-1.257,1.182-2.3.42-2.315-1.684-2.351-1.628-.7-3.91q10.471-14.483,20.942-28.966c2.155-2.975,1.609-2.512,4.269-.686.292.2.555.442,1.044.835l-4.289,6.131,17.129,12.4a35.972,35.972,0,0,1-2.773,3.756c-.261.279-1.418.077-1.907-.268-4.678-3.291-9.3-6.662-13.941-10.007-.526-.379-1.064-.743-1.845-1.288l-8.877,12.18,17.18,12.438a35.91,35.91,0,0,1-2.767,3.753c-.262.281-1.418.083-1.907-.26-4.678-3.291-9.3-6.661-13.941-10.007C227.126,150.726,226.588,150.362,225.811,149.82Z" transform="translate(-0.218 -1.273)"/><path class="cls-1" d="M82.087,362.021c1.55-.161,3.29-.707,4.893-.436,4.123.7,6.6,5.546,4.995,9.425a15.73,15.73,0,0,1-1.677,2.938c-2.179,3.125-4.445,6.19-6.6,9.329-.724,1.052-1.308,1.291-2.422.475q-9.009-6.595-18.107-13.067c-1.069-.762-1.21-1.357-.389-2.427,2.537-3.3,4.856-6.783,7.5-10,2.8-3.406,7.483-3.584,9.922-.438A18.89,18.89,0,0,1,82.087,362.021Zm.287,15.532c1.553-2.258,3.01-4.212,4.28-6.281a2.859,2.859,0,0,0-.733-3.984c-1.265-1-2.794-1.269-3.9-.107-1.856,1.943-3.429,4.157-5.215,6.372Zm-9.023-6.473c1.423-2.074,2.749-3.832,3.877-5.71a2.607,2.607,0,0,0-.677-3.67,2.358,2.358,0,0,0-3.523.188c-1.523,1.8-2.876,3.739-4.4,5.755Z" transform="translate(-0.218 -1.273)"/><path class="cls-1" d="M148.634,381.124a35.428,35.428,0,0,1-2.477,3.385,1.694,1.694,0,0,1-1.627.046c-6.265-4.443-12.479-8.958-18.721-13.434-.846-.606-.818-1.184-.226-1.924a17.407,17.407,0,0,0,1.349-1.888,2.551,2.551,0,0,1,2.708-1.246c5.158.427,10.322.793,15.484,1.175.386.029.775,0,1.614,0-.771-.62-1.194-.992-1.648-1.321-3.278-2.377-6.538-4.78-9.859-7.095-1.051-.733-1.286-1.287-.453-2.4,2.647-3.541,1.968-2.968,4.913-.87,5.527,3.937,11.015,7.93,16.516,11.9.43.31.838.651,1.476,1.148a44.706,44.706,0,0,1-2.959,3.967,2.81,2.81,0,0,1-1.974.393c-4.813-.3-9.621-.671-14.432-1.007a3.575,3.575,0,0,0-1.858.322Z" transform="translate(-0.218 -1.273)"/><path class="cls-1" d="M222.715,278.474c-.871,1.212-1.624,2.27-2.388,3.319s-1.439.378-2.114-.109q-7.9-5.693-15.789-11.394c-.821-.592-1.622-1.215-2.472-1.762-.926-.6-.984-1.245-.283-2.042a3.267,3.267,0,0,0,.518-.725c1.03-2.167,2.713-2.521,4.986-2.272a149.238,149.238,0,0,0,15.294.847c-.41-.338-.8-.7-1.231-1.011-3.326-2.412-6.63-4.856-10.006-7.2-1.119-.776-1.149-1.364-.366-2.417,2.606-3.5,1.933-2.918,4.924-.789,5.528,3.936,11.016,7.928,16.516,11.9.427.308.825.657,1.41,1.126a37.558,37.558,0,0,1-2.859,3.869,3.006,3.006,0,0,1-2.116.47c-4.754-.289-9.5-.659-14.254-.989a4.255,4.255,0,0,0-1.987.312Z" transform="translate(-0.218 -1.273)"/><path class="cls-1" d="M292.767,93.185c-1.043,1.436-2.022,2.926-3.169,4.273A2.506,2.506,0,0,1,287.85,98c-2.677-.022-5.354-.117-8.029-.23-2.462-.1-4.46.583-5.655,3.291,2.1,1.512,4.245,3.069,6.4,4.615,2.111,1.514,2.114,1.509.585,3.631-.313.435-.646.857-.932,1.309-.509.8-1.062,1-1.9.388-6.215-4.509-12.46-8.978-18.645-13.526a1.773,1.773,0,0,1-.4-1.669c2.749-3.809,5.422-7.7,8.476-11.254,2.724-3.174,6.921-3.091,9.985-.255a6.319,6.319,0,0,1,1.924,6.653c-.147.569-.319,1.132-.464,1.641h13.365Zm-22.118,5.331c1.476-2.188,2.852-4.053,4.031-6.035a2.83,2.83,0,0,0-1.008-4.036,2.746,2.746,0,0,0-3.964.575c-1.448,1.793-2.763,3.695-4.257,5.715Z" transform="translate(-0.218 -1.273)"/><path class="cls-1" d="M268.09,197.629l8.46,6.165a43.368,43.368,0,0,1-2.626,3.6,1.649,1.649,0,0,1-1.591.2q-9.47-6.711-18.827-13.581a1.642,1.642,0,0,1-.363-1.55c2.753-3.807,5.419-7.7,8.469-11.261,2.779-3.245,7.032-3.157,10.113-.233a6.323,6.323,0,0,1,1.821,6.682c-.151.558-.3,1.117-.4,1.521h13.3l.334.5c-1.185,1.575-2.326,3.188-3.595,4.692-.252.3-1,.257-1.515.246q-4.016-.086-8.029-.246C271.164,194.254,269.227,195.032,268.09,197.629Zm-3.52-2.535c1.456-2.172,2.9-4.125,4.115-6.21a2.764,2.764,0,0,0-1.115-3.863,2.664,2.664,0,0,0-3.836.47c-1.491,1.831-2.843,3.774-4.376,5.833Z" transform="translate(-0.218 -1.273)"/><path class="cls-1" d="M259.059,103.445c7.042-.03,14.353,6.7,14.421,13.275.069,6.709-6.232,13.26-12.656,13.3-5.327.037-14.484-5.786-14.392-13.629C246.508,109.921,252.7,103.472,259.059,103.445Zm-7.69,12.018a17.688,17.688,0,0,0,1.335,3.417,12.672,12.672,0,0,0,7.312,5.365,6.2,6.2,0,0,0,6.957-2.335,6.431,6.431,0,0,0,.194-7.522,12.88,12.88,0,0,0-7.357-5.33A6.815,6.815,0,0,0,251.369,115.463Z" transform="translate(-0.218 -1.273)"/><path class="cls-1" d="M146.34,348.035l4.454,3.233,5.412-7.483c2.326-3.216,2.327-3.216,5.572-.173l-7.334,10.267,5.495,3.992c2.277-3.156,4.411-6.159,6.6-9.126,2.036-2.765,1.517-2.616,4.273-.621.282.2.539.444.927.767-.325.534-.594,1.048-.929,1.514-3.162,4.4-6.371,8.772-9.483,13.21-.83,1.183-1.477,1.192-2.583.382q-8.866-6.5-17.825-12.864c-1.209-.857-1.324-1.488-.43-2.684,3-4.008,5.877-8.1,8.809-12.155,1.487-2.057,1.5-2.054,3.54-.545.425.313.836.646,1.5,1.157Z" transform="translate(-0.218 -1.273)"/><path class="cls-1" d="M157.923,243.881l-8.006,11.147,4.418,3.214,7.5-10.188c3.905,2.1,3.9,2.1,1.568,5.329-1.742,2.408-3.476,4.822-5.383,7.469l5.473,3.994,8.4-11.492,3.464,2.445c-.344.579-.6,1.094-.934,1.557-3.161,4.4-6.366,8.776-9.482,13.211-.8,1.136-1.418,1.3-2.573.456q-8.933-6.555-17.968-12.971c-1.2-.85-1.161-1.472-.351-2.564,3.015-4.067,5.941-8.2,8.909-12.3,1.412-1.952,1.42-1.947,3.423-.472C156.8,243.026,157.217,243.349,157.923,243.881Z" transform="translate(-0.218 -1.273)"/><path class="cls-1" d="M245.782,209.976l4.474,3.2c1.884-2.608,3.653-5.058,5.425-7.507,2.335-3.227,2.4-3.23,5.534-.089-1.52,2.116-3.062,4.282-4.626,6.433-2.761,3.8-2.768,3.8.98,6.494.526.379,1.072.731,1.829,1.245,1.227-1.692,2.4-3.307,3.572-4.924,1.224-1.688,2.5-3.339,3.65-5.078.8-1.214,1.56-1.483,2.679-.428a21.9,21.9,0,0,0,1.941,1.458c-.424.663-.744,1.219-1.116,1.737-3.094,4.3-6.232,8.578-9.276,12.919-.84,1.2-1.492,1.352-2.7.462-5.855-4.306-11.736-8.578-17.685-12.752-1.423-1-1.337-1.7-.395-2.956,2.963-3.957,5.807-8,8.7-12.01,1.455-2.012,1.464-2.009,3.4-.581.472.348.931.714,1.591,1.222Z" transform="translate(-0.218 -1.273)"/><path class="cls-1" d="M192.665,200.8a41.373,41.373,0,0,1-2.424,3.666,2.12,2.12,0,0,1-1.694.426,5.2,5.2,0,0,0-5.624,5.21,1.935,1.935,0,0,0,3.022,1.547,22.04,22.04,0,0,0,2.92-2.04c1.577-1.172,3.059-2.489,4.718-3.526a7.067,7.067,0,0,1,8.636.52,7.423,7.423,0,0,1,2.522,8.179,15.869,15.869,0,0,1-5.944,8.283c-2.7,1.958-5.639,1.989-8.66.7-.982-.418-1.315-.946-.668-1.9a9.143,9.143,0,0,0,.8-1.393c.639-1.436,1.428-1.988,3.19-1.493,3.311.93,6.851-2.542,6.351-5.971a2.582,2.582,0,0,0-4.122-1.953c-1.4.888-2.605,2.082-3.961,3.049a27.987,27.987,0,0,1-4.341,2.784,6.7,6.7,0,0,1-9.22-7.5,13.763,13.763,0,0,1,6.961-9.3A6.743,6.743,0,0,1,192.665,200.8Z" transform="translate(-0.218 -1.273)"/><path class="cls-1" d="M179.146,219.659a42.394,42.394,0,0,1-2.443,3.706,2.1,2.1,0,0,1-1.67.5,5.177,5.177,0,0,0-5.705,5.11,1.926,1.926,0,0,0,2.951,1.667,18.376,18.376,0,0,0,2.789-1.914c1.623-1.209,3.147-2.569,4.85-3.649a7.046,7.046,0,0,1,8.642.429,7.442,7.442,0,0,1,2.565,8.322,15.976,15.976,0,0,1-5.853,8.142c-2.757,2.019-5.741,2.052-8.815.708-.9-.4-1.2-.9-.62-1.786a15.908,15.908,0,0,0,1.075-1.855c.572-1.211,1.28-1.542,2.7-1.137,3.335.953,6.776-2,6.642-5.5-.094-2.463-2.172-3.67-4.237-2.344-1.4.9-2.595,2.1-3.952,3.063a26.135,26.135,0,0,1-4.355,2.759,6.239,6.239,0,0,1-7-1.158,6.363,6.363,0,0,1-2.079-6.645,13.934,13.934,0,0,1,6.525-8.824C173.717,217.708,176.371,217.906,179.146,219.659Z" transform="translate(-0.218 -1.273)"/><path class="cls-1" d="M230.316,236.444a36.324,36.324,0,0,1-2.453,3.717,2.309,2.309,0,0,1-1.833.481c-2.757-.42-5.853,2.493-5.542,5.315a1.925,1.925,0,0,0,2.932,1.511,18.716,18.716,0,0,0,2.791-1.911c1.673-1.241,3.243-2.642,5-3.74a7.023,7.023,0,0,1,8.488.5,7.411,7.411,0,0,1,2.623,8.143,15.831,15.831,0,0,1-5.888,8.32c-2.749,2.03-5.736,2.066-8.812.723-.89-.388-1.225-.879-.641-1.778a16.411,16.411,0,0,0,1.075-1.855,1.91,1.91,0,0,1,2.689-1.154,5.3,5.3,0,0,0,6.594-5.3,3.6,3.6,0,0,0-1.364-2.64,3.538,3.538,0,0,0-2.932.222,41,41,0,0,0-3.818,2.931,26.534,26.534,0,0,1-4.187,2.7,6.286,6.286,0,0,1-7.17-1.079,6.4,6.4,0,0,1-2.054-6.813,14.025,14.025,0,0,1,6.474-8.659C224.863,234.518,227.509,234.749,230.316,236.444Z" transform="translate(-0.218 -1.273)"/><path class="cls-1" d="M106.252,307.972c3.7,2.667,7.125,5.142,10.557,7.607,1.016.73,2.031,1.465,3.081,2.144,2.817,1.822,5.183,1.268,6.936-1.592,1.348-2.2,1.154-4.078-.924-5.67-3.926-3.007-7.981-5.847-11.938-8.815-.689-.517-1.779-1.645-1.625-1.945a19.16,19.16,0,0,1,2.748-3.673c.108-.124.874.181,1.226.437,4.387,3.186,8.835,6.3,13.1,9.637,4.083,3.193,4.62,7.055,1.926,11.51-.185.306-.382.605-.584.9-4.087,5.947-8.484,8.091-15.436,2.919-3.634-2.7-7.329-5.328-11.04-7.926-1.067-.747-1.3-1.4-.4-2.43C104.692,310.145,105.388,309.115,106.252,307.972Z" transform="translate(-0.218 -1.273)"/><path class="cls-1" d="M155.98,326.943c3.416,2.458,6.644,4.792,9.884,7.108,1.405,1,2.791,2.047,4.265,2.944,2.359,1.435,4.5.867,6.16-1.513s1.524-4.388-.715-6.1q-6.032-4.62-12.267-8.97c-1.368-.959-1.664-1.658-.566-3.077,2.5-3.225,1.829-2.975,4.8-.827,3.865,2.79,7.767,5.538,11.512,8.483,4.168,3.277,4.73,7.124,1.977,11.643q-.139.229-.289.452c-4.2,6.283-8.634,8.633-15.9,3.171-3.573-2.686-7.234-5.256-10.889-7.83-.978-.689-1.262-1.3-.416-2.3S155.114,328.081,155.98,326.943Z" transform="translate(-0.218 -1.273)"/><path class="cls-1" d="M187.456,283.29c3.7,2.669,7.128,5.144,10.56,7.609,1.016.73,2.031,1.465,3.081,2.144,2.815,1.821,5.183,1.264,6.935-1.6,1.346-2.2,1.151-4.075-.93-5.669-3.927-3.007-7.981-5.846-11.938-8.815-.688-.517-1.775-1.646-1.62-1.946a19.991,19.991,0,0,1,2.745-3.676c.1-.117.781.122,1.085.343,4.435,3.222,8.932,6.367,13.249,9.741,4.082,3.19,4.616,7.056,1.921,11.511-.185.306-.382.6-.584.9-4.089,5.948-8.486,8.085-15.437,2.913-3.634-2.7-7.329-5.328-11.04-7.926-1.071-.75-1.288-1.4-.4-2.431C185.9,285.459,186.594,284.429,187.456,283.29Z" transform="translate(-0.218 -1.273)"/><path class="cls-1" d="M287.453,144.976a47.129,47.129,0,0,1,3.079-4.118,2.282,2.282,0,0,1,1.9-.221c4.91,1.424,9.8,2.932,14.69,4.407.546.165,1.107.282,2.156.545-.988-1.391-1.689-2.394-2.405-3.385-2.58-3.57-5.123-7.168-7.775-10.683a1.921,1.921,0,0,1,.035-2.808c.834-.981,1.565-2.049,2.464-3.242.515.66.9,1.1,1.222,1.572,4.421,6.42,8.806,12.864,13.276,19.249a2.147,2.147,0,0,1-.047,2.977c-3.044,4.032-1.766,3.482-6.416,2.177-6.418-1.8-12.812-3.686-19.215-5.542C289.573,145.661,288.738,145.38,287.453,144.976Z" transform="translate(-0.218 -1.273)"/><path class="cls-1" d="M280.127,74.722l4.763,3.44c1.467-2.014,2.863-3.921,4.249-5.835,2.268-3.133,2.517-3.142,5.468,0l-6.033,8.461c2.014,1.47,3.958,2.893,5.907,4.309,2.876,2.088,2.817,2.045.773,5.036-.888,1.3-1.55,1.392-2.822.454q-8.772-6.474-17.681-12.762c-1.172-.831-1.405-1.443-.479-2.674,2.863-3.809,5.673-7.663,8.359-11.6,1.21-1.773,2.037-.724,3.146-.019,1.189.756,1.507,1.4.545,2.654C284.224,68.916,282.267,71.754,280.127,74.722Z" transform="translate(-0.218 -1.273)"/><path class="cls-1" d="M296.609,162.822l-7.134,9.946c1.645,1.358,3.359,1.605,4.678.67a3.019,3.019,0,0,0,1.091-4.077,1.906,1.906,0,0,1,.29-1.547c.752-1.066,1.648-2.031,2.69-3.279,1.915,2.531,2.248,4.761,1.551,7.155-1.326,4.556-5.629,7.671-9.711,7.1-4.957-.693-9.546-5.332-9.709-9.815-.207-5.716,5.827-10.374,11.252-8.576A42.626,42.626,0,0,1,296.609,162.822Zm-9.719,8.114,3.762-5.221c-1.883-1.543-3.883-1.5-5.062-.063C284.315,167.212,284.728,169.26,286.89,170.936Z" transform="translate(-0.218 -1.273)"/><path class="cls-1" d="M253.972,234.4a4.6,4.6,0,0,1-.233.709c-2.485,4.278-2.483,4.273-6.443,1.405s-7.918-5.721-11.882-8.576c-.521-.375-1.066-.718-1.752-1.178-1.234,1.681-2.445,3.214-3.526,4.835-1.151,1.726-1.979.35-2.893-.206-.983-.6-1.714-1.156-.719-2.494q5.173-6.952,10.149-14.05c.881-1.253,1.624-1.325,2.692-.343.56.515,1.219.922,1.963,1.474L237,222.129Z" transform="translate(-0.218 -1.273)"/><path class="cls-1" d="M237.224,169.753a2,2,0,0,1-.032.416c-2.464,4.664-2.507,4.679-6.721,1.646-5.226-3.761-10.423-7.563-15.683-11.276-1.166-.823-1.228-1.435-.394-2.558,2.278-3.067,2.224-3.093,5.289-.878Q228.446,163.436,237.224,169.753Z" transform="translate(-0.218 -1.273)"/><path class="cls-1" d="M180.449,248.586c-2.683,4.924-2.687,4.929-6.935,1.871-5.177-3.727-10.323-7.5-15.538-11.171-1.233-.868-1.3-1.507-.4-2.686,2.646-3.473,1.8-3.249,5.161-.842q8.141,5.829,16.245,11.709C179.457,247.811,179.916,248.179,180.449,248.586Z" transform="translate(-0.218 -1.273)"/><path class="cls-1" d="M138.427,295.8c-1.825,2.526-3.532,4.944-5.325,7.3a1.417,1.417,0,0,1-1.325.205c-3.264-1.589-3.4-2.153-1.345-5,1.042-1.448,2.1-2.882,3.129-4.34.6-.844,1.2-1.02,2.046-.3S137.379,295.014,138.427,295.8Z" transform="translate(-0.218 -1.273)"/><path class="cls-1" d="M324.284,137.488c-.522.769-.813,1.212-1.119,1.644-2.046,2.89-2.619,2.943-5.165.368-.263-.266-.493-.93-.347-1.174a21.756,21.756,0,0,1,2.181-3.018,1.271,1.271,0,0,1,1.216-.114C322.14,135.865,323.151,136.667,324.284,137.488Z" transform="translate(-0.218 -1.273)"/><path class="cls-1" d="M307.442,160.721c-.447.683-.754,1.185-1.093,1.664-2.043,2.893-2.621,2.945-5.165.365-.263-.266-.489-.93-.342-1.175a19.694,19.694,0,0,1,2.188-3.011,1.46,1.46,0,0,1,1.357-.012C305.4,159.148,306.312,159.9,307.442,160.721Z" transform="translate(-0.218 -1.273)"/><path class="cls-1" d="M189.178,271.042l3.7,2.753c-1.179,1.173-2.073,2.531-3.324,3.084-.516.229-2.654-1.419-2.56-1.948C187.231,273.613,188.322,272.448,189.178,271.042Z" transform="translate(-0.218 -1.273)"/><path class="cls-1" d="M184.874,276.808c1.307,1.413,2.832,2.332,2.874,3.314a3.752,3.752,0,0,1-2.266,2.832c-.761.214-2.86-1.261-2.81-1.855C182.78,279.8,183.879,278.593,184.874,276.808Z" transform="translate(-0.218 -1.273)"/><path class="cls-1" d="M308.113,287.348a2.783,2.783,0,0,1-2.841,2.624c-1.923-.091-4.151-2.161-4.12-3.827a2.651,2.651,0,0,1,3.041-2.529C306.157,283.732,308.176,285.654,308.113,287.348Z" transform="translate(-0.218 -1.273)"/><path class="cls-1" d="M273.483,336.228c2.035-.022,4.86,2.383,4.932,4.2a2.765,2.765,0,0,1-2.735,2.708c-2.126.046-4.841-2.283-4.869-4.178A2.651,2.651,0,0,1,273.483,336.228Z" transform="translate(-0.218 -1.273)"/></svg>