<?xml version="1.0" encoding="UTF-8" standalone="no"?>
<!-- Created with Inkscape (http://www.inkscape.org/) -->

<svg
   xmlns:dc="http://purl.org/dc/elements/1.1/"
   xmlns:cc="http://creativecommons.org/ns#"
   xmlns:rdf="http://www.w3.org/1999/02/22-rdf-syntax-ns#"
   xmlns:svg="http://www.w3.org/2000/svg"
   xmlns="http://www.w3.org/2000/svg"
   xmlns:sodipodi="http://sodipodi.sourceforge.net/DTD/sodipodi-0.dtd"
   xmlns:inkscape="http://www.inkscape.org/namespaces/inkscape"
   width="16.809391mm"
   height="18.621262mm"
   viewBox="0 0 16.809391 18.621262"
   version="1.1"
   id="svg851"
   inkscape:version="0.92.5 (2060ec1f9f, 2020-04-08)"
   sodipodi:docname="Ball_DM_Cloppenburg_ohne_Hintergund.svg">
  <defs
     id="defs845">
    <linearGradient
       id="Unbenannter_Verlauf"
       data-name="Unbenannter Verlauf"
       x1="48.799999"
       y1="66"
       x2="110.7"
       y2="82.599998"
       gradientTransform="matrix(0.26443707,-0.00879641,-0.00879641,-0.26443707,18.639616,165.5601)"
       gradientUnits="userSpaceOnUse">
      <stop
         offset="0"
         stop-color="#fff"
         id="stop4" />
      <stop
         offset=".1"
         stop-color="#f2e500"
         id="stop6" />
      <stop
         offset=".2"
         stop-color="#f18826"
         id="stop8" />
      <stop
         offset=".3"
         stop-color="#e44893"
         id="stop10" />
      <stop
         offset=".4"
         stop-color="#f18826"
         id="stop12" />
      <stop
         offset=".6"
         stop-color="#f2e500"
         id="stop14" />
      <stop
         offset=".7"
         stop-color="#8fbe22"
         id="stop16" />
      <stop
         offset=".8"
         stop-color="#1ab099"
         id="stop18" />
      <stop
         offset=".9"
         stop-color="#009cd4"
         id="stop20" />
    </linearGradient>
    <linearGradient
       id="Unbenannter_Verlauf-3"
       data-name="Unbenannter Verlauf"
       x1="48.799999"
       y1="66"
       x2="110.7"
       y2="82.599998"
       gradientTransform="matrix(0.26443707,-0.00879641,-0.00879641,-0.26443707,47.2887,193.46294)"
       gradientUnits="userSpaceOnUse">
      <stop
         offset="0"
         stop-color="#fff"
         id="stop4-6" />
      <stop
         offset=".1"
         stop-color="#f2e500"
         id="stop6-7" />
      <stop
         offset=".2"
         stop-color="#f18826"
         id="stop8-5" />
      <stop
         offset=".3"
         stop-color="#e44893"
         id="stop10-3" />
      <stop
         offset=".4"
         stop-color="#f18826"
         id="stop12-5" />
      <stop
         offset=".6"
         stop-color="#f2e500"
         id="stop14-6" />
      <stop
         offset=".7"
         stop-color="#8fbe22"
         id="stop16-2" />
      <stop
         offset=".8"
         stop-color="#1ab099"
         id="stop18-9" />
      <stop
         offset=".9"
         stop-color="#009cd4"
         id="stop20-1" />
    </linearGradient>
    <linearGradient
       id="Unbenannter_Verlauf-7"
       data-name="Unbenannter Verlauf"
       x1="48.799999"
       y1="66"
       x2="110.7"
       y2="82.599998"
       gradientTransform="matrix(0.26443707,-0.00879641,-0.00879641,-0.26443707,15.10393,165.96413)"
       gradientUnits="userSpaceOnUse">
      <stop
         offset="0"
         stop-color="#fff"
         id="stop4-0" />
      <stop
         offset=".1"
         stop-color="#f2e500"
         id="stop6-9" />
      <stop
         offset=".2"
         stop-color="#f18826"
         id="stop8-3" />
      <stop
         offset=".3"
         stop-color="#e44893"
         id="stop10-6" />
      <stop
         offset=".4"
         stop-color="#f18826"
         id="stop12-0" />
      <stop
         offset=".6"
         stop-color="#f2e500"
         id="stop14-62" />
      <stop
         offset=".7"
         stop-color="#8fbe22"
         id="stop16-6" />
      <stop
         offset=".8"
         stop-color="#1ab099"
         id="stop18-1" />
      <stop
         offset=".9"
         stop-color="#009cd4"
         id="stop20-8" />
    </linearGradient>
  </defs>
  <sodipodi:namedview
     id="base"
     pagecolor="#ffffff"
     bordercolor="#666666"
     borderopacity="1.0"
     inkscape:pageopacity="0.0"
     inkscape:pageshadow="2"
     inkscape:zoom="5.1579885"
     inkscape:cx="108.29118"
     inkscape:cy="0.1654699"
     inkscape:document-units="mm"
     inkscape:current-layer="layer1"
     showgrid="false"
     inkscape:window-width="2560"
     inkscape:window-height="2096"
     inkscape:window-x="2560"
     inkscape:window-y="27"
     inkscape:window-maximized="0"
     inkscape:pagecheckerboard="true"
     fit-margin-top="0"
     fit-margin-left="0"
     fit-margin-right="0"
     fit-margin-bottom="0" />
  <metadata
     id="metadata848">
    <rdf:RDF>
      <cc:Work
         rdf:about="">
        <dc:format>image/svg+xml</dc:format>
        <dc:type
           rdf:resource="http://purl.org/dc/dcmitype/StillImage" />
        <dc:title></dc:title>
      </cc:Work>
    </rdf:RDF>
  </metadata>
  <g
     inkscape:label="Ebene 1"
     inkscape:groupmode="layer"
     id="layer1"
     style="display:inline"
     transform="translate(-29.400335,-136.7769)">
    <path
       class="st1"
       d="m 36.304013,137.1711 c 0.242392,0.1243 0.46719,-0.28027 0.728988,-0.3684 0.339371,-0.14365 0.726296,0.34646 0.894634,0.63207 0.05729,0.13046 0.168338,0.2856 0.302316,0.33409 0.07933,-0.003 0.185106,-0.006 0.264437,-0.009 0.33937,-0.14365 0.883252,-0.50589 1.33538,0.35268 0.08549,0.18246 0.430082,0.99166 0.620466,1.14417 0.108414,0.0758 0.580882,-0.0458 0.711341,-0.10308 0.260919,-0.11458 0.55004,-0.17714 0.743063,0.0547 0.575549,0.58973 0.657465,1.46061 0.820525,1.58755 0.189505,0.12606 0.479506,0.0899 0.662852,0.0309 0.236234,-0.0608 0.499792,-0.096 0.717499,0.082 0.463617,0.40815 0.09511,1.26754 0.63454,1.56727 0.107534,0.0494 0.500671,-0.0696 0.661093,-0.022 0.427497,0.11815 0.237059,0.75983 0.272299,1.02339 0.01495,0.44955 0.464497,0.43459 0.524421,0.64438 0.117211,0.34025 -0.668238,1.39882 -0.867473,1.77607 -0.223919,0.43102 -1.004915,0.82762 -2.356238,1.58734 -0.676101,0.36664 -1.272871,0.73064 -2.705284,1.44011 -1.093922,0.53938 -4.109548,2.99579 -4.31406,3.21437 -0.204513,0.21859 -0.840096,1.00745 -1.017285,1.2516 -0.201874,0.29792 -0.658508,0.89551 -0.811013,1.0859 -0.153385,0.16394 -0.486597,0.4927 -0.747516,0.60727 -0.260918,0.11457 -0.547401,0.25646 -0.837402,0.29258 -0.21155,0.007 -0.423099,0.0141 -0.634649,0.0211 -0.213309,-0.0459 -0.400174,-0.0926 -0.587919,-0.16575 -0.05289,0.002 -0.107534,-0.0494 -0.187745,-0.0732 -0.05377,-0.0247 -0.133978,-0.0485 -0.162181,-0.1005 -0.05377,-0.0247 -0.108413,-0.0758 -0.16218,-0.10049 -0.05377,-0.0247 -0.108414,-0.0758 -0.163061,-0.12694 0,0 -0.02732,-0.0256 -0.05465,-0.0511 -0.08109,-0.0502 -0.162181,-0.1005 -0.217707,-0.17807 0,0 -0.0282,-0.052 -0.05465,-0.0511 -0.02644,8.7e-4 -0.05377,-0.0247 -0.08109,-0.0503 0,0 -0.0282,-0.052 -0.05465,-0.0511 -0.0282,-0.052 -0.05553,-0.0776 -0.110173,-0.1287 -0.02732,-0.0256 -0.05553,-0.0776 -0.08373,-0.12958 -0.02996,-0.1049 -0.05992,-0.20979 -0.06256,-0.28913 -8.78e-4,-0.0264 -0.0018,-0.0529 -0.02908,-0.0785 -8.79e-4,-0.0264 -0.0026,-0.0793 -0.05641,-0.10401 -0.0026,-0.0793 -0.05729,-0.13046 -0.05992,-0.20979 -0.0035,-0.10578 -0.03348,-0.21067 -0.06344,-0.31557 -0.007,-0.21155 -0.01407,-0.4231 -0.02111,-0.63465 -0.007,-0.21155 0.06614,-0.39929 0.112866,-0.58616 0.09346,-0.37373 0.267131,-0.72365 0.468125,-1.04801 0.07581,-0.10842 0.126061,-0.18951 0.201873,-0.29792 0.02468,-0.0538 0.07581,-0.10841 0.100497,-0.16218 0.02468,-0.0538 0.05025,-0.0811 0.07493,-0.13486 0.528049,-0.83822 0.74933,-1.34857 0.919482,-1.80427 0.364109,-0.99161 1.035041,-3.1053 1.106455,-3.34593 0.09522,-0.32084 0.260973,-0.90876 0.506992,-2.26707 0.202808,-1.06566 0.459437,-2.90083 0.692207,-3.8616 0.18604,-0.77391 0.430246,-1.39091 0.606555,-1.6615 0.100497,-0.16218 0.434589,-0.4645 0.576484,-0.17802 8.73e-4,0.0264 0.03084,0.13134 0.111932,0.18159 0.133978,0.0485 0.322657,-0.64608 0.615297,-0.60287 0.186865,0.0467 0.408091,0.33057 0.570272,0.43107 v 0 z"
       id="path27"
       inkscape:connector-curvature="0"
       style="fill:#ffffff;stroke-width:0.26458332" />
  </g>
</svg>
