<?xml version="1.0" encoding="UTF-8" standalone="no"?>
<!-- Created with Inkscape (http://www.inkscape.org/) -->

<svg
   xmlns:dc="http://purl.org/dc/elements/1.1/"
   xmlns:cc="http://creativecommons.org/ns#"
   xmlns:rdf="http://www.w3.org/1999/02/22-rdf-syntax-ns#"
   xmlns:svg="http://www.w3.org/2000/svg"
   xmlns="http://www.w3.org/2000/svg"
   xmlns:sodipodi="http://sodipodi.sourceforge.net/DTD/sodipodi-0.dtd"
   xmlns:inkscape="http://www.inkscape.org/namespaces/inkscape"
   width="16.307873mm"
   height="18.019487mm"
   viewBox="0 0 16.307873 18.019487"
   version="1.1"
   id="svg851"
   inkscape:version="0.92.5 (2060ec1f9f, 2020-04-08)"
   sodipodi:docname="Ball_DM_Cloppenburg_schwarz.svg">
  <defs
     id="defs845">
    <linearGradient
       id="Unbenannter_Verlauf"
       data-name="Unbenannter Verlauf"
       x1="48.799999"
       y1="66"
       x2="110.7"
       y2="82.599998"
       gradientTransform="matrix(1,0,0,-1,0,141.7)"
       gradientUnits="userSpaceOnUse">
      <stop
         offset="0"
         stop-color="#fff"
         id="stop4" />
      <stop
         offset=".1"
         stop-color="#f2e500"
         id="stop6" />
      <stop
         offset=".2"
         stop-color="#f18826"
         id="stop8" />
      <stop
         offset=".3"
         stop-color="#e44893"
         id="stop10" />
      <stop
         offset=".4"
         stop-color="#f18826"
         id="stop12" />
      <stop
         offset=".6"
         stop-color="#f2e500"
         id="stop14" />
      <stop
         offset=".7"
         stop-color="#8fbe22"
         id="stop16" />
      <stop
         offset=".8"
         stop-color="#1ab099"
         id="stop18" />
      <stop
         offset=".9"
         stop-color="#009cd4"
         id="stop20" />
    </linearGradient>
  </defs>
  <sodipodi:namedview
     id="base"
     pagecolor="#ffffff"
     bordercolor="#666666"
     borderopacity="1.0"
     inkscape:pageopacity="0.0"
     inkscape:pageshadow="2"
     inkscape:zoom="14.205483"
     inkscape:cx="-27.054012"
     inkscape:cy="56.501151"
     inkscape:document-units="mm"
     inkscape:current-layer="layer2"
     showgrid="false"
     fit-margin-top="0"
     fit-margin-left="0"
     fit-margin-right="0"
     fit-margin-bottom="0"
     inkscape:window-width="5120"
     inkscape:window-height="2096"
     inkscape:window-x="0"
     inkscape:window-y="27"
     inkscape:window-maximized="1" />
  <metadata
     id="metadata848">
    <rdf:RDF>
      <cc:Work
         rdf:about="">
        <dc:format>image/svg+xml</dc:format>
        <dc:type
           rdf:resource="http://purl.org/dc/dcmitype/StillImage" />
        <dc:title />
      </cc:Work>
    </rdf:RDF>
  </metadata>
  <g
     inkscape:label="Ebene 1"
     inkscape:groupmode="layer"
     id="layer1"
     transform="translate(-105.18872,-134.47552)"
     style="display:none"
     sodipodi:insensitive="true">
    <path
       inkscape:connector-curvature="0"
       id="Ball_farbig"
       class="st0"
       d="m 110.38409,150.32435 c -0.13229,-0.10583 -3.4925,-2.7252 -3.57187,-2.80458 -0.0529,-0.0529 -0.21167,-0.0794 -0.29105,0 -0.26458,0.26458 -0.635,0.74083 -0.71437,0.82021 -0.15875,0.21167 -0.29104,0.42333 -0.39688,0.635 -0.0529,0.10583 -0.0794,0.21167 -0.10583,0.3175 -0.10583,0.34396 -0.13229,0.66146 -0.10583,0.97896 0.0265,0.3175 0.13229,0.635 0.29104,0.89958 0.15875,0.29104 0.39687,0.55563 0.66146,0.76729 0.29104,0.23813 0.60854,0.39688 0.92604,0.47625 0.3175,0.0794 0.635,0.10584 0.9525,0.0529 0.3175,-0.0529 0.635,-0.15875 0.92604,-0.34396 0.29104,-0.18521 0.55563,-0.42333 0.79375,-0.71437 0.0529,-0.0794 0.13229,-0.15875 0.18521,-0.23813 0.0529,-0.0529 0.10583,-0.13229 0.15875,-0.21166 0.0529,-0.0794 0.26458,-0.34396 0.3175,-0.42334 0.0265,-0.0529 0.0265,-0.18521 -0.0529,-0.26458 v 0 z m -3.94229,-1.16416 c -0.0794,0.29104 -0.13229,0.60854 -0.13229,0.89958 0,0.21167 0.0529,0.74083 0.0529,0.82021 0.0264,0.15875 0.0529,0.3175 -0.0265,0.37042 -0.0529,0.0529 -0.13229,0 -0.21167,-0.0529 -0.44979,-0.42334 -0.52917,-1.13771 -0.34396,-1.7198 0.10584,-0.34395 0.34396,-0.9525 0.66146,-1.00541 0.26458,-0.0529 0.0529,0.52916 0,0.66146 v 0 z m 3.88937,-12.7 c 0.0529,-0.23813 0.60855,-1.7198 0.58209,-1.42875 -0.13229,1.34937 -1.61396,6.40291 -1.61396,6.32354 0,-0.13229 0.97896,-4.63021 1.03187,-4.86834 z m 0.66146,4.33916 c -0.18521,0.52917 -0.52916,1.32292 -0.47625,1.32292 0.0529,0 0.60854,-0.39688 1.32292,-1.29646 0.60854,-0.76729 2.01083,-4.41854 1.95792,-4.81542 -0.0265,-0.29104 -0.39688,-1.05833 -0.50271,-1.16416 0,0 -2.11667,5.42396 -2.30188,5.95312 z m 0.58209,1.87854 c 1.11125,-0.3175 2.64583,-1.69333 3.57187,-3.46604 0.42334,-0.76729 0.79375,-1.53458 0.79375,-1.74625 0.0265,-0.42333 -0.68791,-1.905 -0.74083,-1.77271 0,0.0529 -3.73063,7.01146 -3.65125,6.985 z m 1.34937,0.89959 c 0.50271,0 2.09021,-0.89959 2.35479,-1.11125 1.00542,-0.82021 2.38125,-2.30188 2.6723,-2.69875 0.10583,-0.15875 0.23812,-0.52917 0.23812,-0.60854 0,-0.4498 -0.39687,-1.48167 -0.635,-1.905 0,0 -4.78896,6.32354 -4.63021,6.32354 z m -3.25437,-1.82563 c 0.0264,-0.0529 0.60854,-1.03187 1.05833,-2.24896 0.635,-1.71979 1.29646,-3.83645 1.29646,-4.02166 0.0265,-0.3175 -0.0529,-0.9525 -0.10584,-1.00542 -0.0529,-0.0529 -2.27541,7.27604 -2.27541,7.27604 v 0 z m 11.53583,0.39688 c -0.0265,0.10583 -0.0529,0.18521 -0.10583,0.26458 -0.18521,0.3175 -1.74625,1.40229 -1.905,1.50813 -0.82021,0.55562 -1.87854,1.24354 -2.30188,1.29646 -0.0529,0 -0.15875,0.0265 -0.23812,0.0529 -0.44979,0.3175 -0.74084,0.52916 -0.71438,0.52916 0.0794,0.0265 0.84667,-0.21166 1.40229,-0.44979 0.52917,-0.23812 3.20146,-1.905 3.36021,-2.09021 0.15875,-0.18521 0.68792,-1.16416 0.79375,-1.32291 0,0 -0.0794,0.0529 -0.23812,0.15875 v 0 z m -0.18521,-1.45521 c 0,0 -0.79375,0.635 -1.77271,1.42875 -0.23812,0.21167 -0.5027,0.47625 -0.8202,0.74083 -0.47625,0.42334 -1.5875,1.42875 -1.82563,1.50813 0,0 -0.13229,0.0265 -0.26458,0.0794 -0.58209,0.47625 -0.97896,0.79375 -0.97896,0.79375 0.66146,-0.0794 1.21708,-0.26458 1.48167,-0.29104 0.635,-0.10583 3.81,-2.35479 3.9952,-2.67229 0.18521,-0.3175 0.15875,-1.42875 0.15875,-1.56104 v 0 z m -7.09083,4.07458 c 0,0.0529 2.35479,-0.58208 2.59292,-0.66146 0.23812,-0.0794 3.20145,-2.7252 3.3602,-3.12208 0.15875,-0.37042 -0.23812,-1.85208 -0.29104,-1.95792 0,0 -5.68854,5.68855 -5.66208,5.74146 z m -0.15875,-0.21166 c 0,0 0,-0.0529 -0.0529,-0.0529 0,0 -0.0265,0 -0.0529,0 -0.1852,0.0265 -0.66145,0.55562 -0.79375,0.68791 -0.5027,0.47625 -1.00541,1.00542 -1.48166,1.50813 -0.39688,0.42333 -1.32292,1.42875 -1.16417,1.56104 0.0529,0.0529 0.15875,0 0.23813,-0.0794 0.13229,-0.0794 0.87312,-0.84667 1.11125,-1.08479 0.34395,-0.34396 0.68791,-0.71438 1.00541,-1.05834 0.13229,-0.13229 0.23813,-0.26458 0.37042,-0.39687 0.10583,-0.10583 0.50271,-0.55563 0.60854,-0.66146 0.10583,-0.10583 0.26458,-0.3175 0.21167,-0.42333 z m -2.61938,1.24354 c 0.39688,-0.50271 0.58209,-0.82021 0.89959,-1.34938 0,-0.0265 0.0529,-0.15875 0,-0.21166 -0.10584,-0.0529 -0.26459,0.13229 -0.37042,0.23812 -0.42333,0.47625 -0.55563,0.68792 -0.92604,1.19063 -0.0529,0.0794 -1.00542,1.32291 -1.21709,1.61396 -0.0794,0.10583 -0.21166,0.29104 -0.0794,0.39687 0.15875,0.13229 0.79375,-0.71437 0.92604,-0.87312 0.26458,-0.3175 0.52917,-0.66146 0.79375,-1.00542 v 0 z m 0.10584,-3.04271 h -0.0265 c 0,0 -0.0529,0 -0.0529,0.0265 -0.15875,0.13229 -0.44979,0.60854 -0.47625,0.66146 -0.26458,0.44979 -0.52917,0.89958 -0.82021,1.37583 -0.0529,0.10583 -0.68791,1.24354 -0.92604,1.74625 -0.0529,0.0794 -0.3175,0.50271 -0.21167,0.58208 0.0794,0.0529 0.21167,0 0.26459,-0.0794 0.10583,-0.13229 0.92604,-1.50812 1.11125,-1.82562 0.13229,-0.21167 1.08479,-1.93146 1.16416,-2.2225 0,-0.0529 0.0265,-0.10584 0,-0.15875 0,0 0,-0.0265 0,-0.0529 0,-0.0265 0,0 0,0 v 0 z m -1.27,-0.15875 c -0.0794,-0.0265 -0.23813,0.23812 -0.29105,0.34396 -0.23812,0.47625 -0.635,1.34937 -0.84666,1.85208 -0.21167,0.47625 -0.68792,1.71979 -0.68792,1.79917 0,0.0794 0,0.18521 0.0794,0.18521 0.0794,0 0.0794,-0.0265 0.10583,-0.0529 0.15875,-0.18521 0.76729,-1.56105 0.87312,-1.82563 0.10584,-0.23812 0.60855,-1.40229 0.68792,-1.69333 0,-0.0794 0.18521,-0.58209 0.0794,-0.60854 z m -0.79375,-0.0529 c 0,0 0,-0.0529 0,-0.0794 -0.0529,-0.0794 -0.1323,0 -0.18521,0.0794 -0.0529,0.0794 -0.55563,1.27 -0.74084,1.77271 -0.13229,0.34396 -0.74083,2.01084 -0.60854,2.06375 0.18521,0.0794 0.76729,-1.45521 0.87313,-1.69333 0.0794,-0.18521 0.66146,-1.93146 0.66146,-2.09021 v 0 z m 4.04812,4.31271 c 0,0 0.37042,-0.3175 0.52917,-0.44979 0.0794,-0.0529 1.34937,-1.21708 1.29646,-1.34937 0,-0.0529 -0.0794,-0.0794 -0.15875,-0.0529 -0.10584,0 -0.21167,0.0794 -0.3175,0.15875 -0.29105,0.15875 -1.93146,1.5875 -2.16959,1.79916 -0.39687,0.37042 -1.45521,1.32292 -1.5875,1.45521 -0.0529,0.0529 -0.15875,0.18521 -0.0794,0.26458 0.0529,0.0794 0.13229,0 0.18521,0 0.1852,-0.13229 1.79916,-1.40229 2.30187,-1.79916 v 0 z m -1.37583,1.905 c 0.3175,-0.23812 0.66146,-0.50271 1.00541,-0.74083 0.1323,-0.0794 0.26459,-0.21167 0.39688,-0.29104 0.13229,-0.10584 0.26458,-0.21167 0.42333,-0.3175 0.29104,-0.21167 0.55563,-0.42334 0.82021,-0.66146 0.10583,-0.10583 0.26458,-0.21167 0.34396,-0.34396 0.0529,-0.10583 -0.0529,-0.10583 -0.10583,-0.10583 -0.10584,0 -0.21167,0.0529 -0.3175,0.10583 -0.21167,0.10583 -0.39688,0.23813 -0.58209,0.37042 -0.18521,0.13229 -0.37041,0.26458 -0.55562,0.39687 -0.55563,0.42334 -1.11125,0.82021 -1.64042,1.27 -0.0529,0.0529 -0.13229,0.10584 -0.18521,0.18521 -0.0529,0.0529 -0.13229,0.13229 -0.15875,0.21167 0,0 0,0.0529 0,0.0794 0,0.0794 0.0529,0.0794 0.13229,0.0529 0.10584,-0.0265 0.42334,-0.23813 0.47625,-0.26459 v 0 z"
       style="stroke-width:0.26458332" />
  </g>
  <g
     inkscape:groupmode="layer"
     id="layer2"
     inkscape:label="Ebene 2"
     style="display:inline">
    <path
       style="fill:#000000;fill-opacity:1;stroke:none;stroke-width:0.19582018px;stroke-linecap:butt;stroke-linejoin:miter;stroke-opacity:1"
       d="m 2.9613462,11.674114 2.8927122,2.227099 C 5.1700115,14.865269 3.9843578,16.087236 2.5081098,14.951571 1.3324263,13.996507 2.1114266,12.502646 2.9613462,11.674114 Z"
       id="path824"
       inkscape:connector-curvature="0"
       sodipodi:nodetypes="cccc" />
    <path
       style="fill:#000000;fill-opacity:1;stroke:none;stroke-width:0.19582018px;stroke-linecap:butt;stroke-linejoin:miter;stroke-opacity:1"
       d="m 3.6414425,10.859504 2.8131805,2.18005 7.439953,-4.6636659 C 12.384299,5.1120487 9.5856957,3.3628652 6.1463184,2.3670248 Z"
       id="path841"
       inkscape:connector-curvature="0"
       sodipodi:nodetypes="ccccc" />
  </g>
</svg>
