<?xml version="1.0" encoding="UTF-8" standalone="no"?>
<!-- Created with Inkscape (http://www.inkscape.org/) -->

<svg
   xmlns:dc="http://purl.org/dc/elements/1.1/"
   xmlns:cc="http://creativecommons.org/ns#"
   xmlns:rdf="http://www.w3.org/1999/02/22-rdf-syntax-ns#"
   xmlns:svg="http://www.w3.org/2000/svg"
   xmlns="http://www.w3.org/2000/svg"
   xmlns:sodipodi="http://sodipodi.sourceforge.net/DTD/sodipodi-0.dtd"
   xmlns:inkscape="http://www.inkscape.org/namespaces/inkscape"
   width="16.809391mm"
   height="18.621262mm"
   viewBox="0 0 16.809391 18.621262"
   version="1.1"
   id="svg851"
   inkscape:version="0.92.5 (2060ec1f9f, 2020-04-08)"
   sodipodi:docname="Ball_DM_Cloppenburg.svg">
  <defs
     id="defs845">
    <linearGradient
       id="Unbenannter_Verlauf"
       data-name="Unbenannter Verlauf"
       x1="48.799999"
       y1="66"
       x2="110.7"
       y2="82.599998"
       gradientTransform="matrix(0.26443707,-0.00879641,-0.00879641,-0.26443707,18.639616,165.5601)"
       gradientUnits="userSpaceOnUse">
      <stop
         offset="0"
         stop-color="#fff"
         id="stop4" />
      <stop
         offset=".1"
         stop-color="#f2e500"
         id="stop6" />
      <stop
         offset=".2"
         stop-color="#f18826"
         id="stop8" />
      <stop
         offset=".3"
         stop-color="#e44893"
         id="stop10" />
      <stop
         offset=".4"
         stop-color="#f18826"
         id="stop12" />
      <stop
         offset=".6"
         stop-color="#f2e500"
         id="stop14" />
      <stop
         offset=".7"
         stop-color="#8fbe22"
         id="stop16" />
      <stop
         offset=".8"
         stop-color="#1ab099"
         id="stop18" />
      <stop
         offset=".9"
         stop-color="#009cd4"
         id="stop20" />
    </linearGradient>
    <linearGradient
       id="Unbenannter_Verlauf-3"
       data-name="Unbenannter Verlauf"
       x1="48.799999"
       y1="66"
       x2="110.7"
       y2="82.599998"
       gradientTransform="matrix(0.26443707,-0.00879641,-0.00879641,-0.26443707,47.2887,193.46294)"
       gradientUnits="userSpaceOnUse">
      <stop
         offset="0"
         stop-color="#fff"
         id="stop4-6" />
      <stop
         offset=".1"
         stop-color="#f2e500"
         id="stop6-7" />
      <stop
         offset=".2"
         stop-color="#f18826"
         id="stop8-5" />
      <stop
         offset=".3"
         stop-color="#e44893"
         id="stop10-3" />
      <stop
         offset=".4"
         stop-color="#f18826"
         id="stop12-5" />
      <stop
         offset=".6"
         stop-color="#f2e500"
         id="stop14-6" />
      <stop
         offset=".7"
         stop-color="#8fbe22"
         id="stop16-2" />
      <stop
         offset=".8"
         stop-color="#1ab099"
         id="stop18-9" />
      <stop
         offset=".9"
         stop-color="#009cd4"
         id="stop20-1" />
    </linearGradient>
    <linearGradient
       id="Unbenannter_Verlauf-7"
       data-name="Unbenannter Verlauf"
       x1="48.799999"
       y1="66"
       x2="110.7"
       y2="82.599998"
       gradientTransform="matrix(0.26443707,-0.00879641,-0.00879641,-0.26443707,15.10393,165.96413)"
       gradientUnits="userSpaceOnUse">
      <stop
         offset="0"
         stop-color="#fff"
         id="stop4-0" />
      <stop
         offset=".1"
         stop-color="#f2e500"
         id="stop6-9" />
      <stop
         offset=".2"
         stop-color="#f18826"
         id="stop8-3" />
      <stop
         offset=".3"
         stop-color="#e44893"
         id="stop10-6" />
      <stop
         offset=".4"
         stop-color="#f18826"
         id="stop12-0" />
      <stop
         offset=".6"
         stop-color="#f2e500"
         id="stop14-62" />
      <stop
         offset=".7"
         stop-color="#8fbe22"
         id="stop16-6" />
      <stop
         offset=".8"
         stop-color="#1ab099"
         id="stop18-1" />
      <stop
         offset=".9"
         stop-color="#009cd4"
         id="stop20-8" />
    </linearGradient>
  </defs>
  <sodipodi:namedview
     id="base"
     pagecolor="#ffffff"
     bordercolor="#666666"
     borderopacity="1.0"
     inkscape:pageopacity="0.0"
     inkscape:pageshadow="2"
     inkscape:zoom="5.1579885"
     inkscape:cx="108.29118"
     inkscape:cy="0.1654699"
     inkscape:document-units="mm"
     inkscape:current-layer="layer1"
     showgrid="false"
     inkscape:window-width="2560"
     inkscape:window-height="2096"
     inkscape:window-x="2560"
     inkscape:window-y="27"
     inkscape:window-maximized="0"
     inkscape:pagecheckerboard="true"
     fit-margin-top="0"
     fit-margin-left="0"
     fit-margin-right="0"
     fit-margin-bottom="0" />
  <metadata
     id="metadata848">
    <rdf:RDF>
      <cc:Work
         rdf:about="">
        <dc:format>image/svg+xml</dc:format>
        <dc:type
           rdf:resource="http://purl.org/dc/dcmitype/StillImage" />
        <dc:title></dc:title>
      </cc:Work>
    </rdf:RDF>
  </metadata>
  <g
     inkscape:label="Ebene 1"
     inkscape:groupmode="layer"
     id="layer1"
     style="display:inline"
     transform="translate(-29.400335,-136.7769)">
    <path
       class="st1"
       d="m 36.304013,137.1711 c 0.242392,0.1243 0.46719,-0.28027 0.728988,-0.3684 0.339371,-0.14365 0.726296,0.34646 0.894634,0.63207 0.05729,0.13046 0.168338,0.2856 0.302316,0.33409 0.07933,-0.003 0.185106,-0.006 0.264437,-0.009 0.33937,-0.14365 0.883252,-0.50589 1.33538,0.35268 0.08549,0.18246 0.430082,0.99166 0.620466,1.14417 0.108414,0.0758 0.580882,-0.0458 0.711341,-0.10308 0.260919,-0.11458 0.55004,-0.17714 0.743063,0.0547 0.575549,0.58973 0.657465,1.46061 0.820525,1.58755 0.189505,0.12606 0.479506,0.0899 0.662852,0.0309 0.236234,-0.0608 0.499792,-0.096 0.717499,0.082 0.463617,0.40815 0.09511,1.26754 0.63454,1.56727 0.107534,0.0494 0.500671,-0.0696 0.661093,-0.022 0.427497,0.11815 0.237059,0.75983 0.272299,1.02339 0.01495,0.44955 0.464497,0.43459 0.524421,0.64438 0.117211,0.34025 -0.668238,1.39882 -0.867473,1.77607 -0.223919,0.43102 -1.004915,0.82762 -2.356238,1.58734 -0.676101,0.36664 -1.272871,0.73064 -2.705284,1.44011 -1.093922,0.53938 -4.109548,2.99579 -4.31406,3.21437 -0.204513,0.21859 -0.840096,1.00745 -1.017285,1.2516 -0.201874,0.29792 -0.658508,0.89551 -0.811013,1.0859 -0.153385,0.16394 -0.486597,0.4927 -0.747516,0.60727 -0.260918,0.11457 -0.547401,0.25646 -0.837402,0.29258 -0.21155,0.007 -0.423099,0.0141 -0.634649,0.0211 -0.213309,-0.0459 -0.400174,-0.0926 -0.587919,-0.16575 -0.05289,0.002 -0.107534,-0.0494 -0.187745,-0.0732 -0.05377,-0.0247 -0.133978,-0.0485 -0.162181,-0.1005 -0.05377,-0.0247 -0.108413,-0.0758 -0.16218,-0.10049 -0.05377,-0.0247 -0.108414,-0.0758 -0.163061,-0.12694 0,0 -0.02732,-0.0256 -0.05465,-0.0511 -0.08109,-0.0502 -0.162181,-0.1005 -0.217707,-0.17807 0,0 -0.0282,-0.052 -0.05465,-0.0511 -0.02644,8.7e-4 -0.05377,-0.0247 -0.08109,-0.0503 0,0 -0.0282,-0.052 -0.05465,-0.0511 -0.0282,-0.052 -0.05553,-0.0776 -0.110173,-0.1287 -0.02732,-0.0256 -0.05553,-0.0776 -0.08373,-0.12958 -0.02996,-0.1049 -0.05992,-0.20979 -0.06256,-0.28913 -8.78e-4,-0.0264 -0.0018,-0.0529 -0.02908,-0.0785 -8.79e-4,-0.0264 -0.0026,-0.0793 -0.05641,-0.10401 -0.0026,-0.0793 -0.05729,-0.13046 -0.05992,-0.20979 -0.0035,-0.10578 -0.03348,-0.21067 -0.06344,-0.31557 -0.007,-0.21155 -0.01407,-0.4231 -0.02111,-0.63465 -0.007,-0.21155 0.06614,-0.39929 0.112866,-0.58616 0.09346,-0.37373 0.267131,-0.72365 0.468125,-1.04801 0.07581,-0.10842 0.126061,-0.18951 0.201873,-0.29792 0.02468,-0.0538 0.07581,-0.10841 0.100497,-0.16218 0.02468,-0.0538 0.05025,-0.0811 0.07493,-0.13486 0.528049,-0.83822 0.74933,-1.34857 0.919482,-1.80427 0.364109,-0.99161 1.035041,-3.1053 1.106455,-3.34593 0.09522,-0.32084 0.260973,-0.90876 0.506992,-2.26707 0.202808,-1.06566 0.459437,-2.90083 0.692207,-3.8616 0.18604,-0.77391 0.430246,-1.39091 0.606555,-1.6615 0.100497,-0.16218 0.434589,-0.4645 0.576484,-0.17802 8.73e-4,0.0264 0.03084,0.13134 0.111932,0.18159 0.133978,0.0485 0.322657,-0.64608 0.615297,-0.60287 0.186865,0.0467 0.408091,0.33057 0.570272,0.43107 v 0 z"
       id="path27"
       inkscape:connector-curvature="0"
       style="fill:#ffffff;stroke-width:0.26458332" />
    <path
       class="st2"
       d="m 34.113039,145.31824 c 0.107534,0.0494 -0.03529,0.53063 -0.0591,0.61084 -0.07053,0.26708 -0.533381,1.47376 -0.63124,1.71527 -0.09698,0.26796 -0.659442,1.66326 -0.811947,1.85364 8.74e-4,0.0264 -0.05113,0.0547 -0.104015,0.0564 -0.07933,0.003 -0.08197,-0.0767 -0.08373,-0.12958 0,0 0.02556,-0.0273 0.05113,-0.0547 0.152505,-0.19038 0.714969,-1.58569 0.811947,-1.85364 0.02381,-0.0802 0.07229,-0.21419 0.145468,-0.40193 0.170152,-0.4557 0.439042,-1.12647 0.485772,-1.31334 v 0 c 0.04585,-0.21331 0.0679,-0.34641 0.09082,-0.45306 0.02556,-0.0273 0.05113,-0.0546 0.07845,-0.0291 v 0 z m 1.274576,0.11644 -0.02644,8.7e-4 c 0,0 -0.02644,8.7e-4 -0.05201,0.0282 0,0 8.73e-4,0.0264 0.0018,0.0529 -0.09522,0.32084 -1.089634,2.25998 -1.089634,2.25998 -0.17455,0.32348 -0.947684,1.75226 -1.049061,1.888 -0.02468,0.0538 -0.103136,0.0828 -0.155143,0.11105 0.0018,0.0529 0.0035,0.10578 0.0035,0.10578 0.08109,0.0503 0.21155,-0.007 0.261798,-0.0881 0.101377,-0.13574 0.87539,-1.53808 1.04994,-1.86156 0.125182,-0.21595 1.019979,-1.96646 1.089634,-2.25998 -0.0017,-0.0529 0.02293,-0.10665 -0.0053,-0.15866 0,0 -8.73e-4,-0.0264 -0.0018,-0.0529 -8.73e-4,-0.0264 0,0 0,0 z m 4.393555,-5.59958 c 0.0088,0.26443 -0.53778,1.34153 -0.760819,1.79899 -0.7943,1.58833 -2.122752,3.03559 -3.272201,3.49739 -0.04849,0.13398 -0.07317,0.18775 -0.07317,0.18775 1.10008,-0.35427 2.588073,-1.78037 3.454667,-3.58288 0.39759,-0.78094 0.742293,-1.56013 0.735255,-1.77168 0.01325,-0.39753 -0.693585,-1.75061 -0.79936,-1.74709 0.250309,0.36229 0.678632,1.30107 0.662744,1.61927 z m -3.656759,7.05755 c 8.73e-4,0.0264 0.0026,0.0793 -0.02381,0.0802 -0.298852,0.56588 -0.473402,0.88936 -0.853345,1.40498 -0.253002,0.35257 -0.506883,0.67869 -0.759885,1.03125 0,0 -0.05113,0.0547 -0.07669,0.082 -0.278565,0.37989 -0.583575,0.76066 -0.766042,0.84615 0.0018,0.0529 0.0027,0.0793 0.05641,0.10401 0.16306,0.12694 0.769561,-0.74037 0.896501,-0.90343 0.253882,-0.32612 0.506884,-0.67868 0.759885,-1.03125 0.379943,-0.51562 0.554493,-0.8391 0.854225,-1.37853 -8.73e-4,-0.0264 0.04761,-0.16042 -0.007,-0.21155 0,0 -0.05289,0.002 -0.07933,0.003 v 0 z m 5.961651,-5.41348 c 0.0035,0.10577 -0.117265,0.45394 -0.217762,0.61612 -0.251242,0.40545 -1.577055,1.93204 -2.581091,2.7861 -0.206272,0.1657 -1.477384,0.94923 -2.132319,1.15632 -0.04937,0.10754 -0.100497,0.16218 -0.07405,0.1613 0.50243,-0.0167 2.059145,-0.96857 2.316545,-1.18892 0.977592,-0.85318 2.303405,-2.37977 2.581091,-2.7861 0.100497,-0.16218 0.220401,-0.53679 0.217762,-0.61612 -0.01495,-0.44955 -0.445916,-1.46766 -0.697983,-1.88284 0,0 0,0 8.73e-4,0.0264 0.254707,0.49452 0.572856,1.3046 0.612494,1.70037 v 0 z m -4.493453,-2.97434 c 0.0652,0.36845 -1.214044,4.09075 -1.822304,4.90517 -0.456635,0.5976 -0.840096,1.00745 -1.072811,1.17403 -0.04761,0.16042 -0.09698,0.26795 -0.07053,0.26707 0.05289,-0.002 0.595011,-0.41689 1.279083,-1.33972 0.582696,-0.7871 1.862822,-4.48295 1.79674,-4.87785 -0.03612,-0.29 -0.431842,-1.04455 -0.541135,-1.14681 0,0 0,0 8.73e-4,0.0264 0.168338,0.28561 0.395722,0.75456 0.430082,0.99167 z m 6.247425,4.7691 c -0.145468,0.40193 -3.019199,3.14482 -3.280997,3.23295 -0.130459,0.0573 -0.75983,0.23706 -1.362758,0.41595 -0.471588,0.14806 -0.76071,0.21062 -0.917613,0.26878 -0.102256,0.1093 -0.153384,0.16394 -0.153384,0.16394 0.0018,0.0529 2.334137,-0.66004 2.569492,-0.74729 0.235355,-0.0873 3.109085,-2.83014 3.254553,-3.23207 0.146347,-0.37549 -0.299568,-1.84315 -0.355974,-1.94716 0,0 0,0 -0.05113,0.0546 0.147172,0.44515 0.419472,1.46854 0.297809,1.79026 z m -7.989954,6.5134 c 0.332333,-0.3552 0.663786,-0.73685 0.969675,-1.09117 0.12782,-0.13662 0.229197,-0.27236 0.357017,-0.40897 0.102256,-0.1093 0.483958,-0.57203 0.586215,-0.68133 0.102256,-0.10929 0.253881,-0.32612 0.197475,-0.43013 0,0 -0.0018,-0.0529 -0.05465,-0.0511 0,0 -0.02644,8.7e-4 -0.05289,0.002 0,0 0,0 0,0 0.0027,0.0793 -0.07229,0.21419 -0.200114,0.3508 v 0 c -0.05025,0.0811 -0.229197,0.27236 -0.382581,0.4363 -0.102257,0.10929 -0.178949,0.19126 -0.203633,0.24503 -0.07669,0.082 -0.178949,0.19126 -0.255641,0.27323 -0.02468,0.0538 -0.07669,0.082 -0.102256,0.10929 -0.305889,0.35433 -0.638222,0.70953 -0.969676,1.09118 -0.178068,0.21771 -0.918547,1.03653 -1.07457,1.12114 0,0 -0.05113,0.0546 -0.104016,0.0564 0.0018,0.0529 0.0035,0.10577 0.0044,0.13221 0.05465,0.0511 0.158663,-0.005 0.235355,-0.0873 0.12958,-0.0837 0.844494,-0.87522 1.07457,-1.12113 v 0 z m 3.120412,-0.89799 c 0,0 0,0 0,0 -0.05025,0.0811 -0.152505,0.19039 -0.230077,0.24591 -0.02644,8.8e-4 -0.05113,0.0546 -0.07757,0.0555 -0.2574,0.22035 -0.488356,0.43982 -0.797764,0.68837 l -0.1287,0.11017 c -0.07669,0.082 -0.180708,0.13838 -0.283844,0.22123 -0.05201,0.0282 -0.103135,0.0828 -0.155143,0.11105 -0.07757,0.0555 -0.154264,0.13749 -0.231836,0.19302 -0.362295,0.25031 -0.697267,0.52618 -0.980231,0.77385 -0.05201,0.0282 -0.310287,0.22211 -0.440746,0.27939 0,0 0.0018,0.0529 0.0018,0.0529 0.0027,0.0793 0.05553,0.0776 0.133977,0.0485 0.104895,-0.03 0.415183,-0.25207 0.467191,-0.28027 0.309407,-0.24855 0.644379,-0.52442 0.98023,-0.77385 0.12958,-0.0837 0.257401,-0.22035 0.38698,-0.30407 0.1287,-0.11018 0.2574,-0.22035 0.412544,-0.3314 0.283843,-0.22123 0.541243,-0.44158 0.797764,-0.68837 0.102252,-0.1093 0.257396,-0.22035 0.332329,-0.35521 0.04937,-0.10753 -0.05641,-0.10401 -0.109293,-0.10225 v 0 z m -1.085072,0.01 c -0.154264,0.1375 -0.461912,0.43894 -0.51392,0.46714 -0.488356,0.43981 -2.060079,1.73632 -2.240787,1.8747 0,0 -0.05201,0.0282 -0.07757,0.0555 8.73e-4,0.0264 0.0017,0.0529 0.0035,0.10577 0.05553,0.0776 0.132218,-0.004 0.185106,-0.006 0.180708,-0.13837 1.751551,-1.46133 2.240787,-1.8747 0,0 0.359656,-0.32964 0.51392,-0.46713 0.07757,-0.0555 1.308165,-1.26127 1.25088,-1.39173 -0.0018,-0.0529 -0.08197,-0.0767 -0.160422,-0.0476 -0.17455,0.32348 -1.200631,1.31064 -1.227075,1.31152 v 0 z m 7.085427,-4.25956 c 0.17455,-0.32348 0.111161,-1.43324 0.106763,-1.56545 0,0 -0.05201,0.0282 -0.102256,0.10929 0.01319,0.39665 0.03606,1.08419 -0.140244,1.35479 -0.174551,0.32348 -3.272146,2.70319 -3.92972,2.83096 -0.07933,0.003 -0.209791,0.0599 -0.367573,0.0917 -0.209791,0.0599 -0.472468,0.12161 -0.76159,0.18417 -0.1287,0.11017 -0.205392,0.19214 -0.205392,0.19214 0.658454,-0.10132 1.207614,-0.3049 1.471171,-0.34014 0.631131,-0.12688 3.729606,-2.48016 3.904156,-2.80364 v 0 z m 0.262678,-0.0617 c -0.200115,0.3508 -0.447839,0.86203 -0.575659,0.99865 -0.178069,0.2177 -2.793466,1.9725 -3.288859,2.20076 -0.312926,0.14278 -0.704304,0.31464 -1.01899,0.40452 -0.155144,0.11105 -0.231836,0.19302 -0.231836,0.19302 0.08021,0.0238 0.839162,-0.23969 1.386563,-0.49616 0.547401,-0.25647 3.136354,-2.01038 3.288859,-2.20077 0.152505,-0.19038 0.648832,-1.18639 0.749329,-1.34857 0,0 -0.284723,0.19478 -0.310287,0.2221 v 0 z m -9.431117,-6.56925 c 0.007,0.21155 -0.610128,2.34991 -1.18848,4.06342 -0.119024,0.40106 -0.339425,0.93785 -0.635638,1.58305 -0.141949,0.50771 -0.210724,0.82767 -0.210724,0.82767 0.02468,-0.0538 0.573899,-1.05153 0.982979,-2.2829 0.577472,-1.73995 1.168193,-3.87744 1.162036,-4.06254 0.01589,-0.31821 -0.08456,-0.95022 -0.139201,-1.00134 0,0 0.0017,0.0529 -0.04849,0.13397 0.03436,0.23712 0.07136,0.55356 0.07752,0.73867 z m -1.089626,14.99347 c 0.0018,0.0529 0.0044,0.13222 0.0062,0.18511 -0.05113,0.0547 -0.201873,0.29791 -0.278565,0.37988 l -0.17719,0.24416 c 0,0 -0.05113,0.0547 -0.07669,0.082 -0.05113,0.0546 -0.07581,0.10841 -0.126941,0.16306 -0.227437,0.32524 -0.483957,0.57203 -0.768681,0.76681 -0.284723,0.19478 -0.598529,0.31111 -0.914094,0.37455 -0.105775,0.004 -0.237993,0.008 -0.343768,0.0114 -0.21155,0.007 -0.396656,0.0132 -0.610845,-0.0591 -0.293519,-0.0697 -0.589678,-0.21864 -0.886716,-0.39407 0.02644,-8.7e-4 0.05465,0.0511 0.108414,0.0758 0.298797,0.22832 0.6214,0.37643 0.941363,0.4452 0.319963,0.0688 0.638168,0.0847 0.953733,0.0212 0.315565,-0.0634 0.629371,-0.17977 0.914094,-0.37455 0.284723,-0.19478 0.541244,-0.44157 0.769561,-0.74037 0.05025,-0.0811 0.126941,-0.16306 0.177189,-0.24415 0.05113,-0.0547 0.101377,-0.13574 0.151625,-0.21683 0.05025,-0.0811 0.253002,-0.35256 0.303251,-0.43365 0.02469,-0.0538 0.02029,-0.18599 -0.06168,-0.26268 0,0 -0.02644,8.7e-4 -0.05465,-0.0511 v 0 z M 33.95201,141.27361 c -0.116385,0.48038 -0.208965,0.88056 -0.304184,1.2014 -0.156958,0.85236 -0.266306,1.54429 -0.264546,1.59718 0.0035,0.10577 1.341918,-5.02156 1.403711,-6.34726 -0.0044,-0.13222 -0.07757,0.0555 -0.17367,0.34993 -0.128755,0.90436 -0.451466,2.34463 -0.661311,3.19875 z m -1.36138,6.02818 0.0027,0.0793 c -0.364109,0.99161 -0.561584,1.42174 -0.688525,1.58481 0.0044,0.13221 -0.01941,0.21242 0.007,0.21154 0.187745,0.0732 0.718487,-1.47991 0.816346,-1.72142 0.07317,-0.18775 0.596878,-1.95238 0.5916,-2.11104 0,0 -0.0018,-0.0529 -0.0027,-0.0793 -0.0282,-0.052 -0.07933,0.003 -0.132218,0.004 -0.06702,0.37285 -0.51931,1.89686 -0.593363,2.05816 v 0 z"
       id="path29"
       inkscape:connector-curvature="0"
       style="fill:#1d1d1b;stroke-width:0.26458332" />
    <path
       id="Ball_farbig"
       class="st0"
       d="m 34.629933,152.89878 c -0.135737,-0.10137 -3.581173,-2.60758 -3.663143,-2.68428 -0.05465,-0.0511 -0.214188,-0.0723 -0.29088,0.01 -0.255641,0.27324 -0.610019,0.76154 -0.686712,0.84351 -0.151625,0.21683 -0.276806,0.43277 -0.375544,0.64784 -0.04937,0.10754 -0.07229,0.21419 -0.09522,0.32085 -0.09434,0.34728 -0.110227,0.66549 -0.07323,0.98193 0.037,0.31645 0.15333,0.63025 0.320788,0.88941 0.168339,0.2856 0.415129,0.54212 0.686603,0.74488 0.298797,0.22831 0.6214,0.37642 0.941363,0.4452 0.319963,0.0688 0.638168,0.0847 0.953733,0.0212 0.315565,-0.0634 0.629371,-0.17978 0.914094,-0.37456 0.284723,-0.19478 0.541244,-0.44157 0.769561,-0.74037 0.05025,-0.0811 0.126941,-0.16306 0.177189,-0.24415 0.05113,-0.0547 0.101377,-0.13574 0.151625,-0.21683 0.05025,-0.0811 0.253002,-0.35256 0.303251,-0.43365 0.02469,-0.0538 0.02029,-0.18599 -0.06168,-0.26268 v 0 z m -3.978817,-1.03245 c -0.06966,0.29352 -0.111987,0.6126 -0.102311,0.90348 0.007,0.21155 0.07752,0.73867 0.08016,0.818 0.03172,0.15778 0.06344,0.31556 -0.01413,0.37109 -0.05113,0.0547 -0.132218,0.004 -0.213309,-0.0459 -0.463617,-0.40815 -0.566698,-1.11949 -0.400944,-1.70741 0.09434,-0.34728 0.312101,-0.9634 0.627666,-1.02685 0.262678,-0.0617 0.07048,0.52712 0.02199,0.66109 v 0 z m 3.464998,-12.82229 c 0.04497,-0.23975 0.551028,-1.73907 0.534261,-1.44731 -0.08736,1.35303 -1.400193,6.45303 -1.402832,6.3737 -0.0044,-0.13222 0.82448,-4.66019 0.86945,-4.89994 z m 0.805353,4.31478 c -0.167513,0.53503 -0.484892,1.33978 -0.432004,1.33802 0.05289,-0.002 0.59501,-0.41689 1.279082,-1.33973 0.582696,-0.7871 1.862822,-4.48295 1.79674,-4.87784 -0.03612,-0.29001 -0.431841,-1.04456 -0.541134,-1.14681 0,0 -1.935171,5.49133 -2.102684,6.02636 z m 0.644216,1.85815 c 1.10008,-0.35427 2.588074,-1.78036 3.454668,-3.58288 0.39759,-0.78094 0.742292,-1.56012 0.735255,-1.77167 0.01237,-0.42398 -0.750871,-1.88108 -0.79936,-1.7471 0.0017,0.0529 -3.495458,7.13161 -3.417006,7.10253 z m 1.378537,0.85422 c 0.502431,-0.0167 2.059145,-0.96857 2.316545,-1.18892 0.977592,-0.85318 2.303405,-2.37977 2.581091,-2.7861 0.100497,-0.16218 0.220401,-0.53679 0.217762,-0.61612 -0.01495,-0.44955 -0.445915,-1.46766 -0.697983,-1.88284 0,0 -4.576077,6.47926 -4.417415,6.47398 z m -3.313271,-1.71642 c 0.02469,-0.0538 0.573899,-1.05153 0.982979,-2.2829 0.577472,-1.73995 1.168194,-3.87744 1.162036,-4.06254 0.01589,-0.31821 -0.08455,-0.95022 -0.139201,-1.00134 -0.05465,-0.0511 -2.032258,7.34766 -2.032258,7.34766 v 0 z m 11.542651,0.0131 c -0.02293,0.10665 -0.04673,0.18686 -0.09698,0.26795 -0.174551,0.32348 -1.698664,1.45957 -1.853808,1.57063 -0.801282,0.58258 -1.83616,1.30531 -2.2575,1.37227 -0.05289,0.002 -0.157782,0.0317 -0.236234,0.0608 -0.438987,0.33228 -0.722831,0.5535 -0.696387,0.55262 0.08021,0.0238 0.839161,-0.2397 1.386562,-0.49616 0.520958,-0.25559 3.136355,-2.01039 3.28886,-2.20077 0.152504,-0.19038 0.648832,-1.18639 0.749329,-1.34857 0,0 -0.07757,0.0555 -0.232716,0.16657 v 0 z m -0.233486,-1.44825 c 0,0 -0.7722,0.66104 -1.724228,1.4869 -0.230956,0.21946 -0.486597,0.4927 -0.795125,0.76769 -0.461912,0.43893 -1.539122,1.48074 -1.774476,1.56798 0,0 -0.131339,0.0308 -0.261798,0.0881 -0.565928,0.49534 -0.952028,0.82586 -0.952028,0.82586 0.658454,-0.10132 1.207614,-0.3049 1.471171,-0.34014 0.631131,-0.12689 3.729606,-2.48016 3.904156,-2.80364 0.174551,-0.32348 0.111162,-1.43324 0.106764,-1.56546 v 0 z m -6.951449,4.30807 c 0.0018,0.0529 2.334138,-0.66005 2.569492,-0.74729 0.235355,-0.0872 3.109086,-2.83014 3.254554,-3.23207 0.146347,-0.37549 -0.299569,-1.84315 -0.355975,-1.94716 0,0 -5.496274,5.87452 -5.468071,5.92652 z m -0.1657,-0.20627 c 0,0 -0.0018,-0.0529 -0.05465,-0.0511 0,0 -0.02644,8.8e-4 -0.05289,0.002 -0.184226,0.0326 -0.64262,0.57731 -0.77044,0.71393 -0.486597,0.4927 -0.971435,1.03829 -1.430708,1.55655 -0.382582,0.43629 -1.274685,1.47194 -1.111624,1.59888 0.05465,0.0511 0.158662,-0.005 0.235354,-0.0872 0.12958,-0.0837 0.844494,-0.87522 1.074571,-1.12113 0.332332,-0.35521 0.663785,-0.73685 0.969675,-1.09118 0.12782,-0.13662 0.229197,-0.27235 0.357017,-0.40897 0.102256,-0.10929 0.483958,-0.57203 0.586214,-0.68132 0.102257,-0.1093 0.253882,-0.32612 0.197476,-0.43014 z m -2.576583,1.32994 c 0.379942,-0.51562 0.554492,-0.83911 0.854224,-1.37854 -8.73e-4,-0.0264 0.04761,-0.16042 -0.007,-0.21155 -0.107534,-0.0494 -0.260039,0.14102 -0.362295,0.25031 -0.407266,0.49006 -0.532447,0.70601 -0.885946,1.22076 -0.05025,0.0811 -0.960879,1.35561 -1.162752,1.65353 -0.07581,0.10841 -0.201874,0.29791 -0.06614,0.39929 0.16306,0.12694 0.769561,-0.74037 0.896501,-0.90343 0.253882,-0.32612 0.506883,-0.67868 0.759885,-1.03125 v 0 z m 0.0046,-3.04454 -0.02644,8.7e-4 c 0,0 -0.05289,0.002 -0.05201,0.0282 -0.154268,0.1375 -0.429315,0.62316 -0.454,0.67693 -0.249483,0.45834 -0.498966,0.91668 -0.774013,1.40234 -0.04937,0.10753 -0.646193,1.26573 -0.867474,1.77607 -0.05025,0.0811 -0.300611,0.51299 -0.192197,0.5888 0.08109,0.0503 0.21155,-0.007 0.261798,-0.0881 0.101377,-0.13574 0.87539,-1.53808 1.04994,-1.86156 0.125182,-0.21595 1.019979,-1.96645 1.089634,-2.25997 -0.0018,-0.0529 0.02293,-0.10666 -0.0053,-0.15867 0,0 -8.73e-4,-0.0264 -0.0018,-0.0529 -8.74e-4,-0.0264 0,0 0,0 v 0 z m -1.27458,-0.11644 c -0.08021,-0.0238 -0.230077,0.24591 -0.279445,0.35344 -0.22216,0.4839 -0.589788,1.36974 -0.784624,1.87921 -0.195716,0.48302 -0.63036,1.74171 -0.627721,1.82104 0.0026,0.0793 0.0062,0.18511 0.08549,0.18247 0.07933,-0.003 0.07845,-0.0291 0.104015,-0.0564 0.152505,-0.19038 0.714969,-1.58569 0.811947,-1.85364 0.09786,-0.24151 0.561585,-1.42175 0.63124,-1.71527 -0.0027,-0.0793 0.165753,-0.58792 0.0591,-0.61084 z m -0.795071,-0.0265 c 0,0 -0.0018,-0.0529 -0.0026,-0.0793 -0.05553,-0.0776 -0.132218,0.004 -0.182467,0.0855 -0.05024,0.0811 -0.51309,1.28777 -0.681483,1.79635 -0.120783,0.34817 -0.673571,2.03436 -0.539593,2.08285 0.187744,0.0732 0.718487,-1.47992 0.816345,-1.72143 0.07317,-0.18774 0.596879,-1.95238 0.591601,-2.11104 v 0 z m 4.189269,4.17574 c 0,0 0.359656,-0.32964 0.51392,-0.46714 0.07757,-0.0555 1.308166,-1.26127 1.25088,-1.39173 -0.0018,-0.0529 -0.08197,-0.0767 -0.160421,-0.0476 -0.105775,0.004 -0.208911,0.0864 -0.312047,0.16922 -0.285603,0.16834 -1.877612,1.65083 -2.108568,1.8703 -0.384341,0.38341 -1.410422,1.37057 -1.538242,1.50718 -0.05113,0.0546 -0.152505,0.19039 -0.07053,0.26708 0.05553,0.0776 0.132218,-0.004 0.185106,-0.006 0.180707,-0.13838 1.751551,-1.46133 2.240786,-1.8747 v 0 z m -1.311739,1.94969 c 0.309408,-0.24855 0.64438,-0.52443 0.980231,-0.77385 0.12958,-0.0837 0.2574,-0.22035 0.38698,-0.30408 0.1287,-0.11017 0.2574,-0.22035 0.412544,-0.3314 0.283843,-0.22122 0.541243,-0.44157 0.797763,-0.68836 0.102257,-0.10929 0.257401,-0.22035 0.332333,-0.3552 0.04937,-0.10754 -0.05641,-0.10402 -0.109293,-0.10226 -0.105775,0.003 -0.20979,0.0599 -0.313806,0.11633 -0.208031,0.11281 -0.388739,0.25119 -0.569447,0.38957 -0.180707,0.13837 -0.361415,0.27675 -0.542123,0.41512 -0.541243,0.44158 -1.083366,0.8567 -1.597287,1.32384 -0.05113,0.0547 -0.1287,0.11017 -0.178948,0.19126 -0.05113,0.0547 -0.127821,0.13662 -0.151625,0.21683 0,0 0.0018,0.0529 0.0027,0.0793 0.0026,0.0793 0.05553,0.0776 0.133978,0.0485 0.104895,-0.03 0.415182,-0.25207 0.46719,-0.28027 v 0 z"
       style="fill:url(#Unbenannter_Verlauf-7);stroke:#ffffff;stroke-width:0.05291667px;stroke-miterlimit:10"
       inkscape:connector-curvature="0" />
  </g>
</svg>
