<?xml version="1.0" encoding="UTF-8"?>
<svg id="Ebene_1" xmlns="http://www.w3.org/2000/svg" version="1.1" viewBox="0 0 113.39 56.69">
  <!-- Generator: Adobe Illustrator 30.1.0, SVG Export Plug-In . SVG Version: 2.1.1 Build 136)  -->
  <defs>
    <style>
      .st0 {
        fill: #fff;
      }

      .st1, .st2 {
        fill: #020a0a;
      }

      .st3 {
        fill: #ffe702;
      }

      .st2 {
        display: none;
      }

      .st4 {
        fill: #c12120;
      }
    </style>
  </defs>
  <rect class="st2" y="0" width="113.39" height="56.69"/>
  <g id="DBM-Logo">
    <path class="st0" d="M11.17,36.11h1.45v7.97h-1.99v-4.08l-1.52,2.28h-1.3l-1.51-2.28v4.08h-2v-7.97h1.45l2.71,4.1,2.7-4.1h.01ZM16.05,40.84h3.49v-1.65h-3.49v-1.38h3.83v-1.7h-5.84v7.97h5.91v-1.7h-3.9s0-1.54,0-1.54ZM21.09,44.08h2.01v-7.97h-2.01v7.97ZM29.3,39.97c-.22-.19-.46-.34-.73-.46-.26-.12-.53-.22-.79-.31-.27-.09-.51-.18-.73-.26-.22-.09-.4-.19-.53-.3-.13-.11-.2-.26-.2-.44s.08-.32.24-.42.37-.15.65-.15.56.06.81.18.49.3.73.54l1.28-1.27c-.31-.34-.72-.61-1.2-.81-.49-.19-1.02-.29-1.6-.29s-1.08.1-1.52.29c-.43.2-.77.47-1.02.83-.24.36-.37.79-.37,1.3,0,.4.07.73.2,1,.14.27.31.49.53.67.22.18.46.33.73.45s.53.23.8.31c.27.09.51.18.73.27s.4.2.53.33c.13.12.2.28.2.47,0,.2-.09.36-.28.48-.18.12-.44.17-.78.17-.4,0-.75-.08-1.07-.23-.31-.15-.61-.38-.89-.67l-1.27,1.28c.4.43.85.75,1.34.96.49.2,1.07.3,1.74.3,1,0,1.78-.22,2.34-.65s.84-1.05.84-1.84c0-.4-.07-.75-.2-1.03-.13-.28-.31-.52-.53-.71h.02ZM30.28,37.84h2.44v6.24h2.01v-6.24h2.44v-1.73h-6.89s0,1.73,0,1.73ZM40.09,40.84h3.5v-1.65h-3.5v-1.38h3.83v-1.7h-5.84v7.97h5.91v-1.7h-3.9s0-1.54,0-1.54ZM51.77,44.08h-2.33l-2.19-3.23h-.12v3.23h-2.01v-7.97h3.39c.54,0,1.01.1,1.42.3s.73.48.96.83c.23.35.35.76.35,1.24s-.12.89-.35,1.24c-.24.36-.56.63-.98.83-.18.09-.38.14-.59.19l2.45,3.33h0ZM49.26,38.44c0-.27-.09-.49-.26-.66-.18-.17-.43-.25-.76-.25h-1.1v1.81h1.1c.33,0,.58-.08.76-.24s.26-.38.26-.66ZM57.19,39.97c-.22-.19-.46-.34-.72-.46-.26-.12-.53-.22-.79-.31-.27-.09-.51-.18-.73-.26-.22-.09-.4-.19-.53-.3-.13-.11-.2-.26-.2-.44s.08-.32.24-.42.37-.15.65-.15.56.06.81.18.49.3.73.54l1.28-1.27c-.31-.34-.72-.61-1.2-.81-.49-.19-1.02-.29-1.6-.29s-1.08.1-1.52.29c-.43.2-.77.47-1.02.83-.24.36-.37.79-.37,1.3,0,.4.07.73.2,1s.31.49.53.67c.22.18.46.33.73.45s.53.23.8.31c.27.09.51.18.73.27s.4.2.53.33c.13.12.2.28.2.47,0,.2-.09.36-.28.48-.18.12-.44.17-.78.17-.4,0-.75-.08-1.07-.23-.31-.15-.61-.38-.89-.67l-1.27,1.28c.4.43.85.75,1.34.96.49.2,1.07.3,1.74.3,1,0,1.78-.22,2.34-.65s.84-1.05.84-1.84c0-.4-.07-.75-.2-1.03s-.31-.52-.53-.71h0ZM63.85,42.24c-.28.12-.61.17-.99.17-.32,0-.62-.05-.88-.16-.27-.11-.5-.27-.69-.47-.2-.21-.35-.45-.46-.74-.11-.28-.16-.6-.16-.96s.05-.67.16-.96c.11-.28.26-.53.46-.74.19-.21.42-.36.69-.47s.56-.16.88-.16c.37,0,.7.06.98.18s.51.28.7.49l1.35-1.35c-.38-.35-.82-.63-1.33-.83-.5-.2-1.07-.3-1.7-.3s-1.16.1-1.67.31c-.51.21-.96.5-1.35.87s-.69.8-.9,1.3c-.21.5-.32,1.04-.32,1.64s.11,1.13.32,1.63.51.94.9,1.31c.39.37.84.66,1.35.87s1.08.31,1.69.31c.66,0,1.23-.1,1.72-.29.49-.19.93-.47,1.32-.82l-1.35-1.35c-.2.22-.45.38-.73.5v.02ZM71.67,39.16h-2.87v-3.05h-2.01v7.97h2.01v-3.24h2.87v3.24h2.01v-7.97h-2.01v3.05ZM82.6,44.08h-2.1l-.48-1.39h-2.96l-.49,1.39h-2.06l3.09-7.97h1.94l3.06,7.97ZM79.47,41.09l-.91-2.66-.94,2.66h1.85ZM84.94,36.11h-1.6v7.97h2.01v-2.98h3.53v-1.7h-3.53v-1.6h3.71v-1.7h-4.12ZM89.36,37.84h2.44v6.24h2.01v-6.24h2.44v-1.73h-6.89s0,1.73,0,1.73ZM99.17,40.84h3.49v-1.65h-3.49v-1.38h3.83v-1.7h-5.84v7.97h5.91v-1.7h-3.9s0-1.54,0-1.54ZM109.18,36.11v4.53l-3.57-4.53h-1.4v7.97h2.01v-4.43l3.48,4.43h1.49v-7.97h-2.01ZM111.17,19.35v13h-2.44l-5.68-7.22v7.22h-3.28v-13h2.29l5.83,7.39v-7.39s3.28,0,3.28,0ZM85.28,20.01c.24-.24.5-.45.77-.66h-14.06v2.82h6.39v10.18h3.28v-10.18h2.05c.4-.81.92-1.54,1.56-2.17h.01ZM97.68,23.18c-.35-.82-.83-1.53-1.46-2.15-.62-.61-1.36-1.08-2.2-1.42s-1.77-.5-2.77-.5-1.93.17-2.77.5c-.84.34-1.58.81-2.2,1.42-.62.61-1.11,1.32-1.46,2.14-.35.81-.52,1.7-.52,2.65s.18,1.84.53,2.67.85,1.54,1.48,2.15c.63.61,1.37,1.09,2.21,1.43s1.77.51,2.77.51,1.9-.17,2.74-.5c.84-.34,1.57-.81,2.19-1.43s1.11-1.34,1.46-2.15c.35-.82.52-1.71.52-2.66s-.17-1.84-.52-2.66h0ZM94.41,27.84c-.29.57-.71,1.02-1.25,1.34s-1.17.48-1.91.48c-.55,0-1.05-.09-1.49-.27-.44-.18-.82-.43-1.14-.77s-.56-.74-.72-1.21c-.17-.47-.25-1-.25-1.59,0-.76.15-1.42.44-2,.29-.57.71-1.02,1.25-1.33s1.17-.47,1.91-.47c.55,0,1.05.09,1.49.27.44.18.82.44,1.14.78s.56.74.72,1.2c.17.46.25.98.25,1.54,0,.77-.15,1.44-.44,2.02h0ZM72.17,23.97v3.77l-11.9-8.39h-2.29v13h3.28v-8.3l11.75,8.3h2.44v-8.38s-3.28,0-3.28,0ZM56.23,32.35v-13h-3.28v13h3.28ZM46.95,26.04l-4.42-6.69h-2.37v2.3c.56.75.98,1.58,1.24,2.5.29,1.02.35,2.13.19,3.28-.16,1.16-.53,2.21-1.09,3.12-.11.17-.22.33-.34.5v1.31h3.26v-6.65l2.46,3.72h2.12l3.2-4.8v-5.02l-4.25,6.44h0ZM40.01,24.54c-.23-.84-.62-1.58-1.16-2.24s-1.2-1.2-1.99-1.62c-.79-.43-1.68-.71-2.68-.85l-2.05-.29-2.82-.4c-.24-.03-.46.13-.49.37l-1.14,8.14,1.78,4.64.72.1.14.02,2.09.29c.98.14,1.91.11,2.78-.08.87-.19,1.66-.53,2.35-1.01.7-.48,1.27-1.09,1.73-1.83s.75-1.59.89-2.56c.13-.96.08-1.85-.15-2.69h0ZM36.84,26.74c-.11.79-.35,1.44-.72,1.95-.37.51-.84.87-1.42,1.07-.58.2-1.23.25-1.96.15l-2.03-.29,1.02-7.28,2.03.29c.73.1,1.34.33,1.83.68s.85.82,1.07,1.4.28,1.26.17,2.03h0ZM22.95,19.35h-3.17l-5.04,13h3.36l.8-2.27h4.83l.78,2.27h3.43s-4.99-13-4.99-13ZM19.81,27.47l1.53-4.34,1.49,4.34h-3.02ZM13.56,26.09c-.27-.27-.61-.48-.98-.67.26-.14.5-.3.69-.49.59-.57.89-1.29.89-2.15,0-.65-.16-1.23-.48-1.74s-.77-.92-1.37-1.23c-.59-.31-1.29-.46-2.1-.46h-5.9v13h5.78c.9,0,1.69-.16,2.36-.5.67-.33,1.18-.78,1.55-1.35s.55-1.22.55-1.95c0-.99-.33-1.81-.99-2.47h0ZM7.55,21.79h1.89c.43,0,.78.11,1.05.32.28.21.41.55.41,1s-.14.79-.41,1c-.28.21-.63.32-1.05.32h-1.89s0-2.64,0-2.64ZM10.86,29.48c-.3.29-.71.43-1.22.43h-2.09v-3.12h2.09c.34,0,.64.06.89.19.25.13.44.31.58.55.13.24.2.51.2.82,0,.46-.15.84-.45,1.13ZM36.67,10.38c-.2-.45-.47-.84-.83-1.17-.35-.33-.77-.58-1.25-.76s-1.01-.27-1.58-.27h-3.05v7.4h3.07c.56,0,1.08-.09,1.56-.27s.89-.43,1.25-.76c.35-.33.63-.72.83-1.17s.3-.96.3-1.51-.1-1.05-.3-1.5h0ZM34.8,13.03c-.17.32-.41.55-.71.71-.31.16-.67.24-1.09.24h-1.17v-4.18h1.17c.42,0,.78.08,1.09.24s.54.39.71.7c.17.31.26.69.26,1.13s-.08.84-.25,1.15h0ZM39.77,14.01h3.62v1.58h-5.49v-7.4h5.43v1.58h-3.56v1.28h3.24v1.53h-3.24v1.43ZM48.76,8.19h1.88v4.46c0,.59-.13,1.12-.4,1.58-.26.46-.63.82-1.1,1.09-.47.26-1.02.39-1.65.39s-1.18-.13-1.65-.39c-.48-.26-.85-.62-1.11-1.09-.26-.47-.4-.99-.4-1.59v-4.44h1.86v4.58c0,.26.06.49.17.68.11.19.27.34.47.44.2.1.42.15.66.15s.47-.05.66-.15c.19-.1.34-.25.45-.43.11-.19.17-.41.17-.68v-4.59h0ZM55.47,9.8v5.79h-1.87v-5.79h-2.26v-1.61h6.4v1.61h-2.27ZM63.3,12.43c.13.26.19.58.19.96,0,.74-.26,1.31-.78,1.71s-1.24.61-2.18.61c-.62,0-1.16-.09-1.61-.28-.46-.19-.87-.48-1.25-.89l1.18-1.19c.26.27.53.48.82.62s.62.21.99.21c.31,0,.55-.05.73-.16s.26-.26.26-.44c0-.17-.06-.32-.19-.43s-.29-.22-.5-.3c-.21-.09-.43-.17-.68-.25s-.49-.18-.74-.29-.47-.26-.68-.42c-.21-.17-.37-.38-.5-.63-.12-.25-.19-.56-.19-.93,0-.47.11-.88.34-1.21s.54-.59.94-.77c.4-.18.87-.27,1.41-.27s1.03.09,1.48.27.82.43,1.12.75l-1.19,1.18c-.22-.22-.45-.39-.68-.5s-.48-.17-.75-.17-.46.05-.61.14-.22.22-.22.39.06.3.19.41c.13.1.29.2.5.28s.43.16.68.25c.25.08.49.18.74.29.24.11.47.25.67.43.2.17.37.39.5.66v-.03ZM69.66,13.42l1.25,1.25c-.36.33-.77.58-1.23.76s-.99.27-1.6.27c-.56,0-1.09-.1-1.57-.29s-.9-.46-1.26-.8-.64-.75-.83-1.22c-.2-.47-.3-.97-.3-1.51s.1-1.06.3-1.52c.2-.46.48-.86.83-1.2.36-.34.78-.61,1.25-.8.48-.19.99-.29,1.55-.29s1.11.09,1.58.28c.47.18.88.44,1.23.77l-1.25,1.25c-.17-.19-.39-.35-.65-.46s-.56-.17-.91-.17c-.3,0-.57.05-.82.15-.25.1-.46.24-.64.43-.18.19-.32.42-.42.68s-.15.56-.15.89.05.62.15.89c.1.26.24.49.42.68.18.19.39.34.64.44s.52.15.82.15c.35,0,.65-.05.92-.16.26-.11.49-.26.68-.46h.01ZM76.25,8.19h1.87v7.4h-1.87v-3h-2.66v3h-1.87v-7.4h1.87v2.83h2.66v-2.83ZM84.92,14.01v1.58h-5.49v-7.4h5.4v1.58h-3.53v1.28h3.11v1.53h-3.11v1.43s3.62,0,3.62,0ZM25.1,15.92c-.6,0-1.1-.2-1.48-.6-.38-.4-.58-.89-.58-1.48s.19-1.08.58-1.48.88-.6,1.48-.6,1.08.2,1.46.6h0c.38.4.58.89.58,1.48s-.19,1.08-.58,1.48c-.38.4-.88.6-1.46.6ZM25.1,12.22c-.48,0-.86.15-1.16.46s-.45.69-.45,1.17.15.85.45,1.17c.3.31.68.46,1.16.46s.84-.15,1.14-.46.45-.7.45-1.17-.15-.85-.45-1.17c-.3-.31-.68-.46-1.14-.46ZM21.33,15.72h-3.66v-2.66h-6.11l.02-2.12L15.71,2.27h4.02l-3.73,7.61h1.66v-2.44h3.66v2.44h1.25v3.18h-1.25v2.66h.01ZM18.12,15.28h2.76v-2.66h1.25v-2.29h-1.25v-2.44h-2.76v2.44h-2.82l3.73-7.61h-3.02l-3.99,8.38v1.52h6.11v2.66h-.01ZM8.38,15.72h-3.84l3.9-10.28H2.95v-3.18h9.57v2.1s-4.14,11.36-4.14,11.36ZM5.19,15.28h2.88l4.01-11.03v-1.53H3.4v2.29h5.69l-3.9,10.28h0ZM80.21,49.67c-.24-.15-.51-.23-.81-.23-.25,0-.47.05-.67.16-.15.08-.25.21-.35.33v-2.08h-.76v4.98h.76v-.42c.1.12.19.25.34.32.2.11.42.16.68.16.3,0,.57-.08.81-.23.24-.15.43-.36.57-.62s.21-.55.21-.88-.07-.62-.21-.88c-.14-.26-.33-.47-.57-.62h0ZM80.09,51.7c-.08.15-.19.27-.33.36-.14.08-.3.13-.49.13s-.35-.04-.49-.13-.25-.2-.33-.36c-.08-.15-.12-.33-.12-.53s.04-.37.12-.53c.08-.15.19-.27.33-.36s.31-.13.49-.13.35.04.49.13c.14.08.25.2.33.36.08.15.12.33.12.53s-.04.37-.12.53ZM83.76,49.51h.84l-1.54,3.35-.62,1.35h-.84l.83-1.72-1.26-2.99h.84l.85,2.16.9-2.16h0ZM90.39,47.99l-1.77,2.71v2.14h-.8v-2.11l-1.78-2.74h.92l1.26,1.98,1.26-1.98s.91,0,.91,0ZM94.63,48.64c-.23-.23-.49-.41-.79-.53-.3-.13-.62-.19-.96-.19s-.67.06-.97.19c-.3.13-.56.3-.78.53s-.4.49-.53.79-.19.62-.19.97.06.67.19.97.3.57.53.8.49.41.79.54.62.19.97.19.66-.06.96-.19.56-.31.78-.53c.22-.23.4-.49.53-.79s.19-.63.19-.97-.06-.67-.19-.97c-.13-.3-.3-.57-.53-.8h0ZM94.32,51.31c-.14.26-.33.46-.58.61s-.53.22-.86.22c-.24,0-.46-.04-.66-.13-.2-.09-.38-.2-.52-.36-.15-.15-.26-.34-.34-.55-.08-.21-.12-.45-.12-.7,0-.34.07-.64.21-.9.14-.26.33-.46.58-.61.25-.14.53-.22.85-.22.24,0,.47.04.67.12.2.08.38.2.52.36.15.15.26.34.34.55.08.21.12.44.12.7,0,.34-.07.64-.21.9h0ZM99.27,47.99h.79v4.84h-.55l-2.56-3.34v3.34h-.8v-4.84h.55l2.56,3.34v-3.34h.01ZM101.91,52.1h2.46v.73h-3.26v-4.84h3.22v.73h-2.43v1.29h2.23v.7h-2.23v1.4h.01ZM108.41,52.83l-1.3-1.96-1.38,1.96h-.89l1.77-2.48-1.68-2.36h.94l1.27,1.8,1.23-1.8h.89l-1.62,2.32,1.7,2.52s-.93,0-.93,0ZM111.08,51.61c.08-.07.11-.16.11-.27s-.04-.2-.11-.26c-.08-.07-.17-.1-.29-.1h-.48v1.28h.21v-.54h.05l.44.54h.27l-.46-.55c.1,0,.19-.03.26-.09h0ZM110.52,51.53v-.38h.26c.06,0,.11.02.15.06s.06.08.06.13c0,.06-.02.11-.06.14s-.09.05-.15.05h-.26ZM111.77,51.01c-.1-.18-.25-.33-.43-.44-.18-.11-.39-.16-.63-.16s-.45.05-.63.16-.32.25-.42.44c-.1.18-.15.39-.15.62s.05.44.16.62c.1.19.25.33.43.44.18.11.39.16.62.16s.45-.05.63-.16.32-.25.43-.44c.1-.19.16-.4.16-.62s-.05-.44-.16-.62h-.01ZM111.61,52.16c-.09.16-.21.29-.36.38s-.33.14-.54.14-.38-.05-.53-.14-.27-.22-.36-.38c-.09-.16-.13-.34-.13-.53s.04-.37.13-.53.21-.28.36-.37.33-.14.53-.14.38.05.54.14c.15.09.27.22.36.37.09.16.13.33.13.53s-.04.37-.13.53Z"/>
    <g id="Flagge">
      <rect class="st1" x="4.3" y="46.79" width="71.21" height="1.58"/>
      <rect class="st4" x="4.3" y="49.66" width="71.18" height="1.54"/>
      <rect class="st3" x="4.3" y="52.63" width="71.18" height="1.58"/>
    </g>
  </g>
</svg>