<?xml version="1.0" encoding="UTF-8" standalone="no"?>
<svg
   xmlns:osb="http://www.openswatchbook.org/uri/2009/osb"
   xmlns:dc="http://purl.org/dc/elements/1.1/"
   xmlns:cc="http://creativecommons.org/ns#"
   xmlns:rdf="http://www.w3.org/1999/02/22-rdf-syntax-ns#"
   xmlns:svg="http://www.w3.org/2000/svg"
   xmlns="http://www.w3.org/2000/svg"
   xmlns:sodipodi="http://sodipodi.sourceforge.net/DTD/sodipodi-0.dtd"
   xmlns:inkscape="http://www.inkscape.org/namespaces/inkscape"
   id="Ebene_1"
   data-name="Ebene 1"
   viewBox="0 0 141.73 85.04"
   version="1.1"
   sodipodi:docname="DBM_Schriftzug_mit_73_wiess.svg"
   inkscape:version="0.92.5 (2060ec1f9f, 2020-04-08)">
  <metadata
     id="metadata18">
    <rdf:RDF>
      <cc:Work
         rdf:about="">
        <dc:format>image/svg+xml</dc:format>
        <dc:type
           rdf:resource="http://purl.org/dc/dcmitype/StillImage" />
        <dc:title></dc:title>
      </cc:Work>
    </rdf:RDF>
  </metadata>
  <sodipodi:namedview
     pagecolor="#ffffff"
     bordercolor="#666666"
     borderopacity="1"
     objecttolerance="10"
     gridtolerance="10"
     guidetolerance="10"
     inkscape:pageopacity="0"
     inkscape:pageshadow="2"
     inkscape:window-width="5120"
     inkscape:window-height="2096"
     id="namedview16"
     showgrid="false"
     inkscape:zoom="21.008863"
     inkscape:cx="70.864998"
     inkscape:cy="42.139209"
     inkscape:window-x="0"
     inkscape:window-y="27"
     inkscape:window-maximized="1"
     inkscape:current-layer="Ebene_1" />
  <defs
     id="defs4">
    <linearGradient
       id="linearGradient2294"
       osb:paint="solid">
      <stop
         style="stop-color:#dfdfdf;stop-opacity:1;"
         offset="0"
         id="stop2292" />
    </linearGradient>
    <style
       id="style2">
      .cls-1 {
        fill: #1d1d1b;
      }

      .cls-2 {
        fill: #ffe802;
      }

      .cls-3 {
        fill: #c12120;
      }
    </style>
  </defs>
  <path
     class="cls-1"
     d="M35.35,28.87c-.66,0-1.2-.22-1.62-.66-.42-.43-.63-.98-.63-1.62s.21-1.18.63-1.62c.42-.44.97-.66,1.62-.66s1.18.22,1.6.66c.42.43.63.98.63,1.62s-.21,1.18-.63,1.62c-.42.44-.96.66-1.6.66ZM35.35,24.85c-.51,0-.92.16-1.24.5-.33.34-.48.75-.48,1.25s.16.91.48,1.25c.32.33.73.5,1.24.5s.9-.16,1.22-.5c.33-.34.48-.75.48-1.25s-.16-.91-.48-1.25h0c-.32-.33-.72-.5-1.22-.5ZM26.47,28.87c-1.02,0-1.98-.18-2.85-.53-.87-.35-1.62-.86-2.22-1.51l-.18-.19,2.68-2.63.18.26c.21.31.53.56.96.76.8.37,1.76.4,2.43.1.3-.13.52-.32.69-.56.16-.24.24-.54.24-.88s-.08-.63-.25-.87c-.17-.24-.41-.42-.73-.55-.51-.2-1.22-.24-2-.15-.26.03-.47.08-.62.13l-.36.14v-2.44l2.09-2.45h-4.22v-3.5h9.81v2.3l-2.84,3.22c.44.08.82.23,1.15.42h0c.61.36,1.1.88,1.45,1.54.35.65.53,1.43.53,2.3,0,1-.25,1.9-.74,2.66-.49.76-1.19,1.37-2.09,1.79-.89.42-1.93.63-3.11.63ZM21.96,26.66c.52.51,1.14.91,1.86,1.2.8.32,1.69.49,2.65.49,1.1,0,2.07-.2,2.88-.58.8-.38,1.43-.92,1.87-1.6.43-.68.66-1.48.66-2.38,0-.79-.16-1.48-.47-2.05-.31-.57-.73-1.02-1.26-1.33-.39-.23-.86-.37-1.43-.42l-.52-.05,3.37-3.83v-1.57h-8.75v2.44h4.84l-2.71,3.17v1.5c.12-.02.25-.05.39-.06.87-.1,1.66-.05,2.26.19.41.17.74.42.97.74.23.33.35.73.35,1.18s-.11.84-.33,1.17c-.22.33-.52.58-.91.75-.81.36-1.93.33-2.87-.1-.4-.18-.73-.42-.98-.69l-1.87,1.84ZM17,28.65h-4.21l4.23-11.15h-5.95v-3.5h10.42l-.02,2.31-4.48,12.34ZM13.55,28.13h3.08l4.34-11.95v-1.64h-9.37v2.44h6.18l-4.23,11.15ZM40.52,55.95c.15.31.22.69.22,1.13,0,.87-.31,1.54-.92,2.02-.61.48-1.47.71-2.57.71-.73,0-1.36-.11-1.9-.33-.54-.22-1.03-.57-1.47-1.05l1.39-1.4c.3.32.63.56.97.73.34.17.73.25,1.17.25.37,0,.65-.06.86-.19.2-.13.3-.3.3-.52,0-.21-.07-.38-.22-.51-.15-.14-.34-.25-.58-.36-.24-.1-.51-.2-.8-.3-.29-.09-.58-.21-.87-.34-.29-.14-.56-.3-.8-.5-.24-.2-.44-.44-.58-.74-.15-.3-.22-.66-.22-1.1,0-.56.13-1.03.4-1.43.27-.39.64-.7,1.11-.91.48-.21,1.03-.32,1.66-.32s1.21.11,1.75.32c.53.21.97.51,1.32.89l-1.4,1.39c-.26-.26-.53-.46-.8-.59-.27-.13-.57-.2-.89-.2s-.54.05-.71.16c-.17.11-.26.26-.26.46s.07.36.22.48c.15.12.34.23.58.33.24.09.51.19.8.29.29.1.58.21.87.34.29.13.55.3.79.5.24.21.44.46.58.78ZM41.02,52.85h2.67v6.83h2.2v-6.83h2.67v-1.89h-7.54v1.89ZM127.39,55.91l-3.91-4.96h-1.54v8.72h2.2v-4.85l3.81,4.85h1.64v-8.72h-2.2v4.96ZM110.56,59.67v-6.83h2.67v-1.89h-7.54v1.89h2.67v6.83h2.2ZM30.95,59.67h2.2v-8.72h-2.2v8.72ZM114.22,59.67h6.47v-1.86h-4.27v-1.69h3.83v-1.81h-3.83v-1.51h4.2v-1.86h-6.4v8.72ZM25.44,56.13h3.83v-1.81h-3.83v-1.51h4.2v-1.86h-6.4v8.72h6.47v-1.86h-4.27v-1.69ZM17.14,55.44l-2.97-4.49h-1.59v8.72h2.19v-4.46l1.65,2.49h1.43l1.66-2.5v4.46h2.18v-8.72h-1.59l-2.96,4.49ZM51.76,56.13h3.83v-1.81h-3.83v-1.51h4.2v-1.86h-6.4v8.72h6.47v-1.86h-4.27v-1.69ZM86.32,54.29h-3.14v-3.33h-2.2v8.72h2.2v-3.54h3.14v3.54h2.2v-8.72h-2.2v3.33ZM105.17,54.56h-3.86v-1.75h4.06v-1.86h-6.26v8.72h2.2v-3.26h3.86v-1.86ZM77.76,57.66c-.31.13-.67.19-1.08.19-.35,0-.67-.06-.97-.18-.29-.12-.54-.29-.76-.52-.21-.23-.38-.49-.5-.81-.12-.31-.18-.66-.18-1.05s.06-.73.18-1.05c.12-.31.28-.58.5-.81.21-.23.47-.4.76-.51.29-.12.61-.17.97-.17.41,0,.77.07,1.07.2.3.13.56.31.76.54l1.48-1.48c-.42-.39-.9-.69-1.45-.9-.55-.22-1.17-.33-1.86-.33s-1.27.11-1.83.34c-.56.23-1.05.55-1.48.95-.42.4-.75.88-.98,1.42-.23.55-.35,1.14-.35,1.79s.12,1.23.35,1.78c.23.55.56,1.03.98,1.43.42.41.92.72,1.48.95s1.18.34,1.85.34c.72,0,1.35-.11,1.89-.32.54-.21,1.02-.51,1.45-.9l-1.48-1.48c-.22.24-.49.42-.8.55ZM61.86,56.03l2.68,3.64h-2.55l-2.39-3.53h-.13v3.53h-2.2v-8.72h3.72c.59,0,1.11.11,1.56.33.45.22.8.53,1.05.91.25.39.38.84.38,1.35s-.13.97-.39,1.36c-.26.39-.62.69-1.08.91-.2.09-.42.16-.65.21ZM61.79,53.5c0-.3-.1-.54-.29-.72-.19-.18-.47-.28-.83-.28h-1.21v1.98h1.21c.36,0,.64-.09.83-.26.19-.18.29-.42.29-.72ZM95.47,58.15h-3.24l-.54,1.53h-2.25l3.38-8.72h2.13l3.35,8.72h-2.3l-.52-1.53ZM94.87,56.4l-1-2.91-1.03,2.91h2.03ZM70.47,55.17c-.24-.2-.51-.37-.79-.5-.29-.13-.58-.25-.87-.34-.29-.1-.56-.19-.8-.29-.24-.09-.44-.2-.58-.33-.15-.12-.22-.28-.22-.48s.09-.35.26-.46c.17-.11.41-.16.71-.16.32,0,.61.07.89.2.27.13.54.33.8.59l1.4-1.39c-.34-.38-.78-.67-1.32-.89-.53-.21-1.12-.32-1.75-.32s-1.18.11-1.66.32c-.48.21-.85.52-1.11.91-.27.39-.4.87-.4,1.43,0,.43.07.8.22,1.1.15.29.34.54.58.74.24.2.51.36.8.5.29.14.58.25.87.34.29.09.56.19.8.3.24.1.44.22.58.36.15.14.22.31.22.51,0,.22-.1.4-.3.52-.2.13-.49.19-.85.19-.43,0-.82-.08-1.17-.25-.34-.17-.67-.41-.97-.73l-1.39,1.4c.44.48.93.82,1.47,1.05.54.22,1.17.33,1.9.33,1.1,0,1.95-.24,2.57-.71.61-.48.92-1.15.92-2.02,0-.44-.07-.82-.22-1.13-.15-.31-.34-.57-.58-.78ZM120.68,38.93l6.22,7.91h2.67v-14.23h-3.59v8.09l-6.38-8.09h-2.51v14.23h3.59v-7.91ZM52.21,44.86c-.12.19-.24.36-.37.54v1.43h3.57v-7.28l2.69,4.07h2.32l3.5-5.26v-5.49l-4.65,7.05-4.84-7.32h-2.59v2.52c.61.82,1.08,1.73,1.36,2.74.31,1.12.38,2.33.21,3.59-.18,1.27-.58,2.42-1.19,3.41ZM86.67,35.69h6.99v11.14h3.59v-11.14h2.25c.44-.88,1.01-1.68,1.71-2.37.26-.26.55-.49.85-.72h-15.4v3.09ZM65.83,46.83h3.59v-14.23h-3.59v14.23ZM100.73,36.79c.38-.89.91-1.67,1.6-2.34.68-.67,1.49-1.19,2.41-1.56.92-.37,1.93-.55,3.03-.55s2.11.18,3.03.55c.92.37,1.73.89,2.41,1.56.68.67,1.21,1.45,1.6,2.35.38.9.57,1.87.57,2.91s-.19,2.01-.57,2.91c-.38.9-.91,1.68-1.6,2.36-.68.68-1.48,1.2-2.4,1.57-.92.37-1.92.55-3,.55s-2.11-.19-3.03-.56c-.92-.37-1.73-.9-2.42-1.57-.69-.67-1.23-1.46-1.62-2.36-.39-.9-.58-1.88-.58-2.92s.19-2.01.57-2.9ZM103.83,39.69c0,.64.09,1.22.27,1.74.18.52.44.96.79,1.32.35.37.76.65,1.24.84.48.19,1.02.29,1.63.29.8,0,1.5-.17,2.09-.52.59-.35,1.04-.84,1.36-1.47.32-.63.48-1.36.48-2.21,0-.62-.09-1.18-.27-1.69-.18-.51-.44-.95-.79-1.31-.35-.37-.76-.65-1.24-.85-.48-.2-1.02-.3-1.63-.3-.8,0-1.5.17-2.09.51s-1.04.83-1.36,1.46c-.32.63-.48,1.36-.48,2.19ZM34.7,46.83l-.86-2.49h-5.29l-.88,2.49h-3.67l5.52-14.23h3.47l5.46,14.23h-3.75ZM32.86,41.49l-1.63-4.75-1.67,4.75h3.31ZM48.97,46.03c-.76.53-1.62.9-2.58,1.11-.96.21-1.97.24-3.04.09l-2.29-.32-.15-.02-.79-.11-1.95-5.08,1.25-8.91c.04-.26.28-.44.54-.4l3.09.43,2.25.32c1.09.15,2.06.46,2.93.93.87.47,1.59,1.06,2.18,1.78.59.72,1.01,1.53,1.27,2.45.26.91.31,1.9.16,2.94-.15,1.06-.47,1.99-.97,2.8-.5.81-1.13,1.48-1.89,2ZM48.02,38.47c-.24-.64-.63-1.15-1.17-1.53-.54-.39-1.21-.64-2-.75l-2.23-.31-1.12,7.97,2.23.31c.79.11,1.51.06,2.14-.17.63-.22,1.15-.61,1.55-1.17.4-.56.66-1.27.79-2.13.12-.85.06-1.59-.18-2.22ZM74.94,37.75l12.86,9.08h2.67v-9.17h-3.59v4.12l-13.02-9.18h-2.51v14.23h3.59v-9.08ZM23.8,42.68c0,.8-.2,1.52-.6,2.14-.4.62-.97,1.11-1.7,1.48-.73.36-1.59.54-2.58.54h-6.32v-14.23h6.46c.88,0,1.65.17,2.3.5.65.33,1.15.78,1.5,1.34.35.56.52,1.2.52,1.91,0,.95-.32,1.74-.97,2.36-.22.21-.48.38-.76.53.41.2.77.44,1.07.73.72.72,1.08,1.62,1.08,2.7ZM16.13,38.16h2.07c.47,0,.85-.12,1.15-.35.3-.23.45-.6.45-1.09s-.15-.86-.45-1.09c-.3-.23-.69-.35-1.15-.35h-2.07v2.89ZM20.25,42.46c0-.33-.07-.63-.22-.89-.15-.26-.36-.46-.63-.6-.27-.14-.6-.21-.97-.21h-2.29v3.41h2.29c.56,0,1.01-.16,1.33-.47.33-.31.49-.73.49-1.23ZM66.55,28.48h2.04v-6.34h2.48v-1.76h-7v1.76h2.48v6.34ZM72.31,24.42c.22.18.47.34.74.46.27.13.54.23.81.32.27.09.52.18.74.27.22.1.41.21.54.33.14.13.21.28.21.47,0,.21-.09.37-.28.49-.19.12-.45.18-.79.18-.4,0-.77-.08-1.09-.23-.32-.16-.62-.38-.9-.68l-1.29,1.3c.41.44.87.77,1.36.97.5.21,1.09.31,1.76.31,1.02,0,1.81-.22,2.38-.66s.85-1.07.85-1.87c0-.41-.07-.76-.21-1.05-.14-.29-.32-.53-.54-.72-.22-.19-.47-.35-.74-.47-.27-.12-.54-.23-.81-.32-.27-.09-.52-.18-.74-.27-.22-.09-.41-.19-.54-.3-.14-.11-.21-.26-.21-.45s.08-.32.24-.42c.16-.1.38-.15.66-.15.3,0,.57.06.82.18.25.12.5.3.74.55l1.3-1.29c-.32-.35-.73-.62-1.22-.82-.5-.2-1.04-.3-1.62-.3s-1.1.1-1.54.3c-.44.2-.79.48-1.03.85-.25.37-.37.81-.37,1.33,0,.4.07.74.21,1.02.14.27.32.5.54.69ZM79.31,27.41c.39.38.85.67,1.38.88.53.21,1.1.31,1.71.31.67,0,1.25-.1,1.75-.3.5-.2.95-.48,1.34-.83l-1.37-1.37c-.21.22-.45.39-.74.51-.29.12-.62.18-1.01.18-.33,0-.63-.06-.9-.17s-.5-.27-.7-.48c-.2-.21-.35-.46-.46-.75-.11-.29-.17-.61-.17-.97s.06-.68.17-.97c.11-.29.26-.54.46-.75.2-.21.43-.37.7-.47.27-.11.57-.16.9-.16.38,0,.71.06.99.18.28.12.52.29.71.5l1.37-1.37c-.39-.36-.84-.64-1.35-.84-.51-.2-1.09-.3-1.72-.3s-1.17.11-1.7.32c-.52.21-.98.51-1.37.88-.39.37-.7.81-.91,1.32-.22.51-.33,1.06-.33,1.66s.11,1.15.33,1.66c.22.51.52.95.91,1.33ZM88.42,25.19h2.91v3.29h2.04v-8.1h-2.04v3.1h-2.91v-3.1h-2.04v8.1h2.04v-3.29ZM51.41,28.48h3.96v-1.72h-3.96v-1.56h3.55v-1.68h-3.55v-1.4h3.89v-1.72h-5.94v8.1h2.04ZM42.05,28.48h-1.38v-8.1h3.34c.62,0,1.2.1,1.72.29.53.19.98.47,1.37.83.39.36.69.78.91,1.28.22.5.33,1.04.33,1.64s-.11,1.16-.33,1.66c-.22.5-.52.92-.91,1.28-.39.36-.84.63-1.36.83-.52.19-1.09.29-1.71.29h-1.98ZM42.71,26.72h1.28c.46,0,.85-.09,1.19-.26.34-.17.6-.44.78-.78.18-.35.27-.77.27-1.26s-.09-.9-.28-1.24c-.19-.34-.45-.6-.78-.77-.34-.18-.73-.26-1.19-.26h-1.28v4.58ZM58.05,28.18c.52.29,1.12.43,1.81.43s1.3-.14,1.81-.43c.51-.29.92-.68,1.2-1.19.29-.51.43-1.08.43-1.73v-4.88h-2.06v5.03c0,.29-.06.54-.18.74-.12.21-.29.36-.49.47-.21.11-.45.17-.72.17s-.51-.06-.73-.17c-.22-.11-.39-.27-.51-.48-.13-.21-.19-.46-.19-.75v-5.01h-2.03v4.87c0,.65.14,1.23.43,1.74.29.51.69.91,1.22,1.19ZM100.83,28.48v-1.72h-3.96v-1.56h3.4v-1.68h-3.4v-1.4h3.87v-1.72h-5.91v8.1h6.01ZM104.45,66.12l-1.38-2.17h-1.01l1.95,2.99v2.31h.87v-2.34l1.94-2.96h-.99l-1.38,2.17ZM127.46,63.95h-.98l-1.35,1.97-1.39-1.97h-1.03l1.84,2.58-1.93,2.72h.98l1.51-2.15,1.42,2.15h1.02l-1.86-2.76,1.77-2.54ZM119.43,66.93h2.44v-.76h-2.44v-1.42h2.66v-.8h-3.53v5.3h3.57v-.8h-2.69v-1.53ZM96.3,66.48c.15.29.23.61.23.97s-.08.67-.23.96c-.15.28-.36.51-.63.68-.27.17-.56.25-.89.25-.28,0-.52-.06-.74-.18-.16-.09-.26-.22-.37-.35v.46h-.83v-5.45h.83v2.28c.11-.14.22-.27.38-.36.22-.12.46-.18.73-.18.33,0,.62.09.89.25.26.17.47.4.63.68ZM95.68,67.43c0-.22-.04-.41-.13-.58-.09-.17-.21-.3-.36-.39-.15-.09-.33-.14-.53-.14s-.38.05-.54.14c-.16.09-.28.22-.36.39-.09.17-.13.36-.13.58s.04.41.13.58c.09.17.21.3.36.39.16.09.34.14.54.14s.38-.05.53-.14c.15-.09.27-.22.36-.39.09-.17.13-.36.13-.58ZM98.58,67.99l-.93-2.37h-.92l1.38,3.27-.91,1.88h.92l.67-1.48,1.69-3.67h-.92l-.98,2.37ZM116.54,67.61l-2.8-3.66h-.61v5.3h.87v-3.66l2.8,3.66h.6v-5.3h-.87v3.66ZM112.04,65.54c.14.33.21.69.21,1.06s-.07.73-.21,1.06c-.14.33-.33.62-.58.87-.24.25-.53.44-.86.58-.33.14-.68.21-1.05.21s-.73-.07-1.06-.21c-.33-.14-.62-.34-.86-.59s-.44-.54-.58-.87-.21-.69-.21-1.06.07-.73.21-1.06c.14-.33.33-.62.58-.87.24-.25.53-.44.86-.58.33-.14.68-.21,1.06-.21s.73.07,1.05.21c.33.14.61.33.86.58.25.25.44.54.58.87ZM111.35,66.59c0-.28-.04-.53-.13-.76-.09-.23-.21-.43-.37-.6-.16-.17-.35-.3-.57-.39-.22-.09-.46-.14-.73-.14-.35,0-.67.08-.94.24-.27.16-.48.38-.64.66-.15.28-.23.61-.23.98,0,.28.04.53.13.77.09.23.21.44.37.6.16.17.35.3.57.39.22.09.46.14.73.14.36,0,.67-.08.94-.24.27-.16.48-.38.64-.67.15-.29.23-.61.23-.99ZM130.39,67.93c0,.25-.06.48-.17.68-.11.2-.27.37-.47.48-.2.12-.43.18-.69.18s-.48-.06-.68-.18c-.2-.12-.36-.28-.47-.48-.11-.2-.17-.43-.17-.68s.06-.48.17-.68c.11-.2.27-.36.46-.48.2-.12.43-.18.69-.18s.49.06.69.18c.2.12.36.28.47.48.11.2.17.43.17.68ZM130.19,67.93c0-.21-.05-.41-.15-.58-.1-.17-.23-.31-.4-.41-.17-.1-.36-.15-.59-.15s-.41.05-.58.15c-.17.1-.3.24-.4.41-.1.17-.14.36-.14.58s.05.41.14.58c.1.17.23.31.4.41.17.1.36.15.58.15s.42-.05.59-.15c.17-.1.3-.24.4-.41.1-.17.15-.37.15-.58ZM129.18,68.01l.5.61h-.29l-.48-.6h-.06v.6h-.23v-1.4h.52c.13,0,.24.04.32.11.08.07.12.17.12.29,0,.13-.04.22-.12.3-.08.07-.18.09-.29.1ZM129.14,67.83c.07,0,.12-.02.16-.05.04-.04.06-.09.06-.15,0-.06-.02-.11-.06-.15-.04-.04-.1-.06-.16-.06h-.28v.41h.28Z"
     id="path6"
     style="fill:#fffffe;fill-opacity:1" />
  <g
     id="Flagge">
    <rect
       class="cls-1"
       x="12.58"
       y="62.64"
       width="77.96"
       height="1.73"
       id="rect8" />
    <rect
       class="cls-3"
       x="12.58"
       y="65.78"
       width="77.92"
       height="1.68"
       id="rect10" />
    <rect
       class="cls-2"
       x="12.58"
       y="69.03"
       width="77.92"
       height="1.73"
       id="rect12" />
  </g>
</svg>
