<?xml version="1.0" encoding="UTF-8" standalone="no"?>
<!-- Created with Inkscape (http://www.inkscape.org/) -->

<svg
   xmlns:dc="http://purl.org/dc/elements/1.1/"
   xmlns:cc="http://creativecommons.org/ns#"
   xmlns:rdf="http://www.w3.org/1999/02/22-rdf-syntax-ns#"
   xmlns:svg="http://www.w3.org/2000/svg"
   xmlns="http://www.w3.org/2000/svg"
   xmlns:sodipodi="http://sodipodi.sourceforge.net/DTD/sodipodi-0.dtd"
   xmlns:inkscape="http://www.inkscape.org/namespaces/inkscape"
   width="32"
   height="32"
   viewBox="0 0 32 32.000001"
   id="svg4138"
   version="1.1"
   inkscape:version="0.91 r13725"
   sodipodi:docname="exception.svg">
  <defs
     id="defs4140" />
  <sodipodi:namedview
     id="base"
     pagecolor="#ffffff"
     bordercolor="#666666"
     borderopacity="1.0"
     inkscape:pageopacity="0.0"
     inkscape:pageshadow="2"
     inkscape:zoom="13.158327"
     inkscape:cx="12.736322"
     inkscape:cy="32.640937"
     inkscape:document-units="px"
     inkscape:current-layer="layer1"
     showgrid="false"
     inkscape:window-width="1920"
     inkscape:window-height="1033"
     inkscape:window-x="0"
     inkscape:window-y="0"
     inkscape:window-maximized="1"
     units="px"
     fit-margin-top="0"
     fit-margin-left="0"
     fit-margin-right="0"
     fit-margin-bottom="0" />
  <metadata
     id="metadata4143">
    <rdf:RDF>
      <cc:Work
         rdf:about="">
        <dc:format>image/svg+xml</dc:format>
        <dc:type
           rdf:resource="http://purl.org/dc/dcmitype/StillImage" />
        <dc:title />
      </cc:Work>
    </rdf:RDF>
  </metadata>
  <g
     inkscape:label="Layer 1"
     inkscape:groupmode="layer"
     id="layer1"
     transform="translate(-277.64891,-453.61149)">
    <path
       inkscape:connector-curvature="0"
       id="path4138"
       style="font-style:normal;font-variant:normal;font-weight:normal;font-stretch:normal;font-size:16.78355598px;line-height:100%;font-family:'Arial Black';-inkscape-font-specification:'Arial Black, ';letter-spacing:0px;word-spacing:0px;fill:#000000;fill-opacity:1;stroke:none;stroke-width:1px;stroke-linecap:butt;stroke-linejoin:miter;stroke-opacity:1"
       d="m 294.92397,469.87375 0,-12.01401 6.1873,0 q 1.72097,0 2.63063,0.29502 0.90965,0.29503 1.46692,1.09814 0.55726,0.79493 0.55726,1.94224 0,0.9998 -0.42614,1.72917 -0.42615,0.72117 -1.1719,1.1719 -0.47531,0.28682 -1.30302,0.47531 0.6638,0.22127 0.96702,0.44254 0.20488,0.14751 0.59005,0.63102 0.39336,0.48351 0.52449,0.74575 l 1.79472,3.48292 -4.19589,0 -1.98321,-3.6714 q -0.37698,-0.71298 -0.672,-0.92605 -0.40156,-0.27863 -0.90965,-0.27863 l -0.32781,0 0,4.87608 -3.72877,0 z m 3.72877,-7.14612 1.56527,0 q 0.25404,0 0.98341,-0.16391 0.36878,-0.0737 0.59824,-0.37697 0.23766,-0.30322 0.23766,-0.69658 0,-0.58186 -0.36878,-0.89327 -0.36878,-0.31141 -1.38497,-0.31141 l -1.63083,0 0,2.44214 z" />
    <rect
       style="color:#000000;display:inline;overflow:visible;visibility:visible;fill:#ffd10d;fill-opacity:1;fill-rule:nonzero;stroke:none;stroke-width:8;marker:none;enable-background:accumulate"
       id="rect3004"
       width="10.594554"
       height="14.126057"
       x="289.75201"
       y="468.43604"
       rx="0.82401991"
       ry="0.82401991" />
    <rect
       style="color:#000000;display:inline;overflow:visible;visibility:visible;fill:#ff1717;fill-opacity:1;fill-rule:nonzero;stroke:none;stroke-width:8;marker:none;enable-background:accumulate"
       id="rect3004-6"
       width="11.268182"
       height="15.024227"
       x="281.82574"
       y="459.94241"
       rx="0.87641317"
       ry="0.87641317" />
  </g>
</svg>
