<?xml version="1.0" encoding="UTF-8" standalone="no"?>
<svg
   xmlns:dc="http://purl.org/dc/elements/1.1/"
   xmlns:cc="http://creativecommons.org/ns#"
   xmlns:rdf="http://www.w3.org/1999/02/22-rdf-syntax-ns#"
   xmlns:svg="http://www.w3.org/2000/svg"
   xmlns="http://www.w3.org/2000/svg"
   xmlns:xlink="http://www.w3.org/1999/xlink"
   xmlns:sodipodi="http://sodipodi.sourceforge.net/DTD/sodipodi-0.dtd"
   xmlns:inkscape="http://www.inkscape.org/namespaces/inkscape"
   version="1.1"
   viewBox="0 0 100 100"
   id="svg2"
   inkscape:version="0.91 r13725"
   sodipodi:docname="settings.svg">
  <metadata
     id="metadata10">
    <rdf:RDF>
      <cc:Work
         rdf:about="">
        <dc:format>image/svg+xml</dc:format>
        <dc:type
           rdf:resource="http://purl.org/dc/dcmitype/StillImage" />
      </cc:Work>
    </rdf:RDF>
  </metadata>
  <defs
     id="defs8">
    <linearGradient
       inkscape:collect="always"
       id="blue">
      <stop
         style="stop-color:#5b5e69;stop-opacity:1"
         offset="0"
         id="stop4154" />
      <stop
         id="stop4160"
         offset="0.5"
         style="stop-color:#3f4155;stop-opacity:1" />
      <stop
         style="stop-color:#363961;stop-opacity:1"
         offset="1"
         id="stop4156" />
    </linearGradient>
    <linearGradient
       inkscape:collect="always"
       xlink:href="#blue"
       id="linearGradient4158"
       x1="0.0003"
       y1="50.0171"
       x2="100.0005"
       y2="50.0171"
       gradientUnits="userSpaceOnUse"
       gradientTransform="matrix(0.80508514,0,0,0.80508514,9.7458212,9.7490763)" />
  </defs>
  <sodipodi:namedview
     pagecolor="#ffffff"
     bordercolor="#666666"
     borderopacity="1"
     objecttolerance="10"
     gridtolerance="10"
     guidetolerance="10"
     inkscape:pageopacity="0"
     inkscape:pageshadow="2"
     inkscape:window-width="1920"
     inkscape:window-height="1033"
     id="namedview6"
     showgrid="false"
     inkscape:zoom="2.36"
     inkscape:cx="-93.855932"
     inkscape:cy="49.152542"
     inkscape:window-x="0"
     inkscape:window-y="0"
     inkscape:window-maximized="1"
     inkscape:current-layer="svg2" />
  <path
     d="m 50.008934,9.7490763 c -2.321785,0 -4.600176,0.2088068 -6.814402,0.5861827 l -1.080746,11.449115 c -2.289984,0.638328 -4.457354,1.53087 -6.484639,2.674493 l -8.847885,-7.308965 c -3.737125,2.64551 -7.008589,5.897973 -9.653776,9.635259 l 7.327241,8.847885 c -1.142255,2.02487 -2.054578,4.197714 -2.692769,6.484639 L 10.332165,43.20455 c -0.3775289,2.213984 -0.5861023,4.492375 -0.5861023,6.835173 0,2.326454 0.2072853,4.595828 0.5861823,6.814321 l 11.430599,1.080827 c 0.638223,2.286925 1.550594,4.459769 2.692768,6.484639 l -7.308965,8.847885 c 2.640357,3.727061 5.890083,6.994982 9.616742,9.635259 l 8.866402,-7.327321 c 2.028573,1.144589 4.193045,2.054174 6.484639,2.692768 l 1.080746,11.449116 c 2.214226,0.377424 4.492617,0.567907 6.814402,0.567907 2.321704,0 4.58182,-0.190483 6.796046,-0.567907 L 57.88637,78.268101 c 2.291675,-0.638594 4.456066,-1.548179 6.484639,-2.692768 l 8.866402,7.327321 c 3.726981,-2.640438 6.976707,-5.908359 9.616742,-9.635259 L 75.545188,64.41951 c 1.142255,-2.02487 2.054577,-4.197714 2.692768,-6.484639 l 11.430599,-1.080827 c 0.378897,-2.218493 0.586182,-4.487867 0.586182,-6.814321 0,-2.32251 -0.208573,-4.599532 -0.586182,-6.814402 L 78.237956,42.144575 C 77.599733,39.85765 76.687362,37.684806 75.545188,35.659936 l 7.327241,-8.847885 c -2.645108,-3.737447 -5.916571,-6.98983 -9.653776,-9.635259 l -8.847886,7.308965 C 62.343482,23.342134 60.176113,22.449616 57.886128,21.811264 L 56.805382,10.362149 C 54.591156,9.984773 52.331041,9.7759661 50.009336,9.7759661 Z m 0,24.9310717 c 8.466275,0 15.314329,6.865766 15.314329,15.332041 0,8.466275 -6.84749,15.332041 -15.314329,15.332041 -8.466275,0 -15.332041,-6.865766 -15.332041,-15.332041 0,-8.466275 6.865766,-15.332041 15.332041,-15.332041 z"
     id="path4"
     style="opacity:1;fill:url(#linearGradient4158);fill-opacity:1"
     inkscape:connector-curvature="0" />
</svg>
