<?xml version="1.0" encoding="UTF-8" standalone="no"?><!-- Created with Inkscape (http://www.inkscape.org/) -->

<svg
   xmlns:dc="http://purl.org/dc/elements/1.1/"
   xmlns:cc="http://creativecommons.org/ns#"
   xmlns:rdf="http://www.w3.org/1999/02/22-rdf-syntax-ns#"
   xmlns:svg="http://www.w3.org/2000/svg"
   xmlns="http://www.w3.org/2000/svg"
   xmlns:sodipodi="http://sodipodi.sourceforge.net/DTD/sodipodi-0.dtd"
   xmlns:inkscape="http://www.inkscape.org/namespaces/inkscape"
   id="svg10247"
   sodipodi:docname="shuttlecock.svg"
   viewBox="0 0 9.3750002 9.3749998"
   version="1.1"
   inkscape:version="0.92.1 r15371"
   width="10"
   height="10">
  <defs
     id="defs69" />
  <sodipodi:namedview
     id="base"
     bordercolor="#666666"
     inkscape:pageshadow="2"
     inkscape:window-y="0"
     fit-margin-left="0"
     pagecolor="#ffffff"
     fit-margin-top="0"
     inkscape:window-maximized="1"
     inkscape:zoom="15.707564"
     inkscape:window-x="0"
     inkscape:window-height="1033"
     showgrid="false"
     borderopacity="1.0"
     inkscape:current-layer="g5174"
     inkscape:cx="3.9699113"
     inkscape:cy="7.8137236"
     fit-margin-right="0"
     fit-margin-bottom="0"
     inkscape:window-width="1920"
     inkscape:pageopacity="0.0"
     inkscape:document-units="px" />
  <g
     id="layer1"
     inkscape:label="Layer 1"
     inkscape:groupmode="layer"
     transform="translate(558.44,-129.03501)">
    <g
       id="g5174"
       inkscape:export-ydpi="92.309998"
       inkscape:export-xdpi="92.309998"
       inkscape:export-filename="/home/ale/docs/src/htdocs-bc_oberurdorf/resources/bc-oberurdorf.png"
       transform="matrix(0.02681396,0,0,0.02681396,-530.34082,120.24205)">
      <g
         id="g937"
         transform="matrix(-0.62201718,0.3586795,-0.3586795,-0.62201718,-1362.544,1052.7373)">
        <path
           d="m -1175.9,253.35 -14.931,-11.316 21.502,-12.285 146.35,-4.4543 23.423,11.473 z"
           style="fill:#ffffff;stroke:#000000;stroke-width:2"
           sodipodi:nodetypes="cccccc"
           inkscape:connector-curvature="0"
           id="path4986-0-7" />
        <path
           style="fill:#ffffff;stroke:#000000;stroke-width:2"
           inkscape:connector-curvature="0"
           inkscape:transform-center-y="-35.355339"
           inkscape:transform-center-x="-11.667262"
           d="m -857.89,417.68 c 0,0 78.68,-103.86 77.68,-105.86 -1,-2 3.5,5.6213 3.5,5.6213 l -82.18,107.36 z"
           sodipodi:nodetypes="csccc"
           id="path3340-9-9-5-7-8-5-1" />
        <path
           inkscape:connector-curvature="0"
           style="fill:#ffffff;stroke:#000000;stroke-width:2"
           sodipodi:nodetypes="csccc"
           d="m -899.6,362.99 c 0,0 88.276,-70.194 87.276,-72.194 -1,-2 3.5,5.6213 3.5,5.6213 l -91.776,73.694 z"
           id="path3340-9-9-5-72-5" />
        <path
           inkscape:connector-curvature="0"
           style="fill:#ffffff;stroke:#000000;stroke-width:2"
           sodipodi:nodetypes="csccc"
           d="m -926.3,320.63 c 0,0 102.7,-50.809 101.7,-52.809 -1,-2 3.5,5.6213 3.5,5.6213 l -106.2,54.309 z"
           id="path3340-9-9-5-72" />
        <path
           inkscape:connector-curvature="0"
           style="fill:#ffffff;stroke:#000000;stroke-width:2"
           sodipodi:nodetypes="csccc"
           d="m -950.87,285.98 c 0,0 115.51,-41.092 114.51,-43.092 -1,-2 3.5,5.6213 3.5,5.6213 l -119.01,44.592 z"
           id="path3340-9-9-5-72-3" />
        <g
           id="g4449">
          <path
             inkscape:connector-curvature="0"
             style="fill:#ffffff;stroke:#000000;stroke-width:2"
             d="m -1023.7,540.96 -26.505,-7.1947 0.6361,-41.186 103.3,-95.098 44.322,-0.18928 -7.512,34.621 z"
             id="path4976-9-0" />
          <path
             d="m -1050,534.36 c -1.5,-1.5 41.5,-32 41.5,-32"
             inkscape:connector-curvature="0"
             style="fill:none;stroke:#000000;stroke-width:2"
             sodipodi:nodetypes="cc"
             id="path4447" />
        </g>
        <g
           id="g4431">
          <path
             inkscape:connector-curvature="0"
             style="fill:#ffffff;stroke:#000000;stroke-width:2"
             sodipodi:nodetypes="ccccccc"
             d="m -1159.2,291.47 -25.427,-11.878 8.7949,-26.272 163.06,-15.787 24.095,0.5604 -12.702,30.104 z"
             id="path4982-0-8-2" />
          <path
             d="m -1184.2,279.22 c 0.4662,-1.0287 50.736,-9.6249 50.736,-9.6249"
             style="fill:none;stroke:#000000;stroke-width:2"
             inkscape:connector-curvature="0"
             sodipodi:nodetypes="cc"
             id="path8315-0-7" />
        </g>
        <g
           transform="translate(0,0.5)"
           id="g4411">
          <path
             inkscape:connector-curvature="0"
             style="fill:#ffffff;stroke:#000000;stroke-width:2"
             sodipodi:nodetypes="cccccc"
             d="m -977.01,570.14 -37.773,-1.5188 1.5431,-37.181 106.79,-101.67 31.286,-4.6675 z"
             id="path4974-7-9" />
          <path
             d="m -1013.7,567.77 25.286,-24.53"
             inkscape:connector-curvature="0"
             style="fill:none;stroke:#000000;stroke-width:2"
             sodipodi:nodetypes="cc"
             id="path7335-9" />
        </g>
        <g
           id="g4423">
          <path
             inkscape:connector-curvature="0"
             style="fill:#ffffff;stroke:#000000;stroke-width:2"
             d="m -1124.6,374.94 -22.155,-17.294 3.5924,-26.285 160.06,-42.089 24.024,-1.9378 -9.5164,31.257 z"
             id="path4982-8-7" />
          <path
             d="m -1146,358.09 49.643,-18.214"
             inkscape:connector-curvature="0"
             style="fill:none;stroke:#000000;stroke-width:2"
             sodipodi:nodetypes="cc"
             id="path8313-8" />
        </g>
        <g
           id="g4427">
          <path
             inkscape:connector-curvature="0"
             style="fill:#ffffff;stroke:#000000;stroke-width:2"
             d="m -1140.6,335.04 -22.155,-17.294 3.5923,-26.285 160.07,-42.089 24.024,-1.9378 -9.5164,31.257 z"
             id="path4982-0-5" />
          <path
             d="m -1162.4,317.34 c 0.3571,-1.0714 48.186,-15.439 48.186,-15.439"
             style="fill:none;stroke:#000000;stroke-width:2"
             inkscape:connector-curvature="0"
             sodipodi:nodetypes="cc"
             id="path8315-7" />
        </g>
        <g
           id="g4419">
          <path
             inkscape:connector-curvature="0"
             style="fill:#ffffff;stroke:#000000;stroke-width:2"
             d="m -1090.2,433.33 -35.623,-20.01 0.4439,-36.539 147.17,-58.748 30.232,3.5064 -6.176,36.863 z"
             sodipodi:nodetypes="ccccccc"
             id="path4980-3-7" />
          <path
             d="m -1125,413.42 57.283,-26.621"
             inkscape:connector-curvature="0"
             style="fill:none;stroke:#000000;stroke-width:2"
             sodipodi:nodetypes="cc"
             id="path8311-1" />
        </g>
        <g
           id="g4415">
          <path
             inkscape:connector-curvature="0"
             style="fill:#ffffff;stroke:#000000;stroke-width:2"
             d="m -932.6,412.75 9.666,-43.435 -39.542,-11.674 -127.46,74.44 0.8921,38.781 42.451,19.043 z"
             id="path4978-7-7" />
          <path
             d="m -1087.1,470.12 55.436,-29.886"
             inkscape:connector-curvature="0"
             style="fill:none;stroke:#000000;stroke-width:2"
             sodipodi:nodetypes="cc"
             id="path8173-1" />
        </g>
        <path
           d="m -985.28,586.5 35.15,-27.504 85.491,-118.41 14.298,-43.119 -111.47,151.37 z"
           style="fill:#ffffff;stroke:#000000;stroke-width:2"
           sodipodi:nodetypes="cccccc"
           inkscape:connector-curvature="0"
           id="path4972-9" />
        <path
           d="m -1134.3,276.38 -35.761,-17.295 16.885,-30.65 193.65,-4.2484 z"
           style="fill:#ffffff;stroke:#000000;stroke-width:2"
           sodipodi:nodetypes="ccccc"
           inkscape:connector-curvature="0"
           id="path4986-2" />
        <path
           inkscape:connector-curvature="0"
           style="fill:#ffffff;stroke:#000000;stroke-width:2"
           sodipodi:nodetypes="ccccsccccc"
           d="m -757.61,308.82 c 35.818,-19.109 53.201,-42.527 51.37,-68.838 0.48079,-5.4398 -0.10673,-9.0086 -1.897,-14.018 -2.1152,-5.9178 -5.0928,-11.957 -8.6648,-17.696 -8.7688,-12.586 -14.383,-18.75 -22.784,-24.364 -19.247,-12.861 -51.669,-10.748 -85.882,11.044 l 1.8674,3.1337 64.121,107.61 1.8674,3.1337 z"
           id="path4896-1" />
        <path
           inkscape:connector-curvature="0"
           style="fill:#ffffff;stroke:#000000;stroke-width:2"
           sodipodi:nodetypes="csccc"
           d="m -962,224.36 c 0,0 122.25,-16.75 121.25,-18.75 -1,-2 -0.75,4.25 -0.75,4.25 l -120,19.5 z"
           id="path3340" />
        <path
           inkscape:connector-curvature="0"
           style="fill:none;stroke:#000000;stroke-width:2"
           sodipodi:nodetypes="ccc"
           d="m -1168.7,259.73 66.907,-10.144 92.985,-11.178"
           id="path8317-9" />
        <path
           inkscape:connector-curvature="0"
           style="fill:none;stroke:#000000;stroke-width:2"
           sodipodi:nodetypes="czc"
           d="m -815.02,214.97 c 11.17,-10.064 25.531,-22.768 36.429,-28.571 10.898,-5.8037 18.903,-7.1341 26.871,-8.3062"
           id="path8331-8" />
        <path
           inkscape:connector-curvature="0"
           style="fill:none;stroke:#000000;stroke-width:2"
           sodipodi:nodetypes="csc"
           d="m -822.16,203.54 c 0,0 18.313,-13.285 28.571,-17.857 7.5395,-3.3601 21.91,-6.6057 28.041,-5.0614"
           id="path8333-6" />
        <path
           inkscape:connector-curvature="0"
           style="fill:#ffffff;stroke:#000000;stroke-width:2"
           sodipodi:nodetypes="cscccccc"
           d="m -845.22,206.6 c -5.2117,2.7117 3.8249,36.808 14.839,55.655 10.192,17.441 31.233,61.029 51.831,57.942 l 12.55,-7.84 -5.25,-18.25 -33.25,-59.75 -31.5,-32.25 z"
           id="path8335-0" />
        <path
           inkscape:connector-curvature="0"
           style="fill:#ffffff;stroke:#000000;stroke-width:2"
           sodipodi:nodetypes="csccc"
           d="m -927.18,289.16 c 0,0 116.21,-46.92 115.21,-48.92 -1,-2 3.5,5.6213 3.5,5.6213 l -119.71,50.42 z"
           id="path3340-9-9-5" />
        <path
           inkscape:connector-curvature="0"
           style="fill:#ffffff;stroke:#000000;stroke-width:2"
           sodipodi:nodetypes="csccc"
           d="m -898.82,339.37 c 0,0 105,-70.444 104,-72.444 -1,-2 3.5,5.6213 3.5,5.6213 l -108.5,73.944 z"
           id="path3340-9-9-5-7" />
        <path
           style="fill:#ffffff;stroke:#000000;stroke-width:2"
           inkscape:connector-curvature="0"
           inkscape:transform-center-y="-35.355339"
           inkscape:transform-center-x="-11.667262"
           d="m -874.26,367.38 c 0,0 88.044,-82.715 87.044,-84.715 -1,-2 3.5,5.6213 3.5,5.6213 l -91.544,86.215 z"
           sodipodi:nodetypes="csccc"
           id="path3340-9-9-5-7-8" />
        <path
           style="fill:#ffffff;stroke:#000000;stroke-width:2"
           inkscape:connector-curvature="0"
           inkscape:transform-center-y="-35.355339"
           inkscape:transform-center-x="-11.667262"
           d="m -855.24,399.65 c 0,0 76.998,-96.314 75.998,-98.314 -1,-2 3.5,5.6213 3.5,5.6213 l -80.498,99.814 z"
           sodipodi:nodetypes="csccc"
           id="path3340-9-9-5-7-8-5" />
        <path
           inkscape:connector-curvature="0"
           style="fill:#ffffff;stroke:#000000;stroke-width:2"
           sodipodi:nodetypes="csccc"
           d="m -945.75,231.82 c 0,0 112.61,-21.172 111.61,-23.172 -1,-2 3.5,4.9142 3.5,4.9142 l -116.11,24.67 z"
           id="path3340-9" />
        <path
           inkscape:connector-curvature="0"
           style="fill:#ffffff;stroke:#000000;stroke-width:2"
           sodipodi:nodetypes="csccc"
           d="m -940.04,255.28 c 0,0 116.92,-32.253 115.92,-34.253 -1,-2 3.5,5.6213 3.5,5.6213 l -120.42,35.753 z"
           id="path3340-9-9" />
        <path
           inkscape:connector-curvature="0"
           style="fill:#000000;stroke-width:2"
           sodipodi:nodetypes="csccscc"
           d="m -778.84,321.37 c 9.5195,-7.3195 -16.24,-49.102 -26.86,-66.938 -10.896,-18.3 -19.943,-45.463 -40.344,-48.041 l 19.105,-11.387 c 11.261,-5.3043 26.451,25.71 41.161,49.76 16.387,26.791 33.804,56.828 28.591,65.027 z"
           id="rect4906-5" />
        <path
           inkscape:connector-curvature="0"
           style="fill:#ffffff;stroke:#000000;stroke-width:2"
           sodipodi:nodetypes="ccccc"
           d="m -775.47,267.08 c 6.349,8.8098 9.4083,15.341 13.088,24.475 -4.3221,6.8064 -8.736,8.6688 -13.852,8.9357 -5.4967,-7.2162 -7.7486,-15.653 -13.712,-25.417 2.7116,-5.1292 8.7008,-6.4365 14.476,-7.9938 z"
           id="rect8328-8" />
        <g
           id="g4437">
          <path
             inkscape:connector-curvature="0"
             style="fill:#ffffff;stroke:#000000;stroke-width:2"
             d="m -1123.5,302.6 -20.863,-22.583 18.827,-23.089 166.75,-30.876 15.903,4.3168 -7.5574,27.088 z"
             id="path4984-7" />
          <path
             d="m -1143.4,280.2 66.832,-11.107 80.232,-22.713 51.841,-12.263"
             inkscape:connector-curvature="0"
             style="fill:none;stroke:#000000;stroke-width:2"
             sodipodi:nodetypes="cccc"
             id="path4435" />
        </g>
        <g
           transform="translate(1.5,-1.5)"
           id="g4395">
          <path
             inkscape:connector-curvature="0"
             style="fill:#ffffff;stroke:#000000;stroke-width:2"
             d="m -1100.4,343.29 -22.155,-17.294 3.5923,-26.285 160.06,-42.089 24.024,-1.9378 -9.5164,31.257 z"
             id="path4982-7" />
          <path
             d="m -1121.5,326.29 50.599,-18.637 80.032,-28.019 55.003,-21.8"
             inkscape:connector-curvature="0"
             style="fill:none;stroke:#000000;stroke-width:2"
             sodipodi:nodetypes="cccc"
             id="path8319-8" />
        </g>
        <g
           transform="translate(0,1)"
           id="g4399">
          <path
             inkscape:connector-curvature="0"
             style="fill:#ffffff;stroke:#000000;stroke-width:2"
             d="m -1061.1,399.14 -35.623,-20.01 0.4439,-36.539 147.17,-58.748 30.232,3.5064 -6.176,36.863 z"
             sodipodi:nodetypes="ccccccc"
             id="path4980-4" />
          <path
             d="m -1096.7,378.31 81.822,-35.86 61.272,-36.411 34.693,-18.137"
             style="fill:none;stroke:#000000;stroke-width:2"
             inkscape:connector-curvature="0"
             sodipodi:nodetypes="cccc"
             id="path8321-6" />
        </g>
        <g
           id="g4403">
          <path
             inkscape:connector-curvature="0"
             style="fill:#ffffff;stroke:#000000;stroke-width:2"
             d="m -900.27,380.8 9.666,-43.435 -39.542,-11.674 -127.46,74.44 0.8921,38.781 42.451,19.043 z"
             id="path4978-2" />
          <path
             d="m -1056.8,438.42 91.924,-56.063 39.288,-22.61 33.948,-21.331"
             inkscape:connector-curvature="0"
             style="fill:none;stroke:#000000;stroke-width:2"
             sodipodi:nodetypes="cccc"
             id="path8323-8" />
        </g>
        <g
           id="g4407">
          <path
             inkscape:connector-curvature="0"
             style="fill:#ffffff;stroke:#000000;stroke-width:2"
             d="m -989.02,507.79 -26.505,-7.1947 0.6362,-41.186 103.3,-95.098 44.322,-0.18928 -7.512,34.621 z"
             id="path4976-5" />
          <path
             d="m -1015.4,500.04 74.751,-66.165 47.477,-46.467 25.759,-21.718"
             inkscape:connector-curvature="0"
             style="fill:none;stroke:#000000;stroke-width:2"
             sodipodi:nodetypes="cccc"
             id="path8325-5" />
        </g>
        <g
           id="g4443">
          <path
             inkscape:connector-curvature="0"
             style="fill:#ffffff;stroke:#000000;stroke-width:2"
             sodipodi:nodetypes="ccccccc"
             d="m -961.27,550.04 -29.258,-7.5188 1.5431,-37.181 106.79,-101.67 31.286,-4.6675 -9.8573,26.643 z"
             id="path4974-5" />
          <path
             d="m -989.95,541.48 51.372,-53.526 53.919,-51.697 31.102,-36.991"
             inkscape:connector-curvature="0"
             style="fill:none;stroke:#000000;stroke-width:2"
             sodipodi:nodetypes="cccc"
             id="path4441" />
        </g>
        <path
           inkscape:connector-curvature="0"
           style="fill:#ffffff;stroke:#000000;stroke-width:2"
           sodipodi:nodetypes="cccccccccc"
           d="m -843.93,404.97 5.7526,-6.8734 c -16.164,-67.186 -51.26,-128.36 -103.25,-176.69 l -8.1461,1.3736 c 55.355,53.335 87.956,117.55 105.64,182.19 z m 29.863,-38.945 3.9826,-4.8581 c -18.719,-53.55 -47.794,-104.74 -86.308,-146.04 l -7.6445,1.2576 c 42.018,44.951 70.538,97.155 89.969,149.64 z"
           id="rect5078-3" />
      </g>
    </g>
  </g>
  <metadata
     id="metadata66">
    <rdf:RDF>
      <cc:Work>
        <dc:format>image/svg+xml</dc:format>
        <dc:type
           rdf:resource="http://purl.org/dc/dcmitype/StillImage" />
        <cc:license
           rdf:resource="http://creativecommons.org/publicdomain/zero/1.0/" />
        <dc:publisher>
          <cc:Agent
             rdf:about="http://openclipart.org/">
            <dc:title>Openclipart</dc:title>
          </cc:Agent>
        </dc:publisher>
        <dc:title></dc:title>
      </cc:Work>
      <cc:License
         rdf:about="http://creativecommons.org/publicdomain/zero/1.0/">
        <cc:permits
           rdf:resource="http://creativecommons.org/ns#Reproduction" />
        <cc:permits
           rdf:resource="http://creativecommons.org/ns#Distribution" />
        <cc:permits
           rdf:resource="http://creativecommons.org/ns#DerivativeWorks" />
      </cc:License>
    </rdf:RDF>
  </metadata>
</svg>
