<?xml version="1.0" encoding="UTF-8" standalone="no"?>
<!-- Created with Inkscape (http://www.inkscape.org/) -->

<svg
   xmlns:dc="http://purl.org/dc/elements/1.1/"
   xmlns:cc="http://creativecommons.org/ns#"
   xmlns:rdf="http://www.w3.org/1999/02/22-rdf-syntax-ns#"
   xmlns:svg="http://www.w3.org/2000/svg"
   xmlns="http://www.w3.org/2000/svg"
   xmlns:sodipodi="http://sodipodi.sourceforge.net/DTD/sodipodi-0.dtd"
   xmlns:inkscape="http://www.inkscape.org/namespaces/inkscape"
   width="32"
   height="32"
   viewBox="0 0 31.999999 32.000001"
   id="svg2"
   version="1.1"
   inkscape:version="0.91 r13725"
   sodipodi:docname="timer_restart.svg">
  <defs
     id="defs4" />
  <sodipodi:namedview
     id="base"
     pagecolor="#ffffff"
     bordercolor="#666666"
     borderopacity="1.0"
     inkscape:pageopacity="0.0"
     inkscape:pageshadow="2"
     inkscape:zoom="26.463822"
     inkscape:cx="5.222924"
     inkscape:cy="16.107276"
     inkscape:document-units="px"
     inkscape:current-layer="layer1"
     showgrid="false"
     units="px"
     inkscape:window-width="1920"
     inkscape:window-height="1153"
     inkscape:window-x="0"
     inkscape:window-y="0"
     inkscape:window-maximized="1" />
  <metadata
     id="metadata7">
    <rdf:RDF>
      <cc:Work
         rdf:about="">
        <dc:format>image/svg+xml</dc:format>
        <dc:type
           rdf:resource="http://purl.org/dc/dcmitype/StillImage" />
        <dc:title />
      </cc:Work>
    </rdf:RDF>
  </metadata>
  <g
     inkscape:label="Layer 1"
     inkscape:groupmode="layer"
     id="layer1"
     transform="translate(0,-1020.3622)">
    <path
       style="color:#000000;font-style:normal;font-variant:normal;font-weight:normal;font-stretch:normal;font-size:medium;line-height:normal;font-family:sans-serif;text-indent:0;text-align:start;text-decoration:none;text-decoration-line:none;text-decoration-style:solid;text-decoration-color:#000000;letter-spacing:normal;word-spacing:normal;text-transform:none;direction:ltr;block-progression:tb;writing-mode:lr-tb;baseline-shift:baseline;text-anchor:start;white-space:normal;clip-rule:nonzero;display:inline;overflow:visible;visibility:visible;opacity:1;isolation:auto;mix-blend-mode:normal;color-interpolation:sRGB;color-interpolation-filters:linearRGB;solid-color:#000000;solid-opacity:1;fill:#bcbcbc;fill-opacity:1;fill-rule:nonzero;stroke:none;stroke-width:4;stroke-linecap:round;stroke-linejoin:miter;stroke-miterlimit:4;stroke-dasharray:none;stroke-dashoffset:0;stroke-opacity:1;marker:none;color-rendering:auto;image-rendering:auto;shape-rendering:auto;text-rendering:auto;enable-background:accumulate"
       d="M 15.919922 3.3789062 C 13.876879 3.4193125 11.827404 3.9537656 9.9609375 5.0097656 C 4.9836924 7.8256656 2.5169818 13.663013 3.9648438 19.195312 C 5.4127187 24.727513 10.42401 28.6084 16.142578 28.625 C 21.861156 28.642 26.894925 24.791278 28.375 19.267578 A 2.0002 2.0002 0 1 0 24.511719 18.232422 C 23.496276 22.022122 20.077655 24.6364 16.154297 24.625 C 12.230931 24.614 8.8273371 21.979094 7.8339844 18.183594 C 6.8406472 14.387994 8.5168868 10.422134 11.931641 8.4902344 C 15.212588 6.6340346 19.270461 7.1279245 22.015625 9.6582031 L 18.847656 12.720703 C 18.840724 13.129803 19.163102 13.456703 19.572266 13.470703 L 27.955078 13.613281 C 28.364142 13.620381 28.698178 13.297872 28.705078 12.888672 L 28.847656 4.5058594 C 28.854588 4.0968594 28.530259 3.7698594 28.121094 3.7558594 L 24.892578 6.8769531 C 22.942452 5.0143888 20.505785 3.8644763 17.953125 3.5019531 C 17.280498 3.4064031 16.600936 3.3654375 15.919922 3.3789062 z "
       transform="translate(-9.5367432e-7,1020.3622)"
       id="path4138" />
  </g>
</svg>
