<svg x="0" y="0" width="909" height="1286" viewBox="0 0 909 1286" version="1.1" xmlns="http://www.w3.org/2000/svg">
<defs>

<style type="text/css">
text {
	font-family: Arial, Helvetica, sans-serif;
	fill: #000000;
}

.s1_1{
	font-size: 21.45px;
}
.s2_1{
	font-size: 16.13px;
}
.s3_1{
	font-size: 13.75px;
	font-weight: bold;
}
.s4_1{
	font-size: 15.22px;
}
.s5_1{
	font-weight: bold;
	font-size: 18.33px;
}

</style>

</defs>
<path d="M0,0
L0,1286
L909,1286
L909,0 Z " 
fill="#FFFFFF" stroke="none" />
<text x="67" y="44" dx="0,0.3,0.1,-0.1,-0.1,0,0,0,0,-0.1,0,-0.1,0.1,-0.1,0,0.1,-0.1,-0.1,-0.1,0,-0.1,0.1,-0.1,-0.1,-0.1,-0.1,0,0,0,0.1,-0.1,0,0.1,0,-0.1,0.1,0,0,0,0,-0.1,-0.1,0.1,0,0,0.3,0,0,0,0,0.1,-0.1,0,0,0,-0.1,0.1,-0.1,-0.1,0,0.1,-0.6,-0.1,0.1,0,-0.1,0,0.1,0,0.2" class="s1_1">Mindestanforderungen Bundesliga ab Saison 2018-19 gemäß BLO Anlage VI </text>
<path fill-rule="evenodd" d="M38.5,22.7h1.1V21.6H38.5v1.1Z" />
<path fill-rule="evenodd" d="M38.5,22.7h1.1V21.6H38.5v1.1Z" />
<path fill-rule="evenodd" d="M39.6,22.7H879.1V21.6H39.6v1.1Z" />
<path fill-rule="evenodd" d="M879.1,22.7h1.1V21.6h-1.1v1.1Z" />
<path fill-rule="evenodd" d="M879.1,22.7h1.1V21.6h-1.1v1.1Z" />
<path fill-rule="evenodd" d="M38.5,52.1h1.1V51H38.5v1.1Z" />
<path fill-rule="evenodd" d="M38.5,52.1h1.1V51H38.5v1.1Z" />
<path fill-rule="evenodd" d="M39.6,52.1H879.1V51H39.6v1.1Z" />
<path fill-rule="evenodd" d="M879.1,52.1h1.1V51h-1.1v1.1Z" />
<path fill-rule="evenodd" d="M879.1,52.1h1.1V51h-1.1v1.1Z" />
<path fill-rule="evenodd" d="M38.5,51h1.1V22.7H38.5V51Z" />
<path fill-rule="evenodd" d="M879.1,51h1.1V22.7h-1.1V51Z" />
<text x="43" y="87" dx="0,-0.1,0,-0.1,0,-0.1,-0.1,-0.1,-0.1,-0.1,-0.1" class="s1_1">Begegnung: </text>
<path fill-rule="evenodd" d="M167.6,91.7H367.8V89.5H167.6v2.2Z" />
<text x="373" y="87" dx="0,-0.1,0,-0.1,0,-0.1" class="s1_1">gegen </text>
<path fill-rule="evenodd" d="M436.8,91.7H668.6V89.5H436.8v2.2Z" />
<text x="692" y="87" dx="0,-0.1,0,0,-0.1,0,-0.2,0,0,0,0,0,0,-0.1" class="s1_1">Datum:________</text>
<text x="43" y="121" dx="0,0.1,0.1,0,-0.1,0,0.1,0,0,-0.1,-0.2,0,0,-0.1,0.1,0,-0.1,-0.2,0,0,0,0,0,0,-0.1,-0.1,0,0.1,0,0,0,0,0,0,0,0.1,0,0,0,0,-0.1,0,0,0,0,0.1,0.1,0,-0.1,0,0.1" class="s2_1">Hinweise zur Nutzung der Mindestanforderungsliste: </text>
<text x="43" y="154" dx="0,0,0.1,0,0,0.1,-0.1,0,0,0,0.1,0,0,0,0,0,0,0,-0.1,0,0,0,0,0,0,0,0,0,0,0,-0.1,0,0,0,0.1,0,0,0,0,0,0,0,-0.1,0,0,0.1" class="s2_1">Liebe Schiedsrichterinnen und Schiedsrichter, </text>
<text x="43" y="186" dx="0,0,0.1,0,2.3,0.1,0,0.1,0,0,0,0.2,0,2.3,0,0.1,0,-0.1,0,2.3,0,0,0.1,0,0,0,0.1,-0.1,0,-0.1,2.3,0,0.1,0,2.5,0,0,0,0.1,0,0,0,0,0,0,0,-0.1,0,0,2.3,-0.2,0,2.3,0,0,0,0,0,-0.1,0,0.1,0,0,0,0,0,2.3,0,0.1,0,0,0,0,0,0,0,0.1,0,0,0,0,-0.1,0,0,0,0,0.2,2.3,0,0,0,2.1,0,0,-0.1,2.1,0,0,0.1,0,0,0,2.1,0.2,-0.1,2.1,0.1,0,0" class="s2_1">die folgende Liste beinhaltet die Schiedsrichter zu überprüfenden Mindestanforderungen der BLO Anlage VI für </text>
<text x="43" y="205" dx="0,0.7,0,-0.1,-0.1,0.2,0,0.1,0,0.1,0,7.1,0.1,0,7.1,0,0,0,7,0,-0.1,7.1,0,0,0,7.1,0,-0.1,7.1,0,0,0,0.1,0.1,0,-0.1,0,0.3,-0.1,0,0,0,0,0,0,0.1,0.1,0,0,-0.1,7.1,0.1,0.1,0,7.1,0,0.1,0,-0.1,0,6.9,0.1,0,-0.1,6.9,0,0,0,0,0,0,0.1,0.1,0,0,0.1,0.1,0,0,6.9,0,0,0,0,0,6.9,0,0.1,0,6.9,0,0.1,0,0,0,0,0,-0.1,-0.2,-0.1,0,0" class="s2_1">Wettkämpfe in der 1. und 2. Badminton-Bundesliga. Die Liste ist ausschließlich durch die eingesetzten </text>
<text x="43" y="224" dx="0,0,0,0,0.1,0,0,0,0,0,0,0,-0.1,0,0,1.9,-0.2,0,1.9,0,0,0,0,0,0,0.1,-0.1,0,0,1.9,0,0,0,2,0.1,0,-0.1,1.9,0,0,0.1,1.9,-0.1,0,0.1,0,0.1,0,0,0.4,-0.1,0,0,0.1,0,0.1,0,0,0,0,0,0,-0.1,1.9,0,0,0.1,1.9,0,0.1,0,0,0,0,0,0,0,0,2,0,0,1.9,0.3,0,0,1.9,0,0,0,0,0,0,0.1,0.1,0,0.1,-0.1,0,0,0.1,0,0.1,0.1,0,0.1,-0.1,0,0.1,1.9,0.1,0.1,-0.1" class="s2_1">Schiedsrichter zu bearbeiten und ist dem Original-Spielbericht bei Einsendung an den Bundesliga-Spielleiter mit </text>
<text x="43" y="242" dx="0,0,0,0,0.1,0,-0.1,0,0,-0.1,0,0,0,0,0,0,0,0,0,-0.1,-0.2,0,0,0,0,0,-0.1,0,0,0,-0.1,0,0.1,0,0,0.1,0,0,0,0,0,-0.1,0,0,0,0,0,0,0.1,0.1,-0.2,0,0,0,0,0,0,0,0,0.1,-0.2,0,0.1,0,0,0,0,0" class="s2_1">Kopie an den Vorsitzenden des AfBL durch den Heimverein beizufügen. </text>
<text x="43" y="261" dx="0,0,0.1,-0.1,0.6,0,0,0,0.6,0.1,0,-0.1,0,0,0,0,0,-0.1,0.1,0.1,-0.1,0.6,0,0,0,0,0,0,0.1,0,0.1,0,-0.1,0.6,0,0,0,0.6,0,0.1,0,0,0,0,0,-0.1,-0.2,-0.1,0,0.6,0,0,0,0,0,0.1,0,0,0,0,0.7,-0.1,0.1,0.1,0.1,-0.2,0.1,0,0.1,0.1,0,0.6,0.1,0,0,0.1,0,0.1,0.1,0,0,-0.1,0.6,0,0,0,0,0.7,0,0.1,0,0.6,0,0,0.1,0,0,0,0,-0.1,0,0,0,0,0,0.6,-0.2,0,0,0,0,0.8,0,0,0" class="s2_1">Mit der Unterschrift bescheinigt der eingesetzte Technische Offizielle lediglich, dass die Anforderungen vorhanden </text>
<text x="43" y="280" dx="0,0,-0.2,-0.1,-0.1,-0.1,0,0.1,0,0,-0.1,-0.1,-0.2,0,0,0,0,0,0,0,0,0,-0.1,0,0,0,0,-0.1" class="s2_1">bzw. nicht vorhanden waren. </text>
<text x="43" y="299" dx="0,0,0,0.1,0.1,-0.1,0.1,0,0.3,0,0.1,0,-0.2,0,0.1,0.1,0,0.3,0,0,0.1,0,0,0,0,-0.1,0,0,0,0,0,0.3,0,0.1,0,0,-0.1,0.3,0,0,0,0,0.1,0.1,-0.1,0.3,0,0,0.1,0,-0.1,0.3,0,0,0.3,0,0,0.1,0.4,0,0,0.3,0,0.1,0,0.3,0,0,0,0.1,0,0,0,0,0,0,0,-0.1,0,0,0.2,-0.2,0,0,0,0,0,0,-0.1,0.1,0,0,0,0.1,0,0,-0.1,0,0,0,0,0,0,0,0,0,0,0,0.1,0,0,0,0,0,0" class="s2_1">Sollten einzelne Anforderungen nicht erfüllt sein, so sollen die Schiedsrichter zunächst den entsprechenden Verein </text>
<text x="43" y="317" dx="0,0,0,0.1,-0.1,0,0,0,0,0,0,0,0,-0.1,0,0,-0.1,0,0.1,0,-0.1,0,0.1,0,0,0,-0.1,0,0,0,0,0,0,0,-0.1,0,0,0,0.1,0.1,0,0,0.2,0,0.1,-0.1,-0.1,-0.2,0,0,-0.1,0,0,0,-0.1,0,0.2,-0.1,0,0,-0.1,0,0,0,0,0,0.2" class="s2_1">auf den Verstoß hinweisen und die Möglichkeit zur Korrektur geben. </text>
<text x="43" y="336" dx="0,0,0,0.1,0.1,-0.1,0,1.9,0,0,1.9,0,0,0.1,0.1,1.9,0,0,0,0.1,0,0.1,0.1,0,0,1.8,0,0.1,0,0,0,0,1.7,0,0.1,0,-0.1,0,1.7,0,0,0,0,1.8,-0.2,0,1.7,0,0,0,0,0,0,1.8,0.2,0,0.1,0.1,0,0,-0.1,1.7,0,0,1.7,0.2,0,0,0,0,0,1.7,0,0.1,0,0,0,1.8,0.1,0.1,1.7,0.1,0,-0.1,0.1,0,0.1,0.1,1.7,0.8,0,0,1.7,0,0,0.1,0,0.1,0,0,1.9,0.1,0.1,-0.1,1.7,0,0,0.1" class="s2_1">Sollte es beim Ausfüllen dieser Liste doch zu Fragen kommen, so können diese im Notfall per Telefon mit dem </text>
<text x="43" y="355" dx="0,0,0,0,0,0,0,0.1,0.1,0,0.1,-0.1,0,0,0.1,0,0.1,0.1,0,0.1,-0.1,0,0,0.5,0,0,0,0,0,0.4,0,0,0,0,0,0,0,0.5,0,0,-0.1,0,0,0.4,0,0,0,0.4,0.1,0,0.1,0,0,0.1,0.1,0,0,0.5,0,0,0,0,0,-0.1,0,0,0,0,0,0,0.5,0,0,0,0,0.2,0,0,0.1,0.3,0,0,0,0,0,0,-0.2,0,0,0,0,0,0.3,0,0,0,0.3,0,0.1,0,0,0.3,0,0,0,0" class="s2_1">Bundesliga-Spielleiter Bernd Mohaupt unter der Rufnummer 05241-531760 oder dem Vorsitzenden des AfBL Arno </text>
<text x="43" y="373" dx="0,0,0,0,0.1,0,-0.2,-0.1,0,0,-0.1,0,0,-0.1,0,0,0,-0.1,0.1,0,0.1,0,0,0.1,0.1,0,0,-0.1,0,0,0,0,-0.1,0,0,0,0,0,0,0,0,-0.1,0,0,0,0,-0.1,0,0,0,0,0,-0.1,0,0,0,0,0,-0.1,0.2,0,0,0.1,0.1,0,0.1,0,-0.1,0.1,0,-0.1,0,0,0,0,-0.1,-0.1,0,0,-0.1,0,-0.1,-0.1,-0.1,0,0,0,0,0.1,-0.1" class="s2_1">Schley unter der Rufnummer 0176/52500972 oder 06821/53456 kurzfristig beantwortet werden. </text>
<text x="43" y="406" dx="0,0,0,0,-0.1,0,0,0,0,-0.1,0.1,0,-0.1,0,0,0,-0.1,0,-0.1,-0.2,0,0,0,0,0,0,0,-0.1,0,0,0,-0.1,0,0.1,0,0,0,0.1,-0.1,0,0.1,0,-0.1,0,0,0,-0.1,0,0.1,0,0,0,0,0,0,0,0.1,0,0,0,0,-0.1,0,0,0,0,0,-0.1,0,0,0,0.2,0,0.1,-0.1,0,0,0,0.1,-0.1,0,0,0,-0.1,0,0.1,0,0,-0.1,0,0,0,0,0,0,0,-0.1,0.1,0.1,0,0.1,0.8" class="s2_1">Für Eure Unterstützung bei der Einhaltung der Mindestanforderungen danken Euch der AfBL und das RfSR! </text>
<text x="47" y="449" dx="0,-0.1,0.1,0.1" class="s1_1">Nr. </text>
<text x="170" y="449" dx="0,0.3,0.1,-0.1,-0.1,0,0,0,0,-0.1,0,-0.1,0.1,-0.1,0,0.1,-0.1,-0.1,-0.1,0,-0.1,0.2,0,0.1,0,0,-0.1,0.1,0,-0.1,0,0.1,0.1,0,-0.1,0,0,0.2,0.1,0.1,0,0,0.1" class="s1_1">Mindestanforderungen - Schiedsrichterliste </text>
<text x="702" y="447" dx="0,-0.1,0,0,0,0.1,0,0.1,0,0.1" class="s3_1">vorhanden </text>
<text x="807" y="438" class="s3_1">Nicht </text>
<text x="789" y="455" dx="0,-0.1,0,0,0,0.1,0,0.1,0,0.1" class="s3_1">vorhanden </text>
<path fill-rule="evenodd" d="M37.4,425.6h1.1v-1.1H37.4v1.1Z" />
<path fill-rule="evenodd" d="M37.4,425.6h1.1v-1.1H37.4v1.1Z" />
<path fill-rule="evenodd" d="M38.5,425.6H86v-1.1H38.5v1.1Z" />
<path fill-rule="evenodd" d="M86,425.6h1.1v-1.1H86v1.1Z" />
<path fill-rule="evenodd" d="M87.1,425.6H697v-1.1H87.1v1.1Z" />
<path fill-rule="evenodd" d="M697,425.6h1.1v-1.1H697v1.1Z" />
<path fill-rule="evenodd" d="M698.1,425.6H778v-1.1H698.1v1.1Z" />
<path fill-rule="evenodd" d="M778,425.6h1.1v-1.1H778v1.1Z" />
<path fill-rule="evenodd" d="M779.1,425.6h92.1v-1.1H779.1v1.1Z" />
<path fill-rule="evenodd" d="M871.2,425.6h1.1v-1.1h-1.1v1.1Z" />
<path fill-rule="evenodd" d="M871.2,425.6h1.1v-1.1h-1.1v1.1Z" />
<path fill-rule="evenodd" d="M37.4,458.6h1.1v-33H37.4v33Z" />
<path fill-rule="evenodd" d="M86,458.6h1.1v-33H86v33Z" />
<path fill-rule="evenodd" d="M697,458.6h1.1v-33H697v33Z" />
<path fill-rule="evenodd" d="M778,458.6h1.1v-33H778v33Z" />
<path fill-rule="evenodd" d="M871.2,458.6h1.1v-33h-1.1v33Z" />
<text x="57" y="477" class="s4_1">1 </text>
<text x="91" y="477" dx="0,0,-0.2,0,-0.1,0,-0.1,0,0,-0.1,0,-0.1,0,0,0.1,0,-0.1,0,-0.1,0,0,0.3,-0.1,0,0,0,0,-0.1,-0.3,0,0.1" class="s4_1">Zwei Standardfelder mit Netzen </text>
<path fill-rule="evenodd" d="M37.4,459.7h1.1v-1.1H37.4v1.1Z" />
<path fill-rule="evenodd" d="M38.5,459.7H86v-1.1H38.5v1.1Z" />
<path fill-rule="evenodd" d="M86,459.7h1.1v-1.1H86v1.1Z" />
<path fill-rule="evenodd" d="M87.1,459.7H697v-1.1H87.1v1.1Z" />
<path fill-rule="evenodd" d="M697,459.7h1.1v-1.1H697v1.1Z" />
<path fill-rule="evenodd" d="M698.1,459.7H778v-1.1H698.1v1.1Z" />
<path fill-rule="evenodd" d="M778,459.7h1.1v-1.1H778v1.1Z" />
<path fill-rule="evenodd" d="M779.1,459.7h92.1v-1.1H779.1v1.1Z" />
<path fill-rule="evenodd" d="M871.2,459.7h1.1v-1.1h-1.1v1.1Z" />
<path fill-rule="evenodd" d="M37.4,484.4h1.1V459.7H37.4v24.7Z" />
<path fill-rule="evenodd" d="M86,484.4h1.1V459.7H86v24.7Z" />
<path fill-rule="evenodd" d="M697,484.4h1.1V459.7H697v24.7Z" />
<path fill-rule="evenodd" d="M778,484.4h1.1V459.7H778v24.7Z" />
<path fill-rule="evenodd" d="M871.2,484.4h1.1V459.7h-1.1v24.7Z" />
<text x="57" y="508" class="s4_1">2 </text>
<text x="91" y="499" dx="0,0,-0.2,0,-0.1,0,0,-0.1,0,-0.1,0,-0.1,-0.1,0,-0.1,0,-0.1,0,0,0,0,-0.1,0,-0.1,0,-0.1,0,-0.1,0,0,0.1,0,0,0,-0.1,0,0,-0.1,0,-0.1,0,0,0,0,-0.3,0,0,-0.1,-0.1,0,-0.1,0,-0.1,0.2,0,-0.1,0,-0.1,0,0,0,-0.1,-0.1,0,0,0.1,0,0,-0.1,0,-0.1,0,-0.1,0,0,0.1,0,0.3,0,-0.1,-0.1,0.3,-0.1,0,-0.1" class="s4_1">Zwei nebeneinander liegende, farbig abgesetzte Spielfelder, die frei von Fremdlinien </text>
<text x="91" y="517" dx="0,0.1,-0.1,0,-0.1,0,0,-0.1,-0.1,0,0,0,0,0,0,-0.1,-0.1,0,-0.3,-0.2,0,-0.1,0,-0.1,0,-0.1,0.3,-0.1,0,0,-0.1,0,0.1,-0.1,0,-0.1,0,-0.1,0.2,0,-0.1,0,0.3,0,0,-0.1,0,-0.1,0,0,-0.1,-0.1,0,0,-0.1,0,-0.1,0,-0.1,0,-0.1,0,-0.1,0,-0.1,0,0,0,0,0,0,0,-0.1,-0.1,0,-0.1,0,0,0,-0.1,0,0.1" class="s4_1">sind. Alternativ zwei Badminton-Spielfeldmatten, die nebeneinander ausgelegt sind </text>
<path fill-rule="evenodd" d="M37.4,485.5h1.1v-1.1H37.4v1.1Z" />
<path fill-rule="evenodd" d="M38.5,485.5H86v-1.1H38.5v1.1Z" />
<path fill-rule="evenodd" d="M86,485.5h1.1v-1.1H86v1.1Z" />
<path fill-rule="evenodd" d="M87.1,485.5H697v-1.1H87.1v1.1Z" />
<path fill-rule="evenodd" d="M697,485.5h1.1v-1.1H697v1.1Z" />
<path fill-rule="evenodd" d="M698.1,485.5H778v-1.1H698.1v1.1Z" />
<path fill-rule="evenodd" d="M778,485.5h1.1v-1.1H778v1.1Z" />
<path fill-rule="evenodd" d="M779.1,485.5h92.1v-1.1H779.1v1.1Z" />
<path fill-rule="evenodd" d="M871.2,485.5h1.1v-1.1h-1.1v1.1Z" />
<path fill-rule="evenodd" d="M37.4,520.4h1.1V485.5H37.4v34.9Z" />
<path fill-rule="evenodd" d="M86,520.4h1.1V485.5H86v34.9Z" />
<path fill-rule="evenodd" d="M697,520.4h1.1V485.5H697v34.9Z" />
<path fill-rule="evenodd" d="M778,520.4h1.1V485.5H778v34.9Z" />
<path fill-rule="evenodd" d="M871.2,520.4h1.1V485.5h-1.1v34.9Z" />
<text x="57" y="539" class="s4_1">3 </text>
<text x="91" y="539" dx="0,0,-0.2,0,-0.1,0,-0.1,0.1,0,-0.1,0,-0.1,0.1,0,-0.1,0.1,0,0,-0.1,0,0.1,0,0,-0.1,-0.1,0,0,0.3,-0.1,0,0,-0.1,0,0,-0.1,0,0,-0.1,0,0,-0.1,-0.1,0,-0.3,0,-0.1,0.1,-0.1,0,-0.1,0,0.2,0,0,-0.1,0,0,0,-0.1,0,-0.3,0,-0.1,0,-0.1,0,0.1,0,-0.1,0,0,-0.1,0.1,0,0,0,-0.1,0,-0.1,-0.1,0,0,-0.1,0" class="s4_1">Zwei Schiedsrichterstühle mit erhöhter Sitzposition (in Netzhöhe) und Schreibplatte </text>
<path fill-rule="evenodd" d="M37.4,521.5h1.1v-1.1H37.4v1.1Z" />
<path fill-rule="evenodd" d="M38.5,521.5H86v-1.1H38.5v1.1Z" />
<path fill-rule="evenodd" d="M86,521.5h1.1v-1.1H86v1.1Z" />
<path fill-rule="evenodd" d="M87.1,521.5H697v-1.1H87.1v1.1Z" />
<path fill-rule="evenodd" d="M697,521.5h1.1v-1.1H697v1.1Z" />
<path fill-rule="evenodd" d="M698.1,521.5H778v-1.1H698.1v1.1Z" />
<path fill-rule="evenodd" d="M778,521.5h1.1v-1.1H778v1.1Z" />
<path fill-rule="evenodd" d="M779.1,521.5h92.1v-1.1H779.1v1.1Z" />
<path fill-rule="evenodd" d="M871.2,521.5h1.1v-1.1h-1.1v1.1Z" />
<path fill-rule="evenodd" d="M37.4,546.2h1.1V521.5H37.4v24.7Z" />
<path fill-rule="evenodd" d="M86,546.2h1.1V521.5H86v24.7Z" />
<path fill-rule="evenodd" d="M697,546.2h1.1V521.5H697v24.7Z" />
<path fill-rule="evenodd" d="M778,546.2h1.1V521.5H778v24.7Z" />
<path fill-rule="evenodd" d="M871.2,546.2h1.1V521.5h-1.1v24.7Z" />
<text x="53" y="565" class="s4_1">4a </text>
<text x="91" y="565" dx="0,0,-0.1,0,-0.1,0,0,0,0,-0.1,0.1,0,0,-0.1,0,-0.1,0,0,-0.1,0,0.2,0,0,0,-0.1,-0.1,0.1,0.1,0,-0.1,0,-0.1,0,-0.1,0,-0.1,0.1,0,0,-0.1,0,-0.1,0,-0.3,0,-0.1,0,-0.1,0,0,0,0,0,-0.1,0,-0.1,0,-0.1,0.2,0,-0.1,0.2" class="s4_1">Mindestens eine elektronische Spielstandanzeige pro Spielfeld </text>
<path fill-rule="evenodd" d="M37.4,547.3h1.1v-1.1H37.4v1.1Z" />
<path fill-rule="evenodd" d="M38.5,547.3H86v-1.1H38.5v1.1Z" />
<path fill-rule="evenodd" d="M86,547.3h1.1v-1.1H86v1.1Z" />
<path fill-rule="evenodd" d="M87.1,547.3H697v-1.1H87.1v1.1Z" />
<path fill-rule="evenodd" d="M697,547.3h1.1v-1.1H697v1.1Z" />
<path fill-rule="evenodd" d="M698.1,547.3H778v-1.1H698.1v1.1Z" />
<path fill-rule="evenodd" d="M778,547.3h1.1v-1.1H778v1.1Z" />
<path fill-rule="evenodd" d="M779.1,547.3h92.1v-1.1H779.1v1.1Z" />
<path fill-rule="evenodd" d="M871.2,547.3h1.1v-1.1h-1.1v1.1Z" />
<path fill-rule="evenodd" d="M37.4,572.1h1.1V547.3H37.4v24.8Z" />
<path fill-rule="evenodd" d="M86,572.1h1.1V547.3H86v24.8Z" />
<path fill-rule="evenodd" d="M697,572.1h1.1V547.3H697v24.8Z" />
<path fill-rule="evenodd" d="M778,572.1h1.1V547.3H778v24.8Z" />
<path fill-rule="evenodd" d="M871.2,572.1h1.1V547.3h-1.1v24.8Z" />
<text x="53" y="595" class="s4_1">4b </text>
<text x="91" y="587" dx="0,0,0,-0.1,0,0,0,-0.1,0,0,0,0,0,0,-0.1,-0.1,0,-0.3,0,0,-0.1,0,0,-0.1,-0.1,0,-0.1,0,-0.3,0,-0.1,0,0,0,-0.1,0,0,-0.1,0,-0.1,0,-0.1,0.1,0,0,-0.1,0,-0.1,0,-0.3,0,-0.1,0,-0.1,0,0,-0.1,-0.1,0,-0.1,0,0,-0.1,0,-0.1,0,-0.1,0.2,0,-0.1,0,-0.1,0,0,-0.1,-0.1,0,0,-0.1,0,-0.1,0.3,0,0.3,0,0,-0.1,-0.1,0" class="s4_1">oder alternativ zu 4a eine zentrale Spielstandanzeige beider Spielfelder via Beamer, die </text>
<text x="91" y="604" dx="0,-0.1,0,-0.1,0,0,-0.1,-0.1,0,-0.1,0,0,-0.1,0.1,0,-0.1,0,-0.1,0.1,0,-0.1,0.1,0,0,-0.1,0,0.1,0,0,-0.1,-0.1,0,-0.1,0,0.1,-0.1,0.1,0,0,-0.1,0,0,0,0,0.1,0.2" class="s4_1">von beiden Schiedsrichterstühlen sichtbar ist </text>
<path fill-rule="evenodd" d="M37.4,573.2h1.1v-1.1H37.4v1.1Z" />
<path fill-rule="evenodd" d="M38.5,573.2H86v-1.1H38.5v1.1Z" />
<path fill-rule="evenodd" d="M86,573.2h1.1v-1.1H86v1.1Z" />
<path fill-rule="evenodd" d="M87.1,573.2H697v-1.1H87.1v1.1Z" />
<path fill-rule="evenodd" d="M697,573.2h1.1v-1.1H697v1.1Z" />
<path fill-rule="evenodd" d="M698.1,573.2H778v-1.1H698.1v1.1Z" />
<path fill-rule="evenodd" d="M778,573.2h1.1v-1.1H778v1.1Z" />
<path fill-rule="evenodd" d="M779.1,573.2h92.1v-1.1H779.1v1.1Z" />
<path fill-rule="evenodd" d="M871.2,573.2h1.1v-1.1h-1.1v1.1Z" />
<path fill-rule="evenodd" d="M37.4,608h1.1V573.2H37.4V608Z" />
<path fill-rule="evenodd" d="M86,608h1.1V573.2H86V608Z" />
<path fill-rule="evenodd" d="M697,608h1.1V573.2H697V608Z" />
<path fill-rule="evenodd" d="M778,608h1.1V573.2H778V608Z" />
<path fill-rule="evenodd" d="M871.2,608h1.1V573.2h-1.1V608Z" />
<text x="57" y="626" class="s4_1">5 </text>
<text x="91" y="626" dx="0,-0.1,0,0,-0.1,-0.1,0,0,0.1,0,0,0,0,-0.1,0,-0.1,0,-0.1,0,-0.1,0.1,0,0,-0.1,0,0,0,0.1,0,-0.2,0,-0.1,0,0,-0.1,0,-0.2,0,0,0,-0.1,0,0.2" class="s4_1">Stühle für Linienrichter (soweit anwesend) </text>
<path fill-rule="evenodd" d="M37.4,609.1h1.1V608H37.4v1.1Z" />
<path fill-rule="evenodd" d="M38.5,609.1H86V608H38.5v1.1Z" />
<path fill-rule="evenodd" d="M86,609.1h1.1V608H86v1.1Z" />
<path fill-rule="evenodd" d="M87.1,609.1H697V608H87.1v1.1Z" />
<path fill-rule="evenodd" d="M697,609.1h1.1V608H697v1.1Z" />
<path fill-rule="evenodd" d="M698.1,609.1H778V608H698.1v1.1Z" />
<path fill-rule="evenodd" d="M778,609.1h1.1V608H778v1.1Z" />
<path fill-rule="evenodd" d="M779.1,609.1h92.1V608H779.1v1.1Z" />
<path fill-rule="evenodd" d="M871.2,609.1h1.1V608h-1.1v1.1Z" />
<path fill-rule="evenodd" d="M37.4,633.9h1.1V609.1H37.4v24.8Z" />
<path fill-rule="evenodd" d="M86,633.9h1.1V609.1H86v24.8Z" />
<path fill-rule="evenodd" d="M697,633.9h1.1V609.1H697v24.8Z" />
<path fill-rule="evenodd" d="M778,633.9h1.1V609.1H778v24.8Z" />
<path fill-rule="evenodd" d="M871.2,633.9h1.1V609.1h-1.1v24.8Z" />
<text x="57" y="652" class="s4_1">6 </text>
<text x="91" y="652" dx="0,0,-0.2,0,-0.1,0,-0.1,0,0,-0.1,-0.1,0,0,0.1,0,0,0,0.2,0,0,-0.1,0,-0.1,0,0,0.1,0,0,-0.1,0,-0.1,0,-0.1,0.2,0,-0.1,0,0,-0.1,0,-0.1,0,-0.1,0,-0.1,0,-0.1,0.2,0,-0.1,0,0,0,-0.1,0,0.2" class="s4_1">Zwei Stühle für Trainer je Spielfeld und Spielfeldseite </text>
<path fill-rule="evenodd" d="M37.4,635h1.1v-1.1H37.4V635Z" />
<path fill-rule="evenodd" d="M38.5,635H86v-1.1H38.5V635Z" />
<path fill-rule="evenodd" d="M86,635h1.1v-1.1H86V635Z" />
<path fill-rule="evenodd" d="M87.1,635H697v-1.1H87.1V635Z" />
<path fill-rule="evenodd" d="M697,635h1.1v-1.1H697V635Z" />
<path fill-rule="evenodd" d="M698.1,635H778v-1.1H698.1V635Z" />
<path fill-rule="evenodd" d="M778,635h1.1v-1.1H778V635Z" />
<path fill-rule="evenodd" d="M779.1,635h92.1v-1.1H779.1V635Z" />
<path fill-rule="evenodd" d="M871.2,635h1.1v-1.1h-1.1V635Z" />
<path fill-rule="evenodd" d="M37.4,660.3h1.1V635H37.4v25.3Z" />
<path fill-rule="evenodd" d="M86,660.3h1.1V635H86v25.3Z" />
<path fill-rule="evenodd" d="M697,660.3h1.1V635H697v25.3Z" />
<path fill-rule="evenodd" d="M778,660.3h1.1V635H778v25.3Z" />
<path fill-rule="evenodd" d="M871.2,660.3h1.1V635h-1.1v25.3Z" />
<text x="57" y="684" class="s4_1">7 </text>
<text x="91" y="675" dx="0,0,0,-0.1,0,-0.1,0,0,0.1,0,-0.1,0,0,0,0,0,-0.1,0,0,-0.1,-0.1,-0.1,0,0,-0.1,0,0,-0.1,0,0,0,0,-0.1,0.1,0,-0.1,0,-0.1,0,0,0,0,-0.1,-0.3,0,-0.1,-0.1,0,0.1,0,-0.2,-0.1,0,0,0,0,0,0,-0.1,0.2,0.2,0,0,-0.1,0.2,0,0,-0.1,0,0,-0.1,0.2,0.2,-0.1,-0.3,-0.1,0,-0.1,-0.1,0,0" class="s4_1">Zugelassene Federbälle in ausreichender Anzahl sowie Zugriff auf ein offizielles </text>
<text x="91" y="692" dx="0,-0.1,0,0,-0.2,0,-0.1,0.1,0,-0.1,-0.1,0.1,0,0,-0.1,0,0,-0.3,0,-0.1,0,-0.1,0,0,0.1,0,-0.1,0,-0.1,0,0,0,0,0,0,0,0,-0.1,-0.1,0.1" class="s4_1">Verzeichnis der zugelassenen Federbälle </text>
<path fill-rule="evenodd" d="M37.4,661.4h1.1v-1.1H37.4v1.1Z" />
<path fill-rule="evenodd" d="M38.5,661.4H86v-1.1H38.5v1.1Z" />
<path fill-rule="evenodd" d="M86,661.4h1.1v-1.1H86v1.1Z" />
<path fill-rule="evenodd" d="M87.1,661.4H697v-1.1H87.1v1.1Z" />
<path fill-rule="evenodd" d="M697,661.4h1.1v-1.1H697v1.1Z" />
<path fill-rule="evenodd" d="M698.1,661.4H778v-1.1H698.1v1.1Z" />
<path fill-rule="evenodd" d="M778,661.4h1.1v-1.1H778v1.1Z" />
<path fill-rule="evenodd" d="M779.1,661.4h92.1v-1.1H779.1v1.1Z" />
<path fill-rule="evenodd" d="M871.2,661.4h1.1v-1.1h-1.1v1.1Z" />
<path fill-rule="evenodd" d="M37.4,696.2h1.1V661.4H37.4v34.8Z" />
<path fill-rule="evenodd" d="M86,696.2h1.1V661.4H86v34.8Z" />
<path fill-rule="evenodd" d="M697,696.2h1.1V661.4H697v34.8Z" />
<path fill-rule="evenodd" d="M778,696.2h1.1V661.4H778v34.8Z" />
<path fill-rule="evenodd" d="M871.2,696.2h1.1V661.4h-1.1v34.8Z" />
<text x="57" y="715" class="s4_1">8 </text>
<text x="91" y="715" dx="0,-0.1,0,0.1,0,-0.1,0,0,-0.1,-0.1,0,0.1,0,-0.1,0,0,-0.1,0.1,0,0,0.1,0,0,0,0,0,-0.1,0,-0.1,0,0,-0.1,0,-0.1,0.1,0.1,0,-0.1,0.2,0,0,-0.1,0,0.3,-0.1,0,0,-0.1,0,0,-0.1,-0.1,0,0.2" class="s4_1">Aufenthaltsbereich für beide Mannschaften mit Stühlen </text>
<path fill-rule="evenodd" d="M37.4,697.3h1.1v-1.1H37.4v1.1Z" />
<path fill-rule="evenodd" d="M38.5,697.3H86v-1.1H38.5v1.1Z" />
<path fill-rule="evenodd" d="M86,697.3h1.1v-1.1H86v1.1Z" />
<path fill-rule="evenodd" d="M87.1,697.3H697v-1.1H87.1v1.1Z" />
<path fill-rule="evenodd" d="M697,697.3h1.1v-1.1H697v1.1Z" />
<path fill-rule="evenodd" d="M698.1,697.3H778v-1.1H698.1v1.1Z" />
<path fill-rule="evenodd" d="M778,697.3h1.1v-1.1H778v1.1Z" />
<path fill-rule="evenodd" d="M779.1,697.3h92.1v-1.1H779.1v1.1Z" />
<path fill-rule="evenodd" d="M871.2,697.3h1.1v-1.1h-1.1v1.1Z" />
<path fill-rule="evenodd" d="M37.4,722.1h1.1V697.3H37.4v24.8Z" />
<path fill-rule="evenodd" d="M86,722.1h1.1V697.3H86v24.8Z" />
<path fill-rule="evenodd" d="M697,722.1h1.1V697.3H697v24.8Z" />
<path fill-rule="evenodd" d="M778,722.1h1.1V697.3H778v24.8Z" />
<path fill-rule="evenodd" d="M871.2,722.1h1.1V697.3h-1.1v24.8Z" />
<text x="57" y="740" class="s4_1">9 </text>
<text x="91" y="740" dx="0,-0.1,0,0,0.1,0,-0.1,-0.1,-0.1,0,-0.1,0,0,0,-0.1,-0.1,0,-0.1,0" class="s4_1">Beschallungsanlage </text>
<path fill-rule="evenodd" d="M37.4,723.2h1.1v-1.1H37.4v1.1Z" />
<path fill-rule="evenodd" d="M38.5,723.2H86v-1.1H38.5v1.1Z" />
<path fill-rule="evenodd" d="M86,723.2h1.1v-1.1H86v1.1Z" />
<path fill-rule="evenodd" d="M87.1,723.2H697v-1.1H87.1v1.1Z" />
<path fill-rule="evenodd" d="M697,723.2h1.1v-1.1H697v1.1Z" />
<path fill-rule="evenodd" d="M698.1,723.2H778v-1.1H698.1v1.1Z" />
<path fill-rule="evenodd" d="M778,723.2h1.1v-1.1H778v1.1Z" />
<path fill-rule="evenodd" d="M779.1,723.2h92.1v-1.1H779.1v1.1Z" />
<path fill-rule="evenodd" d="M871.2,723.2h1.1v-1.1h-1.1v1.1Z" />
<path fill-rule="evenodd" d="M37.4,747.9h1.1V723.2H37.4v24.7Z" />
<path fill-rule="evenodd" d="M86,747.9h1.1V723.2H86v24.7Z" />
<path fill-rule="evenodd" d="M697,747.9h1.1V723.2H697v24.7Z" />
<path fill-rule="evenodd" d="M778,747.9h1.1V723.2H778v24.7Z" />
<path fill-rule="evenodd" d="M871.2,747.9h1.1V723.2h-1.1v24.7Z" />
<text x="53" y="766" class="s4_1">10 </text>
<text x="91" y="766" dx="0,-0.1,0,0,-0.1,0,-0.1,-0.1,0.1,0,-0.1,-0.3,0,-0.1,0,-0.1,0,0,-0.1,0,-0.1,0.3,0,0,0,0,0,-0.1,0,0,0,0,-0.1,0,0.1,0.1,0,0,-0.1,0.2" class="s4_1">Ergebnisanzeige: Beamer oder Flatscreen </text>
<path fill-rule="evenodd" d="M37.4,749h1.1v-1.1H37.4V749Z" />
<path fill-rule="evenodd" d="M38.5,749H86v-1.1H38.5V749Z" />
<path fill-rule="evenodd" d="M86,749h1.1v-1.1H86V749Z" />
<path fill-rule="evenodd" d="M87.1,749H697v-1.1H87.1V749Z" />
<path fill-rule="evenodd" d="M697,749h1.1v-1.1H697V749Z" />
<path fill-rule="evenodd" d="M698.1,749H778v-1.1H698.1V749Z" />
<path fill-rule="evenodd" d="M778,749h1.1v-1.1H778V749Z" />
<path fill-rule="evenodd" d="M779.1,749h92.1v-1.1H779.1V749Z" />
<path fill-rule="evenodd" d="M871.2,749h1.1v-1.1h-1.1V749Z" />
<path fill-rule="evenodd" d="M37.4,774.3h1.1V749H37.4v25.3Z" />
<path fill-rule="evenodd" d="M86,774.3h1.1V749H86v25.3Z" />
<path fill-rule="evenodd" d="M697,774.3h1.1V749H697v25.3Z" />
<path fill-rule="evenodd" d="M778,774.3h1.1V749H778v25.3Z" />
<path fill-rule="evenodd" d="M871.2,774.3h1.1V749h-1.1v25.3Z" />
<text x="53" y="793" class="s4_1">11 </text>
<text x="91" y="793" dx="0,0.2,-0.1,0.1,0.1,0,0,0.3,-0.1,0,0,-0.1,0,0,0,-0.1,0,-0.1,0,0.1,0,0,0,0,0,0,-0.1,0,-0.1,0.1,0,-0.1,0.1,0,0,-0.1,0,0,0,0,0,0,-0.1,0,-0.1,0.1,0,0,-0.1,0,-0.1,0,0,0,0,-0.1,0,0,0,0,-0.1,0,-0.1,0,0,-0.1,0,0,0.2,0,0,0,-0.1,-0.1,0.6" class="s4_1">Tisch mit Stühlen für Schiedsrichter, Organisation, Moderation und Technik </text>
<path fill-rule="evenodd" d="M37.4,775.4h1.1v-1.1H37.4v1.1Z" />
<path fill-rule="evenodd" d="M38.5,775.4H86v-1.1H38.5v1.1Z" />
<path fill-rule="evenodd" d="M86,775.4h1.1v-1.1H86v1.1Z" />
<path fill-rule="evenodd" d="M87.1,775.4H697v-1.1H87.1v1.1Z" />
<path fill-rule="evenodd" d="M697,775.4h1.1v-1.1H697v1.1Z" />
<path fill-rule="evenodd" d="M698.1,775.4H778v-1.1H698.1v1.1Z" />
<path fill-rule="evenodd" d="M778,775.4h1.1v-1.1H778v1.1Z" />
<path fill-rule="evenodd" d="M779.1,775.4h92.1v-1.1H779.1v1.1Z" />
<path fill-rule="evenodd" d="M871.2,775.4h1.1v-1.1h-1.1v1.1Z" />
<path fill-rule="evenodd" d="M37.4,800.2h1.1V775.4H37.4v24.8Z" />
<path fill-rule="evenodd" d="M86,800.2h1.1V775.4H86v24.8Z" />
<path fill-rule="evenodd" d="M697,800.2h1.1V775.4H697v24.8Z" />
<path fill-rule="evenodd" d="M778,800.2h1.1V775.4H778v24.8Z" />
<path fill-rule="evenodd" d="M871.2,800.2h1.1V775.4h-1.1v24.8Z" />
<text x="53" y="824" class="s4_1">12 </text>
<text x="91" y="815" dx="0,-0.1,0,0,0.3,-0.1,0,0,0,-0.1,0,0,0,0,0,0,-0.3,0,-0.1,0,-0.1,0,0,-0.1,0,0.1,0,0,0.3,0,0,0,0.2,0,0,0,0,-0.1,-0.1,0,-0.1,0,-0.1,0,-0.1,0.1,0,0,-0.1,0,0,-0.1,0,-0.1,0.1,0.1,0,-0.1,0.2,0,0.1,0,-0.1,0.2,0.1,0,0,-0.1,-0.1,0,-0.1,0,0" class="s4_1">PC mit Internetzugang, Drucker für Spielbericht, Mannschaftsaufstellung, </text>
<text x="91" y="832" dx="0,-0.1,0.1,0,-0.1,0,-0.1,0.1,0,-0.1,0.1,0,0,-0.1,0,-0.3,0,0,-0.1,0,-0.1,0,0.3,-0.1,0,0,-0.1,0.1,0.1,0,0,0,0,0,0,0,0,0.1,0,0.2,0,0,-0.1,0,0" class="s4_1">Schiedsrichterzettel mit BL-Logo oder Tablet </text>
<path fill-rule="evenodd" d="M37.4,801.3h1.1v-1.1H37.4v1.1Z" />
<path fill-rule="evenodd" d="M38.5,801.3H86v-1.1H38.5v1.1Z" />
<path fill-rule="evenodd" d="M86,801.3h1.1v-1.1H86v1.1Z" />
<path fill-rule="evenodd" d="M87.1,801.3H697v-1.1H87.1v1.1Z" />
<path fill-rule="evenodd" d="M697,801.3h1.1v-1.1H697v1.1Z" />
<path fill-rule="evenodd" d="M698.1,801.3H778v-1.1H698.1v1.1Z" />
<path fill-rule="evenodd" d="M778,801.3h1.1v-1.1H778v1.1Z" />
<path fill-rule="evenodd" d="M779.1,801.3h92.1v-1.1H779.1v1.1Z" />
<path fill-rule="evenodd" d="M871.2,801.3h1.1v-1.1h-1.1v1.1Z" />
<path fill-rule="evenodd" d="M37.4,836.1h1.1V801.3H37.4v34.8Z" />
<path fill-rule="evenodd" d="M86,836.1h1.1V801.3H86v34.8Z" />
<path fill-rule="evenodd" d="M697,836.1h1.1V801.3H697v34.8Z" />
<path fill-rule="evenodd" d="M778,836.1h1.1V801.3H778v34.8Z" />
<path fill-rule="evenodd" d="M871.2,836.1h1.1V801.3h-1.1v34.8Z" />
<text x="53" y="855" class="s4_1">13 </text>
<text x="91" y="855" dx="0,-0.1,-0.1,0,0,0.8,0,0,0,0,0,0,-0.1,0,0,0,0,0,0,0,0,-0.1,0,-0.1,0,-0.1,0.2,0,-0.1,0,0,0.3,-0.1,0,0,-0.1,0.1,0.1,0,0,0,0" class="s4_1">Ein Werbereiter pro Spielfeld mit BL-Logo </text>
<path fill-rule="evenodd" d="M37.4,837.2h1.1v-1.1H37.4v1.1Z" />
<path fill-rule="evenodd" d="M38.5,837.2H86v-1.1H38.5v1.1Z" />
<path fill-rule="evenodd" d="M86,837.2h1.1v-1.1H86v1.1Z" />
<path fill-rule="evenodd" d="M87.1,837.2H697v-1.1H87.1v1.1Z" />
<path fill-rule="evenodd" d="M697,837.2h1.1v-1.1H697v1.1Z" />
<path fill-rule="evenodd" d="M698.1,837.2H778v-1.1H698.1v1.1Z" />
<path fill-rule="evenodd" d="M778,837.2h1.1v-1.1H778v1.1Z" />
<path fill-rule="evenodd" d="M779.1,837.2h92.1v-1.1H779.1v1.1Z" />
<path fill-rule="evenodd" d="M871.2,837.2h1.1v-1.1h-1.1v1.1Z" />
<path fill-rule="evenodd" d="M37.4,862h1.1V837.2H37.4V862Z" />
<path fill-rule="evenodd" d="M86,862h1.1V837.2H86V862Z" />
<path fill-rule="evenodd" d="M697,862h1.1V837.2H697V862Z" />
<path fill-rule="evenodd" d="M778,862h1.1V837.2H778V862Z" />
<path fill-rule="evenodd" d="M871.2,862h1.1V837.2h-1.1V862Z" />
<text x="53" y="881" class="s4_1">14 </text>
<text x="91" y="881" dx="0,-0.1,0,-0.1,0,-0.1,0,-0.1,0,-0.1,0,-0.1,0,0,-0.1,0.1,0.1,0,0,0.2,0,0,0,0,-0.1,-0.1,0,-0.1,0,0,0,0,0.1,0.1,0,-0.1,0,0,-0.1,0,-0.1,0,0.1,0,0,0,0,0,-0.1,0,0,-0.3,0,0,-0.1,-0.1,0,-0.1,-0.1,0.1" class="s4_1">Ablagebehältnisse für Spielertaschen und für benutzte Bälle </text>
<path fill-rule="evenodd" d="M37.4,863.1h1.1V862H37.4v1.1Z" />
<path fill-rule="evenodd" d="M38.5,863.1H86V862H38.5v1.1Z" />
<path fill-rule="evenodd" d="M86,863.1h1.1V862H86v1.1Z" />
<path fill-rule="evenodd" d="M87.1,863.1H697V862H87.1v1.1Z" />
<path fill-rule="evenodd" d="M697,863.1h1.1V862H697v1.1Z" />
<path fill-rule="evenodd" d="M698.1,863.1H778V862H698.1v1.1Z" />
<path fill-rule="evenodd" d="M778,863.1h1.1V862H778v1.1Z" />
<path fill-rule="evenodd" d="M779.1,863.1h92.1V862H779.1v1.1Z" />
<path fill-rule="evenodd" d="M871.2,863.1h1.1V862h-1.1v1.1Z" />
<path fill-rule="evenodd" d="M37.4,888.4h1.1V863.1H37.4v25.3Z" />
<path fill-rule="evenodd" d="M86,888.4h1.1V863.1H86v25.3Z" />
<path fill-rule="evenodd" d="M697,888.4h1.1V863.1H697v25.3Z" />
<path fill-rule="evenodd" d="M778,888.4h1.1V863.1H778v25.3Z" />
<path fill-rule="evenodd" d="M871.2,888.4h1.1V863.1h-1.1v25.3Z" />
<text x="53" y="907" class="s4_1">15 </text>
<text x="91" y="907" dx="0,0,0,-0.1,-0.1,0,-0.1,0.1,0,0,0,0.1,0,-0.1,0,0,-0.1,0,-0.1,0,0,0,0,0,-0.1,0,0,-0.1,0,0,0,0,-0.1,0,0,-0.1,-0.1,0,-0.1,0,0,-0.1,0,0,0.1,0,0,-0.1,-0.1,0,-0.1,0,0,-0.1,0,-0.1,0,-0.1,0,0,0,0,-0.1,0.1,0,-0.1,0,-0.1,0.1,0,-0.1,0.1,0,0,-0.1,0.4" class="s4_1">Hallensprecher Begrüßung, Präsentation, Vorstellung Spieler, Schiedsrichter </text>
<path fill-rule="evenodd" d="M37.4,889.5h1.1v-1.1H37.4v1.1Z" />
<path fill-rule="evenodd" d="M38.5,889.5H86v-1.1H38.5v1.1Z" />
<path fill-rule="evenodd" d="M86,889.5h1.1v-1.1H86v1.1Z" />
<path fill-rule="evenodd" d="M87.1,889.5H697v-1.1H87.1v1.1Z" />
<path fill-rule="evenodd" d="M697,889.5h1.1v-1.1H697v1.1Z" />
<path fill-rule="evenodd" d="M698.1,889.5H778v-1.1H698.1v1.1Z" />
<path fill-rule="evenodd" d="M778,889.5h1.1v-1.1H778v1.1Z" />
<path fill-rule="evenodd" d="M779.1,889.5h92.1v-1.1H779.1v1.1Z" />
<path fill-rule="evenodd" d="M871.2,889.5h1.1v-1.1h-1.1v1.1Z" />
<path fill-rule="evenodd" d="M37.4,914.3h1.1V889.5H37.4v24.8Z" />
<path fill-rule="evenodd" d="M86,914.3h1.1V889.5H86v24.8Z" />
<path fill-rule="evenodd" d="M697,914.3h1.1V889.5H697v24.8Z" />
<path fill-rule="evenodd" d="M778,914.3h1.1V889.5H778v24.8Z" />
<path fill-rule="evenodd" d="M871.2,914.3h1.1V889.5h-1.1v24.8Z" />
<text x="53" y="938" class="s4_1">16 </text>
<text x="91" y="929" dx="0,0,0,0,-0.1,0.1,0.1,0,-0.1,0.2,0,0,-0.1,0,-0.1,0,0,-0.1,-0.1,0,-0.1,0,-0.1,0,-0.1,-0.1,0.1,0,-0.1,0,0,-0.1,0,0.2,-0.1,0,-0.1,0,-0.1,0,-0.1,0,0,-0.1,-0.1,0,0.2,0,-0.1,0.3,0,0,0,0,0,0.3,-0.1,0,0,-0.1,0.3,0.1,0,-0.1,0,-0.1,0,0,0,0,0,0,0,-0.1,0,0,0,0,0,0.3,0,-0.1,0,0,-0.1,0" class="s4_1">Mannschaften in einheitlicher Bekleidung bei Trikots (mit BL-Logo), Hosen, Röcken und </text>
<text x="91" y="946" dx="0,0.2,0,0,-0.1,0,-0.1,0,-0.1,0.1,0,-0.1,-0.3,0,-0.1,0,0" class="s4_1">Trainingsanzügen </text>
<path fill-rule="evenodd" d="M37.4,915.4h1.1v-1.1H37.4v1.1Z" />
<path fill-rule="evenodd" d="M38.5,915.4H86v-1.1H38.5v1.1Z" />
<path fill-rule="evenodd" d="M86,915.4h1.1v-1.1H86v1.1Z" />
<path fill-rule="evenodd" d="M87.1,915.4H697v-1.1H87.1v1.1Z" />
<path fill-rule="evenodd" d="M697,915.4h1.1v-1.1H697v1.1Z" />
<path fill-rule="evenodd" d="M698.1,915.4H778v-1.1H698.1v1.1Z" />
<path fill-rule="evenodd" d="M778,915.4h1.1v-1.1H778v1.1Z" />
<path fill-rule="evenodd" d="M779.1,915.4h92.1v-1.1H779.1v1.1Z" />
<path fill-rule="evenodd" d="M871.2,915.4h1.1v-1.1h-1.1v1.1Z" />
<path fill-rule="evenodd" d="M37.4,950.2h1.1V915.4H37.4v34.8Z" />
<path fill-rule="evenodd" d="M86,950.2h1.1V915.4H86v34.8Z" />
<path fill-rule="evenodd" d="M697,950.2h1.1V915.4H697v34.8Z" />
<path fill-rule="evenodd" d="M778,950.2h1.1V915.4H778v34.8Z" />
<path fill-rule="evenodd" d="M871.2,950.2h1.1V915.4h-1.1v34.8Z" />
<text x="53" y="969" class="s4_1">17 </text>
<text x="91" y="969" dx="0,-0.1,0,0.1,0,0,0.1,0,0,-0.1,0,0,0,-0.1,0,-0.3,0,-0.1,0,-0.1,0,0,-0.1,0,-0.1,0,-0.1,0,-0.1,0,-0.1,0,-0.1,0,0,-0.1,0,0.1,0,0,-0.1,0,-0.1,0,0,0,0,0,0.2" class="s4_1">Aufruf der einzelnen Begegnungen durch Moderator </text>
<path fill-rule="evenodd" d="M37.4,951.3h1.1v-1.1H37.4v1.1Z" />
<path fill-rule="evenodd" d="M38.5,951.3H86v-1.1H38.5v1.1Z" />
<path fill-rule="evenodd" d="M86,951.3h1.1v-1.1H86v1.1Z" />
<path fill-rule="evenodd" d="M87.1,951.3H697v-1.1H87.1v1.1Z" />
<path fill-rule="evenodd" d="M697,951.3h1.1v-1.1H697v1.1Z" />
<path fill-rule="evenodd" d="M698.1,951.3H778v-1.1H698.1v1.1Z" />
<path fill-rule="evenodd" d="M778,951.3h1.1v-1.1H778v1.1Z" />
<path fill-rule="evenodd" d="M779.1,951.3h92.1v-1.1H779.1v1.1Z" />
<path fill-rule="evenodd" d="M871.2,951.3h1.1v-1.1h-1.1v1.1Z" />
<path fill-rule="evenodd" d="M37.4,976h1.1V951.3H37.4V976Z" />
<path fill-rule="evenodd" d="M37.4,977.1h1.1V976H37.4v1.1Z" />
<path fill-rule="evenodd" d="M37.4,977.1h1.1V976H37.4v1.1Z" />
<path fill-rule="evenodd" d="M38.5,977.1H86V976H38.5v1.1Z" />
<path fill-rule="evenodd" d="M86,976h1.1V951.3H86V976Z" />
<path fill-rule="evenodd" d="M86,977.1h1.1V976H86v1.1Z" />
<path fill-rule="evenodd" d="M87.1,977.1H697V976H87.1v1.1Z" />
<path fill-rule="evenodd" d="M697,976h1.1V951.3H697V976Z" />
<path fill-rule="evenodd" d="M697,977.1h1.1V976H697v1.1Z" />
<path fill-rule="evenodd" d="M698.1,977.1H778V976H698.1v1.1Z" />
<path fill-rule="evenodd" d="M778,976h1.1V951.3H778V976Z" />
<path fill-rule="evenodd" d="M778,977.1h1.1V976H778v1.1Z" />
<path fill-rule="evenodd" d="M779.1,977.1h92.1V976H779.1v1.1Z" />
<path fill-rule="evenodd" d="M871.2,976h1.1V951.3h-1.1V976Z" />
<path fill-rule="evenodd" d="M871.2,977.1h1.1V976h-1.1v1.1Z" />
<path fill-rule="evenodd" d="M871.2,977.1h1.1V976h-1.1v1.1Z" />
<text x="43" y="1012" dx="0,0,0,0,0.1,0,0.1,0,0,0,0,0.1,0.1" class="s5_1">Bemerkungen: </text>
<path fill-rule="evenodd" d="M177.1,1016.7H854.7v-1.8H177.1v1.8Z" />
<path fill-rule="evenodd" d="M43.3,1060H854.7v-1.8H43.3v1.8Z" />
<path fill-rule="evenodd" d="M43.3,1103.3H854.7v-1.8H43.3v1.8Z" />
<path fill-rule="evenodd" d="M43.3,1146.6H854.7v-1.9H43.3v1.9Z" />
<text x="43" y="1192" dx="0,0,0,0,0,-0.1,0,0.5,-0.1,0.1,0,0.1,0.1,0,-0.1,0,0.1,0.3,0,0,-0.1,0.1,0,-0.1,0,0.1,0.1,0,-0.1,0,0,0.1,0" class="s1_1">Verantwortlicher Schiedsrichter: </text>
<path fill-rule="evenodd" d="M381.4,1197H854.7v-2.2H381.4v2.2Z" />
<text x="421" y="1217" dx="0,-0.1,0,0,0" class="s1_1">Name </text>
<text x="692" y="1217" dx="0,-0.1,-0.1,0,0,0.1,0,0,-0.1,0.1,0.1,0,0" class="s1_1">Unterschrift </text>

<text x="170" y="85" style="font-size:14px;" id="es_svg_team0"></text>
<text x="440" y="85" style="font-size:14px;" id="es_svg_team1"></text>
<text x="770" y="85" style="font-size:14px;" id="es_svg_date"></text>

</svg>
