<svg x="0" y="0" width="909" height="1286" viewBox="0 0 909 1286" version="1.1" xmlns="http://www.w3.org/2000/svg">
<defs>

<style type="text/css">
text {
	font-family: Arial, Helvetica, sans-serif;
	fill: #000000;
}

.s1_1{
	font-size: 21.45px;
	font-weight: bold;
}
.s2_1{
	font-size: 16.13px;
}
.s3_1{
	font-size: 13.75px;
	font-weight: bold;
}
.s4_1{
	font-size: 15.22px;
}
.s5_1{
	font-size: 18.33px;
	font-weight: bold;
}

</style>

</defs>
<path d="M0,0
L0,1286
L909,1286
L909,0 Z " 
fill="#FFFFFF" stroke="none" />
<text x="71" y="44" dx="0,0.3,0.1,-0.1,-0.1,0,0,0,0,-0.1,0,-0.1,0.1,-0.1,0,0.1,-0.1,-0.1,-0.1,0,-0.1,0.1,-0.1,-0.1,-0.1,0.1,0,0,-0.1,0,0,-0.1,0.1,-0.1,-0.1,-0.1,0,-0.1,0.1,-0.1,-0.1,-0.1,-0.1,0,0,0,0.1,-0.1,0,0.1,0,-0.1,0.1,0,0,0,0,-0.1,-0.1,0.1,0,0,0.4,0,0,0,0" class="s1_1">Mindestanforderungen und Empfehlungen Bundesliga ab Saison 2018-19 </text>
<path fill-rule="evenodd" d="M16.9,22.7H18V21.6H16.9v1.1Z" class="g0_1" />
<path fill-rule="evenodd" d="M16.9,22.7H18V21.6H16.9v1.1Z" class="g0_1" />
<path fill-rule="evenodd" d="M18,22.7H879.1V21.6H18v1.1Z" class="g0_1" />
<path fill-rule="evenodd" d="M879.1,22.7h1.1V21.6h-1.1v1.1Z" class="g0_1" />
<path fill-rule="evenodd" d="M879.1,22.7h1.1V21.6h-1.1v1.1Z" class="g0_1" />
<path fill-rule="evenodd" d="M16.9,52.1H18V51H16.9v1.1Z" class="g0_1" />
<path fill-rule="evenodd" d="M16.9,52.1H18V51H16.9v1.1Z" class="g0_1" />
<path fill-rule="evenodd" d="M18,52.1H879.1V51H18v1.1Z" class="g0_1" />
<path fill-rule="evenodd" d="M879.1,52.1h1.1V51h-1.1v1.1Z" class="g0_1" />
<path fill-rule="evenodd" d="M879.1,52.1h1.1V51h-1.1v1.1Z" class="g0_1" />
<path fill-rule="evenodd" d="M16.9,51H18V22.7H16.9V51Z" class="g0_1" />
<path fill-rule="evenodd" d="M879.1,51h1.1V22.7h-1.1V51Z" class="g0_1" />
<text x="21" y="87" dx="0,-0.1,0,-0.1,0,-0.1,-0.1,-0.1,-0.1,-0.1,-0.1" class="s1_1">Begegnung: </text>
<path fill-rule="evenodd" d="M146,91.7H346.2V89.5H146v2.2Z" class="g0_1" />
<text x="352" y="87" dx="0,-0.1,0,-0.1,0,-0.1" class="s1_1">gegen </text>
<path fill-rule="evenodd" d="M415.1,91.7H647V89.5H415.1v2.2Z" class="g0_1" />
<text x="671" y="87" dx="0,-0.1,0,0,-0.1,0,-0.2,0,0,0,0,0,0,-0.1,0" class="s1_1">Datum:________ </text>
<text x="21" y="125" dx="0,0.1,0.1,0,-0.1,0,0.1,0,0,-0.1,-0.2,0.1,0.1,-0.1,0,0,0,0.1,0,0.1,0.1,0,0,-0.1,0,0,0,-0.1,0,0,0,0.1,0,0.1,0,0,0.1,-0.1" class="s2_1">Hinweise zum Ausfüllen des Formulars: </text>
<text x="21" y="158" dx="0,0,0.1,0,0,0,0,0,0,0,0,-0.1,0.1,0,0,0,0,0,0.1,-0.1" class="s2_1">Liebe Sportfreunde, </text>
<text x="21" y="191" dx="0,0,0.1,0,3,0.1,0,0.1,0,0,0,0.2,0,3,0,0.1,0,-0.1,0,3,0,0,0.1,0,0,0,0.1,-0.1,0,-0.1,3,0,0.1,0,3.2,0,0,0.1,0,0,3,0,0,0,0,0,0,0,0,0,3,0.1,0,2.8,0,0,0,2.8,0,0,0,0,2.8,0,-0.1,0,0,0,0,2.8,0,0.1,2.8,0,0,-0.1,0,0,-0.1,0.4,0,0,0,2.9,0.1,0,2.8,0.7,0.1,0,0,0,0,0.1,0,0,-0.1,0,3,0,0,0,0,0,2.8,0,0.1,0" class="s2_1">die folgende Liste beinhaltet die gemäß Absprache in der BLVV 5/2017 am 14.10.2017 in Wipperfürth durch die </text>
<text x="21" y="210" dx="0,0,0,-0.1,0,0.1,0.1,0.1,0,-0.1,0,0,0.3,0,0,0,0,0,0,0,0.5,-0.2,0,0.3,0,0,0,0,0,-0.1,0,0.1,0,0,0,0,0,0.3,0,0.1,0,0,0,0,0,0,0,0.1,0,0,0,0,-0.1,0,0,0,0,0.2,0.1,0,0,0,0.1,0,0.1,0,0.1,0,0,0.1,0,0,0,0,0,0.2,0,0,0,0,0,0,-0.1,0.1,0,0,0.1,0,0,0,0.1,0,0.1,0.1,0.1,0,0,0,0.7,0,-0.1,-0.1,0.2,0,0.1,0,0.1,0,0.1,0.1,0" class="s2_1">beteiligten Vereine zu überprüfenden Mindestanforderungen und Empfehlungen der BLO Anlage VI für Wettkämpfe in </text>
<text x="21" y="228" dx="0,0,0,0,3.5,0,-0.1,3.6,0,0,0,3.6,0,-0.1,3.6,0,0,0,0.1,0.1,0,-0.1,0,0.2,-0.1,0,0,0,0,0,0,0.1,0.1,0,0,-0.1,3.4,0.1,0.1,0,3.4,0,0.1,0,-0.1,0,3.4,0.1,0,-0.1,3.4,0,0,0.1,3.4,-0.1,0,0.1,0,0.1,0,0,0.5,-0.1,0,0,0.1,0,0.1,0,0,0,0,0,0,-0.1,3.4,0,0,0.1,3.4,0,0.1,0,0,0,0,0,0,0,0,3.4,0,0,3.4,0,0,0,3.4,0,0,0,0,0,0,0.1,0.1,0,0.4" class="s2_1">der 1. und 2. Badminton-Bundesliga. Die Liste ist dem Original-Spielbericht bei Einsendung an den Bundesliga-</text>
<text x="21" y="247" dx="0,0,0,0.1,0,0.1,0.1,0.1,0.1,-0.1,0,0,3.9,0.1,0.1,-0.1,3.9,0,0,0,0.1,0,4,0,0,4,0,0,0,4,0,0,0,0,0,0,-0.2,0,0,0,0,0,4,0,0,0,4,0,0.1,0,0,4.3,0,0,0,4,0,0,0,4,0,0,0,0,0,0,0,0,0,0,0,0,0,0,3.9,0,0,0,3.8,0.1,0,0,0,4,0,0,0,0,0,3.7,0,0,0,3.8,0.1,0,0.1,0.1,-0.2,0,0,0,0,0" class="s2_1">Spielleiter mit Kopie an den Vorsitzenden des AfBL und den Pressesprecher des DBLV durch den Heimverein </text>
<text x="21" y="266" dx="0,0,0,0.1,-0.2,0,0.1,0,0,0,0,0" class="s2_1">beizufügen. </text>
<text x="21" y="284" dx="0,0,0.1,-0.1,6.1,0,0.1,0,6.2,0.1,0,-0.1,0,0,0,0,0,-0.1,0.1,0.1,0,0,0,6.1,0,0,0,0,0,0,0.1,0,0.1,0.1,0,0,6.2,0,0.1,0,6.1,0,0,0,0,0,-0.1,-0.1,0,0,-0.1,0.1,0.1,0,0,0,0,6.2,0,0,0,6.1,0,0,0,0,0,0,0,6.4,0.1,0,0,0.1,0,0.1,0.1,0,0,-0.1,6,0,0,0,0,6,0,0.1,0,6,0,0,0.1,0,0,0,0,-0.1,0,0,0,0,0.3,6,0,0,0" class="s2_1">Mit den Unterschriften bescheinigen die Verantwortlichen der Vereine lediglich, dass die Anforderungen und </text>
<text x="21" y="303" dx="0,0,0.1,0,0.1,0,0,0.1,0,0,0,0,0,0.1,-0.2,0,0,0,0,0,0,0,0,0,0,-0.2,-0.1,-0.1,-0.1,0,0.1,0,0,-0.1,-0.1,-0.2,0,0,0,0,0,0,0,0,0,-0.1,0,0,0,0,-0.1" class="s2_1">Empfehlungen vorhanden bzw. nicht vorhanden waren. </text>
<text x="21" y="322" dx="0,0,0,0.1,0.1,-0.1,0,3,0,0,3,0,0,0.1,0.1,3,0,0,0,0.1,0,0.1,0.1,0,0,3,0,0.1,0,0,0,0,3,0,0.1,0,-0.1,0,3,0,0,0,0,3,-0.2,0,3,0,0,0,0,0,0,3,0.2,0,0.1,0.1,0,0,-0.1,3,0,0,3,0.2,0,0,0,0,0,3,0,0.1,0,0,0,3,0.1,0.1,2.8,0.1,0,-0.1,0.1,0,0.1,0.1,2.8,0,0,0,2.8,0,0,0.1,0,0.1,0,0,2.9,0.1,0.1,-0.1,2.8,0,0,0.1" class="s2_1">Sollte es beim Ausfüllen dieser Liste doch zu Fragen kommen, so können diese im Notfall per Telefon mit dem </text>
<text x="21" y="341" dx="0,0,0,0,0,0,0,0.1,0.1,0,0.1,-0.1,0,0,0.1,0,0.1,0.1,0,0.1,-0.1,0,0,0.6,0,0,0,0,0,0.4,0,0,0,0,0,0,-0.1,0.5,0,0,-0.1,0,0,0.4,0,0,0,0.4,0.1,0,0.1,0,0,0.1,0.1,0,0,0.4,0,0,0,0,0.4,-0.1,0,0,0,0,0,0,-0.1,0.5,0,0,0.1,0.5,0,0,0,0,0,0,-0.2,0,0,0,0,0,0.5,0,0,0,0.5,0,0.1,0,0,0.5,0,0,0,0,0.5,0,0,0,0.1,0,-0.2" class="s2_1">Bundesliga-Spielleiter Bernd Mohaupt unter der Rufnummer 05241-531760, dem Vorsitzenden des AfBL Arno Schley </text>
<text x="21" y="359" dx="0,0,0,-0.1,0,0,5.7,0,0,0,0,-0.1,0,0,0,0,0,0,0,0,5.8,0,0,0,0,5.7,0,0,0.2,0,0,-0.1,0,0,0,0,0.1,5.6,0,0,0,0,5.6,0,0,0.1,5.6,0,0,0,0,0,0,0,0,0,0,0,0,0,0,5.5,0.1,0,0.1,0.1,0,-0.1,5.6,0.1,0,0,0,0,0,-0.1,5.6,0,0,-0.1,0,0,5.5,0,0,0,0,-0.1,0,0,0,0,0,0,0,5.6,0,0,0,0" class="s2_1">unter 0176/52500972 oder 06821/53456 oder dem Pressesprecher Helmut Ruppert unter 0172/6110612 oder </text>
<text x="21" y="378" dx="0,0,0,0,0,-0.1,0,0,0,0,0,0,0,0.2,0,0,-0.2,0.1,0,0.1,0,-0.1,0.1,0,-0.1,0,0,0,0,-0.1,-0.1,0,0,-0.1,0,-0.1,-0.1,-0.1,0,0,0,0,0,0" class="s2_1">0611/841194 kurzfristig beantwortet werden. </text>
<text x="21" y="411" dx="0,0,0,0,-0.1,0,0,0,0,-0.1,0.1,0,-0.1,0,0,0,-0.1,0,-0.1,-0.2,0,0,0,0,0,0,0,-0.1,0,0,0,-0.1,0,0.1,0,0,0,0.1,-0.1,0,0,0,0,0,0,-0.1,-0.1,0,0.1,0,0,0,0,0,0,0,0.1,0,0,0,0,-0.1,0,0,0,0,0,-0.1,0,0,0,0.5,0,0,-0.1,0,0,0,0,-0.1,0,0,0,-0.1,0,0.1,0,0.2,-0.1,0,0,0,0,0,0,-0.1,-0.1,0,0.1,0,0,-0.2,0,0,0,0,0,0,0.7" class="s2_1">Für Eure Unterstützung bei der Einhaltung der Mindestanforderungen danken Euch der AfBL und der Ligaverband! </text>
<text x="25" y="450" dx="0,-0.1,0.1,0.1" class="s1_1">Nr. </text>
<text x="110" y="450" dx="0,0.3,0.1,-0.1,-0.1,0,0,0,0,-0.1,0,-0.1,0.1,-0.1,0,0.1,-0.1,-0.1,-0.1,0.1,-0.1,-0.1,-0.1,0.1,0,0.1,-0.1,0,0,-0.1,0.1,-0.1,-0.1,-0.1,0,-0.1,0.1,0,0.1,0,0,0,0,0.1,-0.1,0,0.1,0.1,0,0,0.1" class="s1_1">Mindestanforderung und Empfehlungen - Vereinsliste </text>
<text x="712" y="443" dx="0,-0.1,0,0,0,0.1,0,0.1,0,0.1" class="s3_1">vorhanden </text>
<text x="816" y="443" class="s3_1">Nicht </text>
<text x="798" y="459" dx="0,-0.1,0,0,0,0.1,0,0.1,0,0.1" class="s3_1">vorhanden </text>
<path fill-rule="evenodd" d="M15.8,430.2h1.1v-1.1H15.8v1.1Z" class="g0_1" />
<path fill-rule="evenodd" d="M15.8,430.2h1.1v-1.1H15.8v1.1Z" class="g0_1" />
<path fill-rule="evenodd" d="M16.9,430.2H64.3v-1.1H16.9v1.1Z" class="g0_1" />
<path fill-rule="evenodd" d="M64.3,430.2h1.2v-1.1H64.3v1.1Z" class="g0_1" />
<path fill-rule="evenodd" d="M65.5,430.2H703.4v-1.1H65.5v1.1Z" class="g0_1" />
<path fill-rule="evenodd" d="M703.4,430.2h1.1v-1.1h-1.1v1.1Z" class="g0_1" />
<path fill-rule="evenodd" d="M704.5,430.2h85.7v-1.1H704.5v1.1Z" class="g0_1" />
<path fill-rule="evenodd" d="M790.2,430.2h1.1v-1.1h-1.1v1.1Z" class="g0_1" />
<path fill-rule="evenodd" d="M791.3,430.2h85.4v-1.1H791.3v1.1Z" class="g0_1" />
<path fill-rule="evenodd" d="M876.7,430.2h1.1v-1.1h-1.1v1.1Z" class="g0_1" />
<path fill-rule="evenodd" d="M876.7,430.2h1.1v-1.1h-1.1v1.1Z" class="g0_1" />
<path fill-rule="evenodd" d="M15.8,463.2h1.1v-33H15.8v33Z" class="g0_1" />
<path fill-rule="evenodd" d="M64.3,463.2h1.2v-33H64.3v33Z" class="g0_1" />
<path fill-rule="evenodd" d="M703.4,463.2h1.1v-33h-1.1v33Z" class="g0_1" />
<path fill-rule="evenodd" d="M790.2,463.2h1.1v-33h-1.1v33Z" class="g0_1" />
<path fill-rule="evenodd" d="M876.7,463.2h1.1v-33h-1.1v33Z" class="g0_1" />
<text x="36" y="478" class="s4_1">1 </text>
<text x="70" y="486" dx="0,0,-0.1,0,0,0,0,0.1,0.1,0,-0.1,0,-0.1,0,0.3,0,-0.1,0,-0.3,-0.1,0,0,-0.1,0,0.3,0,0,0.1,0,-0.1,0,0,-0.1,0,0,0,0,0,0,-0.1,0,-0.1,0,-0.1,0.1,-0.1,-0.1,0,-0.1,0,0.3,-0.1,0,-0.1,0,0,0,0,-0.1,0.1,0,0,-0.1,0,0,-0.1,-0.1,0,-0.3,0,-0.1,0,0,-0.3,0,0,-0.1,0,0,0,0,0,-0.1,0.3" class="s4_1">Die Zuschauerkapazität muss in der 1. Bundesliga mindestens 150 Sitzplätze betragen </text>
<path fill-rule="evenodd" d="M15.8,464.3h1.1v-1.1H15.8v1.1Z" class="g0_1" />
<path fill-rule="evenodd" d="M16.9,464.3H64.3v-1.1H16.9v1.1Z" class="g0_1" />
<path fill-rule="evenodd" d="M64.3,464.3h1.2v-1.1H64.3v1.1Z" class="g0_1" />
<path fill-rule="evenodd" d="M65.5,464.3H703.4v-1.1H65.5v1.1Z" class="g0_1" />
<path fill-rule="evenodd" d="M703.4,464.3h1.1v-1.1h-1.1v1.1Z" class="g0_1" />
<path fill-rule="evenodd" d="M704.5,464.3h85.7v-1.1H704.5v1.1Z" class="g0_1" />
<path fill-rule="evenodd" d="M790.2,464.3h1.1v-1.1h-1.1v1.1Z" class="g0_1" />
<path fill-rule="evenodd" d="M791.3,464.3h85.4v-1.1H791.3v1.1Z" class="g0_1" />
<path fill-rule="evenodd" d="M876.7,464.3h1.1v-1.1h-1.1v1.1Z" class="g0_1" />
<path fill-rule="evenodd" d="M15.8,489.4h1.1V464.3H15.8v25.1Z" class="g0_1" />
<path fill-rule="evenodd" d="M64.3,489.4h1.2V464.3H64.3v25.1Z" class="g0_1" />
<path fill-rule="evenodd" d="M703.4,489.4h1.1V464.3h-1.1v25.1Z" class="g0_1" />
<path fill-rule="evenodd" d="M790.2,489.4h1.1V464.3h-1.1v25.1Z" class="g0_1" />
<path fill-rule="evenodd" d="M876.7,489.4h1.1V464.3h-1.1v25.1Z" class="g0_1" />
<text x="36" y="504" class="s4_1">2 </text>
<text x="70" y="512" dx="0,0,-0.1,0,0,0,0,0.1,0.1,0,-0.1,0,-0.1,0,0.3,0,-0.1,0,-0.3,-0.1,0,0,-0.1,0,0.3,0,0,0.1,0,-0.1,0,0,-0.1,0,0,0,0,0,0,-0.1,0,-0.1,0,-0.1,0.1,-0.1,-0.1,0,-0.1,0,0.3,-0.1,0,-0.1,0,0,0,0,-0.1,0.1,0,0,-0.1,0,-0.1,-0.1,0,-0.3,0,-0.1,0,0,-0.3,0,0,-0.1,0,0,0,0,0,-0.1,0.3" class="s4_1">Die Zuschauerkapazität muss in der 2. Bundesliga mindestens 50 Sitzplätze betragen </text>
<path fill-rule="evenodd" d="M15.8,490.5h1.1v-1.1H15.8v1.1Z" class="g0_1" />
<path fill-rule="evenodd" d="M16.9,490.5H64.3v-1.1H16.9v1.1Z" class="g0_1" />
<path fill-rule="evenodd" d="M64.3,490.5h1.2v-1.1H64.3v1.1Z" class="g0_1" />
<path fill-rule="evenodd" d="M65.5,490.5H703.4v-1.1H65.5v1.1Z" class="g0_1" />
<path fill-rule="evenodd" d="M703.4,490.5h1.1v-1.1h-1.1v1.1Z" class="g0_1" />
<path fill-rule="evenodd" d="M704.5,490.5h85.7v-1.1H704.5v1.1Z" class="g0_1" />
<path fill-rule="evenodd" d="M790.2,490.5h1.1v-1.1h-1.1v1.1Z" class="g0_1" />
<path fill-rule="evenodd" d="M791.3,490.5h85.4v-1.1H791.3v1.1Z" class="g0_1" />
<path fill-rule="evenodd" d="M876.7,490.5h1.1v-1.1h-1.1v1.1Z" class="g0_1" />
<path fill-rule="evenodd" d="M15.8,515.6h1.1V490.5H15.8v25.1Z" class="g0_1" />
<path fill-rule="evenodd" d="M64.3,515.6h1.2V490.5H64.3v25.1Z" class="g0_1" />
<path fill-rule="evenodd" d="M703.4,515.6h1.1V490.5h-1.1v25.1Z" class="g0_1" />
<path fill-rule="evenodd" d="M790.2,515.6h1.1V490.5h-1.1v25.1Z" class="g0_1" />
<path fill-rule="evenodd" d="M876.7,515.6h1.1V490.5h-1.1v25.1Z" class="g0_1" />
<text x="36" y="530" class="s4_1">3 </text>
<text x="70" y="530" dx="0,-0.1,0,0,-0.1,0,-0.1,-0.1,0.1,0,-0.1,-0.3,0,-0.1,0,-0.1,0,0,-0.1,0,-0.1,0.3,0.1,0.1,0" class="s4_1">Ergebnisanzeige: Beamer (</text>
<path fill-rule="evenodd" d="M249.2,527.7h5.1V527h-5.1v.7Z" class="g0_1" />
<text x="254" y="530" dx="0,0,0,0,0,0,0,0,0,0,0,0,0,0,0,0,0,0,0,0,0,0.1,0,-0.1,0,0,0,0.1,0,0,0,0,0,0,0,0.3,0,0,0,0,0.1,0,0,-0.1,0,0,0.1,0.1,0,0,0,0,0,0,0,0,0,0,0,0,0,0.1,0,-0.1,0,0" class="s4_1">4:3 o.16:9) Mindestbreite ca. 2,5 m oder Flatscreen Mindestbreite </text>
<text x="70" y="548" dx="0,0.1,0,0,-0.1,0,-0.1,0,0,0,-0.1,0" class="s4_1">ca. 50 Zoll </text>
<path fill-rule="evenodd" d="M15.8,516.7h1.1v-1.1H15.8v1.1Z" class="g0_1" />
<path fill-rule="evenodd" d="M16.9,516.7H64.3v-1.1H16.9v1.1Z" class="g0_1" />
<path fill-rule="evenodd" d="M64.3,516.7h1.2v-1.1H64.3v1.1Z" class="g0_1" />
<path fill-rule="evenodd" d="M65.5,516.7H703.4v-1.1H65.5v1.1Z" class="g0_1" />
<path fill-rule="evenodd" d="M703.4,516.7h1.1v-1.1h-1.1v1.1Z" class="g0_1" />
<path fill-rule="evenodd" d="M704.5,516.7h85.7v-1.1H704.5v1.1Z" class="g0_1" />
<path fill-rule="evenodd" d="M790.2,516.7h1.1v-1.1h-1.1v1.1Z" class="g0_1" />
<path fill-rule="evenodd" d="M791.3,516.7h85.4v-1.1H791.3v1.1Z" class="g0_1" />
<path fill-rule="evenodd" d="M876.7,516.7h1.1v-1.1h-1.1v1.1Z" class="g0_1" />
<path fill-rule="evenodd" d="M15.8,551.5h1.1V516.7H15.8v34.8Z" class="g0_1" />
<path fill-rule="evenodd" d="M64.3,551.5h1.2V516.7H64.3v34.8Z" class="g0_1" />
<path fill-rule="evenodd" d="M703.4,551.5h1.1V516.7h-1.1v34.8Z" class="g0_1" />
<path fill-rule="evenodd" d="M790.2,551.5h1.1V516.7h-1.1v34.8Z" class="g0_1" />
<path fill-rule="evenodd" d="M876.7,551.5h1.1V516.7h-1.1v34.8Z" class="g0_1" />
<text x="36" y="566" class="s4_1">4 </text>
<text x="70" y="566" dx="0,0,-0.1,0,0,-0.1,0,-0.1,0,-0.1,0.2,-0.1,0,0,0,-0.1,0,-0.1,0.1,0,0,-0.1,0,0,-0.1,0,0,0,0,0,0,-0.1,0,-0.1,0,-0.1,0.1,-0.1,-0.1,0,-0.1,0,-0.1,0,-0.1,0,0,-0.1,0,-0.1,0.3,0,0.8,0,0,-0.1,0.3,0,0.3,0,0.1,0,-0.1,0,0,-0.1,0.1,0,0,-0.1,0.3,0,-0.1,0,-0.1,0,0,-0.1,0,-0.1,0,0,0,-0.1,0.2,0,0,-0.1,-0.1,0,-0.1" class="s4_1">Die Spielfläche ist in der 1. Bundesliga von einem Wettkampfbereich umgeben, der auf allen </text>
<text x="70" y="584" dx="0,-0.1,0,-0.1,0,0,-0.1,0,0.3,-0.1,0,-0.1,0,0,0,0,-0.1,0.1,0,0.1,0,0,-0.1,0,0,0.3,0,0,0,0,-0.1,0,0,-0.1,0,-0.1,0,-0.1,0,-0.1,0,0,-0.1,0,0,-0.1,0,-0.1,0,-0.1,0.2,-0.1,0,0,0,-0.1,0,0.1,0,0,0,-0.1,-0.1,0.1,0,0,-0.1,0,-0.1,0,-0.1,0,-0.1,0,-0.1,0,0,-0.1,0.1,0.3,0,-0.1,0,0,-0.1,0,-0.1,0.1,0,0,0,0,-0.1,0" class="s4_1">Seiten mindestens ca. 1 m breit und von der Spielfläche farblich abgehoben gestaltet ist. Der </text>
<text x="70" y="601" dx="0,0.8,0,0,-0.1,0.3,0,0.3,0,0.1,0,-0.1,0,0,-0.1,0.1,0,0,0.2,0,-0.1,0,0,0.3,-0.1,0,0,-0.1,0.3,-0.1,0,-0.1,0.2,0,-0.1,0,-0.1,0,0,0.8,0,0,0,0,0,-0.1,0,-0.1,0,-0.1,0,0,-0.1,0.1,0.1,0,-0.1,-0.1,0,0,0,0,0.3" class="s4_1">Wettkampfbereich kann mit umlaufenden Werbebanden abschließen. </text>
<path fill-rule="evenodd" d="M15.8,552.6h1.1v-1.1H15.8v1.1Z" class="g0_1" />
<path fill-rule="evenodd" d="M16.9,552.6H64.3v-1.1H16.9v1.1Z" class="g0_1" />
<path fill-rule="evenodd" d="M64.3,552.6h1.2v-1.1H64.3v1.1Z" class="g0_1" />
<path fill-rule="evenodd" d="M65.5,552.6H703.4v-1.1H65.5v1.1Z" class="g0_1" />
<path fill-rule="evenodd" d="M703.4,552.6h1.1v-1.1h-1.1v1.1Z" class="g0_1" />
<path fill-rule="evenodd" d="M704.5,552.6h85.7v-1.1H704.5v1.1Z" class="g0_1" />
<path fill-rule="evenodd" d="M790.2,552.6h1.1v-1.1h-1.1v1.1Z" class="g0_1" />
<path fill-rule="evenodd" d="M791.3,552.6h85.4v-1.1H791.3v1.1Z" class="g0_1" />
<path fill-rule="evenodd" d="M876.7,552.6h1.1v-1.1h-1.1v1.1Z" class="g0_1" />
<path fill-rule="evenodd" d="M15.8,604.9h1.1V552.6H15.8v52.3Z" class="g0_1" />
<path fill-rule="evenodd" d="M64.3,604.9h1.2V552.6H64.3v52.3Z" class="g0_1" />
<path fill-rule="evenodd" d="M703.4,604.9h1.1V552.6h-1.1v52.3Z" class="g0_1" />
<path fill-rule="evenodd" d="M790.2,604.9h1.1V552.6h-1.1v52.3Z" class="g0_1" />
<path fill-rule="evenodd" d="M876.7,604.9h1.1V552.6h-1.1v52.3Z" class="g0_1" />
<text x="36" y="620" class="s4_1">5 </text>
<text x="70" y="620" dx="0,0,-0.1,-0.1,0,0,0.1,0,0,0,0,0.2,-0.1,0.1,0.3,0,0,0.1,0.1,0.1,0,-0.2,0,-0.1,0,0,-0.1,0,0,0.2,0,-0.1,0,-0.1,0,0,0,0.3,-0.1,0,0,-0.1,-0.1,0,-0.1,-0.1,0,-0.1,0,-0.1,0,0,-0.1,0,0.1,0,0,-0.1,0,0,-0.1,0,0.3,0,0,-0.1,0,-0.1,0,-0.1,0,0,0,0,0,-0.1,0,-0.1,0,-0.1,0" class="s4_1">Livescore/Ticker (soweit verfügbar: mit Einbindung auf der vom DBLV vorgegebenen </text>
<text x="70" y="637" dx="0,0,0,0.3,0,-0.1,0,-0.1,0,0.1" class="s4_1">Homepage) </text>
<path fill-rule="evenodd" d="M15.8,606h1.1v-1.1H15.8V606Z" class="g0_1" />
<path fill-rule="evenodd" d="M16.9,606H64.3v-1.1H16.9V606Z" class="g0_1" />
<path fill-rule="evenodd" d="M64.3,606h1.2v-1.1H64.3V606Z" class="g0_1" />
<path fill-rule="evenodd" d="M65.5,606H703.4v-1.1H65.5V606Z" class="g0_1" />
<path fill-rule="evenodd" d="M703.4,606h1.1v-1.1h-1.1V606Z" class="g0_1" />
<path fill-rule="evenodd" d="M704.5,606h85.7v-1.1H704.5V606Z" class="g0_1" />
<path fill-rule="evenodd" d="M790.2,606h1.1v-1.1h-1.1V606Z" class="g0_1" />
<path fill-rule="evenodd" d="M791.3,606h85.4v-1.1H791.3V606Z" class="g0_1" />
<path fill-rule="evenodd" d="M876.7,606h1.1v-1.1h-1.1V606Z" class="g0_1" />
<path fill-rule="evenodd" d="M15.8,640.9h1.1V606H15.8v34.9Z" class="g0_1" />
<path fill-rule="evenodd" d="M64.3,640.9h1.2V606H64.3v34.9Z" class="g0_1" />
<path fill-rule="evenodd" d="M703.4,640.9h1.1V606h-1.1v34.9Z" class="g0_1" />
<path fill-rule="evenodd" d="M790.2,640.9h1.1V606h-1.1v34.9Z" class="g0_1" />
<path fill-rule="evenodd" d="M876.7,640.9h1.1V606h-1.1v34.9Z" class="g0_1" />
<text x="36" y="656" class="s4_1">6 </text>
<text x="70" y="663" dx="0,0,0,0.1,0,0,-0.1,0,-0.1,0" class="s4_1">Cafeteria </text>
<path fill-rule="evenodd" d="M15.8,642h1.1v-1.1H15.8V642Z" class="g0_1" />
<path fill-rule="evenodd" d="M16.9,642H64.3v-1.1H16.9V642Z" class="g0_1" />
<path fill-rule="evenodd" d="M64.3,642h1.2v-1.1H64.3V642Z" class="g0_1" />
<path fill-rule="evenodd" d="M65.5,642H703.4v-1.1H65.5V642Z" class="g0_1" />
<path fill-rule="evenodd" d="M703.4,642h1.1v-1.1h-1.1V642Z" class="g0_1" />
<path fill-rule="evenodd" d="M704.5,642h85.7v-1.1H704.5V642Z" class="g0_1" />
<path fill-rule="evenodd" d="M790.2,642h1.1v-1.1h-1.1V642Z" class="g0_1" />
<path fill-rule="evenodd" d="M791.3,642h85.4v-1.1H791.3V642Z" class="g0_1" />
<path fill-rule="evenodd" d="M876.7,642h1.1v-1.1h-1.1V642Z" class="g0_1" />
<path fill-rule="evenodd" d="M15.8,667.3h1.1V642H15.8v25.3Z" class="g0_1" />
<path fill-rule="evenodd" d="M64.3,667.3h1.2V642H64.3v25.3Z" class="g0_1" />
<path fill-rule="evenodd" d="M703.4,667.3h1.1V642h-1.1v25.3Z" class="g0_1" />
<path fill-rule="evenodd" d="M790.2,667.3h1.1V642h-1.1v25.3Z" class="g0_1" />
<path fill-rule="evenodd" d="M876.7,667.3h1.1V642h-1.1v25.3Z" class="g0_1" />
<text x="36" y="682" class="s4_1">7 </text>
<text x="70" y="682" dx="0,-0.1,0,-0.1,0,-0.1,0,0,-0.1,0,0,0,0,0,0,0.1,0,-0.1,0,-0.3,0,0,-0.1,0,0,0,0.1,0.1,0,-0.1,0,-0.1,0,-0.3,0,-0.1,-0.1,0,0,-0.1,0.2,0,0,-0.1,0.3,0,-0.1,0,-0.1,0,-0.1,0,-0.1,0,-0.1,0.1,0,0,-0.1,0,-0.1,0,0.4,0,0,0,-0.1,-0.1,0.3,-0.1,0,0,0,-0.1,0,0,-0.1,0,0,-0.1,0,0,0,0,0,0.1,0,-0.1" class="s4_1">Angabe der geschätzten Zuschauerzahl auf dem Spielbericht durch Heimverein in Absprache </text>
<text x="70" y="699" dx="0,0.3,-0.1,0,0,0.1,0,0,0,-0.1,0,0,0,-0.1,0" class="s4_1">mit Gastverein </text>
<path fill-rule="evenodd" d="M15.8,668.4h1.1v-1.1H15.8v1.1Z" class="g0_1" />
<path fill-rule="evenodd" d="M16.9,668.4H64.3v-1.1H16.9v1.1Z" class="g0_1" />
<path fill-rule="evenodd" d="M64.3,668.4h1.2v-1.1H64.3v1.1Z" class="g0_1" />
<path fill-rule="evenodd" d="M65.5,668.4H703.4v-1.1H65.5v1.1Z" class="g0_1" />
<path fill-rule="evenodd" d="M703.4,668.4h1.1v-1.1h-1.1v1.1Z" class="g0_1" />
<path fill-rule="evenodd" d="M704.5,668.4h85.7v-1.1H704.5v1.1Z" class="g0_1" />
<path fill-rule="evenodd" d="M790.2,668.4h1.1v-1.1h-1.1v1.1Z" class="g0_1" />
<path fill-rule="evenodd" d="M791.3,668.4h85.4v-1.1H791.3v1.1Z" class="g0_1" />
<path fill-rule="evenodd" d="M876.7,668.4h1.1v-1.1h-1.1v1.1Z" class="g0_1" />
<path fill-rule="evenodd" d="M15.8,703.2h1.1V668.4H15.8v34.8Z" class="g0_1" />
<path fill-rule="evenodd" d="M64.3,703.2h1.2V668.4H64.3v34.8Z" class="g0_1" />
<path fill-rule="evenodd" d="M703.4,703.2h1.1V668.4h-1.1v34.8Z" class="g0_1" />
<path fill-rule="evenodd" d="M790.2,703.2h1.1V668.4h-1.1v34.8Z" class="g0_1" />
<path fill-rule="evenodd" d="M876.7,703.2h1.1V668.4h-1.1v34.8Z" class="g0_1" />
<text x="36" y="718" class="s4_1">8 </text>
<text x="70" y="726" dx="0,-0.1,-0.1,0,0.2,0,0,-0.1,0,0.3,-0.1,0,0,-0.1,0,0.1,0,-0.1,0,-0.1,0,-0.1,0.3,0,-0.1,-0.1,0,-0.1,0,-0.1,0,0,0,-0.1,0,0,-0.1,0.1,0,0,-0.1,0,0,0,0,-0.1,0,0,0,0.1,0,0,-0.1,0,0.1" class="s4_1">Plakate mit BL-Logo im Eingangsbereich der Sportstätte </text>
<path fill-rule="evenodd" d="M15.8,704.3h1.1v-1.1H15.8v1.1Z" class="g0_1" />
<path fill-rule="evenodd" d="M16.9,704.3H64.3v-1.1H16.9v1.1Z" class="g0_1" />
<path fill-rule="evenodd" d="M64.3,704.3h1.2v-1.1H64.3v1.1Z" class="g0_1" />
<path fill-rule="evenodd" d="M65.5,704.3H703.4v-1.1H65.5v1.1Z" class="g0_1" />
<path fill-rule="evenodd" d="M703.4,704.3h1.1v-1.1h-1.1v1.1Z" class="g0_1" />
<path fill-rule="evenodd" d="M704.5,704.3h85.7v-1.1H704.5v1.1Z" class="g0_1" />
<path fill-rule="evenodd" d="M790.2,704.3h1.1v-1.1h-1.1v1.1Z" class="g0_1" />
<path fill-rule="evenodd" d="M791.3,704.3h85.4v-1.1H791.3v1.1Z" class="g0_1" />
<path fill-rule="evenodd" d="M876.7,704.3h1.1v-1.1h-1.1v1.1Z" class="g0_1" />
<path fill-rule="evenodd" d="M15.8,729.4h1.1V704.3H15.8v25.1Z" class="g0_1" />
<path fill-rule="evenodd" d="M64.3,729.4h1.2V704.3H64.3v25.1Z" class="g0_1" />
<path fill-rule="evenodd" d="M703.4,729.4h1.1V704.3h-1.1v25.1Z" class="g0_1" />
<path fill-rule="evenodd" d="M790.2,729.4h1.1V704.3h-1.1v25.1Z" class="g0_1" />
<path fill-rule="evenodd" d="M876.7,729.4h1.1V704.3h-1.1v25.1Z" class="g0_1" />
<text x="36" y="744" class="s4_1">9 </text>
<text x="70" y="752" dx="0,-0.1,0,0,-0.1,0,0,0.3,0.3,0,-0.1,0.2,0,0,0.3,-0.1,0,0,-0.1,0.1,0.1,0,0,0,0,0,0,0,0.2,0,0.2,-0.1,0,0,0,0,0,-0.1,0,0.1" class="s4_1">Programmheft mit BL-Logo auf Titelseite </text>
<path fill-rule="evenodd" d="M15.8,730.5h1.1v-1.1H15.8v1.1Z" class="g0_1" />
<path fill-rule="evenodd" d="M16.9,730.5H64.3v-1.1H16.9v1.1Z" class="g0_1" />
<path fill-rule="evenodd" d="M64.3,730.5h1.2v-1.1H64.3v1.1Z" class="g0_1" />
<path fill-rule="evenodd" d="M65.5,730.5H703.4v-1.1H65.5v1.1Z" class="g0_1" />
<path fill-rule="evenodd" d="M703.4,730.5h1.1v-1.1h-1.1v1.1Z" class="g0_1" />
<path fill-rule="evenodd" d="M704.5,730.5h85.7v-1.1H704.5v1.1Z" class="g0_1" />
<path fill-rule="evenodd" d="M790.2,730.5h1.1v-1.1h-1.1v1.1Z" class="g0_1" />
<path fill-rule="evenodd" d="M791.3,730.5h85.4v-1.1H791.3v1.1Z" class="g0_1" />
<path fill-rule="evenodd" d="M876.7,730.5h1.1v-1.1h-1.1v1.1Z" class="g0_1" />
<path fill-rule="evenodd" d="M15.8,755.6h1.1V730.5H15.8v25.1Z" class="g0_1" />
<path fill-rule="evenodd" d="M64.3,755.6h1.2V730.5H64.3v25.1Z" class="g0_1" />
<path fill-rule="evenodd" d="M703.4,755.6h1.1V730.5h-1.1v25.1Z" class="g0_1" />
<path fill-rule="evenodd" d="M790.2,755.6h1.1V730.5h-1.1v25.1Z" class="g0_1" />
<path fill-rule="evenodd" d="M876.7,755.6h1.1V730.5h-1.1v25.1Z" class="g0_1" />
<text x="32" y="770" class="s4_1">10 </text>
<text x="70" y="778" dx="0,0,0,0.1,-0.1,0.3,0,-0.1,0,0,0,-0.1,0,-0.1,0,-0.1,0,-0.1,0,0,-0.1,0,0,0,0,0,0.3,0,-0.1,0,-0.1,0,-0.1,0,0,-0.1,-0.1,0,-0.1,0,-0.1,0.2,0,0,-0.1,0,-0.1,0.1,0,-0.1,0,0,-0.1,0,0,0,0,-0.1,0,0.3,0,-0.1,0,-0.1,0,0.1" class="s4_1">Musikeinspielungen vor dem Spiel, Einlauf, Pausen, nach dem Spiel </text>
<path fill-rule="evenodd" d="M15.8,756.7h1.1v-1.1H15.8v1.1Z" class="g0_1" />
<path fill-rule="evenodd" d="M16.9,756.7H64.3v-1.1H16.9v1.1Z" class="g0_1" />
<path fill-rule="evenodd" d="M64.3,756.7h1.2v-1.1H64.3v1.1Z" class="g0_1" />
<path fill-rule="evenodd" d="M65.5,756.7H703.4v-1.1H65.5v1.1Z" class="g0_1" />
<path fill-rule="evenodd" d="M703.4,756.7h1.1v-1.1h-1.1v1.1Z" class="g0_1" />
<path fill-rule="evenodd" d="M704.5,756.7h85.7v-1.1H704.5v1.1Z" class="g0_1" />
<path fill-rule="evenodd" d="M790.2,756.7h1.1v-1.1h-1.1v1.1Z" class="g0_1" />
<path fill-rule="evenodd" d="M791.3,756.7h85.4v-1.1H791.3v1.1Z" class="g0_1" />
<path fill-rule="evenodd" d="M876.7,756.7h1.1v-1.1h-1.1v1.1Z" class="g0_1" />
<path fill-rule="evenodd" d="M15.8,781.8h1.1V756.7H15.8v25.1Z" class="g0_1" />
<path fill-rule="evenodd" d="M64.3,781.8h1.2V756.7H64.3v25.1Z" class="g0_1" />
<path fill-rule="evenodd" d="M703.4,781.8h1.1V756.7h-1.1v25.1Z" class="g0_1" />
<path fill-rule="evenodd" d="M790.2,781.8h1.1V756.7h-1.1v25.1Z" class="g0_1" />
<path fill-rule="evenodd" d="M876.7,781.8h1.1V756.7h-1.1v25.1Z" class="g0_1" />
<text x="70" y="804" dx="0,-0.6,0,0.1,0.1,0,0,0,0.1,0,-0.1,0,0,0,0.1,0,0,0,0,0,-0.6,0,-0.1,0,0,0,0,0,0,0,0,0,0,0,0.2,0,0,0,0,0.1,0,0,0,0,0,0,0,0,0,0,0" class="s5_1">Alle nachfolgenden Anforderungen sind Empfehlungen </text>
<path fill-rule="evenodd" d="M15.8,782.9h1.1v-1.1H15.8v1.1Z" class="g0_1" />
<path fill-rule="evenodd" d="M16.9,782.9H64.3v-1.1H16.9v1.1Z" class="g0_1" />
<path fill-rule="evenodd" d="M64.3,782.9h1.2v-1.1H64.3v1.1Z" class="g0_1" />
<path fill-rule="evenodd" d="M65.5,782.9H703.4v-1.1H65.5v1.1Z" class="g0_1" />
<path fill-rule="evenodd" d="M703.4,782.9h1.1v-1.1h-1.1v1.1Z" class="g0_1" />
<path fill-rule="evenodd" d="M704.5,782.9h85.7v-1.1H704.5v1.1Z" class="g0_1" />
<path fill-rule="evenodd" d="M790.2,782.9h1.1v-1.1h-1.1v1.1Z" class="g0_1" />
<path fill-rule="evenodd" d="M791.3,782.9h85.4v-1.1H791.3v1.1Z" class="g0_1" />
<path fill-rule="evenodd" d="M876.7,782.9h1.1v-1.1h-1.1v1.1Z" class="g0_1" />
<path fill-rule="evenodd" d="M15.8,808.1h1.1V782.9H15.8v25.2Z" class="g0_1" />
<path fill-rule="evenodd" d="M64.3,808.1h1.2V782.9H64.3v25.2Z" class="g0_1" />
<path fill-rule="evenodd" d="M703.4,808.1h1.1V782.9h-1.1v25.2Z" class="g0_1" />
<path fill-rule="evenodd" d="M790.2,808.1h1.1V782.9h-1.1v25.2Z" class="g0_1" />
<path fill-rule="evenodd" d="M876.7,808.1h1.1V782.9h-1.1v25.2Z" class="g0_1" />
<text x="32" y="823" class="s4_1">11 </text>
<text x="70" y="830" dx="0,-0.1,0,0,0,0,-0.2,0,0,0,0,0,-0.1,0,0,0,0,0,0,0,0,-0.1,0,-0.1,0,0,0,-0.1,0,-0.1,0,0,0,0,0,0,-0.1,0,0,-0.1,0.1,0,0,-0.1,0,0,0.3,0,-0.1,0,0,0,0,0,0,0,0,0,-0.1,-0.1,0,0,0.3,-0.1,0,0,-0.1,0.2,0.1,0,0,0,0" class="s4_1">Außenwerbung: Großbanner Mindestbreite ca. 3 m vor der Halle mit BL-Logo </text>
<path fill-rule="evenodd" d="M15.8,809.2h1.1v-1.1H15.8v1.1Z" class="g0_1" />
<path fill-rule="evenodd" d="M16.9,809.2H64.3v-1.1H16.9v1.1Z" class="g0_1" />
<path fill-rule="evenodd" d="M64.3,809.2h1.2v-1.1H64.3v1.1Z" class="g0_1" />
<path fill-rule="evenodd" d="M65.5,809.2H703.4v-1.1H65.5v1.1Z" class="g0_1" />
<path fill-rule="evenodd" d="M703.4,809.2h1.1v-1.1h-1.1v1.1Z" class="g0_1" />
<path fill-rule="evenodd" d="M704.5,809.2h85.7v-1.1H704.5v1.1Z" class="g0_1" />
<path fill-rule="evenodd" d="M790.2,809.2h1.1v-1.1h-1.1v1.1Z" class="g0_1" />
<path fill-rule="evenodd" d="M791.3,809.2h85.4v-1.1H791.3v1.1Z" class="g0_1" />
<path fill-rule="evenodd" d="M876.7,809.2h1.1v-1.1h-1.1v1.1Z" class="g0_1" />
<path fill-rule="evenodd" d="M15.8,834.3h1.1V809.2H15.8v25.1Z" class="g0_1" />
<path fill-rule="evenodd" d="M64.3,834.3h1.2V809.2H64.3v25.1Z" class="g0_1" />
<path fill-rule="evenodd" d="M703.4,834.3h1.1V809.2h-1.1v25.1Z" class="g0_1" />
<path fill-rule="evenodd" d="M790.2,834.3h1.1V809.2h-1.1v25.1Z" class="g0_1" />
<path fill-rule="evenodd" d="M876.7,834.3h1.1V809.2h-1.1v25.1Z" class="g0_1" />
<text x="32" y="849" class="s4_1">12 </text>
<text x="70" y="857" dx="0,0.8,0,0,0,0,0,-0.1,0,-0.1,0,-0.1,0,0,0.3,-0.1,0,-0.1,0.2,0,-0.1,0.1" class="s4_1">Werbebanden umlaufend </text>
<path fill-rule="evenodd" d="M15.8,835.4h1.1v-1.1H15.8v1.1Z" class="g0_1" />
<path fill-rule="evenodd" d="M16.9,835.4H64.3v-1.1H16.9v1.1Z" class="g0_1" />
<path fill-rule="evenodd" d="M64.3,835.4h1.2v-1.1H64.3v1.1Z" class="g0_1" />
<path fill-rule="evenodd" d="M65.5,835.4H703.4v-1.1H65.5v1.1Z" class="g0_1" />
<path fill-rule="evenodd" d="M703.4,835.4h1.1v-1.1h-1.1v1.1Z" class="g0_1" />
<path fill-rule="evenodd" d="M704.5,835.4h85.7v-1.1H704.5v1.1Z" class="g0_1" />
<path fill-rule="evenodd" d="M790.2,835.4h1.1v-1.1h-1.1v1.1Z" class="g0_1" />
<path fill-rule="evenodd" d="M791.3,835.4h85.4v-1.1H791.3v1.1Z" class="g0_1" />
<path fill-rule="evenodd" d="M876.7,835.4h1.1v-1.1h-1.1v1.1Z" class="g0_1" />
<path fill-rule="evenodd" d="M15.8,860.5h1.1V835.4H15.8v25.1Z" class="g0_1" />
<path fill-rule="evenodd" d="M64.3,860.5h1.2V835.4H64.3v25.1Z" class="g0_1" />
<path fill-rule="evenodd" d="M703.4,860.5h1.1V835.4h-1.1v25.1Z" class="g0_1" />
<path fill-rule="evenodd" d="M790.2,860.5h1.1V835.4h-1.1v25.1Z" class="g0_1" />
<path fill-rule="evenodd" d="M876.7,860.5h1.1V835.4h-1.1v25.1Z" class="g0_1" />
<text x="32" y="875" class="s4_1">13 </text>
<text x="70" y="883" dx="0,0,0,0,0.3,0,-0.1,0,0,0,0,0,0,0.3,0.3,0,0,0,0,0,-0.2,0,0,0.2,0,-0.1,-0.3,0,0,0,0,0,-0.1,0,0,-0.1,0,-0.1,0,0,-0.1,-0.1,0,0,0,0,-0.1,0,0,-0.1,-0.1,0,-0.1,0,0,-0.1,0,-0.1,0,0,0,0,0,-0.1,0,0,0,0,0,0,0.4" class="s4_1">Rahmenprogramm (bspw. Tanzgruppe, Band, Präsentation anderer Sportart) </text>
<path fill-rule="evenodd" d="M15.8,861.6h1.1v-1.1H15.8v1.1Z" class="g0_1" />
<path fill-rule="evenodd" d="M16.9,861.6H64.3v-1.1H16.9v1.1Z" class="g0_1" />
<path fill-rule="evenodd" d="M64.3,861.6h1.2v-1.1H64.3v1.1Z" class="g0_1" />
<path fill-rule="evenodd" d="M65.5,861.6H703.4v-1.1H65.5v1.1Z" class="g0_1" />
<path fill-rule="evenodd" d="M703.4,861.6h1.1v-1.1h-1.1v1.1Z" class="g0_1" />
<path fill-rule="evenodd" d="M704.5,861.6h85.7v-1.1H704.5v1.1Z" class="g0_1" />
<path fill-rule="evenodd" d="M790.2,861.6h1.1v-1.1h-1.1v1.1Z" class="g0_1" />
<path fill-rule="evenodd" d="M791.3,861.6h85.4v-1.1H791.3v1.1Z" class="g0_1" />
<path fill-rule="evenodd" d="M876.7,861.6h1.1v-1.1h-1.1v1.1Z" class="g0_1" />
<path fill-rule="evenodd" d="M15.8,886.9h1.1V861.6H15.8v25.3Z" class="g0_1" />
<path fill-rule="evenodd" d="M64.3,886.9h1.2V861.6H64.3v25.3Z" class="g0_1" />
<path fill-rule="evenodd" d="M703.4,886.9h1.1V861.6h-1.1v25.3Z" class="g0_1" />
<path fill-rule="evenodd" d="M790.2,886.9h1.1V861.6h-1.1v25.3Z" class="g0_1" />
<path fill-rule="evenodd" d="M876.7,886.9h1.1V861.6h-1.1v25.3Z" class="g0_1" />
<text x="32" y="902" class="s4_1">14 </text>
<text x="70" y="909" dx="0,-0.1,0,0,0.1,0,0,0.1,-0.1,0,-0.1,0,-0.1,-0.1,0,0,0,0,-0.1,0,-0.1,0,0,-0.1,-0.1,0,-0.1,0,0,0,-0.1,-0.1,0,0,0,-0.1,0,0,0,0.1,0,-0.1,0,0.3,0,-0.1,0,-0.1,0.2,-0.1,0,0,0,-0.4,0.3,0,-0.1,0,-0.1,0,-0.1,-0.1,0,-0.1,0,0.1" class="s4_1">Professioneller Bundesligatrailer vor jedem Spiel (Hymne + Video) </text>
<path fill-rule="evenodd" d="M15.8,888h1.1v-1.1H15.8V888Z" class="g0_1" />
<path fill-rule="evenodd" d="M16.9,888H64.3v-1.1H16.9V888Z" class="g0_1" />
<path fill-rule="evenodd" d="M64.3,888h1.2v-1.1H64.3V888Z" class="g0_1" />
<path fill-rule="evenodd" d="M65.5,888H703.4v-1.1H65.5V888Z" class="g0_1" />
<path fill-rule="evenodd" d="M703.4,888h1.1v-1.1h-1.1V888Z" class="g0_1" />
<path fill-rule="evenodd" d="M704.5,888h85.7v-1.1H704.5V888Z" class="g0_1" />
<path fill-rule="evenodd" d="M790.2,888h1.1v-1.1h-1.1V888Z" class="g0_1" />
<path fill-rule="evenodd" d="M791.3,888h85.4v-1.1H791.3V888Z" class="g0_1" />
<path fill-rule="evenodd" d="M876.7,888h1.1v-1.1h-1.1V888Z" class="g0_1" />
<path fill-rule="evenodd" d="M15.8,913.2h1.1V888H15.8v25.2Z" class="g0_1" />
<path fill-rule="evenodd" d="M64.3,913.2h1.2V888H64.3v25.2Z" class="g0_1" />
<path fill-rule="evenodd" d="M703.4,913.2h1.1V888h-1.1v25.2Z" class="g0_1" />
<path fill-rule="evenodd" d="M790.2,913.2h1.1V888h-1.1v25.2Z" class="g0_1" />
<path fill-rule="evenodd" d="M876.7,913.2h1.1V888h-1.1v25.2Z" class="g0_1" />
<text x="32" y="928" class="s4_1">15 </text>
<text x="70" y="936" dx="0,0,-0.1,-0.1,0,0,0,0,0,-0.1,0.3,0,0.3,-0.1,0,0,-0.1,-0.1,0,-0.1,-0.1,0,-0.1,0,-0.1,0,0,-0.1,0,0.1,0,0,-0.1,0,0,-0.1,0,0.3,0,0,-0.1,0,-0.1,0,-0.1,0,0,0,0,0,-0.1,0,-0.1,0,-0.1,0,0,0,-0.1,0.3,0,-0.1,0,-0.1,0.3" class="s4_1">Livestream mit Einbindung auf der vom DBLV vorgegebenen Homepage </text>
<path fill-rule="evenodd" d="M15.8,914.3h1.1v-1.1H15.8v1.1Z" class="g0_1" />
<path fill-rule="evenodd" d="M16.9,914.3H64.3v-1.1H16.9v1.1Z" class="g0_1" />
<path fill-rule="evenodd" d="M64.3,914.3h1.2v-1.1H64.3v1.1Z" class="g0_1" />
<path fill-rule="evenodd" d="M65.5,914.3H703.4v-1.1H65.5v1.1Z" class="g0_1" />
<path fill-rule="evenodd" d="M703.4,914.3h1.1v-1.1h-1.1v1.1Z" class="g0_1" />
<path fill-rule="evenodd" d="M704.5,914.3h85.7v-1.1H704.5v1.1Z" class="g0_1" />
<path fill-rule="evenodd" d="M790.2,914.3h1.1v-1.1h-1.1v1.1Z" class="g0_1" />
<path fill-rule="evenodd" d="M791.3,914.3h85.4v-1.1H791.3v1.1Z" class="g0_1" />
<path fill-rule="evenodd" d="M876.7,914.3h1.1v-1.1h-1.1v1.1Z" class="g0_1" />
<path fill-rule="evenodd" d="M15.8,939.4h1.1V914.3H15.8v25.1Z" class="g0_1" />
<path fill-rule="evenodd" d="M64.3,939.4h1.2V914.3H64.3v25.1Z" class="g0_1" />
<path fill-rule="evenodd" d="M703.4,939.4h1.1V914.3h-1.1v25.1Z" class="g0_1" />
<path fill-rule="evenodd" d="M790.2,939.4h1.1V914.3h-1.1v25.1Z" class="g0_1" />
<path fill-rule="evenodd" d="M876.7,939.4h1.1V914.3h-1.1v25.1Z" class="g0_1" />
<text x="32" y="954" class="s4_1">16 </text>
<text x="70" y="962" dx="0,-0.1,-0.1,0,-0.1,0,-0.1,0,0,-0.1,0,0,0,0,-0.1,-0.1,0,-0.1,0.1,0,0,-0.1,0,-0.1,0,0,-0.1,0,0.1,0,0,-0.1,0.1,0,-0.1,0,-0.1,0.1,0,-0.1,0.1,0,0,-0.1,0,0,0.3,-0.1,0,0,-0.1,-0.1,0.1,0,0.2,-0.1,0,-0.1,0,-0.1,0,0,-0.1,0,0.1,0,0.2,0,-0.1,0.1,0.3,0.1,-0.1,0,-0.1,0.1" class="s4_1">Eingabe der Spielstände durch Schiedsrichter mittels kleiner PCs/Touch-Pads </text>
<path fill-rule="evenodd" d="M15.8,940.5h1.1v-1.1H15.8v1.1Z" class="g0_1" />
<path fill-rule="evenodd" d="M16.9,940.5H64.3v-1.1H16.9v1.1Z" class="g0_1" />
<path fill-rule="evenodd" d="M64.3,940.5h1.2v-1.1H64.3v1.1Z" class="g0_1" />
<path fill-rule="evenodd" d="M65.5,940.5H703.4v-1.1H65.5v1.1Z" class="g0_1" />
<path fill-rule="evenodd" d="M703.4,940.5h1.1v-1.1h-1.1v1.1Z" class="g0_1" />
<path fill-rule="evenodd" d="M704.5,940.5h85.7v-1.1H704.5v1.1Z" class="g0_1" />
<path fill-rule="evenodd" d="M790.2,940.5h1.1v-1.1h-1.1v1.1Z" class="g0_1" />
<path fill-rule="evenodd" d="M791.3,940.5h85.4v-1.1H791.3v1.1Z" class="g0_1" />
<path fill-rule="evenodd" d="M876.7,940.5h1.1v-1.1h-1.1v1.1Z" class="g0_1" />
<path fill-rule="evenodd" d="M15.8,965.6h1.1V940.5H15.8v25.1Z" class="g0_1" />
<path fill-rule="evenodd" d="M15.8,966.7h1.1v-1.1H15.8v1.1Z" class="g0_1" />
<path fill-rule="evenodd" d="M15.8,966.7h1.1v-1.1H15.8v1.1Z" class="g0_1" />
<path fill-rule="evenodd" d="M16.9,966.7H64.3v-1.1H16.9v1.1Z" class="g0_1" />
<path fill-rule="evenodd" d="M64.3,965.6h1.2V940.5H64.3v25.1Z" class="g0_1" />
<path fill-rule="evenodd" d="M64.3,966.7h1.2v-1.1H64.3v1.1Z" class="g0_1" />
<path fill-rule="evenodd" d="M65.5,966.7H703.4v-1.1H65.5v1.1Z" class="g0_1" />
<path fill-rule="evenodd" d="M703.4,965.6h1.1V940.5h-1.1v25.1Z" class="g0_1" />
<path fill-rule="evenodd" d="M703.4,966.7h1.1v-1.1h-1.1v1.1Z" class="g0_1" />
<path fill-rule="evenodd" d="M704.5,966.7h85.7v-1.1H704.5v1.1Z" class="g0_1" />
<path fill-rule="evenodd" d="M790.2,965.6h1.1V940.5h-1.1v25.1Z" class="g0_1" />
<path fill-rule="evenodd" d="M790.2,966.7h1.1v-1.1h-1.1v1.1Z" class="g0_1" />
<path fill-rule="evenodd" d="M791.3,966.7h85.4v-1.1H791.3v1.1Z" class="g0_1" />
<path fill-rule="evenodd" d="M876.7,965.6h1.1V940.5h-1.1v25.1Z" class="g0_1" />
<path fill-rule="evenodd" d="M876.7,966.7h1.1v-1.1h-1.1v1.1Z" class="g0_1" />
<path fill-rule="evenodd" d="M876.7,966.7h1.1v-1.1h-1.1v1.1Z" class="g0_1" />
<text x="21" y="1005" dx="0,0,0,0,0.1,0,0.1,0,0,0,0,0.1,0.1" class="s5_1">Bemerkungen: </text>
<path fill-rule="evenodd" d="M155.5,1009.8H833.1v-1.9H155.5v1.9Z" class="g0_1" />
<path fill-rule="evenodd" d="M21.6,1053H833.1v-1.8H21.6v1.8Z" class="g0_1" />
<path fill-rule="evenodd" d="M21.6,1096.3H833.1v-1.8H21.6v1.8Z" class="g0_1" />
<path fill-rule="evenodd" d="M21.6,1139.6H833.1v-1.8H21.6v1.8Z" class="g0_1" />
<text x="21" y="1185" dx="0,-0.1,-0.1,0,0,0.1,0,0,-0.1,0.1,0.1,0,0.1,0,-0.1,-0.2,0.1,-0.1,0,0.1,0,-0.2,0,0.1,0,0.1,0" class="s1_1">Unterschriften: Heimverein </text>
<path fill-rule="evenodd" d="M302.8,1190H508.5v-2.2H302.8v2.2Z" class="g0_1" />
<text x="514" y="1185" dx="0,0,0,0,0,-0.2,0,0.1,0,0.1,-0.1" class="s1_1">Gastverein </text>
<path fill-rule="evenodd" d="M631.4,1190H833.1v-2.2H631.4v2.2Z" class="g0_1" />
<text x="183" y="1236" dx="0,-0.1,0,0,0" class="s1_1">Name </text>
<path fill-rule="evenodd" d="M242.2,1240.6H508.5v-2.2H242.2v2.2Z" class="g0_1" />
<text x="514" y="1236" dx="0,-0.1,0,0,0" class="s1_1">Name </text>
<path fill-rule="evenodd" d="M578.9,1240.6H833.1v-2.2H578.9v2.2Z" class="g0_1" />

<text x="150" y="85" style="font-size:14px;" id="es_svg_team0"></text>
<text x="420" y="85" style="font-size:14px;" id="es_svg_team1"></text>
<text x="750" y="85" style="font-size:14px;" id="es_svg_date"></text>

</svg>
