<svg x="0" y="0" width="909" height="1286" viewBox="0 0 909 1286" version="1.1" xmlns="http://www.w3.org/2000/svg">
<defs>
<clipPath id="c_1"><path d="M0,0H909V1286H0Z"/></clipPath>
<clipPath id="c0"><path d="M14.7,1264.6V21.7h880V1264.6Z"/></clipPath>
<clipPath id="c1"><path d="M39.3,458V426.5H87V458Z"/></clipPath>
<clipPath id="c2"><path d="M88.1,458V426.5H697.5V458Z"/></clipPath>
<clipPath id="c3"><path d="M698.6,458V426.5h79.9V458Z"/></clipPath>
<clipPath id="c4"><path d="M779.6,458V426.5h92V458Z"/></clipPath>
<clipPath id="c5"><path d="M39.3,484V459.1H87V484Z"/></clipPath>
<clipPath id="c6"><path d="M88.1,484V459.1H697.5V484Z"/></clipPath>
<clipPath id="c7"><path d="M39.3,520V485.1H87V520Z"/></clipPath>
<clipPath id="c8"><path d="M88.1,520V485.1H697.5V520Z"/></clipPath>
<clipPath id="c9"><path d="M39.3,546V521.4H87V546Z"/></clipPath>
<clipPath id="ca"><path d="M88.1,546V521.4H697.5V546Z"/></clipPath>
<clipPath id="cb"><path d="M39.3,571.7V547.1H87v24.6Z"/></clipPath>
<clipPath id="cc"><path d="M88.1,571.7V547.1H697.5v24.6Z"/></clipPath>
<clipPath id="cd"><path d="M39.3,608V572.8H87V608Z"/></clipPath>
<clipPath id="ce"><path d="M88.1,608V572.8H697.5V608Z"/></clipPath>
<clipPath id="cf"><path d="M39.3,633.6V609.1H87v24.5Z"/></clipPath>
<clipPath id="cg"><path d="M88.1,633.6V609.1H697.5v24.5Z"/></clipPath>
<clipPath id="ch"><path d="M39.3,659.3V634.7H87v24.6Z"/></clipPath>
<clipPath id="ci"><path d="M88.1,659.3V634.7H697.5v24.6Z"/></clipPath>
<clipPath id="cj"><path d="M39.3,695.6V660.4H87v35.2Z"/></clipPath>
<clipPath id="ck"><path d="M88.1,695.6V660.4H697.5v35.2Z"/></clipPath>
<clipPath id="cl"><path d="M39.3,721.3V696.7H87v24.6Z"/></clipPath>
<clipPath id="cm"><path d="M88.1,721.3V696.7H697.5v24.6Z"/></clipPath>
<clipPath id="cn"><path d="M39.3,747.3V722.7H87v24.6Z"/></clipPath>
<clipPath id="co"><path d="M88.1,747.3V722.7H697.5v24.6Z"/></clipPath>
<clipPath id="cp"><path d="M39.3,773V748.4H87V773Z"/></clipPath>
<clipPath id="cq"><path d="M88.1,773V748.4H697.5V773Z"/></clipPath>
<clipPath id="cr"><path d="M39.3,798.6V774.1H87v24.5Z"/></clipPath>
<clipPath id="cs"><path d="M88.1,798.6V774.1H697.5v24.5Z"/></clipPath>
<clipPath id="ct"><path d="M39.3,834.9V799.7H87v35.2Z"/></clipPath>
<clipPath id="cu"><path d="M88.1,834.9V799.7H697.5v35.2Z"/></clipPath>
<clipPath id="cv"><path d="M39.3,860.6V836H87v24.6Z"/></clipPath>
<clipPath id="cw"><path d="M88.1,860.6V836H697.5v24.6Z"/></clipPath>
<clipPath id="cx"><path d="M39.3,886.3V861.7H87v24.6Z"/></clipPath>
<clipPath id="cy"><path d="M88.1,886.3V861.7H697.5v24.6Z"/></clipPath>
<clipPath id="cz"><path d="M39.3,912.3V887.4H87v24.9Z"/></clipPath>
<clipPath id="c10"><path d="M88.1,912.3V887.4H697.5v24.9Z"/></clipPath>
<clipPath id="c11"><path d="M39.3,948.6V913.4H87v35.2Z"/></clipPath>
<clipPath id="c12"><path d="M88.1,948.6V913.4H697.5v35.2Z"/></clipPath>
<clipPath id="c13"><path d="M39.3,974.3V949.7H87v24.6Z"/></clipPath>
<clipPath id="c14"><path d="M88.1,974.3V949.7H697.5v24.6Z"/></clipPath>

<style type="text/css">
text {
	white-space: pre;
	font-family: Arial, Helvetica, sans-serif;
	fill: #000000;
}


.s1{
	font-size: 21.27px;
	font-weight: bold;
}

.s2 {
	font-size: 15.77px;
}
.s3 {
	font-size: 13.57px;
	font-weight: bold;
}
.s4 {
	font-size: 15.03px;
}
.s5 {
	font-size: 18.33px;
	font-weight: bold;
}

</style>

</defs>

<text x="88" y="44" dx="0,.1,0,.1,.1,.1,.1,0,.1,.1,0,.1,0,.1,.1,0,.1,.1,.1,.1,.1,0,.1,.1,.1,.1,.1,.1,0,0,.1,.1,0,.1,.1,0,.1,.1,0,.1,.1,.1,0,.1,.1,.1,.1,0,.1,.1,0,.1,.1,.1,.1,.1,0,.1,.1,.1,.1,0,.1,.1,.1" class="s1">Mindestanforderungen Bundesliga ab Saison 2020-21 gemäß DBLV-SpO </text>
<path d="M39.3,22h1.1v1.1H39.3Z" class="g0"/>
<path d="M39.3,22h1.1v1.1H39.3Z" class="g0"/>
<path d="M40.4,22H879.7v1.1H40.4Z" class="g0"/>
<path d="M879.7,22h1.1v1.1h-1.1Z" class="g0"/>
<path d="M879.7,22h1.1v1.1h-1.1Z" class="g0"/>
<path d="M39.3,23.1h1.1V49.5H39.3Z" class="g0"/>
<path d="M879.7,23.1h1.1V49.5h-1.1Z" class="g0"/>
<text x="128" y="69" dx="0,.1,.1,.1,0,.1,.1,0,.1,.1,0,.1,.1,.1,.1,.1,.1,.1,0,0,.1,.1,.1,.1,.1,.1,.1,0,.1,.1,0,0,.1,.1,.1,.1,0,.1,0,0,.1,.1,.1,0,.1,.1,0,0,.1,.1,.1,0,0,.1,0,.1,0,0,.1,.1" class="s1">„Durchführungsbestimmungen zur Ausstattung der Sportstätte“ </text>
<path d="M39.3,75.6h1.1v1.1H39.3Z" class="g0"/>
<path d="M39.3,75.6h1.1v1.1H39.3Z" class="g0"/>
<path d="M40.4,75.6H879.7v1.1H40.4Z" class="g0"/>
<path d="M879.7,75.6h1.1v1.1h-1.1Z" class="g0"/>
<path d="M879.7,75.6h1.1v1.1h-1.1Z" class="g0"/>
<path d="M39.3,49.5h1.1V75.6H39.3Z" class="g0"/>
<path d="M879.7,49.5h1.1V75.6h-1.1Z" class="g0"/>

<text x="44" y="110" dx="0,.1,.1,.1,.1,.1,.1,.1,.1,.1,0" class="s1">Begegnung: </text>
<text x="374" y="110" dx="0,.1,.1,.1,.1,.1" class="s1">gegen </text>
<text x="692" y="110" dx="0,.1,.1,0,.1,.1,0,.1,.1,.1,.1,.1,.1,.1" class="s1">Datum:________</text>

<path d="M168.7,113.7H368.6v.4H168.7Z" class="g0"/>
<path d="M437.5,113.7H668.9v.4H437.5Z" class="g0"/>

<text x="44" y="144" dx="0,.2,.1,.2,.2,.2,.1,.1,.2,.1,.1,.2,.1,.1,.2,.2,.1,.1,.2,.2,.2,.1,.2,.2,.1,.1,.2,.1,.2,.2,.2,.1,.1,.2,.2,.1,.2,.1,.2,.2,.1,.2,.2,.2,.1,.1,.1,.1,.1,.2,.1" class="s2">Hinweise zur Nutzung der Mindestanforderungsliste: </text>
<text x="44" y="176" dx="0,.2,.1,.2,.2,.2,.1,.2,.1,.2,.1,.2,.2,.1,.1,.1,.1,.2,.1,.2,.1,.1,.2,.2,.2,.2,.1,.2,.2,.2,.1,.2,.1,.2,.1,.2,.2,.1,.1,.1,.1,.2,.1,.2,.1,.1" class="s2">Liebe Schiedsrichterinnen und Schiedsrichter, </text>
<text x="44" y="209" dx="0,.2,.1,.2,1.2,.1,.2,.1,.2,.2,.2,.1,.2,1.2,.2,.1,.1,.1,.2,1.2,.2,.2,.1,.2,.2,.2,.1,.1,.2,.1,1.2,.2,.1,.2,1.2,.2,.2,.1,.1,.2,1.2,.2,.1,.2,1.2,.2,.1,.2,.1,.2,.2,.1,.1,.1,.1,.2,.1,.2,.1,1.2,.1,.2,1.2,.2,.2,.2,.1,.2,.1,.2,.1,.2,.2,.2,.2,.2,1.2,.2,.1,.2,.2,.2,.1,.1,.2,.2,.1,.2,.1,.2,.2,.1,.2,.2,.2,.2,.2,1.2,.2,.2,.1,1.2,.2,.2,.2,.2,.1,.2,.2,.2" class="s2">die folgende Liste beinhaltet die durch die Schiedsrichter zu überprüfenden Mindestanforderungen der DBLV-SpO </text>
<text x="44" y="227" dx="0,.1,.2,.1,5.4,.3,.2,.1,.1,.1,.2,.2,.2,.1,.2,5.4,.1,.2,5.4,.2,.2,.1,5.4,.2,.1,5.4,.2,.2,.2,5.4,.2,.1,5.4,.2,.2,.2,.2,.1,.2,.1,.2,.2,.1,.2,.2,.2,.2,.2,.1,.1,.1,.2,.2,.1,5.4,.2,.1,.2,5.4,.2,.1,.1,.1,.2,5.4,.1,.1,.1,5.4,.2,.2,.1,.1,.1,.2,.1,.1,.2,.2,.1,.1,.1,.2,5.4,.2,.2,.1,.1,.2,5.4,.2,.1,.2,5.4,.2,.1,.2,.2,.2,.1,.2,.1,.1,.1,.2,.2" class="s2">für Wettkämpfe in der 1. und 2. Badminton-Bundesliga. Die Liste ist ausschließlich durch die eingesetzten </text>
<text x="44" y="246" dx="0,.2,.1,.2,.1,.2,.2,.1,.1,.1,.1,.2,.1,.2,.1,.1,.1,.2,.1,.2,.2,.2,.2,.2,.2,.1,.1,.2,.2,.1" class="s2">Schiedsrichter zu bearbeiten. </text>
<text x="44" y="264" dx="0,.2,.1,.1,1.2,.2,.2,.1,1.2,.2,.2,.1,.2,.1,.1,.1,.2,.1,.1,.1,.1,1.2,.2,.2,.1,.1,.2,.2,.1,.2,.1,.2,.1,1.2,.2,.2,.1,1.2,.2,.1,.2,.2,.2,.1,.2,.1,.1,.1,.2,1.2,.2,.2,.1,.2,.2,.1,.1,.1,.2,.2,1.2,.2,.1,.1,.1,.1,.1,.2,.1,.1,.2,1.2,.1,.2,.2,.1,.2,.1,.1,.1,.2,.1,1.2,.2,.2,.1,.1,1.2,.2,.1,.2,1.2,.2,.2,.1,.2,.1,.2,.2,.1,.2,.2,.2,.2,.2,1.2,.1,.2,.1,.2,.2,0,.2,.2,.2" class="s2">Mit der Unterschrift bescheinigt der eingesetzte Technische Offizielle lediglich, dass die Anforderungen vorhanden </text>
<text x="44" y="283" dx="0,.2,.1,.2,.1,.1,.2,.1,.1,.2,.1,.1,.1,.2,.1,.2,.2,.2,.2,.2,.2,.1,.2,.2,.1,.2,.2,0" class="s2">bzw. nicht vorhanden waren. </text>
<text x="44" y="301" dx="0,.2,.2,.1,.1,.1,.2,.2,.7,.2,.1,.2,.1,.2,.1,.2,.2,.7,.2,.2,.1,.2,.1,.2,.2,.1,.2,.2,.2,.2,.2,.7,.2,.1,.1,.2,.1,.7,.2,.1,.1,.2,.1,.1,.1,.7,.1,.2,.1,.2,.1,.7,.1,.2,.7,.1,.2,.1,0,.2,.2,.7,.2,.1,.2,.7,.2,.1,.2,.1,.2,.2,.1,.1,.1,.1,.2,.1,.2,.1,.7,.1,.2,.2,.2,.1,.2,.1,.1,.7,.2,.2,.2,.7,.2,.2,.1,.1,.2,.1,.2,.1,.2,.2,.2,.1,.2,.2,.7,.2,.2,.1,.2,.1,.2" class="s2">Sollten einzelne Anforderungen nicht erfüllt sein, so sollen die Schiedsrichter zunächst den entsprechenden Verein </text>
<text x="44" y="320" dx="0,.2,.2,.1,.1,.2,.2,.2,.1,.2,.2,.1,.1,.1,.2,.2,.1,.2,.1,.2,.2,.2,.1,.1,.2,.2,.1,.2,.2,.2,.1,.2,.1,.2,.1,.2,.2,.2,.1,.1,.1,.2,.1,.2,.1,.1,.1,.1,.2,.1,.1,.2,.2,.1,.1,.2,.1,.1,.2,.1,.1,.2,.2,.2,.2,.2,0" class="s2">auf den Verstoß hinweisen und die Möglichkeit zur Korrektur geben. </text>
<text x="44" y="338" dx="0,.2,.2,.1,.1,.1,.2,2.2,.2,.1,2.2,.2,.2,.1,.2,2.2,.2,.2,.1,.1,.2,.1,.1,.2,.2,2.2,.2,.1,.2,.1,.2,.1,2.2,.2,.1,.1,.1,.2,2.2,.2,.2,.1,.2,2.2,.1,.2,2.2,.2,.1,.2,.2,.2,.2,2.2,.1,.2,.2,.2,.2,.2,.1,2.2,.1,.2,2.2,.1,.2,.2,.2,.2,.2,2.2,.2,.1,.2,.1,.2,2.2,.1,.2,2.2,.2,.2,.1,.1,.2,.1,.1,2.2,.2,.2,.1,2.2,.2,.2,.1,.2,.1,.2,.2,2.5,.2,.1,.1,2.2,.2,.2,.2" class="s2">Sollte es beim Ausfüllen dieser Liste doch zu Fragen kommen, so können diese im Notfall per Telefon mit dem </text>
<text x="44" y="356" dx="0,.2,.2,.2,.2,.2,.1,.1,.1,.2,.2,.1,.2,.2,.1,.2,.1,.1,.2,.1,.1,.2,.1,1,.2,.2,.1,.2,.2,1,.2,.2,.2,.2,.2,.2,.1,1,.2,.2,.1,.2,.1,1,.2,.2,.1,1,.2,.2,.1,.2,.2,.2,.2,.2,.1,1,.2,.2,.2,.2,.2,.1,.2,.2,.2,.2,.2,.2,1,.1,.2,.2,.1,1,.2,.2,.2,1,.2,.1,.2,.1,.1,.2,.2,.2,.1,.2,.2,1,.2,.2,.1,1,.2,.2,.2,.2,1,.2,.1,.2,.2" class="s2">Bundesliga-Spielleiter Bernd Mohaupt unter der Rufnummer 05241-531760 oder dem Präsidenten des DBLV Arno </text>
<text x="44" y="375" dx="0,.2,.1,.2,.1,.2,.2,.1,.2,.2,.1,.2,.1,.1,.2,.2,.1,.1,.2,.2,.1,.2,.2,.2,.2,.2,.1,.1,.2,.2,.2,.2,.1,.2,.2,.2,.2,.2,.2,.2,.2,.1,.2,.2,.2,.1,.1,.2,.2,.2,.2,.2,.1,.2,.2,.2,.2,.2,.1,.1,.2,.1,.3,.1,.1,.1,.1,.1,.1,.2,.1,.2,.2,.2,.2,.1,.2,.2,.1,.1,.2,.1,.1,.2,.2,.1,.2,.2,.2,.1" class="s2">Schley unter der Rufnummer 0176/52500972 oder 06821/53456 kurzfristig beantwortet werden. </text>
<text x="44" y="407" dx="0,.2,.1,.1,.1,.2,.2,.1,.2,.1,.2,.2,.1,.2,.1,.1,.1,.2,.1,.1,.2,.2,.2,.1,.2,.2,.1,.1,.2,.2,.1,.1,.2,.1,.2,.2,.2,.1,.1,.2,.2,.2,.1,.2,.2,.1,.1,.2,.1,.2,.2,.2,.1,.1,.2,.2,.1,.2,.1,.2,.2,.1,.2,.2,.2,.2,.2,.1,.2,.2,.2,.1,.2,.1,.1,.2,.2,.1,.2,.1,.2,.2,.2,.2,.1,.2,.2,.2,.1,.2,.2,.1,.1,.2,.2,.2,.1,.2,.1,.2,.2,.1" class="s2">Für Eure Unterstützung bei der Einhaltung der Mindestanforderungen danken Euch DBLV und das DBV-RfSR! </text>

<text x="48" y="450" dx="0,.1,0,0" class="s1">Nr. </text>
<text x="171" y="450" dx="0,.1,0,.1,.1,.1,.1,0,.1,.1,0,.1,0,.1,.1,0,.1,.1,.1,.1,.1,0,0,0,.1,.1,.1,0,.1,.1,.1,0,0,.1,.1,0,.1,.1,0,0,.1,.1,.1" class="s1">Mindestanforderungen - Schiedsrichterliste </text>
<text x="703" y="447" dx="0,.1,.1,.1,.1,.1,.1,.1,.1,.1" class="s3">vorhanden </text>

<text x="808" y="439" dx="0,.1,.1,.1,.1,.1" class="s3">Nicht </text>
<text x="790" y="455" dx="0,.1,.1,.1,.1,.1,.1,.1,.1,.1" class="s3">vorhanden </text>

<path d="M37.8,425.4h1.1v1.1H37.8Z" class="g0"/>
<path d="M37.8,425.4h1.1v1.1H37.8Z" class="g0"/>
<path d="M38.9,425.4H86.6v1.1H38.9Z" class="g0"/>
<path d="M86.6,425.4h1.1v1.1H86.6Z" class="g0"/>
<path d="M87.7,425.4H697.5v1.1H87.7Z" class="g0"/>
<path d="M697.5,425.4h1.1v1.1h-1.1Z" class="g0"/>
<path d="M698.6,425.4h79.9v1.1H698.6Z" class="g0"/>
<path d="M778.5,425.4h1.1v1.1h-1.1Z" class="g0"/>
<path d="M779.6,425.4h92v1.1h-92Z" class="g0"/>
<path d="M871.6,425.4h1.1v1.1h-1.1Z" class="g0"/>
<path d="M871.6,425.4h1.1v1.1h-1.1Z" class="g0"/>
<path d="M37.8,426.5h1.1V458H37.8Z" class="g0"/>
<path d="M86.6,426.5h1.1V458H86.6Z" class="g0"/>
<path d="M697.5,426.5h1.1V458h-1.1Z" class="g0"/>
<path d="M778.5,426.5h1.1V458h-1.1Z" class="g0"/>
<path d="M871.6,426.5h1.1V458h-1.1Z" class="g0"/>
<text x="58" y="476" dx="0,.1" class="s4">1 </text>
<text x="92" y="476" dx="0,.1,.2,.1,.1,.1,.2,.1,.1,.1,.1,.1,.1,.1,.1,.1,.1,.1,.1,.1,.1,.2,.1,.1,.1,.2,.1,.1,.1,.1,.2" class="s4">Zwei Standardfelder mit Netzen </text>
<path d="M37.8,458h1.1v1.1H37.8Z" class="g0"/>
<path d="M38.9,458H86.6v1.1H38.9Z" class="g0"/>
<path d="M86.6,458h1.1v1.1H86.6Z" class="g0"/>
<path d="M87.7,458H697.5v1.1H87.7Z" class="g0"/>
<path d="M697.5,458h1.1v1.1h-1.1Z" class="g0"/>
<path d="M698.6,458h79.9v1.1H698.6Z" class="g0"/>
<path d="M778.5,458h1.1v1.1h-1.1Z" class="g0"/>
<path d="M779.6,458h92v1.1h-92Z" class="g0"/>
<path d="M871.6,458h1.1v1.1h-1.1Z" class="g0"/>
<path d="M37.8,459.1h1.1V484H37.8Z" class="g0"/>
<path d="M86.6,459.1h1.1V484H86.6Z" class="g0"/>
<path d="M697.5,459.1h1.1V484h-1.1Z" class="g0"/>
<path d="M778.5,459.1h1.1V484h-1.1Z" class="g0"/>
<path d="M871.6,459.1h1.1V484h-1.1Z" class="g0"/>
<text x="58" y="507" dx="0,.1" class="s4">2 </text>

<text x="92" y="499" dx="0,.1,.2,.1,.1,.1,.1,.1,.1,.1,.1,.1,.1,.1,.1,.1,.1,.1,.1,.1,.1,.1,.1,.1,.1,.1,.1,.1,.1,.1,.1,.1,.1,.1,.1,.1,.1,.1,.1,.1,.1,.1,.1,.1,.1,.1,.1,.1,.2,.1,.1,.1,.1,.1,.1,.1,.1,.1,.1,.1,.1,.1,.1,.1,.1,.1,.1,.1,.1,.1,.1,.1,.1,.1,.1,.1,.1,.2,.1,.1,.1,.1,.1,.1,.1" class="s4">Zwei nebeneinander liegende, farbig abgesetzte Spielfelder, die frei von Fremdlinien </text>
<text x="92" y="516" dx="0,.1,.1,.1,.1,.1,.1,.2,.1,.1,.1,.1,.1,.1,.1,.1,.1,.1,.1,.2,.1,.1,.1,.2,.1,.1,.2,.1,.1,.1,.1,.2,.1,.2,.1,.1,.1,.1,.1,.1,.1,.1,.2,.1,.1,.1,.1,.1,.1,.1,.1,.1,.1,.1,.1,.1,.1,.1,.1,.1,.1,.1,.1,.1,.1,.1,.1,.1,.1,.1,.1,.1,.1,.1,.1,.1,.1,.1,.1,.1,.1,.3" class="s4">sind. Alternativ zwei Badminton-Spielfeldmatten, die nebeneinander ausgelegt sind </text>

<path d="M37.8,484h1.1v1.1H37.8Z" class="g0"/>
<path d="M38.9,484H86.6v1.1H38.9Z" class="g0"/>
<path d="M86.6,484h1.1v1.1H86.6Z" class="g0"/>
<path d="M87.7,484H697.5v1.1H87.7Z" class="g0"/>
<path d="M697.5,484h1.1v1.1h-1.1Z" class="g0"/>
<path d="M698.6,484h79.9v1.1H698.6Z" class="g0"/>
<path d="M778.5,484h1.1v1.1h-1.1Z" class="g0"/>
<path d="M779.6,484h92v1.1h-92Z" class="g0"/>
<path d="M871.6,484h1.1v1.1h-1.1Z" class="g0"/>
<path d="M37.8,485.1h1.1V520H37.8Z" class="g0"/>
<path d="M86.6,485.1h1.1V520H86.6Z" class="g0"/>
<path d="M697.5,485.1h1.1V520h-1.1Z" class="g0"/>
<path d="M778.5,485.1h1.1V520h-1.1Z" class="g0"/>
<path d="M871.6,485.1h1.1V520h-1.1Z" class="g0"/>
<text x="58" y="538" dx="0,.1" class="s4">3 </text>
<text x="92" y="538" dx="0,.1,.2,.1,.1,.1,.2,.1,.1,.1,.1,.1,.1,.1,.1,.1,.1,.1,.1,.1,.1,.1,.1,.1,.1,.1,.1,.2,.1,.1,.1,.1,.1,.1,.1,.1,.1,.1,.1,.1,.2,.1,.1,.1,.1,.1,.1,.1,.1,.1,.1,.2,.1,.1,.1,.1,.1,.2,.1,.1,.1,.1,.1,.1,.1,.1,.1,.1,.1,.1,.1,.2,.1,.1,.1,.1,.1,.1,.1,.1,.1,.1,.1,.1" class="s4">Zwei Schiedsrichterstühle mit erhöhter Sitzposition (in Netzhöhe) und Schreibplatte </text>
<path d="M37.8,520h1.1v1.1H37.8Z" class="g0"/>
<path d="M38.9,520H86.6v1.1H38.9Z" class="g0"/>
<path d="M86.6,520h1.1v1.1H86.6Z" class="g0"/>
<path d="M87.7,520H697.5v1.1H87.7Z" class="g0"/>
<path d="M697.5,520h1.1v1.1h-1.1Z" class="g0"/>
<path d="M698.6,520h79.9v1.1H698.6Z" class="g0"/>
<path d="M778.5,520h1.1v1.1h-1.1Z" class="g0"/>
<path d="M779.6,520h92v1.1h-92Z" class="g0"/>
<path d="M871.6,520h1.1v1.1h-1.1Z" class="g0"/>
<path d="M37.8,521.1h1.1V546H37.8Z" class="g0"/>
<path d="M86.6,521.1h1.1V546H86.6Z" class="g0"/>
<path d="M697.5,521.1h1.1V546h-1.1Z" class="g0"/>
<path d="M778.5,521.1h1.1V546h-1.1Z" class="g0"/>
<path d="M871.6,521.1h1.1V546h-1.1Z" class="g0"/>
<text x="54" y="564" dx="0,.1,.1" class="s4">4a </text>
<text x="92" y="564" dx="0,.2,.1,.1,.1,.1,.1,.1,.1,.1,.1,.1,.1,.1,.1,.1,.1,.1,.1,.1,.1,.1,.1,.1,.1,.1,.1,.1,.1,.1,.1,.2,.1,.1,.1,.1,.1,.1,.1,.1,.1,.1,.1,.1,.1,.1,.1,.1,.1,.1,.1,.1,.1,.2,.1,.1,.1,.1,.1,.1,.1,.3" class="s4">Mindestens eine elektronische Spielstandanzeige pro Spielfeld </text>
<path d="M37.8,546h1.1v1.1H37.8Z" class="g0"/>
<path d="M38.9,546H86.6v1.1H38.9Z" class="g0"/>
<path d="M86.6,546h1.1v1.1H86.6Z" class="g0"/>
<path d="M87.7,546H697.5v1.1H87.7Z" class="g0"/>
<path d="M697.5,546h1.1v1.1h-1.1Z" class="g0"/>
<path d="M698.6,546h79.9v1.1H698.6Z" class="g0"/>
<path d="M778.5,546h1.1v1.1h-1.1Z" class="g0"/>
<path d="M779.6,546h92v1.1h-92Z" class="g0"/>
<path d="M871.6,546h1.1v1.1h-1.1Z" class="g0"/>
<path d="M37.8,547.1h1.1v24.6H37.8Z" class="g0"/>
<path d="M86.6,547.1h1.1v24.6H86.6Z" class="g0"/>
<path d="M697.5,547.1h1.1v24.6h-1.1Z" class="g0"/>
<path d="M778.5,547.1h1.1v24.6h-1.1Z" class="g0"/>
<path d="M871.6,547.1h1.1v24.6h-1.1Z" class="g0"/>
<text x="54" y="595" dx="0,.1,.1" class="s4">4b </text>

<text x="92" y="586" dx="0,.1,.1,.1,.1,.1,.1,.1,.1,.1,.1,.1,.1,.1,.1,.1,.1,.1,.1,.1,.1,.1,.1,.1,.1,.1,.1,.1,.1,.1,.1,.1,.1,.1,.1,.1,.1,.2,.1,.1,.1,.1,.1,.1,.1,.1,.1,.1,.1,.1,.1,.1,.1,.1,.1,.1,.1,.1,.1,.1,.1,.1,.2,.1,.1,.1,.1,.1,.1,.1,.1,.1,.1,.1,.1,.1,.1,.1,.2,.1,.1,.2,.1,0,.1,.1,.1,0,.1" class="s4">oder alternativ zu 4a eine zentrale Spielstandanzeige beider Spielfelder via Beamer, die </text>
<text x="92" y="604" dx="0,.1,.1,.1,.1,.1,.1,.1,.1,.1,.1,.1,.2,.1,.1,.1,.1,.1,.1,.1,.1,.1,.1,.1,.1,.1,.1,.1,.1,.1,.1,.1,.1,.1,.1,.1,.1,.1,.1,.1,.1,.1,.1,.1,.1,0" class="s4">von beiden Schiedsrichterstühlen sichtbar ist </text>

<path d="M37.8,571.7h1.1v1.1H37.8Z" class="g0"/>
<path d="M38.9,571.7H86.6v1.1H38.9Z" class="g0"/>
<path d="M86.6,571.7h1.1v1.1H86.6Z" class="g0"/>
<path d="M87.7,571.7H697.5v1.1H87.7Z" class="g0"/>
<path d="M697.5,571.7h1.1v1.1h-1.1Z" class="g0"/>
<path d="M698.6,571.7h79.9v1.1H698.6Z" class="g0"/>
<path d="M778.5,571.7h1.1v1.1h-1.1Z" class="g0"/>
<path d="M779.6,571.7h92v1.1h-92Z" class="g0"/>
<path d="M871.6,571.7h1.1v1.1h-1.1Z" class="g0"/>
<path d="M37.8,572.8h1.1V608H37.8Z" class="g0"/>
<path d="M86.6,572.8h1.1V608H86.6Z" class="g0"/>
<path d="M697.5,572.8h1.1V608h-1.1Z" class="g0"/>
<path d="M778.5,572.8h1.1V608h-1.1Z" class="g0"/>
<path d="M871.6,572.8h1.1V608h-1.1Z" class="g0"/>
<text x="58" y="626" dx="0,.1" class="s4">5 </text>
<text x="92" y="626" dx="0,.2,.1,.1,.1,.1,.1,.1,.1,.1,.1,.1,.1,.1,.1,.1,.1,.1,.1,.1,.1,.1,.1,.1,.1,.1,.1,.1,.1,.2,.1,.1,.1,.1,.1,.1,.2,.1,.1,.1,.1,.1,.2" class="s4">Stühle für Linienrichter (soweit anwesend) </text>
<path d="M37.8,608h1.1v1.1H37.8Z" class="g0"/>
<path d="M38.9,608H86.6v1.1H38.9Z" class="g0"/>
<path d="M86.6,608h1.1v1.1H86.6Z" class="g0"/>
<path d="M87.7,608H697.5v1.1H87.7Z" class="g0"/>
<path d="M697.5,608h1.1v1.1h-1.1Z" class="g0"/>
<path d="M698.6,608h79.9v1.1H698.6Z" class="g0"/>
<path d="M778.5,608h1.1v1.1h-1.1Z" class="g0"/>
<path d="M779.6,608h92v1.1h-92Z" class="g0"/>
<path d="M871.6,608h1.1v1.1h-1.1Z" class="g0"/>
<path d="M37.8,609.1h1.1v24.5H37.8Z" class="g0"/>
<path d="M86.6,609.1h1.1v24.5H86.6Z" class="g0"/>
<path d="M697.5,609.1h1.1v24.5h-1.1Z" class="g0"/>
<path d="M778.5,609.1h1.1v24.5h-1.1Z" class="g0"/>
<path d="M871.6,609.1h1.1v24.5h-1.1Z" class="g0"/>
<text x="58" y="652" dx="0,.1" class="s4">6 </text>
<text x="92" y="652" dx="0,.1,.2,.1,.1,.1,.2,.1,.1,.1,.1,.1,.1,.1,.1,.1,.1,.1,.1,.1,.1,.1,.1,.1,.1,0,.1,.1,.2,.1,.1,.1,.1,.1,.1,.1,.1,.1,.1,.1,.1,.1,.2,.1,.1,.1,.1,.1,.1,.1,.1,.1,.1,.1,.1,.3" class="s4">Zwei Stühle für Trainer je Spielfeld und Spielfeldseite </text>
<path d="M37.8,633.6h1.1v1.1H37.8Z" class="g0"/>
<path d="M38.9,633.6H86.6v1.1H38.9Z" class="g0"/>
<path d="M86.6,633.6h1.1v1.1H86.6Z" class="g0"/>
<path d="M87.7,633.6H697.5v1.1H87.7Z" class="g0"/>
<path d="M697.5,633.6h1.1v1.1h-1.1Z" class="g0"/>
<path d="M698.6,633.6h79.9v1.1H698.6Z" class="g0"/>
<path d="M778.5,633.6h1.1v1.1h-1.1Z" class="g0"/>
<path d="M779.6,633.6h92v1.1h-92Z" class="g0"/>
<path d="M871.6,633.6h1.1v1.1h-1.1Z" class="g0"/>
<path d="M37.8,634.7h1.1v24.6H37.8Z" class="g0"/>
<path d="M86.6,634.7h1.1v24.6H86.6Z" class="g0"/>
<path d="M697.5,634.7h1.1v24.6h-1.1Z" class="g0"/>
<path d="M778.5,634.7h1.1v24.6h-1.1Z" class="g0"/>
<path d="M871.6,634.7h1.1v24.6h-1.1Z" class="g0"/>
<text x="58" y="683" dx="0,.1" class="s4">7 </text>

<text x="92" y="674" dx="0,.1,.1,.1,.1,.1,.1,.1,.1,.1,.1,.1,.1,.1,.1,.1,.1,.1,.1,.1,.1,.1,.1,.1,.1,.1,.1,.1,.1,.1,.1,.1,.1,.1,.1,.1,.1,.1,.1,.1,.1,.2,.1,.1,.1,.1,.1,.1,.1,.1,.2,.1,.1,.1,.1,.1,.1,.1,.1,.1,.1,.1,.1,.1,.1,.1,.1,.1,.1,.1,.1,.1,.1,.1,.1,.1,.1,.1,.1,.1,.1" class="s4">Zugelassene Federbälle in ausreichender Anzahl sowie Zugriff auf ein offizielles </text>
<text x="92" y="691" dx="0,.2,.1,.1,.1,.1,.1,.1,.1,.1,.1,.1,.1,.1,.1,.1,.1,.1,.1,.1,.1,.1,.1,.1,.2,.1,.1,.1,.1,.1,.2,.1,.1,.1,.1,.1,.1,.1,.1,.1" class="s4">Verzeichnis der zugelassenen Federbälle </text>

<path d="M37.8,659.3h1.1v1.1H37.8Z" class="g0"/>
<path d="M38.9,659.3H86.6v1.1H38.9Z" class="g0"/>
<path d="M86.6,659.3h1.1v1.1H86.6Z" class="g0"/>
<path d="M87.7,659.3H697.5v1.1H87.7Z" class="g0"/>
<path d="M697.5,659.3h1.1v1.1h-1.1Z" class="g0"/>
<path d="M698.6,659.3h79.9v1.1H698.6Z" class="g0"/>
<path d="M778.5,659.3h1.1v1.1h-1.1Z" class="g0"/>
<path d="M779.6,659.3h92v1.1h-92Z" class="g0"/>
<path d="M871.6,659.3h1.1v1.1h-1.1Z" class="g0"/>
<path d="M37.8,660.4h1.1v35.2H37.8Z" class="g0"/>
<path d="M86.6,660.4h1.1v35.2H86.6Z" class="g0"/>
<path d="M697.5,660.4h1.1v35.2h-1.1Z" class="g0"/>
<path d="M778.5,660.4h1.1v35.2h-1.1Z" class="g0"/>
<path d="M871.6,660.4h1.1v35.2h-1.1Z" class="g0"/>
<text x="58" y="714" dx="0,.1" class="s4">8 </text>
<text x="92" y="714" dx="0,.2,.1,.1,.1,.1,.1,.1,.1,.1,.1,.1,.1,.1,.1,.1,.1,.1,.1,.1,.1,.1,.1,.1,.1,.1,.1,.1,.1,.1,.2,.1,.1,.1,.1,.1,.1,.1,.1,.1,.1,.1,.1,.2,.1,.1,.1,.2,.1,.1,.1,.1,.1,.3" class="s4">Aufenthaltsbereich für beide Mannschaften mit Stühlen </text>
<path d="M37.8,695.6h1.1v1.1H37.8Z" class="g0"/>
<path d="M38.9,695.6H86.6v1.1H38.9Z" class="g0"/>
<path d="M86.6,695.6h1.1v1.1H86.6Z" class="g0"/>
<path d="M87.7,695.6H697.5v1.1H87.7Z" class="g0"/>
<path d="M697.5,695.6h1.1v1.1h-1.1Z" class="g0"/>
<path d="M698.6,695.6h79.9v1.1H698.6Z" class="g0"/>
<path d="M778.5,695.6h1.1v1.1h-1.1Z" class="g0"/>
<path d="M779.6,695.6h92v1.1h-92Z" class="g0"/>
<path d="M871.6,695.6h1.1v1.1h-1.1Z" class="g0"/>
<path d="M37.8,696.7h1.1v24.6H37.8Z" class="g0"/>
<path d="M86.6,696.7h1.1v24.6H86.6Z" class="g0"/>
<path d="M697.5,696.7h1.1v24.6h-1.1Z" class="g0"/>
<path d="M778.5,696.7h1.1v24.6h-1.1Z" class="g0"/>
<path d="M871.6,696.7h1.1v24.6h-1.1Z" class="g0"/>
<text x="58" y="739" dx="0,.1" class="s4">9 </text>
<text x="92" y="739" dx="0,.2,.1,.1,.1,.1,.1,.1,.1,.1,.1,.1,.1,.1,.1,.1,.1,.1,.2" class="s4">Beschallungsanlage </text>
<path d="M37.8,721.3h1.1v1.1H37.8Z" class="g0"/>
<path d="M38.9,721.3H86.6v1.1H38.9Z" class="g0"/>
<path d="M86.6,721.3h1.1v1.1H86.6Z" class="g0"/>
<path d="M87.7,721.3H697.5v1.1H87.7Z" class="g0"/>
<path d="M697.5,721.3h1.1v1.1h-1.1Z" class="g0"/>
<path d="M698.6,721.3h79.9v1.1H698.6Z" class="g0"/>
<path d="M778.5,721.3h1.1v1.1h-1.1Z" class="g0"/>
<path d="M779.6,721.3h92v1.1h-92Z" class="g0"/>
<path d="M871.6,721.3h1.1v1.1h-1.1Z" class="g0"/>
<path d="M37.8,722.4h1.1v24.9H37.8Z" class="g0"/>
<path d="M86.6,722.4h1.1v24.9H86.6Z" class="g0"/>
<path d="M697.5,722.4h1.1v24.9h-1.1Z" class="g0"/>
<path d="M778.5,722.4h1.1v24.9h-1.1Z" class="g0"/>
<path d="M871.6,722.4h1.1v24.9h-1.1Z" class="g0"/>
<text x="54" y="765" dx="0,.1,.1" class="s4">10 </text>
<text x="92" y="765" dx="0,.2,.1,.1,.1,.1,.1,.1,.1,.1,.1,.1,.1,.1,.1,.1,.1,.1,.2,.1,.1,.2,.1,.1,.1,.1,.1,.1,.1,.1,.1,.1,.1,.1,.1,.1,.1,.1,.1,.3" class="s4">Ergebnisanzeige: Beamer oder Flatscreen </text>
<path d="M37.8,747.3h1.1v1.1H37.8Z" class="g0"/>
<path d="M38.9,747.3H86.6v1.1H38.9Z" class="g0"/>
<path d="M86.6,747.3h1.1v1.1H86.6Z" class="g0"/>
<path d="M87.7,747.3H697.5v1.1H87.7Z" class="g0"/>
<path d="M697.5,747.3h1.1v1.1h-1.1Z" class="g0"/>
<path d="M698.6,747.3h79.9v1.1H698.6Z" class="g0"/>
<path d="M778.5,747.3h1.1v1.1h-1.1Z" class="g0"/>
<path d="M779.6,747.3h92v1.1h-92Z" class="g0"/>
<path d="M871.6,747.3h1.1v1.1h-1.1Z" class="g0"/>
<path d="M37.8,748.4h1.1V773H37.8Z" class="g0"/>
<path d="M86.6,748.4h1.1V773H86.6Z" class="g0"/>
<path d="M697.5,748.4h1.1V773h-1.1Z" class="g0"/>
<path d="M778.5,748.4h1.1V773h-1.1Z" class="g0"/>
<path d="M871.6,748.4h1.1V773h-1.1Z" class="g0"/>
<text x="54" y="791" dx="0,.1,.1" class="s4">11 </text>
<text x="92" y="791" dx="0,.1,.1,.1,.1,.1,.1,.2,.1,.1,.1,.2,.1,.1,.1,.1,.1,.1,.1,.1,.1,.1,.1,.2,.1,.1,.1,.1,.1,.1,.1,.1,.1,.1,.1,.1,.1,.1,.1,.2,.1,.1,.1,.1,.1,.1,.1,.1,.1,.1,.1,.1,.1,.2,.1,.1,.1,.1,.1,.1,.1,.1,.1,.1,.1,.1,.1,.1,.1,.1,.1,.1,.1,.1,.3" class="s4">Tisch mit Stühlen für Schiedsrichter, Organisation, Moderation und Technik </text>
<path d="M37.8,773h1.1v1.1H37.8Z" class="g0"/>
<path d="M38.9,773H86.6v1.1H38.9Z" class="g0"/>
<path d="M86.6,773h1.1v1.1H86.6Z" class="g0"/>
<path d="M87.7,773H697.5v1.1H87.7Z" class="g0"/>
<path d="M697.5,773h1.1v1.1h-1.1Z" class="g0"/>
<path d="M698.6,773h79.9v1.1H698.6Z" class="g0"/>
<path d="M778.5,773h1.1v1.1h-1.1Z" class="g0"/>
<path d="M779.6,773h92v1.1h-92Z" class="g0"/>
<path d="M871.6,773h1.1v1.1h-1.1Z" class="g0"/>
<path d="M37.8,774.1h1.1v24.5H37.8Z" class="g0"/>
<path d="M86.6,774.1h1.1v24.5H86.6Z" class="g0"/>
<path d="M697.5,774.1h1.1v24.5h-1.1Z" class="g0"/>
<path d="M778.5,774.1h1.1v24.5h-1.1Z" class="g0"/>
<path d="M871.6,774.1h1.1v24.5h-1.1Z" class="g0"/>
<text x="54" y="822" dx="0,.1,.1" class="s4">12 </text>

<text x="92" y="813" dx="0,.2,.2,.1,.2,.1,.1,.1,.1,.1,.1,.1,.1,.1,.1,.1,.1,.1,.1,.1,.1,.1,.1,.1,.3,.1,.1,.1,.1,.1,.1,.1,.1,.1,.1,.1,.2,.1,.1,.1,.1,.1,.1,.1,.1,.1,.1,.1,.1,.1,.2,.1,.1,.1,.1,.1,.1,.1,.1,.1,.1,.1,.1,.1,.1,.1,.1,.1,.1,.1,.1,.1,.1" class="s4">PC mit Internetzugang, Drucker für Spielbericht, Mannschaftsaufstellung, </text>
<text x="92" y="831" dx="0,.2,.1,.1,.1,.1,.1,.1,.1,.1,.1,.1,.1,.1,.1,.1,.1,.1,.1,.1,.1,.1,.2,.1,.1,.1,.2,.2,.1,.1,.1,.1,.1,.1,.1,.1,.1,.1,.1,.2,.1,.1,.1,.1,.1" class="s4">Schiedsrichterzettel mit BL-Logo oder Tablet </text>

<path d="M37.8,798.6h1.1v1.1H37.8Z" class="g0"/>
<path d="M38.9,798.6H86.6v1.1H38.9Z" class="g0"/>
<path d="M86.6,798.6h1.1v1.1H86.6Z" class="g0"/>
<path d="M87.7,798.6H697.5v1.1H87.7Z" class="g0"/>
<path d="M697.5,798.6h1.1v1.1h-1.1Z" class="g0"/>
<path d="M698.6,798.6h79.9v1.1H698.6Z" class="g0"/>
<path d="M778.5,798.6h1.1v1.1h-1.1Z" class="g0"/>
<path d="M779.6,798.6h92v1.1h-92Z" class="g0"/>
<path d="M871.6,798.6h1.1v1.1h-1.1Z" class="g0"/>
<path d="M37.8,799.7h1.1v35.2H37.8Z" class="g0"/>
<path d="M86.6,799.7h1.1v35.2H86.6Z" class="g0"/>
<path d="M697.5,799.7h1.1v35.2h-1.1Z" class="g0"/>
<path d="M778.5,799.7h1.1v35.2h-1.1Z" class="g0"/>
<path d="M871.6,799.7h1.1v35.2h-1.1Z" class="g0"/>
<text x="54" y="853" dx="0,.1,.1" class="s4">13 </text>
<text x="92" y="853" dx="0,.2,.1,.1,.1,.2,.1,.1,.1,.1,.1,.1,.1,.1,.1,.1,.1,.1,.1,.1,.1,.2,.1,.1,.1,.1,.1,.1,.1,.1,.1,.2,.1,.1,.1,.2,.2,.1,.1,.1,.1,.1" class="s4">Ein Werbereiter pro Spielfeld mit BL-Logo </text>
<path d="M37.8,834.9h1.1V836H37.8Z" class="g0"/>
<path d="M38.9,834.9H86.6V836H38.9Z" class="g0"/>
<path d="M86.6,834.9h1.1V836H86.6Z" class="g0"/>
<path d="M87.7,834.9H697.5V836H87.7Z" class="g0"/>
<path d="M697.5,834.9h1.1V836h-1.1Z" class="g0"/>
<path d="M698.6,834.9h79.9V836H698.6Z" class="g0"/>
<path d="M778.5,834.9h1.1V836h-1.1Z" class="g0"/>
<path d="M779.6,834.9h92V836h-92Z" class="g0"/>
<path d="M871.6,834.9h1.1V836h-1.1Z" class="g0"/>
<path d="M37.8,836h1.1v24.6H37.8Z" class="g0"/>
<path d="M86.6,836h1.1v24.6H86.6Z" class="g0"/>
<path d="M697.5,836h1.1v24.6h-1.1Z" class="g0"/>
<path d="M778.5,836h1.1v24.6h-1.1Z" class="g0"/>
<path d="M871.6,836h1.1v24.6h-1.1Z" class="g0"/>
<text x="54" y="879" dx="0,.1,.1" class="s4">14 </text>
<text x="92" y="879" dx="0,.2,.1,.1,.1,.1,.1,.1,.1,.1,.1,.1,.1,.1,.1,.1,.1,.1,.1,.1,.1,.1,.1,.2,.1,.1,.1,.1,.1,.1,.1,.1,.1,.1,.1,.1,.1,.1,.1,.1,.1,.1,.1,.1,.1,.1,.1,.1,.1,.1,.1,.1,.1,.1,.1,.2,.1,.1,.1,.3" class="s4">Ablagebehältnisse für Spielertaschen und für benutzte Bälle </text>
<path d="M37.8,860.6h1.1v1.1H37.8Z" class="g0"/>
<path d="M38.9,860.6H86.6v1.1H38.9Z" class="g0"/>
<path d="M86.6,860.6h1.1v1.1H86.6Z" class="g0"/>
<path d="M87.7,860.6H697.5v1.1H87.7Z" class="g0"/>
<path d="M697.5,860.6h1.1v1.1h-1.1Z" class="g0"/>
<path d="M698.6,860.6h79.9v1.1H698.6Z" class="g0"/>
<path d="M778.5,860.6h1.1v1.1h-1.1Z" class="g0"/>
<path d="M779.6,860.6h92v1.1h-92Z" class="g0"/>
<path d="M871.6,860.6h1.1v1.1h-1.1Z" class="g0"/>
<path d="M37.8,861.7h1.1v24.6H37.8Z" class="g0"/>
<path d="M86.6,861.7h1.1v24.6H86.6Z" class="g0"/>
<path d="M697.5,861.7h1.1v24.6h-1.1Z" class="g0"/>
<path d="M778.5,861.7h1.1v24.6h-1.1Z" class="g0"/>
<path d="M871.6,861.7h1.1v24.6h-1.1Z" class="g0"/>
<text x="54" y="904" dx="0,.1,.1" class="s4">15 </text>
<text x="92" y="904" dx="0,.2,.1,.1,.1,.1,.1,.1,.1,.1,.1,.1,.1,.1,.1,.1,.2,.1,.1,.1,.1,.1,.1,.1,.1,.1,.1,.2,.1,.1,.1,.1,.1,.1,.1,.1,.1,.1,.1,.1,.1,.2,.2,.1,.1,.1,.1,.1,.1,.1,.1,.1,.1,.2,.1,.1,.1,.1,.1,.1,.1,.1,.2,.1,.1,.1,.1,.1,.1,.1,.1,.1,.1,.1,.1,.1" class="s4">Hallensprecher Begrüßung, Präsentation, Vorstellung Spieler, Schiedsrichter </text>
<path d="M37.8,886.3h1.1v1.1H37.8Z" class="g0"/>
<path d="M38.9,886.3H86.6v1.1H38.9Z" class="g0"/>
<path d="M86.6,886.3h1.1v1.1H86.6Z" class="g0"/>
<path d="M87.7,886.3H697.5v1.1H87.7Z" class="g0"/>
<path d="M697.5,886.3h1.1v1.1h-1.1Z" class="g0"/>
<path d="M698.6,886.3h79.9v1.1H698.6Z" class="g0"/>
<path d="M778.5,886.3h1.1v1.1h-1.1Z" class="g0"/>
<path d="M779.6,886.3h92v1.1h-92Z" class="g0"/>
<path d="M871.6,886.3h1.1v1.1h-1.1Z" class="g0"/>
<path d="M37.8,887.4h1.1v24.9H37.8Z" class="g0"/>
<path d="M86.6,887.4h1.1v24.9H86.6Z" class="g0"/>
<path d="M697.5,887.4h1.1v24.9h-1.1Z" class="g0"/>
<path d="M778.5,887.4h1.1v24.9h-1.1Z" class="g0"/>
<path d="M871.6,887.4h1.1v24.9h-1.1Z" class="g0"/>
<text x="54" y="936" dx="0,.1,.1" class="s4">16 </text>

<text x="92" y="927" dx="0,.2,.1,.1,.1,.1,.1,.1,.1,.1,.1,.1,.1,.1,.1,.1,.1,.1,.1,.1,.1,.1,.1,.1,.1,.1,.1,.1,.1,.1,.1,.2,.1,.1,.1,.1,.1,.1,.1,.1,.1,.1,.1,.1,.1,.1,.2,.1,.1,.1,.1,.1,.1,.1,.1,.2,.1,.1,.1,.2,.3,.1,.1,.1,.1,.1,.1,.1,.1,.2,.1,.1,.1,.1,.1,.1,.2,.1,.1,.1,.1,.1,.1,.1,.1,.1" class="s4">Mannschaften in einheitlicher Bekleidung bei Trikots (mit BL-Logo), Hosen, Röcken und </text>
<text x="92" y="944" dx="0,.1,.1,.1,.1,.1,.1,.1,.1,.1,.1,.1,.1,.1,.1,.1,.2" class="s4">Trainingsanzügen </text>

<path d="M37.8,912.3h1.1v1.1H37.8Z" class="g0"/>
<path d="M38.9,912.3H86.6v1.1H38.9Z" class="g0"/>
<path d="M86.6,912.3h1.1v1.1H86.6Z" class="g0"/>
<path d="M87.7,912.3H697.5v1.1H87.7Z" class="g0"/>
<path d="M697.5,912.3h1.1v1.1h-1.1Z" class="g0"/>
<path d="M698.6,912.3h79.9v1.1H698.6Z" class="g0"/>
<path d="M778.5,912.3h1.1v1.1h-1.1Z" class="g0"/>
<path d="M779.6,912.3h92v1.1h-92Z" class="g0"/>
<path d="M871.6,912.3h1.1v1.1h-1.1Z" class="g0"/>
<path d="M37.8,913.4h1.1v35.2H37.8Z" class="g0"/>
<path d="M86.6,913.4h1.1v35.2H86.6Z" class="g0"/>
<path d="M697.5,913.4h1.1v35.2h-1.1Z" class="g0"/>
<path d="M778.5,913.4h1.1v35.2h-1.1Z" class="g0"/>
<path d="M871.6,913.4h1.1v35.2h-1.1Z" class="g0"/>
<text x="54" y="966" dx="0,.1,.1" class="s4">17 </text>
<text x="92" y="966" dx="0,.2,.1,.1,.1,.1,.1,.1,.1,.1,.1,.1,.1,.1,.1,.1,.1,.1,.1,.1,.1,.1,.2,.1,.1,.1,.1,.1,.1,.1,.1,.1,.1,.1,.1,.1,.1,.1,.1,.1,.2,.1,.1,.1,.1,.1,.1,.1,.3" class="s4">Aufruf der einzelnen Begegnungen durch Moderator </text>
<path d="M37.8,948.6h1.1v1.1H37.8Z" class="g0"/>
<path d="M38.9,948.6H86.6v1.1H38.9Z" class="g0"/>
<path d="M86.6,948.6h1.1v1.1H86.6Z" class="g0"/>
<path d="M87.7,948.6H697.5v1.1H87.7Z" class="g0"/>
<path d="M697.5,948.6h1.1v1.1h-1.1Z" class="g0"/>
<path d="M698.6,948.6h79.9v1.1H698.6Z" class="g0"/>
<path d="M778.5,948.6h1.1v1.1h-1.1Z" class="g0"/>
<path d="M779.6,948.6h92v1.1h-92Z" class="g0"/>
<path d="M871.6,948.6h1.1v1.1h-1.1Z" class="g0"/>
<path d="M37.8,949.7h1.1v24.6H37.8Z" class="g0"/>
<path d="M37.8,974.3h1.1v1.1H37.8Z" class="g0"/>
<path d="M37.8,974.3h1.1v1.1H37.8Z" class="g0"/>
<path d="M38.9,974.3H86.6v1.1H38.9Z" class="g0"/>
<path d="M86.6,949.7h1.1v24.6H86.6Z" class="g0"/>
<path d="M86.6,974.3h1.1v1.1H86.6Z" class="g0"/>
<path d="M87.7,974.3H697.5v1.1H87.7Z" class="g0"/>
<path d="M697.5,949.7h1.1v24.6h-1.1Z" class="g0"/>
<path d="M697.5,974.3h1.1v1.1h-1.1Z" class="g0"/>
<path d="M698.6,974.3h79.9v1.1H698.6Z" class="g0"/>
<path d="M778.5,949.7h1.1v24.6h-1.1Z" class="g0"/>
<path d="M778.5,974.3h1.1v1.1h-1.1Z" class="g0"/>
<path d="M779.6,974.3h92v1.1h-92Z" class="g0"/>
<path d="M871.6,949.7h1.1v24.6h-1.1Z" class="g0"/>
<path d="M871.6,974.3h1.1v1.1h-1.1Z" class="g0"/>
<path d="M871.6,974.3h1.1v1.1h-1.1Z" class="g0"/>
<text x="44" y="1009" class="s5">Bemerkungen: </text>
<path d="M177.5,1012.4h678v.4h-678Z" class="g0"/>
<path d="M44.1,1054.6h811v.3H44.1Z" class="g0"/>
<path d="M44.1,1096.7h811v.4H44.1Z" class="g0"/>
<path d="M44.1,1138.9h811v.4H44.1Z" class="g0"/>
<text x="44" y="1185" dx="0,.1,.1,.1,.1,.1,0,.1,.1,.1,0,0,0,.1,.1,.1,.1,0,.1,.1,.1,0,.1,.1,.1,.1,0,.1,.1,0,.1,.1,0" class="s1">Verantwortlicher Schiedsrichter: </text>
<path d="M380.3,1188H855.1v.4H380.3Z" class="g0"/>

<text x="422" y="1209" dx="0,.1,.1,.1,.1" class="s1">Name </text>
<text x="693" y="1209" dx="0,.1,.1,0,.1,0,.1,.1,.1,0,0,0,0" class="s1">Unterschrift </text>



<text x="175" y="107" style="font-size:14px;" id="es_svg_team0"></text>
<text x="445" y="107" style="font-size:14px;" id="es_svg_team1"></text>
<text x="775" y="107" style="font-size:14px;" id="es_svg_date"></text>

</svg>
