<svg xmlns="http://www.w3.org/2000/svg" xmlns:xlink="http://www.w3.org/1999/xlink" version="1.1" viewBox="0 0 297 210">
<style>
text {
	font-family: Helvetica;
	font-size: 4px;
}
text.small-text, text.table_name {font-size: 3px;}
.divider-line {stroke: #000; stroke-width: 0.2;}
.box {stroke: #000; stroke-width: 0.5; fill: none;}
.shade,.box.shaded,.table_longtext_background.shaded {fill: #e0e0e0;}
.scoresheet_results_circle_team1,.scoresheet_results_circle_team2 {
	stroke: #000; stroke-width: 0.6; fill: none;
}
.dashed-line {
	stroke: #000; stroke-width: 0.4; stroke-dasharray: 0.4px, 0.4px;
}
.table {
	stroke: #000; stroke-width: 0.35; fill: none;
}
.table_line {
	stroke: #000; stroke-width: 0.1;
}
.table_20all_dash {
	stroke: #000; stroke-width: 0.4;
}
.editmode-sign {
	stroke: #202020; stroke-width: 0.3; fill: none;
}
.table_thick-line {
	stroke: #000; stroke-width: 0.35;
}
.table_game_result {
	stroke: #000; stroke-width: 0.4; fill: none;
}
.table_longtext_background {
	fill: #fff;
	opacity: 0.75;
}
</style>

<!-- top left -->
<text class="scoresheet_tournament_name" x="15" y="13"></text>
<text class="scoresheet_event_name" font-weight="bold" x="50" y="13"/><!-- x will be set automatically -->

<!-- Bundesliga logo -->
<path style="fill:#565655;stroke-width:0.31472653" d="m 38.633574,31.84196 h 1.821323 c 0.564619,0 0.814827,0.09977 1.101543,0.435897 a 1.3120949,1.3120949 0 0 1 0.314726,0.849761 1.2308955,1.2308955 0 0 1 -0.543218,1.028527 1.3218515,1.3218515 0 0 1 -0.459815,2.421506 2.9288452,2.9288452 0 0 1 -0.38554,0.0214 h -1.849019 z m 1.8358,1.98561 a 0.67225589,0.67225589 0 0 0 0.721353,-0.67855 0.68453022,0.68453022 0 0 0 -0.73583,-0.678551 h -1.101543 v 1.357101 z m 0.0069,2.085693 a 0.72387104,0.72387104 0 1 0 0,-1.442707 h -1.122315 v 1.442707 z m 5.444769,-0.978485 a 1.6995233,1.6995233 0 1 1 -3.399046,0 V 31.84196 h 0.721668 v 3.092818 a 0.97879954,0.97879954 0 0 0 0.985723,0.985409 0.94795634,0.94795634 0 0 0 0.964322,-0.985409 V 31.84196 h 0.728277 z m 1.482362,1.664589 h -0.7207 V 31.84196 h 0.685475 l 2.157136,3.392438 V 31.84196 h 0.728591 v 4.757092 h -0.671626 l -2.178852,-3.399047 z m 3.646737,-4.757092 h 1.71463 a 1.6705685,1.6705685 0 0 1 1.685675,1.685675 v 1.399904 a 1.7033,1.7033 0 0 1 -1.721554,1.671513 h -1.678751 z m 1.71463,4.070988 A 0.96148958,0.96148958 0 0 0 53.72154,34.934778 V 33.52795 A 0.96117485,0.96117485 0 0 0 52.772011,32.513272 H 51.77181 v 3.399047 z m 3.086838,-0.0069 h 2.3359 v 0.692398 H 55.129966 V 31.84196 h 3.057568 v 0.665647 h -2.328976 v 1.357101 h 1.985924 v 0.642986 h -1.992848 z m 3.376701,-0.435896 a 1.9645231,1.9645231 0 0 0 1.285972,0.449744 c 0.635748,0 0.992963,-0.249893 0.992963,-0.685789 0,-0.456983 -0.271295,-0.649911 -0.992963,-0.685475 a 1.6995233,1.6995233 0 0 1 -0.944179,-0.242654 1.3533241,1.3533241 0 0 1 -0.629453,-1.143087 c 0,-0.806959 0.636062,-1.364024 1.550343,-1.364024 a 2.7897361,2.7897361 0 0 1 1.528626,0.450058 l -0.38554,0.606793 A 2.1284956,2.1284956 0 0 0 60.462354,32.52022 c -0.492548,0 -0.800035,0.242969 -0.800035,0.629453 0,0.443135 0.278533,0.642986 0.921519,0.678551 0.786816,0.0428 1.221768,0.264055 1.485824,0.756917 a 1.3643396,1.3643396 0 0 1 0.163972,0.642671 c 0,0.849762 -0.685789,1.407458 -1.699523,1.407458 A 2.6915414,2.6915414 0 0 1 58.771667,36.035062 Z M 44.474269,47.398578 h -5.833771 v -8.859237 h 1.661127 v 7.249726 h 4.17233 z m 2.82058,0 h -1.663015 v -8.859237 h 1.663015 z m 4.224259,0.07648 c -1.851851,0 -3.196363,-1.408716 -3.196363,-3.34932 v -2.517812 a 3.2350741,3.2350741 0 0 1 6.415701,-0.49538 l 0.04532,0.232898 H 53.12673 l -0.04784,-0.125891 a 1.54216,1.54216 0 0 0 -1.50817,-1.081715 1.5254795,1.5254795 0 0 0 -1.573632,1.470717 v 2.441649 c 0,0.871478 0.0088,0.881234 0.472089,1.321851 a 1.5106874,1.5106874 0 0 0 1.04804,0.429602 1.5575816,1.5575816 0 0 0 1.534921,-1.405883 l 0.0057,-0.03556 c 0.0069,-0.03147 0.0069,-0.167119 0.0069,-0.309376 V 43.92841 h -1.716204 v -1.598811 h 3.392438 v 1.888359 a 3.2073782,3.2073782 0 0 1 -3.2228,3.260252 M 62.50212,47.401726 H 60.734616 L 60.08565,45.505813 h -2.97574 l -0.635432,1.894969 h -1.793942 l 3.258679,-8.860811 h 1.32909 z m -4.878261,-3.43052 h 1.936827 L 58.596993,41.081073 Z M 38.637036,26.136598 h 1.429488 a 0.939144,0.939144 0 0 1 0.864554,0.341793 1.033562,1.033562 0 0 1 0.246431,0.66722 0.96872829,0.96872829 0 0 1 -0.425825,0.807273 1.0385976,1.0385976 0 0 1 -0.358788,1.900319 2.3173315,2.3173315 0 0 1 -0.302767,0.01668 h -1.453093 z m 1.440818,1.558211 a 0.52779641,0.52779641 0 0 0 0.566508,-0.532203 0.5372382,0.5372382 0 0 0 -0.577523,-0.532832 h -0.863295 v 1.065035 z m 0.0057,1.636578 a 0.56839613,0.56839613 0 1 0 0,-1.133016 H 39.20232 v 1.133016 z m 2.690283,0.566507 c -0.571544,0 -0.969673,-0.330777 -0.969673,-0.823954 a 0.82049209,0.82049209 0 0 1 0.218421,-0.538497 0.73551592,0.73551592 0 0 1 0.67855,-0.257761 h 0.705932 v -0.202054 c 0,-0.297102 -0.112043,-0.381134 -0.515837,-0.381134 -0.324798,0 -0.42614,0.03903 -0.509857,0.185059 l -0.42016,-0.336442 c 0.162084,-0.257447 0.44817,-0.375469 0.908301,-0.375469 a 1.1015429,1.1015429 0 0 1 0.795943,0.224085 0.83150752,0.83150752 0 0 1 0.280107,0.622844 v 1.854998 h -0.538183 v -0.257446 a 0.64707777,0.64707777 0 0 1 -0.633229,0.286086 m -0.06295,-1.182742 c -0.274756,0 -0.397814,0.101027 -0.397814,0.325112 0,0.240766 0.168379,0.358474 0.515837,0.358474 0.472089,0 0.577208,-0.07837 0.577208,-0.453836 v -0.230065 z m 3.980347,1.154732 h -0.532832 v -0.291437 a 0.88721412,0.88721412 0 0 1 -0.700582,0.319447 0.90546826,0.90546826 0 0 1 -0.89162,-0.745587 2.149897,2.149897 0 0 1 -0.0057,-0.2244 v -0.952677 a 0.82961916,0.82961916 0 0 1 0.241395,-0.516152 0.9155395,0.9155395 0 0 1 0.666591,-0.291437 0.87525451,0.87525451 0 0 1 0.689881,0.336443 v -1.367801 h 0.532832 z m -0.532832,-1.603217 a 0.5218166,0.5218166 0 0 0 -0.527167,-0.560528 0.52716695,0.52716695 0 0 0 -0.537553,0.560528 v 0.538497 a 0.52433442,0.52433442 0 0 0 0.532517,0.566507 0.51803988,0.51803988 0 0 0 0.532203,-0.566507 z m 2.450461,-1.098711 a 0.87619869,0.87619869 0 0 1 0.717261,0.364454 1.0039777,1.0039777 0 0 1 1.776632,0.689565 v 1.647909 h -0.525594 v -1.579928 a 0.53503512,0.53503512 0 0 0 -0.532517,-0.594203 0.54762418,0.54762418 0 0 0 -0.543847,0.594203 v 1.580872 h -0.526538 v -1.580872 a 0.53755293,0.53755293 0 0 0 -0.538497,-0.594203 0.53062895,0.53062895 0 0 0 -0.532832,0.594203 v 1.580872 h -0.532203 v -2.669511 h 0.532203 v 0.297102 a 0.91491005,0.91491005 0 0 1 0.706876,-0.330778 m 3.70559,-0.510171 h -0.526537 v -0.521187 h 0.527166 z m 0,3.212099 h -0.526537 v -2.668252 h 0.527166 z m 1.904096,-2.701928 a 0.88689939,0.88689939 0 0 1 0.891305,0.907987 v 1.793941 h -0.527167 v -1.647908 a 0.53503512,0.53503512 0 0 0 -1.07007,0 v 1.647908 h -0.532517 v -2.668252 h 0.532517 v 0.297102 a 0.90420935,0.90420935 0 0 1 0.706561,-0.330778 m 2.118424,2.007012 c 0,0.157363 0.05067,0.196074 0.230065,0.196074 h 0.17373 v 0.498842 H 56.50724 c -0.487511,0 -0.694916,-0.20709 -0.694916,-0.689251 v -1.547196 h -0.263426 v -0.431805 h 0.263426 v -0.801608 h 0.526537 v 0.801608 h 0.403795 v 0.431805 H 56.33883 Z m 0.78902,-0.930332 a 1.101543,1.101543 0 0 1 2.203086,0 v 0.560528 a 1.1015462,1.1015462 0 0 1 -2.203086,0.0053 z m 1.670568,0 a 0.56273105,0.56273105 0 0 0 -0.560528,-0.543847 0.56934031,0.56934031 0 0 0 -0.572173,0.543847 v 0.560528 a 0.56839613,0.56839613 0 0 0 0.566508,0.566508 0.57437594,0.57437594 0 0 0 0.566508,-0.560528 z m 2.275158,-1.07668 a 0.88658466,0.88658466 0 0 1 0.891306,0.907987 v 1.793941 H 61.43803 v -1.647908 a 0.53503512,0.53503512 0 0 0 -1.07007,0 v 1.647908 h -0.532832 v -2.668252 h 0.532832 v 0.297102 a 0.90420935,0.90420935 0 0 1 0.705616,-0.330778 M 63.14731,50.59683 a 1.9925337,1.9925337 0 0 0 1.986554,-1.986554 V 24.985643 a 1.992219,1.992219 0 0 0 -1.986554,-1.98624 c 0,0 -25.200154,-0.0022 -25.200154,0 a 0.59200062,0.59200062 0 0 0 0.664073,0.623788 H 63.14731 a 1.3640248,1.3640248 0 0 1 1.362766,1.362137 V 48.609961 A 1.3640248,1.3640248 0 0 1 63.14731,49.972097 H 33.987581 a 0.59231535,0.59231535 0 0 0 -0.664073,0.624418 H 63.14668" />
<path style="fill:#0093bd;stroke-width:0.31472653" d="m 34.42631,22.288121 c -0.620012,0.354383 -0.989186,0.07018 -1.083289,-0.253354 -0.08781,-0.30497 0,-0.64519 0.549198,-0.874311 a 3.0553653,3.0553653 0 0 0 0.535035,1.127665 M 37.2856,21.740497 a 0.99862731,0.99862731 0 0 0 0.296473,-0.223141 0.45792712,0.45792712 0 0 0 -0.251781,-0.132185 2.917515,2.917515 0 0 0 0.163028,-0.365083 1.1619704,1.1619704 0 0 0 -0.306544,-0.216846 3.162687,3.162687 0 0 0 0.07396,-0.418901 1.3218515,1.3218515 0 0 0 -0.364139,-0.245487 c -0.01102,-0.07711 0.01133,-0.311265 -0.0076,-0.414495 -0.08812,-0.0343 -0.240766,-0.09442 -0.304341,-0.123058 a 0.79405506,0.79405506 0 0 0 -0.03147,-0.281051 l -0.225344,-0.04123 a 0.22030858,0.22030858 0 0 0 -0.01794,-0.147292 c -0.486882,0.06294 -1.03608,0.688307 -1.195961,1.054963 -0.207719,0.182856 -0.878402,0.791223 -1.017825,0.904524 a 3.7320273,3.7320273 0 0 0 0.495379,1.101543 c 0.09127,-0.02014 1.346715,-0.188836 1.380706,-0.19513 0.686733,0.12117 1.434208,0.0022 1.575521,-0.229436 -0.03147,-0.03682 -0.119282,-0.03336 -0.264685,-0.02801 M 25.871098,37.303095 a 1.9931632,1.9931632 0 0 0 0.168694,-0.420474 c -0.04091,0.01762 -0.08435,0.0343 -0.1325,0.05067 -0.05476,0.01888 -0.125891,0.04815 -0.211182,0.08686 -0.08529,0.03871 -0.349031,0.120226 -0.440617,0.167435 0.0236,0.280421 0.47209,0.224085 0.614661,0.115504 M 35.19739,26.885647 a 7.3822257,7.3822257 0 0 0 -0.686734,0.447856 2.0007166,2.0007166 0 0 1 -0.751566,0.532832 c -0.244858,0.07144 -0.354383,-0.0022 -0.519299,0.05822 -0.164917,0.06043 -0.431805,0.14918 -0.821437,0.283254 -0.389631,0.134073 -1.183686,0.521502 -1.571429,0.635748 a 1.6818986,1.6818986 0 0 1 -0.541015,0.07585 1.545622,1.545622 0 0 1 -0.758176,0.251781 6.6168108,6.6168108 0 0 0 -0.916169,0.13187 c 0.01133,0.05665 0.0129,0.09442 0,0.09725 a 10.380625,10.380625 0 0 1 -1.412808,0.440617 c -0.338016,0.05759 -0.179394,0.16712 -0.442505,0.248004 -0.355327,0.109211 -1.161341,0.265315 -1.290379,0.530944 a 1.0880096,1.0880096 0 0 0 0.166176,0.895082 c 0.120225,0.154846 0.29899,1.769393 0.4488,2.007956 0.149809,0.238562 0.487826,1.785758 0.840005,2.149582 0.352179,0.363824 -0.10386,0.389002 -0.262797,0.570914 -0.130926,0.14981 -0.183485,0.361621 -0.349661,0.484679 l 0.125891,0.09694 c 0,0 -0.06609,0.878401 0.21842,1.125147 0.284513,0.246746 -0.234157,0.822695 -0.193872,1.075735 a 4.5320622,4.5320622 0 0 1 -0.348402,1.517612 c -0.123373,0.162713 0.0098,0.214328 -0.06074,0.524649 -0.0705,0.31032 -0.154216,0.944179 -0.214014,1.150955 -0.01794,0.06294 -0.543218,-0.01165 -0.981947,0.164602 a 3.4909468,3.4909468 0 0 1 0.627565,0.01416 c 0,0 -0.311894,1.27842 -0.663759,1.767819 a 5.6084269,5.6084269 0 0 0 -0.492547,0.809477 c -0.107636,0.181912 -0.09851,0.856686 -0.755343,0.813568 a 2.1634302,2.1634302 0 0 1 -1.201312,-0.592945 2.6361495,2.6361495 0 0 0 0.417642,-1.060313 5.4501195,5.4501195 0 0 1 0.251782,-1.198479 7.5849096,7.5849096 0 0 0 0.230694,-0.758806 c -0.02077,-0.01888 -0.0834,0 -0.09064,-0.01825 a 1.6309129,1.6309129 0 0 1 0.0044,-0.523705 c 0,0 -0.03682,-0.03147 -0.100083,-0.07553 a 0.1387944,0.1387944 0 0 1 -0.0088,0.154845 c -0.09662,0.112672 -0.05445,0.440617 -0.05445,0.440617 0,0 -0.03147,-0.0031 -0.0343,0.0066 a 3.6907981,3.6907981 0 0 0 -0.359103,1.426655 2.9401753,2.9401753 0 0 1 -0.577838,1.710224 c -0.176247,0.212441 -0.231953,0.19041 -0.321965,0.381763 a 0.56650777,0.56650777 0 0 1 -0.665332,0.355327 10.134195,10.134195 0 0 0 -1.262683,0.112672 c -0.228177,0.06609 -0.857315,0.106692 -1.014049,0.142571 a 2.4945226,2.4945226 0 0 0 -0.673829,0.493491 c -0.212441,0.192298 -0.115505,0.07963 -0.07679,0.270665 0.03871,0.191039 -0.113616,0.258076 -0.15453,0.416068 a 2.6578656,2.6578656 0 0 0 -0.273183,1.247891 1.8254139,1.8254139 0 0 1 -0.406942,1.23184 0.75817623,0.75817623 0 0 1 -0.783354,-0.181912 1.3847968,1.3847968 0 0 1 -0.372321,-1.507855 c 0.118652,-0.278533 0.254613,-1.960746 0.393093,-2.412379 0.13848,-0.451632 0.314727,-0.4894 0.686733,-0.473978 0.372007,0.01542 0.42677,0.285457 0.789964,0.123688 0.363194,-0.16177 0.968099,-0.755344 1.613288,-1.116336 0.64519,-0.360991 0.785243,0.03147 0.922464,-0.188835 0.01448,-0.02423 0.03147,-0.05067 0.05067,-0.07805 a 3.2567902,3.2567902 0 0 0 -0.772025,-0.249263 c -0.283253,-0.01951 -0.06294,0.312209 -0.429287,0.210237 -0.366341,-0.101971 -0.211181,-0.309376 -0.427398,-0.140053 a 3.7178646,3.7178646 0 0 1 -0.7138,0.356585 2.619469,2.619469 0 0 1 -0.438729,0.396241 0.50356246,0.50356246 0 0 1 -0.523075,0.08749 c -0.450059,-0.159252 -0.246431,-0.566508 -0.02833,-1.141513 0.218106,-0.575006 0.459501,-0.47807 0.658723,-0.763842 0.199222,-0.285771 0.515207,-1.403051 0.75975,-1.544677 0.244542,-0.141627 0.646763,-0.324484 0.879031,-0.02612 0.232268,0.298361 0.329834,0.681068 0.450689,0.757862 0.120855,0.07679 0.318188,0.141312 0.236989,0.225029 a 0.21338459,0.21338459 0 0 0 -0.05791,0.184745 c 0,0 0.293325,0.170896 0.547624,0.312838 0.0129,-0.255243 -0.0019,-0.545736 0.02423,-0.810106 0.0088,-0.08749 0.03682,-0.399388 0.08026,-0.600499 -0.006,0.0277 -0.116449,0.0082 -0.116449,0.0082 0.02801,-0.986038 0.625677,-2.144232 0.544477,-3.172443 -0.0085,-0.175618 -0.475237,0.07774 -0.46548,-0.0088 0.220308,-1.166377 0.56399,-2.52694 0.387743,-3.698352 -0.01227,-0.107007 -0.0277,-0.214329 -0.04626,-0.321651 -0.0031,-0.01857 -0.0072,-0.03808 -0.01165,-0.05665 a 2.6238752,2.6238752 0 0 0 -0.440617,-0.87494 c -0.08844,-0.09096 -0.425195,-0.604905 -0.425195,-0.604905 0,0 -1.321852,0.484679 -1.497784,0.517726 -0.08151,0.01479 -0.142571,-0.114246 -0.188836,-0.141313 -0.160196,0.153902 -1.227433,0.470202 -1.818175,0.620956 -0.723871,0.184115 -0.900118,-0.291437 -0.900118,-0.291437 a 6.2164786,6.2164786 0 0 1 0.38019,-1.421305 c 0.225344,-0.41481 0.629453,-0.784928 0.604904,-0.908615 -0.02455,-0.123688 -0.113302,-0.555808 0.04343,-0.717892 a 0.73110975,0.73110975 0 0 1 0.338331,-0.200166 0.90798607,0.90798607 0 0 1 0.122429,-0.231009 0.74967862,0.74967862 0 0 1 0.242654,-0.02675 c 0,0 -0.02895,-0.264685 0.185059,-0.239192 0.137536,0.01637 0.180968,0.07144 0.194187,0.108581 a 1.9034661,1.9034661 0 0 1 0.400961,-0.437156 0.06609257,0.06609257 0 0 1 0.09096,0.01888 c 0.194186,-0.262167 1.506281,-2.461476 1.523277,-2.536066 a 0.19575991,0.19575991 0 0 0 0.0094,-0.07176 0.18883592,0.18883592 0 0 1 -0.02046,-0.101971 4.9150844,4.9150844 0 0 1 0.501045,-1.031045 c 0.447541,-0.771394 1.162914,-1.793941 1.264886,-1.914796 0.101971,-0.120855 0.244857,-0.198278 0.304026,-0.163028 a 0.18285612,0.18285612 0 0 1 0.05948,0.203943 4.8930535,4.8930535 0 0 1 -0.500415,1.096192 c -0.440617,0.775486 -1.224287,1.946584 -1.290379,2.02558 a 0.19953663,0.19953663 0 0 1 -0.177821,0.05036 l -1.485824,2.560301 a 0.19355682,0.19355682 0 0 1 0.01102,0.220308 c -0.04501,0.0897 -0.371063,0.673515 -0.60459,1.076995 a 0.22030858,0.22030858 0 0 1 0.0038,0.176246 0.1422564,0.1422564 0 0 1 -0.157363,0.03871 0.41732739,0.41732739 0 0 1 -0.05759,0.0834 1.2538705,1.2538705 0 0 0 -0.14383,0.18443 c -0.01479,0.02612 -0.432749,0.35092 -0.363195,0.369804 0.02486,0.0066 -0.285142,0.657149 -0.182226,0.611828 0.186003,-0.08151 0.975652,-0.520558 0.998942,-0.626306 0.0035,-0.01353 -0.04186,-0.123687 -0.01637,-0.142571 0.06074,-0.04375 -0.0107,-0.08844 0.31032,-0.132814 0.25367,-0.03493 0.45478,-0.38554 0.925926,-0.71443 0.188836,-0.131241 1.062516,-0.710652 1.347659,-0.705931 0.422363,0.05067 0.403164,-0.286087 0.717891,-0.539127 0,0 0.31693,0.0834 0.463277,0.144145 -0.0919,-0.07176 -0.283254,-0.228492 -0.343366,-0.2244 0.03619,-0.314727 0.132185,-0.619382 -0.09945,-0.917743 -0.01448,-0.02486 -0.02958,-0.05287 -0.04501,-0.08151 A 1.7835553,1.7835553 0 0 1 21.238638,28.003555 0.51772516,0.51772516 0 0 1 20.860966,27.47985 c -0.01416,-0.298675 0.04217,-0.321335 0.08907,-0.292066 a 0.91270697,0.91270697 0 0 1 -0.05382,-0.714114 1.4700877,1.4700877 0 0 1 1.618324,-0.879346 1.4971542,1.4971542 0 0 1 1.01814,1.427914 1.0190845,1.0190845 0 0 0 0.0094,0.192298 c 0.0031,0.02833 0.0066,0.05822 0.0107,0.08938 0.02486,0.435897 0.131241,1.00146 -0.200167,1.398645 -0.09725,0.104489 0.1325,0.335813 0.268777,0.148551 a 0.50010047,0.50010047 0 0 1 0.248634,-0.173729 c 0.284827,0.005 0.483735,0.261538 0.750623,0.177191 0.210866,-0.09159 0.409144,-0.329519 0.675718,-0.364453 0.03682,-0.01102 0.07459,-0.01983 0.112042,-0.02833 a 2.8476457,2.8476457 0 0 1 1.223657,-0.197648 c 0.522761,0.08214 1.363081,-0.198592 1.441133,-0.188836 0.07805,0.0098 0.197648,0.163973 0.197648,0.163973 l 0.0022,0.0057 a 3.7767185,3.7767185 0 0 0 0.831508,-0.170582 2.1558768,2.1558768 0 0 1 1.099025,-0.47209 c 0.86833,-0.177191 2.051073,-0.207719 2.580757,-0.494435 0.09127,-0.04941 0.07994,-0.03147 0.214329,-0.04154 0.276015,-0.02109 -0.01416,-0.15516 0.812939,-0.659038 0.475866,-0.289863 0.66722,-0.503562 0.842838,-0.604275 -0.499472,-0.13722 -0.467999,0.162399 -1.292582,0.660926 -0.05665,0.03462 -0.04595,0.03147 -0.06704,0.03399 -1.242226,-2.31387 -3.902609,-3.50511 -8.07431,-3.50511 H 15.66609 a 1.4250818,1.4250818 0 0 0 -1.486768,1.487083 v 24.637738 a 1.424767,1.424767 0 0 0 1.488657,1.486768 h 9.375388 c 6.484941,0 9.552895,-3.115793 9.552895,-8.479048 0,-3.352467 -1.533662,-5.166865 -4.031647,-6.19193 2.147065,-1.06472 3.549486,-2.643703 3.549486,-5.639899 a 8.1218331,8.1218331 0 0 0 -0.234471,-2.19805 0.61056949,0.61056949 0 0 0 0.118652,-0.02486 2.7821826,2.7821826 0 0 0 0.752196,-0.547309 5.1826019,5.1826019 0 0 1 0.597981,-0.462019 0.09913886,0.09913886 0 0 0 0.01102,-0.154216 0.26657338,0.26657338 0 0 0 -0.161455,-0.02172 m -17.846883,4.424111 c 0.03147,0 0.06294,-0.03431 0.08623,-0.05004 -0.161455,-0.0277 -0.354382,-0.323538 -0.433064,-0.148236 a 0.34084884,0.34084884 0 0 1 -0.0299,0.04689 l 0.02077,0.0098 a 0.36067661,0.36067661 0 0 0 0.355956,0.141942 m 18.033831,-5.101717 c -0.07239,0.117707 -0.621585,0.515522 -0.553919,0.581299 0.01888,0.01825 0.05287,0.01637 0.09442,0.0063 a 4.457472,4.457472 0 0 0 0.466425,-0.445653 0.15736327,0.15736327 0 0 0 0,-0.05822 0.15075401,0.15075401 0 0 0 -0.0076,-0.08403" />


<!-- left name box -->
<rect class="box" x="72" y="20" width="5" height="7" />
<rect class="box" x="77" y="20" width="59" height="21" />
<line class="divider-line" x1="77" x2="136" y1="27" y2="27" />
<line class="divider-line" x1="77" x2="136" y1="34" y2="34" />
<text class="scoresheet_results_team1_side" x="74.5" y="25" text-anchor="middle"></text>
<text class="scoresheet_results_team1_player1" x="78" y="25"></text>
<text class="scoresheet_results_team1_player2" x="78" y="32"></text>
<text class="scoresheet_results_team1_name small-text" x="78" y="38.5"></text>
<ellipse class="scoresheet_results_circle_team1" visibility="hidden" cx="100" cy="30" rx="28" ry="13" />

<!-- score box -->
<text class="small-text" x="148.5" y="19" text-anchor="middle" data-i18n="scoresheet:points"></text>
<rect class="box" x="138" width="21" y="20" height="35" />
<line class="divider-line" x1="138" x2="159" y1="27" y2="27" />
<line class="divider-line" x1="138" x2="159" y1="34" y2="34" />
<line class="divider-line" x1="138" x2="159" y1="41" y2="41" />
<line class="divider-line" x1="138" x2="159" y1="48" y2="48" />
<text x="148.5" y="25" text-anchor="middle">:</text>
<text x="148.5" y="32" text-anchor="middle">:</text>
<text x="148.5" y="39" text-anchor="middle">:</text>
<text x="148.5" y="46" text-anchor="middle">:</text>
<text x="148.5" y="53" text-anchor="middle">:</text>

<text class="scoresheet_results_team1_score1" x="143" y="25" text-anchor="middle"></text>
<text class="scoresheet_results_team1_score2" x="143" y="32" text-anchor="middle"></text>
<text class="scoresheet_results_team1_score3" x="143" y="39" text-anchor="middle"></text>
<text class="scoresheet_results_team1_score4" x="143" y="46" text-anchor="middle"></text>
<text class="scoresheet_results_team1_score5" x="143" y="53" text-anchor="middle"></text>
<text class="scoresheet_results_team2_score1" x="154" y="25" text-anchor="middle"></text>
<text class="scoresheet_results_team2_score2" x="154" y="32" text-anchor="middle"></text>
<text class="scoresheet_results_team2_score3" x="154" y="39" text-anchor="middle"></text>
<text class="scoresheet_results_team2_score4" x="154" y="46" text-anchor="middle"></text>
<text class="scoresheet_results_team2_score5" x="154" y="53" text-anchor="middle"></text>

<!-- right name box -->
<rect class="box shaded" x="220" y="20" width="5" height="7" />
<rect class="box shaded" x="161" y="20" width="59" height="21" />
<line class="divider-line" x1="161" x2="220" y1="27" y2="27" />
<line class="divider-line" x1="161" x2="220" y1="34" y2="34" />
<text class="scoresheet_results_team2_side" x="222.5" y="25" text-anchor="middle"></text>
<text class="scoresheet_results_team2_player1" x="162" y="25"></text>
<text class="scoresheet_results_team2_player2" x="162" y="32"></text>
<text class="scoresheet_results_team2_name small-text" x="162" y="38.5"></text>
<ellipse class="scoresheet_results_circle_team2" visibility="hidden" cx="189" cy="30" rx="28" ry="13" />

<!-- top right information about match -->
<text class="small-text" x="228" y="15" data-i18n="scoresheet:Court"></text>
<line class="dashed-line" x1="252" x2="282" y1="15.5" y2="15.5"/>
<text class="scoresheet_court_id" x="253" y="14"></text>
<text class="small-text" x="228" y="22" data-i18n="scoresheet:Umpire"></text>
<line class="dashed-line" x1="252" x2="282" y1="22.5" y2="22.5"/>
<text class="small-text scoresheet_umpire_name" x="253" y="21"></text>
<text class="small-text" x="228" y="29" data-i18n="scoresheet:Service judge"></text>
<line class="dashed-line" x1="252" x2="282" y1="29.5" y2="29.5"/>
<text class="small-text scoresheet_service_judge_name" x="253" y="28"></text>
<text class="small-text" x="228" y="36" data-i18n="scoresheet:Begin"></text>
<line class="dashed-line" x1="252" x2="282" y1="36.5" y2="36.5"/>
<text class="scoresheet_begin_value" x="253" y="35"></text>
<text class="small-text" x="228" y="43" data-i18n="scoresheet:End"></text>
<line class="dashed-line" x1="252" x2="282" y1="43.5" y2="43.5"/>
<text class="scoresheet_end_value" x="253" y="42"></text>
<text class="small-text" x="228" y="50" data-i18n="scoresheet:Duration"></text>
<line class="dashed-line" x1="252" x2="282" y1="50.5" y2="50.5"/>
<text class="scoresheet_duration_value" x="253" y="49"></text>

<text class="scoresheet_match_label small-text" x="78" y="50" data-i18n="scoresheet:Match"></text>
<text class="scoresheet_match_name" x="88" y="50"></text>
<g class="scoresheet_shuttle_counter">
	<text class="small-text" x="178" y="50" text-anchor="end" data-i18n="scoresheet:Shuttles"></text>
	<text class="scoresheet_shuttle_counter_value" x="179" y="50"></text>
</g>
<text class="scoresheet_date_label small-text" x="188" y="50" data-i18n="scoresheet:Date"></text>
<text class="scoresheet_date_value" x="199" y="50"></text>


<g class="scoresheet_table_container"></g>

<text class="small-text" x="118" y="200" data-i18n="scoresheet:Umpire"></text>
<line class="dashed-line" x1="142" x2="202" y1="200.5" y2="200.5" />
<text class="small-text" x="207" y="200" data-i18n="scoresheet:Referee"></text>
<line class="dashed-line" x1="222" x2="282" y1="200.5" y2="200.5" />

</svg>
