<svg xmlns="http://www.w3.org/2000/svg" xmlns:xlink="http://www.w3.org/1999/xlink" version="1.1" viewBox="0 0 2970 2100">
<style>
text {
	font-family: Helvetica;
	font-size: 40px;
}
text.small-text, text.table_name {font-size: 30px;}
.divider-line {stroke: #000; stroke-width: 2;}
.box {stroke: #000; stroke-width: 5; fill: none;}
.shade,.box.shaded,.table_longtext_background.shaded {fill: #e0e0e0;}
.scoresheet_results_circle_team1,.scoresheet_results_circle_team2 {
	stroke: #000; stroke-width: 6; fill: none;
}
.dashed-line {
	stroke: #000; stroke-width: 4; stroke-dasharray: 4px, 4px;
}
.table {
	stroke: #000; stroke-width: 3.5; fill: none;
}
.table_line {
	stroke: #000; stroke-width: 1;
}
.table_20all_dash {
	stroke: #000; stroke-width: 4;
}
.editmode-sign {
	stroke: #202020; stroke-width: 3; fill: none;
}
.table_thick-line {
	stroke: #000; stroke-width: 3.5;
}
.table_game_result {
	stroke: #000; stroke-width: 4; fill: none;
}
.table_longtext_background {
	fill: #fff;
	opacity: 0.75;
}
</style>

<!-- top left -->
<text class="scoresheet_tournament_name" x="150" y="130"/>
<text class="scoresheet_event_name" font-weight="bold" x="500" y="130"/><!-- x will be set automatically -->

<!-- Bundesliga logo -->
<path style="fill:#565655;stroke-width:3.1472653" d="m 386.33574000000004 318.4196 h 18.21323 c 5.64619 0 8.14827 0.9977 11.015429999999999 4.358969999999999 a 13.120949 13.120949 0 0 1 3.14726 8.49761 12.308955 12.308955 0 0 1 -5.43218 10.28527 13.218515 13.218515 0 0 1 -4.5981499999999995 24.21506 29.288452 29.288452 0 0 1 -3.8554 0.214 h -18.49019 z  m 18.358 19.8561 a 6.722558899999999 6.722558899999999 0 0 0 7.21353 -6.7855 6.8453022 6.8453022 0 0 0 -7.3583 -6.78551 h -11.015429999999999 v 13.57101 z  m 0.069 20.85693 a 7.2387104 7.2387104 0 1 0 0 -14.42707 h -11.22315 v 14.42707 z  m 54.44769 -9.78485 a 16.995233 16.995233 0 1 1 -33.99046 0 V 318.4196 h 7.21668 v 30.928179999999998 a 9.7879954 9.7879954 0 0 0 9.85723 9.85409 9.4795634 9.4795634 0 0 0 9.64322 -9.85409 V 318.4196 h 7.282769999999999 z  m 14.82362 16.64589 h -7.207 V 318.4196 h 6.854749999999999 l 21.57136 33.92438 V 318.4196 h 7.285909999999999 v 47.57092 h -6.716259999999999 l -21.78852 -33.99047 z  m 36.46737 -47.57092 h 17.1463 a 16.705685 16.705685 0 0 1 16.85675 16.85675 v 13.99904 a 17.033 17.033 0 0 1 -17.21554 16.715130000000002 h -16.78751 z  m 17.1463 40.70988 A 9.6148958 9.6148958 0 0 0 537.2153999999999 349.34778 V 335.2795 A 9.611748500000001 9.611748500000001 0 0 0 527.72011 325.13272 H 517.7181 v 33.99047 z  m 30.868380000000002 -0.069 h 23.359 v 6.923979999999999 H 551.29966 V 318.4196 h 30.57568 v 6.65647 h -23.28976 v 13.57101 h 19.85924 v 6.42986 h -19.92848 z  m 33.76701 -4.35896 a 19.645231000000003 19.645231000000003 0 0 0 12.85972 4.49744 c 6.35748 0 9.92963 -2.49893 9.92963 -6.857889999999999 0 -4.56983 -2.71295 -6.49911 -9.92963 -6.854749999999999 a 16.995233 16.995233 0 0 1 -9.44179 -2.42654 13.533241 13.533241 0 0 1 -6.29453 -11.430869999999999 c 0 -8.06959 6.36062 -13.640239999999999 15.50343 -13.640239999999999 a 27.897360999999997 27.897360999999997 0 0 1 15.28626 4.50058 l -3.8554 6.0679300000000005 A 21.284956 21.284956 0 0 0 604.6235399999999 325.2022 c -4.92548 0 -8.000350000000001 2.42969 -8.000350000000001 6.29453 0 4.43135 2.7853299999999996 6.42986 9.21519 6.78551 7.86816 0.428 12.21768 2.6405499999999997 14.85824 7.56917 a 13.643396000000001 13.643396000000001 0 0 1 1.63972 6.42671 c 0 8.49762 -6.857889999999999 14.074580000000001 -16.99523 14.074580000000001 A 26.915414000000002 26.915414000000002 0 0 1 587.71667 360.35062000000005 Z  M 444.74269 473.98578 h -58.337709999999994 v -88.59237 h 16.61127 v 72.49726 h 41.723299999999995 z  m 28.2058 0 h -16.63015 v -88.59237 h 16.63015 z  m 42.24259 0.7648 c -18.51851 0 -31.96363 -14.08716 -31.96363 -33.4932 v -25.17812 a 32.350741 32.350741 0 0 1 64.15701 -4.9538 l 0.4532 2.32898 H 531.2673 l -0.4784 -1.25891 a 15.4216 15.4216 0 0 0 -15.0817 -10.81715 15.254795000000001 15.254795000000001 0 0 0 -15.73632 14.707170000000001 v 24.41649 c 0 8.71478 0.08800000000000001 8.812339999999999 4.72089 13.218510000000002 a 15.106874 15.106874 0 0 0 10.480400000000001 4.2960199999999995 15.575816 15.575816 0 0 0 15.34921 -14.05883 l 0.057 -0.3556 c 0.069 -0.3147 0.069 -1.67119 0.069 -3.0937599999999996 V 439.28409999999997 h -17.16204 v -15.988109999999999 h 33.92438 v 18.883589999999998 a 32.073782 32.073782 0 0 1 -32.228 32.60252 M 625.0212 474.01725999999996 H 607.34616 L 600.8565 455.05813 h -29.7574 l -6.3543199999999995 18.94969 h -17.93942 l 32.58679 -88.60811 h 13.2909 z  m -48.782610000000005 -34.3052 h 19.368270000000003 L 585.96993 410.81073000000004 Z  M 386.37036 261.36598 h 14.294880000000001 a 9.39144 9.39144 0 0 1 8.64554 3.41793 10.33562 10.33562 0 0 1 2.4643100000000002 6.6722 9.6872829 9.6872829 0 0 1 -4.25825 8.07273 10.385976 10.385976 0 0 1 -3.58788 19.00319 23.173315 23.173315 0 0 1 -3.02767 0.1668 h -14.53093 z  m 14.40818 15.58211 a 5.2779641 5.2779641 0 0 0 5.66508 -5.32203 5.372382 5.372382 0 0 0 -5.7752300000000005 -5.32832 h -8.632950000000001 v 10.65035 z  m 0.057 16.36578 a 5.6839613 5.6839613 0 1 0 0 -11.33016 H 392.0232 v 11.33016 z  m 26.90283 5.66507 c -5.715440000000001 0 -9.69673 -3.3077699999999997 -9.69673 -8.23954 a 8.2049209 8.2049209 0 0 1 2.18421 -5.38497 7.3551592 7.3551592 0 0 1 6.7855 -2.57761 h 7.05932 v -2.02054 c 0 -2.9710199999999998 -1.12043 -3.8113399999999995 -5.15837 -3.8113399999999995 -3.2479799999999996 0 -4.2614 0.39030000000000004 -5.0985700000000005 1.85059 l -4.2016 -3.36442 c 1.62084 -2.57447 4.4817 -3.75469 9.08301 -3.75469 a 11.015429000000001 11.015429000000001 0 0 1 7.959429999999999 2.24085 8.3150752 8.3150752 0 0 1 2.80107 6.228439999999999 v 18.549979999999998 h -5.38183 v -2.57446 a 6.4707777 6.4707777 0 0 1 -6.33229 2.86086 m -0.6295000000000001 -11.82742 c -2.74756 0 -3.97814 1.01027 -3.97814 3.2511200000000002 0 2.40766 1.6837900000000001 3.58474 5.15837 3.58474 4.72089 0 5.772080000000001 -0.7837 5.772080000000001 -4.53836 v -2.30065 z  m 39.803470000000004 11.547320000000001 h -5.32832 v -2.91437 a 8.8721412 8.8721412 0 0 1 -7.00582 3.19447 9.0546826 9.0546826 0 0 1 -8.9162 -7.45587 21.49897 21.49897 0 0 1 -0.057 -2.2439999999999998 v -9.526769999999999 a 8.2961916 8.2961916 0 0 1 2.41395 -5.16152 9.155394999999999 9.155394999999999 0 0 1 6.66591 -2.91437 8.752545099999999 8.752545099999999 0 0 1 6.898809999999999 3.36443 v -13.67801 h 5.32832 z  m -5.32832 -16.03217 a 5.218166 5.218166 0 0 0 -5.27167 -5.6052800000000005 5.2716695 5.2716695 0 0 0 -5.3755299999999995 5.6052800000000005 v 5.38497 a 5.243344199999999 5.243344199999999 0 0 0 5.32517 5.66507 5.1803988 5.1803988 0 0 0 5.32203 -5.66507 z  m 24.50461 -10.98711 a 8.7619869 8.7619869 0 0 1 7.172610000000001 3.64454 10.039777 10.039777 0 0 1 17.76632 6.89565 v 16.47909 h -5.25594 v -15.79928 a 5.3503511999999995 5.3503511999999995 0 0 0 -5.32517 -5.942030000000001 5.4762418 5.4762418 0 0 0 -5.43847 5.942030000000001 v 15.808720000000001 h -5.2653799999999995 v -15.808720000000001 a 5.3755293 5.3755293 0 0 0 -5.38497 -5.942030000000001 5.3062895 5.3062895 0 0 0 -5.32832 5.942030000000001 v 15.808720000000001 h -5.32203 v -26.69511 h 5.32203 v 2.9710199999999998 a 9.1491005 9.1491005 0 0 1 7.068759999999999 -3.30778 m 37.0559 -5.101710000000001 h -5.265370000000001 v -5.211869999999999 h 5.271660000000001 z  m 0 32.12099 h -5.265370000000001 v -26.682519999999997 h 5.271660000000001 z  m 19.04096 -27.019280000000002 a 8.8689939 8.8689939 0 0 1 8.91305 9.07987 v 17.93941 h -5.27167 v -16.47908 a 5.3503511999999995 5.3503511999999995 0 0 0 -10.700700000000001 0 v 16.47908 h -5.32517 v -26.682519999999997 h 5.32517 v 2.9710199999999998 a 9.0420935 9.0420935 0 0 1 7.0656099999999995 -3.30778 m 21.184240000000003 20.07012 c 0 1.57363 0.5067 1.96074 2.30065 1.96074 h 1.7372999999999998 v 4.98842 H 565.0724 c -4.87511 0 -6.94916 -2.0709 -6.94916 -6.89251 v -15.47196 h -2.63426 v -4.3180499999999995 h 2.63426 v -8.01608 h 5.265370000000001 v 8.01608 h 4.03795 v 4.3180499999999995 H 563.3883000000001 Z  m 7.8902 -9.303320000000001 a 11.015429999999999 11.015429999999999 0 0 1 22.030859999999997 0 v 5.6052800000000005 a 11.015462 11.015462 0 0 1 -22.030859999999997 0.053 z  m 16.70568 0 a 5.6273105 5.6273105 0 0 0 -5.6052800000000005 -5.43847 5.693403099999999 5.693403099999999 0 0 0 -5.721730000000001 5.43847 v 5.6052800000000005 a 5.6839613 5.6839613 0 0 0 5.66508 5.66508 5.7437594 5.7437594 0 0 0 5.66508 -5.6052800000000005 z  m 22.751579999999997 -10.7668 a 8.865846600000001 8.865846600000001 0 0 1 8.91306 9.07987 v 17.93941 H 614.3803 v -16.47908 a 5.3503511999999995 5.3503511999999995 0 0 0 -10.700700000000001 0 v 16.47908 h -5.32832 v -26.682519999999997 h 5.32832 v 2.9710199999999998 a 9.0420935 9.0420935 0 0 1 7.05616 -3.30778 M 631.4730999999999 505.9683 a 19.925337 19.925337 0 0 0 19.86554 -19.86554 V 249.85643 a 19.92219 19.92219 0 0 0 -19.86554 -19.8624 c 0 0 -252.00154 -0.022000000000000002 -252.00154 0 a 5.9200061999999996 5.9200061999999996 0 0 0 6.6407300000000005 6.2378800000000005 H 631.4730999999999 a 13.640248 13.640248 0 0 1 13.627659999999999 13.621369999999999 V 486.09961 A 13.640248 13.640248 0 0 1 631.4730999999999 499.72096999999997 H 339.87581 a 5.9231535 5.9231535 0 0 0 -6.6407300000000005 6.24418 H 631.4668"/>
<path style="fill:#0093bd;stroke-width:3.1472653" d="m 344.2631 222.88121 c -6.20012 3.54383 -9.89186 0.7018000000000001 -10.832889999999999 -2.5335400000000003 -0.8781 -3.0497 0 -6.4519 5.49198 -8.74311 a 30.553653 30.553653 0 0 0 5.350350000000001 11.27665 M 372.856 217.40497000000002 a 9.9862731 9.9862731 0 0 0 2.96473 -2.23141 4.5792712 4.5792712 0 0 0 -2.51781 -1.32185 29.17515 29.17515 0 0 0 1.63028 -3.65083 11.619703999999999 11.619703999999999 0 0 0 -3.0654399999999997 -2.16846 31.62687 31.62687 0 0 0 0.7396 -4.189010000000001 13.218515 13.218515 0 0 0 -3.64139 -2.45487 c -0.1102 -0.7711 0.1133 -3.1126500000000004 -0.076 -4.14495 -0.8812 -0.34299999999999997 -2.40766 -0.9442 -3.0434099999999997 -1.23058 a 7.9405506 7.9405506 0 0 0 -0.3147 -2.81051 l -2.25344 -0.4123 a 2.2030858 2.2030858 0 0 0 -0.1794 -1.47292 c -4.8688199999999995 0.6294 -10.3608 6.88307 -11.959610000000001 10.54963 -2.07719 1.82856 -8.78402 7.91223 -10.17825 9.04524 a 37.320273 37.320273 0 0 0 4.95379 11.015429999999999 c 0.9127000000000001 -0.20140000000000002 13.46715 -1.88836 13.80706 -1.9513 6.867330000000001 1.2117 14.34208 0.022000000000000002 15.75521 -2.29436 -0.3147 -0.36819999999999997 -1.19282 -0.3336 -2.64685 -0.2801 M 258.71098 373.03094999999996 a 19.931632 19.931632 0 0 0 1.68694 -4.20474 c -0.4091 0.1762 -0.8434999999999999 0.34299999999999997 -1.3250000000000002 0.5067 -0.5476000000000001 0.18880000000000002 -1.25891 0.4815 -2.1118200000000003 0.8686 -0.8529 0.3871 -3.49031 1.2022599999999999 -4.4061699999999995 1.67435 0.236 2.80421 4.7209 2.24085 6.14661 1.15504 M 351.97389999999996 268.85647 a 73.82225700000001 73.82225700000001 0 0 0 -6.8673399999999996 4.47856 20.007166 20.007166 0 0 1 -7.51566 5.32832 c -2.4485799999999998 0.7144 -3.54383 -0.022000000000000002 -5.19299 0.5822 -1.64917 0.6043 -4.3180499999999995 1.4918 -8.214369999999999 2.83254 -3.89631 1.34073 -11.83686 5.21502 -15.71429 6.35748 a 16.818986 16.818986 0 0 1 -5.41015 0.7585 15.45622 15.45622 0 0 1 -7.581759999999999 2.51781 66.16810799999999 66.16810799999999 0 0 0 -9.16169 1.3186999999999998 c 0.1133 0.5665 0.129 0.9442 0 0.9725 a 103.80625 103.80625 0 0 1 -14.12808 4.4061699999999995 c -3.38016 0.5759000000000001 -1.79394 1.6711999999999998 -4.42505 2.48004 -3.55327 1.09211 -11.61341 2.65315 -12.903789999999999 5.3094399999999995 a 10.880095999999998 10.880095999999998 0 0 0 1.66176 8.95082 c 1.20225 1.5484600000000002 2.9898999999999996 17.69393 4.4879999999999995 20.07956 1.49809 2.38562 4.87826 17.85758 8.40005 21.495820000000002 3.52179 3.6382399999999997 -1.0386 3.8900200000000003 -2.62797 5.7091400000000005 -1.3092599999999999 1.4981 -1.83485 3.61621 -3.49661 4.84679 l 1.25891 0.9694 c 0 0 -0.6608999999999999 8.78401 2.1842 11.25147 2.84513 2.46746 -2.34157 8.226949999999999 -1.93872 10.75735 a 45.320622 45.320622 0 0 1 -3.48402 15.17612 c -1.23373 1.62713 0.098 2.14328 -0.6074 5.2464900000000005 -0.705 3.1031999999999997 -1.54216 9.44179 -2.14014 11.509549999999999 -0.1794 0.6294 -5.43218 -0.1165 -9.81947 1.64602 a 34.909468000000004 34.909468000000004 0 0 1 6.275650000000001 0.1416 c 0 0 -3.1189400000000003 12.784199999999998 -6.637589999999999 17.67819 a 56.084269000000006 56.084269000000006 0 0 0 -4.92547 8.09477 c -1.07636 1.8191199999999998 -0.9851 8.56686 -7.55343 8.135679999999999 a 21.634302 21.634302 0 0 1 -12.013119999999999 -5.929450000000001 26.361495 26.361495 0 0 0 4.17642 -10.60313 54.501194999999996 54.501194999999996 0 0 1 2.51782 -11.98479 75.849096 75.849096 0 0 0 2.30694 -7.58806 c -0.2077 -0.18880000000000002 -0.8340000000000001 0 -0.9064 -0.1825 a 16.309129 16.309129 0 0 1 0.044000000000000004 -5.23705 c 0 0 -0.36819999999999997 -0.3147 -1.00083 -0.7553 a 1.387944 1.387944 0 0 1 -0.08800000000000001 1.54845 c -0.9662 1.12672 -0.5445 4.4061699999999995 -0.5445 4.4061699999999995 0 0 -0.3147 -0.031 -0.34299999999999997 0.066 a 36.907981 36.907981 0 0 0 -3.59103 14.26655 29.401753 29.401753 0 0 1 -5.778379999999999 17.10224 c -1.76247 2.12441 -2.31953 1.9041 -3.21965 3.8176300000000003 a 5.665077699999999 5.665077699999999 0 0 1 -6.653320000000001 3.55327 101.34195 101.34195 0 0 0 -12.62683 1.12672 c -2.28177 0.6608999999999999 -8.57315 1.0669199999999999 -10.14049 1.42571 a 24.945225999999998 24.945225999999998 0 0 0 -6.73829 4.93491 c -2.12441 1.92298 -1.15505 0.7963 -0.7679 2.70665 0.3871 1.9103899999999998 -1.1361599999999998 2.58076 -1.5453000000000001 4.16068 a 26.578656000000002 26.578656000000002 0 0 0 -2.73183 12.47891 18.254139000000002 18.254139000000002 0 0 1 -4.06942 12.3184 7.5817623 7.5817623 0 0 1 -7.83354 -1.8191199999999998 13.847968 13.847968 0 0 1 -3.72321 -15.07855 c 1.18652 -2.7853299999999996 2.54613 -19.60746 3.93093 -24.12379 1.3847999999999998 -4.5163199999999994 3.14727 -4.894 6.867330000000001 -4.73978 3.7200699999999998 0.1542 4.2677 2.8545700000000003 7.89964 1.23688 3.63194 -1.6177 9.680990000000001 -7.55344 16.13288 -11.16336 6.4519 -3.60991 7.85243 0.3147 9.224639999999999 -1.88835 0.14479999999999998 -0.24230000000000002 0.3147 -0.5067 0.5067 -0.7805 a 32.567902000000004 32.567902000000004 0 0 0 -7.72025 -2.49263 c -2.8325299999999998 -0.1951 -0.6294 3.12209 -4.29287 2.10237 -3.6634100000000003 -1.0197100000000001 -2.11181 -3.0937599999999996 -4.27398 -1.40053 a 37.178646 37.178646 0 0 1 -7.138 3.5658499999999997 26.19469 26.19469 0 0 1 -4.38729 3.96241 5.0356246 5.0356246 0 0 1 -5.23075 0.8749 c -4.50059 -1.59252 -2.4643100000000002 -5.66508 -0.2833 -11.41513 2.18106 -5.75006 4.59501 -4.7806999999999995 6.58723 -7.63842 1.99222 -2.85771 5.15207 -14.03051 7.5975 -15.44677 2.44542 -1.41627 6.46763 -3.24484 8.79031 -0.2612 2.32268 2.9836099999999997 3.29834 6.81068 4.50689 7.578620000000001 1.20855 0.7679 3.1818800000000005 1.41312 2.36989 2.25029 a 2.1338459000000003 2.1338459000000003 0 0 0 -0.5791000000000001 1.8474499999999998 c 0 0 2.93325 1.7089599999999998 5.47624 3.12838 0.129 -2.55243 -0.019 -5.4573599999999995 0.24230000000000002 -8.10106 0.08800000000000001 -0.8749 0.36819999999999997 -3.9938800000000003 0.8026 -6.00499 -0.06 0.27699999999999997 -1.16449 0.082 -1.16449 0.082 0.2801 -9.86038 6.25677 -21.442320000000002 5.44477 -31.724429999999998 -0.085 -1.75618 -4.75237 0.7774000000000001 -4.6548 -0.08800000000000001 2.20308 -11.66377 5.6399 -25.2694 3.87743 -36.98352 -0.1227 -1.07007 -0.27699999999999997 -2.14329 -0.4626 -3.2165100000000004 -0.031 -0.1857 -0.072 -0.3808 -0.1165 -0.5665 a 26.238752 26.238752 0 0 0 -4.4061699999999995 -8.749400000000001 c -0.8844000000000001 -0.9096 -4.25195 -6.04905 -4.25195 -6.04905 0 0 -13.21852 4.84679 -14.97784 5.17726 -0.8150999999999999 0.1479 -1.42571 -1.14246 -1.88836 -1.41313 -1.60196 1.53902 -12.274329999999999 4.70202 -18.18175 6.20956 -7.23871 1.84115 -9.00118 -2.91437 -9.00118 -2.91437 a 62.16478600000001 62.16478600000001 0 0 1 3.8019 -14.21305 c 2.25344 -4.1481 6.29453 -7.849279999999999 6.04904 -9.08615 -0.2455 -1.23688 -1.13302 -5.5580799999999995 0.4343 -7.17892 a 7.3110975 7.3110975 0 0 1 3.38331 -2.00166 9.0798607 9.0798607 0 0 1 1.2242899999999999 -2.3100899999999998 7.4967862 7.4967862 0 0 1 2.42654 -0.2675 c 0 0 -0.2895 -2.64685 1.85059 -2.39192 1.37536 0.16369999999999998 1.80968 0.7144 1.94187 1.08581 a 19.034661 19.034661 0 0 1 4.00961 -4.37156 0.6609257000000001 0.6609257000000001 0 0 1 0.9096 0.18880000000000002 c 1.94186 -2.62167 15.062809999999999 -24.614760000000004 15.23277 -25.36066 a 1.9575991000000001 1.9575991000000001 0 0 0 0.094 -0.7176 1.8883592 1.8883592 0 0 1 -0.2046 -1.0197100000000001 49.15084399999999 49.15084399999999 0 0 1 5.01045 -10.31045 c 4.47541 -7.71394 11.62914 -17.93941 12.648859999999999 -19.147959999999998 1.0197100000000001 -1.20855 2.44857 -1.98278 3.04026 -1.63028 a 1.8285612000000002 1.8285612000000002 0 0 1 0.5948 2.0394300000000003 48.930535 48.930535 0 0 1 -5.004150000000001 10.961920000000001 c -4.4061699999999995 7.75486 -12.24287 19.46584 -12.903789999999999 20.2558 a 1.9953663 1.9953663 0 0 1 -1.77821 0.5036 l -14.85824 25.603009999999998 a 1.9355681999999998 1.9355681999999998 0 0 1 0.1102 2.20308 c -0.4501 0.897 -3.7106299999999997 6.73515 -6.0459 10.76995 a 2.2030858 2.2030858 0 0 1 0.038 1.7624600000000001 1.422564 1.422564 0 0 1 -1.57363 0.3871 4.1732739 4.1732739 0 0 1 -0.5759000000000001 0.8340000000000001 12.538705 12.538705 0 0 0 -1.4383000000000001 1.8443 c -0.1479 0.2612 -4.32749 3.5092 -3.63195 3.69804 0.2486 0.066 -2.85142 6.57149 -1.82226 6.11828 1.86003 -0.8150999999999999 9.75652 -5.205579999999999 9.989419999999999 -6.26306 0.035 -0.1353 -0.4186 -1.2368700000000001 -0.16369999999999998 -1.42571 0.6074 -0.4375 -0.107 -0.8844000000000001 3.1031999999999997 -1.3281399999999999 2.5367 -0.34930000000000005 4.5478000000000005 -3.8554 9.259260000000001 -7.1443 1.88836 -1.3124099999999999 10.625160000000001 -7.10652 13.47659 -7.05931 4.22363 0.5067 4.03164 -2.86087 7.178909999999999 -5.3912700000000005 0 0 3.1693 0.8340000000000001 4.63277 1.44145 -0.9189999999999999 -0.7176 -2.83254 -2.28492 -3.43366 -2.2439999999999998 0.3619 -3.14727 1.32185 -6.19382 -0.9944999999999999 -9.17743 -0.14479999999999998 -0.2486 -0.2958 -0.5287 -0.4501 -0.8150999999999999 A 17.835553 17.835553 0 0 1 212.38638000000003 280.03555 5.1772516 5.1772516 0 0 1 208.60966000000002 274.7985 c -0.1416 -2.9867500000000002 0.42169999999999996 -3.2133499999999997 0.8906999999999999 -2.92066 a 9.1270697 9.1270697 0 0 1 -0.5382 -7.14114 14.700877000000002 14.700877000000002 0 0 1 16.18324 -8.79346 14.971542 14.971542 0 0 1 10.1814 14.279139999999998 10.190845 10.190845 0 0 0 0.094 1.92298 c 0.031 0.2833 0.066 0.5822 0.107 0.8938 0.2486 4.358969999999999 1.3124099999999999 10.0146 -2.0016700000000003 13.98645 -0.9725 1.04489 1.3250000000000002 3.3581299999999996 2.68777 1.4855099999999999 a 5.0010047 5.0010047 0 0 1 2.4863399999999998 -1.73729 c 2.84827 0.05 4.837350000000001 2.61538 7.50623 1.7719099999999999 2.10866 -0.9159 4.09144 -3.29519 6.75718 -3.6445300000000005 0.36819999999999997 -0.1102 0.7459 -0.1983 1.12042 -0.2833 a 28.476457000000003 28.476457000000003 0 0 1 12.23657 -1.97648 c 5.22761 0.8214 13.63081 -1.98592 14.41133 -1.88836 0.7805 0.098 1.97648 1.6397300000000001 1.97648 1.6397300000000001 l 0.022000000000000002 0.057 a 37.767185 37.767185 0 0 0 8.31508 -1.7058200000000001 21.558768 21.558768 0 0 1 10.99025 -4.7209 c 8.683300000000001 -1.7719099999999999 20.510730000000002 -2.07719 25.807570000000002 -4.94435 0.9127000000000001 -0.49410000000000004 0.7994 -0.3147 2.14329 -0.4154 2.7601500000000003 -0.2109 -0.1416 -1.5515999999999999 8.129389999999999 -6.59038 4.75866 -2.89863 6.6722 -5.03562 8.42838 -6.04275 -4.99472 -1.3722 -4.67999 1.6239899999999998 -12.925819999999998 6.60926 -0.5665 0.34619999999999995 -0.45949999999999996 0.3147 -0.6704 0.3399 -12.422260000000001 -23.1387 -39.026089999999996 -35.051100000000005 -80.7431 -35.051100000000005 H 156.6609 a 14.250818 14.250818 0 0 0 -14.86768 14.87083 v 246.37738 a 14.24767 14.24767 0 0 0 14.886569999999999 14.86768 h 93.75388 c 64.84941 0 95.52895 -31.15793 95.52895 -84.79048 0 -33.52467 -15.33662 -51.66865 -40.31647 -61.9193 21.47065 -10.647200000000002 35.49486 -26.43703 35.49486 -56.39899 a 81.218331 81.218331 0 0 0 -2.34471 -21.9805 6.1056949000000005 6.1056949000000005 0 0 0 1.18652 -0.2486 27.821826 27.821826 0 0 0 7.52196 -5.473090000000001 51.826019 51.826019 0 0 1 5.97981 -4.62019 0.9913886 0.9913886 0 0 0 0.1102 -1.54216 2.6657338000000004 2.6657338000000004 0 0 0 -1.61455 -0.2172 m -178.46882999999997 44.24111 c 0.3147 0 0.6294 -0.3431 0.8623000000000001 -0.5004 -1.61455 -0.27699999999999997 -3.5438199999999997 -3.23538 -4.33064 -1.4823600000000001 a 3.4084884 3.4084884 0 0 1 -0.299 0.4689 l 0.2077 0.098 a 3.6067661 3.6067661 0 0 0 3.55956 1.4194200000000001 m 180.33830999999998 -51.01717 c -0.7239 1.17707 -6.2158500000000005 5.15522 -5.5391900000000005 5.81299 0.18880000000000002 0.1825 0.5287 0.16369999999999998 0.9442 0.063 a 44.57472 44.57472 0 0 0 4.66425 -4.45653 1.5736327 1.5736327 0 0 0 0 -0.5822 1.5075401 1.5075401 0 0 0 -0.076 -0.8402999999999999"/>


<!-- left name box -->
<rect class="box" x="720" y="200" width="50" height="70"/>
<rect class="box" x="770" y="200" width="590" height="210"/>
<line class="divider-line" x1="770" x2="1360" y1="270" y2="270"/>
<line class="divider-line" x1="770" x2="1360" y1="340" y2="340"/>
<text class="scoresheet_results_team1_side" x="745" y="250" text-anchor="middle"/>
<text class="scoresheet_results_team1_player1" x="780" y="250"/>
<text class="scoresheet_results_team1_player2" x="780" y="320"/>
<text class="scoresheet_results_team1_name small-text" x="780" y="385"/>
<ellipse class="scoresheet_results_circle_team1" visibility="hidden" cx="1000" cy="300" rx="280" ry="130"/>

<!-- score box -->
<text class="small-text" x="1485" y="190" text-anchor="middle" data-i18n="scoresheet:points"/>
<rect class="box" x="1380" width="210" y="200" height="350"/>
<line class="divider-line" x1="1380" x2="1590" y1="270" y2="270"/>
<line class="divider-line" x1="1380" x2="1590" y1="340" y2="340"/>
<line class="divider-line" x1="1380" x2="1590" y1="410" y2="410"/>
<line class="divider-line" x1="1380" x2="1590" y1="480" y2="480"/>
<text x="1485" y="250" text-anchor="middle">:</text>
<text x="1485" y="320" text-anchor="middle">:</text>
<text x="1485" y="390" text-anchor="middle">:</text>
<text x="1485" y="460" text-anchor="middle">:</text>
<text x="1485" y="530" text-anchor="middle">:</text>

<text class="scoresheet_results_team1_score1" x="1430" y="250" text-anchor="middle"/>
<text class="scoresheet_results_team1_score2" x="1430" y="320" text-anchor="middle"/>
<text class="scoresheet_results_team1_score3" x="1430" y="390" text-anchor="middle"/>
<text class="scoresheet_results_team1_score4" x="1430" y="460" text-anchor="middle"/>
<text class="scoresheet_results_team1_score5" x="1430" y="530" text-anchor="middle"/>
<text class="scoresheet_results_team2_score1" x="1540" y="250" text-anchor="middle"/>
<text class="scoresheet_results_team2_score2" x="1540" y="320" text-anchor="middle"/>
<text class="scoresheet_results_team2_score3" x="1540" y="390" text-anchor="middle"/>
<text class="scoresheet_results_team2_score4" x="1540" y="460" text-anchor="middle"/>
<text class="scoresheet_results_team2_score5" x="1540" y="530" text-anchor="middle"/>

<!-- right name box -->
<rect class="box shaded" x="2200" y="200" width="50" height="70"/>
<rect class="box shaded" x="1610" y="200" width="590" height="210"/>
<line class="divider-line" x1="1610" x2="2200" y1="270" y2="270"/>
<line class="divider-line" x1="1610" x2="2200" y1="340" y2="340"/>
<text class="scoresheet_results_team2_side" x="2225" y="250" text-anchor="middle"/>
<text class="scoresheet_results_team2_player1" x="1620" y="250"/>
<text class="scoresheet_results_team2_player2" x="1620" y="320"/>
<text class="scoresheet_results_team2_name small-text" x="1620" y="385"/>
<ellipse class="scoresheet_results_circle_team2" visibility="hidden" cx="1890" cy="300" rx="280" ry="130"/>

<!-- top right information about match -->
<text class="small-text" x="2280" y="150" data-i18n="scoresheet:Court"/>
<line class="dashed-line" x1="2520" x2="2820" y1="155" y2="155"/>
<text class="scoresheet_court_id" x="2530" y="140"/>
<text class="small-text" x="2280" y="220" data-i18n="scoresheet:Umpire"/>
<line class="dashed-line" x1="2520" x2="2820" y1="225" y2="225"/>
<text class="small-text scoresheet_umpire_name" x="2530" y="210"/>
<text class="small-text" x="2280" y="290" data-i18n="scoresheet:Service judge"/>
<line class="dashed-line" x1="2520" x2="2820" y1="295" y2="295"/>
<text class="small-text scoresheet_service_judge_name" x="2530" y="280"/>
<text class="small-text" x="2280" y="360" data-i18n="scoresheet:Begin"/>
<line class="dashed-line" x1="2520" x2="2820" y1="365" y2="365"/>
<text class="scoresheet_begin_value" x="2530" y="350"/>
<text class="small-text" x="2280" y="430" data-i18n="scoresheet:End"/>
<line class="dashed-line" x1="2520" x2="2820" y1="435" y2="435"/>
<text class="scoresheet_end_value" x="2530" y="420"/>
<text class="small-text" x="2280" y="500" data-i18n="scoresheet:Duration"/>
<line class="dashed-line" x1="2520" x2="2820" y1="505" y2="505"/>
<text class="scoresheet_duration_value" x="2530" y="490"/>

<text class="scoresheet_match_label small-text" x="780" y="500" data-i18n="scoresheet:Match"/>
<text class="scoresheet_match_name" x="880" y="500"/>
<g class="scoresheet_shuttle_counter">
	<text class="small-text" x="1780" y="500" text-anchor="end" data-i18n="scoresheet:Shuttles"/>
	<text class="scoresheet_shuttle_counter_value" x="1790" y="500"/>
</g>
<text class="scoresheet_date_label small-text" x="1880" y="500" data-i18n="scoresheet:Date"/>
<text class="scoresheet_date_value" x="1990" y="500"/>
<text class="scoresheet_scheduled_time_value" x="290" y="520"/>


<g class="scoresheet_table_container"/>

<text class="small-text" x="1180" y="2000" data-i18n="scoresheet:Umpire"/>
<line class="dashed-line" x1="1420" x2="2020" y1="2005" y2="2005"/>
<text class="small-text" x="2070" y="2000" data-i18n="scoresheet:Referee"/>
<line class="dashed-line" x1="2220" x2="2820" y1="2005" y2="2005"/>

</svg>