<svg xmlns="http://www.w3.org/2000/svg" version="1.1" viewBox="0 0 2970 2100">
<style>
	text {
		font-family: Helvetica;
		font-size: 40px;
	}
	text.small-text, text.table_name {font-size: 30px;}
	.divider-line {stroke: #000; stroke-width: 2;}
	.box {stroke: #000; stroke-width: 5; fill: none;}
	.shade,.box.shaded,.table_longtext_background.shaded {fill: #e0e0e0;}
	.scoresheet_results_circle_team1,.scoresheet_results_circle_team2 {
		stroke: #000; stroke-width: 6; fill: none;
	}
	.dashed-line {
		stroke: #000; stroke-width: 4; stroke-dasharray: 4, 4;
	}
	.table {
		stroke: #000; stroke-width: 3.5; fill: none;
	}
	.table_line {
		stroke: #000; stroke-width: 1;
	}
	.table_20all_dash {
		stroke: #000; stroke-width: 4;
	}
	.editmode-sign {
		stroke: #202020; stroke-width: 3; fill: none;
	}
	.table_thick-line {
		stroke: #000; stroke-width: 3.5;
	}
	.table_game_result {
		stroke: #000; stroke-width: 4; fill: none;
	}
	.table_longtext_background {
		fill: #fff;
		opacity: 0.75;
	}
</style>

<!-- top left -->
<text class="scoresheet_tournament_name" x="150" y="130"/>
<text class="scoresheet_event_name" font-weight="bold" x="500" y="130"/><!-- x will be set automatically -->
<text class="scoresheet_match_label small-text" x="150" y="315" data-i18n="scoresheet:Match"/>
<text class="scoresheet_match_name" x="290" y="320"/>
<text class="scoresheet_date_label small-text" x="150" y="385" data-i18n="scoresheet:Date"/>
<text class="scoresheet_date_value" x="290" y="390"/>
<text class="scoresheet_scheduled_time_value" x="290" y="450"/>

<!-- left name box -->
<rect class="box" x="720" y="200" width="50" height="70"/>
<rect class="box" x="770" y="200" width="590" height="210"/>
<line class="divider-line" x1="770" x2="1360" y1="270" y2="270"/>
<line class="divider-line" x1="770" x2="1360" y1="340" y2="340"/>
<text class="scoresheet_results_team1_side" x="745" y="250" text-anchor="middle"/>
<text class="scoresheet_results_team1_player1" x="780" y="250"/>
<text class="scoresheet_results_team1_player2" x="780" y="320"/>
<text class="scoresheet_results_team1_name small-text" x="780" y="385"/>
<ellipse class="scoresheet_results_circle_team1" visibility="hidden" cx="1000" cy="300" rx="280" ry="130"/>

<!-- score box -->
<text class="small-text" x="1485" y="190" text-anchor="middle" data-i18n="scoresheet:points"/>
<rect class="box" x="1380" width="210" y="200" height="350"/>
<line class="divider-line" x1="1380" x2="1590" y1="270" y2="270"/>
<line class="divider-line" x1="1380" x2="1590" y1="340" y2="340"/>
<line class="divider-line" x1="1380" x2="1590" y1="410" y2="410"/>
<line class="divider-line" x1="1380" x2="1590" y1="480" y2="480"/>
<text x="1485" y="250" text-anchor="middle">:</text>
<text x="1485" y="320" text-anchor="middle">:</text>
<text x="1485" y="390" text-anchor="middle">:</text>
<text x="1485" y="460" text-anchor="middle">:</text>
<text x="1485" y="530" text-anchor="middle">:</text>

<text class="scoresheet_results_team1_score1" x="1430" y="250" text-anchor="middle"/>
<text class="scoresheet_results_team1_score2" x="1430" y="320" text-anchor="middle"/>
<text class="scoresheet_results_team1_score3" x="1430" y="390" text-anchor="middle"/>
<text class="scoresheet_results_team1_score4" x="1430" y="460" text-anchor="middle"/>
<text class="scoresheet_results_team1_score5" x="1430" y="530" text-anchor="middle"/>
<text class="scoresheet_results_team2_score1" x="1540" y="250" text-anchor="middle"/>
<text class="scoresheet_results_team2_score2" x="1540" y="320" text-anchor="middle"/>
<text class="scoresheet_results_team2_score3" x="1540" y="390" text-anchor="middle"/>
<text class="scoresheet_results_team2_score4" x="1540" y="460" text-anchor="middle"/>
<text class="scoresheet_results_team2_score5" x="1540" y="530" text-anchor="middle"/>

<!-- right name box -->
<rect class="box shaded" x="2200" y="200" width="50" height="70"/>
<rect class="box shaded" x="1610" y="200" width="590" height="210"/>
<line class="divider-line" x1="1610" x2="2200" y1="270" y2="270"/>
<line class="divider-line" x1="1610" x2="2200" y1="340" y2="340"/>
<text class="scoresheet_results_team2_side" x="2225" y="250" text-anchor="middle"/>
<text class="scoresheet_results_team2_player1" x="1620" y="250"/>
<text class="scoresheet_results_team2_player2" x="1620" y="320"/>
<text class="scoresheet_results_team2_name small-text" x="1620" y="385"/>
<ellipse class="scoresheet_results_circle_team2" visibility="hidden" cx="1890" cy="300" rx="280" ry="130"/>

<!-- top right information about match -->
<text class="small-text" x="2280" y="150" data-i18n="scoresheet:Court"/>
<line class="dashed-line" x1="2520" x2="2820" y1="155" y2="155"/>
<text class="scoresheet_court_id" x="2530" y="140"/>
<text class="small-text" x="2280" y="220" data-i18n="scoresheet:Umpire"/>
<line class="dashed-line" x1="2520" x2="2820" y1="225" y2="225"/>
<text class="small-text scoresheet_umpire_name" x="2530" y="210"/>
<text class="small-text" x="2280" y="290" data-i18n="scoresheet:Service judge"/>
<line class="dashed-line" x1="2520" x2="2820" y1="295" y2="295"/>
<text class="small-text scoresheet_service_judge_name" x="2530" y="280"/>
<text class="small-text" x="2280" y="360" data-i18n="scoresheet:Begin"/>
<line class="dashed-line" x1="2520" x2="2820" y1="365" y2="365"/>
<text class="scoresheet_begin_value" x="2530" y="350"/>
<text class="small-text" x="2280" y="430" data-i18n="scoresheet:End"/>
<line class="dashed-line" x1="2520" x2="2820" y1="435" y2="435"/>
<text class="scoresheet_end_value" x="2530" y="420"/>
<text class="small-text" x="2280" y="500" data-i18n="scoresheet:Duration"/>
<line class="dashed-line" x1="2520" x2="2820" y1="505" y2="505"/>
<text class="scoresheet_duration_value" x="2530" y="490"/>

<g class="scoresheet_shuttle_counter">
	<text class="small-text" x="2020" y="500" text-anchor="end" data-i18n="scoresheet:Shuttles"/>
	<text class="scoresheet_shuttle_counter_value" x="2050" y="500"/>
</g>

<g class="scoresheet_table_container"/>

<text class="small-text" x="1180" y="2000" data-i18n="scoresheet:Umpire"/>
<line class="dashed-line" x1="1420" x2="2020" y1="2005" y2="2005"/>
<text class="small-text" x="2070" y="2000" data-i18n="scoresheet:Referee"/>
<line class="dashed-line" x1="2220" x2="2820" y1="2005" y2="2005"/>

</svg>