<svg xmlns="http://www.w3.org/2000/svg" xmlns:xlink="http://www.w3.org/1999/xlink" version="1.1" viewBox="0 0 2970 2100">
<style>
	text {
		font-family: Helvetica;
		font-size: 40px;
	}
	text.small-text, text.table_name {font-size: 30px;}
	.divider-line {stroke: #000; stroke-width: 2;}
	.box {stroke: #000; stroke-width: 5; fill: none;}
	.shade,.box.shaded,.table_longtext_background.shaded {fill: #e0e0e0;}
	.scoresheet_results_circle_team1,.scoresheet_results_circle_team2 {
		stroke: #000; stroke-width: 6; fill: none;
	}
	.dashed-line {
		stroke: #000; stroke-width: 4; stroke-dasharray: 4, 4;
	}
	.table {
		stroke: #000; stroke-width: 3.5; fill: none;
	}
	.table_line {
		stroke: #000; stroke-width: 1;
	}
	.table_20all_dash {
		stroke: #000; stroke-width: 4;
	}
	.editmode-sign {
		stroke: #202020; stroke-width: 3; fill: none;
	}
	.table_thick-line {
		stroke: #000; stroke-width: 3.5;
	}
	.table_game_result {
		stroke: #000; stroke-width: 4; fill: none;
	}
	.table_longtext_background {
		fill: #fff;
		opacity: 0.75;
	}
</style>

<!-- top left -->
<text class="scoresheet_tournament_name" x="550" y="130"/>
<text class="scoresheet_event_name" font-weight="bold" x="500" y="130"/><!-- x will be set automatically -->

<!-- NLA logo -->
<path style="fill:#e2262d;fill-opacity:1;fill-rule:evenodd;stroke:none;stroke-width:0.0859271" d="m 285.12339000000003 281.69622 c 0.2913 -0.2173 0.5954 -0.44630000000000003 0.9006000000000001 -0.6743 -0.1839 -0.17559999999999998 -0.42619999999999997 -0.5288 -0.5405 -0.4923 -0.3841 0.1242 -0.7227 0.3885 -1.0783800000000001 0.5994 0.2071 0.1638 0.4142 0.3275 0.7184 0.5683 z  m 49.02743 116.36162999999999 c 0 2.8381600000000002 -0.0077399999999999995 5.67545 0.00602 8.5136 0.0034400000000000003 0.7257 0.10919999999999999 1.3971900000000002 1.0972899999999999 1.4127100000000001 0.9365999999999999 0.01 1.2364899999999999 -0.5405 1.2373399999999999 -1.3259 0.00883 -5.67631 0.0034400000000000003 -11.35186 -0.00687 -17.02816 -0.0017100000000000001 -0.7578 -0.2157 -1.38606 -1.14798 -1.4152799999999999 -1.32414 -0.043 -1.17807 0.9494 -1.1866599999999998 1.7563799999999998 -0.028 2.69559 -0.01 5.39107 0.0008600000000000001 8.086649999999999 z  m 41.811280000000004 -9.82837 c 0.0017200000000000002 0.33390000000000003 0.0025900000000000003 0.6689 0.0034400000000000003 1.00288 2.8183999999999996 0 5.647130000000001 0.15630000000000002 8.45093 -0.054000000000000006 2.23755 -0.1648 3.0126 0.5073 2.9361300000000004 2.79266 -0.1512 4.569599999999999 -0.07100000000000001 9.14862 -0.028 13.723460000000001 0.00772 0.8798 -0.5388 2.2925 1.032 2.3234399999999997 1.4461499999999998 0.032 1.22016 -1.26661 1.22016 -2.24274 0 -4.4312000000000005 0.11520000000000001 -8.86766 -0.057999999999999996 -13.292010000000001 -0.097 -2.4756400000000003 0.3574 -3.67342 3.2257000000000002 -3.32451 2.6001600000000002 0.31789999999999996 5.26904 0.064 7.9078800000000005 0.064 -0.022000000000000002 -0.3329 -0.043 -0.6679 -0.067 -1.00074 -8.206900000000001 0 -16.41552 0 -24.624139999999997 0 z  m -112.14004 19.89125 c 0 -0.043 0 -0.09599999999999999 0 -0.1434 3.4233200000000004 0 6.86385 0.2119 10.26656 -0.054000000000000006 4.52923 -0.351 5.89719 -2.0674200000000003 5.90062 -6.59153 0.0017200000000000002 -1.99774 0.00258 -3.99559 0.01 -5.99344 0.022000000000000002 -5.30084 -1.23219 -6.8681 -6.64475 -7.10699 -6.27525 -0.2761 -12.56856 -0.09599999999999999 -18.8524 -0.2205 -2.1834100000000003 -0.043 -2.98512 0.6647000000000001 -2.90176 2.94646 0.1658 4.574730000000001 0.2183 9.169270000000001 -0.038 13.73631 -0.1675 2.9825299999999997 0.9804 3.68369 3.69315 3.47488 2.8399 -0.2183 5.709 -0.054000000000000006 8.56522 -0.054000000000000006 z  m 82.23396 -18.142670000000003 c 7.88726 6.07253 14.91094 11.4576 21.8994 16.8873 1.04912 0.8166 2.17394 1.80187 3.42247 1.2193 1.22102 -0.5694 0.5199 -2.05628 0.5345 -3.11311 0.065 -4.85666 0.026 -9.71663 0.015 -14.575 -0.0017200000000000002 -0.8027 0.33 -1.97206 -0.8121 -2.0777 -1.6850299999999998 -0.15630000000000002 -1.09986 1.41432 -1.11447 2.1764900000000003 -0.09599999999999999 4.9091000000000005 -0.049 9.82067 -0.049 15.27188 -1.3585099999999999 -0.867 -2.21176 -1.32676 -2.9705 -1.90848 -6.23143 -4.77927 -12.43107 -9.59975 -18.678829999999998 -14.356660000000002 -1.0878400000000001 -0.8262999999999999 -2.26505 -2.13099 -3.79455 -1.20046 -1.3215599999999998 0.8038 -0.6917 2.36818 -0.7123 3.5772 -0.075 4.57988 -0.022000000000000002 9.16072 0.00173 13.74144 0.0051400000000000005 0.9643 -0.2363 2.2641400000000003 1.18235 2.3243 1.68245 0.075 1.0371299999999999 -1.39451 1.04656 -2.22037 0.059 -4.94849 0.028999999999999998 -9.8988 0.028999999999999998 -15.74613 z  m -131.80679 17.67698 c 1.46678 0.8133999999999999 2.5644099999999996 0.593 2.98769 -0.37670000000000003 2.43114 -5.56799 7.262300000000001 -4.859970000000001 11.91268 -4.75947 2.56407 0.054000000000000006 5.15648 0.2419 7.6879 -0.043 3.22227 -0.36929999999999996 5.4443399999999995 0.6454 7.05203 3.46706 0.7630000000000001 1.3387499999999999 1.6816 3.1106499999999997 3.90798 1.65845 -4.72342 -6.05444 -9.35662 -11.98002 -13.97348 -17.91844 -1.41178 -1.8147199999999999 -3.07618 -2.89489 -4.84886 -0.7041999999999999 -4.96659 6.13611 -9.78548 12.39241 -14.72594 18.68146 z  m -19.59705 0.43770000000000003 c 0 -0.043 0.00034999999999999994 -0.086 0.00034999999999999994 -0.1295 3.4193000000000002 0 6.843909999999999 0.1178 10.25549 -0.043 2.21803 -0.107 4.412170000000001 -0.9569 5.11506 -3.24208 0.6102 -1.9849 0.9281 -4.26114 -1.37483 -5.751119999999999 -0.4491 -0.29000000000000004 -1.1265100000000001 -0.3564 -0.4155 -1.4607700000000001 3.81672 -5.921189999999999 2.14312 -9.04469 -5.032489999999999 -9.30242 -6.122649999999999 -0.2205 -12.259739999999999 -0.01 -18.38574 -0.16799999999999998 -2.35191 -0.054000000000000006 -2.90029 0.8862000000000001 -2.81746 3.03755 0.1433 3.7086400000000004 0.022000000000000002 7.42584 0.026 11.13961 0.01 5.91691 0.016 5.91777 5.79234 5.91777 2.27844 0 4.55679 0 6.83559 0 z  m 246.96511 -17.88826 c 1.76925 1.2673599999999998 2.9241099999999998 2.0424800000000003 4.022259999999999 2.88974 5.9788 4.605659999999999 11.924969999999998 9.25522 17.93299 13.82311 0.9435 0.716 1.88008 1.96937 3.38209 1.13421 1.3181200000000002 -0.7321 0.7716000000000001 -2.00899 0.7786 -3.0847599999999997 0.032 -4.84113 0.025 -9.68313 0.022000000000000002 -14.52427 -0.0008500000000000001 -0.9611000000000001 0.3059 -2.24016 -1.16689 -2.29175 -1.69191 -0.064 -1.06122 1.40842 -1.07066 2.22721 -0.067 4.9409 -0.033 9.88425 -0.033 14.729669999999999 -1.40748 0.4474 -1.91102 -0.4613 -2.51853 -0.9258 -6.45312 -4.92793 -12.86156 -9.91431 -19.29578 -14.866220000000002 -0.9898 -0.762 -2.01671 -1.87669 -3.38038 -1.22883 -1.32585 0.6304 -0.6203000000000001 2.03905 -0.6342000000000001 3.0857099999999997 -0.063 4.84285 -0.046 9.68742 -0.01 14.530259999999998 0.006880000000000001 0.8926000000000001 -0.5422 2.34324 0.983 2.34067 1.5767700000000002 -0.00268 0.9186 -1.57593 0.9358 -2.36732 0.106 -4.92965 0.054000000000000006 -9.862729999999999 0.054000000000000006 -15.47203 z  M 418.3319 388.11469 c -1.7116700000000002 0 -3.4276299999999997 -0.086 -5.13157 0.01 -7.89497 0.45920000000000005 -8.715580000000001 1.3378899999999998 -8.72245 9.15289 -0.00173 1.7116500000000001 0.078 3.42597 0.00772 5.134189999999999 -0.1117 2.71443 1.1600199999999998 4.3762 3.7593300000000003 4.87978 6.753869999999999 1.3069600000000001 13.52492 1.38606 20.268480000000004 -0.086 2.4351700000000003 -0.5298 3.37264 -2.16365 3.51356 -4.64089 0.7871 -13.819680000000002 0.1349 -14.55177 -13.695070000000001 -14.458979999999999 z  m -122.11361 49.98388 c 0 3.14062 0.2234 6.30264 -0.063 9.41758 -0.2826 3.08475 1.15228 3.40702 3.70002 3.4053099999999996 2.48158 -0.0017200000000000002 3.5470800000000002 -0.4677 3.44568 -3.29101 -0.22419999999999998 -6.25298 -0.17020000000000002 -12.52309 0.01 -18.7794 0.07400000000000001 -2.56319 -0.562 -3.5737799999999997 -3.29531 -3.45519 -2.37072 0.107 -4.1691899999999995 -0.007699999999999999 -3.8641300000000003 3.2850099999999998 0.2895 3.1140800000000004 0.063 6.27525 0.067 9.4177 z  m 28.36112 -47.608 c 0 5.54145 -0.039 10.21594 0.032 14.8886 0.015 0.9708 -0.7002999999999999 2.7024399999999997 1.1299299999999999 2.6207700000000003 1.63864 -0.075 1.10846 -1.71079 1.10932 -2.76515 0.0034400000000000003 -4.57645 -0.057 -9.15204 -0.077 -13.72763 -0.00516 -1.25205 0.6333 -2.95417 -0.7622 -3.4981099999999996 -1.49169 -0.5811999999999999 -2.5494499999999998 0.9355 -3.50325 1.9599600000000001 -4.18292 4.49404 -8.51194 8.8728 -12.41131 13.60316 -1.98835 2.4110899999999997 -3.0358099999999997 3.00833 -5.33608 0.3436 -4.38657 -5.0826 -9.13663 -9.852459999999999 -13.762939999999999 -14.72538 -0.6608 -0.6945999999999999 -1.32071 -1.68072 -2.50478 -1.2579399999999998 -1.30179 0.46449999999999997 -0.8377999999999999 1.68499 -0.8455999999999999 2.60365 -0.044000000000000004 4.86767 -0.067 9.736320000000001 0.022000000000000002 14.60239 0.018 0.9858 -0.7681 2.70587 0.8069 2.8553800000000003 2.06396 0.198 1.35507 -1.7065 1.41178 -2.8485300000000002 0.2216 -4.45015 -0.37629999999999997 -8.94322 0.4726 -14.08511 4.7363 5.127230000000001 8.96821 9.73643 13.231919999999999 14.3163 3.48176 3.7395699999999996 3.9981899999999997 3.72833 7.301220000000001 0.1081 4.32987 -4.7492 8.66403 -9.4924 13.686480000000001 -14.99435 z  m -46.880129999999994 34.96459 c 0 0.00781 0 0.01 0 0.022000000000000002 -3.9939 0 -7.98864 0.043 -11.981679999999999 -0.022000000000000002 -1.60254 -0.032 -2.3638500000000002 0.48160000000000003 -2.33979 2.18944 0.023 1.59572 0.8677999999999999 1.86812 2.19286 1.82424 1.7108100000000002 -0.054000000000000006 3.44997 0.17229999999999998 5.13157 -0.054000000000000006 2.7943499999999997 -0.3799 3.33655 0.852 3.23602 3.3640999999999996 -0.1891 4.70274 0.038 9.4193 -0.10919999999999999 14.12471 -0.08 2.5932699999999995 0.05499999999999999 4.21298 3.4963699999999998 4.05489 3.0796400000000004 -0.1413 4.38659 -0.6561 3.8968000000000003 -4.12113 -0.41250000000000003 -2.9214200000000003 0.09 -5.96326 0.089 -8.951789999999999 -0.00602 -7.97929 -0.026 -7.97319 7.89326 -8.42262 1.17376 -0.064 2.6061699999999997 0.44089999999999996 2.65773 -1.71079 0.049 -2.03819 -0.9228000000000001 -2.34837 -2.60618 -2.31915 -3.85125 0.064 -7.70422 0.022000000000000002 -11.55634 0.022000000000000002 z  m 181.05017 25.37521 c 3.83664 0 6.84066 0.01 9.84553 -0.0060999999999999995 1.34991 -0.00883 2.92495 0.4913 2.95245 -1.88257 0.028 -2.35105 -1.5252 -1.9746299999999999 -2.90262 -1.9867199999999998 -5.292249999999999 -0.043 -10.58708 -0.18409999999999999 -15.87503 -0.054000000000000006 -3.95781 0.09599999999999999 -5.734780000000001 -1.25205 -5.38936 -5.515750000000001 0.3575 -4.40798 -0.08 -8.87365 0.12290000000000001 -13.30143 0.141 -3.0633500000000002 -1.7657999999999998 -2.6817800000000003 -3.6072300000000004 -2.6027899999999997 -1.70823 0.075 -3.91999 -0.7696000000000001 -3.85984 2.41195 0.099 5.1282000000000005 -0.041999999999999996 10.26057 -0.00258 15.39132 0.025 3.19222 1.4521800000000002 5.223459999999999 4.67013 6.33541 4.90731 1.69537 9.90826 1.00288 14.04566 1.21074 z  m -194.86294999999998 -0.138 c -5.3008500000000005 -7.41813 -10.2219 -14.334389999999999 -15.17474 -21.227420000000002 -4.01192 -5.58351 -9.4262 -5.604170000000001 -13.50086 -0.022000000000000002 -4.533519999999999 6.20482 -9.02322 12.442279999999998 -13.48541 18.6986 -0.5084000000000001 0.7128 -1.61809 1.3790900000000001 -0.5725 2.8253 2.40451 -0.9001000000000001 5.773700000000001 1.49084 7.6073900000000005 -1.8749799999999999 1.81392 -3.32963 4.57132 -3.59861 7.84257 -3.46535 4.41665 0.17880000000000001 8.84448 0.054000000000000006 13.26714 0.054000000000000006 1.28118 0.0008500000000000001 2.7685700000000004 -0.2119 3.37007 1.23654 1.9531200000000002 4.69674 5.90233 4.0781 10.64636 3.78077 z  m 129.33235 -0.5555 c 0.1753 0.3115 0.3514 0.6208 0.5276000000000001 0.9311999999999999 2.5563200000000004 -1.1178299999999999 6.0982400000000005 1.5089299999999999 7.837420000000001 -1.74428 1.94882 -3.64506 4.79043 -3.8581700000000003 8.20602 -3.67332 2.85279 0.15410000000000001 5.737360000000001 0.2215 8.57811 -0.022000000000000002 4.54039 -0.3831 8.18284 0.2183 10.5699 4.94506 1.28546 2.5452000000000004 4.14942 1.14288 6.35259 0.3329 1.84744 -0.6797 0.5345 -1.5234800000000002 0.062 -2.192 -4.85489 -6.8750599999999995 -9.6015 -13.835949999999999 -14.679789999999999 -20.54254 -2.98683 -3.9458100000000003 -8.547179999999999 -4.0377600000000005 -11.51596 -0.1413 -5.504480000000001 7.22216 -10.645500000000002 14.72099 -15.93776 22.10391 z  m -63.726139999999994 0.6786000000000001 c 3.5745700000000005 0.09599999999999999 7.13368 0.054000000000000006 10.658399999999999 -0.6945999999999999 5.15563 -1.09815 6.736680000000001 -2.9601699999999997 6.75903 -8.15879 0.01 -2.28737 0.00687 -4.574730000000001 0.00602 -6.86296 0 -6.0845199999999995 -1.75206 -8.24902 -7.8202300000000005 -8.99395 -6.52703 -0.8027 -13.101320000000001 -0.7257 -19.62661 0.00427 -6.0467 0.6775 -7.77555 2.84672 -7.79188 9.028319999999999 -0.00601 2.28736 0.1452 4.58511 -0.016 6.861350000000001 -0.2784 3.92945 1.71682 6.11021 5.16938 7.37082 4.109030000000001 1.49941 8.369299999999999 1.61029 12.66222 1.44611 z  m -89.85141 -92.8159 c 2.9198000000000004 0.5105 5.772589999999999 0.5341 4.70193 -4.46556 -0.6161 -2.87775 0.8275 -4.11428 3.87188 -3.50849 3.41045 0.6775 4.62804 -0.9933000000000001 4.09098 -4.26798 -0.1134 -0.6945999999999999 -0.1101 -1.43925 0 -2.13613 0.5972000000000001 -3.79191 -0.6961 -5.6918299999999995 -4.78269 -4.951169999999999 -2.38448 0.4313 -3.7112 -0.7706000000000001 -3.24805 -2.99709 0.9382999999999999 -4.5128699999999995 -1.56988 -4.97 -4.96228 -4.757759999999999 -1.1376899999999999 0.075 -2.29856 0.1413 -3.42163 0.0008600000000000001 -2.66117 -0.33390000000000003 -3.73955 0.7054 -3.20078 3.35715 0.7209 3.54541 -0.7089 5.00606 -4.27058 4.4123600000000005 -2.7694400000000003 -0.4602 -3.97758 0.624 -3.5470699999999997 3.48516 0.1461 0.9772000000000001 0.12109999999999999 2.00727 0.00258 2.9912 -0.42869999999999997 3.5453099999999997 0.32210000000000005 5.75198 4.65552 4.93651 1.7091 -0.32210000000000005 3.9354699999999996 -0.8027 2.64742 2.73069 -0.42619999999999997 1.16953 -0.574 3.6304999999999996 0.7519 5.1806399999999995 1.3292899999999999 1.55356 2.6671699999999996 -0.5705 4.07036 -0.054000000000000006 0.6273 0.23220000000000002 1.41265 0.043 2.64054 0.043 z  m -30.198230000000002 87.89493 c -1.40138 -1.60686 -2.2254199999999997 -2.49971 -2.99069 -3.4396700000000004 -3.86544 -4.74662 -7.68042 -9.53542 -11.58272 -14.25187 -2.75568 -3.3306000000000004 -6.33343 -3.45947 -10.102789999999999 -2.2058 -3.5582399999999996 1.18323 -2.65635 4.2714 -2.69632 6.86563 -0.075 4.85313 0.1268 9.71578 -0.10779999999999999 14.55948 -0.1433 2.96188 1.03081 3.52293 3.7123 3.51009 2.76548 -0.01 4.15569 -0.4506 3.97646 -3.6965399999999997 -0.2759 -4.99494 -0.073 -10.01738 -0.073 -16.065830000000002 1.80644 2.19628 2.7983000000000002 3.40102 3.78946 4.60652 3.44045 4.18642 6.83662 8.40966 10.33446 12.54535 2.79126 3.30139 6.4605999999999995 3.25836 10.17935 2.1766 3.7230600000000003 -1.08273 2.50427 -4.33766 2.56605 -6.84241 0.1269 -5.12552 -0.1406 -10.262279999999999 0.038 -15.38437 0.097 -2.79437 -1.3231799999999998 -2.9326600000000003 -3.42204 -2.81065 -2.00082 0.11560000000000001 -3.85255 -0.2301 -3.69513 2.9644500000000003 0.2716 5.5011 0.075 11.02702 0.075 17.46902 z  m 152.94168000000002 -14.77001 c 1.4530299999999998 1.74087 2.25903 2.6972 3.05471 3.6621900000000003 3.72323 4.5128699999999995 7.47997 8.999089999999999 11.15162 13.552420000000001 2.95676 3.6647499999999997 7.0546299999999995 3.19563 10.64896 2.2581499999999997 3.16727 -0.8262999999999999 2.24355 -4.37288 2.29683 -6.9085600000000005 0.10279999999999999 -4.96058 -0.1117 -9.930579999999999 0.075 -14.88774 0.098 -2.64742 -0.7398 -3.56426 -3.40013 -3.39065 -2.2667699999999997 0.1477 -4.1872300000000005 -0.137 -4.01968 3.25151 0.2639 5.33176 0.07 10.68676 0.07 17.11325 -1.7322899999999999 -2.03221 -2.73076 -3.1604300000000003 -3.68284 -4.32472 -3.70431 -4.52839 -7.280600000000001 -9.1667 -11.12585 -13.56964 -2.66974 -3.0555399999999997 -6.22283 -3.14662 -9.834349999999999 -1.86118 -3.51098 1.25024 -2.59414 4.31615 -2.6259300000000003 6.91541 -0.062 4.97856 0.1263 9.96494 -0.08800000000000001 14.93495 -0.1529 3.57292 2.17396 2.85281 4.24651 2.99377 2.1576400000000002 0.1467 3.41561 -0.15089999999999998 3.2987499999999996 -2.88974 -0.2234 -5.272480000000001 -0.065 -10.56132 -0.065 -16.84942 z  m -155.67562 72.99519000000001 c 3.57809 0 7.17491 -0.2258 10.728860000000001 0.064 3.1866100000000004 0.2611 3.3108500000000003 -1.23043 3.3332800000000002 -3.7730599999999996 0.025 -2.68596 -0.4743 -3.80476 -3.4797000000000002 -3.69912 -6.5579600000000005 0.23220000000000002 -13.13002 0.032 -19.69509 0.086 -2.29718 0.022000000000000002 -3.33003 -0.6379 -3.1470900000000004 -3.2274199999999995 0.2611 -3.69226 0.06 -7.41717 0.06 -11.12752 -0.0026699999999999996 -10.40324 0.00069 -10.31472 -10.5412 -10.002839999999999 -2.35054 0.075 -2.86953 0.8477 -2.82923 2.99464 0.1175 6.29237 0.031 12.58914 0.059 18.88333 0.026 5.80592 1.84779 7.97662 7.5588500000000005 8.9718 5.94615 1.035 11.95401 0.8605 17.952749999999998 0.8240999999999999 z  m 116.52465 0.00236 c -6.057869999999999 -9.74745 -11.7385 -18.89275 -17.4243 -28.03366 -0.9633 -1.54928 -2.4833 -2.37588 -4.152 -2.81407 -6.5107 -1.70651 -14.155629999999999 -1.9308400000000001 -18.20796 6.53641 -0.7330000000000001 1.5312999999999999 -1.7890000000000001 2.90611 -2.68264 4.36174 -3.98874 6.49177 -7.973179999999999 12.986979999999999 -12.2386 19.93674 4.39689 0 8.08488 -0.054000000000000006 11.77116 0.022000000000000002 1.5973799999999998 0.032 2.89832 -0.335 3.4173199999999997 -1.9145699999999999 1.54755 -4.713979999999999 5.02416 -5.458920000000001 9.39613 -5.02759 2.96964 0.2932 5.99685 0.1381 8.99056 0.006849999999999999 1.90328 -0.086 3.46543 0.305 4.14855 2.1945799999999998 1.6051199999999999 4.43902 4.91503 5.28017 9.14179 4.77499 2.25215 -0.2675 4.56274 -0.043 7.83999 -0.043 z  m 98.4364 -18.073 c 0 -3.7206200000000003 -0.036 -7.4421 0.018 -11.16187 0.02 -1.4865700000000002 -0.2363 -2.2237999999999998 -2.0510800000000002 -2.4266199999999998 -10.40834 -1.16771 -10.932500000000001 -0.7813000000000001 -11.03303 9.41673 -0.00516 0.4292 -0.00516 0.8594999999999999 -0.0025900000000000003 1.28887 0.099 14.46583 0.1017 14.39968 -14.36271 13.6754 -2.85193 -0.14229999999999998 -3.68112 -1.22027 -3.5307500000000003 -3.9285799999999997 0.1994 -3.5669299999999997 0.051000000000000004 -7.15259 0.041999999999999996 -10.730649999999999 -0.023 -10.12132 -0.023 -10.044900000000002 -10.21673 -9.72263 -2.24615 0.075 -2.93871 0.685 -2.88544 2.93952 0.1529 6.41963 0.049 12.84612 0.093 19.26918 0.039 5.840269999999999 1.75807 7.80729 7.600249999999999 8.71289 8.39337 1.30192 16.82884 0.7985 25.24969 0.43770000000000003 1.96171 -0.086 3.91656 -0.6797 5.845630000000001 -1.16268 3.6982999999999997 -0.9258 5.472700000000001 -3.24873 5.2742 -7.16361 -0.15810000000000002 -3.14062 -0.032 -6.2958 -0.039 -9.44424 z  m -71.92874 -13.5292 c -4.92018 0.11560000000000001 -10.642069999999999 -0.3297 -16.30638 0.7567 -5.41428 1.0382 -7.0778300000000005 2.90516 -7.13196 8.328 -0.041999999999999996 4.14512 -0.014 8.29109 -0.01 12.4363 0.00429 6.61711 1.60684 8.341709999999999 8.35298 9.3523 7.5169 1.12544 15.085370000000001 0.9686 22.60828 0.5801 11.253010000000002 -0.579 12.84095 -2.52776 12.769630000000001 -13.78596 -0.0025700000000000002 -0.4292 -0.052 -0.8648 0.006880000000000001 -1.28544 0.5086999999999999 -3.6416500000000003 -2.32434 -3.4216999999999995 -4.06865 -2.78325 -3.1148599999999997 1.14117 -8.474129999999999 -3.49982 -9.32826 2.6947300000000003 -1.09127 7.909610000000001 -0.6152 7.975759999999999 -8.76714 7.97405 -1.71511 -0.0008600000000000001 -3.4345 -0.086 -5.14446 0.01 -2.1971499999999997 0.1231 -3.08392 -0.7696000000000001 -3.00744 -3.0048000000000004 0.1169 -3.40188 0.1975 -6.82358 -0.032 -10.21508 -0.22249999999999998 -3.2841500000000003 1.22789 -4.23533 4.25939 -4.17176 5.9771 0.1252 11.962779999999999 -0.1134 17.93558 0.09599999999999999 2.95589 0.107 4.23449 -0.3949 4.22417 -3.8228400000000002 -0.01 -3.38551 -1.70994 -3.23256 -4.00076 -3.18451 -3.8572699999999998 0.086 -7.71798 0.022000000000000002 -12.35805 0.022000000000000002 z  m 102.63995 0.022000000000000002 c -4.83597 0.2012 -10.728869999999999 -0.5673 -16.51863 0.7867000000000001 -4.90558 1.14716 -6.412750000000001 3.02556 -6.450550000000001 8.06685 -0.033 4.29377 -0.00258 8.58756 -0.0008600000000000001 12.880469999999999 0.0034400000000000003 6.543480000000001 1.31726 8.12605 8.009269999999999 9.12122 9.79568 1.4563799999999998 19.66527 0.4238 29.49878 0.7213999999999999 3.33741 0.09599999999999999 1.94969 -2.5123499999999996 2.12497 -4.01882 0.1882 -1.61028 0.409 -3.3829399999999996 -2.4472 -3.3047 -6.71262 0.18519999999999998 -13.43298 0.022000000000000002 -20.151629999999997 0.01 -1.97633 -0.0017200000000000002 -3.61496 -0.064 -3.66995 -2.85015 -0.06 -3.13205 2.0321800000000003 -2.06399 3.50068 -2.08635 6.498660000000001 -0.107 13.00678 -0.3329 19.49342 -0.075 2.7118700000000002 0.10919999999999999 3.6218299999999997 -0.44530000000000003 3.39326 -3.1501400000000004 -0.1856 -2.20057 0.15810000000000002 -4.1287400000000005 -3.28241 -3.98275 -6.84066 0.2912 -13.70279 0.086 -20.55549 0.086 -1.1565699999999999 0 -2.44892 0.1359 -2.44205 -1.56298 0.00515 -1.08016 -0.4142 -2.50828 0.9821000000000001 -2.9859599999999995 1.32071 -0.4517 2.7702999999999998 -0.6957000000000001 4.16661 -0.716 5.849060000000001 -0.086 11.70758 -0.2547 17.54461 0.01 2.93182 0.1338 3.54706 -0.8873 3.61408 -3.5497 0.07400000000000001 -2.94646 -1.09986 -3.59604 -3.78164 -3.45593 -3.99648 0.2097 -8.01099 0.054000000000000006 -13.02741 0.054000000000000006 z  m -202.96502 -0.022000000000000002 c -5.119540000000001 0.289 -11.162790000000001 -0.6411 -17.084889999999998 0.8466 -4.07638 1.0232299999999999 -6.4599899999999995 3.33575 -6.303609999999999 7.87013 0.1529 4.42864 0.00883 8.867650000000001 0.057999999999999996 13.3024 0.067 6.08024 1.7391699999999999 8.14861 7.882090000000001 8.8135 5.54574 0.5994 10.96001 2.7067200000000002 16.76267 0.8744000000000001 3.69659 -1.1678199999999999 7.4894099999999995 0.9965 11.35699 0.8230999999999999 3.5951899999999997 -0.1627 3.90452 -2.11398 4.04974 -5.026730000000001 0.1675 -3.3719300000000003 -1.69705 -3.26703 -4.02826 -3.2422 -6.25893 0.064 -12.51786 0.01 -18.7768 0.0052499999999999995 -2.09403 -0.0035399999999999997 -4.07294 0.022000000000000002 -3.94405 -3.05736 0.1297 -3.0813200000000003 2.46353 -1.90409 3.79627 -1.9316 6.36633 -0.1359 12.745560000000001 -0.18839999999999998 19.10503 0.086 3.02376 0.1327 3.8168800000000003 -0.7674000000000001 3.88563 -3.7430000000000003 0.073 -3.18622 -1.3851499999999999 -3.46033 -3.88908 -3.42254 -6.720350000000001 0.09599999999999999 -13.443290000000001 0.043 -20.16623 0.01 -1.20298 -0.00513 -2.63452 0.39390000000000003 -2.7213 -1.69195 -0.076 -1.7941699999999998 0.1856 -3.1277700000000004 2.28737 -3.3098300000000003 1.2717200000000002 -0.1102 2.54345 -0.30179999999999996 3.81602 -0.30720000000000003 5.84133 -0.022000000000000002 11.68523 -0.09599999999999999 17.523120000000002 0.054000000000000006 2.4601 0.064 3.23086 -0.7994999999999999 3.06759 -3.1939200000000003 -0.1401 -2.05789 0.2844 -3.99816 -2.93956 -3.8236999999999997 -4.28002 0.23220000000000002 -8.58154 0.054000000000000006 -13.73631 0.054000000000000006 z  M 238.70641 137.24848 c -0.33340000000000003 -0.9333 -0.6401999999999999 -1.87755 -1.0044899999999999 -2.79866 -0.818 -2.07256 -1.13597 -4.68391 -3.98789 -4.97953 -2.70756 -0.28150000000000003 -4.02997 1.7297399999999998 -5.21749 3.75423 -1.9557 3.33478 -3.37608 6.90245 -4.38658 10.617090000000001 -6.912319999999999 25.42498 -6.69923 51.62081 -7.865259999999999 77.60942 -0.633 14.110050000000001 -0.2148 28.27427 -1.6198899999999998 42.36977 -0.07 0.6925000000000001 -0.038 1.4685799999999998 1.40207 1.4332600000000002 2.03038 -8.22151 4.08618 -16.54524 6.141990000000001 -24.869819999999997 -0.4365 2.85185 0.727 5.71066 -0.1573 8.59954 -0.3961 1.29498 0.7218 2.57272 1.79502 2.7231 1.7013500000000001 0.2376 6.0862099999999995 -4.81288 6.342280000000001 -6.54946 0.4399 -2.99196 0.9563 -5.989050000000001 1.74604 -8.90202 0.3025 -1.11184 3.8624199999999997 -7.633799999999999 3.66737 -8.34952 -1.66011 -6.0948 2.66116 -11.051089999999999 3.2394499999999997 -16.86237 0.6685000000000001 -6.72211 3.21367 -13.35473 3.74815 -20.253860000000003 0.094 -1.21246 0.843 -1.70737 1.4281 -2.45585 0.4992 -0.6379 1.48138 -1.10669 1.02 -2.13098 -1.4238 -3.16118 0.45539999999999997 -6.12488 0.5757 -9.19593 0.1263 -3.24198 1.82682 -6.5347 1.48999 -9.6599 -0.7449 -6.90941 0.33849999999999997 -13.804160000000001 -0.7424 -20.75222 -0.8842 -5.6764 -1.77182 -7.87868 -7.61487 -9.34629 z  m 30.48265 219.14847000000003 c -1.5776299999999999 -0.3286 -2.19716 1.05748 -3.19477 1.77619 -15.85183 11.412759999999999 -33.06046 15.496110000000002 -52.03841 9.38237 -6.234450000000001 -2.00812 -11.51587 -5.73998 -16.76145 -10.94802 2.9923100000000002 6.945480000000001 8.9475 12.051300000000001 18.85523 16.7214 0.01 0.2922 0.022000000000000002 0.5844 0.038 0.8809 -0.3753 0.1948 -1.24594 0.1146 -0.8506 0.7985 0.2924 0.5041 0.8919 0.075 1.2570400000000002 -0.3147 3.27665 1.89821 6.409820000000001 3.8117099999999997 10.205219999999999 4.95974 3.85554 1.1659899999999999 7.70766 0.6122 11.47127 1.13421 5.14274 0.7118 10.517479999999999 -1.5423200000000001 15.631870000000001 -3.36144 4.50601 -1.60172 8.91408 -4.2903400000000005 11.79864 -7.287439999999999 5.2218 -5.425520000000001 9.74585 -11.773769999999999 13.85232 -18.29391 4.92706 -7.82282 9.01375 -15.42398 3.37264 -24.72982 -0.7356 -1.2133099999999999 -0.4072 -2.75488 -2.45322 -2.43432 -0.1882 -0.5202 -0.39690000000000003 -1.03285 -0.5609999999999999 -1.56041 -9.458870000000001 -30.38472 -40.79992 -45.08515 -69.25701000000001 -32.50715 -1.74072 0.7696000000000001 -3.3998 1.45478 -3.4132800000000003 3.95439 1.8958 0 3.72107 0.022000000000000002 5.54539 -0.00343 19.73694 -0.2419 36.04504 7.22729 49.198769999999996 21.83152 6.98846 7.7600999999999996 11.25302 17.058230000000002 15.10427 26.59355 -2.29682 4.64612 -4.22246 9.50781 -7.800470000000001 13.408040000000002 z  M 371.99827999999997 83.96761 c 8.38821 0 16.77814 0 25.59942 0 -3.7069 4.68219 -7.368259999999999 9.1074 -10.81307 13.6968 -19.14199 25.4997 -34.09503 53.490539999999996 -48.59695000000001 81.75882 -14.86882 28.981530000000003 -28.86636 58.41324 -44.691559999999996 86.90241999999999 -2.55976 4.60738 -5.305140000000001 9.11255 -7.53066 13.97081 6.956670000000001 -5.51222 11.985980000000001 -12.83403 18.742430000000002 -18.412399999999998 -1.27343 3.01005 -1.34733 6.18417 -1.2098499999999999 9.36857 0.032 0.7406999999999999 -0.3436 1.89392 0.9332 2.0219300000000002 0.9375 0.09599999999999999 2.6267899999999997 0.16699999999999998 2.73076 -0.1552 0.5086999999999999 -1.57165 2.7281899999999997 -1.51663 2.87427 -3.37524 0.059 -0.7439 0.5981000000000001 -1.33447 1.8293899999999998 -1.1282100000000002 3.8976499999999996 0.6518 3.85984 -4.5258199999999995 7.08383 -5.01817 -0.46309999999999996 -2.22037 1.3146900000000001 -3.14918 2.6852199999999997 -3.89167 2.75569 -1.4899799999999999 5.344670000000001 -3.9620800000000003 6.87331 -5.9194700000000005 3.7275199999999997 -4.78013 8.70614 -8.116719999999999 12.56513 -12.70002 4.56616 -5.42629 10.215 -10.057849999999998 15.9008 -14.366190000000001 2.4137 -1.82938 2.87169 -5.199470000000001 5.47184 -6.17046 2.90778 -1.08605 4.439 -3.0666599999999997 6.04755 -5.43399 3.79542 -5.58789 9.41246 -9.52333 14.17884 -14.1428 5.08173 -4.92526 9.92974 -10.12303 15.0974 -14.981290000000001 3.0392400000000004 -2.8571 5.20461 -6.708410000000001 8.41312 -9.31109 5.7304900000000005 -4.6478399999999995 10.078389999999999 -10.648979999999998 15.36806 -15.704070000000002 3.94406 -3.76965 7.32014 -9.1529 10.99953 -13.751819999999999 2.77717 -3.47318 6.396420000000001 -7.140499999999999 7.97748 -10.55866 2.26074 -4.88758 7.15172 -7.83833 8.24557 -13.295539999999999 0.6745 -3.35544 5.39021 -4.97257 4.53351 -9.28015 -0.051000000000000004 -0.2569 0.4949 -0.6636 0.8068 -0.9526 2.51509 -2.33638 3.0951 -5.7837499999999995 4.93137 -8.5411 3.1329000000000002 -4.7019899999999994 2.6328 -10.38953 3.4061399999999997 -15.687800000000001 0.2389 -1.6325500000000002 2.74624 -3.18954 0.4881 -5.05766 10.40235 0.032 20.80639 0.005240000000000001 31.207880000000003 0.1391 5.46495 0.075 9.86959 4.1099000000000006 10.160020000000001 9.57653 0.32489999999999997 6.13182 0.092 12.2902 0.2844 18.43145 0.057 1.7803499999999999 -1.10675 2.14383 -2.17912 2.73508 -29.973950000000002 16.49535 -54.83353 39.38209 -78.91891 63.21916 -33.1017 32.76049 -63.493269999999995 68.1015 -96.26414 101.17483999999999 -7.13196 7.19808 -14.705569999999998 13.95797 -22.07554 20.920679999999997 -0.37379999999999997 0.44089999999999996 -1.5492700000000001 0.6432 -0.8387 1.41175 0.519 0.5629 1.1351 -0.16160000000000002 1.5063099999999998 -0.7202999999999999 7.84687 -4.42275 15.68943 -8.85139 23.546599999999998 -13.256049999999998 0.593 -0.3318 1.28118 -0.4913 1.9264899999999998 -0.731 -0.8119999999999999 3.53942 -3.30218 6.07081 -5.967639999999999 8.016219999999999 -1.73143 1.26308 -1.11189 2.55623 -0.3317 2.55805 3.06244 0.00771 6.2211300000000005 -0.2269 9.171 -1.01573 4.47766 -1.19693 8.0909 -4.27654 12.17072 -6.35948 1.9350800000000001 -0.989 4.54727 -0.7471 6.35689 -1.86631 6.23745 -3.8547399999999996 12.59778 -7.43097 19.2322 -10.562180000000001 7.55559 -3.56682 15.155829999999998 -7.03399 22.5026 -11.049389999999999 5.8206999999999995 -3.18011 12.0994 -5.572369999999999 17.92956 -8.61677 5.514799999999999 -2.8776400000000004 11.74194 -4.320320000000001 16.711100000000002 -8.47924 3.18876 -2.66808 7.4559 -3.9260200000000003 11.52884 -4.943350000000001 2.36643 -0.5908 3.33655 -2.70073 5.39279 -3.7293 3.81088 -1.90665 7.9835 -2.9326600000000003 11.71789 -5.2415400000000005 2.13701 -1.32152 3.6278300000000003 -3.93372 6.6155100000000004 -4.16234 4.0024999999999995 -0.30720000000000003 7.023700000000001 -3.2153300000000002 10.327599999999999 -5.01892 5.86796 -3.20344 11.414550000000002 -7.0211500000000004 17.41656 -10.087060000000001 4.21645 -2.15412 8.12441 -4.909 12.17072 -7.39576 0.13140000000000002 13.40985 0.3575 26.818740000000002 0.3721 40.22945 0.03 27.90737 -0.065 55.81645 -0.085 83.72391 -0.026 37.51323 -0.036 75.02644000000001 -0.039 112.53954999999999 -0.0017200000000000002 35.363389999999995 -0.00883 70.72645 0.041 106.08983 0.01 8.27824 -4.41321 12.955300000000001 -12.82205 12.96397 -36.78883 0.043 -73.57681000000001 0.022000000000000002 -110.36566 0.022000000000000002 -72.28618 -0.00106 -144.57238 -0.1145 -216.85779 0.14550000000000002 -8.38967 0.032 -14.49814 -4.14769 -14.482759999999999 -14.49409 0.2239 -151.00919 0.1537 -302.01924 0.15610000000000002 -453.02844 0 -9.06791 3.92172 -13.016300000000001 12.95584 -13.03428 38.34601 -0.075 76.69202 -0.1413 115.037 -0.2001 1.2373399999999999 -0.0017100000000000001 2.4747 0.107 3.91828 0.16910000000000003 -12.830639999999999 15.958380000000002 -17.24214 35.03844 -21.848689999999998 53.91492 -7.783290000000001 31.89192 -11.79264 64.48491 -17.2284 96.81148999999999 -1.70049 10.111049999999999 -3.5041 20.20496 -4.71739 30.47152 3.5006700000000004 -9.16413 7.00048 -18.32827 10.500290000000001 -27.49155 0.8249 3.29967 3.77822 6.31571 0.9245000000000001 10.0784 -1.13938 1.50293 0.7757999999999999 2.2839400000000003 1.4358399999999998 3.46546 0.4055 -0.5533 0.586 -1.08177 0.9185 -1.20903 3.04268 -1.15744 1.3103799999999999 -5.62129 4.79559 -6.74179 0.9049 -0.2922 -0.177 -2.68264 0.3721 -4.41494 0.8086 -2.55377 3.1277500000000003 -3.75927 3.79283 -6.3414 1.16775 -4.53695 3.4826200000000003 -8.851379999999999 5.32319 -13.04381 1.5518399999999999 -3.53759 2.5735099999999997 -7.484159999999999 4.37626 -11.023579999999999 1.01477 -1.9909 1.8689200000000001 -4.54895 2.6173400000000004 -6.783869999999999 1.4418600000000001 -4.30759 2.80809 -8.813600000000001 4.8480099999999995 -12.90884 2.26246 -4.53953 4.43728 -9.41684 5.8817200000000005 -13.93656 1.5612899999999998 -4.88662 4.8230699999999995 -9.63582 4.47164 -15.2813 -0.054000000000000006 -0.8616 -0.256 -2.3981500000000002 0.5817 -3.5444500000000003 3.76962 -5.15389 1.67214 -12.541080000000001 6.51844 -17.31522 -1.26744 -4.62022 1.3817 -8.66484 1.79157 -13.00592 0.1237 -1.3103799999999999 1.2562499999999999 -1.86288 1.12822 -3.63639 -0.3583 -4.96915 1.9179 -9.81028 1.4178 -15.14387 C 299.65561 103.5121 298.11142 95.24243999999999 296.44702 92.03995 295.02234999999996 89.29802000000001 292.69286 91.76275000000001 291.57323 90.09026 290.94513 88.11307 290.31783 86.13588 289.55824 83.74544 c 13.68046 0 27.22343 0.01 40.766400000000004 -0.01 2.9163699999999997 -0.0060999999999999995 2.07943 1.37653 1.22532 2.9179899999999996 -5.8017900000000004 10.47452 -10.668709999999999 21.39504 -15.37579 32.391980000000004 -11.045069999999999 25.8074 -20.08374 52.36318 -29.26851 78.85709 -7.97403 23.00436 -15.7341 46.082679999999996 -24.54936 68.78542999999999 -0.2492 0.64 -0.8033999999999999 1.21502 0.026 2.36304 6.30963 -10.432459999999999 11.6689 -21.205059999999996 18.3506 -31.17696 0.9683999999999999 0.8059 0.3189 2.58042 0.25170000000000003 2.6517 -3.1088500000000003 3.3443 -2.28653 7.610580000000001 -2.97394 11.52461 -0.16920000000000002 0.9643 -0.2123 1.76238 0.35319999999999996 2.27795 0.38920000000000005 0.35540000000000005 1.35078 -0.7556 1.96516 0.18939999999999999 0.5405 -2.89231 4.16575 -3.37951 4.9219 -5.133330000000001 1.9986599999999999 -4.63403 4.84715 -8.51103 7.93966 -12.33226 1.85689 -2.2942199999999997 4.59024 -4.34184 5.3627199999999995 -6.96175 2.21434 -7.516920000000001 7.72828 -13.064359999999999 10.84657 -19.94798 0.6737 -1.4891299999999998 3.32624 -0.0060999999999999995 2.7780199999999997 -2.7325100000000004 -0.5 -2.4842 1.46162 -4.58169 2.9593399999999996 -6.259829999999999 2.21176 -2.47724 3.80141 -5.331770000000001 5.1384300000000005 -8.1802 2.9000500000000002 -6.17817 7.02284 -11.59846 10.159180000000001 -17.6331 3.76189 -7.2411 8.871970000000001 -13.720889999999999 12.1415 -21.309089999999998 3.72494 -8.646 9.35402 -16.33824 12.93031 -25.102829999999997 1.13253 -2.7711400000000004 4.46305 -4.78869 4.14513 -7.98946 -0.3308 -3.31679 2.31573 -4.9167 3.1707099999999997 -7.522060000000001 1.78901 -5.445219999999999 4.41321 -10.61976 6.734109999999999 -15.88795 1.90758 -4.329 3.42247 -8.713 2.44119 -13.55585"/>
<path style="fill:#951c22;fill-opacity:1;fill-rule:evenodd;stroke:none;stroke-width:0.0859271" d="m 462.93926 83.84414 c 2.2581599999999997 1.86813 -0.2492 3.42511 -0.4881 5.05766 -0.7733 5.2982700000000005 -0.2733 10.98581 -3.4061399999999997 15.687809999999999 -1.8362600000000002 2.7573399999999997 -2.41628 6.20471 -4.93136 8.54111 -0.3119 0.29000000000000004 -0.8575 0.6957000000000001 -0.8068 0.9526 0.8567 4.30758 -3.8589800000000003 5.92473 -4.5335 9.280159999999999 -1.09386 5.4572 -5.98484 8.40795 -8.24557 13.29555 -1.58106 3.41815 -5.2003200000000005 7.085470000000001 -7.97748 10.558639999999999 -3.6794 4.59893 -7.055479999999999 9.98218 -10.99953 13.751819999999999 -5.28968 5.05509 -9.63758 11.056239999999999 -15.36806 15.704080000000001 -3.20853 2.60268 -5.37389 6.453989999999999 -8.413129999999999 9.31108 -5.16765 4.85826 -10.01566 10.05603 -15.0974 14.9813 -4.76637 4.61947 -10.38343 8.55491 -14.17883 14.142809999999999 -1.60856 2.36731 -3.13978 4.34793 -6.04755 5.43398 -2.6001600000000002 0.9708 -3.05814 4.34109 -5.47184 6.17046 -5.6857999999999995 4.30833 -11.33465 8.93991 -15.90081 14.36618 -3.85899 4.5833 -8.8376 7.9198900000000005 -12.56512 12.70002 -1.52865 1.95739 -4.11763 4.4295 -6.87331 5.91949 -1.37054 0.7428 -3.14838 1.67129 -2.6852300000000002 3.89166 -3.2239899999999997 0.4923 -3.1861699999999997 5.6703 -7.08383 5.01816 -1.2313399999999999 -0.20650000000000002 -1.77096 0.3843 -1.8293899999999998 1.12822 -0.1461 1.8586 -2.36558 1.8035899999999998 -2.87426 3.37523 -0.1038 0.32210000000000005 -1.7933 0.2505 -2.73077 0.1552 -1.27687 -0.12840000000000001 -0.9014 -1.28116 -0.9332 -2.0219300000000002 -0.1375 -3.1844 -0.063 -6.3585199999999995 1.2098499999999999 -9.36856 13.90043 -14.99093 29.09922 -28.65841 43.76611 -42.867360000000005 31.07469 -30.105469999999997 62.89092 -59.53889 87.47897 -95.5664 7.8941300000000005 -11.56581 14.79064 -23.68926 18.30162 -37.41357 0.4829 -1.88525 1.3164 -2.64999 3.18189 -2.50219 1.8311 0.14550000000000002 3.66822 0.21409999999999998 5.50277 0.3157"/>
<path style="fill:#951c22;fill-opacity:1;fill-rule:evenodd;stroke:none;stroke-width:0.0859271" d="m 504.23926 208.79162000000002 c -4.0463 2.48677 -7.95427 5.24165 -12.17072 7.39576 -6.002 3.0659199999999998 -11.5486 6.8836200000000005 -17.41656 10.08707 -3.3039 1.80358 -6.325089999999999 4.71217 -10.32759 5.01891 -2.9876799999999997 0.229 -4.47851 2.8408299999999995 -6.61552 4.16235 -3.7343900000000003 2.3088800000000003 -7.90701 3.33488 -11.71789 5.2415400000000005 -2.0562300000000002 1.02857 -3.02635 3.13805 -5.39278 3.72929 -4.0729500000000005 1.01787 -8.34009 2.27528 -11.528849999999998 4.94336 -4.9691600000000005 4.15892 -11.196299999999999 5.60159 -16.711100000000002 8.47924 -5.83015 3.0444 -12.10885 5.43666 -17.92955 8.61678 -7.34677 4.01538 -14.94702 7.48256 -22.5026 11.04938 -6.6344199999999995 3.1312 -12.99475 6.707450000000001 -19.2322 10.562180000000001 -1.8096200000000002 1.1188 -4.42181 0.8777 -6.35689 1.8662999999999998 -4.07982 2.0829400000000002 -7.693060000000001 5.162560000000001 -12.17072 6.35949 -2.94988 0.7888000000000001 -6.10856 1.02322 -9.171 1.01573 -0.7803 -0.00183 -1.3997499999999998 -1.29498 0.3317 -2.55806 2.66545 -1.94539 5.15562 -4.4768 5.967639999999999 -8.016219999999999 13.986350000000002 -8.21284 28.676460000000002 -15.06467 43.2179 -22.1967 38.6904 -18.97614 77.89122 -36.96233 114.71871999999999 -59.52337 4.93996 -3.0264200000000003 9.79484 -6.19198 15.04326 -9.517339999999999 0.6849 4.6624 0.3481 8.973410000000001 -0.035 13.28431"/>
<path style="fill:#951c22;fill-opacity:1;fill-rule:evenodd;stroke:none;stroke-width:0.0859271" d="m 371.99827999999997 83.96102 c 0.9813 4.84285 -0.5337000000000001 9.22686 -2.44118 13.55585 -2.3209 5.268190000000001 -4.94511 10.442730000000001 -6.73412 15.88795 -0.8550000000000001 2.60536 -3.50153 4.20526 -3.1707099999999997 7.52205 0.31789999999999996 3.20078 -3.0126 5.218319999999999 -4.14512 7.98947 -3.5762899999999997 8.76459 -9.20537 16.45683 -12.93031 25.10282 -3.26953 7.58821 -8.37962 14.068000000000001 -12.1415 21.3091 -3.13635 6.03464 -7.259130000000001 11.454930000000001 -10.15917 17.6331 -1.33703 2.84843 -2.9266799999999997 5.7029499999999995 -5.138439999999999 8.18019 -1.4977099999999999 1.67815 -3.4594300000000002 3.7756499999999997 -2.95933 6.25984 0.5482 2.7264100000000004 -2.1043600000000002 1.24339 -2.77803 2.7325100000000004 -3.11829 6.8836200000000005 -8.63224 12.43106 -10.84658 19.94798 -0.7725 2.61991 -3.50582 4.667529999999999 -5.362710000000001 6.96174 -3.09251 3.8212400000000004 -5.941 7.698239999999999 -7.93967 12.332270000000001 -0.7562000000000001 1.75381 -4.381419999999999 2.24103 -4.9219 5.133330000000001 -0.6143 -0.9450999999999999 -1.5759 0.1648 -1.96516 -0.18939999999999999 -0.5654 -0.5159 -0.5224 -1.31305 -0.35319999999999996 -2.27794 0.6875 -3.91404 -0.1349 -8.1803 2.97394 -11.52461 0.067 -0.075 0.7167 -1.84565 -0.25170000000000003 -2.6517 10.594809999999999 -17.69153 21.22486 -35.36156 31.77584 -53.078900000000004 C 329.02099 157.06318 345.30848 129.21844 357.6141 99.2763 358.7999 96.38998000000001 359.84735 93.44448 360.87933 90.49716000000001 363.57315 82.8032 363.55682 82.79721 371.9983 83.9615"/>
<path style="fill:#951c22;fill-opacity:1;fill-rule:evenodd;stroke:none;stroke-width:0.0859271" d="m 291.57394 90.08246 c 1.11963 1.6730200000000002 3.44911 -0.7921 4.87379 1.94969 1.6644 3.20249 3.20851 11.47216 3.5212900000000005 14.805219999999998 0.5 5.3336 -1.7761099999999999 10.17473 -1.4178 15.14387 0.128 1.7735100000000001 -1.0045 2.32601 -1.12822 3.63639 -0.41000000000000003 4.34109 -3.05901 8.3857 -1.7915800000000002 13.00592 -4.8463 4.77414 -2.7488200000000003 12.161340000000001 -6.51844 17.31522 -0.8377999999999999 1.14631 -0.635 2.6826299999999996 -0.5817 3.5444500000000003 0.35150000000000003 5.645480000000001 -2.9103499999999998 10.394680000000001 -4.47164 15.28131 -1.44444 4.5197199999999995 -3.61926 9.397029999999999 -5.8817200000000005 13.93655 -2.03991 4.09524 -3.4061399999999997 8.60126 -4.8480099999999995 12.908850000000001 -0.7484999999999999 2.23492 -1.60253 4.7929699999999995 -2.61733 6.783860000000001 -1.80276 3.53942 -2.82443 7.48599 -4.37627 11.02359 -1.84057 4.19242 -4.1554400000000005 8.50685 -5.32319 13.043800000000001 -0.6651 2.58214 -2.98425 3.78763 -3.79283 6.3414 -0.5491 1.7323 0.5328 4.122739999999999 -0.3721 4.41494 -3.48522 1.12051 -1.75292 5.58436 -4.7956 6.7418 -0.3326 0.12739999999999999 -0.513 0.6561 -0.9185 1.20903 -0.6598999999999999 -1.18152 -2.57522 -1.96253 -1.43583 -3.46547 2.85364 -3.76268 -0.1 -6.77872 -0.9245000000000001 -10.0784 6.1394899999999994 -16.18859 12.29101 -32.37132 18.41418 -48.56516 8.939869999999999 -23.640240000000002 17.600459999999998 -47.3707 22.52151 -72.26384999999999 1.74432 -8.82292 2.9533199999999997 -17.68886 1.86462 -26.71301"/>
<path style="fill:#fef8f8;fill-opacity:1;fill-rule:evenodd;stroke:none;stroke-width:0.0859271" d="m 222.16888 240.37766000000002 c -2.0558 8.32457 -4.11161 16.6483 -6.14198 24.86981 -1.4399700000000002 0.032 -1.47116 -0.7406999999999999 -1.40208 -1.4332600000000002 1.4050799999999999 -14.095500000000001 0.9868 -28.25971 1.6198899999999998 -42.36977 1.16604 -25.988609999999998 0.9529 -52.18443 7.865259999999999 -77.60942 1.01048 -3.7146299999999997 2.43088 -7.28231 4.38659 -10.617090000000001 1.18751 -2.02449 2.50993 -4.03519 5.21749 -3.75423 2.8519099999999997 0.2954 3.1698500000000003 2.90697 3.9878799999999996 4.97953 0.3644 0.9215 0.6711 1.8654499999999998 1.0044899999999999 2.79866 0.1101 2.96701 0.2827 5.93243 0.3205 8.89858 0.22249999999999998 17.35643 -3.2437500000000004 34.235060000000004 -6.880190000000001 51.06136 -3.12087 14.436610000000002 -6.637 28.787280000000003 -9.97785 43.17583"/>
<path style="fill:#fef8f8;fill-opacity:1;fill-rule:evenodd;stroke:none;stroke-width:0.0859271" d="m 276.98953 342.98233000000005 c -3.8512600000000003 -9.53532 -8.11582 -18.83345 -15.10427 -26.59355 -13.15373 -14.604220000000002 -29.461840000000002 -22.07298 -49.19878 -21.83151 -1.8243200000000002 0.022000000000000002 -3.64959 0.0034200000000000003 -5.545400000000001 0.0034200000000000003 0.014 -2.4996099999999997 1.67257 -3.1845 3.41329 -3.95438 28.457089999999997 -12.578009999999999 59.798140000000004 2.12243 69.257 32.50715 0.16410000000000002 0.5276000000000001 0.37289999999999995 1.0392700000000001 0.5609999999999999 1.56041 1.2794400000000001 5.17026 2.06826 10.26484 -1.5974 14.93751 -0.7725 0.9847 -1.19868 2.24102 -1.7855599999999998 3.3709499999999997"/>
<path style="fill:#951c22;fill-opacity:1;fill-rule:evenodd;stroke:none;stroke-width:0.0859271" d="m 222.16888 240.37766000000002 c 3.34084 -14.38855 6.85698 -28.73922 9.97785 -43.17583 3.63643 -16.8263 7.10274 -33.704930000000004 6.880190000000001 -51.06136 -0.038 -2.9661500000000003 -0.21059999999999998 -5.931570000000001 -0.3205 -8.89858 5.84305 1.46761 6.7306799999999996 3.66989 7.61487 9.3463 1.08096 6.94805 -0.0025900000000000003 13.8428 0.7424 20.752209999999998 0.3368 3.12521 -1.36367 6.4179200000000005 -1.48999 9.65991 -0.1203 3.07104 -1.99952 6.034739999999999 -0.5757 9.19592 0.46140000000000003 1.0242900000000001 -0.5206999999999999 1.4935100000000001 -1.0200099999999999 2.13099 -0.5851 0.7482 -1.33358 1.2433800000000002 -1.4281 2.45584 -0.5345 6.8991299999999995 -3.07963 13.531759999999998 -3.74814 20.25387 -0.5783 5.8112699999999995 -4.89956 10.76757 -3.2394600000000002 16.862360000000002 0.195 0.716 -3.3649 7.237679999999999 -3.66736 8.34952 -0.7897 2.9129699999999996 -1.3061 5.9100600000000005 -1.74605 8.90202 -0.256 1.73658 -4.64092 6.78739 -6.34227 6.54946 -1.0732300000000001 -0.1499 -2.19115 -1.4281199999999998 -1.79502 -2.72309 0.8842 -2.88888 -0.2793 -5.7477 0.1572 -8.59954"/>
<path style="fill:#fef8f8;fill-opacity:1;fill-rule:evenodd;stroke:none;stroke-width:0.0859271" d="m 249.41637 472.51322000000005 c 5.154769999999999 0 9.45628 0.17559999999999998 13.73631 -0.054000000000000006 3.22398 -0.1744 2.7994999999999997 1.7657999999999998 2.93956 3.82369 0.1632 2.39483 -0.6074999999999999 3.2575 -3.06759 3.19393 -5.83789 -0.15089999999999998 -11.681790000000001 -0.086 -17.523120000000002 -0.054000000000000006 -1.27258 0.005240000000000001 -2.5443 0.1969 -3.81602 0.30720000000000003 -2.1017900000000003 0.182 -2.363 1.5156800000000001 -2.2873799999999997 3.30984 0.087 2.0855 1.51833 1.68682 2.72131 1.6919600000000001 6.7229399999999995 0.022000000000000002 13.445879999999999 0.086 20.16623 -0.01 2.50392 -0.043 3.9621 0.2366 3.8890700000000002 3.42254 -0.06799999999999999 2.97558 -0.8618000000000001 3.87615 -3.8856200000000003 3.7430000000000003 -6.35948 -0.2783 -12.73871 -0.2258 -19.10504 -0.086 -1.33273 0.032 -3.66651 -1.14974 -3.79626 1.93159 -0.1288 3.07362 1.85001 3.05382 3.9440399999999998 3.0573499999999996 6.25895 0.006849999999999999 12.517879999999998 0.064 18.7768 -0.005240000000000001 2.33121 -0.022000000000000002 4.19582 -0.1295 4.02827 3.24219 -0.1452 2.91275 -0.4546 4.86426 -4.0497499999999995 5.026730000000001 -3.86758 0.1734 -7.660400000000001 -1.9911100000000002 -11.35699 -0.8230999999999999 -5.8026599999999995 1.83195 -11.216919999999998 -0.2751 -16.76266 -0.8744000000000001 -6.14293 -0.6647000000000001 -7.815919999999999 -2.73326 -7.882090000000001 -8.8135 -0.049 -4.43473 0.095 -8.87376 -0.057999999999999996 -13.302389999999999 -0.1564 -4.53439 2.22723 -6.84669 6.30362 -7.87013 5.9221 -1.48731 11.965349999999999 -0.5577 17.08488 -0.8466"/>
<path style="fill:#fef8f8;fill-opacity:1;fill-rule:evenodd;stroke:none;stroke-width:0.0859271" d="m 452.38138999999995 472.53634 c 5.01642 0 9.03094 0.1552 13.02741 -0.054000000000000006 2.6817800000000003 -0.1402 3.85555 0.5095000000000001 3.78165 3.45593 -0.067 2.66198 -0.6822 3.6837 -3.61409 3.5497 -5.8370299999999995 -0.2665 -11.695549999999999 -0.09599999999999999 -17.54461 -0.01 -1.3963100000000002 0.022000000000000002 -2.84589 0.2643 -4.1666 0.716 -1.39632 0.4774 -0.977 1.9058 -0.9821000000000001 2.9859599999999995 -0.00687 1.69881 1.28548 1.56298 2.44205 1.56298 6.8527000000000005 0 13.71483 0.2098 20.55549 -0.086 3.4405200000000002 -0.14550000000000002 3.0968099999999996 1.7821799999999999 3.28241 3.98275 0.22849999999999998 2.705 -0.6814 3.2592100000000004 -3.39325 3.1501400000000004 -6.48664 -0.2611 -12.994769999999999 -0.032 -19.49343 0.075 -1.46849 0.022000000000000002 -3.5608299999999997 -1.0457 -3.5006700000000004 2.08636 0.05499999999999999 2.78656 1.6936200000000001 2.84842 3.66994 2.8501399999999997 6.71865 0.0059900000000000005 13.43901 0.17559999999999998 20.151629999999997 -0.01 2.85622 -0.075 2.63538 1.69442 2.4472 3.30471 -0.1753 1.5064600000000001 1.21244 4.11942 -2.1249599999999997 4.01881 -9.83351 -0.29760000000000003 -19.70311 0.7343 -29.49879 -0.7213999999999999 -6.692010000000001 -0.9954000000000001 -8.00583 -2.57774 -8.009269999999999 -9.12122 -0.0017200000000000002 -4.29291 -0.032 -8.5867 0.0008600000000000001 -12.880469999999999 0.038 -5.04129 1.54497 -6.919689999999999 6.450550000000001 -8.06685 5.78976 -1.35331 11.68266 -0.5854 16.51863 -0.7867000000000001"/>
<path style="fill:#fef8f8;fill-opacity:1;fill-rule:evenodd;stroke:none;stroke-width:0.0859271" d="m 349.74144 472.52007 c 4.64007 0 8.50077 0.064 12.35805 -0.022000000000000002 2.29081 -0.043 3.98959 -0.2012 4.00075 3.18451 0.01 3.42843 -1.26827 3.9268799999999997 -4.22417 3.82285 -5.97279 -0.2087 -11.95848 0.032 -17.93558 -0.09599999999999999 -3.0315 -0.064 -4.48195 0.8873 -4.259399999999999 4.17176 0.2302 3.3915 0.14959999999999998 6.8131900000000005 0.032 10.215069999999999 -0.076 2.23493 0.8103 3.12767 3.00746 3.0048000000000004 1.70995 -0.09599999999999999 3.42935 -0.01 5.144450000000001 -0.01 8.15191 0.0017100000000000001 7.67588 -0.064 8.76715 -7.97405 0.8541 -6.19455 6.2133899999999995 -1.55356 9.32826 -2.6947300000000003 1.74431 -0.639 4.57733 -0.8584 4.06864 2.78325 -0.059 0.4206 -0.00963 0.8562000000000001 -0.006880000000000001 1.28544 0.07100000000000001 11.25821 -1.51661 13.20703 -12.769630000000001 13.78596 -7.522919999999999 0.3875 -15.091380000000001 0.5448 -22.60828 -0.5801 -6.74613 -1.01038 -8.34868 -2.7351900000000002 -8.35298 -9.3523 -0.0025700000000000002 -4.14522 -0.031 -8.29118 0.01 -12.4363 0.05499999999999999 -5.42285 1.71768 -7.2900100000000005 7.13195 -8.328 5.66432 -1.08616 11.386210000000002 -0.6412 16.30638 -0.7567"/>
<path style="fill:#fef8f8;fill-opacity:1;fill-rule:evenodd;stroke:none;stroke-width:0.0859271" d="m 421.67447000000004 486.04927000000004 c 0.0034400000000000003 3.14843 -0.12290000000000001 6.303609999999999 0.035 9.444230000000001 0.1985 3.9148899999999998 -1.5759100000000001 6.23822 -5.27421 7.16361 -1.9290699999999998 0.4827 -3.8839099999999998 1.07845 -5.84562 1.16268 -8.42086 0.3596 -16.85632 0.8637 -25.24969 -0.43770000000000003 -5.84218 -0.9055000000000001 -7.56072 -2.87261 -7.600249999999999 -8.71289 -0.044000000000000004 -6.42306 0.06 -12.84955 -0.093 -19.26918 -0.054000000000000006 -2.25473 0.6393 -2.86908 2.88544 -2.93952 10.19352 -0.32210000000000005 10.19267 -0.3992 10.21673 9.72263 0.00883 3.5780600000000002 0.15810000000000002 7.16372 -0.041999999999999996 10.730649999999999 -0.1504 2.70832 0.6788 3.7859100000000003 3.5307500000000003 3.9285799999999997 14.464109999999998 0.7245999999999999 14.46067 0.7908999999999999 14.36271 -13.6754 -0.0025700000000000002 -0.4292 -0.0025700000000000002 -0.8594999999999999 0.00258 -1.28887 0.1006 -10.197849999999999 0.6248 -10.584439999999999 11.03304 -9.41673 1.81478 0.2033 2.0717 0.9397 2.05107 2.4266199999999998 -0.05499999999999999 3.71977 -0.018 7.44125 -0.014 11.16187"/>
<path style="fill:#fef8f8;fill-opacity:1;fill-rule:evenodd;stroke:none;stroke-width:0.0859271" d="m 294.88986 481.67467999999997 c -1.5071599999999998 2.90354 -2.9180800000000002 5.62738 -3.6613499999999997 8.72166 3.10454 0 6.02435 0 9.53533 0 -2.1146599999999998 -3.11483 -3.31507 -6.24774 -5.8739799999999995 -8.72166 z  m 28.343919999999997 22.447580000000002 c -3.27725 0 -5.58784 -0.2205 -7.83999 0.043 -4.22676 0.5052 -7.53667 -0.3361 -9.14179 -4.77499 -0.683 -1.8895400000000002 -2.24527 -2.27785 -4.14855 -2.1945799999999998 -2.99371 0.13169999999999998 -6.020919999999999 0.2858 -8.99056 -0.006849999999999999 -4.37197 -0.4313 -7.848579999999999 0.3136 -9.39613 5.02758 -0.519 1.57926 -1.81994 1.9497999999999998 -3.4173199999999997 1.91458 -3.68628 -0.086 -7.374270000000001 -0.022000000000000002 -11.77116 -0.022000000000000002 4.26542 -6.94976 8.24986 -13.444959999999998 12.2386 -19.93674 0.8936 -1.45562 1.94969 -2.8304400000000003 2.68264 -4.36174 4.05233 -8.46725 11.69726 -8.24291 18.20796 -6.5364 1.6686999999999999 0.43770000000000003 3.18876 1.26479 4.152 2.81407 5.6857999999999995 9.14091 11.366430000000001 18.2862 17.4243 28.033649999999998"/>
<path style="fill:#fef8f8;fill-opacity:1;fill-rule:evenodd;stroke:none;stroke-width:0.0859271" d="m 206.70913 504.11991 c -5.99875 0.032 -12.0066 0.2109 -17.952749999999998 -0.8240999999999999 -5.71106 -0.9954000000000001 -7.533060000000001 -3.1658799999999996 -7.5588500000000005 -8.9718 -0.028 -6.2941899999999995 0.059 -12.590959999999999 -0.059 -18.88333 -0.041 -2.14738 0.4787 -2.9249599999999996 2.82924 -2.99464 10.54189 -0.3115 10.53853 -0.40030000000000004 10.5412 10.002839999999999 0.00069 3.71035 0.2016 7.43525 -0.06 11.12752 -0.1829 2.58983 0.8499 3.24722 3.14708 3.2274199999999995 6.56508 -0.064 13.13714 0.14229999999999998 19.69509 -0.086 3.00548 -0.107 3.50395 1.01359 3.47971 3.69911 -0.022000000000000002 2.54264 -0.1467 4.03423 -3.33329 3.77307 -3.55394 -0.2932 -7.15076 -0.064 -10.728850000000001 -0.064"/>
<path style="fill:#fef8f8;fill-opacity:1;fill-rule:evenodd;stroke:none;stroke-width:0.0859271" d="m 362.38475 431.12471999999997 c 0 6.2880899999999995 -0.15810000000000002 11.57694 0.065 16.84941 0.1169 2.73851 -1.1411200000000001 3.0366999999999997 -3.2987499999999996 2.88974 -2.07256 -0.1413 -4.39946 0.579 -4.246519999999999 -2.9937799999999997 0.21389999999999998 -4.97 0.026 -9.95637 0.08800000000000001 -14.934940000000001 0.032 -2.59925 -0.8851 -5.665170000000001 2.6259300000000003 -6.9154 3.6115199999999996 -1.28545 7.1646 -1.19437 9.83436 1.86116 3.84523 4.40296 7.42153 9.04127 11.12584 13.569659999999999 0.9520000000000001 1.16429 1.95056 2.2925 3.68283 4.32471 0 -6.42649 0.19419999999999998 -11.78148 -0.07 -17.11325 -0.1676 -3.38818 1.75291 -3.1036900000000003 4.0196700000000005 -3.2515 2.6603 -0.1734 3.49896 0.7428 3.40013 3.39064 -0.1865 4.95716 0.028 9.92716 -0.075 14.88775 -0.054000000000000006 2.53568 0.8704000000000001 6.081950000000001 -2.29685 6.90855 -3.5943300000000002 0.9376 -7.69219 1.4066100000000001 -10.64895 -2.2581499999999997 -3.67165 -4.55333 -7.42839 -9.03955 -11.15162 -13.552420000000001 -0.7957000000000001 -0.9654 -1.60168 -1.92132 -3.05471 -3.6621799999999998"/>
<path style="fill:#fef8f8;fill-opacity:1;fill-rule:evenodd;stroke:none;stroke-width:0.0859271" d="m 209.44306999999998 445.89472 c 0 -6.442 0.19630000000000003 -11.967920000000001 -0.075 -17.46901 -0.1574 -3.1947900000000002 1.69431 -2.8485300000000002 3.69512 -2.9644500000000003 2.0988599999999997 -0.12200000000000001 3.51906 0.022000000000000002 3.4220499999999996 2.81064 -0.1776 5.1221000000000005 0.09 10.25886 -0.038 15.38437 -0.062 2.50475 1.15701 5.75968 -2.56605 6.84241 -3.71875 1.08177 -7.38809 1.1248 -10.17934 -2.17659 -3.49784 -4.13569 -6.894019999999999 -8.35894 -10.33446 -12.54536 -0.9912 -1.2055 -1.98303 -2.41024 -3.7894699999999997 -4.606529999999999 0 6.04845 -0.20320000000000002 11.070899999999998 0.073 16.065849999999998 0.17919999999999997 3.2454 -1.21098 3.68369 -3.97646 3.6965399999999997 -2.6815299999999995 0.01 -3.8556299999999997 -0.548 -3.7123 -3.5101 0.23460000000000003 -4.84371 0.033 -9.70635 0.10779999999999999 -14.55948 0.039 -2.59422 -0.8619 -5.6823999999999995 2.6963 -6.86563 3.76936 -1.25366 7.34711 -1.1248 10.1028 2.20581 3.9023000000000003 4.71645 7.71728 9.50524 11.58272 14.25187 0.7652000000000001 0.9397 1.5893099999999998 1.8328 2.99069 3.43966"/>
<path style="fill:#fef8f8;fill-opacity:1;fill-rule:evenodd;stroke:none;stroke-width:0.0859271" d="m 239.6413 357.9998 c -1.2279 0 -2.01327 0.19269999999999998 -2.6405499999999997 -0.043 -1.40319 -0.5202 -2.74106 1.60344 -4.0703499999999995 0.054000000000000006 -1.32587 -1.5501300000000002 -1.17807 -4.01111 -0.7519 -5.1806399999999995 1.28806 -3.53332 -0.9382999999999999 -3.05296 -2.64742 -2.73069 -4.3332999999999995 0.8155999999999999 -5.084300000000001 -1.3912 -4.65552 -4.9365 0.11860000000000001 -0.9836 0.1435 -2.01412 -0.00258 -2.99121 -0.4305 -2.86137 0.7776 -3.94571 3.5470800000000002 -3.48516 3.5616700000000003 0.594 4.9915 -0.8669 4.27057 -4.41237 -0.5388 -2.6517 0.5397 -3.6914000000000002 3.20078 -3.3571400000000002 1.12308 0.1413 2.2839400000000003 0.075 3.42163 -0.0008500000000000001 3.3924 -0.2119 5.900600000000001 0.2451 4.96228 4.75775 -0.46309999999999996 2.22636 0.8634999999999999 3.42854 3.24805 2.9970999999999997 4.08669 -0.7406999999999999 5.3798900000000005 1.1592500000000001 4.7827 4.95116 -0.1101 0.6968000000000001 -0.1134 1.44096 0 2.13613 0.5371 3.27474 -0.6805 4.94603 -4.09098 4.26799 -3.04441 -0.6058 -4.48799 0.6304 -3.87189 3.50849 1.07066 4.999219999999999 -1.7821200000000001 4.97599 -4.70193 4.46556"/>
<path style="fill:#951c22;fill-opacity:1;fill-rule:evenodd;stroke:none;stroke-width:0.0859271" d="m 276.98953 342.98233000000005 c 0.5869 -1.1299299999999999 1.01305 -2.38616 1.7855599999999998 -3.3709499999999997 3.66565 -4.67267 2.87684 -9.767249999999999 1.5973899999999999 -14.93751 2.0459199999999997 -0.32009999999999994 1.71768 1.22101 2.4532100000000003 2.43432 5.641119999999999 9.30584 1.55443 16.90699 -3.37263 24.72981 -4.10647 6.52014 -8.63053 12.868390000000002 -13.85232 18.29392 -2.88457 2.99709 -7.29263 5.68572 -11.798649999999999 7.287439999999999 -5.11438 1.8191099999999998 -10.48912 4.07297 -15.63186 3.3614300000000004 -3.76361 -0.5212 -7.615730000000001 0.032 -11.47128 -1.13421 -3.7953900000000003 -1.14802 -6.92856 -3.0615300000000003 -10.205210000000001 -4.95973 -0.1403 -0.15949999999999998 -0.2772 -0.3233 -0.41009999999999996 -0.48910000000000003 -0.011999999999999999 -0.2911 -0.022000000000000002 -0.5833 -0.03 -0.8712 5.08517 1.5269 10.167489999999999 2.7246900000000003 15.583480000000002 2.4695300000000002 15.527040000000001 -0.7331 28.12051 -6.966139999999999 37.551860000000005 -19.40586 3.57801 -3.90023 5.50365 -8.76191 7.800470000000001 -13.408040000000002"/>
<path style="fill:#fef8f8;fill-opacity:1;fill-rule:evenodd;stroke:none;stroke-width:0.0859271" d="m 329.23749999999995 446.95327 c 12.55053 -0.16799999999999998 10.183230000000002 -0.1487 10.22791 -10.050889999999999 0.0043 -0.8563 -0.10279999999999999 -1.73573 0.051000000000000004 -2.56747 0.6401999999999999 -3.5135199999999998 -1.40663 -4.60823 -4.32386 -4.7543299999999995 -2.8510600000000004 -0.1434 -5.71242 -0.1081 -8.569510000000001 -0.09599999999999999 -7.17061 0.022000000000000002 -7.46276 0.3189 -7.51776 7.36996 -0.07900000000000001 10.09221 -0.07900000000000001 10.09221 10.13338 10.10419 z  m 0.2586 3.8573000000000004 c -4.29637 0.16910000000000003 -8.55663 0.054000000000000006 -12.66566 -1.44097 -3.45256 -1.26061 -5.44778 -3.44137 -5.16938 -7.37082 0.1615 -2.27623 0.01 -4.573980000000001 0.016 -6.861350000000001 0.016 -6.1816 1.74518 -8.35123 7.791869999999999 -9.028310000000001 6.5253000000000005 -0.7299 13.099590000000001 -0.8069999999999999 19.62662 -0.00428 6.06817 0.7449 7.82022 2.90943 7.82022 8.99395 0.0008600000000000001 2.28823 0.0043 4.57559 -0.00601 6.86296 -0.022000000000000002 5.19862 -1.6034100000000002 7.060650000000001 -6.75903 8.15879 -3.5247200000000003 0.7524 -7.08383 0.7888000000000001 -10.654969999999999 0.6902999999999999"/>
<path style="fill:#fef8f8;fill-opacity:1;fill-rule:evenodd;stroke:none;stroke-width:0.0859271" d="m 407.39252 441.36291 c 5.190860000000001 0 9.6436 0 14.79236 0 -2.71959 -3.75594 -5.083450000000001 -7.01944 -7.55386 -10.42988 -2.4386099999999997 3.51362 -4.61342 6.64729 -7.2385 10.42988 z  m -14.173670000000001 8.774 c 5.292249999999999 -7.382910000000001 10.433269999999998 -14.88175 15.93776 -22.1039 2.9687799999999998 -3.89594 8.52912 -3.8040000000000003 11.51595 0.1413 5.0783000000000005 6.70659 9.82491 13.667480000000001 14.679789999999999 20.54253 0.4726 0.6689 1.7855699999999999 1.51235 -0.062 2.192 -2.20317 0.8101999999999999 -5.067120000000001 2.21266 -6.35259 -0.3329 -2.38706 -4.7268300000000005 -6.0295 -5.328340000000001 -10.5699 -4.94506 -2.8407500000000003 0.24080000000000001 -5.72532 0.17229999999999998 -8.5781 0.022000000000000002 -3.4155999999999995 -0.18519999999999998 -6.257200000000001 0.032 -8.20603 3.6733100000000003 -1.73918 3.25322 -5.281090000000001 0.6261 -7.837420000000001 1.7443 -0.1762 -0.3104 -0.35229999999999995 -0.6208 -0.5276000000000001 -0.9311999999999999"/>
<path style="fill:#fef8f8;fill-opacity:1;fill-rule:evenodd;stroke:none;stroke-width:0.0859271" d="m 234.58191 441.32245 c 5.0336099999999995 0 9.57658 0 14.68666 0 -2.67748 -3.7120599999999997 -5.02759 -6.96774 -7.55298 -10.46756 -2.51166 3.6845499999999998 -4.71912 6.923970000000001 -7.13368 10.46756 z  m 29.304589999999997 9.369530000000001 c -4.74404 0.29760000000000003 -8.69326 0.9161999999999999 -10.64638 -3.78078 -0.6015 -1.4487700000000001 -2.08888 -1.23567 -3.3700599999999996 -1.23653 -4.42267 -0.0008600000000000001 -8.85049 0.1263 -13.26714 -0.054000000000000006 -3.27125 -0.1338 -6.02865 0.1359 -7.84257 3.46536 -1.83369 3.36581 -5.20289 0.974 -7.6073900000000005 1.87497 -1.04559 -1.44621 0.064 -2.11205 0.5725 -2.82531 4.4622 -6.2563 8.9519 -12.49377 13.48541 -18.6986 4.07467 -5.5783700000000005 9.48893 -5.5577 13.50087 0.022000000000000002 4.95283 6.8930299999999995 9.87388 13.80929 15.174719999999999 21.227420000000002"/>
<path style="fill:#fef8f8;fill-opacity:1;fill-rule:evenodd;stroke:none;stroke-width:0.0859271" d="m 269.18906 356.39037 c -9.43137 12.439720000000001 -22.02484 18.67291 -37.55187 19.40586 -5.415990000000001 0.2547 -10.49831 -0.9429 -15.583480000000002 -2.4695400000000003 -9.91178 -4.6744900000000005 -15.86697 -9.78031 -18.859280000000002 -16.72579 5.2455799999999995 5.2080400000000004 10.527 8.9399 16.76145 10.94802 18.97795 6.11375 36.18658 2.03039 52.03841 -9.38237 0.9976 -0.7182 1.61714 -2.1052 3.19477 -1.77618"/>
<path style="fill:#fef8f8;fill-opacity:1;fill-rule:evenodd;stroke:none;stroke-width:0.0859271" d="m 458.74944999999997 450.83036999999996 c -4.13739 -0.2077 -9.13836 0.4849 -14.04565 -1.21074 -3.21797 -1.11195 -4.64522 -3.14319 -4.67014 -6.3354 -0.039 -5.1307599999999995 0.1006 -10.26313 0.00258 -15.39132 -0.06 -3.18098 2.15161 -2.33885 3.85984 -2.41196 1.84142 -0.075 3.74814 -0.4602 3.60722 2.6027899999999997 -0.2029 4.42779 0.23460000000000003 8.893450000000001 -0.12290000000000001 13.30143 -0.34540000000000004 4.26371 1.43154 5.61198 5.389340000000001 5.515759999999999 5.28797 -0.1295 10.58279 0.00963 15.87504 0.054000000000000006 1.37742 0.01 2.93011 -0.3639 2.90262 1.98671 -0.028 2.3733199999999997 -1.60254 1.8740100000000002 -2.9524600000000003 1.8825800000000001 -3.00487 0.022000000000000002 -6.00887 0.0060999999999999995 -9.84552 0.0060999999999999995"/>
<path style="fill:#fef8f8;fill-opacity:1;fill-rule:evenodd;stroke:none;stroke-width:0.0859271" d="m 277.69928 425.45516 c 3.85212 0 7.70509 0.043 11.55634 -0.022000000000000002 1.6833200000000001 -0.032 2.65515 0.28150000000000003 2.60618 2.31915 -0.051000000000000004 2.1515400000000002 -1.48397 1.64465 -2.65773 1.71079 -7.91991 0.44949999999999996 -7.89929 0.44310000000000005 -7.89327 8.42263 0.0017200000000000002 2.9885200000000003 -0.5009 6.03035 -0.089 8.95177 0.4897 3.4646100000000004 -0.8172 3.97932 -3.8968000000000003 4.12114 -3.44138 0.15839999999999999 -3.57714 -1.46162 -3.4963699999999998 -4.05488 0.147 -4.70543 -0.08 -9.42197 0.10919999999999999 -14.12472 0.1006 -2.5125599999999997 -0.4416 -3.74385 -3.23602 -3.3640999999999996 -1.68159 0.229 -3.42076 -0.0017200000000000002 -5.1315599999999995 0.054000000000000006 -1.3250000000000002 0.043 -2.16966 -0.228 -2.19287 -1.82424 -0.023 -1.70822 0.7372 -2.21694 2.3398 -2.1894299999999998 3.9930399999999997 0.064 7.98778 0.022000000000000002 11.981679999999999 0.022000000000000002 0 -0.00771 0 -0.01 0 -0.022000000000000002"/>
<path style="fill:#fef8f8;fill-opacity:1;fill-rule:evenodd;stroke:none;stroke-width:0.0859271" d="m 324.57941 390.49057 c -5.022450000000001 5.50195 -9.35662 10.24515 -13.686480000000001 14.99435 -3.30303 3.62001 -3.81947 3.6312499999999996 -7.301229999999999 -0.1081 -4.26371 -4.57988 -8.49561 -9.189079999999999 -13.231919999999999 -14.316310000000001 -0.849 5.14189 -0.2509 9.63496 -0.4726 14.08512 -0.057 1.14202 0.6521 3.04697 -1.41178 2.8485300000000002 -1.57504 -0.1499 -0.7888000000000001 -1.8697300000000001 -0.8069 -2.85539 -0.08800000000000001 -4.866070000000001 -0.065 -9.73471 -0.022000000000000002 -14.6024 0.00772 -0.9182999999999999 -0.4563 -2.13965 0.8455 -2.60364 1.18407 -0.42279999999999995 1.844 0.5630000000000001 2.50478 1.2579399999999998 4.62631 4.87292 9.376370000000001 9.64278 13.762939999999999 14.72538 2.3002700000000003 2.66465 3.34773 2.0674200000000003 5.33608 -0.3436 3.89936 -4.73036 8.22838 -9.10912 12.41131 -13.60316 0.9537 -1.0242900000000001 2.0115600000000002 -2.5408199999999996 3.50325 -1.9599600000000001 1.39546 0.5437000000000001 0.7571 2.24606 0.7622 3.49812 0.02 4.57559 0.08 9.15118 0.077 13.72762 -0.0008600000000000001 1.05427 0.5292 2.6930199999999997 -1.10932 2.76516 -1.8302399999999999 0.086 -1.11533 -1.6497800000000002 -1.12994 -2.6207700000000003 -0.07100000000000001 -4.67267 -0.032 -9.34715 -0.032 -14.8886"/>
<path style="fill:#fef8f8;fill-opacity:1;fill-rule:evenodd;stroke:none;stroke-width:0.0859271" d="m 296.21658 438.09856 c -0.00173 -3.14244 0.2251 -6.303609999999999 -0.064 -9.41769 -0.305 -3.2927099999999996 1.49341 -3.18011 3.86414 -3.2850099999999998 2.73334 -0.1188 3.3692100000000003 0.8916000000000001 3.29531 3.45519 -0.1805 6.256310000000001 -0.23460000000000003 12.52642 -0.01 18.7794 0.1017 2.82349 -0.9641 3.2892900000000003 -3.4456700000000002 3.291 -2.54774 0.0017200000000000002 -3.98272 -0.32009999999999994 -3.70002 -3.4053099999999996 0.2861 -3.11493 0.063 -6.276960000000001 0.061000000000000006 -9.41758"/>
<path style="fill:#fef8f8;fill-opacity:1;fill-rule:evenodd;stroke:none;stroke-width:0.0859271" d="m 418.16521 406.92674 c 1.2828899999999999 0 2.56663 0.01 3.8495299999999997 -0.0017200000000000002 6.7487200000000005 -0.064 7.697349999999999 -0.9975 7.68532 -7.5427100000000005 -0.0025700000000000002 -1.7116500000000001 -0.065 -3.42671 0.018 -5.13494 0.12290000000000001 -2.54435 -0.9546 -4.01025 -3.5041 -4.473380000000001 -5.37817 -0.9761 -10.741750000000001 -0.8873 -16.10102 0.075 -1.6412099999999998 0.2944 -2.81239 1.06603 -3.24546 2.89402 -2.6010299999999997 11.01417 0.05499999999999999 14.39969 11.297699999999999 14.183159999999999 z  m 0.16660000000000003 -18.81206 c 13.82997 -0.09599999999999999 14.48216 0.639 13.695070000000001 14.45899 -0.141 2.47724 -1.07839 4.11075 -3.51356 4.64088 -6.7435599999999996 1.46686 -13.514619999999999 1.3877700000000002 -20.26849 0.086 -2.5993 -0.5031 -3.87102 -2.16536 -3.7593199999999998 -4.87978 0.07100000000000001 -1.70822 -0.00963 -3.4225499999999998 -0.007730000000000001 -5.134189999999999 0.00687 -7.8149999999999995 0.8275 -8.69405 8.72246 -9.1529 1.7039399999999998 -0.09599999999999999 3.4199 -0.01 5.13157 -0.01"/>
<path style="fill:#fef8f8;fill-opacity:1;fill-rule:evenodd;stroke:none;stroke-width:0.0859271" d="m 441.61729 390.20448 c 0 5.6093 0.052 10.542370000000002 -0.054000000000000006 15.47203 -0.016999999999999998 0.7908999999999999 0.641 2.36464 -0.9358 2.36732 -1.5252 0.0025700000000000002 -0.9761 -1.44793 -0.983 -2.34067 -0.035 -4.84285 -0.054000000000000006 -9.68742 0.01 -14.530259999999998 0.014 -1.04677 -0.6917 -2.45584 0.6342000000000001 -3.0857200000000002 1.36367 -0.6476 2.3905000000000003 0.4666 3.38038 1.22883 6.434220000000001 4.95191 12.84267 9.93829 19.29579 14.86623 0.6074999999999999 0.46449999999999997 1.11104 1.3731099999999998 2.51852 0.9258 0 -4.84542 -0.032 -9.78877 0.033 -14.729659999999999 0.00964 -0.8188 -0.6212 -2.28651 1.07066 -2.22722 1.4727899999999998 0.054000000000000006 1.16603 1.33104 1.16689 2.29176 0.0025700000000000002 4.84114 0.00963 9.68313 -0.022000000000000002 14.52427 -0.00687 1.0757700000000001 0.5397 2.35266 -0.7786 3.08475 -1.50201 0.8348 -2.43862 -0.4185 -3.38209 -1.13421 -6.008019999999999 -4.567880000000001 -11.954180000000001 -9.21744 -17.93299 -13.8231 -1.09815 -0.8477 -2.25301 -1.62239 -4.02225 -2.88975"/>
<path style="fill:#fef8f8;fill-opacity:1;fill-rule:evenodd;stroke:none;stroke-width:0.0859271" d="m 194.61694999999997 406.9611 c 0.00129 0.043 0.00266 0.086 0.00335 0.1306 3.26454 -0.1434 6.54489 -0.1391 9.78795 -0.4859 2.1096 -0.2237 3.6485600000000002 -1.26479 3.64082 -3.88214 -0.00883 -2.68777 -1.5584600000000002 -3.32536 -3.74994 -3.6459200000000003 -5.3865099999999995 -0.7877000000000001 -10.81307 0.0025700000000000002 -16.18584 -0.4517 -3.2659100000000003 -0.2761 -3.52438 1.1522999999999999 -3.71832 3.8633 -0.2709 3.7903 0.9038999999999999 5.1436 4.67993 4.52239 1.80113 -0.29760000000000003 3.6915199999999997 -0.054000000000000006 5.54205 -0.054000000000000006 z  m 1.34124 -17.694110000000002 c -3.7899100000000003 0 -6.63486 0.1188 -9.4647 -0.043 -1.94849 -0.1102 -2.2398599999999997 0.9815 -1.94144 2.34238 0.43999999999999995 2.01155 -1.4910200000000002 5.61187 1.2207700000000001 5.82754 6.32165 0.5031 12.761199999999999 0.8498 19.12076 -0.2675 2.1888199999999998 -0.3843 3.12465 -1.54414 3.1477500000000003 -3.7799199999999997 0.025 -2.35608 -1.2778100000000001 -3.2110499999999997 -3.2837 -3.7120599999999997 -3.2340299999999997 -0.8081 -6.50656 -0.16699999999999998 -8.799439999999999 -0.3703 z  m -1.30601 18.82575 c -2.27879 0 -4.55714 0 -6.83559 0 -5.77628 0 -5.78229 -0.0008600000000000001 -5.79234 -5.91777 -0.006359999999999999 -3.7137700000000002 0.1162 -7.43098 -0.026 -11.13961 -0.082 -2.1508 0.46559999999999996 -3.09599 2.81746 -3.03755 6.126009999999999 0.15410000000000001 12.263090000000002 -0.054000000000000006 18.38575 0.16799999999999998 7.175599999999999 0.2579 8.8492 3.38122 5.0324800000000005 9.30242 -0.711 1.1042399999999999 -0.033 1.17039 0.4155 1.46076 2.30285 1.4899799999999999 1.985 3.76622 1.37483 5.751119999999999 -0.7029000000000001 2.28565 -2.89703 3.1371900000000004 -5.11506 3.24209 -3.4115699999999998 0.15839999999999999 -6.83619 0.043 -10.25549 0.043 0 0.043 -0.00034 0.086 -0.00034 0.1295"/>
<path style="fill:#fef8f8;fill-opacity:1;fill-rule:evenodd;stroke:none;stroke-width:0.0859271" d="m 222.388 400.76225999999997 c 6.01317 0 11.467830000000001 0 17.2997 0 -2.6096000000000004 -3.51009 -4.92964 -6.584560000000001 -7.19382 -9.69939 -0.958 -1.3180900000000002 -1.70823 -1.72289 -2.84848 -0.107 -2.27879 3.23599 -4.70193 6.36891 -7.2574000000000005 9.80247 z  m -8.13877 6.89315 c 4.94046 -6.289059999999999 9.75935 -12.54537 14.72594 -18.68148 1.77268 -2.19029 3.43708 -1.11012 4.84886 0.7041999999999999 4.61686 5.93842 9.25006 11.863999999999999 13.97348 17.91845 -2.22638 1.4522 -3.14494 -0.32 -3.90798 -1.6584599999999998 -1.6076899999999998 -2.82177 -3.82976 -3.8366499999999997 -7.05203 -3.4670699999999997 -2.53142 0.29000000000000004 -5.12383 0.107 -7.6879 0.043 -4.65038 -0.09599999999999999 -9.48154 -0.8081 -11.91268 4.75947 -0.4233 0.9697 -1.52091 1.18933 -2.98769 0.37670000000000003"/>
<path style="fill:#fef8f8;fill-opacity:1;fill-rule:evenodd;stroke:none;stroke-width:0.0859271" d="m 346.05602 389.97843 c 0 5.8473299999999995 0.03 10.79764 -0.028999999999999998 15.74613 -0.00964 0.8262999999999999 0.6357999999999999 2.29262 -1.04656 2.22037 -1.41865 -0.064 -1.17721 -1.36015 -1.18235 -2.3243 -0.023 -4.5807199999999995 -0.076 -9.16156 -0.00173 -13.74144 0.02 -1.20902 -0.6092 -2.77285 0.7123 -3.5772 1.5295 -0.9300999999999999 2.7067 0.3735 3.79454 1.20046 6.2477599999999995 4.7569099999999995 12.447410000000001 9.57739 18.67884 14.356660000000002 0.7587 0.5811999999999999 1.61199 1.04141 2.97049 1.90848 0 -5.45121 -0.047 -10.36278 0.049 -15.27188 0.015 -0.762 -0.5706 -2.33286 1.11447 -2.1764900000000003 1.1419700000000002 0.107 0.8103 1.27518 0.8119999999999999 2.0777 0.01 4.85837 0.051000000000000004 9.71834 -0.015 14.575 -0.015 1.0564 0.6865 2.5433899999999996 -0.5345 3.11311 -1.24852 0.5822 -2.3733 -0.4024 -3.42247 -1.2193 -6.98845 -5.4296999999999995 -14.012139999999999 -10.81477 -21.899389999999997 -16.8873"/>
<path style="fill:#fef8f8;fill-opacity:1;fill-rule:evenodd;stroke:none;stroke-width:0.0859271" d="m 264.48799 389.19741 c -1.30266 0 -2.4369 -0.0008500000000000001 -3.57199 0.0008600000000000001 -6.91027 0.01 -7.00564 0.01 -6.8578399999999995 6.8604 0.076 3.50752 -1.62833 8.14241 0.7363999999999999 10.23134 2.48157 2.19115 7.08469 0.6155 10.75636 0.6283 12.95438 0.043 12.93977 -0.032 12.49811 -12.6769 -0.091 -2.59241 -1.18494 -3.85548 -3.55567 -4.52486 -3.3692 -0.9504 -6.789969999999999 -0.2354 -10.00535 -0.5191 z  m -0.666 18.92369 c -2.85621 0 -5.72532 -0.16910000000000003 -8.56522 0.054000000000000006 -2.71272 0.2087 -3.86071 -0.4923 -3.69315 -3.47488 0.2552 -4.56703 0.2029 -9.16156 0.038 -13.7363 -0.083 -2.28223 0.7184 -2.9920600000000004 2.90176 -2.9464699999999997 6.283849999999999 0.12840000000000001 12.577160000000001 -0.054000000000000006 18.85241 0.2205 5.41255 0.2387 6.666220000000001 1.80616 6.6447400000000005 7.10699 -0.007730000000000001 1.99785 -0.00883 3.9957 -0.01 5.99344 -0.0034400000000000003 4.52411 -1.3714000000000002 6.2400400000000005 -5.90062 6.59153 -3.40271 0.2643 -6.84323 0.054000000000000006 -10.26657 0.054000000000000006 0 0.043 0 0.09599999999999999 0 0.1435"/>
<path style="fill:#fef8f8;fill-opacity:1;fill-rule:evenodd;stroke:none;stroke-width:0.0859271" d="m 375.96209999999996 388.22985000000006 c 8.20861 0 16.41724 0 24.624139999999997 0 0.023 0.3329 0.045 0.6679 0.067 1.00075 -2.63882 0 -5.30772 0.2504 -7.90787 -0.064 -2.8682499999999997 -0.3489 -3.32281 0.8488 -3.22571 3.3245000000000005 0.17270000000000002 4.4243500000000004 0.057999999999999996 8.86081 0.057999999999999996 13.292010000000001 0 0.9761 0.22599999999999998 2.27196 -1.22017 2.24274 -1.5707499999999999 -0.032 -1.0242900000000001 -1.4436399999999998 -1.03199 -2.3234399999999997 -0.043 -4.57484 -0.12290000000000001 -9.15385 0.028 -13.723460000000001 0.076 -2.28565 -0.6986000000000001 -2.9576000000000002 -2.9361300000000004 -2.79266 -2.8038000000000003 0.20650000000000002 -5.6325199999999995 0.054000000000000006 -8.45093 0.054000000000000006 -0.0008500000000000001 -0.33390000000000003 -0.0017200000000000002 -0.6689 -0.00343 -1.00288"/>
<path style="fill:#fef8f8;fill-opacity:1;fill-rule:evenodd;stroke:none;stroke-width:0.0859271" d="m 334.14481 398.05822 c -0.00516 -2.69558 -0.022000000000000002 -5.3910599999999995 0.00515 -8.086649999999999 0.00883 -0.8069999999999999 -0.1374 -1.7993000000000001 1.1866599999999998 -1.7563799999999998 0.9322999999999999 0.032 1.1462700000000001 0.6572 1.14798 1.4152799999999999 0.01 5.6762999999999995 0.015 11.35185 0.00687 17.02816 -0.0008500000000000001 0.7856000000000001 -0.3008 1.3396 -1.2373399999999999 1.3259 -0.9881 -0.01 -1.09385 -0.6861 -1.0972899999999999 -1.4127100000000001 -0.014 -2.8381499999999997 -0.00602 -5.67544 -0.011999999999999999 -8.5136"/>
<path style="fill:#951c22;fill-opacity:1;fill-rule:evenodd;stroke:none;stroke-width:0.0859271" d="m 216.49374 374.68685 c -0.36519999999999997 0.3863 -0.9647 0.8188 -1.2570400000000002 0.3147 -0.3954 -0.6839000000000001 0.47530000000000006 -0.6037 0.8489 -0.8006000000000001 0.131 0.1638 0.26780000000000004 0.3265 0.4081 0.4859"/>
<path style="fill:#fef8f8;fill-opacity:1;fill-rule:evenodd;stroke:none;stroke-width:0.0859271" d="m 305.82151 300.73201 c -0.3712 0.5598000000000001 -0.9873 1.2837399999999999 -1.5063 0.7202999999999999 -0.7106 -0.7685 0.4649 -0.9708 0.8387 -1.41175 0.22249999999999998 0.229 0.4451 0.4602 0.6676 0.6913999999999999"/>
<path style="fill:#fef8f8;fill-opacity:1;fill-rule:evenodd;stroke:none;stroke-width:0.0859271" d="m 285.12339000000003 281.69659 c -0.30419999999999997 -0.24080000000000001 -0.5113 -0.4046 -0.7184 -0.5683 0.3558 -0.2109 0.6943 -0.4752 1.0783800000000001 -0.5994 0.11429999999999998 -0.032 0.3567 0.31679999999999997 0.5405 0.4923 -0.305 0.229 -0.6092 0.45699999999999996 -0.9006000000000001 0.6743"/>
<path style="fill:#e2262d;fill-opacity:1;fill-rule:evenodd;stroke:none;stroke-width:0.0859271" d="m 294.88986 481.67467999999997 c 2.55891 2.47392 3.7593199999999998 5.60683 5.8739799999999995 8.72166 -3.51098 0 -6.43079 0 -9.53533 0 0.7432 -3.09428 2.15419 -5.81812 3.6613499999999997 -8.72166"/>
<path style="fill:#e2262d;fill-opacity:1;fill-rule:evenodd;stroke:none;stroke-width:0.0859271" d="m 329.23749999999995 446.95327 c -10.21243 -0.01 -10.21243 -0.01 -10.13337 -10.1042 0.05499999999999999 -7.05111 0.34709999999999996 -7.3492999999999995 7.51776 -7.36996 2.8570800000000003 -0.006849999999999999 5.71844 -0.043 8.5695 0.09599999999999999 2.91723 0.14550000000000002 4.96402 1.24081 4.32386 4.7543299999999995 -0.15209999999999999 0.8316 -0.046 1.71079 -0.051000000000000004 2.56747 -0.045 9.90222 2.32262 9.882530000000001 -10.227900000000002 10.050889999999999"/>
<path style="fill:#e2262d;fill-opacity:1;fill-rule:evenodd;stroke:none;stroke-width:0.0859271" d="m 407.39252 441.36291 c 2.62508 -3.78259 4.7998899999999995 -6.916259999999999 7.2385 -10.42988 2.47041 3.4104400000000004 4.83427 6.67394 7.55386 10.42988 -5.14876 0 -9.6015 0 -14.79236 0"/>
<path style="fill:#e2262d;fill-opacity:1;fill-rule:evenodd;stroke:none;stroke-width:0.0859271" d="m 234.58191 441.32245 c 2.41456 -3.54359 4.62202 -6.783010000000001 7.13368 -10.46756 2.5253900000000002 3.49982 4.8755 6.7555 7.55298 10.46756 -5.11008 0 -9.65305 0 -14.68666 0"/>
<path style="fill:#e2262d;fill-opacity:1;fill-rule:evenodd;stroke:none;stroke-width:0.0859271" d="m 418.16521 406.92674 c -11.242700000000001 0.2162 -13.89872 -3.16899 -11.297699999999999 -14.183159999999999 0.43310000000000004 -1.82852 1.6042500000000002 -2.59926 3.24546 -2.89402 5.35928 -0.9633 10.72285 -1.05212 16.10104 -0.075 2.5494499999999998 0.4634 3.62698 1.92903 3.5041 4.473380000000001 -0.083 1.70822 -0.02 3.4232899999999997 -0.018 5.13494 0.011999999999999999 6.545069999999999 -0.9365999999999999 7.4791300000000005 -7.685309999999999 7.5427100000000005 -1.2829 0.01 -2.5666499999999997 0.0017200000000000002 -3.84954 0.0017200000000000002"/>
<path style="fill:#e2262d;fill-opacity:1;fill-rule:evenodd;stroke:none;stroke-width:0.0859271" d="m 195.95819 389.26698999999996 c 2.29288 0.2033 5.56541 -0.43770000000000003 8.799439999999999 0.3703 2.00589 0.5009 3.30785 1.35598 3.2837 3.7120599999999997 -0.023 2.23578 -0.9589000000000001 3.3959 -3.1477500000000003 3.7799300000000002 -6.35956 1.11708 -12.79911 0.7706000000000001 -19.12076 0.2676 -2.71179 -0.2162 -0.7807 -3.81599 -1.2207700000000001 -5.82754 -0.2984 -1.36112 -0.00705 -2.45241 1.94144 -2.34238 2.82984 0.15949999999999998 5.67479 0.043 9.4647 0.043"/>
<path style="fill:#e2262d;fill-opacity:1;fill-rule:evenodd;stroke:none;stroke-width:0.0859271" d="m 194.61694999999997 406.9611 c -1.85053 0 -3.74092 -0.2462 -5.54205 0.054000000000000006 -3.77606 0.6208 -4.9508600000000005 -0.7321 -4.67993 -4.52239 0.19390000000000002 -2.7110000000000003 0.4524 -4.13997 3.71832 -3.8633 5.37277 0.4538 10.799330000000001 -0.3372 16.18584 0.4517 2.1914800000000003 0.32009999999999994 3.74118 0.9579 3.74994 3.6459200000000003 0.0077399999999999995 2.6173400000000004 -1.53122 3.6579 -3.64082 3.8821299999999996 -3.24306 0.3468 -6.523409999999999 0.3425 -9.78795 0.4859 -0.00069 -0.043 -0.0020599999999999998 -0.086 -0.00335 -0.1306"/>
<path style="fill:#e2262d;fill-opacity:1;fill-rule:evenodd;stroke:none;stroke-width:0.0859271" d="m 222.388 400.76225999999997 c 2.55547 -3.43356 4.97861 -6.56648 7.2574000000000005 -9.80246 1.14025 -1.6198199999999998 1.8904 -1.21502 2.84848 0.107 2.26418 3.11483 4.58422 6.18931 7.19382 9.6994 -5.83187 0 -11.286529999999999 0 -17.2997 0"/>
<path style="fill:#e2262d;fill-opacity:1;fill-rule:evenodd;stroke:none;stroke-width:0.0859271" d="m 264.48799 389.19741 c 3.21539 0.2836 6.63615 -0.4313 10.00535 0.5191 2.37073 0.6689 3.4645799999999998 1.93245 3.55567 4.52486 0.4416 12.642439999999999 0.4563 12.72325 -12.4981 12.6769 -3.67167 -0.01 -8.27479 1.5629899999999999 -10.75637 -0.6283 -2.3647099999999996 -2.08893 -0.6608 -6.72382 -0.7363 -10.23134 -0.1478 -6.84755 -0.052 -6.8501199999999995 6.8578399999999995 -6.86039 1.13509 -0.0017100000000000001 2.26934 -0.0008600000000000001 3.572 -0.0008600000000000001"/>

<!-- left name box -->
<rect class="box" x="720" y="200" width="50" height="70"/>
<rect class="box" x="770" y="200" width="590" height="210"/>
<line class="divider-line" x1="770" x2="1360" y1="270" y2="270"/>
<line class="divider-line" x1="770" x2="1360" y1="340" y2="340"/>
<text class="scoresheet_results_team1_side" x="745" y="250" text-anchor="middle"/>
<text class="scoresheet_results_team1_player1" x="780" y="250"/>
<text class="scoresheet_results_team1_player2" x="780" y="320"/>
<text class="scoresheet_results_team1_name small-text" x="780" y="385"/>
<ellipse class="scoresheet_results_circle_team1" visibility="hidden" cx="1000" cy="300" rx="280" ry="130"/>

<!-- score box -->
<text class="small-text" x="1485" y="190" text-anchor="middle" data-i18n="scoresheet:points"/>
<rect class="box" x="1380" width="210" y="200" height="350"/>
<line class="divider-line" x1="1380" x2="1590" y1="270" y2="270"/>
<line class="divider-line" x1="1380" x2="1590" y1="340" y2="340"/>
<line class="divider-line" x1="1380" x2="1590" y1="410" y2="410"/>
<line class="divider-line" x1="1380" x2="1590" y1="480" y2="480"/>
<text x="1485" y="250" text-anchor="middle">:</text>
<text x="1485" y="320" text-anchor="middle">:</text>
<text x="1485" y="390" text-anchor="middle">:</text>
<text x="1485" y="460" text-anchor="middle">:</text>
<text x="1485" y="530" text-anchor="middle">:</text>

<text class="scoresheet_results_team1_score1" x="1430" y="250" text-anchor="middle"/>
<text class="scoresheet_results_team1_score2" x="1430" y="320" text-anchor="middle"/>
<text class="scoresheet_results_team1_score3" x="1430" y="390" text-anchor="middle"/>
<text class="scoresheet_results_team1_score4" x="1430" y="460" text-anchor="middle"/>
<text class="scoresheet_results_team1_score5" x="1430" y="530" text-anchor="middle"/>
<text class="scoresheet_results_team2_score1" x="1540" y="250" text-anchor="middle"/>
<text class="scoresheet_results_team2_score2" x="1540" y="320" text-anchor="middle"/>
<text class="scoresheet_results_team2_score3" x="1540" y="390" text-anchor="middle"/>
<text class="scoresheet_results_team2_score4" x="1540" y="460" text-anchor="middle"/>
<text class="scoresheet_results_team2_score5" x="1540" y="530" text-anchor="middle"/>

<!-- right name box -->
<rect class="box shaded" x="2200" y="200" width="50" height="70"/>
<rect class="box shaded" x="1610" y="200" width="590" height="210"/>
<line class="divider-line" x1="1610" x2="2200" y1="270" y2="270"/>
<line class="divider-line" x1="1610" x2="2200" y1="340" y2="340"/>
<text class="scoresheet_results_team2_side" x="2225" y="250" text-anchor="middle"/>
<text class="scoresheet_results_team2_player1" x="1620" y="250"/>
<text class="scoresheet_results_team2_player2" x="1620" y="320"/>
<text class="scoresheet_results_team2_name small-text" x="1620" y="385"/>
<ellipse class="scoresheet_results_circle_team2" visibility="hidden" cx="1890" cy="300" rx="280" ry="130"/>

<!-- top right information about match -->
<text class="small-text" x="2280" y="150" data-i18n="scoresheet:Court"/>
<line class="dashed-line" x1="2520" x2="2820" y1="155" y2="155"/>
<text class="scoresheet_court_id" x="2530" y="140"/>
<text class="small-text" x="2280" y="220" data-i18n="scoresheet:Umpire"/>
<line class="dashed-line" x1="2520" x2="2820" y1="225" y2="225"/>
<text class="small-text scoresheet_umpire_name" x="2530" y="210"/>
<text class="small-text" x="2280" y="290" data-i18n="scoresheet:Service judge"/>
<line class="dashed-line" x1="2520" x2="2820" y1="295" y2="295"/>
<text class="small-text scoresheet_service_judge_name" x="2530" y="280"/>
<text class="small-text" x="2280" y="360" data-i18n="scoresheet:Begin"/>
<line class="dashed-line" x1="2520" x2="2820" y1="365" y2="365"/>
<text class="scoresheet_begin_value" x="2530" y="350"/>
<text class="small-text" x="2280" y="430" data-i18n="scoresheet:End"/>
<line class="dashed-line" x1="2520" x2="2820" y1="435" y2="435"/>
<text class="scoresheet_end_value" x="2530" y="420"/>
<text class="small-text" x="2280" y="500" data-i18n="scoresheet:Duration"/>
<line class="dashed-line" x1="2520" x2="2820" y1="505" y2="505"/>
<text class="scoresheet_duration_value" x="2530" y="490"/>

<text class="scoresheet_match_label small-text" x="780" y="500" data-i18n="scoresheet:Match"/>
<text class="scoresheet_match_name" x="880" y="500"/>
<g class="scoresheet_shuttle_counter">
	<text class="small-text" x="1780" y="500" text-anchor="end" data-i18n="scoresheet:Shuttles"/>
	<text class="scoresheet_shuttle_counter_value" x="1790" y="500"/>
</g>
<text class="scoresheet_date_label small-text" x="1880" y="500" data-i18n="scoresheet:Date"/>
<text class="scoresheet_date_value" x="1990" y="500"/>
<text class="scoresheet_scheduled_time_value" x="1990" y="550"/>


<g class="scoresheet_table_container"/>

<text class="small-text" x="1180" y="2000" data-i18n="scoresheet:Umpire"/>
<line class="dashed-line" x1="1420" x2="2020" y1="2005" y2="2005"/>
<text class="small-text" x="2070" y="2000" data-i18n="scoresheet:Referee"/>
<line class="dashed-line" x1="2220" x2="2820" y1="2005" y2="2005"/>

</svg>