<svg xmlns="http://www.w3.org/2000/svg" xmlns:xlink="http://www.w3.org/1999/xlink" version="1.1" viewBox="0 0 297 210">
<style>
	text {
		font-family: Helvetica;
		font-size: 4px;
	}
	text.small-text, text.table_name {font-size: 3px;}
	.divider-line {stroke: #000; stroke-width: 0.2;}
	.box {stroke: #000; stroke-width: 0.5; fill: none;}
	.shade,.box.shaded,.table_longtext_background.shaded {fill: #e0e0e0;}
	.scoresheet_results_circle_team1,.scoresheet_results_circle_team2 {
		stroke: #000; stroke-width: 0.6; fill: none;
	}
	.dashed-line {
		stroke: #000; stroke-width: 0.4; stroke-dasharray: 0.4, 0.4;
	}
	.table {
		stroke: #000; stroke-width: 0.35; fill: none;
	}
	.table_line {
		stroke: #000; stroke-width: 0.1;
	}
	.table_20all_dash {
		stroke: #000; stroke-width: 0.4;
	}
	.editmode-sign {
		stroke: #202020; stroke-width: 0.3; fill: none;
	}
	.table_thick-line {
		stroke: #000; stroke-width: 0.35;
	}
	.table_game_result {
		stroke: #000; stroke-width: 0.4; fill: none;
	}
	.table_longtext_background {
		fill: #fff;
		opacity: 0.75;
	}
</style>

<!-- top left -->
<text class="scoresheet_tournament_name" x="55" y="13"></text>
<text class="scoresheet_event_name" font-weight="bold" y="13"></text>

<!-- NLA logo -->
<path style="fill:#e2262d;fill-opacity:1;fill-rule:evenodd;stroke:none;stroke-width:0.00859271" d="m 28.512339,28.169622 c 0.02913,-0.02173 0.05954,-0.04463 0.09006,-0.06743 -0.01839,-0.01756 -0.04262,-0.05288 -0.05405,-0.04923 -0.03841,0.01242 -0.07227,0.03885 -0.107838,0.05994 0.02071,0.01638 0.04142,0.03275 0.07184,0.05683 z m 4.902743,11.636163 c 0,0.283816 -7.74e-4,0.567545 6.02e-4,0.85136 3.44e-4,0.07257 0.01092,0.139719 0.109729,0.141271 0.09366,10e-4 0.123649,-0.05405 0.123734,-0.13259 8.83e-4,-0.567631 3.44e-4,-1.135186 -6.87e-4,-1.702816 -1.71e-4,-0.07578 -0.02157,-0.138606 -0.114798,-0.141528 -0.132414,-0.0043 -0.117807,0.09494 -0.118666,0.175638 -0.0028,0.269559 -0.001,0.539107 8.6e-5,0.808665 z m 4.181128,-0.982837 c 1.72e-4,0.03339 2.59e-4,0.06689 3.44e-4,0.100288 0.28184,0 0.564713,0.01563 0.845093,-0.0054 0.223755,-0.01648 0.30126,0.05073 0.293613,0.279266 -0.01512,0.45696 -0.0071,0.914862 -0.0028,1.372346 7.72e-4,0.08798 -0.05388,0.22925 0.1032,0.232344 0.144615,0.0032 0.122016,-0.126661 0.122016,-0.224274 0,-0.44312 0.01152,-0.886766 -0.0058,-1.329201 -0.0097,-0.247564 0.03574,-0.367342 0.32257,-0.332451 0.260016,0.03179 0.526904,0.0064 0.790788,0.0064 -0.0022,-0.03329 -0.0043,-0.06679 -0.0067,-0.100074 -0.82069,0 -1.641552,0 -2.462414,0 z m -11.214004,1.989125 c 0,-0.0043 0,-0.0096 0,-0.01434 0.342332,0 0.686385,0.02119 1.026656,-0.0054 0.452923,-0.0351 0.589719,-0.206742 0.590062,-0.659153 1.72e-4,-0.199774 2.58e-4,-0.399559 0.001,-0.599344 0.0022,-0.530084 -0.123219,-0.68681 -0.664475,-0.710699 -0.627525,-0.02761 -1.256856,-0.0096 -1.88524,-0.02205 -0.218341,-0.0043 -0.298512,0.06647 -0.290176,0.294646 0.01658,0.457473 0.02183,0.916927 -0.0038,1.373631 -0.01675,0.298253 0.09804,0.368369 0.369315,0.347488 0.28399,-0.02183 0.5709,-0.0054 0.856522,-0.0054 z m 8.223396,-1.814267 c 0.788726,0.607253 1.491094,1.14576 2.18994,1.68873 0.104912,0.08166 0.217394,0.180187 0.342247,0.12193 0.122102,-0.05694 0.05199,-0.205628 0.05345,-0.311311 0.0065,-0.485666 0.0026,-0.971663 0.0015,-1.4575 -1.72e-4,-0.08027 0.033,-0.197206 -0.08121,-0.20777 -0.168503,-0.01563 -0.109986,0.141432 -0.111447,0.217649 -0.0096,0.49091 -0.0049,0.982067 -0.0049,1.527188 -0.135851,-0.0867 -0.221176,-0.132676 -0.29705,-0.190848 -0.623143,-0.477927 -1.243107,-0.959975 -1.867883,-1.435666 -0.108784,-0.08263 -0.226505,-0.213099 -0.379455,-0.120046 -0.132156,0.08038 -0.06917,0.236818 -0.07123,0.35772 -0.0075,0.457988 -0.0022,0.916072 1.73e-4,1.374144 5.14e-4,0.09643 -0.02363,0.226414 0.118235,0.23243 0.168245,0.0075 0.103713,-0.139451 0.104656,-0.222037 0.0059,-0.494849 0.0029,-0.98988 0.0029,-1.574613 z m -13.180679,1.767698 c 0.146678,0.08134 0.256441,0.0593 0.298769,-0.03767 0.243114,-0.556799 0.72623,-0.485997 1.191268,-0.475947 0.256407,0.0054 0.515648,0.02419 0.76879,-0.0043 0.322227,-0.03693 0.544434,0.06454 0.705203,0.346706 0.0763,0.133875 0.16816,0.311065 0.390798,0.165845 -0.472342,-0.605444 -0.935662,-1.198002 -1.397348,-1.791844 -0.141178,-0.181472 -0.307618,-0.289489 -0.484886,-0.07042 -0.496659,0.613611 -0.978548,1.239241 -1.472594,1.868146 z m -1.959705,0.04377 c 0,-0.0043 3.5e-5,-0.0086 3.5e-5,-0.01295 0.34193,0 0.684391,0.01178 1.025549,-0.0043 0.221803,-0.0107 0.441217,-0.09569 0.511506,-0.324208 0.06102,-0.19849 0.09281,-0.426114 -0.137483,-0.575112 -0.04491,-0.029 -0.112651,-0.03564 -0.04155,-0.146077 0.381672,-0.592119 0.214312,-0.904469 -0.503249,-0.930242 -0.612265,-0.02205 -1.225974,-10e-4 -1.838574,-0.0168 -0.235191,-0.0054 -0.290029,0.08862 -0.281746,0.303755 0.01433,0.370864 0.0022,0.742584 0.0026,1.113961 0.001,0.591691 0.0016,0.591777 0.579234,0.591777 0.227844,0 0.455679,0 0.683559,0 z m 24.696511,-1.788826 c 0.176925,0.126736 0.292411,0.204248 0.402226,0.288974 0.59788,0.460566 1.192497,0.925522 1.793299,1.382311 0.09435,0.0716 0.188008,0.196937 0.338209,0.113421 0.131812,-0.07321 0.07716,-0.200899 0.07786,-0.308476 0.0032,-0.484113 0.0025,-0.968313 0.0022,-1.452427 -8.5e-5,-0.09611 0.03059,-0.224016 -0.116689,-0.229175 -0.169191,-0.0064 -0.106122,0.140842 -0.107066,0.222721 -0.0067,0.49409 -0.0033,0.988425 -0.0033,1.472967 -0.140748,0.04474 -0.191102,-0.04613 -0.251853,-0.09258 -0.645312,-0.492793 -1.286156,-0.991431 -1.929578,-1.486622 -0.09898,-0.0762 -0.201671,-0.187669 -0.338038,-0.122883 -0.132585,0.06304 -0.06203,0.203905 -0.06342,0.308571 -0.0063,0.484285 -0.0046,0.968742 -10e-4,1.453026 6.88e-4,0.08926 -0.05422,0.234324 0.0983,0.234067 0.157677,-2.68e-4 0.09186,-0.157593 0.09358,-0.236732 0.0106,-0.492965 0.0054,-0.986273 0.0054,-1.547203 z M 41.83319,38.811469 c -0.171167,0 -0.342763,-0.0086 -0.513157,10e-4 -0.789497,0.04592 -0.871558,0.133789 -0.872245,0.915289 -1.73e-4,0.171165 0.0078,0.342597 7.72e-4,0.513419 -0.01117,0.271443 0.116002,0.43762 0.375933,0.487978 0.675387,0.130696 1.352492,0.138606 2.026848,-0.0086 0.243517,-0.05298 0.337264,-0.216365 0.351356,-0.464089 0.07871,-1.381968 0.01349,-1.455177 -1.369507,-1.445898 z m -12.211361,4.998388 c 0,0.314062 0.02234,0.630264 -0.0063,0.941758 -0.02826,0.308475 0.115228,0.340702 0.370002,0.340531 0.248158,-1.72e-4 0.354708,-0.04677 0.344568,-0.329101 -0.02242,-0.625298 -0.01702,-1.252309 10e-4,-1.87794 0.0074,-0.256319 -0.0562,-0.357378 -0.329531,-0.345519 -0.237072,0.0107 -0.416919,-7.7e-4 -0.386413,0.328501 0.02895,0.311408 0.0063,0.627525 0.0067,0.94177 z m 2.836112,-4.7608 c 0,0.554145 -0.0039,1.021594 0.0032,1.48886 0.0015,0.09708 -0.07003,0.270244 0.112993,0.262077 0.163864,-0.0075 0.110846,-0.171079 0.110932,-0.276515 3.44e-4,-0.457645 -0.0057,-0.915204 -0.0077,-1.372763 -5.16e-4,-0.125205 0.06333,-0.295417 -0.07622,-0.349811 -0.149169,-0.05812 -0.254945,0.09355 -0.350325,0.195996 -0.418292,0.449404 -0.851194,0.88728 -1.241131,1.360316 -0.198835,0.241109 -0.303581,0.300833 -0.533608,0.03436 -0.438657,-0.50826 -0.913663,-0.985246 -1.376294,-1.472538 -0.06608,-0.06946 -0.132071,-0.168072 -0.250478,-0.125794 -0.130179,0.04645 -0.08378,0.168499 -0.08456,0.260365 -0.0044,0.486767 -0.0067,0.973632 0.0022,1.460239 0.0018,0.09858 -0.07681,0.270587 0.08069,0.285538 0.206396,0.0198 0.135507,-0.17065 0.141178,-0.284853 0.02216,-0.445015 -0.03763,-0.894322 0.04726,-1.408511 0.47363,0.512723 0.896821,0.973643 1.323192,1.43163 0.348176,0.373957 0.399819,0.372833 0.730122,0.01081 0.432987,-0.47492 0.866403,-0.94924 1.368648,-1.499435 z m -4.688013,3.496459 c 0,7.81e-4 0,10e-4 0,0.0022 -0.39939,0 -0.798864,0.0043 -1.198168,-0.0022 -0.160254,-0.0032 -0.236385,0.04816 -0.233979,0.218944 0.0023,0.159572 0.08678,0.186812 0.219286,0.182424 0.171081,-0.0054 0.344997,0.01723 0.513157,-0.0054 0.279435,-0.03799 0.333655,0.0852 0.323602,0.33641 -0.01891,0.470274 0.0038,0.94193 -0.01092,1.412471 -0.008,0.259327 0.0055,0.421298 0.349637,0.405489 0.307964,-0.01413 0.438659,-0.06561 0.38968,-0.412113 -0.04125,-0.292142 0.009,-0.596326 0.0089,-0.895179 -6.02e-4,-0.797929 -0.0026,-0.797319 0.789326,-0.842262 0.117376,-0.0064 0.260617,0.04409 0.265773,-0.171079 0.0049,-0.203819 -0.09228,-0.234837 -0.260618,-0.231915 -0.385125,0.0064 -0.770422,0.0022 -1.155634,0.0022 z m 18.105017,2.537521 c 0.383664,0 0.684066,0.001 0.984553,-6.1e-4 0.134991,-8.83e-4 0.292495,0.04913 0.295245,-0.188257 0.0028,-0.235105 -0.15252,-0.197463 -0.290262,-0.198672 -0.529225,-0.0043 -1.058708,-0.01841 -1.587503,-0.0054 -0.395781,0.0096 -0.573478,-0.125205 -0.538936,-0.551575 0.03575,-0.440798 -0.008,-0.887365 0.01229,-1.330143 0.0141,-0.306335 -0.17658,-0.268178 -0.360723,-0.260279 -0.170823,0.0075 -0.391999,-0.07696 -0.385984,0.241195 0.0099,0.51282 -0.0042,1.026057 -2.58e-4,1.539132 0.0025,0.319222 0.145218,0.522346 0.467013,0.633541 0.490731,0.169537 0.990826,0.100288 1.404566,0.121074 z m -19.486295,-0.0138 c -0.530085,-0.741813 -1.02219,-1.433439 -1.517474,-2.122742 -0.401192,-0.558351 -0.94262,-0.560417 -1.350086,-0.0022 -0.453352,0.620482 -0.902322,1.244228 -1.348541,1.86986 -0.05084,0.07128 -0.161809,0.137909 -0.05725,0.28253 0.240451,-0.09001 0.57737,0.149084 0.760739,-0.187498 0.181392,-0.332963 0.457132,-0.359861 0.784257,-0.346535 0.441665,0.01788 0.884448,0.0054 1.326714,0.0054 0.128118,8.5e-5 0.276857,-0.02119 0.337007,0.123654 0.195312,0.469674 0.590233,0.40781 1.064636,0.378077 z m 12.933235,-0.05555 c 0.01753,0.03115 0.03514,0.06208 0.05276,0.09312 0.255632,-0.111783 0.609824,0.150893 0.783742,-0.174428 0.194882,-0.364506 0.479043,-0.385817 0.820602,-0.367332 0.285279,0.01541 0.573736,0.02215 0.857811,-0.0022 0.454039,-0.03831 0.818284,0.02183 1.05699,0.494506 0.128546,0.25452 0.414942,0.114288 0.635259,0.03329 0.184744,-0.06797 0.05345,-0.152348 0.0062,-0.2192 -0.485489,-0.687506 -0.96015,-1.383595 -1.467979,-2.054254 -0.298683,-0.394581 -0.854718,-0.403776 -1.151596,-0.01413 -0.550448,0.722216 -1.06455,1.472099 -1.593776,2.210391 z m -6.372614,0.06786 c 0.357457,0.0096 0.713368,0.0054 1.06584,-0.06946 0.515563,-0.109815 0.673668,-0.296017 0.675903,-0.815879 10e-4,-0.228737 6.87e-4,-0.457473 6.02e-4,-0.686296 0,-0.608452 -0.175206,-0.824902 -0.782023,-0.899395 -0.652703,-0.08027 -1.310132,-0.07257 -1.962661,4.27e-4 -0.60467,0.06775 -0.777555,0.284672 -0.779188,0.902832 -6.01e-4,0.228736 0.01452,0.458511 -0.0016,0.686135 -0.02784,0.392945 0.171682,0.611021 0.516938,0.737082 0.410903,0.149941 0.83693,0.161029 1.266222,0.144611 z m -8.985141,-9.28159 c 0.29198,0.05105 0.577259,0.05341 0.470193,-0.446556 -0.06161,-0.287775 0.08275,-0.411428 0.387188,-0.350849 0.341045,0.06775 0.462804,-0.09933 0.409098,-0.426798 -0.01134,-0.06946 -0.01101,-0.143925 0,-0.213613 0.05972,-0.379191 -0.06961,-0.569183 -0.478269,-0.495117 -0.238448,0.04313 -0.37112,-0.07706 -0.324805,-0.299709 0.09383,-0.451287 -0.156988,-0.497 -0.496228,-0.475776 -0.113769,0.0075 -0.229856,0.01413 -0.342163,8.6e-5 -0.266117,-0.03339 -0.373955,0.07054 -0.320078,0.335715 0.07209,0.354541 -0.07089,0.500606 -0.427058,0.441236 -0.276944,-0.04602 -0.397758,0.0624 -0.354707,0.348516 0.01461,0.09772 0.01211,0.200727 2.58e-4,0.29912 -0.04287,0.354531 0.03221,0.575198 0.465552,0.493651 0.17091,-0.03221 0.393547,-0.08027 0.264742,0.273069 -0.04262,0.116953 -0.0574,0.36305 0.07519,0.518064 0.132929,0.155356 0.266717,-0.05705 0.407036,-0.0054 0.06273,0.02322 0.141265,0.0043 0.264054,0.0043 z m -3.019823,8.789493 c -0.140138,-0.160686 -0.222542,-0.249971 -0.299069,-0.343967 -0.386544,-0.474662 -0.768042,-0.953542 -1.158272,-1.425187 -0.275568,-0.33306 -0.633343,-0.345947 -1.010279,-0.22058 -0.355824,0.118323 -0.265635,0.42714 -0.269632,0.686563 -0.0075,0.485313 0.01268,0.971578 -0.01078,1.455948 -0.01433,0.296188 0.103081,0.352293 0.37123,0.351009 0.276548,-10e-4 0.415569,-0.04506 0.397646,-0.369654 -0.02759,-0.499494 -0.0073,-1.001738 -0.0073,-1.606583 0.180644,0.219628 0.27983,0.340102 0.378946,0.460652 0.344045,0.418642 0.683662,0.840966 1.033446,1.254535 0.279126,0.330139 0.64606,0.325836 1.017935,0.21766 0.372306,-0.108273 0.250427,-0.433766 0.256605,-0.684241 0.01269,-0.512552 -0.01406,-1.026228 0.0038,-1.538437 0.0097,-0.279437 -0.132318,-0.293266 -0.342204,-0.281065 -0.200082,0.01156 -0.385255,-0.02301 -0.369513,0.296445 0.02716,0.55011 0.0075,1.102702 0.0075,1.746902 z m 15.294168,-1.477001 c 0.145303,0.174087 0.225903,0.26972 0.305471,0.366219 0.372323,0.451287 0.747997,0.899909 1.115162,1.355242 0.295676,0.366475 0.705463,0.319563 1.064896,0.225815 0.316727,-0.08263 0.224355,-0.437288 0.229683,-0.690856 0.01028,-0.496058 -0.01117,-0.993058 0.0075,-1.488774 0.0098,-0.264742 -0.07398,-0.356426 -0.340013,-0.339065 -0.226677,0.01477 -0.418723,-0.0137 -0.401968,0.325151 0.02639,0.533176 0.007,1.068676 0.007,1.711325 -0.173229,-0.203221 -0.273076,-0.316043 -0.368284,-0.432472 -0.370431,-0.452839 -0.72806,-0.91667 -1.112585,-1.356964 -0.266974,-0.305554 -0.622283,-0.314662 -0.983435,-0.186118 -0.351098,0.125024 -0.259414,0.431615 -0.262593,0.691541 -0.0062,0.497856 0.01263,0.996494 -0.0088,1.493495 -0.01529,0.357292 0.217396,0.285281 0.424651,0.299377 0.215764,0.01467 0.341561,-0.01509 0.329875,-0.288974 -0.02234,-0.527248 -0.0065,-1.056132 -0.0065,-1.684942 z m -15.567562,7.299519 c 0.357809,0 0.717491,-0.02258 1.072886,0.0064 0.318661,0.02611 0.331085,-0.123043 0.333328,-0.377306 0.0025,-0.268596 -0.04743,-0.380476 -0.34797,-0.369912 -0.655796,0.02322 -1.313002,0.0032 -1.969509,0.0086 -0.229718,0.0022 -0.333003,-0.06379 -0.314709,-0.322742 0.02611,-0.369226 0.006,-0.741717 0.006,-1.112752 -2.67e-4,-1.040324 6.9e-5,-1.031472 -1.05412,-1.000284 -0.235054,0.0075 -0.286953,0.08477 -0.282923,0.299464 0.01175,0.629237 0.0031,1.258914 0.0059,1.888333 0.0026,0.580592 0.184779,0.797662 0.755885,0.89718 0.594615,0.1035 1.195401,0.08605 1.795275,0.08241 z m 11.652465,2.36e-4 c -0.605787,-0.974745 -1.17385,-1.889275 -1.74243,-2.803366 -0.09633,-0.154928 -0.24833,-0.237588 -0.4152,-0.281407 -0.65107,-0.170651 -1.415563,-0.193084 -1.820796,0.653641 -0.0733,0.15313 -0.1789,0.290611 -0.268264,0.436174 -0.398874,0.649177 -0.797318,1.298698 -1.22386,1.993674 0.439689,0 0.808488,-0.0054 1.177116,0.0022 0.159738,0.0032 0.289832,-0.0335 0.341732,-0.191457 0.154755,-0.471398 0.502416,-0.545892 0.939613,-0.502759 0.296964,0.02932 0.599685,0.01381 0.899056,6.85e-4 0.190328,-0.0086 0.346543,0.0305 0.414855,0.219458 0.160512,0.443902 0.491503,0.528017 0.914179,0.477499 0.225215,-0.02675 0.456274,-0.0043 0.783999,-0.0043 z m 9.84364,-1.8073 c 0,-0.372062 -0.0036,-0.74421 0.0018,-1.116187 0.002,-0.148657 -0.02363,-0.22238 -0.205108,-0.242662 -1.040834,-0.116771 -1.09325,-0.07813 -1.103303,0.941673 -5.16e-4,0.04292 -5.16e-4,0.08595 -2.59e-4,0.128887 0.0099,1.446583 0.01017,1.439968 -1.436271,1.36754 -0.285193,-0.01423 -0.368112,-0.122027 -0.353075,-0.392858 0.01994,-0.356693 0.0051,-0.715259 0.0042,-1.073065 -0.0023,-1.012132 -0.0023,-1.00449 -1.021673,-0.972263 -0.224615,0.0075 -0.293871,0.0685 -0.288544,0.293952 0.01529,0.641963 0.0049,1.284612 0.0093,1.926918 0.0039,0.584027 0.175807,0.780729 0.760025,0.871289 0.839337,0.130192 1.682884,0.07985 2.524969,0.04377 0.196171,-0.0086 0.391656,-0.06797 0.584563,-0.116268 0.36983,-0.09258 0.54727,-0.324873 0.52742,-0.716361 -0.01581,-0.314062 -0.0032,-0.62958 -0.0039,-0.944424 z m -7.192874,-1.35292 c -0.492018,0.01156 -1.064207,-0.03297 -1.630638,0.07567 -0.541428,0.10382 -0.707783,0.290516 -0.713196,0.8328 -0.0042,0.414512 -0.0014,0.829109 -0.001,1.24363 4.29e-4,0.661711 0.160684,0.834171 0.835298,0.93523 0.75169,0.112544 1.508537,0.09686 2.260828,0.05801 1.125301,-0.0579 1.284095,-0.252776 1.276963,-1.378596 -2.57e-4,-0.04292 -0.0052,-0.08648 6.88e-4,-0.128544 0.05087,-0.364165 -0.232434,-0.34217 -0.406865,-0.278325 -0.311486,0.114117 -0.847413,-0.349982 -0.932826,0.269473 -0.109127,0.790961 -0.06152,0.797576 -0.876714,0.797405 -0.171511,-8.6e-5 -0.34345,-0.0086 -0.514446,0.001 -0.219715,0.01231 -0.308392,-0.07696 -0.300744,-0.30048 0.01169,-0.340188 0.01975,-0.682358 -0.0032,-1.021508 -0.02225,-0.328415 0.122789,-0.423533 0.425939,-0.417176 0.59771,0.01252 1.196278,-0.01134 1.793558,0.0096 0.295589,0.0107 0.423449,-0.03949 0.422417,-0.382284 -10e-4,-0.338551 -0.170994,-0.323256 -0.400076,-0.318451 -0.385727,0.0086 -0.771798,0.0022 -1.235805,0.0022 z m 10.263995,0.0022 c -0.483597,0.02012 -1.072887,-0.05673 -1.651863,0.07867 -0.490558,0.114716 -0.641275,0.302556 -0.645055,0.806685 -0.0033,0.429377 -2.58e-4,0.858756 -8.6e-5,1.288047 3.44e-4,0.654348 0.131726,0.812605 0.800927,0.912122 0.979568,0.145638 1.966527,0.04238 2.949878,0.07214 0.333741,0.0096 0.194969,-0.251235 0.212497,-0.401882 0.01882,-0.161028 0.0409,-0.338294 -0.24472,-0.33047 -0.671262,0.01852 -1.343298,0.0022 -2.015163,10e-4 -0.197633,-1.72e-4 -0.361496,-0.0064 -0.366995,-0.285015 -0.006,-0.313205 0.203218,-0.206399 0.350068,-0.208635 0.649866,-0.0107 1.300678,-0.03329 1.949342,-0.0075 0.271187,0.01092 0.362183,-0.04453 0.339326,-0.315014 -0.01856,-0.220057 0.01581,-0.412874 -0.328241,-0.398275 -0.684066,0.02912 -1.370279,0.0086 -2.055549,0.0086 -0.115657,0 -0.244892,0.01359 -0.244205,-0.156298 5.15e-4,-0.108016 -0.04142,-0.250828 0.09821,-0.298596 0.132071,-0.04517 0.27703,-0.06957 0.416661,-0.0716 0.584906,-0.0086 1.170758,-0.02547 1.754461,10e-4 0.293182,0.01338 0.354706,-0.08873 0.361408,-0.35497 0.0074,-0.294646 -0.109986,-0.359604 -0.378164,-0.345593 -0.399648,0.02097 -0.801099,0.0054 -1.302741,0.0054 z m -20.296502,-0.0022 c -0.511954,0.0289 -1.116279,-0.06411 -1.708489,0.08466 -0.407638,0.102323 -0.645999,0.333575 -0.630361,0.787013 0.01529,0.442864 8.83e-4,0.886765 0.0058,1.33024 0.0067,0.608024 0.173917,0.814861 0.788209,0.88135 0.554574,0.05994 1.096001,0.270672 1.676267,0.08744 0.369659,-0.116782 0.748941,0.09965 1.135699,0.08231 0.359519,-0.01627 0.390452,-0.211398 0.404974,-0.502673 0.01675,-0.337193 -0.169705,-0.326703 -0.402826,-0.32422 -0.625893,0.0064 -1.251786,0.001 -1.87768,5.25e-4 -0.209403,-3.54e-4 -0.407294,0.0022 -0.394405,-0.305736 0.01297,-0.308132 0.246353,-0.190409 0.379627,-0.19316 0.636633,-0.01359 1.274556,-0.01884 1.910503,0.0086 0.302376,0.01327 0.381688,-0.07674 0.388563,-0.3743 0.0073,-0.318622 -0.138515,-0.346033 -0.388908,-0.342254 -0.672035,0.0096 -1.344329,0.0043 -2.016623,0.001 -0.120298,-5.13e-4 -0.263452,0.03939 -0.27213,-0.169195 -0.0076,-0.179417 0.01856,-0.312777 0.228737,-0.330983 0.127172,-0.01102 0.254345,-0.03018 0.381602,-0.03072 0.584133,-0.0022 1.168523,-0.0096 1.752312,0.0054 0.24601,0.0064 0.323086,-0.07995 0.306759,-0.319392 -0.01401,-0.205789 0.02844,-0.399816 -0.293956,-0.38237 -0.428002,0.02322 -0.858154,0.0054 -1.373631,0.0054 z M 23.870641,13.724848 c -0.03334,-0.09333 -0.06402,-0.187755 -0.100449,-0.279866 -0.0818,-0.207256 -0.113597,-0.468391 -0.398789,-0.497953 -0.270756,-0.02815 -0.402997,0.172974 -0.521749,0.375423 -0.19557,0.333478 -0.337608,0.690245 -0.438658,1.061709 -0.691232,2.542498 -0.669923,5.162081 -0.786526,7.760942 -0.0633,1.411005 -0.02148,2.827427 -0.161989,4.236977 -0.007,0.06925 -0.0038,0.146858 0.140207,0.143326 0.203038,-0.822151 0.408618,-1.654524 0.614199,-2.486982 -0.04365,0.285185 0.0727,0.571066 -0.01573,0.859954 -0.03961,0.129498 0.07218,0.257272 0.179502,0.27231 0.170135,0.02376 0.608621,-0.481288 0.634228,-0.654946 0.04399,-0.299196 0.09563,-0.598905 0.174604,-0.890202 0.03025,-0.111184 0.386242,-0.76338 0.366737,-0.834952 -0.166011,-0.60948 0.266116,-1.105109 0.323945,-1.686237 0.06685,-0.672211 0.321367,-1.335473 0.374815,-2.025386 0.0094,-0.121246 0.0843,-0.170737 0.14281,-0.245585 0.04992,-0.06379 0.148138,-0.110669 0.102,-0.213098 -0.14238,-0.316118 0.04554,-0.612488 0.05757,-0.919593 0.01263,-0.324198 0.182682,-0.65347 0.148999,-0.96599 -0.07449,-0.690941 0.03385,-1.380416 -0.07424,-2.075222 -0.08842,-0.56764 -0.177182,-0.787868 -0.761487,-0.934629 z m 3.048265,21.914847 c -0.157763,-0.03286 -0.219716,0.105748 -0.319477,0.177619 -1.585183,1.141276 -3.306046,1.549611 -5.203841,0.938237 -0.623445,-0.200812 -1.151587,-0.573998 -1.676145,-1.094802 0.299231,0.694548 0.89475,1.20513 1.885523,1.67214 10e-4,0.02922 0.0022,0.05844 0.0038,0.08809 -0.03753,0.01948 -0.124594,0.01146 -0.08506,0.07985 0.02924,0.05041 0.08919,0.0075 0.125704,-0.03147 0.327665,0.189821 0.640982,0.381171 1.020522,0.495974 0.385554,0.116599 0.770766,0.06122 1.147127,0.113421 0.514274,0.07118 1.051748,-0.154232 1.563187,-0.336144 0.450601,-0.160172 0.891408,-0.429034 1.179864,-0.728744 0.52218,-0.542552 0.974585,-1.177377 1.385232,-1.829391 0.492706,-0.782282 0.901375,-1.542398 0.337264,-2.472982 -0.07356,-0.121331 -0.04072,-0.275488 -0.245322,-0.243432 -0.01882,-0.05202 -0.03969,-0.103285 -0.0561,-0.156041 -0.945887,-3.038472 -4.079992,-4.508515 -6.925701,-3.250715 -0.174072,0.07696 -0.33998,0.145478 -0.341328,0.395439 0.18958,0 0.372107,0.0022 0.554539,-3.43e-4 1.973694,-0.02419 3.604504,0.722729 4.919877,2.183152 0.698846,0.77601 1.125302,1.705823 1.510427,2.659355 -0.229682,0.464612 -0.422246,0.950781 -0.780047,1.340804 z M 37.199828,8.396761 c 0.838821,0 1.677814,0 2.559942,0 -0.37069,0.468219 -0.736826,0.91074 -1.081307,1.36968 -1.914199,2.54997 -3.409503,5.349054 -4.859695,8.175882 -1.486882,2.898153 -2.886636,5.841324 -4.469156,8.690242 -0.255976,0.460738 -0.530514,0.911255 -0.753066,1.397081 0.695667,-0.551222 1.198598,-1.283403 1.874243,-1.84124 -0.127343,0.301005 -0.134733,0.618417 -0.120985,0.936857 0.0032,0.07407 -0.03436,0.189392 0.09332,0.202193 0.09375,0.0096 0.262679,0.0167 0.273076,-0.01552 0.05087,-0.157165 0.272819,-0.151663 0.287427,-0.337524 0.0059,-0.07439 0.05981,-0.133447 0.182939,-0.112821 0.389765,0.06518 0.385984,-0.452582 0.708383,-0.501817 -0.04631,-0.222037 0.131469,-0.314918 0.268522,-0.389167 0.275569,-0.148998 0.534467,-0.396208 0.687331,-0.591947 0.372752,-0.478013 0.870614,-0.811672 1.256513,-1.270002 0.456616,-0.542629 1.0215,-1.005785 1.59008,-1.436619 0.24137,-0.182938 0.287169,-0.519947 0.547184,-0.617046 0.290778,-0.108605 0.4439,-0.306666 0.604755,-0.543399 0.379542,-0.558789 0.941246,-0.952333 1.417884,-1.41428 0.508173,-0.492526 0.992974,-1.012303 1.50974,-1.498129 0.303924,-0.28571 0.520461,-0.670841 0.841312,-0.931109 0.573049,-0.464784 1.007839,-1.064898 1.536806,-1.570407 0.394406,-0.376965 0.732014,-0.91529 1.099953,-1.375182 0.277717,-0.347318 0.639642,-0.71405 0.797748,-1.055866 0.226074,-0.488758 0.715172,-0.783833 0.824557,-1.329554 0.06745,-0.335544 0.539021,-0.497257 0.453351,-0.928015 -0.0051,-0.02569 0.04949,-0.06636 0.08068,-0.09526 0.251509,-0.233638 0.30951,-0.578375 0.493137,-0.85411 0.31329,-0.470199 0.26328,-1.038953 0.340614,-1.56878 0.02389,-0.163255 0.274624,-0.318954 0.04881,-0.505766 1.040235,0.0032 2.080639,5.24e-4 3.120788,0.01391 0.546495,0.0075 0.986959,0.41099 1.016002,0.957653 0.03249,0.613182 0.0092,1.22902 0.02844,1.843145 0.0057,0.178035 -0.110675,0.214383 -0.217912,0.273508 -2.997395,1.649535 -5.483353,3.938209 -7.891891,6.321916 -3.31017,3.276049 -6.349327,6.81015 -9.626414,10.117484 -0.713196,0.719808 -1.470557,1.395797 -2.207554,2.092068 -0.03738,0.04409 -0.154927,0.06432 -0.08387,0.141175 0.0519,0.05629 0.11351,-0.01616 0.150631,-0.07203 0.784687,-0.442275 1.568943,-0.885139 2.35466,-1.325605 0.0593,-0.03318 0.128118,-0.04913 0.192649,-0.0731 -0.0812,0.353942 -0.330218,0.607081 -0.596764,0.801622 -0.173143,0.126308 -0.111189,0.255623 -0.03317,0.255805 0.306244,7.71e-4 0.622113,-0.02269 0.9171,-0.101573 0.447766,-0.119693 0.80909,-0.427654 1.217072,-0.635948 0.193508,-0.0989 0.454727,-0.07471 0.635689,-0.186631 0.623745,-0.385474 1.259778,-0.743097 1.92322,-1.056218 0.755559,-0.356682 1.515583,-0.703399 2.25026,-1.104939 0.58207,-0.318011 1.20994,-0.557237 1.792956,-0.861677 0.55148,-0.287764 1.174194,-0.432032 1.67111,-0.847924 0.318876,-0.266808 0.74559,-0.392602 1.152884,-0.494335 0.236643,-0.05908 0.333655,-0.270073 0.539279,-0.37293 0.381088,-0.190665 0.79835,-0.293266 1.171789,-0.524154 0.213701,-0.132152 0.362783,-0.393372 0.661551,-0.416234 0.40025,-0.03072 0.70237,-0.321533 1.03276,-0.501892 0.586796,-0.320344 1.141455,-0.702115 1.741656,-1.008706 0.421645,-0.215412 0.812441,-0.4909 1.217072,-0.739576 0.01314,1.340985 0.03575,2.681874 0.03721,4.022945 0.003,2.790737 -0.0065,5.581645 -0.0085,8.372391 -0.0026,3.751323 -0.0036,7.502644 -0.0039,11.253955 -1.72e-4,3.536339 -8.83e-4,7.072645 0.0041,10.608983 10e-4,0.827824 -0.441321,1.29553 -1.282205,1.296397 -3.678883,0.0043 -7.357681,0.0022 -11.036566,0.0022 -7.228618,-1.06e-4 -14.457238,-0.01145 -21.685779,0.01455 -0.838967,0.0032 -1.449814,-0.414769 -1.448276,-1.449409 0.02239,-15.100919 0.01537,-30.201924 0.01561,-45.302844 0,-0.906791 0.392172,-1.30163 1.295584,-1.303428 3.834601,-0.0075 7.669202,-0.01413 11.5037,-0.02001 0.123734,-1.71e-4 0.24747,0.0107 0.391828,0.01691 -1.283064,1.595838 -1.724214,3.503844 -2.184869,5.391492 -0.778329,3.189192 -1.179264,6.448491 -1.72284,9.681149 -0.170049,1.011105 -0.35041,2.020496 -0.471739,3.047152 0.350067,-0.916413 0.700048,-1.832827 1.050029,-2.749155 0.08249,0.329967 0.377822,0.631571 0.09245,1.00784 -0.113938,0.150293 0.07758,0.228394 0.143584,0.346546 0.04055,-0.05533 0.0586,-0.108177 0.09185,-0.120903 0.304268,-0.115744 0.131038,-0.562129 0.479559,-0.674179 0.09049,-0.02922 -0.0177,-0.268264 0.03721,-0.441494 0.08086,-0.255377 0.312775,-0.375927 0.379283,-0.63414 0.116775,-0.453695 0.348262,-0.885138 0.532319,-1.304381 0.155184,-0.353759 0.257351,-0.748416 0.437626,-1.102358 0.101477,-0.19909 0.186892,-0.454895 0.261734,-0.678387 0.144186,-0.430759 0.280809,-0.88136 0.484801,-1.290884 0.226246,-0.453953 0.443728,-0.941684 0.588172,-1.393656 0.156129,-0.488662 0.482307,-0.963582 0.447164,-1.52813 -0.0054,-0.08616 -0.0256,-0.239815 0.05817,-0.354445 0.376962,-0.515389 0.167214,-1.254108 0.651844,-1.731522 -0.126744,-0.462022 0.13817,-0.866484 0.179157,-1.300592 0.01237,-0.131038 0.125625,-0.186288 0.112822,-0.363639 -0.03583,-0.496915 0.19179,-0.981028 0.14178,-1.514387 C 29.965561,10.35121 29.811142,9.524244 29.644702,9.203995 29.502235,8.929802 29.269286,9.176275 29.157323,9.009026 29.094513,8.811307 29.031783,8.613588 28.955824,8.374544 c 1.368046,0 2.722343,10e-4 4.07664,-10e-4 0.291637,-6.1e-4 0.207943,0.137653 0.122532,0.291799 -0.580179,1.047452 -1.066871,2.139504 -1.537579,3.239198 -1.104507,2.58074 -2.008374,5.236318 -2.926851,7.885709 -0.797403,2.300436 -1.57341,4.608268 -2.454936,6.878543 -0.02492,0.064 -0.08034,0.121502 0.0026,0.236304 0.630963,-1.043246 1.16689,-2.120506 1.83506,-3.117696 0.09684,0.08059 0.03189,0.258042 0.02517,0.26517 -0.310885,0.33443 -0.228653,0.761058 -0.297394,1.152461 -0.01692,0.09643 -0.02123,0.176238 0.03532,0.227795 0.03892,0.03554 0.135078,-0.07556 0.196516,0.01894 0.05405,-0.289231 0.416575,-0.337951 0.49219,-0.513333 0.199866,-0.463403 0.484715,-0.851103 0.793966,-1.233226 0.185689,-0.229422 0.459024,-0.434184 0.536272,-0.696175 0.221434,-0.751692 0.772828,-1.306436 1.084657,-1.994798 0.06737,-0.148913 0.332624,-6.1e-4 0.277802,-0.273251 -0.05,-0.24842 0.146162,-0.458169 0.295934,-0.625983 0.221176,-0.247724 0.380141,-0.533177 0.513843,-0.81802 0.290005,-0.617817 0.702284,-1.159846 1.015918,-1.76331 0.376189,-0.72411 0.887197,-1.372089 1.21415,-2.130909 0.372494,-0.8646 0.935402,-1.633824 1.293031,-2.510283 0.113253,-0.277114 0.446305,-0.478869 0.414513,-0.798946 -0.03308,-0.331679 0.231573,-0.49167 0.317071,-0.752206 0.178901,-0.544522 0.441321,-1.061976 0.673411,-1.588795 0.190758,-0.4329 0.342247,-0.8713 0.244119,-1.355585" />
<path style="fill:#951c22;fill-opacity:1;fill-rule:evenodd;stroke:none;stroke-width:0.00859271" d="m 46.293926,8.384414 c 0.225816,0.186813 -0.02492,0.342511 -0.04881,0.505766 -0.07733,0.529827 -0.02733,1.098581 -0.340614,1.568781 -0.183626,0.275734 -0.241628,0.620471 -0.493136,0.854111 -0.03119,0.029 -0.08575,0.06957 -0.08068,0.09526 0.08567,0.430758 -0.385898,0.592473 -0.45335,0.928016 -0.109386,0.54572 -0.598484,0.840795 -0.824557,1.329555 -0.158106,0.341815 -0.520032,0.708547 -0.797748,1.055864 -0.36794,0.459893 -0.705548,0.998218 -1.099953,1.375182 -0.528968,0.505509 -0.963758,1.105624 -1.536806,1.570408 -0.320853,0.260268 -0.537389,0.645399 -0.841313,0.931108 -0.516765,0.485826 -1.001566,1.005603 -1.50974,1.49813 -0.476637,0.461947 -1.038343,0.855491 -1.417883,1.414281 -0.160856,0.236731 -0.313978,0.434793 -0.604755,0.543398 -0.260016,0.09708 -0.305814,0.434109 -0.547184,0.617046 -0.56858,0.430833 -1.133465,0.893991 -1.590081,1.436618 -0.385899,0.45833 -0.88376,0.791989 -1.256512,1.270002 -0.152865,0.195739 -0.411763,0.44295 -0.687331,0.591949 -0.137054,0.07428 -0.314838,0.167129 -0.268523,0.389166 -0.322399,0.04923 -0.318617,0.56703 -0.708383,0.501816 -0.123134,-0.02065 -0.177096,0.03843 -0.182939,0.112822 -0.01461,0.18586 -0.236558,0.180359 -0.287426,0.337523 -0.01038,0.03221 -0.17933,0.02505 -0.273077,0.01552 -0.127687,-0.01284 -0.09014,-0.128116 -0.09332,-0.202193 -0.01375,-0.31844 -0.0063,-0.635852 0.120985,-0.936856 1.390043,-1.499093 2.909922,-2.865841 4.376611,-4.286736 3.107469,-3.010547 6.289092,-5.953889 8.747897,-9.55664 0.789413,-1.156581 1.479064,-2.368926 1.830162,-3.741357 0.04829,-0.188525 0.13164,-0.264999 0.318189,-0.250219 0.18311,0.01455 0.366822,0.02141 0.550277,0.03157" />
<path style="fill:#951c22;fill-opacity:1;fill-rule:evenodd;stroke:none;stroke-width:0.00859271" d="m 50.423926,20.879162 c -0.40463,0.248677 -0.795427,0.524165 -1.217072,0.739576 -0.6002,0.306592 -1.15486,0.688362 -1.741656,1.008707 -0.33039,0.180358 -0.632509,0.471217 -1.032759,0.501891 -0.298768,0.0229 -0.447851,0.284083 -0.661552,0.416235 -0.373439,0.230888 -0.790701,0.333488 -1.171789,0.524154 -0.205623,0.102857 -0.302635,0.313805 -0.539278,0.372929 -0.407295,0.101787 -0.834009,0.227528 -1.152885,0.494336 -0.496916,0.415892 -1.11963,0.560159 -1.67111,0.847924 -0.583015,0.30444 -1.210885,0.543666 -1.792955,0.861678 -0.734677,0.401538 -1.494702,0.748256 -2.25026,1.104938 -0.663442,0.31312 -1.299475,0.670745 -1.92322,1.056218 -0.180962,0.11188 -0.442181,0.08777 -0.635689,0.18663 -0.407982,0.208294 -0.769306,0.516256 -1.217072,0.635949 -0.294988,0.07888 -0.610856,0.102322 -0.9171,0.101573 -0.07803,-1.83e-4 -0.139975,-0.129498 0.03317,-0.255806 0.266545,-0.194539 0.515562,-0.44768 0.596764,-0.801622 1.398635,-0.821284 2.867646,-1.506467 4.32179,-2.21967 3.86904,-1.897614 7.789122,-3.696233 11.471872,-5.952337 0.493996,-0.302642 0.979484,-0.619198 1.504326,-0.951734 0.06849,0.46624 0.03481,0.897341 -0.0035,1.328431" />
<path style="fill:#951c22;fill-opacity:1;fill-rule:evenodd;stroke:none;stroke-width:0.00859271" d="m 37.199828,8.396102 c 0.09813,0.484285 -0.05337,0.922686 -0.244118,1.355585 -0.23209,0.526819 -0.494511,1.044273 -0.673412,1.588795 -0.0855,0.260536 -0.350153,0.420526 -0.317071,0.752205 0.03179,0.320078 -0.30126,0.521832 -0.414512,0.798947 -0.357629,0.876459 -0.920537,1.645683 -1.293031,2.510282 -0.326953,0.758821 -0.837962,1.4068 -1.21415,2.13091 -0.313635,0.603464 -0.725913,1.145493 -1.015917,1.76331 -0.133703,0.284843 -0.292668,0.570295 -0.513844,0.818019 -0.149771,0.167815 -0.345943,0.377565 -0.295933,0.625984 0.05482,0.272641 -0.210436,0.124339 -0.277803,0.273251 -0.311829,0.688362 -0.863224,1.243106 -1.084658,1.994798 -0.07725,0.261991 -0.350582,0.466753 -0.536271,0.696174 -0.309251,0.382124 -0.5941,0.769824 -0.793967,1.233227 -0.07562,0.175381 -0.438142,0.224103 -0.49219,0.513333 -0.06143,-0.09451 -0.15759,0.01648 -0.196516,-0.01894 -0.05654,-0.05159 -0.05224,-0.131305 -0.03532,-0.227794 0.06875,-0.391404 -0.01349,-0.81803 0.297394,-1.152461 0.0067,-0.0075 0.07167,-0.184565 -0.02517,-0.26517 1.059481,-1.769153 2.122486,-3.536156 3.177584,-5.30789 C 32.902099,15.706318 34.530848,12.921844 35.76141,9.92763 35.87999,9.638998 35.984735,9.344448 36.087933,9.049716 36.357315,8.28032 36.355682,8.279721 37.19983,8.39615" />
<path style="fill:#951c22;fill-opacity:1;fill-rule:evenodd;stroke:none;stroke-width:0.00859271" d="m 29.157394,9.008246 c 0.111963,0.167302 0.344911,-0.07921 0.487379,0.194969 0.16644,0.320249 0.320851,1.147216 0.352129,1.480522 0.05,0.53336 -0.177611,1.017473 -0.14178,1.514387 0.0128,0.177351 -0.10045,0.232601 -0.112822,0.363639 -0.041,0.434109 -0.305901,0.83857 -0.179158,1.300592 -0.48463,0.477414 -0.274882,1.216134 -0.651844,1.731522 -0.08378,0.114631 -0.0635,0.268263 -0.05817,0.354445 0.03515,0.564548 -0.291035,1.039468 -0.447164,1.528131 -0.144444,0.451972 -0.361926,0.939703 -0.588172,1.393655 -0.203991,0.409524 -0.340614,0.860126 -0.484801,1.290885 -0.07485,0.223492 -0.160253,0.479297 -0.261733,0.678386 -0.180276,0.353942 -0.282443,0.748599 -0.437627,1.102359 -0.184057,0.419242 -0.415544,0.850685 -0.532319,1.30438 -0.06651,0.258214 -0.298425,0.378763 -0.379283,0.63414 -0.05491,0.17323 0.05328,0.412274 -0.03721,0.441494 -0.348522,0.112051 -0.175292,0.558436 -0.47956,0.67418 -0.03326,0.01274 -0.0513,0.06561 -0.09185,0.120903 -0.06599,-0.118152 -0.257522,-0.196253 -0.143583,-0.346547 0.285364,-0.376268 -0.01,-0.677872 -0.09245,-1.00784 0.613949,-1.618859 1.229101,-3.237132 1.841418,-4.856516 0.893987,-2.364024 1.760046,-4.73707 2.252151,-7.226385 0.174432,-0.882292 0.295332,-1.768886 0.186462,-2.671301" />
<path style="fill:#fef8f8;fill-opacity:1;fill-rule:evenodd;stroke:none;stroke-width:0.00859271" d="m 22.216888,24.037766 c -0.20558,0.832457 -0.411161,1.66483 -0.614198,2.486981 -0.143997,0.0032 -0.147116,-0.07407 -0.140208,-0.143326 0.140508,-1.40955 0.09868,-2.825971 0.161989,-4.236977 0.116604,-2.598861 0.09529,-5.218443 0.786526,-7.760942 0.101048,-0.371463 0.243088,-0.728231 0.438659,-1.061709 0.118751,-0.202449 0.250993,-0.403519 0.521749,-0.375423 0.285191,0.02954 0.316985,0.290697 0.398788,0.497953 0.03644,0.09215 0.06711,0.186545 0.100449,0.279866 0.01101,0.296701 0.02827,0.593243 0.03205,0.889858 0.02225,1.735643 -0.324375,3.423506 -0.688019,5.106136 -0.312087,1.443661 -0.6637,2.878728 -0.997785,4.317583" />
<path style="fill:#fef8f8;fill-opacity:1;fill-rule:evenodd;stroke:none;stroke-width:0.00859271" d="m 27.698953,34.298233 c -0.385126,-0.953532 -0.811582,-1.883345 -1.510427,-2.659355 -1.315373,-1.460422 -2.946184,-2.207298 -4.919878,-2.183151 -0.182432,0.0022 -0.364959,3.42e-4 -0.55454,3.42e-4 0.0014,-0.249961 0.167257,-0.31845 0.341329,-0.395438 2.845709,-1.257801 5.979814,0.212243 6.9257,3.250715 0.01641,0.05276 0.03729,0.103927 0.0561,0.156041 0.127944,0.517026 0.206826,1.026484 -0.15974,1.493751 -0.07725,0.09847 -0.119868,0.224102 -0.178556,0.337095" />
<path style="fill:#951c22;fill-opacity:1;fill-rule:evenodd;stroke:none;stroke-width:0.00859271" d="m 22.216888,24.037766 c 0.334084,-1.438855 0.685698,-2.873922 0.997785,-4.317583 0.363643,-1.68263 0.710274,-3.370493 0.688019,-5.106136 -0.0038,-0.296615 -0.02106,-0.593157 -0.03205,-0.889858 0.584305,0.146761 0.673068,0.366989 0.761487,0.93463 0.108096,0.694805 -2.59e-4,1.38428 0.07424,2.075221 0.03368,0.312521 -0.136367,0.641792 -0.148999,0.965991 -0.01203,0.307104 -0.199952,0.603474 -0.05757,0.919592 0.04614,0.102429 -0.05207,0.149351 -0.102001,0.213099 -0.05851,0.07482 -0.133358,0.124338 -0.14281,0.245584 -0.05345,0.689913 -0.307963,1.353176 -0.374814,2.025387 -0.05783,0.581127 -0.489956,1.076757 -0.323946,1.686236 0.0195,0.0716 -0.33649,0.723768 -0.366736,0.834952 -0.07897,0.291297 -0.13061,0.591006 -0.174605,0.890202 -0.0256,0.173658 -0.464092,0.678739 -0.634227,0.654946 -0.107323,-0.01499 -0.219115,-0.142812 -0.179502,-0.272309 0.08842,-0.288888 -0.02793,-0.57477 0.01572,-0.859954" />
<path style="fill:#fef8f8;fill-opacity:1;fill-rule:evenodd;stroke:none;stroke-width:0.00859271" d="m 24.941637,47.251322 c 0.515477,0 0.945628,0.01756 1.373631,-0.0054 0.322398,-0.01744 0.27995,0.17658 0.293956,0.382369 0.01632,0.239483 -0.06075,0.32575 -0.306759,0.319393 -0.583789,-0.01509 -1.168179,-0.0086 -1.752312,-0.0054 -0.127258,5.24e-4 -0.25443,0.01969 -0.381602,0.03072 -0.210179,0.0182 -0.2363,0.151568 -0.228738,0.330984 0.0087,0.20855 0.151833,0.168682 0.272131,0.169196 0.672294,0.0022 1.344588,0.0086 2.016623,-0.001 0.250392,-0.0043 0.39621,0.02366 0.388907,0.342254 -0.0068,0.297558 -0.08618,0.387615 -0.388562,0.3743 -0.635948,-0.02783 -1.273871,-0.02258 -1.910504,-0.0086 -0.133273,0.0032 -0.366651,-0.114974 -0.379626,0.193159 -0.01288,0.307362 0.185001,0.305382 0.394404,0.305735 0.625895,6.85e-4 1.251788,0.0064 1.87768,-5.24e-4 0.233121,-0.0022 0.419582,-0.01295 0.402827,0.324219 -0.01452,0.291275 -0.04546,0.486426 -0.404975,0.502673 -0.386758,0.01734 -0.76604,-0.199111 -1.135699,-0.08231 -0.580266,0.183195 -1.121692,-0.02751 -1.676266,-0.08744 -0.614293,-0.06647 -0.781592,-0.273326 -0.788209,-0.88135 -0.0049,-0.443473 0.0095,-0.887376 -0.0058,-1.330239 -0.01564,-0.453439 0.222723,-0.684669 0.630362,-0.787013 0.59221,-0.148731 1.196535,-0.05577 1.708488,-0.08466" />
<path style="fill:#fef8f8;fill-opacity:1;fill-rule:evenodd;stroke:none;stroke-width:0.00859271" d="m 45.238139,47.253634 c 0.501642,0 0.903094,0.01552 1.302741,-0.0054 0.268178,-0.01402 0.385555,0.05095 0.378165,0.345593 -0.0067,0.266198 -0.06822,0.36837 -0.361409,0.35497 -0.583703,-0.02665 -1.169555,-0.0096 -1.754461,-10e-4 -0.139631,0.0022 -0.284589,0.02643 -0.41666,0.0716 -0.139632,0.04774 -0.0977,0.19058 -0.09821,0.298596 -6.87e-4,0.169881 0.128548,0.156298 0.244205,0.156298 0.68527,0 1.371483,0.02098 2.055549,-0.0086 0.344052,-0.01455 0.309681,0.178218 0.328241,0.398275 0.02285,0.2705 -0.06814,0.325921 -0.339325,0.315014 -0.648664,-0.02611 -1.299477,-0.0032 -1.949343,0.0075 -0.146849,0.0022 -0.356083,-0.10457 -0.350067,0.208636 0.0055,0.278656 0.169362,0.284842 0.366994,0.285014 0.671865,5.99e-4 1.343901,0.01756 2.015163,-10e-4 0.285622,-0.0075 0.263538,0.169442 0.24472,0.330471 -0.01753,0.150646 0.121244,0.411942 -0.212496,0.401881 -0.983351,-0.02976 -1.970311,0.07343 -2.949879,-0.07214 -0.669201,-0.09954 -0.800583,-0.257774 -0.800927,-0.912122 -1.72e-4,-0.429291 -0.0032,-0.85867 8.6e-5,-1.288047 0.0038,-0.504129 0.154497,-0.691969 0.645055,-0.806685 0.578976,-0.135331 1.168266,-0.05854 1.651863,-0.07867" />
<path style="fill:#fef8f8;fill-opacity:1;fill-rule:evenodd;stroke:none;stroke-width:0.00859271" d="m 34.974144,47.252007 c 0.464007,0 0.850077,0.0064 1.235805,-0.0022 0.229081,-0.0043 0.398959,-0.02012 0.400075,0.318451 10e-4,0.342843 -0.126827,0.392688 -0.422417,0.382285 -0.597279,-0.02087 -1.195848,0.0032 -1.793558,-0.0096 -0.30315,-0.0064 -0.448195,0.08873 -0.42594,0.417176 0.02302,0.33915 0.01496,0.681319 0.0032,1.021507 -0.0076,0.223493 0.08103,0.312767 0.300746,0.30048 0.170995,-0.0096 0.342935,-0.001 0.514445,-0.001 0.815191,1.71e-4 0.767588,-0.0064 0.876715,-0.797405 0.08541,-0.619455 0.621339,-0.155356 0.932826,-0.269473 0.174431,-0.0639 0.457733,-0.08584 0.406864,0.278325 -0.0059,0.04206 -9.63e-4,0.08562 -6.88e-4,0.128544 0.0071,1.125821 -0.151661,1.320703 -1.276963,1.378596 -0.752292,0.03875 -1.509138,0.05448 -2.260828,-0.05801 -0.674613,-0.101038 -0.834868,-0.273519 -0.835298,-0.93523 -2.57e-4,-0.414522 -0.0031,-0.829118 10e-4,-1.24363 0.0055,-0.542285 0.171768,-0.729001 0.713195,-0.8328 0.566432,-0.108616 1.138621,-0.06412 1.630638,-0.07567" />
<path style="fill:#fef8f8;fill-opacity:1;fill-rule:evenodd;stroke:none;stroke-width:0.00859271" d="m 42.167447,48.604927 c 3.44e-4,0.314843 -0.01229,0.630361 0.0035,0.944423 0.01985,0.391489 -0.157591,0.623822 -0.527421,0.716361 -0.192907,0.04827 -0.388391,0.107845 -0.584562,0.116268 -0.842086,0.03596 -1.685632,0.08637 -2.524969,-0.04377 -0.584218,-0.09055 -0.756072,-0.287261 -0.760025,-0.871289 -0.0044,-0.642306 0.006,-1.284955 -0.0093,-1.926918 -0.0054,-0.225473 0.06393,-0.286908 0.288544,-0.293952 1.019352,-0.03221 1.019267,-0.03992 1.021673,0.972263 8.83e-4,0.357806 0.01581,0.716372 -0.0042,1.073065 -0.01504,0.270832 0.06788,0.378591 0.353075,0.392858 1.446411,0.07246 1.446067,0.07909 1.436271,-1.36754 -2.57e-4,-0.04292 -2.57e-4,-0.08595 2.58e-4,-0.128887 0.01006,-1.019785 0.06248,-1.058444 1.103304,-0.941673 0.181478,0.02033 0.20717,0.09397 0.205107,0.242662 -0.0055,0.371977 -0.0018,0.744125 -0.0014,1.116187" />
<path style="fill:#fef8f8;fill-opacity:1;fill-rule:evenodd;stroke:none;stroke-width:0.00859271" d="m 29.488986,48.167468 c -0.150716,0.290354 -0.291808,0.562738 -0.366135,0.872166 0.310454,0 0.602435,0 0.953533,0 -0.211466,-0.311483 -0.331507,-0.624774 -0.587398,-0.872166 z m 2.834392,2.244758 c -0.327725,0 -0.558784,-0.02205 -0.783999,0.0043 -0.422676,0.05052 -0.753667,-0.03361 -0.914179,-0.477499 -0.0683,-0.188954 -0.224527,-0.227785 -0.414855,-0.219458 -0.299371,0.01317 -0.602092,0.02858 -0.899056,-6.85e-4 -0.437197,-0.04313 -0.784858,0.03136 -0.939613,0.502758 -0.0519,0.157926 -0.181994,0.19498 -0.341732,0.191458 -0.368628,-0.0086 -0.737427,-0.0022 -1.177116,-0.0022 0.426542,-0.694976 0.824986,-1.344496 1.22386,-1.993674 0.08936,-0.145562 0.194969,-0.283044 0.268264,-0.436174 0.405233,-0.846725 1.169726,-0.824291 1.820796,-0.65364 0.16687,0.04377 0.318876,0.126479 0.4152,0.281407 0.56858,0.914091 1.136643,1.82862 1.74243,2.803365" />
<path style="fill:#fef8f8;fill-opacity:1;fill-rule:evenodd;stroke:none;stroke-width:0.00859271" d="m 20.670913,50.411991 c -0.599875,0.0032 -1.20066,0.02109 -1.795275,-0.08241 -0.571106,-0.09954 -0.753306,-0.316588 -0.755885,-0.89718 -0.0028,-0.629419 0.0059,-1.259096 -0.0059,-1.888333 -0.0041,-0.214738 0.04787,-0.292496 0.282924,-0.299464 1.054189,-0.03115 1.053853,-0.04003 1.05412,1.000284 6.9e-5,0.371035 0.02016,0.743525 -0.006,1.112752 -0.01829,0.258983 0.08499,0.324722 0.314708,0.322742 0.656508,-0.0064 1.313714,0.01423 1.969509,-0.0086 0.300548,-0.0107 0.350395,0.101359 0.347971,0.369911 -0.0022,0.254264 -0.01467,0.403423 -0.333329,0.377307 -0.355394,-0.02932 -0.715076,-0.0064 -1.072885,-0.0064" />
<path style="fill:#fef8f8;fill-opacity:1;fill-rule:evenodd;stroke:none;stroke-width:0.00859271" d="m 36.238475,43.112472 c 0,0.628809 -0.01581,1.157694 0.0065,1.684941 0.01169,0.273851 -0.114112,0.30367 -0.329875,0.288974 -0.207256,-0.01413 -0.439946,0.0579 -0.424652,-0.299378 0.02139,-0.497 0.0026,-0.995637 0.0088,-1.493494 0.0032,-0.259925 -0.08851,-0.566517 0.262593,-0.69154 0.361152,-0.128545 0.71646,-0.119437 0.983436,0.186116 0.384523,0.440296 0.742153,0.904127 1.112584,1.356966 0.0952,0.116429 0.195056,0.22925 0.368283,0.432471 0,-0.642649 0.01942,-1.178148 -0.007,-1.711325 -0.01676,-0.338818 0.175291,-0.310369 0.401967,-0.32515 0.26603,-0.01734 0.349896,0.07428 0.340013,0.339064 -0.01865,0.495716 0.0028,0.992716 -0.0075,1.488775 -0.0054,0.253568 0.08704,0.608195 -0.229685,0.690855 -0.359433,0.09376 -0.769219,0.140661 -1.064895,-0.225815 -0.367165,-0.455333 -0.742839,-0.903955 -1.115162,-1.355242 -0.07957,-0.09654 -0.160168,-0.192132 -0.305471,-0.366218" />
<path style="fill:#fef8f8;fill-opacity:1;fill-rule:evenodd;stroke:none;stroke-width:0.00859271" d="m 20.944307,44.589472 c 0,-0.6442 0.01963,-1.196792 -0.0075,-1.746901 -0.01574,-0.319479 0.169431,-0.284853 0.369512,-0.296445 0.209886,-0.0122 0.351906,0.0022 0.342205,0.281064 -0.01776,0.51221 0.009,1.025886 -0.0038,1.538437 -0.0062,0.250475 0.115701,0.575968 -0.256605,0.684241 -0.371875,0.108177 -0.738809,0.11248 -1.017934,-0.217659 -0.349784,-0.413569 -0.689402,-0.835894 -1.033446,-1.254536 -0.09912,-0.12055 -0.198303,-0.241024 -0.378947,-0.460653 0,0.604845 -0.02032,1.10709 0.0073,1.606585 0.01792,0.32454 -0.121098,0.368369 -0.397646,0.369654 -0.268153,10e-4 -0.385563,-0.0548 -0.37123,-0.35101 0.02346,-0.484371 0.0033,-0.970635 0.01078,-1.455948 0.0039,-0.259422 -0.08619,-0.56824 0.26963,-0.686563 0.376936,-0.125366 0.734711,-0.11248 1.01028,0.220581 0.39023,0.471645 0.771728,0.950524 1.158272,1.425187 0.07652,0.09397 0.158931,0.18328 0.299069,0.343966" />
<path style="fill:#fef8f8;fill-opacity:1;fill-rule:evenodd;stroke:none;stroke-width:0.00859271" d="m 23.96413,35.79998 c -0.12279,0 -0.201327,0.01927 -0.264055,-0.0043 -0.140319,-0.05202 -0.274106,0.160344 -0.407035,0.0054 -0.132587,-0.155013 -0.117807,-0.401111 -0.07519,-0.518064 0.128806,-0.353332 -0.09383,-0.305296 -0.264742,-0.273069 -0.43333,0.08156 -0.50843,-0.13912 -0.465552,-0.49365 0.01186,-0.09836 0.01435,-0.201412 -2.58e-4,-0.299121 -0.04305,-0.286137 0.07776,-0.394571 0.354708,-0.348516 0.356167,0.0594 0.49915,-0.08669 0.427057,-0.441237 -0.05388,-0.26517 0.05397,-0.36914 0.320078,-0.335714 0.112308,0.01413 0.228394,0.0075 0.342163,-8.5e-5 0.33924,-0.02119 0.59006,0.02451 0.496228,0.475775 -0.04631,0.222636 0.08635,0.342854 0.324805,0.29971 0.408669,-0.07407 0.537989,0.115925 0.47827,0.495116 -0.01101,0.06968 -0.01134,0.144096 0,0.213613 0.05371,0.327474 -0.06805,0.494603 -0.409098,0.426799 -0.304441,-0.06058 -0.448799,0.06304 -0.387189,0.350849 0.107066,0.499922 -0.178212,0.497599 -0.470193,0.446556" />
<path style="fill:#951c22;fill-opacity:1;fill-rule:evenodd;stroke:none;stroke-width:0.00859271" d="m 27.698953,34.298233 c 0.05869,-0.112993 0.101305,-0.238616 0.178556,-0.337095 0.366565,-0.467267 0.287684,-0.976725 0.159739,-1.493751 0.204592,-0.03201 0.171768,0.122101 0.245321,0.243432 0.564112,0.930584 0.155443,1.690699 -0.337263,2.472981 -0.410647,0.652014 -0.863053,1.286839 -1.385232,1.829392 -0.288457,0.299709 -0.729263,0.568572 -1.179865,0.728744 -0.511438,0.181911 -1.048912,0.407297 -1.563186,0.336143 -0.376361,-0.05212 -0.761573,0.0032 -1.147128,-0.113421 -0.379539,-0.114802 -0.692856,-0.306153 -1.020521,-0.495973 -0.01403,-0.01595 -0.02772,-0.03233 -0.04101,-0.04891 -0.0012,-0.02911 -0.0022,-0.05833 -0.003,-0.08712 0.508517,0.15269 1.016749,0.272469 1.558348,0.246953 1.552704,-0.07331 2.812051,-0.696614 3.755186,-1.940586 0.357801,-0.390023 0.550365,-0.876191 0.780047,-1.340804" />
<path style="fill:#fef8f8;fill-opacity:1;fill-rule:evenodd;stroke:none;stroke-width:0.00859271" d="m 32.92375,44.695327 c 1.255053,-0.0168 1.018323,-0.01487 1.022791,-1.005089 4.3e-4,-0.08563 -0.01028,-0.173573 0.0051,-0.256747 0.06402,-0.351352 -0.140663,-0.460823 -0.432386,-0.475433 -0.285106,-0.01434 -0.571242,-0.01081 -0.856951,-0.0096 -0.717061,0.0022 -0.746276,0.03189 -0.751776,0.736996 -0.0079,1.009221 -0.0079,1.009221 1.013338,1.010419 z m 0.02586,0.38573 c -0.429637,0.01691 -0.855663,0.0054 -1.266566,-0.144097 -0.345256,-0.126061 -0.544778,-0.344137 -0.516938,-0.737082 0.01615,-0.227623 0.001,-0.457398 0.0016,-0.686135 0.0016,-0.61816 0.174518,-0.835123 0.779187,-0.902831 0.65253,-0.07299 1.309959,-0.0807 1.962662,-4.28e-4 0.606817,0.07449 0.782022,0.290943 0.782022,0.899395 8.6e-5,0.228823 4.3e-4,0.457559 -6.01e-4,0.686296 -0.0022,0.519862 -0.160341,0.706065 -0.675903,0.815879 -0.352472,0.07524 -0.708383,0.07888 -1.065497,0.06903" />
<path style="fill:#fef8f8;fill-opacity:1;fill-rule:evenodd;stroke:none;stroke-width:0.00859271" d="m 40.739252,44.136291 c 0.519086,0 0.96436,0 1.479236,0 -0.271959,-0.375594 -0.508345,-0.701944 -0.755386,-1.042988 -0.243861,0.351362 -0.461342,0.664729 -0.72385,1.042988 z m -1.417367,0.8774 c 0.529225,-0.738291 1.043327,-1.488175 1.593776,-2.21039 0.296878,-0.389594 0.852912,-0.3804 1.151595,0.01413 0.50783,0.670659 0.982491,1.366748 1.467979,2.054253 0.04726,0.06689 0.178557,0.151235 -0.0062,0.2192 -0.220317,0.08102 -0.506712,0.221266 -0.635259,-0.03329 -0.238706,-0.472683 -0.60295,-0.532834 -1.05699,-0.494506 -0.284075,0.02408 -0.572532,0.01723 -0.85781,0.0022 -0.34156,-0.01852 -0.62572,0.0032 -0.820603,0.367331 -0.173918,0.325322 -0.528109,0.06261 -0.783742,0.17443 -0.01762,-0.03104 -0.03523,-0.06208 -0.05276,-0.09312" />
<path style="fill:#fef8f8;fill-opacity:1;fill-rule:evenodd;stroke:none;stroke-width:0.00859271" d="m 23.458191,44.132245 c 0.503361,0 0.957658,0 1.468666,0 -0.267748,-0.371206 -0.502759,-0.696774 -0.755298,-1.046756 -0.251166,0.368455 -0.471912,0.692397 -0.713368,1.046756 z m 2.930459,0.936953 c -0.474404,0.02976 -0.869326,0.09162 -1.064638,-0.378078 -0.06015,-0.144877 -0.208888,-0.123567 -0.337006,-0.123653 -0.442267,-8.6e-5 -0.885049,0.01263 -1.326714,-0.0054 -0.327125,-0.01338 -0.602865,0.01359 -0.784257,0.346536 -0.183369,0.336581 -0.520289,0.0974 -0.760739,0.187497 -0.104559,-0.144621 0.0064,-0.211205 0.05725,-0.282531 0.44622,-0.62563 0.89519,-1.249377 1.348541,-1.86986 0.407467,-0.557837 0.948893,-0.55577 1.350087,0.0022 0.495283,0.689303 0.987388,1.380929 1.517472,2.122742" />
<path style="fill:#fef8f8;fill-opacity:1;fill-rule:evenodd;stroke:none;stroke-width:0.00859271" d="m 26.918906,35.639037 c -0.943137,1.243972 -2.202484,1.867291 -3.755187,1.940586 -0.541599,0.02547 -1.049831,-0.09429 -1.558348,-0.246954 -0.991178,-0.467449 -1.586697,-0.978031 -1.885928,-1.672579 0.524558,0.520804 1.0527,0.89399 1.676145,1.094802 1.897795,0.611375 3.618658,0.203039 5.203841,-0.938237 0.09976,-0.07182 0.161714,-0.21052 0.319477,-0.177618" />
<path style="fill:#fef8f8;fill-opacity:1;fill-rule:evenodd;stroke:none;stroke-width:0.00859271" d="m 45.874945,45.083037 c -0.413739,-0.02077 -0.913836,0.04849 -1.404565,-0.121074 -0.321797,-0.111195 -0.464522,-0.314319 -0.467014,-0.63354 -0.0039,-0.513076 0.01006,-1.026313 2.58e-4,-1.539132 -0.006,-0.318098 0.215161,-0.233885 0.385984,-0.241196 0.184142,-0.0075 0.374814,-0.04602 0.360722,0.260279 -0.02029,0.442779 0.02346,0.889345 -0.01229,1.330143 -0.03454,0.426371 0.143154,0.561198 0.538934,0.551576 0.528797,-0.01295 1.058279,9.63e-4 1.587504,0.0054 0.137742,10e-4 0.293011,-0.03639 0.290262,0.198671 -0.0028,0.237332 -0.160254,0.187401 -0.295246,0.188258 -0.300487,0.0022 -0.600887,6.1e-4 -0.984552,6.1e-4" />
<path style="fill:#fef8f8;fill-opacity:1;fill-rule:evenodd;stroke:none;stroke-width:0.00859271" d="m 27.769928,42.545516 c 0.385212,0 0.770509,0.0043 1.155634,-0.0022 0.168332,-0.0032 0.265515,0.02815 0.260618,0.231915 -0.0051,0.215154 -0.148397,0.164465 -0.265773,0.171079 -0.791991,0.04495 -0.789929,0.04431 -0.789327,0.842263 1.72e-4,0.298852 -0.05009,0.603035 -0.0089,0.895177 0.04897,0.346461 -0.08172,0.397932 -0.38968,0.412114 -0.344138,0.01584 -0.357714,-0.146162 -0.349637,-0.405488 0.0147,-0.470543 -0.008,-0.942197 0.01092,-1.412472 0.01006,-0.251256 -0.04416,-0.374385 -0.323602,-0.33641 -0.168159,0.0229 -0.342076,-1.72e-4 -0.513156,0.0054 -0.1325,0.0043 -0.216966,-0.0228 -0.219287,-0.182424 -0.0023,-0.170822 0.07372,-0.221694 0.23398,-0.218943 0.399304,0.0064 0.798778,0.0022 1.198168,0.0022 0,-7.71e-4 0,-0.001 0,-0.0022" />
<path style="fill:#fef8f8;fill-opacity:1;fill-rule:evenodd;stroke:none;stroke-width:0.00859271" d="m 32.457941,39.049057 c -0.502245,0.550195 -0.935662,1.024515 -1.368648,1.499435 -0.330303,0.362001 -0.381947,0.363125 -0.730123,-0.01081 -0.426371,-0.457988 -0.849561,-0.918908 -1.323192,-1.431631 -0.0849,0.514189 -0.02509,0.963496 -0.04726,1.408512 -0.0057,0.114202 0.06521,0.304697 -0.141178,0.284853 -0.157504,-0.01499 -0.07888,-0.186973 -0.08069,-0.285539 -0.0088,-0.486607 -0.0065,-0.973471 -0.0022,-1.46024 7.72e-4,-0.09183 -0.04563,-0.213965 0.08455,-0.260364 0.118407,-0.04228 0.1844,0.0563 0.250478,0.125794 0.462631,0.487292 0.937637,0.964278 1.376294,1.472538 0.230027,0.266465 0.334773,0.206742 0.533608,-0.03436 0.389936,-0.473036 0.822838,-0.910912 1.241131,-1.360316 0.09537,-0.102429 0.201156,-0.254082 0.350325,-0.195996 0.139546,0.05437 0.07571,0.224606 0.07622,0.349812 0.002,0.457559 0.008,0.915118 0.0077,1.372762 -8.6e-5,0.105427 0.05292,0.269302 -0.110932,0.276516 -0.183024,0.0086 -0.111533,-0.164978 -0.112994,-0.262077 -0.0071,-0.467267 -0.0032,-0.934715 -0.0032,-1.48886" />
<path style="fill:#fef8f8;fill-opacity:1;fill-rule:evenodd;stroke:none;stroke-width:0.00859271" d="m 29.621658,43.809856 c -1.73e-4,-0.314244 0.02251,-0.630361 -0.0064,-0.941769 -0.0305,-0.329271 0.149341,-0.318011 0.386414,-0.328501 0.273334,-0.01188 0.336921,0.08916 0.329531,0.345519 -0.01805,0.625631 -0.02346,1.252642 -10e-4,1.87794 0.01017,0.282349 -0.09641,0.328929 -0.344567,0.3291 -0.254774,1.72e-4 -0.398272,-0.03201 -0.370002,-0.340531 0.02861,-0.311493 0.0063,-0.627696 0.0061,-0.941758" />
<path style="fill:#fef8f8;fill-opacity:1;fill-rule:evenodd;stroke:none;stroke-width:0.00859271" d="m 41.816521,40.692674 c 0.128289,0 0.256663,0.001 0.384953,-1.72e-4 0.674872,-0.0064 0.769735,-0.09975 0.768532,-0.754271 -2.57e-4,-0.171165 -0.0065,-0.342671 0.0018,-0.513494 0.01229,-0.254435 -0.09546,-0.401025 -0.35041,-0.447338 -0.537817,-0.09761 -1.074175,-0.08873 -1.610102,0.0075 -0.164121,0.02944 -0.281239,0.106603 -0.324546,0.289402 -0.260103,1.101417 0.0055,1.439969 1.12977,1.418316 z m 0.01666,-1.881206 c 1.382997,-0.0096 1.448216,0.0639 1.369507,1.445899 -0.0141,0.247724 -0.107839,0.411075 -0.351356,0.464088 -0.674356,0.146686 -1.351462,0.138777 -2.026849,0.0086 -0.25993,-0.05031 -0.387102,-0.216536 -0.375932,-0.487978 0.0071,-0.170822 -9.63e-4,-0.342255 -7.73e-4,-0.513419 6.87e-4,-0.7815 0.08275,-0.869405 0.872246,-0.91529 0.170394,-0.0096 0.34199,-10e-4 0.513157,-10e-4" />
<path style="fill:#fef8f8;fill-opacity:1;fill-rule:evenodd;stroke:none;stroke-width:0.00859271" d="m 44.161729,39.020448 c 0,0.56093 0.0052,1.054237 -0.0054,1.547203 -0.0017,0.07909 0.0641,0.236464 -0.09358,0.236732 -0.15252,2.57e-4 -0.09761,-0.144793 -0.0983,-0.234067 -0.0035,-0.484285 -0.0054,-0.968742 10e-4,-1.453026 0.0014,-0.104677 -0.06917,-0.245584 0.06342,-0.308572 0.136367,-0.06476 0.23905,0.04666 0.338038,0.122883 0.643422,0.495191 1.284267,0.993829 1.929579,1.486623 0.06075,0.04645 0.111104,0.137311 0.251852,0.09258 0,-0.484542 -0.0032,-0.978877 0.0033,-1.472966 9.64e-4,-0.08188 -0.06212,-0.228651 0.107066,-0.222722 0.147279,0.0054 0.116603,0.133104 0.116689,0.229176 2.57e-4,0.484114 9.63e-4,0.968313 -0.0022,1.452427 -6.87e-4,0.107577 0.05397,0.235266 -0.07786,0.308475 -0.150201,0.08348 -0.243862,-0.04185 -0.338209,-0.113421 -0.600802,-0.456788 -1.195418,-0.921744 -1.793299,-1.38231 -0.109815,-0.08477 -0.225301,-0.162239 -0.402225,-0.288975" />
<path style="fill:#fef8f8;fill-opacity:1;fill-rule:evenodd;stroke:none;stroke-width:0.00859271" d="m 19.461695,40.69611 c 1.29e-4,0.0043 2.66e-4,0.0086 3.35e-4,0.01306 0.326454,-0.01434 0.654489,-0.01391 0.978795,-0.04859 0.21096,-0.02237 0.364856,-0.126479 0.364082,-0.388214 -8.83e-4,-0.268777 -0.155846,-0.332536 -0.374994,-0.364592 -0.538651,-0.07877 -1.081307,2.57e-4 -1.618584,-0.04517 -0.326591,-0.02761 -0.352438,0.11523 -0.371832,0.38633 -0.02709,0.37903 0.09039,0.51436 0.467993,0.452239 0.180113,-0.02976 0.369152,-0.0054 0.554205,-0.0054 z m 0.134124,-1.769411 c -0.378991,0 -0.663486,0.01188 -0.94647,-0.0043 -0.194849,-0.01102 -0.223986,0.09815 -0.194144,0.234238 0.044,0.201155 -0.149102,0.561187 0.122077,0.582754 0.632165,0.05031 1.27612,0.08498 1.912076,-0.02675 0.218882,-0.03843 0.312465,-0.154414 0.314775,-0.377992 0.0025,-0.235608 -0.127781,-0.321105 -0.32837,-0.371206 -0.323403,-0.08081 -0.650656,-0.0167 -0.879944,-0.03703 z m -0.130601,1.882575 c -0.227879,0 -0.455714,0 -0.683559,0 -0.577628,0 -0.578229,-8.6e-5 -0.579234,-0.591777 -6.36e-4,-0.371377 0.01162,-0.743098 -0.0026,-1.113961 -0.0082,-0.21508 0.04656,-0.309599 0.281746,-0.303755 0.612601,0.01541 1.226309,-0.0054 1.838575,0.0168 0.71756,0.02579 0.88492,0.338122 0.503248,0.930242 -0.0711,0.110424 -0.0033,0.117039 0.04155,0.146076 0.230285,0.148998 0.1985,0.376622 0.137483,0.575112 -0.07029,0.228565 -0.289703,0.313719 -0.511506,0.324209 -0.341157,0.01584 -0.683619,0.0043 -1.025549,0.0043 0,0.0043 -3.4e-5,0.0086 -3.4e-5,0.01295" />
<path style="fill:#fef8f8;fill-opacity:1;fill-rule:evenodd;stroke:none;stroke-width:0.00859271" d="m 22.2388,40.076226 c 0.601317,0 1.146783,0 1.72997,0 -0.26096,-0.351009 -0.492964,-0.658456 -0.719382,-0.969939 -0.0958,-0.131809 -0.170823,-0.172289 -0.284848,-0.0107 -0.227879,0.323599 -0.470193,0.636891 -0.72574,0.980247 z m -0.813877,0.689315 c 0.494046,-0.628906 0.975935,-1.254537 1.472594,-1.868148 0.177268,-0.219029 0.343708,-0.111012 0.484886,0.07042 0.461686,0.593842 0.925006,1.1864 1.397348,1.791845 -0.222638,0.14522 -0.314494,-0.032 -0.390798,-0.165846 -0.160769,-0.282177 -0.382976,-0.383665 -0.705203,-0.346707 -0.253142,0.029 -0.512383,0.0107 -0.76879,0.0043 -0.465038,-0.0096 -0.948154,-0.08081 -1.191268,0.475947 -0.04233,0.09697 -0.152091,0.118933 -0.298769,0.03767" />
<path style="fill:#fef8f8;fill-opacity:1;fill-rule:evenodd;stroke:none;stroke-width:0.00859271" d="m 34.605602,38.997843 c 0,0.584733 0.003,1.079764 -0.0029,1.574613 -9.64e-4,0.08263 0.06358,0.229262 -0.104656,0.222037 -0.141865,-0.0064 -0.117721,-0.136015 -0.118235,-0.23243 -0.0023,-0.458072 -0.0076,-0.916156 -1.73e-4,-1.374144 0.002,-0.120902 -0.06092,-0.277285 0.07123,-0.35772 0.15295,-0.09301 0.27067,0.03735 0.379454,0.120046 0.624776,0.475691 1.244741,0.957739 1.867884,1.435666 0.07587,0.05812 0.161199,0.104141 0.297049,0.190848 0,-0.545121 -0.0047,-1.036278 0.0049,-1.527188 0.0015,-0.0762 -0.05706,-0.233286 0.111447,-0.217649 0.114197,0.0107 0.08103,0.127518 0.0812,0.20777 10e-4,0.485837 0.0051,0.971834 -0.0015,1.4575 -0.0015,0.10564 0.06865,0.254339 -0.05345,0.311311 -0.124852,0.05822 -0.23733,-0.04024 -0.342247,-0.12193 -0.698845,-0.54297 -1.401214,-1.081477 -2.189939,-1.68873" />
<path style="fill:#fef8f8;fill-opacity:1;fill-rule:evenodd;stroke:none;stroke-width:0.00859271" d="m 26.448799,38.919741 c -0.130266,0 -0.24369,-8.5e-5 -0.357199,8.6e-5 -0.691027,0.001 -0.700564,0.001 -0.685784,0.68604 0.0076,0.350752 -0.162833,0.814241 0.07364,1.023134 0.248157,0.219115 0.708469,0.06155 1.075636,0.06283 1.295438,0.0043 1.293977,-0.0032 1.249811,-1.26769 -0.0091,-0.259241 -0.118494,-0.385548 -0.355567,-0.452486 -0.33692,-0.09504 -0.678997,-0.02354 -1.000535,-0.05191 z m -0.0666,1.892369 c -0.285621,0 -0.572532,-0.01691 -0.856522,0.0054 -0.271272,0.02087 -0.386071,-0.04923 -0.369315,-0.347488 0.02552,-0.456703 0.02029,-0.916156 0.0038,-1.37363 -0.0083,-0.228223 0.07184,-0.299206 0.290176,-0.294647 0.628385,0.01284 1.257716,-0.0054 1.885241,0.02205 0.541255,0.02387 0.666622,0.180616 0.664474,0.710699 -7.73e-4,0.199785 -8.83e-4,0.39957 -0.001,0.599344 -3.44e-4,0.452411 -0.13714,0.624004 -0.590062,0.659153 -0.340271,0.02643 -0.684323,0.0054 -1.026657,0.0054 0,0.0043 0,0.0096 0,0.01435" />
<path style="fill:#fef8f8;fill-opacity:1;fill-rule:evenodd;stroke:none;stroke-width:0.00859271" d="m 37.59621,38.822985 c 0.820861,0 1.641724,0 2.462414,0 0.0023,0.03329 0.0045,0.06679 0.0067,0.100075 -0.263882,0 -0.530772,0.02504 -0.790787,-0.0064 -0.286825,-0.03489 -0.332281,0.08488 -0.322571,0.33245 0.01727,0.442435 0.0058,0.886081 0.0058,1.329201 0,0.09761 0.0226,0.227196 -0.122017,0.224274 -0.157075,-0.0032 -0.102429,-0.144364 -0.103199,-0.232344 -0.0043,-0.457484 -0.01229,-0.915385 0.0028,-1.372346 0.0076,-0.228565 -0.06986,-0.29576 -0.293613,-0.279266 -0.28038,0.02065 -0.563252,0.0054 -0.845093,0.0054 -8.5e-5,-0.03339 -1.72e-4,-0.06689 -3.43e-4,-0.100288" />
<path style="fill:#fef8f8;fill-opacity:1;fill-rule:evenodd;stroke:none;stroke-width:0.00859271" d="m 33.414481,39.805822 c -5.16e-4,-0.269558 -0.0022,-0.539106 5.15e-4,-0.808665 8.83e-4,-0.0807 -0.01374,-0.17993 0.118666,-0.175638 0.09323,0.0032 0.114627,0.06572 0.114798,0.141528 10e-4,0.56763 0.0015,1.135185 6.87e-4,1.702816 -8.5e-5,0.07856 -0.03008,0.13396 -0.123734,0.13259 -0.09881,-0.001 -0.109385,-0.06861 -0.109729,-0.141271 -0.0014,-0.283815 -6.02e-4,-0.567544 -0.0012,-0.85136" />
<path style="fill:#951c22;fill-opacity:1;fill-rule:evenodd;stroke:none;stroke-width:0.00859271" d="m 21.649374,37.468685 c -0.03652,0.03863 -0.09647,0.08188 -0.125704,0.03147 -0.03954,-0.06839 0.04753,-0.06037 0.08489,-0.08006 0.0131,0.01638 0.02678,0.03265 0.04081,0.04859" />
<path style="fill:#fef8f8;fill-opacity:1;fill-rule:evenodd;stroke:none;stroke-width:0.00859271" d="m 30.582151,30.073201 c -0.03712,0.05598 -0.09873,0.128374 -0.15063,0.07203 -0.07106,-0.07685 0.04649,-0.09708 0.08387,-0.141175 0.02225,0.0229 0.04451,0.04602 0.06676,0.06914" />
<path style="fill:#fef8f8;fill-opacity:1;fill-rule:evenodd;stroke:none;stroke-width:0.00859271" d="m 28.512339,28.169659 c -0.03042,-0.02408 -0.05113,-0.04046 -0.07184,-0.05683 0.03558,-0.02109 0.06943,-0.04752 0.107838,-0.05994 0.01143,-0.0032 0.03567,0.03168 0.05405,0.04923 -0.0305,0.0229 -0.06092,0.0457 -0.09006,0.06743" />
<path style="fill:#e2262d;fill-opacity:1;fill-rule:evenodd;stroke:none;stroke-width:0.00859271" d="m 29.488986,48.167468 c 0.255891,0.247392 0.375932,0.560683 0.587398,0.872166 -0.351098,0 -0.643079,0 -0.953533,0 0.07432,-0.309428 0.215419,-0.581812 0.366135,-0.872166" />
<path style="fill:#e2262d;fill-opacity:1;fill-rule:evenodd;stroke:none;stroke-width:0.00859271" d="m 32.92375,44.695327 c -1.021243,-10e-4 -1.021243,-10e-4 -1.013337,-1.01042 0.0055,-0.705111 0.03471,-0.73493 0.751776,-0.736996 0.285708,-6.85e-4 0.571844,-0.0043 0.85695,0.0096 0.291723,0.01455 0.496402,0.124081 0.432386,0.475433 -0.01521,0.08316 -0.0046,0.171079 -0.0051,0.256747 -0.0045,0.990222 0.232262,0.988253 -1.02279,1.005089" />
<path style="fill:#e2262d;fill-opacity:1;fill-rule:evenodd;stroke:none;stroke-width:0.00859271" d="m 40.739252,44.136291 c 0.262508,-0.378259 0.479989,-0.691626 0.72385,-1.042988 0.247041,0.341044 0.483427,0.667394 0.755386,1.042988 -0.514876,0 -0.96015,0 -1.479236,0" />
<path style="fill:#e2262d;fill-opacity:1;fill-rule:evenodd;stroke:none;stroke-width:0.00859271" d="m 23.458191,44.132245 c 0.241456,-0.354359 0.462202,-0.678301 0.713368,-1.046756 0.252539,0.349982 0.48755,0.67555 0.755298,1.046756 -0.511008,0 -0.965305,0 -1.468666,0" />
<path style="fill:#e2262d;fill-opacity:1;fill-rule:evenodd;stroke:none;stroke-width:0.00859271" d="m 41.816521,40.692674 c -1.12427,0.02162 -1.389872,-0.316899 -1.12977,-1.418316 0.04331,-0.182852 0.160425,-0.259926 0.324546,-0.289402 0.535928,-0.09633 1.072285,-0.105212 1.610104,-0.0075 0.254945,0.04634 0.362698,0.192903 0.35041,0.447338 -0.0083,0.170822 -0.002,0.342329 -0.0018,0.513494 0.0012,0.654507 -0.09366,0.747913 -0.768531,0.754271 -0.12829,10e-4 -0.256665,1.72e-4 -0.384954,1.72e-4" />
<path style="fill:#e2262d;fill-opacity:1;fill-rule:evenodd;stroke:none;stroke-width:0.00859271" d="m 19.595819,38.926699 c 0.229288,0.02033 0.556541,-0.04377 0.879944,0.03703 0.200589,0.05009 0.330785,0.135598 0.32837,0.371206 -0.0023,0.223578 -0.09589,0.33959 -0.314775,0.377993 -0.635956,0.111708 -1.279911,0.07706 -1.912076,0.02676 -0.271179,-0.02162 -0.07807,-0.381599 -0.122077,-0.582754 -0.02984,-0.136112 -7.05e-4,-0.245241 0.194144,-0.234238 0.282984,0.01595 0.567479,0.0043 0.94647,0.0043" />
<path style="fill:#e2262d;fill-opacity:1;fill-rule:evenodd;stroke:none;stroke-width:0.00859271" d="m 19.461695,40.69611 c -0.185053,0 -0.374092,-0.02462 -0.554205,0.0054 -0.377606,0.06208 -0.495086,-0.07321 -0.467993,-0.452239 0.01939,-0.2711 0.04524,-0.413997 0.371832,-0.38633 0.537277,0.04538 1.079933,-0.03372 1.618584,0.04517 0.219148,0.03201 0.374118,0.09579 0.374994,0.364592 7.74e-4,0.261734 -0.153122,0.36579 -0.364082,0.388213 -0.324306,0.03468 -0.652341,0.03425 -0.978795,0.04859 -6.9e-5,-0.0043 -2.06e-4,-0.0086 -3.35e-4,-0.01306" />
<path style="fill:#e2262d;fill-opacity:1;fill-rule:evenodd;stroke:none;stroke-width:0.00859271" d="m 22.2388,40.076226 c 0.255547,-0.343356 0.497861,-0.656648 0.72574,-0.980246 0.114025,-0.161982 0.18904,-0.121502 0.284848,0.0107 0.226418,0.311483 0.458422,0.618931 0.719382,0.96994 -0.583187,0 -1.128653,0 -1.72997,0" />
<path style="fill:#e2262d;fill-opacity:1;fill-rule:evenodd;stroke:none;stroke-width:0.00859271" d="m 26.448799,38.919741 c 0.321539,0.02836 0.663615,-0.04313 1.000535,0.05191 0.237073,0.06689 0.346458,0.193245 0.355567,0.452486 0.04416,1.264244 0.04563,1.272325 -1.24981,1.26769 -0.367167,-0.001 -0.827479,0.156299 -1.075637,-0.06283 -0.236471,-0.208893 -0.06608,-0.672382 -0.07363,-1.023134 -0.01478,-0.684755 -0.0052,-0.685012 0.685784,-0.686039 0.113509,-1.71e-4 0.226934,-8.6e-5 0.3572,-8.6e-5" />

<!-- left name box -->
<rect class="box" x="72" y="20" width="5" height="7" />
<rect class="box" x="77" y="20" width="59" height="21" />
<line class="divider-line" x1="77" x2="136" y1="27" y2="27" />
<line class="divider-line" x1="77" x2="136" y1="34" y2="34" />
<text class="scoresheet_results_team1_side" x="74.5" y="25" text-anchor="middle"></text>
<text class="scoresheet_results_team1_player1" x="78" y="25"></text>
<text class="scoresheet_results_team1_player2" x="78" y="32"></text>
<text class="scoresheet_results_team1_name small-text" x="78" y="38.5"></text>
<ellipse class="scoresheet_results_circle_team1" visibility="hidden" cx="100" cy="30" rx="28" ry="13" />

<!-- score box -->
<text class="small-text" x="148.5" y="19" text-anchor="middle" data-i18n="scoresheet:points"></text>
<rect class="box" x="138" width="21" y="20" height="21" />
<line class="divider-line" x1="138" x2="159" y1="27" y2="27" />
<line class="divider-line" x1="138" x2="159" y1="34" y2="34" />
<text x="148.5" y="25" text-anchor="middle">:</text>
<text x="148.5" y="32" text-anchor="middle">:</text>
<text x="148.5" y="39" text-anchor="middle">:</text>

<text class="scoresheet_results_team1_score1" x="143" y="25" text-anchor="middle"></text>
<text class="scoresheet_results_team1_score2" x="143" y="32" text-anchor="middle"></text>
<text class="scoresheet_results_team1_score3" x="143" y="39" text-anchor="middle"></text>
<text class="scoresheet_results_team2_score1" x="154" y="25" text-anchor="middle"></text>
<text class="scoresheet_results_team2_score2" x="154" y="32" text-anchor="middle"></text>
<text class="scoresheet_results_team2_score3" x="154" y="39" text-anchor="middle"></text>

<!-- right name box -->
<rect class="box shaded" x="220" y="20" width="5" height="7" />
<rect class="box shaded" x="161" y="20" width="59" height="21" />
<line class="divider-line" x1="161" x2="220" y1="27" y2="27" />
<line class="divider-line" x1="161" x2="220" y1="34" y2="34" />
<text class="scoresheet_results_team2_side" x="222.5" y="25" text-anchor="middle"></text>
<text class="scoresheet_results_team2_player1" x="162" y="25"></text>
<text class="scoresheet_results_team2_player2" x="162" y="32"></text>
<text class="scoresheet_results_team2_name small-text" x="162" y="38.5"></text>
<ellipse class="scoresheet_results_circle_team2" visibility="hidden" cx="189" cy="30" rx="28" ry="13" />

<!-- top right information about match -->
<text class="small-text" x="228" y="15" data-i18n="scoresheet:Court"></text>
<line class="dashed-line" x1="252" x2="282" y1="15.5" y2="15.5"/>
<text class="scoresheet_court_id" x="253" y="14"></text>
<text class="small-text" x="228" y="22" data-i18n="scoresheet:Umpire"></text>
<line class="dashed-line" x1="252" x2="282" y1="22.5" y2="22.5"/>
<text class="small-text scoresheet_umpire_name" x="253" y="21"></text>
<text class="small-text" x="228" y="29" data-i18n="scoresheet:Service judge"></text>
<line class="dashed-line" x1="252" x2="282" y1="29.5" y2="29.5"/>
<text class="small-text scoresheet_service_judge_name" x="253" y="28"></text>
<text class="small-text" x="228" y="36" data-i18n="scoresheet:Begin"></text>
<line class="dashed-line" x1="252" x2="282" y1="36.5" y2="36.5"/>
<text class="scoresheet_begin_value" x="253" y="35"></text>
<text class="small-text" x="228" y="43" data-i18n="scoresheet:End"></text>
<line class="dashed-line" x1="252" x2="282" y1="43.5" y2="43.5"/>
<text class="scoresheet_end_value" x="253" y="42"></text>
<text class="small-text" x="228" y="50" data-i18n="scoresheet:Duration"></text>
<line class="dashed-line" x1="252" x2="282" y1="50.5" y2="50.5"/>
<text class="scoresheet_duration_value" x="253" y="49"></text>

<text class="scoresheet_match_label small-text" x="78" y="50" data-i18n="scoresheet:Match"></text>
<text class="scoresheet_match_name" x="88" y="50"></text>
<g class="scoresheet_shuttle_counter">
	<text class="small-text" x="178" y="50" text-anchor="end" data-i18n="scoresheet:Shuttles"></text>
	<text class="scoresheet_shuttle_counter_value" x="179" y="50"></text>
</g>
<text class="scoresheet_date_label small-text" x="188" y="50" data-i18n="scoresheet:Date"></text>
<text class="scoresheet_date_value" x="199" y="50"></text>


<g class="scoresheet_table_container"></g>

<text class="small-text" x="118" y="200" data-i18n="scoresheet:Umpire"></text>
<line class="dashed-line" x1="142" x2="202" y1="200.5" y2="200.5" />
<text class="small-text" x="207" y="200" data-i18n="scoresheet:Referee"></text>
<line class="dashed-line" x1="222" x2="282" y1="200.5" y2="200.5" />

</svg>
