<svg xmlns="http://www.w3.org/2000/svg" xmlns:xlink="http://www.w3.org/1999/xlink" version="1.1" viewBox="0 0 297 210">
<style>
	text {
		font-family: Helvetica;
		font-size: 4px;
	}
	text.small-text, text.table_name {font-size: 3px;}
	.divider-line {stroke: #000; stroke-width: 0.2;}
	.box {stroke: #000; stroke-width: 0.5; fill: none;}
	.shade,.box.shaded,.table_longtext_background.shaded {fill: #e0e0e0;}
	.scoresheet_results_circle_team1,.scoresheet_results_circle_team2 {
		stroke: #000; stroke-width: 0.6; fill: none;
	}
	.dashed-line {
		stroke: #000; stroke-width: 0.4; stroke-dasharray: 0.4, 0.4;
	}
	.table {
		stroke: #000; stroke-width: 0.35; fill: none;
	}
	.table_line {
		stroke: #000; stroke-width: 0.1;
	}
	.table_20all_dash {
		stroke: #000; stroke-width: 0.4;
	}
	.editmode-sign {
		stroke: #202020; stroke-width: 0.3; fill: none;
	}
	.table_thick-line {
		stroke: #000; stroke-width: 0.35;
	}
	.table_game_result {
		stroke: #000; stroke-width: 0.4; fill: none;
	}
	.table_longtext_background {
		fill: #fff;
		opacity: 0.75;
	}
</style>

<!-- top left -->
<text class="scoresheet_tournament_name" x="55" y="13"></text>
<text class="scoresheet_event_name" font-weight="bold" x="50" y="13"/><!-- x will be set automatically -->

<!-- ÖBV Bundesliga logo -->
<path style="fill:#231f20;fill-rule:evenodd" d="m 30.084681,8.7386801 h 13.582291 c 1.328676,0 2.41461,1.0861628 2.41461,2.4146089 v 35.170776 c 0,1.328647 -1.085934,2.414621 -2.41461,2.414621 H 17.802454 c -1.328453,0 -2.414604,-1.085974 -2.414604,-2.414621 V 23.435534 Z m 0.125028,0.3018262 h 13.457263 c 1.162048,0 2.112841,0.9509067 2.112841,2.1127827 v 35.170776 c 0,1.162042 -0.950793,2.112772 -2.112841,2.112772 H 17.802454 c -1.161865,0 -2.112772,-0.95073 -2.112772,-2.112772 V 23.560562 Z" />
<path style="fill:#231f20;fill-rule:evenodd" d="M 17.802454,8.7386801 H 29.429258 L 15.38785,22.780054 V 11.153289 c 0,-1.3286176 1.085974,-2.4146089 2.414604,-2.4146089 z m 6.986041,0.3018262 h 3.912083 L 15.689682,22.051374 v -3.912083 l 9.098813,-9.0987847" />
<path style="fill:#4f4c4c;fill-rule:evenodd" d="M 45.779813,34.900642 H 15.689682 v 0.603653 h 30.090131 v -0.603653" />
<path style="fill:#bdbbbc;fill-rule:nonzero" d="m 29.339006,30.30325 c 0,0 13.178009,-8.847129 14.024402,-10.150147 0.845422,-1.302904 -1.165134,-0.72668 -1.165134,-0.72668 0,0 -0.957935,0.300512 -2.58455,1.441189 -1.086163,0.761422 -10.274718,9.435638 -10.274718,9.435638" />
<path style="fill:#bdbbbc;fill-rule:nonzero" d="m 28.317038,29.99131 c 0,0 9.396553,-8.481132 10.702829,-10.733457 0,0 0.495767,-1.018963 -1.218448,-0.470396 -0.761308,0.243941 -1.248161,0.516281 -1.248161,0.516281 0,0 -1.043535,0.520682 -1.736386,1.601416 -0.693252,1.081192 -6.499834,9.086156 -6.499834,9.086156" />
<path style="fill:#bdbbbc;fill-rule:nonzero" d="m 27.376131,29.623256 c 0,0 6.763603,-9.084042 6.903088,-9.439925 0.289883,-0.741308 -0.0093,-1.704957 -0.0093,-1.704957 0,0 -0.399826,-1.872843 -1.468217,-0.348398 0,0 -2.674379,4.439051 -5.425557,11.49328" />
<path style="fill:#bdbbbc;fill-rule:nonzero" d="m 30.294051,16.268677 c 1.28519,-2.756778 1.348389,1.146219 1.336275,1.418789 -0.01154,0.272283 -0.07154,0.450568 -0.07154,0.450568 l -5.04676,11.081282 3.782027,-12.950639" />
<path style="fill:#bdbbbc;fill-rule:nonzero" d="m 25.962657,28.056297 c 0,0 3.476086,-12.432586 3.642714,-12.982182 0.27274,-0.88045 -0.425426,-2.276324 -0.425426,-2.276324 0,0 -0.511595,-0.74028 -0.859764,1.815699 0,0 -2.508837,12.854869 -2.357524,13.442807" />
<path style="fill:#4f4c4c;fill-rule:evenodd" d="m 30.127595,30.261822 c -0.345883,1.062792 -1.737129,1.524502 -3.147061,1.030906 -1.436559,-0.502967 -2.348324,-1.807128 -2.036669,-2.912948 0.07743,-0.274569 0.22297,-0.511024 0.420054,-0.703766 -0.03926,0.07594 -0.072,0.155828 -0.09731,0.239541 -0.315026,1.039249 0.606338,2.264954 2.057984,2.737636 1.108734,0.361025 2.206097,0.178227 2.803006,-0.391369" />
<path style="fill:#4f4c4c;fill-rule:evenodd" d="m 26.887221,32.978543 c -1.541531,0.04989 -2.825463,-1.062277 -2.867691,-2.484037 -0.01874,-0.628795 0.208684,-1.212733 0.601423,-1.672958 l -0.0031,0.01223 c -0.29177,1.151305 0.686223,2.474094 2.184553,2.954433 0.932793,0.299026 1.847071,0.200913 2.474895,-0.193427 -0.456625,0.794908 -1.348846,1.350103 -2.390038,1.38376" />
<path style="fill:#ed1c24;fill-rule:evenodd" d="M 45.779813,35.504295 H 15.689682 v 10.81977 c 0,1.162042 0.950724,2.112772 2.112772,2.112772 h 25.864518 c 1.162048,0 2.112841,-0.95073 2.112841,-2.112772 v -10.81977" />
<path style="fill:#ed1c24;fill-rule:evenodd" d="M 17.802454,9.0405063 H 28.700578 L 15.689682,22.051374 V 11.153289 c 0,-1.1620475 0.950724,-2.1127827 2.112772,-2.1127827" />
<path style="fill:#ffffff;fill-rule:evenodd" d="m 20.845555,9.0405063 h 3.94294 l -9.098813,9.0987847 v -3.942826 l 5.155873,-5.1559587" />
<path style="fill:#ed1c24;fill-rule:evenodd" d="m 17.802454,9.0405063 h 3.043101 l -5.155873,5.1559587 v -3.043176 c 0,-1.1620475 0.950724,-2.1127827 2.112772,-2.1127827" />
<path style="fill:#ffffff;fill-rule:nonzero;stroke:none;stroke-width:0.14614616" d="m 21.932238,40.670713 c -0.112533,0.294338 -0.13767,0.510489 -0.07497,0.648012 0.06898,0.144539 0.31626,0.21615 0.741984,0.21615 h 0.920575 c 0.394594,0 0.69054,-0.0738 0.887692,-0.220827 0.197297,-0.147169 0.352212,-0.361711 0.46489,-0.643335 l 0.49792,-1.239758 c 0.11911,-0.281916 0.140885,-0.496312 0.06591,-0.643335 -0.07512,-0.147608 -0.212788,-0.195982 -0.413447,-0.145854 l -0.516627,1.27761 h -1.596793 l 0.516627,-1.27761 c -0.181514,-0.03741 -0.36025,0.0077 -0.53548,0.136208 -0.175229,0.128316 -0.328682,0.345928 -0.460506,0.652981 z m -0.929782,-1.775091 c 0.194082,-0.501574 0.485352,-0.8893 0.873662,-1.164931 0.369604,-0.269348 0.923644,-0.404094 1.662412,-0.404094 h 2.404982 c 0.363173,0 0.65415,0.03288 0.873661,0.09879 0.218927,0.06577 0.388311,0.211328 0.506835,0.437124 0.112825,0.231203 0.08783,0.575815 -0.07483,1.033107 l -0.939573,2.310571 c -0.256487,0.575815 -0.519696,0.945565 -0.788897,1.10808 -0.269201,0.175521 -0.541764,0.294484 -0.81725,0.357327 -0.30676,0.06869 -0.62609,0.103325 -0.95828,0.103325 h -2.404543 c -0.738768,0 -1.186706,-0.1346 -1.343229,-0.403948 -0.162953,-0.275339 -0.141031,-0.663942 0.06577,-1.164784 l 0.939281,-2.310571" />
<path style="fill:none;stroke:#2e2a2b;stroke-width:0.14614616;stroke-linecap:butt;stroke-linejoin:miter;stroke-miterlimit:4;stroke-dasharray:none;stroke-opacity:1" d="m 21.932238,40.670713 c -0.112533,0.294338 -0.13767,0.510489 -0.07497,0.648012 0.06898,0.144539 0.31626,0.21615 0.741984,0.21615 h 0.920575 c 0.394594,0 0.69054,-0.0738 0.887692,-0.220827 0.197297,-0.147169 0.352212,-0.361711 0.46489,-0.643335 l 0.49792,-1.239758 c 0.11911,-0.281916 0.140885,-0.496312 0.06591,-0.643335 -0.07512,-0.147608 -0.212788,-0.195982 -0.413447,-0.145854 l -0.516627,1.27761 h -1.596793 l 0.516627,-1.27761 c -0.181514,-0.03741 -0.36025,0.0077 -0.53548,0.136208 -0.175229,0.128316 -0.328682,0.345928 -0.460506,0.652981 z m -0.929782,-1.775091 c 0.194082,-0.501574 0.485352,-0.8893 0.873662,-1.164931 0.369604,-0.269348 0.923644,-0.404094 1.662412,-0.404094 h 2.404982 c 0.363173,0 0.65415,0.03288 0.873661,0.09879 0.218927,0.06577 0.388311,0.211328 0.506835,0.437124 0.112825,0.231203 0.08783,0.575815 -0.07483,1.033107 l -0.939573,2.310571 c -0.256487,0.575815 -0.519696,0.945565 -0.788897,1.10808 -0.269201,0.175521 -0.541764,0.294484 -0.81725,0.357327 -0.30676,0.06869 -0.62609,0.103325 -0.95828,0.103325 h -2.404543 c -0.738768,0 -1.186706,-0.1346 -1.343229,-0.403948 -0.162953,-0.275339 -0.141031,-0.663942 0.06577,-1.164784 l 0.939281,-2.310571" />
<path style="fill:none;stroke:#2e2a2b;stroke-width:0.14614616;stroke-linecap:butt;stroke-linejoin:miter;stroke-miterlimit:4;stroke-dasharray:none;stroke-opacity:1" d="m 21.932238,40.670713 c -0.112533,0.294338 -0.13767,0.510489 -0.07497,0.648012 0.06898,0.144539 0.31626,0.21615 0.741984,0.21615 h 0.920575 c 0.394594,0 0.69054,-0.0738 0.887692,-0.220827 0.197297,-0.147169 0.352212,-0.361711 0.46489,-0.643335 l 0.49792,-1.239758 c 0.11911,-0.281916 0.140885,-0.496312 0.06591,-0.643335 -0.07512,-0.147608 -0.212788,-0.195982 -0.413447,-0.145854 l -0.516627,1.27761 h -1.596793 l 0.516627,-1.27761 c -0.181514,-0.03741 -0.36025,0.0077 -0.53548,0.136208 -0.175229,0.128316 -0.328682,0.345928 -0.460506,0.652981 z" />
<path style="fill:none;stroke:#2e2a2b;stroke-width:0.14614616;stroke-linecap:butt;stroke-linejoin:miter;stroke-miterlimit:4;stroke-dasharray:none;stroke-opacity:1" d="m 21.002412,38.895695 c 0.194228,-0.50172 0.485351,-0.889446 0.873516,-1.165077 0.369457,-0.269201 0.923789,-0.403948 1.662704,-0.403948 h 2.404836 c 0.36288,0 0.654004,0.03274 0.873369,0.09865 0.219073,0.06591 0.38831,0.211474 0.506981,0.43727 0.112825,0.231203 0.08783,0.57567 -0.07497,1.033107 l -0.939427,2.310571 c -0.256487,0.575816 -0.51955,0.945419 -0.788751,1.10808 -0.269202,0.175522 -0.541764,0.294338 -0.817396,0.357327 -0.306907,0.06869 -0.62609,0.103326 -0.957988,0.103326 h -2.404689 c -0.738769,0 -1.186707,-0.134747 -1.343521,-0.404094 -0.162661,-0.275194 -0.140739,-0.663942 0.06576,-1.164639 z" />
<path style="fill:#ffffff;fill-rule:nonzero;stroke:none;stroke-width:0.14614616" d="m 31.352819,39.411913 c 0.425578,0 0.704571,-0.02806 0.835956,-0.08433 0.1441,-0.05013 0.235149,-0.122032 0.272709,-0.216443 0.02484,-0.08067 0.0058,-0.194082 -0.05656,-0.337744 -0.06284,-0.137962 -0.313337,-0.206504 -0.751483,-0.206504 h -1.934829 l -0.338329,0.845017 z m -2.479954,1.239758 -0.356743,0.883161 h 1.934975 c 0.438439,0 0.745199,-0.06869 0.920575,-0.206651 0.181221,-0.143954 0.290977,-0.256778 0.328683,-0.338036 0.03128,-0.09412 0,-0.17216 -0.09412,-0.235003 -0.09967,-0.06869 -0.359811,-0.103471 -0.779543,-0.103471 z m 3.766625,-0.469422 c 0.620098,0.150385 0.858024,0.413448 0.713924,0.789044 l -0.103179,0.234856 c -0.194375,0.500843 -0.485352,0.889446 -0.873516,1.164785 -0.36975,0.269348 -0.92379,0.404094 -1.662559,0.404094 h -4.33031 l 2.198038,-5.448475 h 4.330311 c 0.738622,0 1.186268,0.134747 1.343521,0.404095 0.162661,0.275631 0.140447,0.663942 -0.0662,1.165077 l -0.09397,0.234564 c -0.181367,0.444723 -0.667011,0.795474 -1.456054,1.05196" />
<path style="fill:none;stroke:#2e2a2b;stroke-width:0.14614616;stroke-linecap:butt;stroke-linejoin:miter;stroke-miterlimit:4;stroke-dasharray:none;stroke-opacity:1" d="m 31.352819,39.411913 c 0.425578,0 0.704571,-0.02806 0.835956,-0.08433 0.1441,-0.05013 0.235149,-0.122032 0.272709,-0.216443 0.02484,-0.08067 0.0058,-0.194082 -0.05656,-0.337744 -0.06284,-0.137962 -0.313337,-0.206504 -0.751483,-0.206504 h -1.934829 l -0.338329,0.845017 z m -2.479954,1.239758 -0.356743,0.883161 h 1.934975 c 0.438439,0 0.745199,-0.06869 0.920575,-0.206651 0.181221,-0.143954 0.290977,-0.256778 0.328683,-0.338036 0.03128,-0.09412 0,-0.17216 -0.09412,-0.235003 -0.09967,-0.06869 -0.359811,-0.103471 -0.779543,-0.103471 z m 3.766625,-0.469422 c 0.620098,0.150385 0.858024,0.413448 0.713924,0.789044 l -0.103179,0.234856 c -0.194375,0.500843 -0.485352,0.889446 -0.873516,1.164785 -0.36975,0.269348 -0.92379,0.404094 -1.662559,0.404094 h -4.33031 l 2.198038,-5.448475 h 4.330311 c 0.738622,0 1.186268,0.134747 1.343521,0.404095 0.162661,0.275631 0.140447,0.663942 -0.0662,1.165077 l -0.09397,0.234564 c -0.181367,0.444723 -0.667011,0.795474 -1.456054,1.05196" />
<path style="fill:none;stroke:#2e2a2b;stroke-width:0.14614616;stroke-linecap:butt;stroke-linejoin:miter;stroke-miterlimit:4;stroke-dasharray:none;stroke-opacity:1" d="m 31.352819,39.411913 c 0.425578,0 0.704571,-0.02806 0.835956,-0.08433 0.1441,-0.05013 0.235149,-0.122032 0.272709,-0.216443 0.02484,-0.08067 0.0058,-0.194082 -0.05656,-0.337744 -0.06284,-0.137962 -0.313337,-0.206504 -0.751483,-0.206504 h -1.934829 l -0.338329,0.845017 z" />
<path style="fill:none;stroke:#2e2a2b;stroke-width:0.14614616;stroke-linecap:butt;stroke-linejoin:miter;stroke-miterlimit:4;stroke-dasharray:none;stroke-opacity:1" d="m 28.872894,40.651729 -0.356743,0.883161 h 1.934829 c 0.438439,0 0.7452,-0.06883 0.920721,-0.20665 0.181221,-0.143954 0.290977,-0.256779 0.328683,-0.338183 0.03128,-0.09397 0,-0.172014 -0.09412,-0.234857 -0.09967,-0.06854 -0.359812,-0.103471 -0.779544,-0.103471 z" />
<path style="fill:none;stroke:#2e2a2b;stroke-width:0.14614616;stroke-linecap:butt;stroke-linejoin:miter;stroke-miterlimit:4;stroke-dasharray:none;stroke-opacity:1" d="m 32.639446,40.182176 c 0.620098,0.150384 0.858024,0.413447 0.71407,0.789043 l -0.103179,0.235003 c -0.194374,0.500843 -0.485498,0.889446 -0.873662,1.164785 -0.36975,0.269201 -0.92379,0.403948 -1.662412,0.403948 h -4.330457 l 2.198038,-5.448329 h 4.330311 c 0.738622,0 1.186268,0.134747 1.343668,0.404094 0.162514,0.275486 0.140446,0.664088 -0.06635,1.164931 l -0.09397,0.234711 c -0.181221,0.444723 -0.667011,0.795327 -1.456054,1.051814 z" />
<path style="fill:#ffffff;fill-rule:nonzero" d="m 41.516393,37.326611 c -1.678489,2.511229 -2.561358,3.814122 -2.648899,3.90751 -0.219366,0.307053 -0.554186,0.638805 -1.004901,0.995548 -0.438585,0.363611 -0.839318,0.545271 -1.202637,0.545271 h -0.930074 c -0.300477,0 -0.544687,-0.18166 -0.732192,-0.545271 -0.181806,-0.375596 -0.26014,-0.700771 -0.235149,-0.976403 -0.01286,-0.0624 0.02368,-0.41827 0.107709,-1.066429 0.08477,-0.647865 0.217758,-1.601615 0.399564,-2.860226 h 1.653059 l -0.506835,3.344116 c -0.01871,0.144247 -0.02075,0.261602 -0.005,0.352213 0.01578,0.09105 0.04078,0.162807 0.07497,0.21615 0.03435,0.05334 0.0757,0.09236 0.122325,0.117501 0.04691,0.02484 0.09236,0.04063 0.136354,0.04662 0.10654,-0.01213 0.239095,-0.06679 0.399125,-0.164122 0.159884,-0.09719 0.33979,-0.286739 0.539864,-0.568363 l 2.179331,-3.344116 h 1.653352 z" />
<path style="fill:none;stroke:#2e2a2b;stroke-width:0.14614616;stroke-linecap:butt;stroke-linejoin:miter;stroke-miterlimit:4;stroke-dasharray:none;stroke-opacity:1" d="m 41.516393,37.326611 c -1.678489,2.511229 -2.561358,3.814122 -2.648899,3.90751 -0.219366,0.307053 -0.554186,0.638805 -1.004901,0.995548 -0.438585,0.363611 -0.839318,0.545271 -1.202637,0.545271 h -0.930074 c -0.300477,0 -0.544687,-0.18166 -0.732192,-0.545271 -0.181806,-0.375596 -0.26014,-0.700771 -0.235149,-0.976403 -0.01286,-0.0624 0.02368,-0.41827 0.107709,-1.066429 0.08477,-0.647865 0.217758,-1.601615 0.399564,-2.860226 h 1.653059 l -0.506835,3.344116 c -0.01871,0.144247 -0.02075,0.261602 -0.005,0.352213 0.01578,0.09105 0.04078,0.162807 0.07497,0.21615 0.03435,0.05334 0.0757,0.09236 0.122325,0.117501 0.04691,0.02484 0.09236,0.04063 0.136354,0.04662 0.10654,-0.01213 0.239095,-0.06679 0.399125,-0.164122 0.159884,-0.09719 0.33979,-0.286739 0.539864,-0.568363 l 2.179331,-3.344116 z" />
<path style="fill:#ffffff;stroke:#1b181a;stroke-width:0.07307308;stroke-linecap:butt;stroke-linejoin:miter;stroke-miterlimit:4;stroke-dasharray:none;stroke-opacity:1" d="m 21.272165,45.231774 c 0.137085,0 0.222142,0.01125 0.254733,0.03376 0.03069,0.02046 0.04092,0.04604 0.03069,0.07673 -0.01228,0.0266 -0.04808,0.06343 -0.107271,0.110487 -0.05743,0.04501 -0.157545,0.06752 -0.300915,0.06752 h -0.632228 l 0.116771,-0.288493 z m -0.472491,-0.404971 0.110341,-0.276362 h 0.632374 c 0.143077,0 0.225065,0.02251 0.24538,0.06752 0.02046,0.04706 0.0266,0.08389 0.01841,0.110487 -0.01228,0.03069 -0.04194,0.05422 -0.089,0.07059 -0.04297,0.01841 -0.134016,0.02777 -0.273001,0.02777 z m 1.540673,-0.09222 0.03069,-0.07673 c 0.06737,-0.163684 0.07454,-0.290539 0.02134,-0.380565 -0.05115,-0.08798 -0.197443,-0.13197 -0.438877,-0.13197 h -1.414841 l -0.718162,1.780061 h 1.414841 c 0.241434,0 0.422655,-0.04399 0.543372,-0.13197 0.126708,-0.08988 0.221849,-0.216881 0.285277,-0.380565 l 0.03376,-0.07673 c 0.04721,-0.122762 -0.03069,-0.208696 -0.233103,-0.257801 0.257655,-0.08389 0.416224,-0.198321 0.475705,-0.343736 z" />
<path style="fill:#ffffff;stroke:#1b181a;stroke-width:0.07307308;stroke-linecap:butt;stroke-linejoin:miter;stroke-miterlimit:4;stroke-dasharray:none;stroke-opacity:1" d="m 24.117309,45.793385 c -0.120717,0.08813 -0.301792,0.13197 -0.543371,0.13197 h -0.785682 c -0.198321,0 -0.334967,-0.04487 -0.409502,-0.135039 -0.07483,-0.09003 -0.08038,-0.215858 -0.0171,-0.377496 l 0.512535,-1.267379 h 0.540156 l -0.438877,1.092442 c -0.03873,0.09207 -0.04545,0.162223 -0.01988,0.210305 0.02558,0.04808 0.102887,0.07205 0.231788,0.07205 h 0.300623 c 0.143369,0 0.243479,-0.02236 0.300915,-0.06752 0.05919,-0.04691 0.109317,-0.11867 0.150238,-0.214835 l 0.438877,-1.092442 h 0.537233 l -0.512681,1.267379 c -0.06328,0.16383 -0.158568,0.290685 -0.285277,0.380565 z" />
<path style="fill:#ffffff;stroke:#1b181a;stroke-width:0.07307308;stroke-linecap:butt;stroke-linejoin:miter;stroke-miterlimit:4;stroke-dasharray:none;stroke-opacity:1" d="M 27.069637,44.277264 C 27.018486,44.189284 26.872194,44.14544 26.63076,44.14544 h -0.785682 c -0.19832,0 -0.371357,0.04487 -0.518672,0.134893 -0.147316,0.09017 -0.25371,0.216004 -0.319037,0.377496 l -0.512681,1.267525 h 0.540156 l 0.442092,-1.092442 c 0.03683,-0.09222 0.0874,-0.162223 0.151846,-0.210305 0.06445,-0.04808 0.161053,-0.0722 0.289954,-0.0722 h 0.300915 c 0.143077,0 0.225065,0.02251 0.245379,0.06752 0.02046,0.04516 0.01228,0.116624 -0.02455,0.214981 l -0.441946,1.092442 h 0.537233 L 27.0483,44.657829 c 0.06737,-0.163684 0.07453,-0.290539 0.02134,-0.380565 z" />
<path style="fill:#ffffff;stroke:#1b181a;stroke-width:0.07307308;stroke-linecap:butt;stroke-linejoin:miter;stroke-miterlimit:4;stroke-dasharray:none;stroke-opacity:1" d="m 28.561204,44.550426 c 0.128901,0 0.206066,0.02411 0.231788,0.0722 0.02557,0.04808 0.02002,0.118086 -0.01681,0.210305 l -0.162807,0.404971 c -0.03683,0.09207 -0.08798,0.162076 -0.153307,0.210304 -0.06562,0.04808 -0.162807,0.07205 -0.291708,0.07205 h -0.635297 l 0.392841,-0.969826 z m -0.319183,1.374943 c 0.11867,0 0.22258,-0.01067 0.311437,-0.03215 0.08915,-0.02148 0.166899,-0.0532 0.233396,-0.09514 0.06635,-0.04194 0.123201,-0.09514 0.17026,-0.159738 0.04706,-0.0643 0.08798,-0.13957 0.122763,-0.225504 l 0.306907,-0.754991 c 0.03478,-0.08593 0.05437,-0.161053 0.05831,-0.225649 0.0041,-0.06431 -0.0098,-0.117502 -0.04136,-0.159446 -0.03171,-0.04209 -0.08403,-0.07366 -0.156669,-0.09529 -0.07263,-0.02134 -0.168214,-0.03201 -0.286885,-0.03201 h -1.405634 l -0.718162,1.779914 z" />
<path style="fill:#ffffff;stroke:#1b181a;stroke-width:0.07307308;stroke-linecap:butt;stroke-linejoin:miter;stroke-miterlimit:4;stroke-dasharray:none;stroke-opacity:1" d="m 31.492268,45.231774 0.16573,-0.404971 h -1.503844 c 0.03464,-0.08608 0.08477,-0.1536 0.150238,-0.202705 0.06547,-0.0491 0.162661,-0.07366 0.291562,-0.07366 h 1.17253 l 0.162661,-0.405118 h -1.408849 c -0.118525,0 -0.222435,0.01082 -0.311438,0.03215 -0.089,0.02163 -0.166752,0.0532 -0.233249,0.09514 -0.0665,0.04209 -0.123347,0.09529 -0.17026,0.159591 -0.0472,0.0646 -0.08813,0.139716 -0.122763,0.22565 l -0.307053,0.754991 c -0.03478,0.08593 -0.05422,0.161199 -0.05817,0.225504 -0.0041,0.0646 0.0096,0.117793 0.04136,0.159737 0.03171,0.04194 0.08389,0.07366 0.156523,0.09499 0.07249,0.02163 0.16836,0.0323 0.286885,0.0323 h 1.408849 l 0.162514,-0.405117 h -1.172238 c -0.128901,0 -0.206212,-0.02455 -0.231788,-0.07366 -0.02558,-0.04911 -0.01988,-0.120571 0.01695,-0.214835 h 0.153453 z" />
<path style="fill:#ffffff;stroke:#1b181a;stroke-width:0.07307308;stroke-linecap:butt;stroke-linejoin:miter;stroke-miterlimit:4;stroke-dasharray:none;stroke-opacity:1" d="m 33.849299,45.348384 c 0.0082,-0.09412 -0.02455,-0.157546 -0.09836,-0.190282 l -1.132487,-0.503328 c -0.0061,0 -0.0061,-0.01228 0,-0.03683 0.01841,-0.03683 0.04414,-0.05524 0.07687,-0.05524 h 1.503844 l 0.168799,-0.417247 h -1.503844 c -0.153454,0 -0.293754,0.02543 -0.420463,0.07658 -0.128901,0.0513 -0.211766,0.105517 -0.248594,0.16266 -0.01651,0.0266 -0.03332,0.0513 -0.05071,0.07366 -0.01739,0.02251 -0.0342,0.04194 -0.05071,0.05846 -0.01023,0.01418 -0.0209,0.03361 -0.03215,0.05817 -0.01125,0.02455 -0.02397,0.05524 -0.03829,0.09207 -0.06547,0.157545 -0.03391,0.26204 0.09499,0.313045 l 1.025215,0.445015 c 0.01228,0.0042 0.01622,0.02148 0.01228,0.05217 -0.0041,0.02864 -0.02777,0.04297 -0.07059,0.04297 h -1.408703 l -0.162661,0.405117 h 1.700118 c 0.128901,0 0.24348,-0.03478 0.343882,-0.104348 0.100111,-0.07161 0.174791,-0.146293 0.223896,-0.224042 0.03902,-0.07161 0.06153,-0.154331 0.06767,-0.248595 z" />
<path style="fill:#ffffff;stroke:#1b181a;stroke-width:0.07307308;stroke-linecap:butt;stroke-linejoin:miter;stroke-miterlimit:4;stroke-dasharray:none;stroke-opacity:1" d="m 35.988396,45.925398 h -1.408849 c -0.118525,0 -0.21425,-0.01067 -0.286885,-0.0323 -0.07263,-0.02134 -0.124809,-0.05305 -0.156522,-0.09499 -0.03171,-0.04194 -0.04545,-0.09514 -0.04136,-0.159738 0.0039,-0.0643 0.02338,-0.13957 0.05817,-0.225504 l 0.512535,-1.267525 h 0.540302 l -0.438877,1.092588 c -0.03887,0.09207 -0.0456,0.162077 -0.02002,0.210159 0.02558,0.04808 0.102887,0.0722 0.231788,0.0722 h 1.172239 l -0.05524,0.141177 z" />
<path style="fill:#ffffff;stroke:#1b181a;stroke-width:0.07307308;stroke-linecap:butt;stroke-linejoin:miter;stroke-miterlimit:4;stroke-dasharray:none;stroke-opacity:1" d="m 37.541491,44.145382 h -0.534018 l -0.718162,1.78006 h 0.534018 z" />
<path style="fill:#ffffff;stroke:#1b181a;stroke-width:0.07307308;stroke-linecap:butt;stroke-linejoin:miter;stroke-miterlimit:4;stroke-dasharray:none;stroke-opacity:1" d="m 39.161945,45.925398 h -1.405634 c -0.118817,0 -0.214396,-0.01067 -0.287031,-0.0323 -0.07263,-0.02134 -0.124809,-0.05305 -0.156522,-0.09499 -0.03171,-0.04194 -0.0456,-0.09514 -0.04151,-0.159738 0.0042,-0.0643 0.02368,-0.13957 0.05846,-0.225504 l 0.30676,-0.754991 c 0.03493,-0.08593 0.0757,-0.161053 0.122763,-0.225649 0.0472,-0.0643 0.10391,-0.117502 0.170407,-0.159592 0.06635,-0.04194 0.144246,-0.07366 0.233249,-0.09514 0.089,-0.02134 0.192767,-0.03215 0.311583,-0.03215 h 1.405634 l -0.16266,0.405117 h -1.169316 c -0.128901,0 -0.22565,0.02411 -0.2901,0.0722 -0.06445,0.04808 -0.115163,0.118086 -0.151992,0.210158 l -0.162515,0.405117 c -0.03683,0.09207 -0.04297,0.162077 -0.01841,0.210159 0.02455,0.04808 0.101133,0.0722 0.230034,0.0722 h 0.635444 l 0.236172,-0.583123 h 0.534018 z" />
<path style="fill:#ffffff;fill-rule:nonzero;stroke:#1b181a;stroke-width:0.07307308;stroke-linecap:butt;stroke-linejoin:miter;stroke-miterlimit:4;stroke-dasharray:none;stroke-opacity:1" d="m 41.119924,44.937202 0.0092,-0.104348 c 0.0082,-0.09412 0.001,-0.161638 -0.02148,-0.202705 -0.02251,-0.04078 -0.04808,-0.06138 -0.07658,-0.06138 -0.02879,0 -0.07234,0.02061 -0.130508,0.06138 -0.05831,0.04107 -0.120279,0.108587 -0.185606,0.202705 l -0.07366,0.104348 h 0.263794 z m -0.736577,0.404971 -0.383633,0.583269 h -0.540157 c 0.272125,-0.409209 0.478775,-0.719185 0.619952,-0.930074 0.141178,-0.210596 0.218927,-0.324152 0.233396,-0.340667 0.04077,-0.05101 0.08944,-0.104202 0.145708,-0.159445 0.05612,-0.05524 0.123201,-0.112533 0.201097,-0.171868 0.151261,-0.118671 0.280162,-0.178006 0.386556,-0.178006 h 0.303838 c 0.118671,0 0.202559,0.05934 0.251664,0.178006 0.0532,0.120717 0.07366,0.231203 0.06138,0.331313 0.0019,0.02879 -0.05217,0.452323 -0.16266,1.270741 h -0.540157 l 0.08301,-0.583269 z" />



<!-- left name box -->
<rect class="box" x="72" y="20" width="5" height="7" />
<rect class="box" x="77" y="20" width="59" height="21" />
<line class="divider-line" x1="77" x2="136" y1="27" y2="27" />
<line class="divider-line" x1="77" x2="136" y1="34" y2="34" />
<text class="scoresheet_results_team1_side" x="74.5" y="25" text-anchor="middle"></text>
<text class="scoresheet_results_team1_player1" x="78" y="25"></text>
<text class="scoresheet_results_team1_player2" x="78" y="32"></text>
<text class="scoresheet_results_team1_name small-text" x="78" y="38.5"></text>
<ellipse class="scoresheet_results_circle_team1" visibility="hidden" cx="100" cy="30" rx="28" ry="13" />

<!-- score box -->
<text class="small-text" x="148.5" y="19" text-anchor="middle" data-i18n="scoresheet:points"></text>
<rect class="box" x="138" width="21" y="20" height="21" />
<line class="divider-line" x1="138" x2="159" y1="27" y2="27" />
<line class="divider-line" x1="138" x2="159" y1="34" y2="34" />
<text x="148.5" y="25" text-anchor="middle">:</text>
<text x="148.5" y="32" text-anchor="middle">:</text>
<text x="148.5" y="39" text-anchor="middle">:</text>

<text class="scoresheet_results_team1_score1" x="143" y="25" text-anchor="middle"></text>
<text class="scoresheet_results_team1_score2" x="143" y="32" text-anchor="middle"></text>
<text class="scoresheet_results_team1_score3" x="143" y="39" text-anchor="middle"></text>
<text class="scoresheet_results_team2_score1" x="154" y="25" text-anchor="middle"></text>
<text class="scoresheet_results_team2_score2" x="154" y="32" text-anchor="middle"></text>
<text class="scoresheet_results_team2_score3" x="154" y="39" text-anchor="middle"></text>

<!-- right name box -->
<rect class="box shaded" x="220" y="20" width="5" height="7" />
<rect class="box shaded" x="161" y="20" width="59" height="21" />
<line class="divider-line" x1="161" x2="220" y1="27" y2="27" />
<line class="divider-line" x1="161" x2="220" y1="34" y2="34" />
<text class="scoresheet_results_team2_side" x="222.5" y="25" text-anchor="middle"></text>
<text class="scoresheet_results_team2_player1" x="162" y="25"></text>
<text class="scoresheet_results_team2_player2" x="162" y="32"></text>
<text class="scoresheet_results_team2_name small-text" x="162" y="38.5"></text>
<ellipse class="scoresheet_results_circle_team2" visibility="hidden" cx="189" cy="30" rx="28" ry="13" />

<!-- top right information about match -->
<text class="small-text" x="228" y="15" data-i18n="scoresheet:Court"></text>
<line class="dashed-line" x1="252" x2="282" y1="15.5" y2="15.5"/>
<text class="scoresheet_court_id" x="253" y="14"></text>
<text class="small-text" x="228" y="22" data-i18n="scoresheet:Umpire"></text>
<line class="dashed-line" x1="252" x2="282" y1="22.5" y2="22.5"/>
<text class="small-text scoresheet_umpire_name" x="253" y="21"></text>
<text class="small-text" x="228" y="29" data-i18n="scoresheet:Service judge"></text>
<line class="dashed-line" x1="252" x2="282" y1="29.5" y2="29.5"/>
<text class="small-text scoresheet_service_judge_name" x="253" y="28"></text>
<text class="small-text" x="228" y="36" data-i18n="scoresheet:Begin"></text>
<line class="dashed-line" x1="252" x2="282" y1="36.5" y2="36.5"/>
<text class="scoresheet_begin_value" x="253" y="35"></text>
<text class="small-text" x="228" y="43" data-i18n="scoresheet:End"></text>
<line class="dashed-line" x1="252" x2="282" y1="43.5" y2="43.5"/>
<text class="scoresheet_end_value" x="253" y="42"></text>
<text class="small-text" x="228" y="50" data-i18n="scoresheet:Duration"></text>
<line class="dashed-line" x1="252" x2="282" y1="50.5" y2="50.5"/>
<text class="scoresheet_duration_value" x="253" y="49"></text>

<text class="scoresheet_match_label small-text" x="78" y="50" data-i18n="scoresheet:Match"></text>
<text class="scoresheet_match_name" x="88" y="50"></text>
<g class="scoresheet_shuttle_counter">
	<text class="small-text" x="178" y="50" text-anchor="end" data-i18n="scoresheet:Shuttles"></text>
	<text class="scoresheet_shuttle_counter_value" x="179" y="50"></text>
</g>
<text class="scoresheet_date_label small-text" x="188" y="50" data-i18n="scoresheet:Date"></text>
<text class="scoresheet_date_value" x="199" y="50"></text>


<g class="scoresheet_table_container"></g>

<text class="small-text" x="118" y="200" data-i18n="scoresheet:Umpire"></text>
<line class="dashed-line" x1="142" x2="202" y1="200.5" y2="200.5" />
<text class="small-text" x="207" y="200" data-i18n="scoresheet:Referee"></text>
<line class="dashed-line" x1="222" x2="282" y1="200.5" y2="200.5" />

</svg>
