<svg xmlns="http://www.w3.org/2000/svg" xmlns:xlink="http://www.w3.org/1999/xlink" version="1.1" viewBox="0 0 2970 2100">
<style>
	text {
		font-family: Helvetica;
		font-size: 40px;
	}
	text.small-text, text.table_name {font-size: 30px;}
	.divider-line {stroke: #000; stroke-width: 2;}
	.box {stroke: #000; stroke-width: 5; fill: none;}
	.shade,.box.shaded,.table_longtext_background.shaded {fill: #e0e0e0;}
	.scoresheet_results_circle_team1,.scoresheet_results_circle_team2 {
		stroke: #000; stroke-width: 6; fill: none;
	}
	.dashed-line {
		stroke: #000; stroke-width: 4; stroke-dasharray: 4, 4;
	}
	.table {
		stroke: #000; stroke-width: 3.5; fill: none;
	}
	.table_line {
		stroke: #000; stroke-width: 1;
	}
	.table_20all_dash {
		stroke: #000; stroke-width: 4;
	}
	.editmode-sign {
		stroke: #202020; stroke-width: 3; fill: none;
	}
	.table_thick-line {
		stroke: #000; stroke-width: 3.5;
	}
	.table_game_result {
		stroke: #000; stroke-width: 4; fill: none;
	}
	.table_longtext_background {
		fill: #fff;
		opacity: 0.75;
	}
</style>

<!-- top left -->
<text class="scoresheet_tournament_name" x="550" y="130"/>
<text class="scoresheet_event_name" font-weight="bold" x="500" y="130"/><!-- x will be set automatically -->

<!-- ÖBV Bundesliga logo -->
<path style="fill:#231f20;fill-rule:evenodd" d="m 300.84681 87.38680099999999 h 135.82291 c 13.28676 0 24.1461 10.861628000000001 24.1461 24.146089000000003 v 351.70775999999995 c 0 13.28647 -10.85934 24.14621 -24.1461 24.14621 H 178.02454 c -13.28453 0 -24.146040000000003 -10.85974 -24.146040000000003 -24.14621 V 234.35534 Z  m 1.25028 3.018262 h 134.57263 c 11.62048 0 21.12841 9.509067 21.12841 21.127827 v 351.70775999999995 c 0 11.62042 -9.50793 21.12772 -21.12841 21.12772 H 178.02454 c -11.618649999999999 0 -21.12772 -9.507299999999999 -21.12772 -21.12772 V 235.60562000000002 Z"/>
<path style="fill:#231f20;fill-rule:evenodd" d="M 178.02454 87.38680099999999 H 294.29258 L 153.8785 227.80054 V 111.53289 c 0 -13.286176000000001 10.85974 -24.146089000000003 24.146040000000003 -24.146089000000003 z  m 69.86041 3.018262 h 39.12083 L 156.89682 220.51373999999998 v -39.12083 l 90.98813 -90.98784699999999"/>
<path style="fill:#4f4c4c;fill-rule:evenodd" d="M 457.79812999999996 349.00642 H 156.89682 v 6.03653 h 300.90130999999997 v -6.03653"/>
<path style="fill:#bdbbbc;fill-rule:nonzero" d="m 293.39006 303.03249999999997 c 0 0 131.78009 -88.47129000000001 140.24402 -101.50147000000001 8.45422 -13.02904 -11.65134 -7.2668 -11.65134 -7.2668 0 0 -9.57935 3.00512 -25.8455 14.41189 -10.86163 7.61422 -102.74718 94.35638 -102.74718 94.35638"/>
<path style="fill:#bdbbbc;fill-rule:nonzero" d="m 283.17038 299.9131 c 0 0 93.96553 -84.81132000000001 107.02829 -107.33457 0 0 4.95767 -10.189630000000001 -12.18448 -4.7039599999999995 -7.61308 2.43941 -12.48161 5.16281 -12.48161 5.16281 0 0 -10.435350000000001 5.20682 -17.36386 16.01416 -6.93252 10.811919999999999 -64.99834 90.86156000000001 -64.99834 90.86156000000001"/>
<path style="fill:#bdbbbc;fill-rule:nonzero" d="m 273.76131 296.23256000000003 c 0 0 67.63603 -90.84042 69.03088 -94.39925000000001 2.8988300000000002 -7.41308 -0.093 -17.04957 -0.093 -17.04957 0 0 -3.99826 -18.72843 -14.682170000000001 -3.48398 0 0 -26.74379 44.39051 -54.255570000000006 114.9328"/>
<path style="fill:#bdbbbc;fill-rule:nonzero" d="m 302.94051 162.68677 c 12.8519 -27.567780000000003 13.48389 11.462190000000001 13.362750000000002 14.187890000000001 -0.1154 2.72283 -0.7154 4.50568 -0.7154 4.50568 l -50.4676 110.81282 37.82027 -129.50639"/>
<path style="fill:#bdbbbc;fill-rule:nonzero" d="m 259.62657 280.56297 c 0 0 34.76086 -124.32586 36.427139999999994 -129.82182 2.7274 -8.804499999999999 -4.25426 -22.763239999999996 -4.25426 -22.763239999999996 0 0 -5.11595 -7.402800000000001 -8.59764 18.15699 0 0 -25.08837 128.54869000000002 -23.57524 134.42807"/>
<path style="fill:#4f4c4c;fill-rule:evenodd" d="m 301.27594999999997 302.61822 c -3.45883 10.62792 -17.37129 15.24502 -31.47061 10.30906 -14.36559 -5.02967 -23.48324 -18.07128 -20.36669 -29.12948 0.7743 -2.74569 2.2297000000000002 -5.11024 4.20054 -7.03766 -0.39260000000000006 0.7594 -0.72 1.5582799999999999 -0.9731 2.39541 -3.15026 10.39249 6.06338 22.64954 20.579839999999997 27.376360000000002 11.087340000000001 3.6102499999999997 22.06097 1.78227 28.03006 -3.9136900000000003"/>
<path style="fill:#4f4c4c;fill-rule:evenodd" d="m 268.87221 329.78543 c -15.41531 0.49889999999999995 -28.25463 -10.62277 -28.676910000000003 -24.84037 -0.1874 -6.28795 2.08684 -12.12733 6.01423 -16.72958 l -0.031 0.12229999999999999 c -2.9177 11.51305 6.86223 24.740940000000002 21.845530000000004 29.54433 9.32793 2.99026 18.47071 2.00913 24.74895 -1.93427 -4.56625 7.9490799999999995 -13.48846 13.50103 -23.900380000000002 13.837600000000002"/>
<path style="fill:#ed1c24;fill-rule:evenodd" d="M 457.79812999999996 355.04295 H 156.89682 v 108.1977 c 0 11.62042 9.50724 21.12772 21.12772 21.12772 h 258.64518 c 11.62048 0 21.12841 -9.507299999999999 21.12841 -21.12772 v -108.1977"/>
<path style="fill:#ed1c24;fill-rule:evenodd" d="M 178.02454 90.40506300000001 H 287.00578 L 156.89682 220.51373999999998 V 111.53289 c 0 -11.620474999999999 9.50724 -21.127827 21.12772 -21.127827"/>
<path style="fill:#ffffff;fill-rule:evenodd" d="m 208.45555000000002 90.40506300000001 h 39.4294 l -90.98813 90.98784699999999 v -39.42826 l 51.55873 -51.559587"/>
<path style="fill:#ed1c24;fill-rule:evenodd" d="m 178.02454 90.40506300000001 h 30.43101 l -51.55873 51.559587 v -30.431759999999997 c 0 -11.620474999999999 9.50724 -21.127827 21.12772 -21.127827"/>
<path style="fill:#ffffff;fill-rule:nonzero;stroke:none;stroke-width:1.4614616" d="m 219.32238 406.70713 c -1.12533 2.94338 -1.3766999999999998 5.104889999999999 -0.7496999999999999 6.48012 0.6898 1.44539 3.1626 2.1615 7.41984 2.1615 h 9.20575 c 3.9459400000000002 0 6.9054 -0.738 8.87692 -2.2082699999999997 1.9729700000000001 -1.47169 3.52212 -3.6171100000000003 4.6489 -6.43335 l 4.9792 -12.39758 c 1.1911 -2.81916 1.4088500000000002 -4.96312 0.6591 -6.43335 -0.7512000000000001 -1.4760799999999998 -2.12788 -1.95982 -4.13447 -1.4585400000000002 l -5.166269999999999 12.7761 h -15.967929999999999 l 5.166269999999999 -12.7761 c -1.81514 -0.3741 -3.6025 0.077 -5.354799999999999 1.36208 -1.75229 1.28316 -3.2868199999999996 3.45928 -4.60506 6.52981 z  m -9.29782 -17.75091 c 1.94082 -5.015739999999999 4.85352 -8.893 8.73662 -11.64931 3.69604 -2.6934799999999997 9.23644 -4.04094 16.62412 -4.04094 h 24.04982 c 3.63173 0 6.5415 0.3288 8.73661 0.9879 2.18927 0.6577 3.8831100000000003 2.11328 5.068350000000001 4.37124 1.12825 2.31203 0.8783000000000001 5.75815 -0.7483 10.33107 l -9.39573 23.10571 c -2.56487 5.75815 -5.196960000000001 9.45565 -7.88897 11.0808 -2.6920100000000002 1.7552100000000002 -5.4176400000000005 2.94484 -8.1725 3.57327 -3.0675999999999997 0.6869000000000001 -6.2609 1.03325 -9.5828 1.03325 h -24.04543 c -7.38768 0 -11.86706 -1.346 -13.43229 -4.039479999999999 -1.62953 -2.75339 -1.41031 -6.63942 0.6577 -11.64784 l 9.39281 -23.10571"/>
<path style="fill:none;stroke:#2e2a2b;stroke-width:1.4614616;stroke-linecap:butt;stroke-linejoin:miter;stroke-miterlimit:4;stroke-dasharray:none;stroke-opacity:1" d="m 219.32238 406.70713 c -1.12533 2.94338 -1.3766999999999998 5.104889999999999 -0.7496999999999999 6.48012 0.6898 1.44539 3.1626 2.1615 7.41984 2.1615 h 9.20575 c 3.9459400000000002 0 6.9054 -0.738 8.87692 -2.2082699999999997 1.9729700000000001 -1.47169 3.52212 -3.6171100000000003 4.6489 -6.43335 l 4.9792 -12.39758 c 1.1911 -2.81916 1.4088500000000002 -4.96312 0.6591 -6.43335 -0.7512000000000001 -1.4760799999999998 -2.12788 -1.95982 -4.13447 -1.4585400000000002 l -5.166269999999999 12.7761 h -15.967929999999999 l 5.166269999999999 -12.7761 c -1.81514 -0.3741 -3.6025 0.077 -5.354799999999999 1.36208 -1.75229 1.28316 -3.2868199999999996 3.45928 -4.60506 6.52981 z  m -9.29782 -17.75091 c 1.94082 -5.015739999999999 4.85352 -8.893 8.73662 -11.64931 3.69604 -2.6934799999999997 9.23644 -4.04094 16.62412 -4.04094 h 24.04982 c 3.63173 0 6.5415 0.3288 8.73661 0.9879 2.18927 0.6577 3.8831100000000003 2.11328 5.068350000000001 4.37124 1.12825 2.31203 0.8783000000000001 5.75815 -0.7483 10.33107 l -9.39573 23.10571 c -2.56487 5.75815 -5.196960000000001 9.45565 -7.88897 11.0808 -2.6920100000000002 1.7552100000000002 -5.4176400000000005 2.94484 -8.1725 3.57327 -3.0675999999999997 0.6869000000000001 -6.2609 1.03325 -9.5828 1.03325 h -24.04543 c -7.38768 0 -11.86706 -1.346 -13.43229 -4.039479999999999 -1.62953 -2.75339 -1.41031 -6.63942 0.6577 -11.64784 l 9.39281 -23.10571"/>
<path style="fill:none;stroke:#2e2a2b;stroke-width:1.4614616;stroke-linecap:butt;stroke-linejoin:miter;stroke-miterlimit:4;stroke-dasharray:none;stroke-opacity:1" d="m 219.32238 406.70713 c -1.12533 2.94338 -1.3766999999999998 5.104889999999999 -0.7496999999999999 6.48012 0.6898 1.44539 3.1626 2.1615 7.41984 2.1615 h 9.20575 c 3.9459400000000002 0 6.9054 -0.738 8.87692 -2.2082699999999997 1.9729700000000001 -1.47169 3.52212 -3.6171100000000003 4.6489 -6.43335 l 4.9792 -12.39758 c 1.1911 -2.81916 1.4088500000000002 -4.96312 0.6591 -6.43335 -0.7512000000000001 -1.4760799999999998 -2.12788 -1.95982 -4.13447 -1.4585400000000002 l -5.166269999999999 12.7761 h -15.967929999999999 l 5.166269999999999 -12.7761 c -1.81514 -0.3741 -3.6025 0.077 -5.354799999999999 1.36208 -1.75229 1.28316 -3.2868199999999996 3.45928 -4.60506 6.52981 z"/>
<path style="fill:none;stroke:#2e2a2b;stroke-width:1.4614616;stroke-linecap:butt;stroke-linejoin:miter;stroke-miterlimit:4;stroke-dasharray:none;stroke-opacity:1" d="m 210.02411999999998 388.95695 c 1.9422800000000002 -5.017200000000001 4.85351 -8.894459999999999 8.73516 -11.65077 3.6945699999999997 -2.6920100000000002 9.23789 -4.039479999999999 16.62704 -4.039479999999999 h 24.04836 c 3.6288 0 6.54004 0.32739999999999997 8.73369 0.9865 2.19073 0.6591 3.8830999999999998 2.11474 5.06981 4.3727 1.12825 2.31203 0.8783000000000001 5.7567 -0.7496999999999999 10.33107 l -9.39427 23.10571 c -2.56487 5.75816 -5.195499999999999 9.45419 -7.88751 11.0808 -2.69202 1.75522 -5.4176400000000005 2.94338 -8.173960000000001 3.57327 -3.06907 0.6869000000000001 -6.2609 1.03326 -9.57988 1.03326 h -24.046889999999998 c -7.38769 0 -11.86707 -1.34747 -13.43521 -4.04094 -1.62661 -2.75194 -1.40739 -6.63942 0.6576 -11.64639 z"/>
<path style="fill:#ffffff;fill-rule:nonzero;stroke:none;stroke-width:1.4614616" d="m 313.52819 394.11913 c 4.25578 0 7.04571 -0.2806 8.35956 -0.8433 1.441 -0.5013 2.35149 -1.22032 2.7270899999999996 -2.16443 0.2484 -0.8067000000000001 0.057999999999999996 -1.94082 -0.5656 -3.37744 -0.6284 -1.37962 -3.1333699999999998 -2.0650399999999998 -7.51483 -2.0650399999999998 h -19.34829 l -3.3832899999999997 8.45017 z  m -24.79954 12.39758 -3.56743 8.83161 h 19.34975 c 4.38439 0 7.4519899999999994 -0.6869000000000001 9.20575 -2.06651 1.8122099999999999 -1.43954 2.90977 -2.56778 3.28683 -3.38036 0.3128 -0.9411999999999999 0 -1.7216 -0.9411999999999999 -2.35003 -0.9966999999999999 -0.6869000000000001 -3.59811 -1.03471 -7.79543 -1.03471 z  m 37.66625 -4.69422 c 6.20098 1.50385 8.58024 4.13448 7.13924 7.89044 l -1.03179 2.34856 c -1.9437499999999999 5.008430000000001 -4.85352 8.894459999999999 -8.73516 11.64785 -3.6975000000000002 2.6934799999999997 -9.2379 4.04094 -16.62559 4.04094 h -43.3031 l 21.98038 -54.484750000000005 h 43.303110000000004 c 7.38622 0 11.862680000000001 1.34747 13.43521 4.04095 1.62661 2.75631 1.4044699999999999 6.63942 -0.6619999999999999 11.65077 l -0.9397 2.34564 c -1.8136700000000001 4.447229999999999 -6.67011 7.95474 -14.56054 10.5196"/>
<path style="fill:none;stroke:#2e2a2b;stroke-width:1.4614616;stroke-linecap:butt;stroke-linejoin:miter;stroke-miterlimit:4;stroke-dasharray:none;stroke-opacity:1" d="m 313.52819 394.11913 c 4.25578 0 7.04571 -0.2806 8.35956 -0.8433 1.441 -0.5013 2.35149 -1.22032 2.7270899999999996 -2.16443 0.2484 -0.8067000000000001 0.057999999999999996 -1.94082 -0.5656 -3.37744 -0.6284 -1.37962 -3.1333699999999998 -2.0650399999999998 -7.51483 -2.0650399999999998 h -19.34829 l -3.3832899999999997 8.45017 z  m -24.79954 12.39758 -3.56743 8.83161 h 19.34975 c 4.38439 0 7.4519899999999994 -0.6869000000000001 9.20575 -2.06651 1.8122099999999999 -1.43954 2.90977 -2.56778 3.28683 -3.38036 0.3128 -0.9411999999999999 0 -1.7216 -0.9411999999999999 -2.35003 -0.9966999999999999 -0.6869000000000001 -3.59811 -1.03471 -7.79543 -1.03471 z  m 37.66625 -4.69422 c 6.20098 1.50385 8.58024 4.13448 7.13924 7.89044 l -1.03179 2.34856 c -1.9437499999999999 5.008430000000001 -4.85352 8.894459999999999 -8.73516 11.64785 -3.6975000000000002 2.6934799999999997 -9.2379 4.04094 -16.62559 4.04094 h -43.3031 l 21.98038 -54.484750000000005 h 43.303110000000004 c 7.38622 0 11.862680000000001 1.34747 13.43521 4.04095 1.62661 2.75631 1.4044699999999999 6.63942 -0.6619999999999999 11.65077 l -0.9397 2.34564 c -1.8136700000000001 4.447229999999999 -6.67011 7.95474 -14.56054 10.5196"/>
<path style="fill:none;stroke:#2e2a2b;stroke-width:1.4614616;stroke-linecap:butt;stroke-linejoin:miter;stroke-miterlimit:4;stroke-dasharray:none;stroke-opacity:1" d="m 313.52819 394.11913 c 4.25578 0 7.04571 -0.2806 8.35956 -0.8433 1.441 -0.5013 2.35149 -1.22032 2.7270899999999996 -2.16443 0.2484 -0.8067000000000001 0.057999999999999996 -1.94082 -0.5656 -3.37744 -0.6284 -1.37962 -3.1333699999999998 -2.0650399999999998 -7.51483 -2.0650399999999998 h -19.34829 l -3.3832899999999997 8.45017 z"/>
<path style="fill:none;stroke:#2e2a2b;stroke-width:1.4614616;stroke-linecap:butt;stroke-linejoin:miter;stroke-miterlimit:4;stroke-dasharray:none;stroke-opacity:1" d="m 288.72893999999997 406.51729 -3.56743 8.83161 h 19.34829 c 4.38439 0 7.452 -0.6883 9.20721 -2.0665 1.8122099999999999 -1.43954 2.90977 -2.5677899999999996 3.28683 -3.38183 0.3128 -0.9397 0 -1.72014 -0.9411999999999999 -2.34857 -0.9966999999999999 -0.6854 -3.59812 -1.03471 -7.79544 -1.03471 z"/>
<path style="fill:none;stroke:#2e2a2b;stroke-width:1.4614616;stroke-linecap:butt;stroke-linejoin:miter;stroke-miterlimit:4;stroke-dasharray:none;stroke-opacity:1" d="m 326.39446 401.82176 c 6.20098 1.5038399999999998 8.58024 4.13447 7.1407 7.89043 l -1.03179 2.35003 c -1.94374 5.008430000000001 -4.854979999999999 8.894459999999999 -8.73662 11.64785 -3.6975000000000002 2.6920100000000002 -9.2379 4.039479999999999 -16.62412 4.039479999999999 h -43.30457 l 21.98038 -54.483290000000004 h 43.303110000000004 c 7.38622 0 11.862680000000001 1.34747 13.43668 4.04094 1.62514 2.75486 1.4044599999999998 6.64088 -0.6635000000000001 11.64931 l -0.9397 2.34711 c -1.8122099999999999 4.447229999999999 -6.67011 7.95327 -14.56054 10.51814 z"/>
<path style="fill:#ffffff;fill-rule:nonzero" d="m 415.16393 373.26611 c -16.784889999999997 25.11229 -25.61358 38.14122 -26.48899 39.0751 -2.19366 3.07053 -5.54186 6.38805 -10.04901 9.95548 -4.38585 3.6361100000000004 -8.393180000000001 5.45271 -12.02637 5.45271 h -9.30074 c -3.0047699999999997 0 -5.4468700000000005 -1.8165999999999998 -7.3219199999999995 -5.45271 -1.81806 -3.75596 -2.6014 -7.00771 -2.35149 -9.76403 -0.1286 -0.624 0.2368 -4.1827 1.07709 -10.664290000000001 0.8477 -6.47865 2.17758 -16.01615 3.99564 -28.60226 h 16.53059 l -5.068350000000001 33.44116 c -0.18710000000000002 1.44247 -0.20750000000000002 2.61602 -0.05 3.5221299999999998 0.1578 0.9105000000000001 0.40779999999999994 1.6280700000000001 0.7496999999999999 2.1615 0.34349999999999997 0.5334 0.757 0.9236 1.22325 1.1750099999999999 0.4691 0.2484 0.9236 0.4063 1.36354 0.4662 1.0654 -0.1213 2.39095 -0.6679 3.99125 -1.64122 1.59884 -0.9719 3.3979 -2.8673900000000003 5.39864 -5.683629999999999 l 21.793309999999998 -33.44116 h 16.53352 z"/>
<path style="fill:none;stroke:#2e2a2b;stroke-width:1.4614616;stroke-linecap:butt;stroke-linejoin:miter;stroke-miterlimit:4;stroke-dasharray:none;stroke-opacity:1" d="m 415.16393 373.26611 c -16.784889999999997 25.11229 -25.61358 38.14122 -26.48899 39.0751 -2.19366 3.07053 -5.54186 6.38805 -10.04901 9.95548 -4.38585 3.6361100000000004 -8.393180000000001 5.45271 -12.02637 5.45271 h -9.30074 c -3.0047699999999997 0 -5.4468700000000005 -1.8165999999999998 -7.3219199999999995 -5.45271 -1.81806 -3.75596 -2.6014 -7.00771 -2.35149 -9.76403 -0.1286 -0.624 0.2368 -4.1827 1.07709 -10.664290000000001 0.8477 -6.47865 2.17758 -16.01615 3.99564 -28.60226 h 16.53059 l -5.068350000000001 33.44116 c -0.18710000000000002 1.44247 -0.20750000000000002 2.61602 -0.05 3.5221299999999998 0.1578 0.9105000000000001 0.40779999999999994 1.6280700000000001 0.7496999999999999 2.1615 0.34349999999999997 0.5334 0.757 0.9236 1.22325 1.1750099999999999 0.4691 0.2484 0.9236 0.4063 1.36354 0.4662 1.0654 -0.1213 2.39095 -0.6679 3.99125 -1.64122 1.59884 -0.9719 3.3979 -2.8673900000000003 5.39864 -5.683629999999999 l 21.793309999999998 -33.44116 z"/>
<path style="fill:#ffffff;stroke:#1b181a;stroke-width:0.7307308;stroke-linecap:butt;stroke-linejoin:miter;stroke-miterlimit:4;stroke-dasharray:none;stroke-opacity:1" d="m 212.72165 452.31774 c 1.3708500000000001 0 2.22142 0.11249999999999999 2.5473299999999997 0.3376 0.3069 0.2046 0.4092 0.4604 0.3069 0.7673000000000001 -0.12279999999999999 0.266 -0.4808 0.6343 -1.07271 1.10487 -0.5743 0.4501 -1.57545 0.6752 -3.00915 0.6752 h -6.32228 l 1.16771 -2.8849299999999998 z  m -4.7249099999999995 -4.04971 1.10341 -2.76362 h 6.32374 c 1.43077 0 2.25065 0.2251 2.4537999999999998 0.6752 0.2046 0.47059999999999996 0.266 0.8389000000000001 0.18409999999999999 1.10487 -0.12279999999999999 0.3069 -0.4194 0.5422 -0.8899999999999999 0.7059 -0.4297 0.18409999999999999 -1.34016 0.2777 -2.73001 0.2777 z  m 15.40673 -0.9221999999999999 0.3069 -0.7673000000000001 c 0.6737 -1.6368399999999999 0.7454 -2.9053899999999997 0.2134 -3.80565 -0.5115000000000001 -0.8798 -1.9744300000000001 -1.3197 -4.38877 -1.3197 h -14.14841 l -7.18162 17.80061 h 14.14841 c 2.41434 0 4.22655 -0.4399 5.433719999999999 -1.3197 1.26708 -0.8988 2.21849 -2.1688099999999997 2.85277 -3.80565 l 0.3376 -0.7673000000000001 c 0.4721 -1.22762 -0.3069 -2.08696 -2.33103 -2.57801 2.57655 -0.8389000000000001 4.16224 -1.98321 4.75705 -3.43736 z"/>
<path style="fill:#ffffff;stroke:#1b181a;stroke-width:0.7307308;stroke-linecap:butt;stroke-linejoin:miter;stroke-miterlimit:4;stroke-dasharray:none;stroke-opacity:1" d="m 241.17309 457.93385 c -1.20717 0.8813 -3.01792 1.3197 -5.4337100000000005 1.3197 h -7.85682 c -1.98321 0 -3.34967 -0.4487 -4.09502 -1.35039 -0.7483 -0.9003 -0.8038 -2.1585799999999997 -0.171 -3.77496 l 5.125349999999999 -12.67379 h 5.40156 l -4.38877 10.92442 c -0.3873 0.9207 -0.45449999999999996 1.62223 -0.19879999999999998 2.10305 0.25579999999999997 0.4808 1.02887 0.7205 2.3178799999999997 0.7205 h 3.0062299999999995 c 1.43369 0 2.43479 -0.22360000000000002 3.00915 -0.6752 0.5919 -0.4691 1.09317 -1.1867 1.50238 -2.1483499999999998 l 4.38877 -10.92442 h 5.37233 l -5.126810000000001 12.67379 c -0.6328 1.6383 -1.58568 2.9068500000000004 -2.85277 3.80565 z"/>
<path style="fill:#ffffff;stroke:#1b181a;stroke-width:0.7307308;stroke-linecap:butt;stroke-linejoin:miter;stroke-miterlimit:4;stroke-dasharray:none;stroke-opacity:1" d="M 270.69637 442.77264 C 270.18486 441.89284 268.72194 441.4544 266.3076 441.4544 h -7.85682 c -1.9832 0 -3.71357 0.4487 -5.18672 1.3489300000000002 -1.47316 0.9017 -2.5370999999999997 2.16004 -3.19037 3.77496 l -5.126810000000001 12.67525 h 5.40156 l 4.42092 -10.92442 c 0.3683 -0.9221999999999999 0.8740000000000001 -1.62223 1.5184600000000001 -2.10305 0.6445 -0.4808 1.61053 -0.722 2.89954 -0.722 h 3.00915 c 1.43077 0 2.25065 0.2251 2.45379 0.6752 0.2046 0.4516 0.12279999999999999 1.1662400000000002 -0.2455 2.14981 l -4.41946 10.92442 h 5.37233 L 270.483 446.57829 c 0.6737 -1.6368399999999999 0.7453 -2.9053899999999997 0.2134 -3.80565 z"/>
<path style="fill:#ffffff;stroke:#1b181a;stroke-width:0.7307308;stroke-linecap:butt;stroke-linejoin:miter;stroke-miterlimit:4;stroke-dasharray:none;stroke-opacity:1" d="m 285.61204 445.50426000000004 c 1.2890099999999998 0 2.06066 0.24109999999999998 2.3178799999999997 0.722 0.2557 0.4808 0.2002 1.18086 -0.16809999999999997 2.10305 l -1.6280700000000001 4.04971 c -0.3683 0.9207 -0.8798 1.62076 -1.53307 2.10304 -0.6562 0.4808 -1.6280700000000001 0.7205 -2.9170800000000003 0.7205 h -6.35297 l 3.92841 -9.69826 z  m -3.19183 13.74943 c 1.1867 0 2.2258 -0.1067 3.11437 -0.3215 0.8915 -0.2148 1.66899 -0.532 2.33396 -0.9514 0.6635000000000001 -0.4194 1.23201 -0.9514 1.7026 -1.5973799999999998 0.47059999999999996 -0.643 0.8798 -1.3957 1.22763 -2.25504 l 3.06907 -7.54991 c 0.3478 -0.8593000000000001 0.5437000000000001 -1.61053 0.5831 -2.25649 0.041 -0.6431 -0.098 -1.17502 -0.4136 -1.59446 -0.31710000000000005 -0.42090000000000005 -0.8402999999999999 -0.7366 -1.56669 -0.9529 -0.7263 -0.2134 -1.68214 -0.32009999999999994 -2.86885 -0.32009999999999994 h -14.05634 l -7.18162 17.79914 z"/>
<path style="fill:#ffffff;stroke:#1b181a;stroke-width:0.7307308;stroke-linecap:butt;stroke-linejoin:miter;stroke-miterlimit:4;stroke-dasharray:none;stroke-opacity:1" d="m 314.92268 452.31774 1.6572999999999998 -4.04971 h -15.03844 c 0.3464 -0.8608 0.8477 -1.5359999999999998 1.50238 -2.02705 0.6547000000000001 -0.491 1.62661 -0.7366 2.9156199999999997 -0.7366 h 11.7253 l 1.62661 -4.05118 h -14.08849 c -1.1852500000000001 0 -2.22435 0.10819999999999999 -3.1143799999999997 0.3215 -0.8899999999999999 0.2163 -1.6675200000000001 0.532 -2.33249 0.9514 -0.665 0.42090000000000005 -1.23347 0.9529 -1.7026 1.5959100000000002 -0.472 0.646 -0.8813 1.39716 -1.22763 2.2565 l -3.07053 7.54991 c -0.3478 0.8593000000000001 -0.5422 1.61199 -0.5817 2.25504 -0.041 0.646 0.09599999999999999 1.17793 0.4136 1.59737 0.31710000000000005 0.4194 0.8389000000000001 0.7366 1.56523 0.9499000000000001 0.7249 0.2163 1.6836000000000002 0.323 2.86885 0.323 h 14.08849 l 1.62514 -4.05117 h -11.72238 c -1.2890099999999998 0 -2.06212 -0.2455 -2.3178799999999997 -0.7366 -0.25579999999999997 -0.4911 -0.19879999999999998 -1.20571 0.16949999999999998 -2.1483499999999998 h 1.5345300000000002 z"/>
<path style="fill:#ffffff;stroke:#1b181a;stroke-width:0.7307308;stroke-linecap:butt;stroke-linejoin:miter;stroke-miterlimit:4;stroke-dasharray:none;stroke-opacity:1" d="m 338.49299 453.48384000000004 c 0.082 -0.9411999999999999 -0.2455 -1.5754599999999999 -0.9836 -1.9028200000000002 l -11.32487 -5.0332799999999995 c -0.061000000000000006 0 -0.061000000000000006 -0.12279999999999999 0 -0.3683 0.18409999999999999 -0.3683 0.4414 -0.5524 0.7686999999999999 -0.5524 h 15.03844 l 1.68799 -4.17247 h -15.03844 c -1.53454 0 -2.9375400000000003 0.2543 -4.20463 0.7657999999999999 -1.2890099999999998 0.513 -2.11766 1.05517 -2.4859400000000003 1.6266 -0.1651 0.266 -0.33320000000000005 0.513 -0.5071 0.7366 -0.1739 0.2251 -0.342 0.4194 -0.5071 0.5846 -0.1023 0.1418 -0.209 0.3361 -0.3215 0.5817 -0.11249999999999999 0.2455 -0.23970000000000002 0.5524 -0.38289999999999996 0.9207 -0.6547000000000001 1.57545 -0.3391 2.6204 0.9499000000000001 3.13045 l 10.25215 4.45015 c 0.12279999999999999 0.041999999999999996 0.16219999999999998 0.2148 0.12279999999999999 0.5217 -0.041 0.2864 -0.2777 0.4297 -0.7059 0.4297 h -14.08703 l -1.62661 4.05117 h 17.00118 c 1.2890099999999998 0 2.4348 -0.3478 3.43882 -1.04348 1.0011100000000002 -0.7161 1.74791 -1.46293 2.23896 -2.24042 0.3902 -0.7161 0.6153 -1.54331 0.6767 -2.48595 z"/>
<path style="fill:#ffffff;stroke:#1b181a;stroke-width:0.7307308;stroke-linecap:butt;stroke-linejoin:miter;stroke-miterlimit:4;stroke-dasharray:none;stroke-opacity:1" d="m 359.88396 459.25398 h -14.08849 c -1.1852500000000001 0 -2.1425 -0.1067 -2.86885 -0.323 -0.7263 -0.2134 -1.24809 -0.5305 -1.56522 -0.9499000000000001 -0.31710000000000005 -0.4194 -0.45449999999999996 -0.9514 -0.4136 -1.5973799999999998 0.039 -0.643 0.2338 -1.3957 0.5817 -2.25504 l 5.125349999999999 -12.67525 h 5.40302 l -4.38877 10.92588 c -0.38870000000000005 0.9207 -0.456 1.62077 -0.2002 2.1015900000000003 0.25579999999999997 0.4808 1.02887 0.722 2.3178799999999997 0.722 h 11.72239 l -0.5524 1.41177 z"/>
<path style="fill:#ffffff;stroke:#1b181a;stroke-width:0.7307308;stroke-linecap:butt;stroke-linejoin:miter;stroke-miterlimit:4;stroke-dasharray:none;stroke-opacity:1" d="m 375.41491 441.45381999999995 h -5.34018 l -7.18162 17.8006 h 5.34018 z"/>
<path style="fill:#ffffff;stroke:#1b181a;stroke-width:0.7307308;stroke-linecap:butt;stroke-linejoin:miter;stroke-miterlimit:4;stroke-dasharray:none;stroke-opacity:1" d="m 391.61945000000003 459.25398 h -14.05634 c -1.18817 0 -2.14396 -0.1067 -2.87031 -0.323 -0.7263 -0.2134 -1.24809 -0.5305 -1.56522 -0.9499000000000001 -0.31710000000000005 -0.4194 -0.456 -0.9514 -0.41509999999999997 -1.5973799999999998 0.041999999999999996 -0.643 0.2368 -1.3957 0.5846 -2.25504 l 3.0675999999999997 -7.54991 c 0.34930000000000005 -0.8593000000000001 0.757 -1.61053 1.22763 -2.25649 0.472 -0.643 1.0391 -1.17502 1.70407 -1.59592 0.6635000000000001 -0.4194 1.44246 -0.7366 2.33249 -0.9514 0.8899999999999999 -0.2134 1.92767 -0.3215 3.11583 -0.3215 h 14.05634 l -1.6266 4.05117 h -11.69316 c -1.2890099999999998 0 -2.2565 0.24109999999999998 -2.9010000000000002 0.722 -0.6445 0.4808 -1.15163 1.18086 -1.51992 2.1015800000000002 l -1.6251499999999999 4.05117 c -0.3683 0.9207 -0.4297 1.62077 -0.18409999999999999 2.1015900000000003 0.2455 0.4808 1.01133 0.722 2.30034 0.722 h 6.35444 l 2.36172 -5.83123 h 5.34018 z"/>
<path style="fill:#ffffff;fill-rule:nonzero;stroke:#1b181a;stroke-width:0.7307308;stroke-linecap:butt;stroke-linejoin:miter;stroke-miterlimit:4;stroke-dasharray:none;stroke-opacity:1" d="m 411.19924 449.37202 0.092 -1.04348 c 0.082 -0.9411999999999999 0.01 -1.61638 -0.2148 -2.02705 -0.2251 -0.40779999999999994 -0.4808 -0.6138 -0.7657999999999999 -0.6138 -0.2879 0 -0.7234 0.2061 -1.3050800000000002 0.6138 -0.5831 0.4107 -1.20279 1.0858700000000001 -1.8560599999999998 2.02705 l -0.7366 1.04348 h 2.6379399999999995 z  m -7.36577 4.04971 -3.8363300000000002 5.83269 h -5.4015699999999995 c 2.72125 -4.09209 4.78775 -7.19185 6.19952 -9.30074 1.41178 -2.10596 2.18927 -3.24152 2.33396 -3.40667 0.4077 -0.5101 0.8944000000000001 -1.04202 1.45708 -1.5944500000000001 0.5612 -0.5524 1.23201 -1.12533 2.01097 -1.71868 1.51261 -1.18671 2.80162 -1.78006 3.8655600000000003 -1.78006 h 3.03838 c 1.18671 0 2.02559 0.5933999999999999 2.5166399999999998 1.78006 0.532 1.20717 0.7366 2.31203 0.6138 3.31313 0.019 0.2879 -0.5217 4.52323 -1.6266 12.70741 h -5.4015699999999995 l 0.8301000000000001 -5.83269 z"/>



<!-- left name box -->
<rect class="box" x="720" y="200" width="50" height="70"/>
<rect class="box" x="770" y="200" width="590" height="210"/>
<line class="divider-line" x1="770" x2="1360" y1="270" y2="270"/>
<line class="divider-line" x1="770" x2="1360" y1="340" y2="340"/>
<text class="scoresheet_results_team1_side" x="745" y="250" text-anchor="middle"/>
<text class="scoresheet_results_team1_player1" x="780" y="250"/>
<text class="scoresheet_results_team1_player2" x="780" y="320"/>
<text class="scoresheet_results_team1_name small-text" x="780" y="385"/>
<ellipse class="scoresheet_results_circle_team1" visibility="hidden" cx="1000" cy="300" rx="280" ry="130"/>

<!-- score box -->
<text class="small-text" x="1485" y="190" text-anchor="middle" data-i18n="scoresheet:points"/>
<rect class="box" x="1380" width="210" y="200" height="210"/>
<line class="divider-line" x1="1380" x2="1590" y1="270" y2="270"/>
<line class="divider-line" x1="1380" x2="1590" y1="340" y2="340"/>
<text x="1485" y="250" text-anchor="middle">:</text>
<text x="1485" y="320" text-anchor="middle">:</text>
<text x="1485" y="390" text-anchor="middle">:</text>

<text class="scoresheet_results_team1_score1" x="1430" y="250" text-anchor="middle"/>
<text class="scoresheet_results_team1_score2" x="1430" y="320" text-anchor="middle"/>
<text class="scoresheet_results_team1_score3" x="1430" y="390" text-anchor="middle"/>
<text class="scoresheet_results_team2_score1" x="1540" y="250" text-anchor="middle"/>
<text class="scoresheet_results_team2_score2" x="1540" y="320" text-anchor="middle"/>
<text class="scoresheet_results_team2_score3" x="1540" y="390" text-anchor="middle"/>

<!-- right name box -->
<rect class="box shaded" x="2200" y="200" width="50" height="70"/>
<rect class="box shaded" x="1610" y="200" width="590" height="210"/>
<line class="divider-line" x1="1610" x2="2200" y1="270" y2="270"/>
<line class="divider-line" x1="1610" x2="2200" y1="340" y2="340"/>
<text class="scoresheet_results_team2_side" x="2225" y="250" text-anchor="middle"/>
<text class="scoresheet_results_team2_player1" x="1620" y="250"/>
<text class="scoresheet_results_team2_player2" x="1620" y="320"/>
<text class="scoresheet_results_team2_name small-text" x="1620" y="385"/>
<ellipse class="scoresheet_results_circle_team2" visibility="hidden" cx="1890" cy="300" rx="280" ry="130"/>

<!-- top right information about match -->
<text class="small-text" x="2280" y="150" data-i18n="scoresheet:Court"/>
<line class="dashed-line" x1="2520" x2="2820" y1="155" y2="155"/>
<text class="scoresheet_court_id" x="2530" y="140"/>
<text class="small-text" x="2280" y="220" data-i18n="scoresheet:Umpire"/>
<line class="dashed-line" x1="2520" x2="2820" y1="225" y2="225"/>
<text class="small-text scoresheet_umpire_name" x="2530" y="210"/>
<text class="small-text" x="2280" y="290" data-i18n="scoresheet:Service judge"/>
<line class="dashed-line" x1="2520" x2="2820" y1="295" y2="295"/>
<text class="small-text scoresheet_service_judge_name" x="2530" y="280"/>
<text class="small-text" x="2280" y="360" data-i18n="scoresheet:Begin"/>
<line class="dashed-line" x1="2520" x2="2820" y1="365" y2="365"/>
<text class="scoresheet_begin_value" x="2530" y="350"/>
<text class="small-text" x="2280" y="430" data-i18n="scoresheet:End"/>
<line class="dashed-line" x1="2520" x2="2820" y1="435" y2="435"/>
<text class="scoresheet_end_value" x="2530" y="420"/>
<text class="small-text" x="2280" y="500" data-i18n="scoresheet:Duration"/>
<line class="dashed-line" x1="2520" x2="2820" y1="505" y2="505"/>
<text class="scoresheet_duration_value" x="2530" y="490"/>

<text class="scoresheet_match_label small-text" x="780" y="500" data-i18n="scoresheet:Match"/>
<text class="scoresheet_match_name" x="880" y="500"/>
<g class="scoresheet_shuttle_counter">
	<text class="small-text" x="1780" y="500" text-anchor="end" data-i18n="scoresheet:Shuttles"/>
	<text class="scoresheet_shuttle_counter_value" x="1790" y="500"/>
</g>
<text class="scoresheet_date_label small-text" x="1880" y="500" data-i18n="scoresheet:Date"/>
<text class="scoresheet_date_value" x="1990" y="500"/>
<text class="scoresheet_scheduled_time_value" x="1990" y="550"/>


<g class="scoresheet_table_container"/>

<text class="small-text" x="1180" y="2000" data-i18n="scoresheet:Umpire"/>
<line class="dashed-line" x1="1420" x2="2020" y1="2005" y2="2005"/>
<text class="small-text" x="2070" y="2000" data-i18n="scoresheet:Referee"/>
<line class="dashed-line" x1="2220" x2="2820" y1="2005" y2="2005"/>

</svg>